%TF.GenerationSoftware,KiCad,Pcbnew,8.0.8*%
%TF.CreationDate,2025-03-24T10:48:50+01:00*%
%TF.ProjectId,Unit,556e6974-2e6b-4696-9361-645f70636258,rev?*%
%TF.SameCoordinates,Original*%
%TF.FileFunction,Legend,Top*%
%TF.FilePolarity,Positive*%
%FSLAX46Y46*%
G04 Gerber Fmt 4.6, Leading zero omitted, Abs format (unit mm)*
G04 Created by KiCad (PCBNEW 8.0.8) date 2025-03-24 10:48:50*
%MOMM*%
%LPD*%
G01*
G04 APERTURE LIST*
%ADD10C,0.150000*%
%ADD11C,0.120000*%
G04 APERTURE END LIST*
D10*
X160577015Y-32734819D02*
X160243682Y-32258628D01*
X160005587Y-32734819D02*
X160005587Y-31734819D01*
X160005587Y-31734819D02*
X160386539Y-31734819D01*
X160386539Y-31734819D02*
X160481777Y-31782438D01*
X160481777Y-31782438D02*
X160529396Y-31830057D01*
X160529396Y-31830057D02*
X160577015Y-31925295D01*
X160577015Y-31925295D02*
X160577015Y-32068152D01*
X160577015Y-32068152D02*
X160529396Y-32163390D01*
X160529396Y-32163390D02*
X160481777Y-32211009D01*
X160481777Y-32211009D02*
X160386539Y-32258628D01*
X160386539Y-32258628D02*
X160005587Y-32258628D01*
X160910349Y-31734819D02*
X161529396Y-31734819D01*
X161529396Y-31734819D02*
X161196063Y-32115771D01*
X161196063Y-32115771D02*
X161338920Y-32115771D01*
X161338920Y-32115771D02*
X161434158Y-32163390D01*
X161434158Y-32163390D02*
X161481777Y-32211009D01*
X161481777Y-32211009D02*
X161529396Y-32306247D01*
X161529396Y-32306247D02*
X161529396Y-32544342D01*
X161529396Y-32544342D02*
X161481777Y-32639580D01*
X161481777Y-32639580D02*
X161434158Y-32687200D01*
X161434158Y-32687200D02*
X161338920Y-32734819D01*
X161338920Y-32734819D02*
X161053206Y-32734819D01*
X161053206Y-32734819D02*
X160957968Y-32687200D01*
X160957968Y-32687200D02*
X160910349Y-32639580D01*
X162481777Y-32734819D02*
X161910349Y-32734819D01*
X162196063Y-32734819D02*
X162196063Y-31734819D01*
X162196063Y-31734819D02*
X162100825Y-31877676D01*
X162100825Y-31877676D02*
X162005587Y-31972914D01*
X162005587Y-31972914D02*
X161910349Y-32020533D01*
X134732356Y-131775238D02*
X134256165Y-132108571D01*
X134732356Y-132346666D02*
X133732356Y-132346666D01*
X133732356Y-132346666D02*
X133732356Y-131965714D01*
X133732356Y-131965714D02*
X133779975Y-131870476D01*
X133779975Y-131870476D02*
X133827594Y-131822857D01*
X133827594Y-131822857D02*
X133922832Y-131775238D01*
X133922832Y-131775238D02*
X134065689Y-131775238D01*
X134065689Y-131775238D02*
X134160927Y-131822857D01*
X134160927Y-131822857D02*
X134208546Y-131870476D01*
X134208546Y-131870476D02*
X134256165Y-131965714D01*
X134256165Y-131965714D02*
X134256165Y-132346666D01*
X133732356Y-131489523D02*
X134732356Y-131156190D01*
X134732356Y-131156190D02*
X133732356Y-130822857D01*
X133732356Y-130013333D02*
X133732356Y-130489523D01*
X133732356Y-130489523D02*
X134208546Y-130537142D01*
X134208546Y-130537142D02*
X134160927Y-130489523D01*
X134160927Y-130489523D02*
X134113308Y-130394285D01*
X134113308Y-130394285D02*
X134113308Y-130156190D01*
X134113308Y-130156190D02*
X134160927Y-130060952D01*
X134160927Y-130060952D02*
X134208546Y-130013333D01*
X134208546Y-130013333D02*
X134303784Y-129965714D01*
X134303784Y-129965714D02*
X134541879Y-129965714D01*
X134541879Y-129965714D02*
X134637117Y-130013333D01*
X134637117Y-130013333D02*
X134684737Y-130060952D01*
X134684737Y-130060952D02*
X134732356Y-130156190D01*
X134732356Y-130156190D02*
X134732356Y-130394285D01*
X134732356Y-130394285D02*
X134684737Y-130489523D01*
X134684737Y-130489523D02*
X134637117Y-130537142D01*
X138118013Y-47784819D02*
X138118013Y-48499104D01*
X138118013Y-48499104D02*
X138070394Y-48641961D01*
X138070394Y-48641961D02*
X137975156Y-48737200D01*
X137975156Y-48737200D02*
X137832299Y-48784819D01*
X137832299Y-48784819D02*
X137737061Y-48784819D01*
X139118013Y-48784819D02*
X138546585Y-48784819D01*
X138832299Y-48784819D02*
X138832299Y-47784819D01*
X138832299Y-47784819D02*
X138737061Y-47927676D01*
X138737061Y-47927676D02*
X138641823Y-48022914D01*
X138641823Y-48022914D02*
X138546585Y-48070533D01*
X139737061Y-47784819D02*
X139832299Y-47784819D01*
X139832299Y-47784819D02*
X139927537Y-47832438D01*
X139927537Y-47832438D02*
X139975156Y-47880057D01*
X139975156Y-47880057D02*
X140022775Y-47975295D01*
X140022775Y-47975295D02*
X140070394Y-48165771D01*
X140070394Y-48165771D02*
X140070394Y-48403866D01*
X140070394Y-48403866D02*
X140022775Y-48594342D01*
X140022775Y-48594342D02*
X139975156Y-48689580D01*
X139975156Y-48689580D02*
X139927537Y-48737200D01*
X139927537Y-48737200D02*
X139832299Y-48784819D01*
X139832299Y-48784819D02*
X139737061Y-48784819D01*
X139737061Y-48784819D02*
X139641823Y-48737200D01*
X139641823Y-48737200D02*
X139594204Y-48689580D01*
X139594204Y-48689580D02*
X139546585Y-48594342D01*
X139546585Y-48594342D02*
X139498966Y-48403866D01*
X139498966Y-48403866D02*
X139498966Y-48165771D01*
X139498966Y-48165771D02*
X139546585Y-47975295D01*
X139546585Y-47975295D02*
X139594204Y-47880057D01*
X139594204Y-47880057D02*
X139641823Y-47832438D01*
X139641823Y-47832438D02*
X139737061Y-47784819D01*
X138594203Y-41934819D02*
X138594203Y-42649104D01*
X138594203Y-42649104D02*
X138546584Y-42791961D01*
X138546584Y-42791961D02*
X138451346Y-42887200D01*
X138451346Y-42887200D02*
X138308489Y-42934819D01*
X138308489Y-42934819D02*
X138213251Y-42934819D01*
X139118013Y-42934819D02*
X139308489Y-42934819D01*
X139308489Y-42934819D02*
X139403727Y-42887200D01*
X139403727Y-42887200D02*
X139451346Y-42839580D01*
X139451346Y-42839580D02*
X139546584Y-42696723D01*
X139546584Y-42696723D02*
X139594203Y-42506247D01*
X139594203Y-42506247D02*
X139594203Y-42125295D01*
X139594203Y-42125295D02*
X139546584Y-42030057D01*
X139546584Y-42030057D02*
X139498965Y-41982438D01*
X139498965Y-41982438D02*
X139403727Y-41934819D01*
X139403727Y-41934819D02*
X139213251Y-41934819D01*
X139213251Y-41934819D02*
X139118013Y-41982438D01*
X139118013Y-41982438D02*
X139070394Y-42030057D01*
X139070394Y-42030057D02*
X139022775Y-42125295D01*
X139022775Y-42125295D02*
X139022775Y-42363390D01*
X139022775Y-42363390D02*
X139070394Y-42458628D01*
X139070394Y-42458628D02*
X139118013Y-42506247D01*
X139118013Y-42506247D02*
X139213251Y-42553866D01*
X139213251Y-42553866D02*
X139403727Y-42553866D01*
X139403727Y-42553866D02*
X139498965Y-42506247D01*
X139498965Y-42506247D02*
X139546584Y-42458628D01*
X139546584Y-42458628D02*
X139594203Y-42363390D01*
X138118013Y-59484819D02*
X138118013Y-60199104D01*
X138118013Y-60199104D02*
X138070394Y-60341961D01*
X138070394Y-60341961D02*
X137975156Y-60437200D01*
X137975156Y-60437200D02*
X137832299Y-60484819D01*
X137832299Y-60484819D02*
X137737061Y-60484819D01*
X139118013Y-60484819D02*
X138546585Y-60484819D01*
X138832299Y-60484819D02*
X138832299Y-59484819D01*
X138832299Y-59484819D02*
X138737061Y-59627676D01*
X138737061Y-59627676D02*
X138641823Y-59722914D01*
X138641823Y-59722914D02*
X138546585Y-59770533D01*
X139498966Y-59580057D02*
X139546585Y-59532438D01*
X139546585Y-59532438D02*
X139641823Y-59484819D01*
X139641823Y-59484819D02*
X139879918Y-59484819D01*
X139879918Y-59484819D02*
X139975156Y-59532438D01*
X139975156Y-59532438D02*
X140022775Y-59580057D01*
X140022775Y-59580057D02*
X140070394Y-59675295D01*
X140070394Y-59675295D02*
X140070394Y-59770533D01*
X140070394Y-59770533D02*
X140022775Y-59913390D01*
X140022775Y-59913390D02*
X139451347Y-60484819D01*
X139451347Y-60484819D02*
X140070394Y-60484819D01*
X138594203Y-36084819D02*
X138594203Y-36799104D01*
X138594203Y-36799104D02*
X138546584Y-36941961D01*
X138546584Y-36941961D02*
X138451346Y-37037200D01*
X138451346Y-37037200D02*
X138308489Y-37084819D01*
X138308489Y-37084819D02*
X138213251Y-37084819D01*
X139213251Y-36513390D02*
X139118013Y-36465771D01*
X139118013Y-36465771D02*
X139070394Y-36418152D01*
X139070394Y-36418152D02*
X139022775Y-36322914D01*
X139022775Y-36322914D02*
X139022775Y-36275295D01*
X139022775Y-36275295D02*
X139070394Y-36180057D01*
X139070394Y-36180057D02*
X139118013Y-36132438D01*
X139118013Y-36132438D02*
X139213251Y-36084819D01*
X139213251Y-36084819D02*
X139403727Y-36084819D01*
X139403727Y-36084819D02*
X139498965Y-36132438D01*
X139498965Y-36132438D02*
X139546584Y-36180057D01*
X139546584Y-36180057D02*
X139594203Y-36275295D01*
X139594203Y-36275295D02*
X139594203Y-36322914D01*
X139594203Y-36322914D02*
X139546584Y-36418152D01*
X139546584Y-36418152D02*
X139498965Y-36465771D01*
X139498965Y-36465771D02*
X139403727Y-36513390D01*
X139403727Y-36513390D02*
X139213251Y-36513390D01*
X139213251Y-36513390D02*
X139118013Y-36561009D01*
X139118013Y-36561009D02*
X139070394Y-36608628D01*
X139070394Y-36608628D02*
X139022775Y-36703866D01*
X139022775Y-36703866D02*
X139022775Y-36894342D01*
X139022775Y-36894342D02*
X139070394Y-36989580D01*
X139070394Y-36989580D02*
X139118013Y-37037200D01*
X139118013Y-37037200D02*
X139213251Y-37084819D01*
X139213251Y-37084819D02*
X139403727Y-37084819D01*
X139403727Y-37084819D02*
X139498965Y-37037200D01*
X139498965Y-37037200D02*
X139546584Y-36989580D01*
X139546584Y-36989580D02*
X139594203Y-36894342D01*
X139594203Y-36894342D02*
X139594203Y-36703866D01*
X139594203Y-36703866D02*
X139546584Y-36608628D01*
X139546584Y-36608628D02*
X139498965Y-36561009D01*
X139498965Y-36561009D02*
X139403727Y-36513390D01*
X170224692Y-22289523D02*
X170938977Y-22289523D01*
X170938977Y-22289523D02*
X171081834Y-22337142D01*
X171081834Y-22337142D02*
X171177073Y-22432380D01*
X171177073Y-22432380D02*
X171224692Y-22575237D01*
X171224692Y-22575237D02*
X171224692Y-22670475D01*
X171224692Y-21289523D02*
X171224692Y-21860951D01*
X171224692Y-21575237D02*
X170224692Y-21575237D01*
X170224692Y-21575237D02*
X170367549Y-21670475D01*
X170367549Y-21670475D02*
X170462787Y-21765713D01*
X170462787Y-21765713D02*
X170510406Y-21860951D01*
X170558025Y-20432380D02*
X171224692Y-20432380D01*
X170177073Y-20670475D02*
X170891358Y-20908570D01*
X170891358Y-20908570D02*
X170891358Y-20289523D01*
X142774692Y-84041904D02*
X143584215Y-84041904D01*
X143584215Y-84041904D02*
X143679453Y-83994285D01*
X143679453Y-83994285D02*
X143727073Y-83946666D01*
X143727073Y-83946666D02*
X143774692Y-83851428D01*
X143774692Y-83851428D02*
X143774692Y-83660952D01*
X143774692Y-83660952D02*
X143727073Y-83565714D01*
X143727073Y-83565714D02*
X143679453Y-83518095D01*
X143679453Y-83518095D02*
X143584215Y-83470476D01*
X143584215Y-83470476D02*
X142774692Y-83470476D01*
X142774692Y-83089523D02*
X142774692Y-82470476D01*
X142774692Y-82470476D02*
X143155644Y-82803809D01*
X143155644Y-82803809D02*
X143155644Y-82660952D01*
X143155644Y-82660952D02*
X143203263Y-82565714D01*
X143203263Y-82565714D02*
X143250882Y-82518095D01*
X143250882Y-82518095D02*
X143346120Y-82470476D01*
X143346120Y-82470476D02*
X143584215Y-82470476D01*
X143584215Y-82470476D02*
X143679453Y-82518095D01*
X143679453Y-82518095D02*
X143727073Y-82565714D01*
X143727073Y-82565714D02*
X143774692Y-82660952D01*
X143774692Y-82660952D02*
X143774692Y-82946666D01*
X143774692Y-82946666D02*
X143727073Y-83041904D01*
X143727073Y-83041904D02*
X143679453Y-83089523D01*
X150724692Y-30113333D02*
X151438977Y-30113333D01*
X151438977Y-30113333D02*
X151581834Y-30160952D01*
X151581834Y-30160952D02*
X151677073Y-30256190D01*
X151677073Y-30256190D02*
X151724692Y-30399047D01*
X151724692Y-30399047D02*
X151724692Y-30494285D01*
X151058025Y-29208571D02*
X151724692Y-29208571D01*
X150677073Y-29446666D02*
X151391358Y-29684761D01*
X151391358Y-29684761D02*
X151391358Y-29065714D01*
X134732356Y-162675238D02*
X134256165Y-163008571D01*
X134732356Y-163246666D02*
X133732356Y-163246666D01*
X133732356Y-163246666D02*
X133732356Y-162865714D01*
X133732356Y-162865714D02*
X133779975Y-162770476D01*
X133779975Y-162770476D02*
X133827594Y-162722857D01*
X133827594Y-162722857D02*
X133922832Y-162675238D01*
X133922832Y-162675238D02*
X134065689Y-162675238D01*
X134065689Y-162675238D02*
X134160927Y-162722857D01*
X134160927Y-162722857D02*
X134208546Y-162770476D01*
X134208546Y-162770476D02*
X134256165Y-162865714D01*
X134256165Y-162865714D02*
X134256165Y-163246666D01*
X133732356Y-162389523D02*
X134732356Y-162056190D01*
X134732356Y-162056190D02*
X133732356Y-161722857D01*
X134732356Y-160865714D02*
X134732356Y-161437142D01*
X134732356Y-161151428D02*
X133732356Y-161151428D01*
X133732356Y-161151428D02*
X133875213Y-161246666D01*
X133875213Y-161246666D02*
X133970451Y-161341904D01*
X133970451Y-161341904D02*
X134018070Y-161437142D01*
X138118013Y-53634819D02*
X138118013Y-54349104D01*
X138118013Y-54349104D02*
X138070394Y-54491961D01*
X138070394Y-54491961D02*
X137975156Y-54587200D01*
X137975156Y-54587200D02*
X137832299Y-54634819D01*
X137832299Y-54634819D02*
X137737061Y-54634819D01*
X139118013Y-54634819D02*
X138546585Y-54634819D01*
X138832299Y-54634819D02*
X138832299Y-53634819D01*
X138832299Y-53634819D02*
X138737061Y-53777676D01*
X138737061Y-53777676D02*
X138641823Y-53872914D01*
X138641823Y-53872914D02*
X138546585Y-53920533D01*
X140070394Y-54634819D02*
X139498966Y-54634819D01*
X139784680Y-54634819D02*
X139784680Y-53634819D01*
X139784680Y-53634819D02*
X139689442Y-53777676D01*
X139689442Y-53777676D02*
X139594204Y-53872914D01*
X139594204Y-53872914D02*
X139498966Y-53920533D01*
X149082356Y-147225238D02*
X148606165Y-147558571D01*
X149082356Y-147796666D02*
X148082356Y-147796666D01*
X148082356Y-147796666D02*
X148082356Y-147415714D01*
X148082356Y-147415714D02*
X148129975Y-147320476D01*
X148129975Y-147320476D02*
X148177594Y-147272857D01*
X148177594Y-147272857D02*
X148272832Y-147225238D01*
X148272832Y-147225238D02*
X148415689Y-147225238D01*
X148415689Y-147225238D02*
X148510927Y-147272857D01*
X148510927Y-147272857D02*
X148558546Y-147320476D01*
X148558546Y-147320476D02*
X148606165Y-147415714D01*
X148606165Y-147415714D02*
X148606165Y-147796666D01*
X148082356Y-146939523D02*
X149082356Y-146606190D01*
X149082356Y-146606190D02*
X148082356Y-146272857D01*
X148415689Y-145510952D02*
X149082356Y-145510952D01*
X148034737Y-145749047D02*
X148749022Y-145987142D01*
X148749022Y-145987142D02*
X148749022Y-145368095D01*
X147732968Y-35009819D02*
X147732968Y-35819342D01*
X147732968Y-35819342D02*
X147780587Y-35914580D01*
X147780587Y-35914580D02*
X147828206Y-35962200D01*
X147828206Y-35962200D02*
X147923444Y-36009819D01*
X147923444Y-36009819D02*
X148113920Y-36009819D01*
X148113920Y-36009819D02*
X148209158Y-35962200D01*
X148209158Y-35962200D02*
X148256777Y-35914580D01*
X148256777Y-35914580D02*
X148304396Y-35819342D01*
X148304396Y-35819342D02*
X148304396Y-35009819D01*
X148732968Y-35105057D02*
X148780587Y-35057438D01*
X148780587Y-35057438D02*
X148875825Y-35009819D01*
X148875825Y-35009819D02*
X149113920Y-35009819D01*
X149113920Y-35009819D02*
X149209158Y-35057438D01*
X149209158Y-35057438D02*
X149256777Y-35105057D01*
X149256777Y-35105057D02*
X149304396Y-35200295D01*
X149304396Y-35200295D02*
X149304396Y-35295533D01*
X149304396Y-35295533D02*
X149256777Y-35438390D01*
X149256777Y-35438390D02*
X148685349Y-36009819D01*
X148685349Y-36009819D02*
X149304396Y-36009819D01*
X149082356Y-116325238D02*
X148606165Y-116658571D01*
X149082356Y-116896666D02*
X148082356Y-116896666D01*
X148082356Y-116896666D02*
X148082356Y-116515714D01*
X148082356Y-116515714D02*
X148129975Y-116420476D01*
X148129975Y-116420476D02*
X148177594Y-116372857D01*
X148177594Y-116372857D02*
X148272832Y-116325238D01*
X148272832Y-116325238D02*
X148415689Y-116325238D01*
X148415689Y-116325238D02*
X148510927Y-116372857D01*
X148510927Y-116372857D02*
X148558546Y-116420476D01*
X148558546Y-116420476D02*
X148606165Y-116515714D01*
X148606165Y-116515714D02*
X148606165Y-116896666D01*
X148082356Y-116039523D02*
X149082356Y-115706190D01*
X149082356Y-115706190D02*
X148082356Y-115372857D01*
X148510927Y-114896666D02*
X148463308Y-114991904D01*
X148463308Y-114991904D02*
X148415689Y-115039523D01*
X148415689Y-115039523D02*
X148320451Y-115087142D01*
X148320451Y-115087142D02*
X148272832Y-115087142D01*
X148272832Y-115087142D02*
X148177594Y-115039523D01*
X148177594Y-115039523D02*
X148129975Y-114991904D01*
X148129975Y-114991904D02*
X148082356Y-114896666D01*
X148082356Y-114896666D02*
X148082356Y-114706190D01*
X148082356Y-114706190D02*
X148129975Y-114610952D01*
X148129975Y-114610952D02*
X148177594Y-114563333D01*
X148177594Y-114563333D02*
X148272832Y-114515714D01*
X148272832Y-114515714D02*
X148320451Y-114515714D01*
X148320451Y-114515714D02*
X148415689Y-114563333D01*
X148415689Y-114563333D02*
X148463308Y-114610952D01*
X148463308Y-114610952D02*
X148510927Y-114706190D01*
X148510927Y-114706190D02*
X148510927Y-114896666D01*
X148510927Y-114896666D02*
X148558546Y-114991904D01*
X148558546Y-114991904D02*
X148606165Y-115039523D01*
X148606165Y-115039523D02*
X148701403Y-115087142D01*
X148701403Y-115087142D02*
X148891879Y-115087142D01*
X148891879Y-115087142D02*
X148987117Y-115039523D01*
X148987117Y-115039523D02*
X149034737Y-114991904D01*
X149034737Y-114991904D02*
X149082356Y-114896666D01*
X149082356Y-114896666D02*
X149082356Y-114706190D01*
X149082356Y-114706190D02*
X149034737Y-114610952D01*
X149034737Y-114610952D02*
X148987117Y-114563333D01*
X148987117Y-114563333D02*
X148891879Y-114515714D01*
X148891879Y-114515714D02*
X148701403Y-114515714D01*
X148701403Y-114515714D02*
X148606165Y-114563333D01*
X148606165Y-114563333D02*
X148558546Y-114610952D01*
X148558546Y-114610952D02*
X148510927Y-114706190D01*
X149082356Y-162675238D02*
X148606165Y-163008571D01*
X149082356Y-163246666D02*
X148082356Y-163246666D01*
X148082356Y-163246666D02*
X148082356Y-162865714D01*
X148082356Y-162865714D02*
X148129975Y-162770476D01*
X148129975Y-162770476D02*
X148177594Y-162722857D01*
X148177594Y-162722857D02*
X148272832Y-162675238D01*
X148272832Y-162675238D02*
X148415689Y-162675238D01*
X148415689Y-162675238D02*
X148510927Y-162722857D01*
X148510927Y-162722857D02*
X148558546Y-162770476D01*
X148558546Y-162770476D02*
X148606165Y-162865714D01*
X148606165Y-162865714D02*
X148606165Y-163246666D01*
X148082356Y-162389523D02*
X149082356Y-162056190D01*
X149082356Y-162056190D02*
X148082356Y-161722857D01*
X148177594Y-161437142D02*
X148129975Y-161389523D01*
X148129975Y-161389523D02*
X148082356Y-161294285D01*
X148082356Y-161294285D02*
X148082356Y-161056190D01*
X148082356Y-161056190D02*
X148129975Y-160960952D01*
X148129975Y-160960952D02*
X148177594Y-160913333D01*
X148177594Y-160913333D02*
X148272832Y-160865714D01*
X148272832Y-160865714D02*
X148368070Y-160865714D01*
X148368070Y-160865714D02*
X148510927Y-160913333D01*
X148510927Y-160913333D02*
X149082356Y-161484761D01*
X149082356Y-161484761D02*
X149082356Y-160865714D01*
X134732356Y-116325238D02*
X134256165Y-116658571D01*
X134732356Y-116896666D02*
X133732356Y-116896666D01*
X133732356Y-116896666D02*
X133732356Y-116515714D01*
X133732356Y-116515714D02*
X133779975Y-116420476D01*
X133779975Y-116420476D02*
X133827594Y-116372857D01*
X133827594Y-116372857D02*
X133922832Y-116325238D01*
X133922832Y-116325238D02*
X134065689Y-116325238D01*
X134065689Y-116325238D02*
X134160927Y-116372857D01*
X134160927Y-116372857D02*
X134208546Y-116420476D01*
X134208546Y-116420476D02*
X134256165Y-116515714D01*
X134256165Y-116515714D02*
X134256165Y-116896666D01*
X133732356Y-116039523D02*
X134732356Y-115706190D01*
X134732356Y-115706190D02*
X133732356Y-115372857D01*
X133732356Y-115134761D02*
X133732356Y-114468095D01*
X133732356Y-114468095D02*
X134732356Y-114896666D01*
X156327015Y-32984819D02*
X155993682Y-32508628D01*
X155755587Y-32984819D02*
X155755587Y-31984819D01*
X155755587Y-31984819D02*
X156136539Y-31984819D01*
X156136539Y-31984819D02*
X156231777Y-32032438D01*
X156231777Y-32032438D02*
X156279396Y-32080057D01*
X156279396Y-32080057D02*
X156327015Y-32175295D01*
X156327015Y-32175295D02*
X156327015Y-32318152D01*
X156327015Y-32318152D02*
X156279396Y-32413390D01*
X156279396Y-32413390D02*
X156231777Y-32461009D01*
X156231777Y-32461009D02*
X156136539Y-32508628D01*
X156136539Y-32508628D02*
X155755587Y-32508628D01*
X156660349Y-31984819D02*
X157279396Y-31984819D01*
X157279396Y-31984819D02*
X156946063Y-32365771D01*
X156946063Y-32365771D02*
X157088920Y-32365771D01*
X157088920Y-32365771D02*
X157184158Y-32413390D01*
X157184158Y-32413390D02*
X157231777Y-32461009D01*
X157231777Y-32461009D02*
X157279396Y-32556247D01*
X157279396Y-32556247D02*
X157279396Y-32794342D01*
X157279396Y-32794342D02*
X157231777Y-32889580D01*
X157231777Y-32889580D02*
X157184158Y-32937200D01*
X157184158Y-32937200D02*
X157088920Y-32984819D01*
X157088920Y-32984819D02*
X156803206Y-32984819D01*
X156803206Y-32984819D02*
X156707968Y-32937200D01*
X156707968Y-32937200D02*
X156660349Y-32889580D01*
X157898444Y-31984819D02*
X157993682Y-31984819D01*
X157993682Y-31984819D02*
X158088920Y-32032438D01*
X158088920Y-32032438D02*
X158136539Y-32080057D01*
X158136539Y-32080057D02*
X158184158Y-32175295D01*
X158184158Y-32175295D02*
X158231777Y-32365771D01*
X158231777Y-32365771D02*
X158231777Y-32603866D01*
X158231777Y-32603866D02*
X158184158Y-32794342D01*
X158184158Y-32794342D02*
X158136539Y-32889580D01*
X158136539Y-32889580D02*
X158088920Y-32937200D01*
X158088920Y-32937200D02*
X157993682Y-32984819D01*
X157993682Y-32984819D02*
X157898444Y-32984819D01*
X157898444Y-32984819D02*
X157803206Y-32937200D01*
X157803206Y-32937200D02*
X157755587Y-32889580D01*
X157755587Y-32889580D02*
X157707968Y-32794342D01*
X157707968Y-32794342D02*
X157660349Y-32603866D01*
X157660349Y-32603866D02*
X157660349Y-32365771D01*
X157660349Y-32365771D02*
X157707968Y-32175295D01*
X157707968Y-32175295D02*
X157755587Y-32080057D01*
X157755587Y-32080057D02*
X157803206Y-32032438D01*
X157803206Y-32032438D02*
X157898444Y-31984819D01*
X142577356Y-104566904D02*
X143386879Y-104566904D01*
X143386879Y-104566904D02*
X143482117Y-104519285D01*
X143482117Y-104519285D02*
X143529737Y-104471666D01*
X143529737Y-104471666D02*
X143577356Y-104376428D01*
X143577356Y-104376428D02*
X143577356Y-104185952D01*
X143577356Y-104185952D02*
X143529737Y-104090714D01*
X143529737Y-104090714D02*
X143482117Y-104043095D01*
X143482117Y-104043095D02*
X143386879Y-103995476D01*
X143386879Y-103995476D02*
X142577356Y-103995476D01*
X143577356Y-102995476D02*
X143577356Y-103566904D01*
X143577356Y-103281190D02*
X142577356Y-103281190D01*
X142577356Y-103281190D02*
X142720213Y-103376428D01*
X142720213Y-103376428D02*
X142815451Y-103471666D01*
X142815451Y-103471666D02*
X142863070Y-103566904D01*
X138594203Y-24384819D02*
X138594203Y-25099104D01*
X138594203Y-25099104D02*
X138546584Y-25241961D01*
X138546584Y-25241961D02*
X138451346Y-25337200D01*
X138451346Y-25337200D02*
X138308489Y-25384819D01*
X138308489Y-25384819D02*
X138213251Y-25384819D01*
X139498965Y-24384819D02*
X139308489Y-24384819D01*
X139308489Y-24384819D02*
X139213251Y-24432438D01*
X139213251Y-24432438D02*
X139165632Y-24480057D01*
X139165632Y-24480057D02*
X139070394Y-24622914D01*
X139070394Y-24622914D02*
X139022775Y-24813390D01*
X139022775Y-24813390D02*
X139022775Y-25194342D01*
X139022775Y-25194342D02*
X139070394Y-25289580D01*
X139070394Y-25289580D02*
X139118013Y-25337200D01*
X139118013Y-25337200D02*
X139213251Y-25384819D01*
X139213251Y-25384819D02*
X139403727Y-25384819D01*
X139403727Y-25384819D02*
X139498965Y-25337200D01*
X139498965Y-25337200D02*
X139546584Y-25289580D01*
X139546584Y-25289580D02*
X139594203Y-25194342D01*
X139594203Y-25194342D02*
X139594203Y-24956247D01*
X139594203Y-24956247D02*
X139546584Y-24861009D01*
X139546584Y-24861009D02*
X139498965Y-24813390D01*
X139498965Y-24813390D02*
X139403727Y-24765771D01*
X139403727Y-24765771D02*
X139213251Y-24765771D01*
X139213251Y-24765771D02*
X139118013Y-24813390D01*
X139118013Y-24813390D02*
X139070394Y-24861009D01*
X139070394Y-24861009D02*
X139022775Y-24956247D01*
X153794692Y-42056904D02*
X154604215Y-42056904D01*
X154604215Y-42056904D02*
X154699453Y-42009285D01*
X154699453Y-42009285D02*
X154747073Y-41961666D01*
X154747073Y-41961666D02*
X154794692Y-41866428D01*
X154794692Y-41866428D02*
X154794692Y-41675952D01*
X154794692Y-41675952D02*
X154747073Y-41580714D01*
X154747073Y-41580714D02*
X154699453Y-41533095D01*
X154699453Y-41533095D02*
X154604215Y-41485476D01*
X154604215Y-41485476D02*
X153794692Y-41485476D01*
X154128025Y-40580714D02*
X154794692Y-40580714D01*
X153747073Y-40818809D02*
X154461358Y-41056904D01*
X154461358Y-41056904D02*
X154461358Y-40437857D01*
X163666666Y-46544819D02*
X163666666Y-47259104D01*
X163666666Y-47259104D02*
X163619047Y-47401961D01*
X163619047Y-47401961D02*
X163523809Y-47497200D01*
X163523809Y-47497200D02*
X163380952Y-47544819D01*
X163380952Y-47544819D02*
X163285714Y-47544819D01*
X164666666Y-47544819D02*
X164095238Y-47544819D01*
X164380952Y-47544819D02*
X164380952Y-46544819D01*
X164380952Y-46544819D02*
X164285714Y-46687676D01*
X164285714Y-46687676D02*
X164190476Y-46782914D01*
X164190476Y-46782914D02*
X164095238Y-46830533D01*
X134732356Y-147225238D02*
X134256165Y-147558571D01*
X134732356Y-147796666D02*
X133732356Y-147796666D01*
X133732356Y-147796666D02*
X133732356Y-147415714D01*
X133732356Y-147415714D02*
X133779975Y-147320476D01*
X133779975Y-147320476D02*
X133827594Y-147272857D01*
X133827594Y-147272857D02*
X133922832Y-147225238D01*
X133922832Y-147225238D02*
X134065689Y-147225238D01*
X134065689Y-147225238D02*
X134160927Y-147272857D01*
X134160927Y-147272857D02*
X134208546Y-147320476D01*
X134208546Y-147320476D02*
X134256165Y-147415714D01*
X134256165Y-147415714D02*
X134256165Y-147796666D01*
X133732356Y-146939523D02*
X134732356Y-146606190D01*
X134732356Y-146606190D02*
X133732356Y-146272857D01*
X133732356Y-146034761D02*
X133732356Y-145415714D01*
X133732356Y-145415714D02*
X134113308Y-145749047D01*
X134113308Y-145749047D02*
X134113308Y-145606190D01*
X134113308Y-145606190D02*
X134160927Y-145510952D01*
X134160927Y-145510952D02*
X134208546Y-145463333D01*
X134208546Y-145463333D02*
X134303784Y-145415714D01*
X134303784Y-145415714D02*
X134541879Y-145415714D01*
X134541879Y-145415714D02*
X134637117Y-145463333D01*
X134637117Y-145463333D02*
X134684737Y-145510952D01*
X134684737Y-145510952D02*
X134732356Y-145606190D01*
X134732356Y-145606190D02*
X134732356Y-145891904D01*
X134732356Y-145891904D02*
X134684737Y-145987142D01*
X134684737Y-145987142D02*
X134637117Y-146034761D01*
X149082356Y-131775238D02*
X148606165Y-132108571D01*
X149082356Y-132346666D02*
X148082356Y-132346666D01*
X148082356Y-132346666D02*
X148082356Y-131965714D01*
X148082356Y-131965714D02*
X148129975Y-131870476D01*
X148129975Y-131870476D02*
X148177594Y-131822857D01*
X148177594Y-131822857D02*
X148272832Y-131775238D01*
X148272832Y-131775238D02*
X148415689Y-131775238D01*
X148415689Y-131775238D02*
X148510927Y-131822857D01*
X148510927Y-131822857D02*
X148558546Y-131870476D01*
X148558546Y-131870476D02*
X148606165Y-131965714D01*
X148606165Y-131965714D02*
X148606165Y-132346666D01*
X148082356Y-131489523D02*
X149082356Y-131156190D01*
X149082356Y-131156190D02*
X148082356Y-130822857D01*
X148082356Y-130060952D02*
X148082356Y-130251428D01*
X148082356Y-130251428D02*
X148129975Y-130346666D01*
X148129975Y-130346666D02*
X148177594Y-130394285D01*
X148177594Y-130394285D02*
X148320451Y-130489523D01*
X148320451Y-130489523D02*
X148510927Y-130537142D01*
X148510927Y-130537142D02*
X148891879Y-130537142D01*
X148891879Y-130537142D02*
X148987117Y-130489523D01*
X148987117Y-130489523D02*
X149034737Y-130441904D01*
X149034737Y-130441904D02*
X149082356Y-130346666D01*
X149082356Y-130346666D02*
X149082356Y-130156190D01*
X149082356Y-130156190D02*
X149034737Y-130060952D01*
X149034737Y-130060952D02*
X148987117Y-130013333D01*
X148987117Y-130013333D02*
X148891879Y-129965714D01*
X148891879Y-129965714D02*
X148653784Y-129965714D01*
X148653784Y-129965714D02*
X148558546Y-130013333D01*
X148558546Y-130013333D02*
X148510927Y-130060952D01*
X148510927Y-130060952D02*
X148463308Y-130156190D01*
X148463308Y-130156190D02*
X148463308Y-130346666D01*
X148463308Y-130346666D02*
X148510927Y-130441904D01*
X148510927Y-130441904D02*
X148558546Y-130489523D01*
X148558546Y-130489523D02*
X148653784Y-130537142D01*
X138594203Y-30234819D02*
X138594203Y-30949104D01*
X138594203Y-30949104D02*
X138546584Y-31091961D01*
X138546584Y-31091961D02*
X138451346Y-31187200D01*
X138451346Y-31187200D02*
X138308489Y-31234819D01*
X138308489Y-31234819D02*
X138213251Y-31234819D01*
X138975156Y-30234819D02*
X139641822Y-30234819D01*
X139641822Y-30234819D02*
X139213251Y-31234819D01*
X155504692Y-51172857D02*
X155028501Y-51506190D01*
X155504692Y-51744285D02*
X154504692Y-51744285D01*
X154504692Y-51744285D02*
X154504692Y-51363333D01*
X154504692Y-51363333D02*
X154552311Y-51268095D01*
X154552311Y-51268095D02*
X154599930Y-51220476D01*
X154599930Y-51220476D02*
X154695168Y-51172857D01*
X154695168Y-51172857D02*
X154838025Y-51172857D01*
X154838025Y-51172857D02*
X154933263Y-51220476D01*
X154933263Y-51220476D02*
X154980882Y-51268095D01*
X154980882Y-51268095D02*
X155028501Y-51363333D01*
X155028501Y-51363333D02*
X155028501Y-51744285D01*
X154599930Y-50791904D02*
X154552311Y-50744285D01*
X154552311Y-50744285D02*
X154504692Y-50649047D01*
X154504692Y-50649047D02*
X154504692Y-50410952D01*
X154504692Y-50410952D02*
X154552311Y-50315714D01*
X154552311Y-50315714D02*
X154599930Y-50268095D01*
X154599930Y-50268095D02*
X154695168Y-50220476D01*
X154695168Y-50220476D02*
X154790406Y-50220476D01*
X154790406Y-50220476D02*
X154933263Y-50268095D01*
X154933263Y-50268095D02*
X155504692Y-50839523D01*
X155504692Y-50839523D02*
X155504692Y-50220476D01*
X155504692Y-49744285D02*
X155504692Y-49553809D01*
X155504692Y-49553809D02*
X155457073Y-49458571D01*
X155457073Y-49458571D02*
X155409453Y-49410952D01*
X155409453Y-49410952D02*
X155266596Y-49315714D01*
X155266596Y-49315714D02*
X155076120Y-49268095D01*
X155076120Y-49268095D02*
X154695168Y-49268095D01*
X154695168Y-49268095D02*
X154599930Y-49315714D01*
X154599930Y-49315714D02*
X154552311Y-49363333D01*
X154552311Y-49363333D02*
X154504692Y-49458571D01*
X154504692Y-49458571D02*
X154504692Y-49649047D01*
X154504692Y-49649047D02*
X154552311Y-49744285D01*
X154552311Y-49744285D02*
X154599930Y-49791904D01*
X154599930Y-49791904D02*
X154695168Y-49839523D01*
X154695168Y-49839523D02*
X154933263Y-49839523D01*
X154933263Y-49839523D02*
X155028501Y-49791904D01*
X155028501Y-49791904D02*
X155076120Y-49744285D01*
X155076120Y-49744285D02*
X155123739Y-49649047D01*
X155123739Y-49649047D02*
X155123739Y-49458571D01*
X155123739Y-49458571D02*
X155076120Y-49363333D01*
X155076120Y-49363333D02*
X155028501Y-49315714D01*
X155028501Y-49315714D02*
X154933263Y-49268095D01*
D11*
%TO.C,R31*%
X158839873Y-33126359D02*
X158839873Y-33433641D01*
X159599873Y-33126359D02*
X159599873Y-33433641D01*
%TO.C,RV5*%
X136957537Y-124110000D02*
X146897537Y-124110000D01*
X136957537Y-127975000D02*
X136957537Y-124110000D01*
X136957537Y-136350000D02*
X136957537Y-132485000D01*
X136957537Y-136350000D02*
X138556537Y-136350000D01*
X140298537Y-136350000D02*
X141057537Y-136350000D01*
X142798537Y-136350000D02*
X143557537Y-136350000D01*
X145297537Y-136350000D02*
X146897537Y-136350000D01*
X146897537Y-127975000D02*
X146897537Y-124110000D01*
X146897537Y-136350000D02*
X146897537Y-132485000D01*
%TO.C,J10*%
X133517537Y-51240000D02*
X133517537Y-53740000D01*
X133517537Y-53740000D02*
X136017537Y-53740000D01*
X133817537Y-49420000D02*
X133817537Y-53440000D01*
X133817537Y-51130000D02*
X134317537Y-51130000D01*
X133817537Y-51940000D02*
X134817537Y-51940000D01*
X133817537Y-53440000D02*
X144037537Y-53440000D01*
X134317537Y-49920000D02*
X143537537Y-49920000D01*
X134317537Y-51130000D02*
X134317537Y-49920000D01*
X134817537Y-51940000D02*
X134817537Y-53440000D01*
X143037537Y-51940000D02*
X143037537Y-53440000D01*
X143537537Y-49920000D02*
X143537537Y-51130000D01*
X143537537Y-51130000D02*
X144037537Y-51130000D01*
X144037537Y-49420000D02*
X133817537Y-49420000D01*
X144037537Y-51940000D02*
X143037537Y-51940000D01*
X144037537Y-53440000D02*
X144037537Y-49420000D01*
%TO.C,J9*%
X133517537Y-45390000D02*
X133517537Y-47890000D01*
X133517537Y-47890000D02*
X136017537Y-47890000D01*
X133817537Y-43570000D02*
X133817537Y-47590000D01*
X133817537Y-45280000D02*
X134317537Y-45280000D01*
X133817537Y-46090000D02*
X134817537Y-46090000D01*
X133817537Y-47590000D02*
X144037537Y-47590000D01*
X134317537Y-44070000D02*
X143537537Y-44070000D01*
X134317537Y-45280000D02*
X134317537Y-44070000D01*
X134817537Y-46090000D02*
X134817537Y-47590000D01*
X143037537Y-46090000D02*
X143037537Y-47590000D01*
X143537537Y-44070000D02*
X143537537Y-45280000D01*
X143537537Y-45280000D02*
X144037537Y-45280000D01*
X144037537Y-43570000D02*
X133817537Y-43570000D01*
X144037537Y-46090000D02*
X143037537Y-46090000D01*
X144037537Y-47590000D02*
X144037537Y-43570000D01*
%TO.C,J12*%
X133517537Y-62940000D02*
X133517537Y-65440000D01*
X133517537Y-65440000D02*
X136017537Y-65440000D01*
X133817537Y-61120000D02*
X133817537Y-65140000D01*
X133817537Y-62830000D02*
X134317537Y-62830000D01*
X133817537Y-63640000D02*
X134817537Y-63640000D01*
X133817537Y-65140000D02*
X144037537Y-65140000D01*
X134317537Y-61620000D02*
X143537537Y-61620000D01*
X134317537Y-62830000D02*
X134317537Y-61620000D01*
X134817537Y-63640000D02*
X134817537Y-65140000D01*
X143037537Y-63640000D02*
X143037537Y-65140000D01*
X143537537Y-61620000D02*
X143537537Y-62830000D01*
X143537537Y-62830000D02*
X144037537Y-62830000D01*
X144037537Y-61120000D02*
X133817537Y-61120000D01*
X144037537Y-63640000D02*
X143037537Y-63640000D01*
X144037537Y-65140000D02*
X144037537Y-61120000D01*
%TO.C,J8*%
X133517537Y-39540000D02*
X133517537Y-42040000D01*
X133517537Y-42040000D02*
X136017537Y-42040000D01*
X133817537Y-37720000D02*
X133817537Y-41740000D01*
X133817537Y-39430000D02*
X134317537Y-39430000D01*
X133817537Y-40240000D02*
X134817537Y-40240000D01*
X133817537Y-41740000D02*
X144037537Y-41740000D01*
X134317537Y-38220000D02*
X143537537Y-38220000D01*
X134317537Y-39430000D02*
X134317537Y-38220000D01*
X134817537Y-40240000D02*
X134817537Y-41740000D01*
X143037537Y-40240000D02*
X143037537Y-41740000D01*
X143537537Y-38220000D02*
X143537537Y-39430000D01*
X143537537Y-39430000D02*
X144037537Y-39430000D01*
X144037537Y-37720000D02*
X133817537Y-37720000D01*
X144037537Y-40240000D02*
X143037537Y-40240000D01*
X144037537Y-41740000D02*
X144037537Y-37720000D01*
%TO.C,J14*%
X152269873Y-18380000D02*
X153469873Y-18380000D01*
X152269873Y-24580000D02*
X152269873Y-18380000D01*
X156669873Y-18380000D02*
X163169873Y-18380000D01*
X161169873Y-24580000D02*
X152269873Y-24580000D01*
X163169873Y-18380000D02*
X163169873Y-16380000D01*
X165769873Y-18380000D02*
X165769873Y-16380000D01*
X165769873Y-18380000D02*
X166969873Y-18380000D01*
X166969873Y-18380000D02*
X166969873Y-18880000D01*
X166969873Y-18880000D02*
X169469873Y-18880000D01*
X166969873Y-24080000D02*
X166969873Y-24580000D01*
X166969873Y-24580000D02*
X163769873Y-24580000D01*
X169469873Y-18880000D02*
X169469873Y-24080000D01*
X169469873Y-24080000D02*
X166969873Y-24080000D01*
%TO.C,U3*%
X144159873Y-83280000D02*
X144159873Y-81330000D01*
X144159873Y-83280000D02*
X144159873Y-85230000D01*
X154279873Y-83280000D02*
X154279873Y-81330000D01*
X154279873Y-83280000D02*
X154279873Y-85230000D01*
X144214873Y-85980000D02*
X143884873Y-86220000D01*
X143884873Y-85740000D01*
X144214873Y-85980000D01*
G36*
X144214873Y-85980000D02*
G01*
X143884873Y-86220000D01*
X143884873Y-85740000D01*
X144214873Y-85980000D01*
G37*
%TO.C,J4*%
X152269873Y-31110000D02*
X152269873Y-29780000D01*
X153599873Y-31110000D02*
X152269873Y-31110000D01*
X154869873Y-28450000D02*
X165089873Y-28450000D01*
X154869873Y-31110000D02*
X154869873Y-28450000D01*
X154869873Y-31110000D02*
X165089873Y-31110000D01*
X165089873Y-31110000D02*
X165089873Y-28450000D01*
%TO.C,RV1*%
X136957537Y-155010000D02*
X146897537Y-155010000D01*
X136957537Y-158875000D02*
X136957537Y-155010000D01*
X136957537Y-167250000D02*
X136957537Y-163385000D01*
X136957537Y-167250000D02*
X138556537Y-167250000D01*
X140298537Y-167250000D02*
X141057537Y-167250000D01*
X142798537Y-167250000D02*
X143557537Y-167250000D01*
X145297537Y-167250000D02*
X146897537Y-167250000D01*
X146897537Y-158875000D02*
X146897537Y-155010000D01*
X146897537Y-167250000D02*
X146897537Y-163385000D01*
%TO.C,J11*%
X133517537Y-57090000D02*
X133517537Y-59590000D01*
X133517537Y-59590000D02*
X136017537Y-59590000D01*
X133817537Y-55270000D02*
X133817537Y-59290000D01*
X133817537Y-56980000D02*
X134317537Y-56980000D01*
X133817537Y-57790000D02*
X134817537Y-57790000D01*
X133817537Y-59290000D02*
X144037537Y-59290000D01*
X134317537Y-55770000D02*
X143537537Y-55770000D01*
X134317537Y-56980000D02*
X134317537Y-55770000D01*
X134817537Y-57790000D02*
X134817537Y-59290000D01*
X143037537Y-57790000D02*
X143037537Y-59290000D01*
X143537537Y-55770000D02*
X143537537Y-56980000D01*
X143537537Y-56980000D02*
X144037537Y-56980000D01*
X144037537Y-55270000D02*
X133817537Y-55270000D01*
X144037537Y-57790000D02*
X143037537Y-57790000D01*
X144037537Y-59290000D02*
X144037537Y-55270000D01*
%TO.C,RV4*%
X151307537Y-139560000D02*
X161247537Y-139560000D01*
X151307537Y-143425000D02*
X151307537Y-139560000D01*
X151307537Y-151800000D02*
X151307537Y-147935000D01*
X151307537Y-151800000D02*
X152906537Y-151800000D01*
X154648537Y-151800000D02*
X155407537Y-151800000D01*
X157148537Y-151800000D02*
X157907537Y-151800000D01*
X159647537Y-151800000D02*
X161247537Y-151800000D01*
X161247537Y-143425000D02*
X161247537Y-139560000D01*
X161247537Y-151800000D02*
X161247537Y-147935000D01*
%TO.C,U2*%
X148494873Y-36395000D02*
X146544873Y-36395000D01*
X148494873Y-36395000D02*
X150444873Y-36395000D01*
X148494873Y-46515000D02*
X146544873Y-46515000D01*
X148494873Y-46515000D02*
X150444873Y-46515000D01*
X145794873Y-36450000D02*
X145554873Y-36120000D01*
X146034873Y-36120000D01*
X145794873Y-36450000D01*
G36*
X145794873Y-36450000D02*
G01*
X145554873Y-36120000D01*
X146034873Y-36120000D01*
X145794873Y-36450000D01*
G37*
%TO.C,RV8*%
X151307537Y-108660000D02*
X161247537Y-108660000D01*
X151307537Y-112525000D02*
X151307537Y-108660000D01*
X151307537Y-120900000D02*
X151307537Y-117035000D01*
X151307537Y-120900000D02*
X152906537Y-120900000D01*
X154648537Y-120900000D02*
X155407537Y-120900000D01*
X157148537Y-120900000D02*
X157907537Y-120900000D01*
X159647537Y-120900000D02*
X161247537Y-120900000D01*
X161247537Y-112525000D02*
X161247537Y-108660000D01*
X161247537Y-120900000D02*
X161247537Y-117035000D01*
%TO.C,RV2*%
X151307537Y-155010000D02*
X161247537Y-155010000D01*
X151307537Y-158875000D02*
X151307537Y-155010000D01*
X151307537Y-167250000D02*
X151307537Y-163385000D01*
X151307537Y-167250000D02*
X152906537Y-167250000D01*
X154648537Y-167250000D02*
X155407537Y-167250000D01*
X157148537Y-167250000D02*
X157907537Y-167250000D01*
X159647537Y-167250000D02*
X161247537Y-167250000D01*
X161247537Y-158875000D02*
X161247537Y-155010000D01*
X161247537Y-167250000D02*
X161247537Y-163385000D01*
%TO.C,RV7*%
X136957537Y-108660000D02*
X146897537Y-108660000D01*
X136957537Y-112525000D02*
X136957537Y-108660000D01*
X136957537Y-120900000D02*
X136957537Y-117035000D01*
X136957537Y-120900000D02*
X138556537Y-120900000D01*
X140298537Y-120900000D02*
X141057537Y-120900000D01*
X142798537Y-120900000D02*
X143557537Y-120900000D01*
X145297537Y-120900000D02*
X146897537Y-120900000D01*
X146897537Y-112525000D02*
X146897537Y-108660000D01*
X146897537Y-120900000D02*
X146897537Y-117035000D01*
%TO.C,R30*%
X156816232Y-34650000D02*
X157123514Y-34650000D01*
X156816232Y-35410000D02*
X157123514Y-35410000D01*
%TO.C,U1*%
X143962537Y-103805000D02*
X143962537Y-101855000D01*
X143962537Y-103805000D02*
X143962537Y-105755000D01*
X154082537Y-103805000D02*
X154082537Y-101855000D01*
X154082537Y-103805000D02*
X154082537Y-105755000D01*
X144017537Y-106505000D02*
X143687537Y-106745000D01*
X143687537Y-106265000D01*
X144017537Y-106505000D01*
G36*
X144017537Y-106505000D02*
G01*
X143687537Y-106745000D01*
X143687537Y-106265000D01*
X144017537Y-106505000D01*
G37*
%TO.C,J6*%
X133517537Y-27840000D02*
X133517537Y-30340000D01*
X133517537Y-30340000D02*
X136017537Y-30340000D01*
X133817537Y-26020000D02*
X133817537Y-30040000D01*
X133817537Y-27730000D02*
X134317537Y-27730000D01*
X133817537Y-28540000D02*
X134817537Y-28540000D01*
X133817537Y-30040000D02*
X144037537Y-30040000D01*
X134317537Y-26520000D02*
X143537537Y-26520000D01*
X134317537Y-27730000D02*
X134317537Y-26520000D01*
X134817537Y-28540000D02*
X134817537Y-30040000D01*
X143037537Y-28540000D02*
X143037537Y-30040000D01*
X143537537Y-26520000D02*
X143537537Y-27730000D01*
X143537537Y-27730000D02*
X144037537Y-27730000D01*
X144037537Y-26020000D02*
X133817537Y-26020000D01*
X144037537Y-28540000D02*
X143037537Y-28540000D01*
X144037537Y-30040000D02*
X144037537Y-26020000D01*
%TO.C,U4*%
X155339873Y-39045000D02*
X155339873Y-40295000D01*
X155339873Y-42295000D02*
X155339873Y-43545000D01*
X155339873Y-43545000D02*
X165619873Y-43545000D01*
X165619873Y-39045000D02*
X155339873Y-39045000D01*
X165619873Y-43545000D02*
X165619873Y-39045000D01*
X155339873Y-40295000D02*
G75*
G02*
X155339873Y-42295000I0J-1000000D01*
G01*
%TO.C,J1*%
X162670000Y-48090000D02*
X164000000Y-48090000D01*
X162670000Y-49420000D02*
X162670000Y-48090000D01*
X162670000Y-50690000D02*
X162670000Y-88850000D01*
X162670000Y-50690000D02*
X165330000Y-50690000D01*
X162670000Y-88850000D02*
X165330000Y-88850000D01*
X165330000Y-50690000D02*
X165330000Y-88850000D01*
%TO.C,RV3*%
X136957537Y-139560000D02*
X146897537Y-139560000D01*
X136957537Y-143425000D02*
X136957537Y-139560000D01*
X136957537Y-151800000D02*
X136957537Y-147935000D01*
X136957537Y-151800000D02*
X138556537Y-151800000D01*
X140298537Y-151800000D02*
X141057537Y-151800000D01*
X142798537Y-151800000D02*
X143557537Y-151800000D01*
X145297537Y-151800000D02*
X146897537Y-151800000D01*
X146897537Y-143425000D02*
X146897537Y-139560000D01*
X146897537Y-151800000D02*
X146897537Y-147935000D01*
%TO.C,RV6*%
X151307537Y-124110000D02*
X161247537Y-124110000D01*
X151307537Y-127975000D02*
X151307537Y-124110000D01*
X151307537Y-136350000D02*
X151307537Y-132485000D01*
X151307537Y-136350000D02*
X152906537Y-136350000D01*
X154648537Y-136350000D02*
X155407537Y-136350000D01*
X157148537Y-136350000D02*
X157907537Y-136350000D01*
X159647537Y-136350000D02*
X161247537Y-136350000D01*
X161247537Y-127975000D02*
X161247537Y-124110000D01*
X161247537Y-136350000D02*
X161247537Y-132485000D01*
%TO.C,J7*%
X133517537Y-33690000D02*
X133517537Y-36190000D01*
X133517537Y-36190000D02*
X136017537Y-36190000D01*
X133817537Y-31870000D02*
X133817537Y-35890000D01*
X133817537Y-33580000D02*
X134317537Y-33580000D01*
X133817537Y-34390000D02*
X134817537Y-34390000D01*
X133817537Y-35890000D02*
X144037537Y-35890000D01*
X134317537Y-32370000D02*
X143537537Y-32370000D01*
X134317537Y-33580000D02*
X134317537Y-32370000D01*
X134817537Y-34390000D02*
X134817537Y-35890000D01*
X143037537Y-34390000D02*
X143037537Y-35890000D01*
X143537537Y-32370000D02*
X143537537Y-33580000D01*
X143537537Y-33580000D02*
X144037537Y-33580000D01*
X144037537Y-31870000D02*
X133817537Y-31870000D01*
X144037537Y-34390000D02*
X143037537Y-34390000D01*
X144037537Y-35890000D02*
X144037537Y-31870000D01*
%TO.C,R29*%
X155839873Y-50683641D02*
X155839873Y-50376359D01*
X156599873Y-50683641D02*
X156599873Y-50376359D01*
%TD*%
M02*
