%TF.GenerationSoftware,KiCad,Pcbnew,8.0.8*%
%TF.CreationDate,2025-03-24T10:48:51+01:00*%
%TF.ProjectId,Unit,556e6974-2e6b-4696-9361-645f70636258,rev?*%
%TF.SameCoordinates,Original*%
%TF.FileFunction,Soldermask,Top*%
%TF.FilePolarity,Negative*%
%FSLAX46Y46*%
G04 Gerber Fmt 4.6, Leading zero omitted, Abs format (unit mm)*
G04 Created by KiCad (PCBNEW 8.0.8) date 2025-03-24 10:48:51*
%MOMM*%
%LPD*%
G01*
G04 APERTURE LIST*
G04 Aperture macros list*
%AMRoundRect*
0 Rectangle with rounded corners*
0 $1 Rounding radius*
0 $2 $3 $4 $5 $6 $7 $8 $9 X,Y pos of 4 corners*
0 Add a 4 corners polygon primitive as box body*
4,1,4,$2,$3,$4,$5,$6,$7,$8,$9,$2,$3,0*
0 Add four circle primitives for the rounded corners*
1,1,$1+$1,$2,$3*
1,1,$1+$1,$4,$5*
1,1,$1+$1,$6,$7*
1,1,$1+$1,$8,$9*
0 Add four rect primitives between the rounded corners*
20,1,$1+$1,$2,$3,$4,$5,0*
20,1,$1+$1,$4,$5,$6,$7,0*
20,1,$1+$1,$6,$7,$8,$9,0*
20,1,$1+$1,$8,$9,$2,$3,0*%
G04 Aperture macros list end*
%ADD10RoundRect,0.135000X-0.185000X0.135000X-0.185000X-0.135000X0.185000X-0.135000X0.185000X0.135000X0*%
%ADD11C,4.000000*%
%ADD12C,1.800000*%
%ADD13RoundRect,0.250000X-0.600000X-0.725000X0.600000X-0.725000X0.600000X0.725000X-0.600000X0.725000X0*%
%ADD14O,1.700000X1.950000*%
%ADD15C,1.700000*%
%ADD16R,2.200000X2.800000*%
%ADD17R,2.800000X2.800000*%
%ADD18RoundRect,0.150000X0.150000X-0.825000X0.150000X0.825000X-0.150000X0.825000X-0.150000X-0.825000X0*%
%ADD19R,1.700000X1.700000*%
%ADD20O,1.700000X1.700000*%
%ADD21RoundRect,0.150000X-0.825000X-0.150000X0.825000X-0.150000X0.825000X0.150000X-0.825000X0.150000X0*%
%ADD22RoundRect,0.135000X-0.135000X-0.185000X0.135000X-0.185000X0.135000X0.185000X-0.135000X0.185000X0*%
%ADD23R,1.600000X2.400000*%
%ADD24O,1.600000X2.400000*%
%ADD25RoundRect,0.135000X0.185000X-0.135000X0.185000X0.135000X-0.185000X0.135000X-0.185000X-0.135000X0*%
G04 APERTURE END LIST*
D10*
%TO.C,R31*%
X159219873Y-32770000D03*
X159219873Y-33790000D03*
%TD*%
D11*
%TO.C,RV5*%
X137527537Y-130230000D03*
X146327537Y-130230000D03*
D12*
X144427537Y-137230000D03*
X141927537Y-137230000D03*
X139427537Y-137230000D03*
%TD*%
D13*
%TO.C,J10*%
X136427537Y-51130000D03*
D14*
X138927537Y-51130000D03*
X141427537Y-51130000D03*
%TD*%
D13*
%TO.C,J9*%
X136427537Y-45280000D03*
D14*
X138927537Y-45280000D03*
X141427537Y-45280000D03*
%TD*%
D13*
%TO.C,J12*%
X136427537Y-62830000D03*
D14*
X138927537Y-62830000D03*
X141427537Y-62830000D03*
%TD*%
D13*
%TO.C,J8*%
X136427537Y-39430000D03*
D14*
X138927537Y-39430000D03*
X141427537Y-39430000D03*
%TD*%
D15*
%TO.C,J14*%
X163369873Y-21480000D03*
X156369873Y-21480000D03*
D16*
X162469873Y-25180000D03*
X164469873Y-17780000D03*
D17*
X155069873Y-17780000D03*
%TD*%
D18*
%TO.C,U3*%
X144774873Y-85755000D03*
X146044873Y-85755000D03*
X147314873Y-85755000D03*
X148584873Y-85755000D03*
X149854873Y-85755000D03*
X151124873Y-85755000D03*
X152394873Y-85755000D03*
X153664873Y-85755000D03*
X153664873Y-80805000D03*
X152394873Y-80805000D03*
X151124873Y-80805000D03*
X149854873Y-80805000D03*
X148584873Y-80805000D03*
X147314873Y-80805000D03*
X146044873Y-80805000D03*
X144774873Y-80805000D03*
%TD*%
D19*
%TO.C,J4*%
X153599873Y-29780000D03*
D20*
X156139873Y-29780000D03*
X158679873Y-29780000D03*
X161219873Y-29780000D03*
X163759873Y-29780000D03*
%TD*%
D11*
%TO.C,RV1*%
X137527537Y-161130000D03*
X146327537Y-161130000D03*
D12*
X144427537Y-168130000D03*
X141927537Y-168130000D03*
X139427537Y-168130000D03*
%TD*%
D13*
%TO.C,J11*%
X136427537Y-56980000D03*
D14*
X138927537Y-56980000D03*
X141427537Y-56980000D03*
%TD*%
D11*
%TO.C,RV4*%
X151877537Y-145680000D03*
X160677537Y-145680000D03*
D12*
X158777537Y-152680000D03*
X156277537Y-152680000D03*
X153777537Y-152680000D03*
%TD*%
D21*
%TO.C,U2*%
X146019873Y-37010000D03*
X146019873Y-38280000D03*
X146019873Y-39550000D03*
X146019873Y-40820000D03*
X146019873Y-42090000D03*
X146019873Y-43360000D03*
X146019873Y-44630000D03*
X146019873Y-45900000D03*
X150969873Y-45900000D03*
X150969873Y-44630000D03*
X150969873Y-43360000D03*
X150969873Y-42090000D03*
X150969873Y-40820000D03*
X150969873Y-39550000D03*
X150969873Y-38280000D03*
X150969873Y-37010000D03*
%TD*%
D11*
%TO.C,RV8*%
X151877537Y-114780000D03*
X160677537Y-114780000D03*
D12*
X158777537Y-121780000D03*
X156277537Y-121780000D03*
X153777537Y-121780000D03*
%TD*%
D11*
%TO.C,RV2*%
X151877537Y-161130000D03*
X160677537Y-161130000D03*
D12*
X158777537Y-168130000D03*
X156277537Y-168130000D03*
X153777537Y-168130000D03*
%TD*%
D11*
%TO.C,RV7*%
X137527537Y-114780000D03*
X146327537Y-114780000D03*
D12*
X144427537Y-121780000D03*
X141927537Y-121780000D03*
X139427537Y-121780000D03*
%TD*%
D22*
%TO.C,R30*%
X156459873Y-35030000D03*
X157479873Y-35030000D03*
%TD*%
D18*
%TO.C,U1*%
X144577537Y-106280000D03*
X145847537Y-106280000D03*
X147117537Y-106280000D03*
X148387537Y-106280000D03*
X149657537Y-106280000D03*
X150927537Y-106280000D03*
X152197537Y-106280000D03*
X153467537Y-106280000D03*
X153467537Y-101330000D03*
X152197537Y-101330000D03*
X150927537Y-101330000D03*
X149657537Y-101330000D03*
X148387537Y-101330000D03*
X147117537Y-101330000D03*
X145847537Y-101330000D03*
X144577537Y-101330000D03*
%TD*%
D13*
%TO.C,J6*%
X136427537Y-27730000D03*
D14*
X138927537Y-27730000D03*
X141427537Y-27730000D03*
%TD*%
D23*
%TO.C,U4*%
X156669873Y-45105000D03*
D24*
X159209873Y-45105000D03*
X161749873Y-45105000D03*
X164289873Y-45105000D03*
X164289873Y-37485000D03*
X161749873Y-37485000D03*
X159209873Y-37485000D03*
X156669873Y-37485000D03*
%TD*%
D20*
%TO.C,J1*%
X164000000Y-51960000D03*
D19*
X164000000Y-49420000D03*
D20*
X164000000Y-54500000D03*
X164000000Y-57040000D03*
X164000000Y-69740000D03*
X164000000Y-59580000D03*
X164000000Y-62120000D03*
X164000000Y-64660000D03*
X164000000Y-77360000D03*
X164000000Y-74820000D03*
X164000000Y-67200000D03*
X164000000Y-79900000D03*
X164000000Y-72280000D03*
X164000000Y-82440000D03*
X164000000Y-84980000D03*
X164000000Y-87520000D03*
%TD*%
D11*
%TO.C,RV3*%
X137527537Y-145680000D03*
X146327537Y-145680000D03*
D12*
X144427537Y-152680000D03*
X141927537Y-152680000D03*
X139427537Y-152680000D03*
%TD*%
D11*
%TO.C,RV6*%
X151877537Y-130230000D03*
X160677537Y-130230000D03*
D12*
X158777537Y-137230000D03*
X156277537Y-137230000D03*
X153777537Y-137230000D03*
%TD*%
D13*
%TO.C,J7*%
X136427537Y-33580000D03*
D14*
X138927537Y-33580000D03*
X141427537Y-33580000D03*
%TD*%
D25*
%TO.C,R29*%
X156219873Y-51040000D03*
X156219873Y-50020000D03*
%TD*%
D19*
%TO.C,J5*%
X135800000Y-75100000D03*
D20*
X135800000Y-77640000D03*
X135800000Y-80180000D03*
X135800000Y-82720000D03*
X135800000Y-85260000D03*
X135800000Y-87800000D03*
X135800000Y-90340000D03*
%TD*%
M02*
