%TF.GenerationSoftware,KiCad,Pcbnew,8.0.8*%
%TF.CreationDate,2025-03-24T10:48:50+01:00*%
%TF.ProjectId,Unit,556e6974-2e6b-4696-9361-645f70636258,rev?*%
%TF.SameCoordinates,Original*%
%TF.FileFunction,Copper,L2,Inr*%
%TF.FilePolarity,Positive*%
%FSLAX46Y46*%
G04 Gerber Fmt 4.6, Leading zero omitted, Abs format (unit mm)*
G04 Created by KiCad (PCBNEW 8.0.8) date 2025-03-24 10:48:50*
%MOMM*%
%LPD*%
G01*
G04 APERTURE LIST*
G04 Aperture macros list*
%AMRoundRect*
0 Rectangle with rounded corners*
0 $1 Rounding radius*
0 $2 $3 $4 $5 $6 $7 $8 $9 X,Y pos of 4 corners*
0 Add a 4 corners polygon primitive as box body*
4,1,4,$2,$3,$4,$5,$6,$7,$8,$9,$2,$3,0*
0 Add four circle primitives for the rounded corners*
1,1,$1+$1,$2,$3*
1,1,$1+$1,$4,$5*
1,1,$1+$1,$6,$7*
1,1,$1+$1,$8,$9*
0 Add four rect primitives between the rounded corners*
20,1,$1+$1,$2,$3,$4,$5,0*
20,1,$1+$1,$4,$5,$6,$7,0*
20,1,$1+$1,$6,$7,$8,$9,0*
20,1,$1+$1,$8,$9,$2,$3,0*%
G04 Aperture macros list end*
%TA.AperFunction,ComponentPad*%
%ADD10C,1.800000*%
%TD*%
%TA.AperFunction,ComponentPad*%
%ADD11RoundRect,0.250000X-0.600000X-0.725000X0.600000X-0.725000X0.600000X0.725000X-0.600000X0.725000X0*%
%TD*%
%TA.AperFunction,ComponentPad*%
%ADD12O,1.700000X1.950000*%
%TD*%
%TA.AperFunction,ComponentPad*%
%ADD13R,1.700000X1.700000*%
%TD*%
%TA.AperFunction,ComponentPad*%
%ADD14O,1.700000X1.700000*%
%TD*%
%TA.AperFunction,ComponentPad*%
%ADD15R,1.600000X2.400000*%
%TD*%
%TA.AperFunction,ComponentPad*%
%ADD16O,1.600000X2.400000*%
%TD*%
%TA.AperFunction,ViaPad*%
%ADD17C,0.600000*%
%TD*%
%TA.AperFunction,Conductor*%
%ADD18C,0.200000*%
%TD*%
G04 APERTURE END LIST*
D10*
%TO.N,+3.3V*%
%TO.C,RV5*%
X144427537Y-137230000D03*
%TO.N,Net-(U1-CH4)*%
X141927537Y-137230000D03*
%TO.N,GND*%
X139427537Y-137230000D03*
%TD*%
D11*
%TO.N,GND*%
%TO.C,J10*%
X136427537Y-51130000D03*
D12*
%TO.N,/Main_board/c4*%
X138927537Y-51130000D03*
%TO.N,+3.3V*%
X141427537Y-51130000D03*
%TD*%
D11*
%TO.N,GND*%
%TO.C,J9*%
X136427537Y-45280000D03*
D12*
%TO.N,/Main_board/c3*%
X138927537Y-45280000D03*
%TO.N,+3.3V*%
X141427537Y-45280000D03*
%TD*%
D11*
%TO.N,GND*%
%TO.C,J12*%
X136427537Y-62830000D03*
D12*
%TO.N,/Main_board/c6*%
X138927537Y-62830000D03*
%TO.N,+3.3V*%
X141427537Y-62830000D03*
%TD*%
D11*
%TO.N,GND*%
%TO.C,J8*%
X136427537Y-39430000D03*
D12*
%TO.N,/Main_board/c2*%
X138927537Y-39430000D03*
%TO.N,+3.3V*%
X141427537Y-39430000D03*
%TD*%
D13*
%TO.N,unconnected-(J4-Pad1)*%
%TO.C,J4*%
X153599873Y-29780000D03*
D14*
%TO.N,unconnected-(J4-Pad2)*%
X156139873Y-29780000D03*
%TO.N,unconnected-(J4-Pad3)*%
X158679873Y-29780000D03*
%TO.N,Net-(J4-Pad4)*%
X161219873Y-29780000D03*
%TO.N,Net-(U4-VO2)*%
X163759873Y-29780000D03*
%TD*%
D10*
%TO.N,+3.3V*%
%TO.C,RV1*%
X144427537Y-168130000D03*
%TO.N,Net-(U1-CH0)*%
X141927537Y-168130000D03*
%TO.N,GND*%
X139427537Y-168130000D03*
%TD*%
D11*
%TO.N,GND*%
%TO.C,J11*%
X136427537Y-56980000D03*
D12*
%TO.N,/Main_board/c5*%
X138927537Y-56980000D03*
%TO.N,+3.3V*%
X141427537Y-56980000D03*
%TD*%
D10*
%TO.N,+3.3V*%
%TO.C,RV4*%
X158777537Y-152680000D03*
%TO.N,Net-(U1-CH3)*%
X156277537Y-152680000D03*
%TO.N,GND*%
X153777537Y-152680000D03*
%TD*%
%TO.N,+3.3V*%
%TO.C,RV8*%
X158777537Y-121780000D03*
%TO.N,Net-(U1-CH7)*%
X156277537Y-121780000D03*
%TO.N,GND*%
X153777537Y-121780000D03*
%TD*%
%TO.N,+3.3V*%
%TO.C,RV2*%
X158777537Y-168130000D03*
%TO.N,Net-(U1-CH1)*%
X156277537Y-168130000D03*
%TO.N,GND*%
X153777537Y-168130000D03*
%TD*%
%TO.N,+3.3V*%
%TO.C,RV7*%
X144427537Y-121780000D03*
%TO.N,Net-(U1-CH6)*%
X141927537Y-121780000D03*
%TO.N,GND*%
X139427537Y-121780000D03*
%TD*%
D11*
%TO.N,GND*%
%TO.C,J6*%
X136427537Y-27730000D03*
D12*
%TO.N,/Main_board/c0*%
X138927537Y-27730000D03*
%TO.N,+3.3V*%
X141427537Y-27730000D03*
%TD*%
D15*
%TO.N,unconnected-(U4-NC-Pad1)*%
%TO.C,U4*%
X156669873Y-45105000D03*
D16*
%TO.N,Net-(U4-C1)*%
X159209873Y-45105000D03*
%TO.N,GND*%
X161749873Y-45105000D03*
%TO.N,unconnected-(U4-NC-Pad4)*%
X164289873Y-45105000D03*
%TO.N,GND*%
X164289873Y-37485000D03*
%TO.N,Net-(U4-VO2)*%
X161749873Y-37485000D03*
%TO.N,Net-(U4-VO1)*%
X159209873Y-37485000D03*
%TO.N,+3.3V*%
X156669873Y-37485000D03*
%TD*%
D14*
%TO.N,+3.3V*%
%TO.C,J1*%
X164000000Y-51960000D03*
D13*
%TO.N,/Raspberry_connections/GND*%
X164000000Y-49420000D03*
D14*
%TO.N,/Main_board/midi_in*%
X164000000Y-54500000D03*
%TO.N,/Main_board/DATA_IN_595*%
X164000000Y-57040000D03*
%TO.N,/Main_board/clock_595*%
X164000000Y-69740000D03*
%TO.N,/Main_board/LATCH_595*%
X164000000Y-59580000D03*
%TO.N,/Main_board/LOAD_165*%
X164000000Y-62120000D03*
%TO.N,/Main_board/clock_165*%
X164000000Y-64660000D03*
%TO.N,/Octaves board/DATA_IN_ADC*%
X164000000Y-77360000D03*
%TO.N,/Octaves board/DATA_OUT_ADC*%
X164000000Y-74820000D03*
%TO.N,/Main_board/DATA_OUT_165*%
X164000000Y-67200000D03*
%TO.N,/Octaves board/ADC_clock*%
X164000000Y-79900000D03*
%TO.N,/Octaves board/select*%
X164000000Y-72280000D03*
%TO.N,N/C*%
X164000000Y-82440000D03*
X164000000Y-84980000D03*
X164000000Y-87520000D03*
%TD*%
D10*
%TO.N,+3.3V*%
%TO.C,RV3*%
X144427537Y-152680000D03*
%TO.N,Net-(U1-CH2)*%
X141927537Y-152680000D03*
%TO.N,GND*%
X139427537Y-152680000D03*
%TD*%
%TO.N,+3.3V*%
%TO.C,RV6*%
X158777537Y-137230000D03*
%TO.N,Net-(U1-CH5)*%
X156277537Y-137230000D03*
%TO.N,GND*%
X153777537Y-137230000D03*
%TD*%
D11*
%TO.N,GND*%
%TO.C,J7*%
X136427537Y-33580000D03*
D12*
%TO.N,/Main_board/c1*%
X138927537Y-33580000D03*
%TO.N,+3.3V*%
X141427537Y-33580000D03*
%TD*%
D13*
%TO.N,/Main_board/jst0*%
%TO.C,J5*%
X135800000Y-75100000D03*
D14*
%TO.N,/Main_board/jst1*%
X135800000Y-77640000D03*
%TO.N,/Main_board/jst2*%
X135800000Y-80180000D03*
%TO.N,/Main_board/jst3*%
X135800000Y-82720000D03*
%TO.N,/Main_board/jst4*%
X135800000Y-85260000D03*
%TO.N,/Main_board/jst5*%
X135800000Y-87800000D03*
%TO.N,/Main_board/jst6*%
X135800000Y-90340000D03*
%TD*%
D17*
%TO.N,GND*%
X151219873Y-46030000D03*
X137969873Y-152680000D03*
X137519873Y-137230000D03*
X137969873Y-168780000D03*
X153469873Y-101280000D03*
X151119873Y-85730000D03*
X147219873Y-101280000D03*
X150844873Y-40905000D03*
X152469873Y-81030000D03*
X151969873Y-137280000D03*
X153719873Y-85780000D03*
X151469873Y-168280000D03*
X151969873Y-152780000D03*
X146219873Y-46030000D03*
%TO.N,+3.3V*%
X145719873Y-101280000D03*
X151219873Y-44530000D03*
X160569873Y-152680000D03*
X156219873Y-36780000D03*
X160469873Y-137280000D03*
X145969873Y-168280000D03*
X145994873Y-80780000D03*
X146469873Y-152780000D03*
X144719873Y-101280000D03*
X160469873Y-168280000D03*
X145969873Y-137280000D03*
X144794873Y-80780000D03*
X151219873Y-37030000D03*
%TO.N,/Main_board/jst6*%
X149869873Y-84205000D03*
%TO.N,/Main_board/jst5*%
X148494873Y-84130000D03*
%TO.N,Net-(U1-CH0)*%
X144577537Y-106280000D03*
%TO.N,Net-(U1-CH1)*%
X145847537Y-106280000D03*
%TO.N,/Main_board/clock_595*%
X149219873Y-50780000D03*
X157300000Y-69800000D03*
%TO.N,/Main_board/LATCH_595*%
X150969873Y-59369873D03*
X153044873Y-48955000D03*
%TO.N,/Main_board/LOAD_165*%
X157369873Y-89280000D03*
%TO.N,/Main_board/DATA_OUT_165*%
X153669873Y-80605000D03*
X154400000Y-71700000D03*
X154344873Y-80055000D03*
%TO.N,/Main_board/clock_165*%
X157244873Y-87830000D03*
%TO.N,/Octaves board/ADC_clock*%
X160950000Y-80450000D03*
%TO.N,Net-(U4-VO2)*%
X157469873Y-35030000D03*
%TD*%
D18*
%TO.N,+3.3V*%
X155800000Y-36300000D02*
X156250000Y-36750000D01*
X155800000Y-36045000D02*
X155800000Y-36300000D01*
%TD*%
%TA.AperFunction,Conductor*%
%TO.N,+3.3V*%
G36*
X166412412Y-15300185D02*
G01*
X166458167Y-15352989D01*
X166469373Y-15404500D01*
X166469373Y-175655500D01*
X166449688Y-175722539D01*
X166396884Y-175768294D01*
X166345373Y-175779500D01*
X132594373Y-175779500D01*
X132527334Y-175759815D01*
X132481579Y-175707011D01*
X132470373Y-175655500D01*
X132470373Y-168779996D01*
X137164308Y-168779996D01*
X137164308Y-168780003D01*
X137184503Y-168959249D01*
X137184504Y-168959254D01*
X137244084Y-169129523D01*
X137265696Y-169163918D01*
X137340057Y-169282262D01*
X137467611Y-169409816D01*
X137478946Y-169416938D01*
X137598878Y-169492297D01*
X137620351Y-169505789D01*
X137690971Y-169530500D01*
X137790618Y-169565368D01*
X137790623Y-169565369D01*
X137969869Y-169585565D01*
X137969873Y-169585565D01*
X137969877Y-169585565D01*
X138149122Y-169565369D01*
X138149125Y-169565368D01*
X138149128Y-169565368D01*
X138319395Y-169505789D01*
X138472135Y-169409816D01*
X138539396Y-169342555D01*
X138600719Y-169309070D01*
X138670411Y-169314054D01*
X138686095Y-169321181D01*
X138862189Y-169416479D01*
X138863034Y-169416936D01*
X138977024Y-169456068D01*
X139082552Y-169492297D01*
X139082554Y-169492297D01*
X139082556Y-169492298D01*
X139311488Y-169530500D01*
X139311489Y-169530500D01*
X139543585Y-169530500D01*
X139543586Y-169530500D01*
X139772518Y-169492298D01*
X139992040Y-169416936D01*
X140196163Y-169306470D01*
X140196707Y-169306047D01*
X140257666Y-169258600D01*
X140379321Y-169163913D01*
X140536516Y-168993153D01*
X140573728Y-168936196D01*
X140626874Y-168890839D01*
X140696106Y-168881415D01*
X140759441Y-168910917D01*
X140781346Y-168936196D01*
X140818553Y-168993147D01*
X140818556Y-168993151D01*
X140818558Y-168993153D01*
X140975753Y-169163913D01*
X140975756Y-169163915D01*
X140975759Y-169163918D01*
X141158902Y-169306464D01*
X141158908Y-169306468D01*
X141158911Y-169306470D01*
X141326397Y-169397109D01*
X141362189Y-169416479D01*
X141363034Y-169416936D01*
X141477024Y-169456068D01*
X141582552Y-169492297D01*
X141582554Y-169492297D01*
X141582556Y-169492298D01*
X141811488Y-169530500D01*
X141811489Y-169530500D01*
X142043585Y-169530500D01*
X142043586Y-169530500D01*
X142272518Y-169492298D01*
X142492040Y-169416936D01*
X142696163Y-169306470D01*
X142696707Y-169306047D01*
X142757666Y-169258600D01*
X142879321Y-169163913D01*
X143036516Y-168993153D01*
X143074026Y-168935738D01*
X143127172Y-168890382D01*
X143196403Y-168880958D01*
X143259739Y-168910459D01*
X143274451Y-168927437D01*
X143276348Y-168927634D01*
X143944574Y-168259408D01*
X143961612Y-168322993D01*
X144027438Y-168437007D01*
X144120530Y-168530099D01*
X144234544Y-168595925D01*
X144298127Y-168612962D01*
X143628738Y-169282351D01*
X143659186Y-169306050D01*
X143863234Y-169416476D01*
X143863243Y-169416479D01*
X144082676Y-169491811D01*
X144311530Y-169530000D01*
X144543544Y-169530000D01*
X144772397Y-169491811D01*
X144991830Y-169416479D01*
X144991838Y-169416476D01*
X145195892Y-169306047D01*
X145226334Y-169282351D01*
X145226335Y-169282350D01*
X144556947Y-168612962D01*
X144620530Y-168595925D01*
X144734544Y-168530099D01*
X144827636Y-168437007D01*
X144893462Y-168322993D01*
X144910499Y-168259410D01*
X145578723Y-168927634D01*
X145663021Y-168798606D01*
X145756219Y-168586135D01*
X145813175Y-168361218D01*
X145819906Y-168279996D01*
X150664308Y-168279996D01*
X150664308Y-168280003D01*
X150684503Y-168459249D01*
X150684504Y-168459254D01*
X150744084Y-168629523D01*
X150744384Y-168630000D01*
X150840057Y-168782262D01*
X150967611Y-168909816D01*
X151120351Y-169005789D01*
X151290618Y-169065368D01*
X151290623Y-169065369D01*
X151469869Y-169085565D01*
X151469873Y-169085565D01*
X151469877Y-169085565D01*
X151649122Y-169065369D01*
X151649125Y-169065368D01*
X151649128Y-169065368D01*
X151819395Y-169005789D01*
X151972135Y-168909816D01*
X152099689Y-168782262D01*
X152195662Y-168629522D01*
X152212556Y-168581240D01*
X152253277Y-168524465D01*
X152318229Y-168498716D01*
X152386791Y-168512171D01*
X152437194Y-168560558D01*
X152446876Y-168581923D01*
X152448375Y-168586290D01*
X152541612Y-168798848D01*
X152668553Y-168993147D01*
X152668556Y-168993151D01*
X152668558Y-168993153D01*
X152825753Y-169163913D01*
X152825756Y-169163915D01*
X152825759Y-169163918D01*
X153008902Y-169306464D01*
X153008908Y-169306468D01*
X153008911Y-169306470D01*
X153176397Y-169397109D01*
X153212189Y-169416479D01*
X153213034Y-169416936D01*
X153327024Y-169456068D01*
X153432552Y-169492297D01*
X153432554Y-169492297D01*
X153432556Y-169492298D01*
X153661488Y-169530500D01*
X153661489Y-169530500D01*
X153893585Y-169530500D01*
X153893586Y-169530500D01*
X154122518Y-169492298D01*
X154342040Y-169416936D01*
X154546163Y-169306470D01*
X154546707Y-169306047D01*
X154607666Y-169258600D01*
X154729321Y-169163913D01*
X154886516Y-168993153D01*
X154923728Y-168936196D01*
X154976874Y-168890839D01*
X155046106Y-168881415D01*
X155109441Y-168910917D01*
X155131346Y-168936196D01*
X155168553Y-168993147D01*
X155168556Y-168993151D01*
X155168558Y-168993153D01*
X155325753Y-169163913D01*
X155325756Y-169163915D01*
X155325759Y-169163918D01*
X155508902Y-169306464D01*
X155508908Y-169306468D01*
X155508911Y-169306470D01*
X155676397Y-169397109D01*
X155712189Y-169416479D01*
X155713034Y-169416936D01*
X155827024Y-169456068D01*
X155932552Y-169492297D01*
X155932554Y-169492297D01*
X155932556Y-169492298D01*
X156161488Y-169530500D01*
X156161489Y-169530500D01*
X156393585Y-169530500D01*
X156393586Y-169530500D01*
X156622518Y-169492298D01*
X156842040Y-169416936D01*
X157046163Y-169306470D01*
X157046707Y-169306047D01*
X157107666Y-169258600D01*
X157229321Y-169163913D01*
X157386516Y-168993153D01*
X157424026Y-168935738D01*
X157477172Y-168890382D01*
X157546403Y-168880958D01*
X157609739Y-168910459D01*
X157624451Y-168927437D01*
X157626348Y-168927634D01*
X158294574Y-168259408D01*
X158311612Y-168322993D01*
X158377438Y-168437007D01*
X158470530Y-168530099D01*
X158584544Y-168595925D01*
X158648127Y-168612962D01*
X157978738Y-169282351D01*
X158009186Y-169306050D01*
X158213234Y-169416476D01*
X158213243Y-169416479D01*
X158432676Y-169491811D01*
X158661530Y-169530000D01*
X158893544Y-169530000D01*
X159122397Y-169491811D01*
X159341830Y-169416479D01*
X159341838Y-169416476D01*
X159545892Y-169306047D01*
X159576334Y-169282351D01*
X159576335Y-169282350D01*
X158906947Y-168612962D01*
X158970530Y-168595925D01*
X159084544Y-168530099D01*
X159177636Y-168437007D01*
X159243462Y-168322993D01*
X159260499Y-168259409D01*
X159928723Y-168927634D01*
X160013021Y-168798606D01*
X160106219Y-168586135D01*
X160163175Y-168361218D01*
X160182335Y-168130005D01*
X160182335Y-168129994D01*
X160163175Y-167898781D01*
X160106219Y-167673864D01*
X160013020Y-167461390D01*
X159928723Y-167332364D01*
X159260499Y-168000589D01*
X159243462Y-167937007D01*
X159177636Y-167822993D01*
X159084544Y-167729901D01*
X158970530Y-167664075D01*
X158906946Y-167647037D01*
X159576334Y-166977647D01*
X159576334Y-166977645D01*
X159545897Y-166953955D01*
X159545891Y-166953951D01*
X159341839Y-166843523D01*
X159341830Y-166843520D01*
X159122397Y-166768188D01*
X158893544Y-166730000D01*
X158661530Y-166730000D01*
X158432676Y-166768188D01*
X158213243Y-166843520D01*
X158213234Y-166843523D01*
X158009187Y-166953949D01*
X157978737Y-166977647D01*
X158648128Y-167647037D01*
X158584544Y-167664075D01*
X158470530Y-167729901D01*
X158377438Y-167822993D01*
X158311612Y-167937007D01*
X158294574Y-168000590D01*
X157626348Y-167332364D01*
X157621567Y-167332860D01*
X157578497Y-167369617D01*
X157509266Y-167379041D01*
X157445930Y-167349539D01*
X157424026Y-167324260D01*
X157386520Y-167266852D01*
X157386517Y-167266849D01*
X157386516Y-167266847D01*
X157229321Y-167096087D01*
X157229316Y-167096083D01*
X157229314Y-167096081D01*
X157046171Y-166953535D01*
X157046165Y-166953531D01*
X156842041Y-166843064D01*
X156842032Y-166843061D01*
X156622521Y-166767702D01*
X156450819Y-166739050D01*
X156393586Y-166729500D01*
X156161488Y-166729500D01*
X156115701Y-166737140D01*
X155932552Y-166767702D01*
X155713041Y-166843061D01*
X155713032Y-166843064D01*
X155508908Y-166953531D01*
X155508902Y-166953535D01*
X155325759Y-167096081D01*
X155325756Y-167096084D01*
X155168552Y-167266854D01*
X155131345Y-167323804D01*
X155078199Y-167369161D01*
X155008967Y-167378584D01*
X154945632Y-167349082D01*
X154923729Y-167323804D01*
X154886521Y-167266854D01*
X154886519Y-167266852D01*
X154886516Y-167266847D01*
X154729321Y-167096087D01*
X154729316Y-167096083D01*
X154729314Y-167096081D01*
X154546171Y-166953535D01*
X154546165Y-166953531D01*
X154342041Y-166843064D01*
X154342032Y-166843061D01*
X154122521Y-166767702D01*
X153950819Y-166739050D01*
X153893586Y-166729500D01*
X153661488Y-166729500D01*
X153615701Y-166737140D01*
X153432552Y-166767702D01*
X153213041Y-166843061D01*
X153213032Y-166843064D01*
X153008908Y-166953531D01*
X153008902Y-166953535D01*
X152825759Y-167096081D01*
X152825756Y-167096084D01*
X152668553Y-167266852D01*
X152541612Y-167461151D01*
X152448378Y-167673703D01*
X152448378Y-167673704D01*
X152400540Y-167862607D01*
X152365001Y-167922763D01*
X152302580Y-167954154D01*
X152233097Y-167946816D01*
X152178611Y-167903077D01*
X152175341Y-167898138D01*
X152167205Y-167885190D01*
X152099689Y-167777738D01*
X151972135Y-167650184D01*
X151819396Y-167554211D01*
X151649127Y-167494631D01*
X151649122Y-167494630D01*
X151469877Y-167474435D01*
X151469869Y-167474435D01*
X151290623Y-167494630D01*
X151290618Y-167494631D01*
X151120349Y-167554211D01*
X150967610Y-167650184D01*
X150840057Y-167777737D01*
X150744084Y-167930476D01*
X150684504Y-168100745D01*
X150684503Y-168100750D01*
X150664308Y-168279996D01*
X145819906Y-168279996D01*
X145832335Y-168130005D01*
X145832335Y-168129994D01*
X145813175Y-167898781D01*
X145756219Y-167673864D01*
X145663020Y-167461390D01*
X145578723Y-167332364D01*
X144910499Y-168000589D01*
X144893462Y-167937007D01*
X144827636Y-167822993D01*
X144734544Y-167729901D01*
X144620530Y-167664075D01*
X144556946Y-167647037D01*
X145226334Y-166977647D01*
X145226334Y-166977645D01*
X145195897Y-166953955D01*
X145195891Y-166953951D01*
X144991839Y-166843523D01*
X144991830Y-166843520D01*
X144772397Y-166768188D01*
X144543544Y-166730000D01*
X144311530Y-166730000D01*
X144082676Y-166768188D01*
X143863243Y-166843520D01*
X143863234Y-166843523D01*
X143659187Y-166953949D01*
X143628737Y-166977647D01*
X144298128Y-167647037D01*
X144234544Y-167664075D01*
X144120530Y-167729901D01*
X144027438Y-167822993D01*
X143961612Y-167937007D01*
X143944574Y-168000590D01*
X143276348Y-167332364D01*
X143271567Y-167332860D01*
X143228497Y-167369617D01*
X143159266Y-167379041D01*
X143095930Y-167349539D01*
X143074026Y-167324260D01*
X143036520Y-167266852D01*
X143036517Y-167266849D01*
X143036516Y-167266847D01*
X142879321Y-167096087D01*
X142879316Y-167096083D01*
X142879314Y-167096081D01*
X142696171Y-166953535D01*
X142696165Y-166953531D01*
X142492041Y-166843064D01*
X142492032Y-166843061D01*
X142272521Y-166767702D01*
X142100819Y-166739050D01*
X142043586Y-166729500D01*
X141811488Y-166729500D01*
X141765701Y-166737140D01*
X141582552Y-166767702D01*
X141363041Y-166843061D01*
X141363032Y-166843064D01*
X141158908Y-166953531D01*
X141158902Y-166953535D01*
X140975759Y-167096081D01*
X140975756Y-167096084D01*
X140818552Y-167266854D01*
X140781345Y-167323804D01*
X140728199Y-167369161D01*
X140658967Y-167378584D01*
X140595632Y-167349082D01*
X140573729Y-167323804D01*
X140536521Y-167266854D01*
X140536519Y-167266852D01*
X140536516Y-167266847D01*
X140379321Y-167096087D01*
X140379316Y-167096083D01*
X140379314Y-167096081D01*
X140196171Y-166953535D01*
X140196165Y-166953531D01*
X139992041Y-166843064D01*
X139992032Y-166843061D01*
X139772521Y-166767702D01*
X139600819Y-166739050D01*
X139543586Y-166729500D01*
X139311488Y-166729500D01*
X139265701Y-166737140D01*
X139082552Y-166767702D01*
X138863041Y-166843061D01*
X138863032Y-166843064D01*
X138658908Y-166953531D01*
X138658902Y-166953535D01*
X138475759Y-167096081D01*
X138475756Y-167096084D01*
X138318553Y-167266852D01*
X138191612Y-167461151D01*
X138098378Y-167673703D01*
X138098378Y-167673704D01*
X138044821Y-167885190D01*
X138009282Y-167945346D01*
X137946861Y-167976737D01*
X137938500Y-167977969D01*
X137790622Y-167994630D01*
X137790618Y-167994631D01*
X137620349Y-168054211D01*
X137467610Y-168150184D01*
X137340057Y-168277737D01*
X137244084Y-168430476D01*
X137184504Y-168600745D01*
X137184503Y-168600750D01*
X137164308Y-168779996D01*
X132470373Y-168779996D01*
X132470373Y-161023713D01*
X136177037Y-161023713D01*
X136177037Y-161236286D01*
X136210290Y-161446239D01*
X136275981Y-161648414D01*
X136372488Y-161837820D01*
X136497427Y-162009786D01*
X136647750Y-162160109D01*
X136819716Y-162285048D01*
X136819718Y-162285049D01*
X136819721Y-162285051D01*
X137009125Y-162381557D01*
X137211294Y-162447246D01*
X137421250Y-162480500D01*
X137421251Y-162480500D01*
X137633823Y-162480500D01*
X137633824Y-162480500D01*
X137843780Y-162447246D01*
X138045949Y-162381557D01*
X138235353Y-162285051D01*
X138257326Y-162269086D01*
X138407323Y-162160109D01*
X138407325Y-162160106D01*
X138407329Y-162160104D01*
X138557641Y-162009792D01*
X138557643Y-162009788D01*
X138557646Y-162009786D01*
X138682585Y-161837820D01*
X138682584Y-161837820D01*
X138682588Y-161837816D01*
X138779094Y-161648412D01*
X138844783Y-161446243D01*
X138878037Y-161236287D01*
X138878037Y-161023713D01*
X144977037Y-161023713D01*
X144977037Y-161236286D01*
X145010290Y-161446239D01*
X145075981Y-161648414D01*
X145172488Y-161837820D01*
X145297427Y-162009786D01*
X145447750Y-162160109D01*
X145619716Y-162285048D01*
X145619718Y-162285049D01*
X145619721Y-162285051D01*
X145809125Y-162381557D01*
X146011294Y-162447246D01*
X146221250Y-162480500D01*
X146221251Y-162480500D01*
X146433823Y-162480500D01*
X146433824Y-162480500D01*
X146643780Y-162447246D01*
X146845949Y-162381557D01*
X147035353Y-162285051D01*
X147057326Y-162269086D01*
X147207323Y-162160109D01*
X147207325Y-162160106D01*
X147207329Y-162160104D01*
X147357641Y-162009792D01*
X147357643Y-162009788D01*
X147357646Y-162009786D01*
X147482585Y-161837820D01*
X147482584Y-161837820D01*
X147482588Y-161837816D01*
X147579094Y-161648412D01*
X147644783Y-161446243D01*
X147678037Y-161236287D01*
X147678037Y-161023713D01*
X150527037Y-161023713D01*
X150527037Y-161236286D01*
X150560290Y-161446239D01*
X150625981Y-161648414D01*
X150722488Y-161837820D01*
X150847427Y-162009786D01*
X150997750Y-162160109D01*
X151169716Y-162285048D01*
X151169718Y-162285049D01*
X151169721Y-162285051D01*
X151359125Y-162381557D01*
X151561294Y-162447246D01*
X151771250Y-162480500D01*
X151771251Y-162480500D01*
X151983823Y-162480500D01*
X151983824Y-162480500D01*
X152193780Y-162447246D01*
X152395949Y-162381557D01*
X152585353Y-162285051D01*
X152607326Y-162269086D01*
X152757323Y-162160109D01*
X152757325Y-162160106D01*
X152757329Y-162160104D01*
X152907641Y-162009792D01*
X152907643Y-162009788D01*
X152907646Y-162009786D01*
X153032585Y-161837820D01*
X153032584Y-161837820D01*
X153032588Y-161837816D01*
X153129094Y-161648412D01*
X153194783Y-161446243D01*
X153228037Y-161236287D01*
X153228037Y-161023713D01*
X159327037Y-161023713D01*
X159327037Y-161236286D01*
X159360290Y-161446239D01*
X159425981Y-161648414D01*
X159522488Y-161837820D01*
X159647427Y-162009786D01*
X159797750Y-162160109D01*
X159969716Y-162285048D01*
X159969718Y-162285049D01*
X159969721Y-162285051D01*
X160159125Y-162381557D01*
X160361294Y-162447246D01*
X160571250Y-162480500D01*
X160571251Y-162480500D01*
X160783823Y-162480500D01*
X160783824Y-162480500D01*
X160993780Y-162447246D01*
X161195949Y-162381557D01*
X161385353Y-162285051D01*
X161407326Y-162269086D01*
X161557323Y-162160109D01*
X161557325Y-162160106D01*
X161557329Y-162160104D01*
X161707641Y-162009792D01*
X161707643Y-162009788D01*
X161707646Y-162009786D01*
X161832585Y-161837820D01*
X161832584Y-161837820D01*
X161832588Y-161837816D01*
X161929094Y-161648412D01*
X161994783Y-161446243D01*
X162028037Y-161236287D01*
X162028037Y-161023713D01*
X161994783Y-160813757D01*
X161929094Y-160611588D01*
X161832588Y-160422184D01*
X161832586Y-160422181D01*
X161832585Y-160422179D01*
X161707646Y-160250213D01*
X161557323Y-160099890D01*
X161385357Y-159974951D01*
X161195951Y-159878444D01*
X161195950Y-159878443D01*
X161195949Y-159878443D01*
X160993780Y-159812754D01*
X160993778Y-159812753D01*
X160993777Y-159812753D01*
X160832494Y-159787208D01*
X160783824Y-159779500D01*
X160571250Y-159779500D01*
X160522579Y-159787208D01*
X160361297Y-159812753D01*
X160159122Y-159878444D01*
X159969716Y-159974951D01*
X159797750Y-160099890D01*
X159647427Y-160250213D01*
X159522488Y-160422179D01*
X159425981Y-160611585D01*
X159360290Y-160813760D01*
X159327037Y-161023713D01*
X153228037Y-161023713D01*
X153194783Y-160813757D01*
X153129094Y-160611588D01*
X153032588Y-160422184D01*
X153032586Y-160422181D01*
X153032585Y-160422179D01*
X152907646Y-160250213D01*
X152757323Y-160099890D01*
X152585357Y-159974951D01*
X152395951Y-159878444D01*
X152395950Y-159878443D01*
X152395949Y-159878443D01*
X152193780Y-159812754D01*
X152193778Y-159812753D01*
X152193777Y-159812753D01*
X152032494Y-159787208D01*
X151983824Y-159779500D01*
X151771250Y-159779500D01*
X151722579Y-159787208D01*
X151561297Y-159812753D01*
X151359122Y-159878444D01*
X151169716Y-159974951D01*
X150997750Y-160099890D01*
X150847427Y-160250213D01*
X150722488Y-160422179D01*
X150625981Y-160611585D01*
X150560290Y-160813760D01*
X150527037Y-161023713D01*
X147678037Y-161023713D01*
X147644783Y-160813757D01*
X147579094Y-160611588D01*
X147482588Y-160422184D01*
X147482586Y-160422181D01*
X147482585Y-160422179D01*
X147357646Y-160250213D01*
X147207323Y-160099890D01*
X147035357Y-159974951D01*
X146845951Y-159878444D01*
X146845950Y-159878443D01*
X146845949Y-159878443D01*
X146643780Y-159812754D01*
X146643778Y-159812753D01*
X146643777Y-159812753D01*
X146482494Y-159787208D01*
X146433824Y-159779500D01*
X146221250Y-159779500D01*
X146172579Y-159787208D01*
X146011297Y-159812753D01*
X145809122Y-159878444D01*
X145619716Y-159974951D01*
X145447750Y-160099890D01*
X145297427Y-160250213D01*
X145172488Y-160422179D01*
X145075981Y-160611585D01*
X145010290Y-160813760D01*
X144977037Y-161023713D01*
X138878037Y-161023713D01*
X138844783Y-160813757D01*
X138779094Y-160611588D01*
X138682588Y-160422184D01*
X138682586Y-160422181D01*
X138682585Y-160422179D01*
X138557646Y-160250213D01*
X138407323Y-160099890D01*
X138235357Y-159974951D01*
X138045951Y-159878444D01*
X138045950Y-159878443D01*
X138045949Y-159878443D01*
X137843780Y-159812754D01*
X137843778Y-159812753D01*
X137843777Y-159812753D01*
X137682494Y-159787208D01*
X137633824Y-159779500D01*
X137421250Y-159779500D01*
X137372579Y-159787208D01*
X137211297Y-159812753D01*
X137009122Y-159878444D01*
X136819716Y-159974951D01*
X136647750Y-160099890D01*
X136497427Y-160250213D01*
X136372488Y-160422179D01*
X136275981Y-160611585D01*
X136210290Y-160813760D01*
X136177037Y-161023713D01*
X132470373Y-161023713D01*
X132470373Y-152679996D01*
X137164308Y-152679996D01*
X137164308Y-152680003D01*
X137184503Y-152859249D01*
X137184504Y-152859254D01*
X137244084Y-153029523D01*
X137306918Y-153129522D01*
X137340057Y-153182262D01*
X137467611Y-153309816D01*
X137620351Y-153405789D01*
X137719212Y-153440382D01*
X137790618Y-153465368D01*
X137790623Y-153465369D01*
X137969869Y-153485565D01*
X137969873Y-153485565D01*
X137969877Y-153485565D01*
X138149119Y-153465369D01*
X138149120Y-153465369D01*
X138149120Y-153465368D01*
X138149128Y-153465368D01*
X138154015Y-153463657D01*
X138223790Y-153460095D01*
X138284418Y-153494822D01*
X138298776Y-153512875D01*
X138318558Y-153543153D01*
X138475753Y-153713913D01*
X138475756Y-153713915D01*
X138475759Y-153713918D01*
X138658902Y-153856464D01*
X138658908Y-153856468D01*
X138658911Y-153856470D01*
X138826397Y-153947109D01*
X138862189Y-153966479D01*
X138863034Y-153966936D01*
X138977024Y-154006068D01*
X139082552Y-154042297D01*
X139082554Y-154042297D01*
X139082556Y-154042298D01*
X139311488Y-154080500D01*
X139311489Y-154080500D01*
X139543585Y-154080500D01*
X139543586Y-154080500D01*
X139772518Y-154042298D01*
X139992040Y-153966936D01*
X140196163Y-153856470D01*
X140196707Y-153856047D01*
X140257666Y-153808600D01*
X140379321Y-153713913D01*
X140536516Y-153543153D01*
X140560928Y-153505788D01*
X140573728Y-153486196D01*
X140626874Y-153440839D01*
X140696106Y-153431415D01*
X140759441Y-153460917D01*
X140781346Y-153486196D01*
X140818553Y-153543147D01*
X140818556Y-153543151D01*
X140818558Y-153543153D01*
X140975753Y-153713913D01*
X140975756Y-153713915D01*
X140975759Y-153713918D01*
X141158902Y-153856464D01*
X141158908Y-153856468D01*
X141158911Y-153856470D01*
X141326397Y-153947109D01*
X141362189Y-153966479D01*
X141363034Y-153966936D01*
X141477024Y-154006068D01*
X141582552Y-154042297D01*
X141582554Y-154042297D01*
X141582556Y-154042298D01*
X141811488Y-154080500D01*
X141811489Y-154080500D01*
X142043585Y-154080500D01*
X142043586Y-154080500D01*
X142272518Y-154042298D01*
X142492040Y-153966936D01*
X142696163Y-153856470D01*
X142696707Y-153856047D01*
X142757666Y-153808600D01*
X142879321Y-153713913D01*
X143036516Y-153543153D01*
X143074026Y-153485738D01*
X143127172Y-153440382D01*
X143196403Y-153430958D01*
X143259739Y-153460459D01*
X143274451Y-153477437D01*
X143276348Y-153477634D01*
X143944574Y-152809408D01*
X143961612Y-152872993D01*
X144027438Y-152987007D01*
X144120530Y-153080099D01*
X144234544Y-153145925D01*
X144298127Y-153162962D01*
X143628738Y-153832351D01*
X143659186Y-153856050D01*
X143863234Y-153966476D01*
X143863243Y-153966479D01*
X144082676Y-154041811D01*
X144311530Y-154080000D01*
X144543544Y-154080000D01*
X144772397Y-154041811D01*
X144991830Y-153966479D01*
X144991838Y-153966476D01*
X145195892Y-153856047D01*
X145226334Y-153832351D01*
X145226335Y-153832350D01*
X144556947Y-153162962D01*
X144620530Y-153145925D01*
X144734544Y-153080099D01*
X144827636Y-152987007D01*
X144893462Y-152872993D01*
X144910499Y-152809410D01*
X145578723Y-153477634D01*
X145663021Y-153348606D01*
X145756219Y-153136135D01*
X145813175Y-152911218D01*
X145824049Y-152779996D01*
X151164308Y-152779996D01*
X151164308Y-152780003D01*
X151184503Y-152959249D01*
X151184504Y-152959254D01*
X151244084Y-153129523D01*
X151340057Y-153282262D01*
X151467611Y-153409816D01*
X151548209Y-153460459D01*
X151620347Y-153505787D01*
X151620351Y-153505789D01*
X151727131Y-153543153D01*
X151790618Y-153565368D01*
X151790623Y-153565369D01*
X151969869Y-153585565D01*
X151969873Y-153585565D01*
X151969877Y-153585565D01*
X152149122Y-153565369D01*
X152149125Y-153565368D01*
X152149128Y-153565368D01*
X152319395Y-153505789D01*
X152319397Y-153505787D01*
X152319399Y-153505787D01*
X152446481Y-153425936D01*
X152513717Y-153406935D01*
X152580552Y-153427302D01*
X152616262Y-153463108D01*
X152668553Y-153543147D01*
X152668556Y-153543151D01*
X152668558Y-153543153D01*
X152825753Y-153713913D01*
X152825756Y-153713915D01*
X152825759Y-153713918D01*
X153008902Y-153856464D01*
X153008908Y-153856468D01*
X153008911Y-153856470D01*
X153176397Y-153947109D01*
X153212189Y-153966479D01*
X153213034Y-153966936D01*
X153327024Y-154006068D01*
X153432552Y-154042297D01*
X153432554Y-154042297D01*
X153432556Y-154042298D01*
X153661488Y-154080500D01*
X153661489Y-154080500D01*
X153893585Y-154080500D01*
X153893586Y-154080500D01*
X154122518Y-154042298D01*
X154342040Y-153966936D01*
X154546163Y-153856470D01*
X154546707Y-153856047D01*
X154607666Y-153808600D01*
X154729321Y-153713913D01*
X154886516Y-153543153D01*
X154910928Y-153505788D01*
X154923728Y-153486196D01*
X154976874Y-153440839D01*
X155046106Y-153431415D01*
X155109441Y-153460917D01*
X155131346Y-153486196D01*
X155168553Y-153543147D01*
X155168556Y-153543151D01*
X155168558Y-153543153D01*
X155325753Y-153713913D01*
X155325756Y-153713915D01*
X155325759Y-153713918D01*
X155508902Y-153856464D01*
X155508908Y-153856468D01*
X155508911Y-153856470D01*
X155676397Y-153947109D01*
X155712189Y-153966479D01*
X155713034Y-153966936D01*
X155827024Y-154006068D01*
X155932552Y-154042297D01*
X155932554Y-154042297D01*
X155932556Y-154042298D01*
X156161488Y-154080500D01*
X156161489Y-154080500D01*
X156393585Y-154080500D01*
X156393586Y-154080500D01*
X156622518Y-154042298D01*
X156842040Y-153966936D01*
X157046163Y-153856470D01*
X157046707Y-153856047D01*
X157107666Y-153808600D01*
X157229321Y-153713913D01*
X157386516Y-153543153D01*
X157424026Y-153485738D01*
X157477172Y-153440382D01*
X157546403Y-153430958D01*
X157609739Y-153460459D01*
X157624451Y-153477437D01*
X157626348Y-153477634D01*
X158294574Y-152809408D01*
X158311612Y-152872993D01*
X158377438Y-152987007D01*
X158470530Y-153080099D01*
X158584544Y-153145925D01*
X158648127Y-153162962D01*
X157978738Y-153832351D01*
X158009186Y-153856050D01*
X158213234Y-153966476D01*
X158213243Y-153966479D01*
X158432676Y-154041811D01*
X158661530Y-154080000D01*
X158893544Y-154080000D01*
X159122397Y-154041811D01*
X159341830Y-153966479D01*
X159341838Y-153966476D01*
X159545892Y-153856047D01*
X159576334Y-153832351D01*
X159576335Y-153832350D01*
X158906947Y-153162962D01*
X158970530Y-153145925D01*
X159084544Y-153080099D01*
X159177636Y-152987007D01*
X159243462Y-152872993D01*
X159260499Y-152809409D01*
X159928723Y-153477634D01*
X160013021Y-153348606D01*
X160106219Y-153136135D01*
X160163175Y-152911218D01*
X160182335Y-152680005D01*
X160182335Y-152679994D01*
X160163175Y-152448781D01*
X160106219Y-152223864D01*
X160013020Y-152011390D01*
X159928723Y-151882364D01*
X159260499Y-152550589D01*
X159243462Y-152487007D01*
X159177636Y-152372993D01*
X159084544Y-152279901D01*
X158970530Y-152214075D01*
X158906946Y-152197037D01*
X159576334Y-151527647D01*
X159576334Y-151527645D01*
X159545897Y-151503955D01*
X159545891Y-151503951D01*
X159341839Y-151393523D01*
X159341830Y-151393520D01*
X159122397Y-151318188D01*
X158893544Y-151280000D01*
X158661530Y-151280000D01*
X158432676Y-151318188D01*
X158213243Y-151393520D01*
X158213234Y-151393523D01*
X158009187Y-151503949D01*
X157978737Y-151527647D01*
X158648128Y-152197037D01*
X158584544Y-152214075D01*
X158470530Y-152279901D01*
X158377438Y-152372993D01*
X158311612Y-152487007D01*
X158294574Y-152550590D01*
X157626348Y-151882364D01*
X157621567Y-151882860D01*
X157578497Y-151919617D01*
X157509266Y-151929041D01*
X157445930Y-151899539D01*
X157424026Y-151874260D01*
X157386520Y-151816852D01*
X157386517Y-151816849D01*
X157386516Y-151816847D01*
X157229321Y-151646087D01*
X157229316Y-151646083D01*
X157229314Y-151646081D01*
X157046171Y-151503535D01*
X157046165Y-151503531D01*
X156842041Y-151393064D01*
X156842032Y-151393061D01*
X156622521Y-151317702D01*
X156450819Y-151289050D01*
X156393586Y-151279500D01*
X156161488Y-151279500D01*
X156115701Y-151287140D01*
X155932552Y-151317702D01*
X155713041Y-151393061D01*
X155713032Y-151393064D01*
X155508908Y-151503531D01*
X155508902Y-151503535D01*
X155325759Y-151646081D01*
X155325756Y-151646084D01*
X155325753Y-151646086D01*
X155325753Y-151646087D01*
X155168558Y-151816847D01*
X155168556Y-151816848D01*
X155168552Y-151816854D01*
X155131345Y-151873804D01*
X155078199Y-151919161D01*
X155008967Y-151928584D01*
X154945632Y-151899082D01*
X154923729Y-151873804D01*
X154886521Y-151816854D01*
X154886519Y-151816852D01*
X154886516Y-151816847D01*
X154729321Y-151646087D01*
X154729316Y-151646083D01*
X154729314Y-151646081D01*
X154546171Y-151503535D01*
X154546165Y-151503531D01*
X154342041Y-151393064D01*
X154342032Y-151393061D01*
X154122521Y-151317702D01*
X153950819Y-151289050D01*
X153893586Y-151279500D01*
X153661488Y-151279500D01*
X153615701Y-151287140D01*
X153432552Y-151317702D01*
X153213041Y-151393061D01*
X153213032Y-151393064D01*
X153008908Y-151503531D01*
X153008902Y-151503535D01*
X152825759Y-151646081D01*
X152825756Y-151646084D01*
X152668553Y-151816852D01*
X152541616Y-152011145D01*
X152541612Y-152011152D01*
X152536556Y-152022679D01*
X152491598Y-152076163D01*
X152424861Y-152096850D01*
X152357534Y-152078173D01*
X152357031Y-152077858D01*
X152319398Y-152054212D01*
X152149127Y-151994631D01*
X152149122Y-151994630D01*
X151969877Y-151974435D01*
X151969869Y-151974435D01*
X151790623Y-151994630D01*
X151790618Y-151994631D01*
X151620349Y-152054211D01*
X151467610Y-152150184D01*
X151340057Y-152277737D01*
X151244084Y-152430476D01*
X151184504Y-152600745D01*
X151184503Y-152600750D01*
X151164308Y-152779996D01*
X145824049Y-152779996D01*
X145832335Y-152680005D01*
X145832335Y-152679994D01*
X145813175Y-152448781D01*
X145756219Y-152223864D01*
X145663020Y-152011390D01*
X145578723Y-151882364D01*
X144910499Y-152550589D01*
X144893462Y-152487007D01*
X144827636Y-152372993D01*
X144734544Y-152279901D01*
X144620530Y-152214075D01*
X144556946Y-152197037D01*
X145226334Y-151527647D01*
X145226334Y-151527645D01*
X145195897Y-151503955D01*
X145195891Y-151503951D01*
X144991839Y-151393523D01*
X144991830Y-151393520D01*
X144772397Y-151318188D01*
X144543544Y-151280000D01*
X144311530Y-151280000D01*
X144082676Y-151318188D01*
X143863243Y-151393520D01*
X143863234Y-151393523D01*
X143659187Y-151503949D01*
X143628737Y-151527647D01*
X144298128Y-152197037D01*
X144234544Y-152214075D01*
X144120530Y-152279901D01*
X144027438Y-152372993D01*
X143961612Y-152487007D01*
X143944574Y-152550590D01*
X143276348Y-151882364D01*
X143271567Y-151882860D01*
X143228497Y-151919617D01*
X143159266Y-151929041D01*
X143095930Y-151899539D01*
X143074026Y-151874260D01*
X143036520Y-151816852D01*
X143036517Y-151816849D01*
X143036516Y-151816847D01*
X142879321Y-151646087D01*
X142879316Y-151646083D01*
X142879314Y-151646081D01*
X142696171Y-151503535D01*
X142696165Y-151503531D01*
X142492041Y-151393064D01*
X142492032Y-151393061D01*
X142272521Y-151317702D01*
X142100819Y-151289050D01*
X142043586Y-151279500D01*
X141811488Y-151279500D01*
X141765701Y-151287140D01*
X141582552Y-151317702D01*
X141363041Y-151393061D01*
X141363032Y-151393064D01*
X141158908Y-151503531D01*
X141158902Y-151503535D01*
X140975759Y-151646081D01*
X140975756Y-151646084D01*
X140975753Y-151646086D01*
X140975753Y-151646087D01*
X140818558Y-151816847D01*
X140818556Y-151816848D01*
X140818552Y-151816854D01*
X140781345Y-151873804D01*
X140728199Y-151919161D01*
X140658967Y-151928584D01*
X140595632Y-151899082D01*
X140573729Y-151873804D01*
X140536521Y-151816854D01*
X140536519Y-151816852D01*
X140536516Y-151816847D01*
X140379321Y-151646087D01*
X140379316Y-151646083D01*
X140379314Y-151646081D01*
X140196171Y-151503535D01*
X140196165Y-151503531D01*
X139992041Y-151393064D01*
X139992032Y-151393061D01*
X139772521Y-151317702D01*
X139600819Y-151289050D01*
X139543586Y-151279500D01*
X139311488Y-151279500D01*
X139265701Y-151287140D01*
X139082552Y-151317702D01*
X138863041Y-151393061D01*
X138863032Y-151393064D01*
X138658908Y-151503531D01*
X138658902Y-151503535D01*
X138475759Y-151646081D01*
X138475756Y-151646084D01*
X138318556Y-151816848D01*
X138298776Y-151847124D01*
X138245629Y-151892479D01*
X138176398Y-151901901D01*
X138154015Y-151896342D01*
X138149125Y-151894631D01*
X137969877Y-151874435D01*
X137969869Y-151874435D01*
X137790623Y-151894630D01*
X137790618Y-151894631D01*
X137620349Y-151954211D01*
X137467610Y-152050184D01*
X137340057Y-152177737D01*
X137244084Y-152330476D01*
X137184504Y-152500745D01*
X137184503Y-152500750D01*
X137164308Y-152679996D01*
X132470373Y-152679996D01*
X132470373Y-145573713D01*
X136177037Y-145573713D01*
X136177037Y-145786286D01*
X136210290Y-145996239D01*
X136275981Y-146198414D01*
X136372488Y-146387820D01*
X136497427Y-146559786D01*
X136647750Y-146710109D01*
X136819716Y-146835048D01*
X136819718Y-146835049D01*
X136819721Y-146835051D01*
X137009125Y-146931557D01*
X137211294Y-146997246D01*
X137421250Y-147030500D01*
X137421251Y-147030500D01*
X137633823Y-147030500D01*
X137633824Y-147030500D01*
X137843780Y-146997246D01*
X138045949Y-146931557D01*
X138235353Y-146835051D01*
X138257326Y-146819086D01*
X138407323Y-146710109D01*
X138407325Y-146710106D01*
X138407329Y-146710104D01*
X138557641Y-146559792D01*
X138557643Y-146559788D01*
X138557646Y-146559786D01*
X138682585Y-146387820D01*
X138682584Y-146387820D01*
X138682588Y-146387816D01*
X138779094Y-146198412D01*
X138844783Y-145996243D01*
X138878037Y-145786287D01*
X138878037Y-145573713D01*
X144977037Y-145573713D01*
X144977037Y-145786286D01*
X145010290Y-145996239D01*
X145075981Y-146198414D01*
X145172488Y-146387820D01*
X145297427Y-146559786D01*
X145447750Y-146710109D01*
X145619716Y-146835048D01*
X145619718Y-146835049D01*
X145619721Y-146835051D01*
X145809125Y-146931557D01*
X146011294Y-146997246D01*
X146221250Y-147030500D01*
X146221251Y-147030500D01*
X146433823Y-147030500D01*
X146433824Y-147030500D01*
X146643780Y-146997246D01*
X146845949Y-146931557D01*
X147035353Y-146835051D01*
X147057326Y-146819086D01*
X147207323Y-146710109D01*
X147207325Y-146710106D01*
X147207329Y-146710104D01*
X147357641Y-146559792D01*
X147357643Y-146559788D01*
X147357646Y-146559786D01*
X147482585Y-146387820D01*
X147482584Y-146387820D01*
X147482588Y-146387816D01*
X147579094Y-146198412D01*
X147644783Y-145996243D01*
X147678037Y-145786287D01*
X147678037Y-145573713D01*
X150527037Y-145573713D01*
X150527037Y-145786286D01*
X150560290Y-145996239D01*
X150625981Y-146198414D01*
X150722488Y-146387820D01*
X150847427Y-146559786D01*
X150997750Y-146710109D01*
X151169716Y-146835048D01*
X151169718Y-146835049D01*
X151169721Y-146835051D01*
X151359125Y-146931557D01*
X151561294Y-146997246D01*
X151771250Y-147030500D01*
X151771251Y-147030500D01*
X151983823Y-147030500D01*
X151983824Y-147030500D01*
X152193780Y-146997246D01*
X152395949Y-146931557D01*
X152585353Y-146835051D01*
X152607326Y-146819086D01*
X152757323Y-146710109D01*
X152757325Y-146710106D01*
X152757329Y-146710104D01*
X152907641Y-146559792D01*
X152907643Y-146559788D01*
X152907646Y-146559786D01*
X153032585Y-146387820D01*
X153032584Y-146387820D01*
X153032588Y-146387816D01*
X153129094Y-146198412D01*
X153194783Y-145996243D01*
X153228037Y-145786287D01*
X153228037Y-145573713D01*
X159327037Y-145573713D01*
X159327037Y-145786286D01*
X159360290Y-145996239D01*
X159425981Y-146198414D01*
X159522488Y-146387820D01*
X159647427Y-146559786D01*
X159797750Y-146710109D01*
X159969716Y-146835048D01*
X159969718Y-146835049D01*
X159969721Y-146835051D01*
X160159125Y-146931557D01*
X160361294Y-146997246D01*
X160571250Y-147030500D01*
X160571251Y-147030500D01*
X160783823Y-147030500D01*
X160783824Y-147030500D01*
X160993780Y-146997246D01*
X161195949Y-146931557D01*
X161385353Y-146835051D01*
X161407326Y-146819086D01*
X161557323Y-146710109D01*
X161557325Y-146710106D01*
X161557329Y-146710104D01*
X161707641Y-146559792D01*
X161707643Y-146559788D01*
X161707646Y-146559786D01*
X161832585Y-146387820D01*
X161832584Y-146387820D01*
X161832588Y-146387816D01*
X161929094Y-146198412D01*
X161994783Y-145996243D01*
X162028037Y-145786287D01*
X162028037Y-145573713D01*
X161994783Y-145363757D01*
X161929094Y-145161588D01*
X161832588Y-144972184D01*
X161832586Y-144972181D01*
X161832585Y-144972179D01*
X161707646Y-144800213D01*
X161557323Y-144649890D01*
X161385357Y-144524951D01*
X161195951Y-144428444D01*
X161195950Y-144428443D01*
X161195949Y-144428443D01*
X160993780Y-144362754D01*
X160993778Y-144362753D01*
X160993777Y-144362753D01*
X160832494Y-144337208D01*
X160783824Y-144329500D01*
X160571250Y-144329500D01*
X160522579Y-144337208D01*
X160361297Y-144362753D01*
X160159122Y-144428444D01*
X159969716Y-144524951D01*
X159797750Y-144649890D01*
X159647427Y-144800213D01*
X159522488Y-144972179D01*
X159425981Y-145161585D01*
X159360290Y-145363760D01*
X159327037Y-145573713D01*
X153228037Y-145573713D01*
X153194783Y-145363757D01*
X153129094Y-145161588D01*
X153032588Y-144972184D01*
X153032586Y-144972181D01*
X153032585Y-144972179D01*
X152907646Y-144800213D01*
X152757323Y-144649890D01*
X152585357Y-144524951D01*
X152395951Y-144428444D01*
X152395950Y-144428443D01*
X152395949Y-144428443D01*
X152193780Y-144362754D01*
X152193778Y-144362753D01*
X152193777Y-144362753D01*
X152032494Y-144337208D01*
X151983824Y-144329500D01*
X151771250Y-144329500D01*
X151722579Y-144337208D01*
X151561297Y-144362753D01*
X151359122Y-144428444D01*
X151169716Y-144524951D01*
X150997750Y-144649890D01*
X150847427Y-144800213D01*
X150722488Y-144972179D01*
X150625981Y-145161585D01*
X150560290Y-145363760D01*
X150527037Y-145573713D01*
X147678037Y-145573713D01*
X147644783Y-145363757D01*
X147579094Y-145161588D01*
X147482588Y-144972184D01*
X147482586Y-144972181D01*
X147482585Y-144972179D01*
X147357646Y-144800213D01*
X147207323Y-144649890D01*
X147035357Y-144524951D01*
X146845951Y-144428444D01*
X146845950Y-144428443D01*
X146845949Y-144428443D01*
X146643780Y-144362754D01*
X146643778Y-144362753D01*
X146643777Y-144362753D01*
X146482494Y-144337208D01*
X146433824Y-144329500D01*
X146221250Y-144329500D01*
X146172579Y-144337208D01*
X146011297Y-144362753D01*
X145809122Y-144428444D01*
X145619716Y-144524951D01*
X145447750Y-144649890D01*
X145297427Y-144800213D01*
X145172488Y-144972179D01*
X145075981Y-145161585D01*
X145010290Y-145363760D01*
X144977037Y-145573713D01*
X138878037Y-145573713D01*
X138844783Y-145363757D01*
X138779094Y-145161588D01*
X138682588Y-144972184D01*
X138682586Y-144972181D01*
X138682585Y-144972179D01*
X138557646Y-144800213D01*
X138407323Y-144649890D01*
X138235357Y-144524951D01*
X138045951Y-144428444D01*
X138045950Y-144428443D01*
X138045949Y-144428443D01*
X137843780Y-144362754D01*
X137843778Y-144362753D01*
X137843777Y-144362753D01*
X137682494Y-144337208D01*
X137633824Y-144329500D01*
X137421250Y-144329500D01*
X137372579Y-144337208D01*
X137211297Y-144362753D01*
X137009122Y-144428444D01*
X136819716Y-144524951D01*
X136647750Y-144649890D01*
X136497427Y-144800213D01*
X136372488Y-144972179D01*
X136275981Y-145161585D01*
X136210290Y-145363760D01*
X136177037Y-145573713D01*
X132470373Y-145573713D01*
X132470373Y-137229996D01*
X136714308Y-137229996D01*
X136714308Y-137230003D01*
X136734503Y-137409249D01*
X136734504Y-137409254D01*
X136794084Y-137579523D01*
X136861073Y-137686135D01*
X136890057Y-137732262D01*
X137017611Y-137859816D01*
X137107953Y-137916582D01*
X137148173Y-137941854D01*
X137170351Y-137955789D01*
X137232855Y-137977660D01*
X137340618Y-138015368D01*
X137340623Y-138015369D01*
X137519869Y-138035565D01*
X137519873Y-138035565D01*
X137519877Y-138035565D01*
X137699122Y-138015369D01*
X137699125Y-138015368D01*
X137699128Y-138015368D01*
X137869395Y-137955789D01*
X137891573Y-137941854D01*
X137933249Y-137915666D01*
X138021058Y-137860492D01*
X138088294Y-137841492D01*
X138155129Y-137861859D01*
X138190839Y-137897664D01*
X138191612Y-137898848D01*
X138191613Y-137898849D01*
X138219710Y-137941854D01*
X138313600Y-138085565D01*
X138318558Y-138093153D01*
X138475753Y-138263913D01*
X138475756Y-138263915D01*
X138475759Y-138263918D01*
X138658902Y-138406464D01*
X138658908Y-138406468D01*
X138658911Y-138406470D01*
X138826397Y-138497109D01*
X138862189Y-138516479D01*
X138863034Y-138516936D01*
X138977024Y-138556068D01*
X139082552Y-138592297D01*
X139082554Y-138592297D01*
X139082556Y-138592298D01*
X139311488Y-138630500D01*
X139311489Y-138630500D01*
X139543585Y-138630500D01*
X139543586Y-138630500D01*
X139772518Y-138592298D01*
X139992040Y-138516936D01*
X140196163Y-138406470D01*
X140196707Y-138406047D01*
X140257666Y-138358600D01*
X140379321Y-138263913D01*
X140536516Y-138093153D01*
X140536520Y-138093147D01*
X140573728Y-138036196D01*
X140626874Y-137990839D01*
X140696106Y-137981415D01*
X140759441Y-138010917D01*
X140781346Y-138036196D01*
X140818553Y-138093147D01*
X140818555Y-138093149D01*
X140818558Y-138093153D01*
X140975753Y-138263913D01*
X140975756Y-138263915D01*
X140975759Y-138263918D01*
X141158902Y-138406464D01*
X141158908Y-138406468D01*
X141158911Y-138406470D01*
X141326397Y-138497109D01*
X141362189Y-138516479D01*
X141363034Y-138516936D01*
X141477024Y-138556068D01*
X141582552Y-138592297D01*
X141582554Y-138592297D01*
X141582556Y-138592298D01*
X141811488Y-138630500D01*
X141811489Y-138630500D01*
X142043585Y-138630500D01*
X142043586Y-138630500D01*
X142272518Y-138592298D01*
X142492040Y-138516936D01*
X142696163Y-138406470D01*
X142696707Y-138406047D01*
X142757666Y-138358600D01*
X142879321Y-138263913D01*
X143036516Y-138093153D01*
X143074026Y-138035738D01*
X143127172Y-137990382D01*
X143196403Y-137980958D01*
X143259739Y-138010459D01*
X143274451Y-138027437D01*
X143276348Y-138027634D01*
X143944574Y-137359408D01*
X143961612Y-137422993D01*
X144027438Y-137537007D01*
X144120530Y-137630099D01*
X144234544Y-137695925D01*
X144298127Y-137712962D01*
X143628738Y-138382351D01*
X143659186Y-138406050D01*
X143863234Y-138516476D01*
X143863243Y-138516479D01*
X144082676Y-138591811D01*
X144311530Y-138630000D01*
X144543544Y-138630000D01*
X144772397Y-138591811D01*
X144991830Y-138516479D01*
X144991838Y-138516476D01*
X145195892Y-138406047D01*
X145226334Y-138382351D01*
X145226335Y-138382350D01*
X144556947Y-137712962D01*
X144620530Y-137695925D01*
X144734544Y-137630099D01*
X144827636Y-137537007D01*
X144893462Y-137422993D01*
X144910499Y-137359410D01*
X145578723Y-138027634D01*
X145663021Y-137898606D01*
X145756219Y-137686135D01*
X145813175Y-137461218D01*
X145828192Y-137279996D01*
X151164308Y-137279996D01*
X151164308Y-137280003D01*
X151184503Y-137459249D01*
X151184504Y-137459254D01*
X151244084Y-137629523D01*
X151308640Y-137732262D01*
X151340057Y-137782262D01*
X151467611Y-137909816D01*
X151620351Y-138005789D01*
X151790618Y-138065368D01*
X151790623Y-138065369D01*
X151969869Y-138085565D01*
X151969873Y-138085565D01*
X151969877Y-138085565D01*
X152149122Y-138065369D01*
X152149125Y-138065368D01*
X152149128Y-138065368D01*
X152319395Y-138005789D01*
X152423322Y-137940486D01*
X152490558Y-137921487D01*
X152557394Y-137941854D01*
X152593102Y-137977659D01*
X152601713Y-137990839D01*
X152668553Y-138093147D01*
X152668555Y-138093149D01*
X152668558Y-138093153D01*
X152825753Y-138263913D01*
X152825756Y-138263915D01*
X152825759Y-138263918D01*
X153008902Y-138406464D01*
X153008908Y-138406468D01*
X153008911Y-138406470D01*
X153176397Y-138497109D01*
X153212189Y-138516479D01*
X153213034Y-138516936D01*
X153327024Y-138556068D01*
X153432552Y-138592297D01*
X153432554Y-138592297D01*
X153432556Y-138592298D01*
X153661488Y-138630500D01*
X153661489Y-138630500D01*
X153893585Y-138630500D01*
X153893586Y-138630500D01*
X154122518Y-138592298D01*
X154342040Y-138516936D01*
X154546163Y-138406470D01*
X154546707Y-138406047D01*
X154607666Y-138358600D01*
X154729321Y-138263913D01*
X154886516Y-138093153D01*
X154886520Y-138093147D01*
X154923728Y-138036196D01*
X154976874Y-137990839D01*
X155046106Y-137981415D01*
X155109441Y-138010917D01*
X155131346Y-138036196D01*
X155168553Y-138093147D01*
X155168555Y-138093149D01*
X155168558Y-138093153D01*
X155325753Y-138263913D01*
X155325756Y-138263915D01*
X155325759Y-138263918D01*
X155508902Y-138406464D01*
X155508908Y-138406468D01*
X155508911Y-138406470D01*
X155676397Y-138497109D01*
X155712189Y-138516479D01*
X155713034Y-138516936D01*
X155827024Y-138556068D01*
X155932552Y-138592297D01*
X155932554Y-138592297D01*
X155932556Y-138592298D01*
X156161488Y-138630500D01*
X156161489Y-138630500D01*
X156393585Y-138630500D01*
X156393586Y-138630500D01*
X156622518Y-138592298D01*
X156842040Y-138516936D01*
X157046163Y-138406470D01*
X157046707Y-138406047D01*
X157107666Y-138358600D01*
X157229321Y-138263913D01*
X157386516Y-138093153D01*
X157424026Y-138035738D01*
X157477172Y-137990382D01*
X157546403Y-137980958D01*
X157609739Y-138010459D01*
X157624451Y-138027437D01*
X157626348Y-138027634D01*
X158294574Y-137359408D01*
X158311612Y-137422993D01*
X158377438Y-137537007D01*
X158470530Y-137630099D01*
X158584544Y-137695925D01*
X158648127Y-137712962D01*
X157978738Y-138382351D01*
X158009186Y-138406050D01*
X158213234Y-138516476D01*
X158213243Y-138516479D01*
X158432676Y-138591811D01*
X158661530Y-138630000D01*
X158893544Y-138630000D01*
X159122397Y-138591811D01*
X159341830Y-138516479D01*
X159341838Y-138516476D01*
X159545892Y-138406047D01*
X159576334Y-138382351D01*
X159576335Y-138382350D01*
X158906947Y-137712962D01*
X158970530Y-137695925D01*
X159084544Y-137630099D01*
X159177636Y-137537007D01*
X159243462Y-137422993D01*
X159260499Y-137359409D01*
X159928723Y-138027634D01*
X160013021Y-137898606D01*
X160106219Y-137686135D01*
X160163175Y-137461218D01*
X160182335Y-137230005D01*
X160182335Y-137229994D01*
X160163175Y-136998781D01*
X160106219Y-136773864D01*
X160013020Y-136561390D01*
X159928723Y-136432364D01*
X159260499Y-137100589D01*
X159243462Y-137037007D01*
X159177636Y-136922993D01*
X159084544Y-136829901D01*
X158970530Y-136764075D01*
X158906946Y-136747037D01*
X159576334Y-136077647D01*
X159576334Y-136077645D01*
X159545897Y-136053955D01*
X159545891Y-136053951D01*
X159341839Y-135943523D01*
X159341830Y-135943520D01*
X159122397Y-135868188D01*
X158893544Y-135830000D01*
X158661530Y-135830000D01*
X158432676Y-135868188D01*
X158213243Y-135943520D01*
X158213234Y-135943523D01*
X158009187Y-136053949D01*
X157978737Y-136077647D01*
X158648128Y-136747037D01*
X158584544Y-136764075D01*
X158470530Y-136829901D01*
X158377438Y-136922993D01*
X158311612Y-137037007D01*
X158294574Y-137100590D01*
X157626348Y-136432364D01*
X157621567Y-136432860D01*
X157578497Y-136469617D01*
X157509266Y-136479041D01*
X157445930Y-136449539D01*
X157424026Y-136424260D01*
X157386520Y-136366852D01*
X157386517Y-136366849D01*
X157386516Y-136366847D01*
X157229321Y-136196087D01*
X157229316Y-136196083D01*
X157229314Y-136196081D01*
X157046171Y-136053535D01*
X157046165Y-136053531D01*
X156842041Y-135943064D01*
X156842032Y-135943061D01*
X156622521Y-135867702D01*
X156450819Y-135839050D01*
X156393586Y-135829500D01*
X156161488Y-135829500D01*
X156115701Y-135837140D01*
X155932552Y-135867702D01*
X155713041Y-135943061D01*
X155713032Y-135943064D01*
X155508908Y-136053531D01*
X155508902Y-136053535D01*
X155325759Y-136196081D01*
X155325756Y-136196084D01*
X155168552Y-136366854D01*
X155131345Y-136423804D01*
X155078199Y-136469161D01*
X155008967Y-136478584D01*
X154945632Y-136449082D01*
X154923729Y-136423804D01*
X154886521Y-136366854D01*
X154886519Y-136366852D01*
X154886516Y-136366847D01*
X154729321Y-136196087D01*
X154729316Y-136196083D01*
X154729314Y-136196081D01*
X154546171Y-136053535D01*
X154546165Y-136053531D01*
X154342041Y-135943064D01*
X154342032Y-135943061D01*
X154122521Y-135867702D01*
X153950819Y-135839050D01*
X153893586Y-135829500D01*
X153661488Y-135829500D01*
X153615701Y-135837140D01*
X153432552Y-135867702D01*
X153213041Y-135943061D01*
X153213032Y-135943064D01*
X153008908Y-136053531D01*
X153008902Y-136053535D01*
X152825759Y-136196081D01*
X152825756Y-136196084D01*
X152668555Y-136366850D01*
X152546784Y-136553236D01*
X152493637Y-136598592D01*
X152424406Y-136608016D01*
X152377003Y-136590408D01*
X152319396Y-136554211D01*
X152149127Y-136494631D01*
X152149122Y-136494630D01*
X151969877Y-136474435D01*
X151969869Y-136474435D01*
X151790623Y-136494630D01*
X151790618Y-136494631D01*
X151620349Y-136554211D01*
X151467610Y-136650184D01*
X151340057Y-136777737D01*
X151244084Y-136930476D01*
X151184504Y-137100745D01*
X151184503Y-137100750D01*
X151164308Y-137279996D01*
X145828192Y-137279996D01*
X145832335Y-137230005D01*
X145832335Y-137229994D01*
X145813175Y-136998781D01*
X145756219Y-136773864D01*
X145663020Y-136561390D01*
X145578723Y-136432364D01*
X144910499Y-137100589D01*
X144893462Y-137037007D01*
X144827636Y-136922993D01*
X144734544Y-136829901D01*
X144620530Y-136764075D01*
X144556946Y-136747037D01*
X145226334Y-136077647D01*
X145226334Y-136077645D01*
X145195897Y-136053955D01*
X145195891Y-136053951D01*
X144991839Y-135943523D01*
X144991830Y-135943520D01*
X144772397Y-135868188D01*
X144543544Y-135830000D01*
X144311530Y-135830000D01*
X144082676Y-135868188D01*
X143863243Y-135943520D01*
X143863234Y-135943523D01*
X143659187Y-136053949D01*
X143628737Y-136077647D01*
X144298128Y-136747037D01*
X144234544Y-136764075D01*
X144120530Y-136829901D01*
X144027438Y-136922993D01*
X143961612Y-137037007D01*
X143944574Y-137100590D01*
X143276348Y-136432364D01*
X143271567Y-136432860D01*
X143228497Y-136469617D01*
X143159266Y-136479041D01*
X143095930Y-136449539D01*
X143074026Y-136424260D01*
X143036520Y-136366852D01*
X143036517Y-136366849D01*
X143036516Y-136366847D01*
X142879321Y-136196087D01*
X142879316Y-136196083D01*
X142879314Y-136196081D01*
X142696171Y-136053535D01*
X142696165Y-136053531D01*
X142492041Y-135943064D01*
X142492032Y-135943061D01*
X142272521Y-135867702D01*
X142100819Y-135839050D01*
X142043586Y-135829500D01*
X141811488Y-135829500D01*
X141765701Y-135837140D01*
X141582552Y-135867702D01*
X141363041Y-135943061D01*
X141363032Y-135943064D01*
X141158908Y-136053531D01*
X141158902Y-136053535D01*
X140975759Y-136196081D01*
X140975756Y-136196084D01*
X140818552Y-136366854D01*
X140781345Y-136423804D01*
X140728199Y-136469161D01*
X140658967Y-136478584D01*
X140595632Y-136449082D01*
X140573729Y-136423804D01*
X140536521Y-136366854D01*
X140536519Y-136366852D01*
X140536516Y-136366847D01*
X140379321Y-136196087D01*
X140379316Y-136196083D01*
X140379314Y-136196081D01*
X140196171Y-136053535D01*
X140196165Y-136053531D01*
X139992041Y-135943064D01*
X139992032Y-135943061D01*
X139772521Y-135867702D01*
X139600819Y-135839050D01*
X139543586Y-135829500D01*
X139311488Y-135829500D01*
X139265701Y-135837140D01*
X139082552Y-135867702D01*
X138863041Y-135943061D01*
X138863032Y-135943064D01*
X138658908Y-136053531D01*
X138658902Y-136053535D01*
X138475759Y-136196081D01*
X138475756Y-136196084D01*
X138318555Y-136366850D01*
X138190839Y-136562335D01*
X138137692Y-136607691D01*
X138068461Y-136617115D01*
X138021058Y-136599507D01*
X137869396Y-136504211D01*
X137699127Y-136444631D01*
X137699122Y-136444630D01*
X137519877Y-136424435D01*
X137519869Y-136424435D01*
X137340623Y-136444630D01*
X137340618Y-136444631D01*
X137170349Y-136504211D01*
X137017610Y-136600184D01*
X136890057Y-136727737D01*
X136794084Y-136880476D01*
X136734504Y-137050745D01*
X136734503Y-137050750D01*
X136714308Y-137229996D01*
X132470373Y-137229996D01*
X132470373Y-130123713D01*
X136177037Y-130123713D01*
X136177037Y-130336286D01*
X136210290Y-130546239D01*
X136275981Y-130748414D01*
X136372488Y-130937820D01*
X136497427Y-131109786D01*
X136647750Y-131260109D01*
X136819716Y-131385048D01*
X136819718Y-131385049D01*
X136819721Y-131385051D01*
X137009125Y-131481557D01*
X137211294Y-131547246D01*
X137421250Y-131580500D01*
X137421251Y-131580500D01*
X137633823Y-131580500D01*
X137633824Y-131580500D01*
X137843780Y-131547246D01*
X138045949Y-131481557D01*
X138235353Y-131385051D01*
X138257326Y-131369086D01*
X138407323Y-131260109D01*
X138407325Y-131260106D01*
X138407329Y-131260104D01*
X138557641Y-131109792D01*
X138557643Y-131109788D01*
X138557646Y-131109786D01*
X138682585Y-130937820D01*
X138682584Y-130937820D01*
X138682588Y-130937816D01*
X138779094Y-130748412D01*
X138844783Y-130546243D01*
X138878037Y-130336287D01*
X138878037Y-130123713D01*
X144977037Y-130123713D01*
X144977037Y-130336286D01*
X145010290Y-130546239D01*
X145075981Y-130748414D01*
X145172488Y-130937820D01*
X145297427Y-131109786D01*
X145447750Y-131260109D01*
X145619716Y-131385048D01*
X145619718Y-131385049D01*
X145619721Y-131385051D01*
X145809125Y-131481557D01*
X146011294Y-131547246D01*
X146221250Y-131580500D01*
X146221251Y-131580500D01*
X146433823Y-131580500D01*
X146433824Y-131580500D01*
X146643780Y-131547246D01*
X146845949Y-131481557D01*
X147035353Y-131385051D01*
X147057326Y-131369086D01*
X147207323Y-131260109D01*
X147207325Y-131260106D01*
X147207329Y-131260104D01*
X147357641Y-131109792D01*
X147357643Y-131109788D01*
X147357646Y-131109786D01*
X147482585Y-130937820D01*
X147482584Y-130937820D01*
X147482588Y-130937816D01*
X147579094Y-130748412D01*
X147644783Y-130546243D01*
X147678037Y-130336287D01*
X147678037Y-130123713D01*
X150527037Y-130123713D01*
X150527037Y-130336286D01*
X150560290Y-130546239D01*
X150625981Y-130748414D01*
X150722488Y-130937820D01*
X150847427Y-131109786D01*
X150997750Y-131260109D01*
X151169716Y-131385048D01*
X151169718Y-131385049D01*
X151169721Y-131385051D01*
X151359125Y-131481557D01*
X151561294Y-131547246D01*
X151771250Y-131580500D01*
X151771251Y-131580500D01*
X151983823Y-131580500D01*
X151983824Y-131580500D01*
X152193780Y-131547246D01*
X152395949Y-131481557D01*
X152585353Y-131385051D01*
X152607326Y-131369086D01*
X152757323Y-131260109D01*
X152757325Y-131260106D01*
X152757329Y-131260104D01*
X152907641Y-131109792D01*
X152907643Y-131109788D01*
X152907646Y-131109786D01*
X153032585Y-130937820D01*
X153032584Y-130937820D01*
X153032588Y-130937816D01*
X153129094Y-130748412D01*
X153194783Y-130546243D01*
X153228037Y-130336287D01*
X153228037Y-130123713D01*
X159327037Y-130123713D01*
X159327037Y-130336286D01*
X159360290Y-130546239D01*
X159425981Y-130748414D01*
X159522488Y-130937820D01*
X159647427Y-131109786D01*
X159797750Y-131260109D01*
X159969716Y-131385048D01*
X159969718Y-131385049D01*
X159969721Y-131385051D01*
X160159125Y-131481557D01*
X160361294Y-131547246D01*
X160571250Y-131580500D01*
X160571251Y-131580500D01*
X160783823Y-131580500D01*
X160783824Y-131580500D01*
X160993780Y-131547246D01*
X161195949Y-131481557D01*
X161385353Y-131385051D01*
X161407326Y-131369086D01*
X161557323Y-131260109D01*
X161557325Y-131260106D01*
X161557329Y-131260104D01*
X161707641Y-131109792D01*
X161707643Y-131109788D01*
X161707646Y-131109786D01*
X161832585Y-130937820D01*
X161832584Y-130937820D01*
X161832588Y-130937816D01*
X161929094Y-130748412D01*
X161994783Y-130546243D01*
X162028037Y-130336287D01*
X162028037Y-130123713D01*
X161994783Y-129913757D01*
X161929094Y-129711588D01*
X161832588Y-129522184D01*
X161832586Y-129522181D01*
X161832585Y-129522179D01*
X161707646Y-129350213D01*
X161557323Y-129199890D01*
X161385357Y-129074951D01*
X161195951Y-128978444D01*
X161195950Y-128978443D01*
X161195949Y-128978443D01*
X160993780Y-128912754D01*
X160993778Y-128912753D01*
X160993777Y-128912753D01*
X160832494Y-128887208D01*
X160783824Y-128879500D01*
X160571250Y-128879500D01*
X160522579Y-128887208D01*
X160361297Y-128912753D01*
X160159122Y-128978444D01*
X159969716Y-129074951D01*
X159797750Y-129199890D01*
X159647427Y-129350213D01*
X159522488Y-129522179D01*
X159425981Y-129711585D01*
X159360290Y-129913760D01*
X159327037Y-130123713D01*
X153228037Y-130123713D01*
X153194783Y-129913757D01*
X153129094Y-129711588D01*
X153032588Y-129522184D01*
X153032586Y-129522181D01*
X153032585Y-129522179D01*
X152907646Y-129350213D01*
X152757323Y-129199890D01*
X152585357Y-129074951D01*
X152395951Y-128978444D01*
X152395950Y-128978443D01*
X152395949Y-128978443D01*
X152193780Y-128912754D01*
X152193778Y-128912753D01*
X152193777Y-128912753D01*
X152032494Y-128887208D01*
X151983824Y-128879500D01*
X151771250Y-128879500D01*
X151722579Y-128887208D01*
X151561297Y-128912753D01*
X151359122Y-128978444D01*
X151169716Y-129074951D01*
X150997750Y-129199890D01*
X150847427Y-129350213D01*
X150722488Y-129522179D01*
X150625981Y-129711585D01*
X150560290Y-129913760D01*
X150527037Y-130123713D01*
X147678037Y-130123713D01*
X147644783Y-129913757D01*
X147579094Y-129711588D01*
X147482588Y-129522184D01*
X147482586Y-129522181D01*
X147482585Y-129522179D01*
X147357646Y-129350213D01*
X147207323Y-129199890D01*
X147035357Y-129074951D01*
X146845951Y-128978444D01*
X146845950Y-128978443D01*
X146845949Y-128978443D01*
X146643780Y-128912754D01*
X146643778Y-128912753D01*
X146643777Y-128912753D01*
X146482494Y-128887208D01*
X146433824Y-128879500D01*
X146221250Y-128879500D01*
X146172579Y-128887208D01*
X146011297Y-128912753D01*
X145809122Y-128978444D01*
X145619716Y-129074951D01*
X145447750Y-129199890D01*
X145297427Y-129350213D01*
X145172488Y-129522179D01*
X145075981Y-129711585D01*
X145010290Y-129913760D01*
X144977037Y-130123713D01*
X138878037Y-130123713D01*
X138844783Y-129913757D01*
X138779094Y-129711588D01*
X138682588Y-129522184D01*
X138682586Y-129522181D01*
X138682585Y-129522179D01*
X138557646Y-129350213D01*
X138407323Y-129199890D01*
X138235357Y-129074951D01*
X138045951Y-128978444D01*
X138045950Y-128978443D01*
X138045949Y-128978443D01*
X137843780Y-128912754D01*
X137843778Y-128912753D01*
X137843777Y-128912753D01*
X137682494Y-128887208D01*
X137633824Y-128879500D01*
X137421250Y-128879500D01*
X137372579Y-128887208D01*
X137211297Y-128912753D01*
X137009122Y-128978444D01*
X136819716Y-129074951D01*
X136647750Y-129199890D01*
X136497427Y-129350213D01*
X136372488Y-129522179D01*
X136275981Y-129711585D01*
X136210290Y-129913760D01*
X136177037Y-130123713D01*
X132470373Y-130123713D01*
X132470373Y-121779993D01*
X138022237Y-121779993D01*
X138022237Y-121780006D01*
X138041401Y-122011297D01*
X138041403Y-122011308D01*
X138098379Y-122236300D01*
X138191612Y-122448848D01*
X138318553Y-122643147D01*
X138318556Y-122643151D01*
X138318558Y-122643153D01*
X138475753Y-122813913D01*
X138475756Y-122813915D01*
X138475759Y-122813918D01*
X138658902Y-122956464D01*
X138658908Y-122956468D01*
X138658911Y-122956470D01*
X138826397Y-123047109D01*
X138862189Y-123066479D01*
X138863034Y-123066936D01*
X138977024Y-123106068D01*
X139082552Y-123142297D01*
X139082554Y-123142297D01*
X139082556Y-123142298D01*
X139311488Y-123180500D01*
X139311489Y-123180500D01*
X139543585Y-123180500D01*
X139543586Y-123180500D01*
X139772518Y-123142298D01*
X139992040Y-123066936D01*
X140196163Y-122956470D01*
X140196707Y-122956047D01*
X140257666Y-122908600D01*
X140379321Y-122813913D01*
X140536516Y-122643153D01*
X140573728Y-122586196D01*
X140626874Y-122540839D01*
X140696106Y-122531415D01*
X140759441Y-122560917D01*
X140781346Y-122586196D01*
X140818553Y-122643147D01*
X140818556Y-122643151D01*
X140818558Y-122643153D01*
X140975753Y-122813913D01*
X140975756Y-122813915D01*
X140975759Y-122813918D01*
X141158902Y-122956464D01*
X141158908Y-122956468D01*
X141158911Y-122956470D01*
X141326397Y-123047109D01*
X141362189Y-123066479D01*
X141363034Y-123066936D01*
X141477024Y-123106068D01*
X141582552Y-123142297D01*
X141582554Y-123142297D01*
X141582556Y-123142298D01*
X141811488Y-123180500D01*
X141811489Y-123180500D01*
X142043585Y-123180500D01*
X142043586Y-123180500D01*
X142272518Y-123142298D01*
X142492040Y-123066936D01*
X142696163Y-122956470D01*
X142696707Y-122956047D01*
X142757666Y-122908600D01*
X142879321Y-122813913D01*
X143036516Y-122643153D01*
X143074026Y-122585738D01*
X143127172Y-122540382D01*
X143196403Y-122530958D01*
X143259739Y-122560459D01*
X143274451Y-122577437D01*
X143276348Y-122577634D01*
X143944574Y-121909408D01*
X143961612Y-121972993D01*
X144027438Y-122087007D01*
X144120530Y-122180099D01*
X144234544Y-122245925D01*
X144298127Y-122262962D01*
X143628738Y-122932351D01*
X143659186Y-122956050D01*
X143863234Y-123066476D01*
X143863243Y-123066479D01*
X144082676Y-123141811D01*
X144311530Y-123180000D01*
X144543544Y-123180000D01*
X144772397Y-123141811D01*
X144991830Y-123066479D01*
X144991838Y-123066476D01*
X145195892Y-122956047D01*
X145226334Y-122932351D01*
X145226335Y-122932350D01*
X144556947Y-122262962D01*
X144620530Y-122245925D01*
X144734544Y-122180099D01*
X144827636Y-122087007D01*
X144893462Y-121972993D01*
X144910499Y-121909410D01*
X145578723Y-122577634D01*
X145663021Y-122448606D01*
X145756219Y-122236135D01*
X145813175Y-122011218D01*
X145832335Y-121780005D01*
X145832335Y-121779994D01*
X145832335Y-121779993D01*
X152372237Y-121779993D01*
X152372237Y-121780006D01*
X152391401Y-122011297D01*
X152391403Y-122011308D01*
X152448379Y-122236300D01*
X152541612Y-122448848D01*
X152668553Y-122643147D01*
X152668556Y-122643151D01*
X152668558Y-122643153D01*
X152825753Y-122813913D01*
X152825756Y-122813915D01*
X152825759Y-122813918D01*
X153008902Y-122956464D01*
X153008908Y-122956468D01*
X153008911Y-122956470D01*
X153176397Y-123047109D01*
X153212189Y-123066479D01*
X153213034Y-123066936D01*
X153327024Y-123106068D01*
X153432552Y-123142297D01*
X153432554Y-123142297D01*
X153432556Y-123142298D01*
X153661488Y-123180500D01*
X153661489Y-123180500D01*
X153893585Y-123180500D01*
X153893586Y-123180500D01*
X154122518Y-123142298D01*
X154342040Y-123066936D01*
X154546163Y-122956470D01*
X154546707Y-122956047D01*
X154607666Y-122908600D01*
X154729321Y-122813913D01*
X154886516Y-122643153D01*
X154923728Y-122586196D01*
X154976874Y-122540839D01*
X155046106Y-122531415D01*
X155109441Y-122560917D01*
X155131346Y-122586196D01*
X155168553Y-122643147D01*
X155168556Y-122643151D01*
X155168558Y-122643153D01*
X155325753Y-122813913D01*
X155325756Y-122813915D01*
X155325759Y-122813918D01*
X155508902Y-122956464D01*
X155508908Y-122956468D01*
X155508911Y-122956470D01*
X155676397Y-123047109D01*
X155712189Y-123066479D01*
X155713034Y-123066936D01*
X155827024Y-123106068D01*
X155932552Y-123142297D01*
X155932554Y-123142297D01*
X155932556Y-123142298D01*
X156161488Y-123180500D01*
X156161489Y-123180500D01*
X156393585Y-123180500D01*
X156393586Y-123180500D01*
X156622518Y-123142298D01*
X156842040Y-123066936D01*
X157046163Y-122956470D01*
X157046707Y-122956047D01*
X157107666Y-122908600D01*
X157229321Y-122813913D01*
X157386516Y-122643153D01*
X157424026Y-122585738D01*
X157477172Y-122540382D01*
X157546403Y-122530958D01*
X157609739Y-122560459D01*
X157624451Y-122577437D01*
X157626348Y-122577634D01*
X158294574Y-121909408D01*
X158311612Y-121972993D01*
X158377438Y-122087007D01*
X158470530Y-122180099D01*
X158584544Y-122245925D01*
X158648127Y-122262962D01*
X157978738Y-122932351D01*
X158009186Y-122956050D01*
X158213234Y-123066476D01*
X158213243Y-123066479D01*
X158432676Y-123141811D01*
X158661530Y-123180000D01*
X158893544Y-123180000D01*
X159122397Y-123141811D01*
X159341830Y-123066479D01*
X159341838Y-123066476D01*
X159545892Y-122956047D01*
X159576334Y-122932351D01*
X159576335Y-122932350D01*
X158906947Y-122262962D01*
X158970530Y-122245925D01*
X159084544Y-122180099D01*
X159177636Y-122087007D01*
X159243462Y-121972993D01*
X159260499Y-121909409D01*
X159928723Y-122577634D01*
X160013021Y-122448606D01*
X160106219Y-122236135D01*
X160163175Y-122011218D01*
X160182335Y-121780005D01*
X160182335Y-121779994D01*
X160163175Y-121548781D01*
X160106219Y-121323864D01*
X160013020Y-121111390D01*
X159928723Y-120982364D01*
X159260499Y-121650589D01*
X159243462Y-121587007D01*
X159177636Y-121472993D01*
X159084544Y-121379901D01*
X158970530Y-121314075D01*
X158906946Y-121297037D01*
X159576334Y-120627647D01*
X159576334Y-120627645D01*
X159545897Y-120603955D01*
X159545891Y-120603951D01*
X159341839Y-120493523D01*
X159341830Y-120493520D01*
X159122397Y-120418188D01*
X158893544Y-120380000D01*
X158661530Y-120380000D01*
X158432676Y-120418188D01*
X158213243Y-120493520D01*
X158213234Y-120493523D01*
X158009187Y-120603949D01*
X157978737Y-120627647D01*
X158648128Y-121297037D01*
X158584544Y-121314075D01*
X158470530Y-121379901D01*
X158377438Y-121472993D01*
X158311612Y-121587007D01*
X158294574Y-121650590D01*
X157626348Y-120982364D01*
X157621567Y-120982860D01*
X157578497Y-121019617D01*
X157509266Y-121029041D01*
X157445930Y-120999539D01*
X157424026Y-120974260D01*
X157386520Y-120916852D01*
X157386517Y-120916849D01*
X157386516Y-120916847D01*
X157229321Y-120746087D01*
X157229316Y-120746083D01*
X157229314Y-120746081D01*
X157046171Y-120603535D01*
X157046165Y-120603531D01*
X156842041Y-120493064D01*
X156842032Y-120493061D01*
X156622521Y-120417702D01*
X156450819Y-120389050D01*
X156393586Y-120379500D01*
X156161488Y-120379500D01*
X156115701Y-120387140D01*
X155932552Y-120417702D01*
X155713041Y-120493061D01*
X155713032Y-120493064D01*
X155508908Y-120603531D01*
X155508902Y-120603535D01*
X155325759Y-120746081D01*
X155325756Y-120746084D01*
X155168552Y-120916854D01*
X155131345Y-120973804D01*
X155078199Y-121019161D01*
X155008967Y-121028584D01*
X154945632Y-120999082D01*
X154923729Y-120973804D01*
X154886521Y-120916854D01*
X154886519Y-120916852D01*
X154886516Y-120916847D01*
X154729321Y-120746087D01*
X154729316Y-120746083D01*
X154729314Y-120746081D01*
X154546171Y-120603535D01*
X154546165Y-120603531D01*
X154342041Y-120493064D01*
X154342032Y-120493061D01*
X154122521Y-120417702D01*
X153950819Y-120389050D01*
X153893586Y-120379500D01*
X153661488Y-120379500D01*
X153615701Y-120387140D01*
X153432552Y-120417702D01*
X153213041Y-120493061D01*
X153213032Y-120493064D01*
X153008908Y-120603531D01*
X153008902Y-120603535D01*
X152825759Y-120746081D01*
X152825756Y-120746084D01*
X152668553Y-120916852D01*
X152541612Y-121111151D01*
X152448379Y-121323699D01*
X152391403Y-121548691D01*
X152391401Y-121548702D01*
X152372237Y-121779993D01*
X145832335Y-121779993D01*
X145813175Y-121548781D01*
X145756219Y-121323864D01*
X145663020Y-121111390D01*
X145578723Y-120982364D01*
X144910499Y-121650589D01*
X144893462Y-121587007D01*
X144827636Y-121472993D01*
X144734544Y-121379901D01*
X144620530Y-121314075D01*
X144556946Y-121297037D01*
X145226334Y-120627647D01*
X145226334Y-120627645D01*
X145195897Y-120603955D01*
X145195891Y-120603951D01*
X144991839Y-120493523D01*
X144991830Y-120493520D01*
X144772397Y-120418188D01*
X144543544Y-120380000D01*
X144311530Y-120380000D01*
X144082676Y-120418188D01*
X143863243Y-120493520D01*
X143863234Y-120493523D01*
X143659187Y-120603949D01*
X143628737Y-120627647D01*
X144298128Y-121297037D01*
X144234544Y-121314075D01*
X144120530Y-121379901D01*
X144027438Y-121472993D01*
X143961612Y-121587007D01*
X143944574Y-121650590D01*
X143276348Y-120982364D01*
X143271567Y-120982860D01*
X143228497Y-121019617D01*
X143159266Y-121029041D01*
X143095930Y-120999539D01*
X143074026Y-120974260D01*
X143036520Y-120916852D01*
X143036517Y-120916849D01*
X143036516Y-120916847D01*
X142879321Y-120746087D01*
X142879316Y-120746083D01*
X142879314Y-120746081D01*
X142696171Y-120603535D01*
X142696165Y-120603531D01*
X142492041Y-120493064D01*
X142492032Y-120493061D01*
X142272521Y-120417702D01*
X142100819Y-120389050D01*
X142043586Y-120379500D01*
X141811488Y-120379500D01*
X141765701Y-120387140D01*
X141582552Y-120417702D01*
X141363041Y-120493061D01*
X141363032Y-120493064D01*
X141158908Y-120603531D01*
X141158902Y-120603535D01*
X140975759Y-120746081D01*
X140975756Y-120746084D01*
X140818552Y-120916854D01*
X140781345Y-120973804D01*
X140728199Y-121019161D01*
X140658967Y-121028584D01*
X140595632Y-120999082D01*
X140573729Y-120973804D01*
X140536521Y-120916854D01*
X140536519Y-120916852D01*
X140536516Y-120916847D01*
X140379321Y-120746087D01*
X140379316Y-120746083D01*
X140379314Y-120746081D01*
X140196171Y-120603535D01*
X140196165Y-120603531D01*
X139992041Y-120493064D01*
X139992032Y-120493061D01*
X139772521Y-120417702D01*
X139600819Y-120389050D01*
X139543586Y-120379500D01*
X139311488Y-120379500D01*
X139265701Y-120387140D01*
X139082552Y-120417702D01*
X138863041Y-120493061D01*
X138863032Y-120493064D01*
X138658908Y-120603531D01*
X138658902Y-120603535D01*
X138475759Y-120746081D01*
X138475756Y-120746084D01*
X138318553Y-120916852D01*
X138191612Y-121111151D01*
X138098379Y-121323699D01*
X138041403Y-121548691D01*
X138041401Y-121548702D01*
X138022237Y-121779993D01*
X132470373Y-121779993D01*
X132470373Y-114673713D01*
X136177037Y-114673713D01*
X136177037Y-114886286D01*
X136210290Y-115096239D01*
X136275981Y-115298414D01*
X136372488Y-115487820D01*
X136497427Y-115659786D01*
X136647750Y-115810109D01*
X136819716Y-115935048D01*
X136819718Y-115935049D01*
X136819721Y-115935051D01*
X137009125Y-116031557D01*
X137211294Y-116097246D01*
X137421250Y-116130500D01*
X137421251Y-116130500D01*
X137633823Y-116130500D01*
X137633824Y-116130500D01*
X137843780Y-116097246D01*
X138045949Y-116031557D01*
X138235353Y-115935051D01*
X138257326Y-115919086D01*
X138407323Y-115810109D01*
X138407325Y-115810106D01*
X138407329Y-115810104D01*
X138557641Y-115659792D01*
X138557643Y-115659788D01*
X138557646Y-115659786D01*
X138682585Y-115487820D01*
X138682584Y-115487820D01*
X138682588Y-115487816D01*
X138779094Y-115298412D01*
X138844783Y-115096243D01*
X138878037Y-114886287D01*
X138878037Y-114673713D01*
X144977037Y-114673713D01*
X144977037Y-114886286D01*
X145010290Y-115096239D01*
X145075981Y-115298414D01*
X145172488Y-115487820D01*
X145297427Y-115659786D01*
X145447750Y-115810109D01*
X145619716Y-115935048D01*
X145619718Y-115935049D01*
X145619721Y-115935051D01*
X145809125Y-116031557D01*
X146011294Y-116097246D01*
X146221250Y-116130500D01*
X146221251Y-116130500D01*
X146433823Y-116130500D01*
X146433824Y-116130500D01*
X146643780Y-116097246D01*
X146845949Y-116031557D01*
X147035353Y-115935051D01*
X147057326Y-115919086D01*
X147207323Y-115810109D01*
X147207325Y-115810106D01*
X147207329Y-115810104D01*
X147357641Y-115659792D01*
X147357643Y-115659788D01*
X147357646Y-115659786D01*
X147482585Y-115487820D01*
X147482584Y-115487820D01*
X147482588Y-115487816D01*
X147579094Y-115298412D01*
X147644783Y-115096243D01*
X147678037Y-114886287D01*
X147678037Y-114673713D01*
X150527037Y-114673713D01*
X150527037Y-114886286D01*
X150560290Y-115096239D01*
X150625981Y-115298414D01*
X150722488Y-115487820D01*
X150847427Y-115659786D01*
X150997750Y-115810109D01*
X151169716Y-115935048D01*
X151169718Y-115935049D01*
X151169721Y-115935051D01*
X151359125Y-116031557D01*
X151561294Y-116097246D01*
X151771250Y-116130500D01*
X151771251Y-116130500D01*
X151983823Y-116130500D01*
X151983824Y-116130500D01*
X152193780Y-116097246D01*
X152395949Y-116031557D01*
X152585353Y-115935051D01*
X152607326Y-115919086D01*
X152757323Y-115810109D01*
X152757325Y-115810106D01*
X152757329Y-115810104D01*
X152907641Y-115659792D01*
X152907643Y-115659788D01*
X152907646Y-115659786D01*
X153032585Y-115487820D01*
X153032584Y-115487820D01*
X153032588Y-115487816D01*
X153129094Y-115298412D01*
X153194783Y-115096243D01*
X153228037Y-114886287D01*
X153228037Y-114673713D01*
X159327037Y-114673713D01*
X159327037Y-114886286D01*
X159360290Y-115096239D01*
X159425981Y-115298414D01*
X159522488Y-115487820D01*
X159647427Y-115659786D01*
X159797750Y-115810109D01*
X159969716Y-115935048D01*
X159969718Y-115935049D01*
X159969721Y-115935051D01*
X160159125Y-116031557D01*
X160361294Y-116097246D01*
X160571250Y-116130500D01*
X160571251Y-116130500D01*
X160783823Y-116130500D01*
X160783824Y-116130500D01*
X160993780Y-116097246D01*
X161195949Y-116031557D01*
X161385353Y-115935051D01*
X161407326Y-115919086D01*
X161557323Y-115810109D01*
X161557325Y-115810106D01*
X161557329Y-115810104D01*
X161707641Y-115659792D01*
X161707643Y-115659788D01*
X161707646Y-115659786D01*
X161832585Y-115487820D01*
X161832584Y-115487820D01*
X161832588Y-115487816D01*
X161929094Y-115298412D01*
X161994783Y-115096243D01*
X162028037Y-114886287D01*
X162028037Y-114673713D01*
X161994783Y-114463757D01*
X161929094Y-114261588D01*
X161832588Y-114072184D01*
X161832586Y-114072181D01*
X161832585Y-114072179D01*
X161707646Y-113900213D01*
X161557323Y-113749890D01*
X161385357Y-113624951D01*
X161195951Y-113528444D01*
X161195950Y-113528443D01*
X161195949Y-113528443D01*
X160993780Y-113462754D01*
X160993778Y-113462753D01*
X160993777Y-113462753D01*
X160832494Y-113437208D01*
X160783824Y-113429500D01*
X160571250Y-113429500D01*
X160522579Y-113437208D01*
X160361297Y-113462753D01*
X160159122Y-113528444D01*
X159969716Y-113624951D01*
X159797750Y-113749890D01*
X159647427Y-113900213D01*
X159522488Y-114072179D01*
X159425981Y-114261585D01*
X159360290Y-114463760D01*
X159327037Y-114673713D01*
X153228037Y-114673713D01*
X153194783Y-114463757D01*
X153129094Y-114261588D01*
X153032588Y-114072184D01*
X153032586Y-114072181D01*
X153032585Y-114072179D01*
X152907646Y-113900213D01*
X152757323Y-113749890D01*
X152585357Y-113624951D01*
X152395951Y-113528444D01*
X152395950Y-113528443D01*
X152395949Y-113528443D01*
X152193780Y-113462754D01*
X152193778Y-113462753D01*
X152193777Y-113462753D01*
X152032494Y-113437208D01*
X151983824Y-113429500D01*
X151771250Y-113429500D01*
X151722579Y-113437208D01*
X151561297Y-113462753D01*
X151359122Y-113528444D01*
X151169716Y-113624951D01*
X150997750Y-113749890D01*
X150847427Y-113900213D01*
X150722488Y-114072179D01*
X150625981Y-114261585D01*
X150560290Y-114463760D01*
X150527037Y-114673713D01*
X147678037Y-114673713D01*
X147644783Y-114463757D01*
X147579094Y-114261588D01*
X147482588Y-114072184D01*
X147482586Y-114072181D01*
X147482585Y-114072179D01*
X147357646Y-113900213D01*
X147207323Y-113749890D01*
X147035357Y-113624951D01*
X146845951Y-113528444D01*
X146845950Y-113528443D01*
X146845949Y-113528443D01*
X146643780Y-113462754D01*
X146643778Y-113462753D01*
X146643777Y-113462753D01*
X146482494Y-113437208D01*
X146433824Y-113429500D01*
X146221250Y-113429500D01*
X146172579Y-113437208D01*
X146011297Y-113462753D01*
X145809122Y-113528444D01*
X145619716Y-113624951D01*
X145447750Y-113749890D01*
X145297427Y-113900213D01*
X145172488Y-114072179D01*
X145075981Y-114261585D01*
X145010290Y-114463760D01*
X144977037Y-114673713D01*
X138878037Y-114673713D01*
X138844783Y-114463757D01*
X138779094Y-114261588D01*
X138682588Y-114072184D01*
X138682586Y-114072181D01*
X138682585Y-114072179D01*
X138557646Y-113900213D01*
X138407323Y-113749890D01*
X138235357Y-113624951D01*
X138045951Y-113528444D01*
X138045950Y-113528443D01*
X138045949Y-113528443D01*
X137843780Y-113462754D01*
X137843778Y-113462753D01*
X137843777Y-113462753D01*
X137682494Y-113437208D01*
X137633824Y-113429500D01*
X137421250Y-113429500D01*
X137372579Y-113437208D01*
X137211297Y-113462753D01*
X137009122Y-113528444D01*
X136819716Y-113624951D01*
X136647750Y-113749890D01*
X136497427Y-113900213D01*
X136372488Y-114072179D01*
X136275981Y-114261585D01*
X136210290Y-114463760D01*
X136177037Y-114673713D01*
X132470373Y-114673713D01*
X132470373Y-106279996D01*
X143771972Y-106279996D01*
X143771972Y-106280003D01*
X143792167Y-106459249D01*
X143792168Y-106459254D01*
X143851748Y-106629523D01*
X143942537Y-106774011D01*
X143947721Y-106782262D01*
X144075275Y-106909816D01*
X144228015Y-107005789D01*
X144398282Y-107065368D01*
X144398287Y-107065369D01*
X144577533Y-107085565D01*
X144577537Y-107085565D01*
X144577541Y-107085565D01*
X144756786Y-107065369D01*
X144756789Y-107065368D01*
X144756792Y-107065368D01*
X144927059Y-107005789D01*
X145079799Y-106909816D01*
X145124856Y-106864759D01*
X145186179Y-106831274D01*
X145255871Y-106836258D01*
X145300218Y-106864759D01*
X145345275Y-106909816D01*
X145498015Y-107005789D01*
X145668282Y-107065368D01*
X145668287Y-107065369D01*
X145847533Y-107085565D01*
X145847537Y-107085565D01*
X145847541Y-107085565D01*
X146026786Y-107065369D01*
X146026789Y-107065368D01*
X146026792Y-107065368D01*
X146197059Y-107005789D01*
X146349799Y-106909816D01*
X146477353Y-106782262D01*
X146573326Y-106629522D01*
X146632905Y-106459255D01*
X146653102Y-106280000D01*
X146632905Y-106100745D01*
X146573326Y-105930478D01*
X146477353Y-105777738D01*
X146349799Y-105650184D01*
X146197060Y-105554211D01*
X146026791Y-105494631D01*
X146026786Y-105494630D01*
X145847541Y-105474435D01*
X145847533Y-105474435D01*
X145668287Y-105494630D01*
X145668282Y-105494631D01*
X145498013Y-105554211D01*
X145345274Y-105650184D01*
X145300217Y-105695241D01*
X145238894Y-105728725D01*
X145169202Y-105723740D01*
X145124857Y-105695241D01*
X145079800Y-105650185D01*
X145079799Y-105650184D01*
X144927060Y-105554211D01*
X144756791Y-105494631D01*
X144756786Y-105494630D01*
X144577541Y-105474435D01*
X144577533Y-105474435D01*
X144398287Y-105494630D01*
X144398282Y-105494631D01*
X144228013Y-105554211D01*
X144075274Y-105650184D01*
X143947721Y-105777737D01*
X143851748Y-105930476D01*
X143792168Y-106100745D01*
X143792167Y-106100750D01*
X143771972Y-106279996D01*
X132470373Y-106279996D01*
X132470373Y-101279996D01*
X146414308Y-101279996D01*
X146414308Y-101280003D01*
X146434503Y-101459249D01*
X146434504Y-101459254D01*
X146494084Y-101629523D01*
X146590057Y-101782262D01*
X146717611Y-101909816D01*
X146870351Y-102005789D01*
X147040618Y-102065368D01*
X147040623Y-102065369D01*
X147219869Y-102085565D01*
X147219873Y-102085565D01*
X147219877Y-102085565D01*
X147399122Y-102065369D01*
X147399125Y-102065368D01*
X147399128Y-102065368D01*
X147569395Y-102005789D01*
X147722135Y-101909816D01*
X147849689Y-101782262D01*
X147945662Y-101629522D01*
X148005241Y-101459255D01*
X148025438Y-101280000D01*
X148025438Y-101279996D01*
X152664308Y-101279996D01*
X152664308Y-101280003D01*
X152684503Y-101459249D01*
X152684504Y-101459254D01*
X152744084Y-101629523D01*
X152840057Y-101782262D01*
X152967611Y-101909816D01*
X153120351Y-102005789D01*
X153290618Y-102065368D01*
X153290623Y-102065369D01*
X153469869Y-102085565D01*
X153469873Y-102085565D01*
X153469877Y-102085565D01*
X153649122Y-102065369D01*
X153649125Y-102065368D01*
X153649128Y-102065368D01*
X153819395Y-102005789D01*
X153972135Y-101909816D01*
X154099689Y-101782262D01*
X154195662Y-101629522D01*
X154255241Y-101459255D01*
X154275438Y-101280000D01*
X154255241Y-101100745D01*
X154195662Y-100930478D01*
X154099689Y-100777738D01*
X153972135Y-100650184D01*
X153819396Y-100554211D01*
X153649127Y-100494631D01*
X153649122Y-100494630D01*
X153469877Y-100474435D01*
X153469869Y-100474435D01*
X153290623Y-100494630D01*
X153290618Y-100494631D01*
X153120349Y-100554211D01*
X152967610Y-100650184D01*
X152840057Y-100777737D01*
X152744084Y-100930476D01*
X152684504Y-101100745D01*
X152684503Y-101100750D01*
X152664308Y-101279996D01*
X148025438Y-101279996D01*
X148005241Y-101100745D01*
X147945662Y-100930478D01*
X147849689Y-100777738D01*
X147722135Y-100650184D01*
X147569396Y-100554211D01*
X147399127Y-100494631D01*
X147399122Y-100494630D01*
X147219877Y-100474435D01*
X147219869Y-100474435D01*
X147040623Y-100494630D01*
X147040618Y-100494631D01*
X146870349Y-100554211D01*
X146717610Y-100650184D01*
X146590057Y-100777737D01*
X146494084Y-100930476D01*
X146434504Y-101100745D01*
X146434503Y-101100750D01*
X146414308Y-101279996D01*
X132470373Y-101279996D01*
X132470373Y-77639999D01*
X134444341Y-77639999D01*
X134444341Y-77640000D01*
X134464936Y-77875403D01*
X134464938Y-77875413D01*
X134526094Y-78103655D01*
X134526096Y-78103659D01*
X134526097Y-78103663D01*
X134585663Y-78231402D01*
X134625965Y-78317830D01*
X134625967Y-78317834D01*
X134761501Y-78511395D01*
X134761506Y-78511402D01*
X134928597Y-78678493D01*
X134928603Y-78678498D01*
X135114158Y-78808425D01*
X135157783Y-78863002D01*
X135164977Y-78932500D01*
X135133454Y-78994855D01*
X135114158Y-79011575D01*
X134928597Y-79141505D01*
X134761505Y-79308597D01*
X134625965Y-79502169D01*
X134625964Y-79502171D01*
X134526098Y-79716335D01*
X134526094Y-79716344D01*
X134464938Y-79944586D01*
X134464936Y-79944596D01*
X134444341Y-80179999D01*
X134444341Y-80180000D01*
X134464936Y-80415403D01*
X134464938Y-80415413D01*
X134526094Y-80643655D01*
X134526096Y-80643659D01*
X134526097Y-80643663D01*
X134598776Y-80799523D01*
X134625965Y-80857830D01*
X134625967Y-80857834D01*
X134761501Y-81051395D01*
X134761506Y-81051402D01*
X134928597Y-81218493D01*
X134928603Y-81218498D01*
X135114158Y-81348425D01*
X135157783Y-81403002D01*
X135164977Y-81472500D01*
X135133454Y-81534855D01*
X135114158Y-81551575D01*
X134928597Y-81681505D01*
X134761505Y-81848597D01*
X134625965Y-82042169D01*
X134625964Y-82042171D01*
X134526098Y-82256335D01*
X134526094Y-82256344D01*
X134464938Y-82484586D01*
X134464936Y-82484596D01*
X134444341Y-82719999D01*
X134444341Y-82720000D01*
X134464936Y-82955403D01*
X134464938Y-82955413D01*
X134526094Y-83183655D01*
X134526096Y-83183659D01*
X134526097Y-83183663D01*
X134585663Y-83311402D01*
X134625965Y-83397830D01*
X134625967Y-83397834D01*
X134761501Y-83591395D01*
X134761506Y-83591402D01*
X134928597Y-83758493D01*
X134928603Y-83758498D01*
X135114158Y-83888425D01*
X135157783Y-83943002D01*
X135164977Y-84012500D01*
X135133454Y-84074855D01*
X135114158Y-84091575D01*
X134928597Y-84221505D01*
X134761505Y-84388597D01*
X134625965Y-84582169D01*
X134625964Y-84582171D01*
X134526098Y-84796335D01*
X134526094Y-84796344D01*
X134464938Y-85024586D01*
X134464936Y-85024596D01*
X134444341Y-85259999D01*
X134444341Y-85260000D01*
X134464936Y-85495403D01*
X134464938Y-85495413D01*
X134526094Y-85723655D01*
X134526096Y-85723659D01*
X134526097Y-85723663D01*
X134585663Y-85851402D01*
X134625965Y-85937830D01*
X134625967Y-85937834D01*
X134682446Y-86018493D01*
X134760189Y-86129522D01*
X134761501Y-86131395D01*
X134761506Y-86131402D01*
X134928597Y-86298493D01*
X134928603Y-86298498D01*
X135114158Y-86428425D01*
X135157783Y-86483002D01*
X135164977Y-86552500D01*
X135133454Y-86614855D01*
X135114158Y-86631575D01*
X134928597Y-86761505D01*
X134761505Y-86928597D01*
X134625965Y-87122169D01*
X134625964Y-87122171D01*
X134526098Y-87336335D01*
X134526094Y-87336344D01*
X134464938Y-87564586D01*
X134464936Y-87564596D01*
X134444341Y-87799999D01*
X134444341Y-87800000D01*
X134464936Y-88035403D01*
X134464938Y-88035413D01*
X134526094Y-88263655D01*
X134526096Y-88263659D01*
X134526097Y-88263663D01*
X134617564Y-88459815D01*
X134625965Y-88477830D01*
X134625967Y-88477834D01*
X134761501Y-88671395D01*
X134761506Y-88671402D01*
X134928597Y-88838493D01*
X134928603Y-88838498D01*
X135114158Y-88968425D01*
X135157783Y-89023002D01*
X135164977Y-89092500D01*
X135133454Y-89154855D01*
X135114158Y-89171575D01*
X134928597Y-89301505D01*
X134761505Y-89468597D01*
X134625965Y-89662169D01*
X134625964Y-89662171D01*
X134526098Y-89876335D01*
X134526094Y-89876344D01*
X134464938Y-90104586D01*
X134464936Y-90104596D01*
X134444341Y-90339999D01*
X134444341Y-90340000D01*
X134464936Y-90575403D01*
X134464938Y-90575413D01*
X134526094Y-90803655D01*
X134526096Y-90803659D01*
X134526097Y-90803663D01*
X134625965Y-91017830D01*
X134625967Y-91017834D01*
X134734281Y-91172521D01*
X134761505Y-91211401D01*
X134928599Y-91378495D01*
X135025384Y-91446265D01*
X135122165Y-91514032D01*
X135122167Y-91514033D01*
X135122170Y-91514035D01*
X135336337Y-91613903D01*
X135564592Y-91675063D01*
X135752918Y-91691539D01*
X135799999Y-91695659D01*
X135800000Y-91695659D01*
X135800001Y-91695659D01*
X135839234Y-91692226D01*
X136035408Y-91675063D01*
X136263663Y-91613903D01*
X136477830Y-91514035D01*
X136671401Y-91378495D01*
X136838495Y-91211401D01*
X136974035Y-91017830D01*
X137073903Y-90803663D01*
X137135063Y-90575408D01*
X137155659Y-90340000D01*
X137135063Y-90104592D01*
X137073903Y-89876337D01*
X136974035Y-89662171D01*
X136838495Y-89468599D01*
X136838494Y-89468597D01*
X136671402Y-89301506D01*
X136671396Y-89301501D01*
X136485842Y-89171575D01*
X136442217Y-89116998D01*
X136435023Y-89047500D01*
X136466546Y-88985145D01*
X136485842Y-88968425D01*
X136647742Y-88855061D01*
X136671401Y-88838495D01*
X136838495Y-88671401D01*
X136974035Y-88477830D01*
X137073903Y-88263663D01*
X137135063Y-88035408D01*
X137153035Y-87829996D01*
X156439308Y-87829996D01*
X156439308Y-87830003D01*
X156459503Y-88009249D01*
X156459504Y-88009254D01*
X156519084Y-88179523D01*
X156530590Y-88197834D01*
X156615057Y-88332262D01*
X156742611Y-88459816D01*
X156804627Y-88498783D01*
X156850918Y-88551118D01*
X156861566Y-88620171D01*
X156833191Y-88684020D01*
X156826337Y-88691458D01*
X156740056Y-88777739D01*
X156644084Y-88930476D01*
X156584504Y-89100745D01*
X156584503Y-89100750D01*
X156564308Y-89279996D01*
X156564308Y-89280003D01*
X156584503Y-89459249D01*
X156584504Y-89459254D01*
X156644084Y-89629523D01*
X156740057Y-89782262D01*
X156867611Y-89909816D01*
X157020351Y-90005789D01*
X157190618Y-90065368D01*
X157190623Y-90065369D01*
X157369869Y-90085565D01*
X157369873Y-90085565D01*
X157369877Y-90085565D01*
X157549122Y-90065369D01*
X157549125Y-90065368D01*
X157549128Y-90065368D01*
X157719395Y-90005789D01*
X157872135Y-89909816D01*
X157999689Y-89782262D01*
X158095662Y-89629522D01*
X158155241Y-89459255D01*
X158173015Y-89301505D01*
X158175438Y-89280003D01*
X158175438Y-89279996D01*
X158155242Y-89100750D01*
X158155241Y-89100745D01*
X158136610Y-89047500D01*
X158095662Y-88930478D01*
X157999689Y-88777738D01*
X157872135Y-88650184D01*
X157872129Y-88650179D01*
X157810118Y-88611215D01*
X157763827Y-88558881D01*
X157753179Y-88489827D01*
X157781554Y-88425979D01*
X157788385Y-88418565D01*
X157874689Y-88332262D01*
X157970662Y-88179522D01*
X158030241Y-88009255D01*
X158030242Y-88009249D01*
X158050438Y-87830003D01*
X158050438Y-87829996D01*
X158030242Y-87650750D01*
X158030241Y-87650745D01*
X157970661Y-87480476D01*
X157931455Y-87418080D01*
X157874689Y-87327738D01*
X157747135Y-87200184D01*
X157594396Y-87104211D01*
X157424127Y-87044631D01*
X157424122Y-87044630D01*
X157244877Y-87024435D01*
X157244869Y-87024435D01*
X157065623Y-87044630D01*
X157065618Y-87044631D01*
X156895349Y-87104211D01*
X156742610Y-87200184D01*
X156615057Y-87327737D01*
X156519084Y-87480476D01*
X156459504Y-87650745D01*
X156459503Y-87650750D01*
X156439308Y-87829996D01*
X137153035Y-87829996D01*
X137155659Y-87800000D01*
X137135063Y-87564592D01*
X137073903Y-87336337D01*
X136974035Y-87122171D01*
X136961460Y-87104211D01*
X136838494Y-86928597D01*
X136671402Y-86761506D01*
X136671396Y-86761501D01*
X136485842Y-86631575D01*
X136442217Y-86576998D01*
X136435023Y-86507500D01*
X136466546Y-86445145D01*
X136485842Y-86428425D01*
X136512420Y-86409815D01*
X136671401Y-86298495D01*
X136838495Y-86131401D01*
X136974035Y-85937830D01*
X137070950Y-85729996D01*
X150314308Y-85729996D01*
X150314308Y-85730003D01*
X150334503Y-85909249D01*
X150334504Y-85909254D01*
X150394084Y-86079523D01*
X150471672Y-86203002D01*
X150490057Y-86232262D01*
X150617611Y-86359816D01*
X150770351Y-86455789D01*
X150913240Y-86505788D01*
X150940618Y-86515368D01*
X150940623Y-86515369D01*
X151119869Y-86535565D01*
X151119873Y-86535565D01*
X151119877Y-86535565D01*
X151299122Y-86515369D01*
X151299125Y-86515368D01*
X151299128Y-86515368D01*
X151469395Y-86455789D01*
X151622135Y-86359816D01*
X151749689Y-86232262D01*
X151845662Y-86079522D01*
X151905241Y-85909255D01*
X151905242Y-85909249D01*
X151919805Y-85779996D01*
X152914308Y-85779996D01*
X152914308Y-85780003D01*
X152934503Y-85959249D01*
X152934504Y-85959254D01*
X152994084Y-86129523D01*
X153058640Y-86232262D01*
X153090057Y-86282262D01*
X153217611Y-86409816D01*
X153370351Y-86505789D01*
X153540618Y-86565368D01*
X153540623Y-86565369D01*
X153719869Y-86585565D01*
X153719873Y-86585565D01*
X153719877Y-86585565D01*
X153899122Y-86565369D01*
X153899125Y-86565368D01*
X153899128Y-86565368D01*
X154069395Y-86505789D01*
X154222135Y-86409816D01*
X154349689Y-86282262D01*
X154445662Y-86129522D01*
X154505241Y-85959255D01*
X154510875Y-85909254D01*
X154525438Y-85780003D01*
X154525438Y-85779996D01*
X154505242Y-85600750D01*
X154505241Y-85600745D01*
X154450276Y-85443664D01*
X154445662Y-85430478D01*
X154349689Y-85277738D01*
X154222135Y-85150184D01*
X154142561Y-85100184D01*
X154069396Y-85054211D01*
X153899127Y-84994631D01*
X153899122Y-84994630D01*
X153719877Y-84974435D01*
X153719869Y-84974435D01*
X153540623Y-84994630D01*
X153540618Y-84994631D01*
X153370349Y-85054211D01*
X153217610Y-85150184D01*
X153090057Y-85277737D01*
X152994084Y-85430476D01*
X152934504Y-85600745D01*
X152934503Y-85600750D01*
X152914308Y-85779996D01*
X151919805Y-85779996D01*
X151925438Y-85730003D01*
X151925438Y-85729996D01*
X151905242Y-85550750D01*
X151905241Y-85550745D01*
X151867771Y-85443663D01*
X151845662Y-85380478D01*
X151749689Y-85227738D01*
X151622135Y-85100184D01*
X151469396Y-85004211D01*
X151299127Y-84944631D01*
X151299122Y-84944630D01*
X151119877Y-84924435D01*
X151119869Y-84924435D01*
X150940623Y-84944630D01*
X150940618Y-84944631D01*
X150770349Y-85004211D01*
X150617610Y-85100184D01*
X150490057Y-85227737D01*
X150394084Y-85380476D01*
X150334504Y-85550745D01*
X150334503Y-85550750D01*
X150314308Y-85729996D01*
X137070950Y-85729996D01*
X137073903Y-85723663D01*
X137135063Y-85495408D01*
X137155659Y-85260000D01*
X137135063Y-85024592D01*
X137073903Y-84796337D01*
X136974035Y-84582171D01*
X136927937Y-84516335D01*
X136838494Y-84388597D01*
X136671402Y-84221506D01*
X136671396Y-84221501D01*
X136540712Y-84129995D01*
X147689308Y-84129995D01*
X147689308Y-84130003D01*
X147709503Y-84309249D01*
X147709504Y-84309254D01*
X147769084Y-84479523D01*
X147833581Y-84582169D01*
X147865057Y-84632262D01*
X147992611Y-84759816D01*
X148145351Y-84855789D01*
X148315618Y-84915368D01*
X148315623Y-84915369D01*
X148494869Y-84935565D01*
X148494873Y-84935565D01*
X148494877Y-84935565D01*
X148674122Y-84915369D01*
X148674125Y-84915368D01*
X148674128Y-84915368D01*
X148844395Y-84855789D01*
X148997135Y-84759816D01*
X149057485Y-84699465D01*
X149118804Y-84665983D01*
X149188496Y-84670967D01*
X149233719Y-84703751D01*
X149235133Y-84702338D01*
X149240057Y-84707262D01*
X149367611Y-84834816D01*
X149457953Y-84891582D01*
X149510238Y-84924435D01*
X149520351Y-84930789D01*
X149645084Y-84974435D01*
X149690618Y-84990368D01*
X149690623Y-84990369D01*
X149869869Y-85010565D01*
X149869873Y-85010565D01*
X149869877Y-85010565D01*
X150049122Y-84990369D01*
X150049125Y-84990368D01*
X150049128Y-84990368D01*
X150219395Y-84930789D01*
X150372135Y-84834816D01*
X150499689Y-84707262D01*
X150595662Y-84554522D01*
X150655241Y-84384255D01*
X150655242Y-84384249D01*
X150675438Y-84205003D01*
X150675438Y-84204996D01*
X150655242Y-84025750D01*
X150655241Y-84025745D01*
X150613041Y-83905145D01*
X150595662Y-83855478D01*
X150499689Y-83702738D01*
X150372135Y-83575184D01*
X150372133Y-83575183D01*
X150219396Y-83479211D01*
X150049127Y-83419631D01*
X150049122Y-83419630D01*
X149869877Y-83399435D01*
X149869869Y-83399435D01*
X149690623Y-83419630D01*
X149690618Y-83419631D01*
X149520349Y-83479211D01*
X149367612Y-83575183D01*
X149307263Y-83635532D01*
X149245939Y-83669016D01*
X149176248Y-83664031D01*
X149131027Y-83631247D01*
X149129613Y-83632662D01*
X148997135Y-83500184D01*
X148844396Y-83404211D01*
X148674127Y-83344631D01*
X148674122Y-83344630D01*
X148494877Y-83324435D01*
X148494869Y-83324435D01*
X148315623Y-83344630D01*
X148315618Y-83344631D01*
X148145349Y-83404211D01*
X147992610Y-83500184D01*
X147865057Y-83627737D01*
X147769084Y-83780476D01*
X147709504Y-83950745D01*
X147709503Y-83950750D01*
X147689308Y-84129995D01*
X136540712Y-84129995D01*
X136485842Y-84091575D01*
X136442217Y-84036998D01*
X136435023Y-83967500D01*
X136466546Y-83905145D01*
X136485842Y-83888425D01*
X136595595Y-83811575D01*
X136671401Y-83758495D01*
X136838495Y-83591401D01*
X136974035Y-83397830D01*
X137073903Y-83183663D01*
X137135063Y-82955408D01*
X137155659Y-82720000D01*
X137135063Y-82484592D01*
X137073903Y-82256337D01*
X136974035Y-82042171D01*
X136927937Y-81976335D01*
X136838494Y-81848597D01*
X136671402Y-81681506D01*
X136671396Y-81681501D01*
X136485842Y-81551575D01*
X136442217Y-81496998D01*
X136435023Y-81427500D01*
X136466546Y-81365145D01*
X136485842Y-81348425D01*
X136595595Y-81271575D01*
X136671401Y-81218495D01*
X136838495Y-81051401D01*
X136853483Y-81029996D01*
X151664308Y-81029996D01*
X151664308Y-81030003D01*
X151684503Y-81209249D01*
X151684504Y-81209254D01*
X151744084Y-81379523D01*
X151788368Y-81450000D01*
X151840057Y-81532262D01*
X151967611Y-81659816D01*
X152120351Y-81755789D01*
X152138590Y-81762171D01*
X152290618Y-81815368D01*
X152290623Y-81815369D01*
X152469869Y-81835565D01*
X152469873Y-81835565D01*
X152469877Y-81835565D01*
X152649122Y-81815369D01*
X152649125Y-81815368D01*
X152649128Y-81815368D01*
X152819395Y-81755789D01*
X152972135Y-81659816D01*
X153099689Y-81532262D01*
X153190627Y-81387535D01*
X153242961Y-81341245D01*
X153312014Y-81330597D01*
X153336575Y-81336466D01*
X153490618Y-81390368D01*
X153490623Y-81390369D01*
X153669869Y-81410565D01*
X153669873Y-81410565D01*
X153669877Y-81410565D01*
X153849122Y-81390369D01*
X153849125Y-81390368D01*
X153849128Y-81390368D01*
X154019395Y-81330789D01*
X154172135Y-81234816D01*
X154299689Y-81107262D01*
X154395662Y-80954522D01*
X154406238Y-80924294D01*
X154446957Y-80867520D01*
X154509397Y-80842027D01*
X154524128Y-80840368D01*
X154694395Y-80780789D01*
X154847135Y-80684816D01*
X154974689Y-80557262D01*
X155042089Y-80449996D01*
X160144435Y-80449996D01*
X160144435Y-80450003D01*
X160164630Y-80629249D01*
X160164631Y-80629254D01*
X160224211Y-80799523D01*
X160256400Y-80850751D01*
X160320184Y-80952262D01*
X160447738Y-81079816D01*
X160600478Y-81175789D01*
X160769165Y-81234815D01*
X160770745Y-81235368D01*
X160770750Y-81235369D01*
X160949996Y-81255565D01*
X160950000Y-81255565D01*
X160950004Y-81255565D01*
X161129249Y-81235369D01*
X161129252Y-81235368D01*
X161129255Y-81235368D01*
X161299522Y-81175789D01*
X161452262Y-81079816D01*
X161579816Y-80952262D01*
X161675789Y-80799522D01*
X161735368Y-80629255D01*
X161746806Y-80527738D01*
X161755565Y-80450003D01*
X161755565Y-80449996D01*
X161735369Y-80270750D01*
X161735368Y-80270745D01*
X161703615Y-80180000D01*
X161675789Y-80100478D01*
X161579816Y-79947738D01*
X161452262Y-79820184D01*
X161299523Y-79724211D01*
X161129254Y-79664631D01*
X161129249Y-79664630D01*
X160950004Y-79644435D01*
X160949996Y-79644435D01*
X160770750Y-79664630D01*
X160770745Y-79664631D01*
X160600476Y-79724211D01*
X160447737Y-79820184D01*
X160320184Y-79947737D01*
X160224211Y-80100476D01*
X160164631Y-80270745D01*
X160164630Y-80270750D01*
X160144435Y-80449996D01*
X155042089Y-80449996D01*
X155070662Y-80404522D01*
X155130241Y-80234255D01*
X155130242Y-80234249D01*
X155150438Y-80055003D01*
X155150438Y-80054996D01*
X155130242Y-79875750D01*
X155130241Y-79875745D01*
X155110606Y-79819632D01*
X155070662Y-79705478D01*
X155070659Y-79705474D01*
X154974688Y-79552737D01*
X154847135Y-79425184D01*
X154694396Y-79329211D01*
X154524127Y-79269631D01*
X154524122Y-79269630D01*
X154344877Y-79249435D01*
X154344869Y-79249435D01*
X154165623Y-79269630D01*
X154165618Y-79269631D01*
X153995349Y-79329211D01*
X153842610Y-79425184D01*
X153715057Y-79552737D01*
X153619085Y-79705474D01*
X153608506Y-79735708D01*
X153567783Y-79792483D01*
X153505352Y-79817971D01*
X153490622Y-79819630D01*
X153320351Y-79879210D01*
X153167610Y-79975184D01*
X153040057Y-80102737D01*
X152949119Y-80247464D01*
X152896784Y-80293755D01*
X152827730Y-80304403D01*
X152803170Y-80298533D01*
X152649135Y-80244633D01*
X152649122Y-80244630D01*
X152469877Y-80224435D01*
X152469869Y-80224435D01*
X152290623Y-80244630D01*
X152290618Y-80244631D01*
X152120349Y-80304211D01*
X151967610Y-80400184D01*
X151840057Y-80527737D01*
X151744084Y-80680476D01*
X151684504Y-80850745D01*
X151684503Y-80850750D01*
X151664308Y-81029996D01*
X136853483Y-81029996D01*
X136974035Y-80857830D01*
X137073903Y-80643663D01*
X137135063Y-80415408D01*
X137155659Y-80180000D01*
X137135063Y-79944592D01*
X137073903Y-79716337D01*
X136974035Y-79502171D01*
X136927937Y-79436335D01*
X136838494Y-79308597D01*
X136671402Y-79141506D01*
X136671396Y-79141501D01*
X136485842Y-79011575D01*
X136442217Y-78956998D01*
X136435023Y-78887500D01*
X136466546Y-78825145D01*
X136485842Y-78808425D01*
X136595595Y-78731575D01*
X136671401Y-78678495D01*
X136838495Y-78511401D01*
X136974035Y-78317830D01*
X137073903Y-78103663D01*
X137135063Y-77875408D01*
X137155659Y-77640000D01*
X137135063Y-77404592D01*
X137073903Y-77176337D01*
X136974035Y-76962171D01*
X136927936Y-76896335D01*
X136838496Y-76768600D01*
X136838495Y-76768599D01*
X136716567Y-76646671D01*
X136683084Y-76585351D01*
X136688068Y-76515659D01*
X136729939Y-76459725D01*
X136760915Y-76442810D01*
X136892331Y-76393796D01*
X137007546Y-76307546D01*
X137093796Y-76192331D01*
X137144091Y-76057483D01*
X137150500Y-75997873D01*
X137150499Y-74202128D01*
X137144091Y-74142517D01*
X137143961Y-74142169D01*
X137093797Y-74007671D01*
X137093793Y-74007664D01*
X137007547Y-73892455D01*
X137007544Y-73892452D01*
X136892335Y-73806206D01*
X136892328Y-73806202D01*
X136757482Y-73755908D01*
X136757483Y-73755908D01*
X136697883Y-73749501D01*
X136697881Y-73749500D01*
X136697873Y-73749500D01*
X136697864Y-73749500D01*
X134902129Y-73749500D01*
X134902123Y-73749501D01*
X134842516Y-73755908D01*
X134707671Y-73806202D01*
X134707664Y-73806206D01*
X134592455Y-73892452D01*
X134592452Y-73892455D01*
X134506206Y-74007664D01*
X134506202Y-74007671D01*
X134455908Y-74142517D01*
X134449501Y-74202116D01*
X134449501Y-74202123D01*
X134449500Y-74202135D01*
X134449500Y-75997870D01*
X134449501Y-75997876D01*
X134455908Y-76057483D01*
X134506202Y-76192328D01*
X134506206Y-76192335D01*
X134592452Y-76307544D01*
X134592455Y-76307547D01*
X134707664Y-76393793D01*
X134707671Y-76393797D01*
X134839081Y-76442810D01*
X134895015Y-76484681D01*
X134919432Y-76550145D01*
X134904580Y-76618418D01*
X134883430Y-76646673D01*
X134761503Y-76768600D01*
X134625965Y-76962169D01*
X134625964Y-76962171D01*
X134526098Y-77176335D01*
X134526094Y-77176344D01*
X134464938Y-77404586D01*
X134464936Y-77404596D01*
X134444341Y-77639999D01*
X132470373Y-77639999D01*
X132470373Y-71699996D01*
X153594435Y-71699996D01*
X153594435Y-71700003D01*
X153614630Y-71879249D01*
X153614631Y-71879254D01*
X153674211Y-72049523D01*
X153770184Y-72202262D01*
X153897738Y-72329816D01*
X154050478Y-72425789D01*
X154220745Y-72485368D01*
X154220750Y-72485369D01*
X154399996Y-72505565D01*
X154400000Y-72505565D01*
X154400004Y-72505565D01*
X154579249Y-72485369D01*
X154579252Y-72485368D01*
X154579255Y-72485368D01*
X154749522Y-72425789D01*
X154902262Y-72329816D01*
X155029816Y-72202262D01*
X155125789Y-72049522D01*
X155185368Y-71879255D01*
X155185369Y-71879249D01*
X155205565Y-71700003D01*
X155205565Y-71699996D01*
X155185369Y-71520750D01*
X155185368Y-71520745D01*
X155125788Y-71350476D01*
X155057317Y-71241506D01*
X155029816Y-71197738D01*
X154902262Y-71070184D01*
X154881277Y-71056998D01*
X154749523Y-70974211D01*
X154579254Y-70914631D01*
X154579249Y-70914630D01*
X154400004Y-70894435D01*
X154399996Y-70894435D01*
X154220750Y-70914630D01*
X154220745Y-70914631D01*
X154050476Y-70974211D01*
X153897737Y-71070184D01*
X153770184Y-71197737D01*
X153674211Y-71350476D01*
X153614631Y-71520745D01*
X153614630Y-71520750D01*
X153594435Y-71699996D01*
X132470373Y-71699996D01*
X132470373Y-69799996D01*
X156494435Y-69799996D01*
X156494435Y-69800003D01*
X156514630Y-69979249D01*
X156514631Y-69979254D01*
X156574211Y-70149523D01*
X156670184Y-70302262D01*
X156797738Y-70429816D01*
X156950478Y-70525789D01*
X157120745Y-70585368D01*
X157120750Y-70585369D01*
X157299996Y-70605565D01*
X157300000Y-70605565D01*
X157300004Y-70605565D01*
X157479249Y-70585369D01*
X157479252Y-70585368D01*
X157479255Y-70585368D01*
X157649522Y-70525789D01*
X157802262Y-70429816D01*
X157929816Y-70302262D01*
X158025789Y-70149522D01*
X158085368Y-69979255D01*
X158085801Y-69975413D01*
X158105565Y-69800003D01*
X158105565Y-69799996D01*
X158085369Y-69620750D01*
X158085368Y-69620745D01*
X158025788Y-69450476D01*
X157929815Y-69297737D01*
X157802262Y-69170184D01*
X157649523Y-69074211D01*
X157479254Y-69014631D01*
X157479249Y-69014630D01*
X157300004Y-68994435D01*
X157299996Y-68994435D01*
X157120750Y-69014630D01*
X157120745Y-69014631D01*
X156950476Y-69074211D01*
X156797737Y-69170184D01*
X156670184Y-69297737D01*
X156574211Y-69450476D01*
X156514631Y-69620745D01*
X156514630Y-69620750D01*
X156494435Y-69799996D01*
X132470373Y-69799996D01*
X132470373Y-62054983D01*
X135077037Y-62054983D01*
X135077037Y-63605001D01*
X135077038Y-63605018D01*
X135087537Y-63707796D01*
X135087538Y-63707799D01*
X135133431Y-63846294D01*
X135142723Y-63874334D01*
X135234825Y-64023656D01*
X135358881Y-64147712D01*
X135508203Y-64239814D01*
X135674740Y-64294999D01*
X135777528Y-64305500D01*
X137077545Y-64305499D01*
X137180334Y-64294999D01*
X137346871Y-64239814D01*
X137496193Y-64147712D01*
X137620249Y-64023656D01*
X137712351Y-63874334D01*
X137712351Y-63874331D01*
X137715715Y-63868879D01*
X137767663Y-63822154D01*
X137836625Y-63810931D01*
X137900707Y-63838774D01*
X137908935Y-63846294D01*
X138047750Y-63985109D01*
X138219716Y-64110048D01*
X138219718Y-64110049D01*
X138219721Y-64110051D01*
X138409125Y-64206557D01*
X138611294Y-64272246D01*
X138821250Y-64305500D01*
X138821251Y-64305500D01*
X139033823Y-64305500D01*
X139033824Y-64305500D01*
X139243780Y-64272246D01*
X139445949Y-64206557D01*
X139635353Y-64110051D01*
X139657326Y-64094086D01*
X139807323Y-63985109D01*
X139807325Y-63985106D01*
X139807329Y-63985104D01*
X139957641Y-63834792D01*
X140077528Y-63669779D01*
X140132857Y-63627115D01*
X140202470Y-63621136D01*
X140264266Y-63653741D01*
X140278164Y-63669781D01*
X140397809Y-63834459D01*
X140397813Y-63834464D01*
X140548072Y-63984723D01*
X140548077Y-63984727D01*
X140719979Y-64109620D01*
X140909319Y-64206095D01*
X141111408Y-64271757D01*
X141177537Y-64282231D01*
X141177537Y-63234145D01*
X141244194Y-63272630D01*
X141365002Y-63305000D01*
X141490072Y-63305000D01*
X141610880Y-63272630D01*
X141677537Y-63234145D01*
X141677537Y-64282230D01*
X141743663Y-64271757D01*
X141743666Y-64271757D01*
X141945754Y-64206095D01*
X142135094Y-64109620D01*
X142306996Y-63984727D01*
X142307001Y-63984723D01*
X142457260Y-63834464D01*
X142457264Y-63834459D01*
X142582157Y-63662557D01*
X142678632Y-63473217D01*
X142744294Y-63271130D01*
X142744294Y-63271127D01*
X142774567Y-63080000D01*
X141831683Y-63080000D01*
X141870167Y-63013343D01*
X141902537Y-62892535D01*
X141902537Y-62767465D01*
X141870167Y-62646657D01*
X141831683Y-62580000D01*
X142774567Y-62580000D01*
X142744294Y-62388872D01*
X142744294Y-62388869D01*
X142678632Y-62186782D01*
X142582157Y-61997442D01*
X142457264Y-61825540D01*
X142457260Y-61825535D01*
X142307001Y-61675276D01*
X142306996Y-61675272D01*
X142135094Y-61550379D01*
X141945752Y-61453903D01*
X141743661Y-61388241D01*
X141677537Y-61377768D01*
X141677537Y-62425854D01*
X141610880Y-62387370D01*
X141490072Y-62355000D01*
X141365002Y-62355000D01*
X141244194Y-62387370D01*
X141177537Y-62425854D01*
X141177537Y-61377768D01*
X141177536Y-61377768D01*
X141111412Y-61388241D01*
X140909321Y-61453903D01*
X140719979Y-61550379D01*
X140548077Y-61675272D01*
X140548072Y-61675276D01*
X140397813Y-61825535D01*
X140397809Y-61825540D01*
X140278164Y-61990218D01*
X140222834Y-62032884D01*
X140153221Y-62038863D01*
X140091426Y-62006257D01*
X140077528Y-61990218D01*
X139957646Y-61825214D01*
X139957642Y-61825209D01*
X139807323Y-61674890D01*
X139635357Y-61549951D01*
X139445951Y-61453444D01*
X139445950Y-61453443D01*
X139445949Y-61453443D01*
X139243780Y-61387754D01*
X139243778Y-61387753D01*
X139243777Y-61387753D01*
X139082494Y-61362208D01*
X139033824Y-61354500D01*
X138821250Y-61354500D01*
X138772579Y-61362208D01*
X138611297Y-61387753D01*
X138611294Y-61387754D01*
X138443817Y-61442171D01*
X138409122Y-61453444D01*
X138219716Y-61549951D01*
X138047752Y-61674889D01*
X137908935Y-61813706D01*
X137847612Y-61847190D01*
X137777920Y-61842206D01*
X137721987Y-61800334D01*
X137715715Y-61791120D01*
X137620249Y-61636344D01*
X137496194Y-61512289D01*
X137496193Y-61512288D01*
X137346871Y-61420186D01*
X137180334Y-61365001D01*
X137180332Y-61365000D01*
X137077547Y-61354500D01*
X135777535Y-61354500D01*
X135777518Y-61354501D01*
X135674740Y-61365000D01*
X135674737Y-61365001D01*
X135508205Y-61420185D01*
X135508200Y-61420187D01*
X135358879Y-61512289D01*
X135234826Y-61636342D01*
X135142724Y-61785663D01*
X135142722Y-61785668D01*
X135137862Y-61800334D01*
X135087538Y-61952203D01*
X135087538Y-61952204D01*
X135087537Y-61952204D01*
X135077037Y-62054983D01*
X132470373Y-62054983D01*
X132470373Y-59369869D01*
X150164308Y-59369869D01*
X150164308Y-59369876D01*
X150184503Y-59549122D01*
X150184504Y-59549127D01*
X150244084Y-59719396D01*
X150304410Y-59815403D01*
X150340057Y-59872135D01*
X150467611Y-59999689D01*
X150620351Y-60095662D01*
X150790618Y-60155241D01*
X150790623Y-60155242D01*
X150969869Y-60175438D01*
X150969873Y-60175438D01*
X150969877Y-60175438D01*
X151149122Y-60155242D01*
X151149125Y-60155241D01*
X151149128Y-60155241D01*
X151319395Y-60095662D01*
X151472135Y-59999689D01*
X151599689Y-59872135D01*
X151695662Y-59719395D01*
X151755241Y-59549128D01*
X151775438Y-59369873D01*
X151755241Y-59190618D01*
X151695662Y-59020351D01*
X151599689Y-58867611D01*
X151472135Y-58740057D01*
X151422067Y-58708597D01*
X151319396Y-58644084D01*
X151149127Y-58584504D01*
X151149122Y-58584503D01*
X150969877Y-58564308D01*
X150969869Y-58564308D01*
X150790623Y-58584503D01*
X150790618Y-58584504D01*
X150620349Y-58644084D01*
X150467610Y-58740057D01*
X150340057Y-58867610D01*
X150244084Y-59020349D01*
X150184504Y-59190618D01*
X150184503Y-59190623D01*
X150164308Y-59369869D01*
X132470373Y-59369869D01*
X132470373Y-56204983D01*
X135077037Y-56204983D01*
X135077037Y-57755001D01*
X135077038Y-57755018D01*
X135087537Y-57857796D01*
X135087538Y-57857799D01*
X135133431Y-57996294D01*
X135142723Y-58024334D01*
X135234825Y-58173656D01*
X135358881Y-58297712D01*
X135508203Y-58389814D01*
X135674740Y-58444999D01*
X135777528Y-58455500D01*
X137077545Y-58455499D01*
X137180334Y-58444999D01*
X137346871Y-58389814D01*
X137496193Y-58297712D01*
X137620249Y-58173656D01*
X137712351Y-58024334D01*
X137712351Y-58024331D01*
X137715715Y-58018879D01*
X137767663Y-57972154D01*
X137836625Y-57960931D01*
X137900707Y-57988774D01*
X137908935Y-57996294D01*
X138047750Y-58135109D01*
X138219716Y-58260048D01*
X138219718Y-58260049D01*
X138219721Y-58260051D01*
X138409125Y-58356557D01*
X138611294Y-58422246D01*
X138821250Y-58455500D01*
X138821251Y-58455500D01*
X139033823Y-58455500D01*
X139033824Y-58455500D01*
X139243780Y-58422246D01*
X139445949Y-58356557D01*
X139635353Y-58260051D01*
X139706411Y-58208425D01*
X139807323Y-58135109D01*
X139807325Y-58135106D01*
X139807329Y-58135104D01*
X139957641Y-57984792D01*
X140077528Y-57819779D01*
X140132857Y-57777115D01*
X140202470Y-57771136D01*
X140264266Y-57803741D01*
X140278164Y-57819781D01*
X140397809Y-57984459D01*
X140397813Y-57984464D01*
X140548072Y-58134723D01*
X140548077Y-58134727D01*
X140719979Y-58259620D01*
X140909319Y-58356095D01*
X141111408Y-58421757D01*
X141177537Y-58432231D01*
X141177537Y-57384145D01*
X141244194Y-57422630D01*
X141365002Y-57455000D01*
X141490072Y-57455000D01*
X141610880Y-57422630D01*
X141677537Y-57384145D01*
X141677537Y-58432230D01*
X141743663Y-58421757D01*
X141743666Y-58421757D01*
X141945754Y-58356095D01*
X142135094Y-58259620D01*
X142306996Y-58134727D01*
X142307001Y-58134723D01*
X142457260Y-57984464D01*
X142457264Y-57984459D01*
X142582157Y-57812557D01*
X142678632Y-57623217D01*
X142744294Y-57421130D01*
X142744294Y-57421127D01*
X142774567Y-57230000D01*
X141831683Y-57230000D01*
X141870167Y-57163343D01*
X141902537Y-57042535D01*
X141902537Y-56917465D01*
X141870167Y-56796657D01*
X141831683Y-56730000D01*
X142774567Y-56730000D01*
X142744294Y-56538872D01*
X142744294Y-56538869D01*
X142678632Y-56336782D01*
X142582157Y-56147442D01*
X142457264Y-55975540D01*
X142457260Y-55975535D01*
X142307001Y-55825276D01*
X142306996Y-55825272D01*
X142135094Y-55700379D01*
X141945752Y-55603903D01*
X141743661Y-55538241D01*
X141677537Y-55527768D01*
X141677537Y-56575854D01*
X141610880Y-56537370D01*
X141490072Y-56505000D01*
X141365002Y-56505000D01*
X141244194Y-56537370D01*
X141177537Y-56575854D01*
X141177537Y-55527768D01*
X141177536Y-55527768D01*
X141111412Y-55538241D01*
X140909321Y-55603903D01*
X140719979Y-55700379D01*
X140548077Y-55825272D01*
X140548072Y-55825276D01*
X140397813Y-55975535D01*
X140397809Y-55975540D01*
X140278164Y-56140218D01*
X140222834Y-56182884D01*
X140153221Y-56188863D01*
X140091426Y-56156257D01*
X140077528Y-56140218D01*
X139957646Y-55975214D01*
X139957642Y-55975209D01*
X139807323Y-55824890D01*
X139635357Y-55699951D01*
X139445951Y-55603444D01*
X139445950Y-55603443D01*
X139445949Y-55603443D01*
X139243780Y-55537754D01*
X139243778Y-55537753D01*
X139243777Y-55537753D01*
X139082494Y-55512208D01*
X139033824Y-55504500D01*
X138821250Y-55504500D01*
X138772579Y-55512208D01*
X138611297Y-55537753D01*
X138409122Y-55603444D01*
X138219716Y-55699951D01*
X138047752Y-55824889D01*
X137908935Y-55963706D01*
X137847612Y-55997190D01*
X137777920Y-55992206D01*
X137721987Y-55950334D01*
X137715715Y-55941120D01*
X137620249Y-55786344D01*
X137496194Y-55662289D01*
X137496193Y-55662288D01*
X137346871Y-55570186D01*
X137180334Y-55515001D01*
X137180332Y-55515000D01*
X137077547Y-55504500D01*
X135777535Y-55504500D01*
X135777518Y-55504501D01*
X135674740Y-55515000D01*
X135674737Y-55515001D01*
X135508205Y-55570185D01*
X135508200Y-55570187D01*
X135358879Y-55662289D01*
X135234826Y-55786342D01*
X135142724Y-55935663D01*
X135142722Y-55935668D01*
X135137862Y-55950334D01*
X135087538Y-56102203D01*
X135087538Y-56102204D01*
X135087537Y-56102204D01*
X135077037Y-56204983D01*
X132470373Y-56204983D01*
X132470373Y-54499999D01*
X162644341Y-54499999D01*
X162644341Y-54500000D01*
X162664936Y-54735403D01*
X162664938Y-54735413D01*
X162726094Y-54963655D01*
X162726096Y-54963659D01*
X162726097Y-54963663D01*
X162825965Y-55177830D01*
X162825967Y-55177834D01*
X162961501Y-55371395D01*
X162961506Y-55371402D01*
X163128597Y-55538493D01*
X163128603Y-55538498D01*
X163314158Y-55668425D01*
X163357783Y-55723002D01*
X163364977Y-55792500D01*
X163333454Y-55854855D01*
X163314158Y-55871575D01*
X163128597Y-56001505D01*
X162961505Y-56168597D01*
X162825965Y-56362169D01*
X162825964Y-56362171D01*
X162726098Y-56576335D01*
X162726094Y-56576344D01*
X162664938Y-56804586D01*
X162664936Y-56804596D01*
X162644341Y-57039999D01*
X162644341Y-57040000D01*
X162664936Y-57275403D01*
X162664938Y-57275413D01*
X162726094Y-57503655D01*
X162726096Y-57503659D01*
X162726097Y-57503663D01*
X162781846Y-57623217D01*
X162825965Y-57717830D01*
X162825967Y-57717834D01*
X162961501Y-57911395D01*
X162961506Y-57911402D01*
X163128597Y-58078493D01*
X163128603Y-58078498D01*
X163314158Y-58208425D01*
X163357783Y-58263002D01*
X163364977Y-58332500D01*
X163333454Y-58394855D01*
X163314158Y-58411575D01*
X163128597Y-58541505D01*
X162961505Y-58708597D01*
X162825965Y-58902169D01*
X162825964Y-58902171D01*
X162726098Y-59116335D01*
X162726094Y-59116344D01*
X162664938Y-59344586D01*
X162664936Y-59344596D01*
X162644341Y-59579999D01*
X162644341Y-59580000D01*
X162664936Y-59815403D01*
X162664938Y-59815413D01*
X162726094Y-60043655D01*
X162726096Y-60043659D01*
X162726097Y-60043663D01*
X162787545Y-60175438D01*
X162825965Y-60257830D01*
X162825967Y-60257834D01*
X162961501Y-60451395D01*
X162961506Y-60451402D01*
X163128597Y-60618493D01*
X163128603Y-60618498D01*
X163314158Y-60748425D01*
X163357783Y-60803002D01*
X163364977Y-60872500D01*
X163333454Y-60934855D01*
X163314158Y-60951575D01*
X163128597Y-61081505D01*
X162961505Y-61248597D01*
X162825965Y-61442169D01*
X162825964Y-61442171D01*
X162726098Y-61656335D01*
X162726094Y-61656344D01*
X162664938Y-61884586D01*
X162664936Y-61884596D01*
X162644341Y-62119999D01*
X162644341Y-62120000D01*
X162664936Y-62355403D01*
X162664938Y-62355413D01*
X162726094Y-62583655D01*
X162726096Y-62583659D01*
X162726097Y-62583663D01*
X162733115Y-62598713D01*
X162825965Y-62797830D01*
X162825967Y-62797834D01*
X162961501Y-62991395D01*
X162961506Y-62991402D01*
X163128597Y-63158493D01*
X163128603Y-63158498D01*
X163314158Y-63288425D01*
X163357783Y-63343002D01*
X163364977Y-63412500D01*
X163333454Y-63474855D01*
X163314158Y-63491575D01*
X163128597Y-63621505D01*
X162961505Y-63788597D01*
X162825965Y-63982169D01*
X162825964Y-63982171D01*
X162726098Y-64196335D01*
X162726094Y-64196344D01*
X162664938Y-64424586D01*
X162664936Y-64424596D01*
X162644341Y-64659999D01*
X162644341Y-64660000D01*
X162664936Y-64895403D01*
X162664938Y-64895413D01*
X162726094Y-65123655D01*
X162726096Y-65123659D01*
X162726097Y-65123663D01*
X162825965Y-65337830D01*
X162825967Y-65337834D01*
X162961501Y-65531395D01*
X162961506Y-65531402D01*
X163128597Y-65698493D01*
X163128603Y-65698498D01*
X163314158Y-65828425D01*
X163357783Y-65883002D01*
X163364977Y-65952500D01*
X163333454Y-66014855D01*
X163314158Y-66031575D01*
X163128597Y-66161505D01*
X162961505Y-66328597D01*
X162825965Y-66522169D01*
X162825964Y-66522171D01*
X162726098Y-66736335D01*
X162726094Y-66736344D01*
X162664938Y-66964586D01*
X162664936Y-66964596D01*
X162644341Y-67199999D01*
X162644341Y-67200000D01*
X162664936Y-67435403D01*
X162664938Y-67435413D01*
X162726094Y-67663655D01*
X162726096Y-67663659D01*
X162726097Y-67663663D01*
X162749620Y-67714108D01*
X162825965Y-67877830D01*
X162825967Y-67877834D01*
X162961501Y-68071395D01*
X162961506Y-68071402D01*
X163128597Y-68238493D01*
X163128603Y-68238498D01*
X163314158Y-68368425D01*
X163357783Y-68423002D01*
X163364977Y-68492500D01*
X163333454Y-68554855D01*
X163314158Y-68571575D01*
X163128597Y-68701505D01*
X162961505Y-68868597D01*
X162825965Y-69062169D01*
X162825964Y-69062171D01*
X162726098Y-69276335D01*
X162726094Y-69276344D01*
X162664938Y-69504586D01*
X162664936Y-69504596D01*
X162644341Y-69739999D01*
X162644341Y-69740000D01*
X162664936Y-69975403D01*
X162664938Y-69975413D01*
X162726094Y-70203655D01*
X162726096Y-70203659D01*
X162726097Y-70203663D01*
X162772075Y-70302262D01*
X162825965Y-70417830D01*
X162825967Y-70417834D01*
X162901558Y-70525788D01*
X162943276Y-70585368D01*
X162961501Y-70611395D01*
X162961506Y-70611402D01*
X163128597Y-70778493D01*
X163128603Y-70778498D01*
X163314158Y-70908425D01*
X163357783Y-70963002D01*
X163364977Y-71032500D01*
X163333454Y-71094855D01*
X163314158Y-71111575D01*
X163128597Y-71241505D01*
X162961505Y-71408597D01*
X162825965Y-71602169D01*
X162825964Y-71602171D01*
X162726098Y-71816335D01*
X162726094Y-71816344D01*
X162664938Y-72044586D01*
X162664936Y-72044596D01*
X162644341Y-72279999D01*
X162644341Y-72280000D01*
X162664936Y-72515403D01*
X162664938Y-72515413D01*
X162726094Y-72743655D01*
X162726096Y-72743659D01*
X162726097Y-72743663D01*
X162825965Y-72957830D01*
X162825967Y-72957834D01*
X162961501Y-73151395D01*
X162961506Y-73151402D01*
X163128597Y-73318493D01*
X163128603Y-73318498D01*
X163314158Y-73448425D01*
X163357783Y-73503002D01*
X163364977Y-73572500D01*
X163333454Y-73634855D01*
X163314158Y-73651575D01*
X163128597Y-73781505D01*
X162961505Y-73948597D01*
X162825965Y-74142169D01*
X162825964Y-74142171D01*
X162726098Y-74356335D01*
X162726094Y-74356344D01*
X162664938Y-74584586D01*
X162664936Y-74584596D01*
X162644341Y-74819999D01*
X162644341Y-74820000D01*
X162664936Y-75055403D01*
X162664938Y-75055413D01*
X162726094Y-75283655D01*
X162726096Y-75283659D01*
X162726097Y-75283663D01*
X162825965Y-75497830D01*
X162825967Y-75497834D01*
X162961501Y-75691395D01*
X162961506Y-75691402D01*
X163128597Y-75858493D01*
X163128603Y-75858498D01*
X163314158Y-75988425D01*
X163357783Y-76043002D01*
X163364977Y-76112500D01*
X163333454Y-76174855D01*
X163314158Y-76191575D01*
X163128597Y-76321505D01*
X162961505Y-76488597D01*
X162825965Y-76682169D01*
X162825964Y-76682171D01*
X162726098Y-76896335D01*
X162726094Y-76896344D01*
X162664938Y-77124586D01*
X162664936Y-77124596D01*
X162644341Y-77359999D01*
X162644341Y-77360000D01*
X162664936Y-77595403D01*
X162664938Y-77595413D01*
X162726094Y-77823655D01*
X162726096Y-77823659D01*
X162726097Y-77823663D01*
X162825965Y-78037830D01*
X162825967Y-78037834D01*
X162961501Y-78231395D01*
X162961506Y-78231402D01*
X163128597Y-78398493D01*
X163128603Y-78398498D01*
X163314158Y-78528425D01*
X163357783Y-78583002D01*
X163364977Y-78652500D01*
X163333454Y-78714855D01*
X163314158Y-78731575D01*
X163128597Y-78861505D01*
X162961505Y-79028597D01*
X162825965Y-79222169D01*
X162825964Y-79222171D01*
X162726098Y-79436335D01*
X162726094Y-79436344D01*
X162664938Y-79664586D01*
X162664936Y-79664596D01*
X162644341Y-79899999D01*
X162644341Y-79900000D01*
X162664936Y-80135403D01*
X162664938Y-80135413D01*
X162726094Y-80363655D01*
X162726096Y-80363659D01*
X162726097Y-80363663D01*
X162766355Y-80449996D01*
X162825965Y-80577830D01*
X162825967Y-80577834D01*
X162961501Y-80771395D01*
X162961506Y-80771402D01*
X163128597Y-80938493D01*
X163128603Y-80938498D01*
X163314158Y-81068425D01*
X163357783Y-81123002D01*
X163364977Y-81192500D01*
X163333454Y-81254855D01*
X163314158Y-81271575D01*
X163128597Y-81401505D01*
X162961505Y-81568597D01*
X162825965Y-81762169D01*
X162825964Y-81762171D01*
X162726098Y-81976335D01*
X162726094Y-81976344D01*
X162664938Y-82204586D01*
X162664936Y-82204596D01*
X162644341Y-82439999D01*
X162644341Y-82440000D01*
X162664936Y-82675403D01*
X162664938Y-82675413D01*
X162726094Y-82903655D01*
X162726096Y-82903659D01*
X162726097Y-82903663D01*
X162825965Y-83117830D01*
X162825967Y-83117834D01*
X162961501Y-83311395D01*
X162961506Y-83311402D01*
X163128597Y-83478493D01*
X163128603Y-83478498D01*
X163314158Y-83608425D01*
X163357783Y-83663002D01*
X163364977Y-83732500D01*
X163333454Y-83794855D01*
X163314158Y-83811575D01*
X163128597Y-83941505D01*
X162961505Y-84108597D01*
X162825965Y-84302169D01*
X162825964Y-84302171D01*
X162726098Y-84516335D01*
X162726094Y-84516344D01*
X162664938Y-84744586D01*
X162664936Y-84744596D01*
X162644341Y-84979999D01*
X162644341Y-84980000D01*
X162664936Y-85215403D01*
X162664938Y-85215413D01*
X162726094Y-85443655D01*
X162726096Y-85443659D01*
X162726097Y-85443663D01*
X162776033Y-85550750D01*
X162825965Y-85657830D01*
X162825967Y-85657834D01*
X162961501Y-85851395D01*
X162961506Y-85851402D01*
X163128597Y-86018493D01*
X163128603Y-86018498D01*
X163314158Y-86148425D01*
X163357783Y-86203002D01*
X163364977Y-86272500D01*
X163333454Y-86334855D01*
X163314158Y-86351575D01*
X163128597Y-86481505D01*
X162961505Y-86648597D01*
X162825965Y-86842169D01*
X162825964Y-86842171D01*
X162726098Y-87056335D01*
X162726094Y-87056344D01*
X162664938Y-87284586D01*
X162664936Y-87284596D01*
X162644341Y-87519999D01*
X162644341Y-87520000D01*
X162664936Y-87755403D01*
X162664938Y-87755413D01*
X162726094Y-87983655D01*
X162726096Y-87983659D01*
X162726097Y-87983663D01*
X162817428Y-88179522D01*
X162825965Y-88197830D01*
X162825967Y-88197834D01*
X162920093Y-88332259D01*
X162961505Y-88391401D01*
X163128599Y-88558495D01*
X163164050Y-88583318D01*
X163322165Y-88694032D01*
X163322167Y-88694033D01*
X163322170Y-88694035D01*
X163536337Y-88793903D01*
X163764592Y-88855063D01*
X163952918Y-88871539D01*
X163999999Y-88875659D01*
X164000000Y-88875659D01*
X164000001Y-88875659D01*
X164039234Y-88872226D01*
X164235408Y-88855063D01*
X164463663Y-88793903D01*
X164677830Y-88694035D01*
X164871401Y-88558495D01*
X165038495Y-88391401D01*
X165174035Y-88197830D01*
X165273903Y-87983663D01*
X165335063Y-87755408D01*
X165355659Y-87520000D01*
X165335063Y-87284592D01*
X165273903Y-87056337D01*
X165174035Y-86842171D01*
X165117553Y-86761505D01*
X165038494Y-86648597D01*
X164871402Y-86481506D01*
X164871396Y-86481501D01*
X164685842Y-86351575D01*
X164642217Y-86296998D01*
X164635023Y-86227500D01*
X164666546Y-86165145D01*
X164685842Y-86148425D01*
X164784245Y-86079522D01*
X164871401Y-86018495D01*
X165038495Y-85851401D01*
X165174035Y-85657830D01*
X165273903Y-85443663D01*
X165335063Y-85215408D01*
X165355659Y-84980000D01*
X165335063Y-84744592D01*
X165273903Y-84516337D01*
X165174035Y-84302171D01*
X165117553Y-84221505D01*
X165038494Y-84108597D01*
X164871402Y-83941506D01*
X164871396Y-83941501D01*
X164685842Y-83811575D01*
X164642217Y-83756998D01*
X164635023Y-83687500D01*
X164666546Y-83625145D01*
X164685842Y-83608425D01*
X164733316Y-83575183D01*
X164871401Y-83478495D01*
X165038495Y-83311401D01*
X165174035Y-83117830D01*
X165273903Y-82903663D01*
X165335063Y-82675408D01*
X165355659Y-82440000D01*
X165335063Y-82204592D01*
X165273903Y-81976337D01*
X165174035Y-81762171D01*
X165169567Y-81755789D01*
X165038494Y-81568597D01*
X164871402Y-81401506D01*
X164871396Y-81401501D01*
X164685842Y-81271575D01*
X164642217Y-81216998D01*
X164635023Y-81147500D01*
X164666546Y-81085145D01*
X164685842Y-81068425D01*
X164740724Y-81029996D01*
X164871401Y-80938495D01*
X165038495Y-80771401D01*
X165174035Y-80577830D01*
X165273903Y-80363663D01*
X165335063Y-80135408D01*
X165355659Y-79900000D01*
X165335063Y-79664592D01*
X165273903Y-79436337D01*
X165174035Y-79222171D01*
X165117553Y-79141505D01*
X165038494Y-79028597D01*
X164871402Y-78861506D01*
X164871396Y-78861501D01*
X164685842Y-78731575D01*
X164642217Y-78676998D01*
X164635023Y-78607500D01*
X164666546Y-78545145D01*
X164685842Y-78528425D01*
X164710163Y-78511395D01*
X164871401Y-78398495D01*
X165038495Y-78231401D01*
X165174035Y-78037830D01*
X165273903Y-77823663D01*
X165335063Y-77595408D01*
X165355659Y-77360000D01*
X165335063Y-77124592D01*
X165273903Y-76896337D01*
X165174035Y-76682171D01*
X165149180Y-76646673D01*
X165038494Y-76488597D01*
X164871402Y-76321506D01*
X164871396Y-76321501D01*
X164685842Y-76191575D01*
X164642217Y-76136998D01*
X164635023Y-76067500D01*
X164666546Y-76005145D01*
X164685842Y-75988425D01*
X164708026Y-75972891D01*
X164871401Y-75858495D01*
X165038495Y-75691401D01*
X165174035Y-75497830D01*
X165273903Y-75283663D01*
X165335063Y-75055408D01*
X165355659Y-74820000D01*
X165335063Y-74584592D01*
X165273903Y-74356337D01*
X165174035Y-74142171D01*
X165079858Y-74007671D01*
X165038494Y-73948597D01*
X164871402Y-73781506D01*
X164871396Y-73781501D01*
X164685842Y-73651575D01*
X164642217Y-73596998D01*
X164635023Y-73527500D01*
X164666546Y-73465145D01*
X164685842Y-73448425D01*
X164708026Y-73432891D01*
X164871401Y-73318495D01*
X165038495Y-73151401D01*
X165174035Y-72957830D01*
X165273903Y-72743663D01*
X165335063Y-72515408D01*
X165355659Y-72280000D01*
X165335063Y-72044592D01*
X165273903Y-71816337D01*
X165174035Y-71602171D01*
X165117021Y-71520745D01*
X165038494Y-71408597D01*
X164871402Y-71241506D01*
X164871396Y-71241501D01*
X164685842Y-71111575D01*
X164642217Y-71056998D01*
X164635023Y-70987500D01*
X164666546Y-70925145D01*
X164685842Y-70908425D01*
X164708026Y-70892891D01*
X164871401Y-70778495D01*
X165038495Y-70611401D01*
X165174035Y-70417830D01*
X165273903Y-70203663D01*
X165335063Y-69975408D01*
X165355659Y-69740000D01*
X165335063Y-69504592D01*
X165273903Y-69276337D01*
X165174035Y-69062171D01*
X165140748Y-69014631D01*
X165038494Y-68868597D01*
X164871402Y-68701506D01*
X164871396Y-68701501D01*
X164685842Y-68571575D01*
X164642217Y-68516998D01*
X164635023Y-68447500D01*
X164666546Y-68385145D01*
X164685842Y-68368425D01*
X164708026Y-68352891D01*
X164871401Y-68238495D01*
X165038495Y-68071401D01*
X165174035Y-67877830D01*
X165273903Y-67663663D01*
X165335063Y-67435408D01*
X165355659Y-67200000D01*
X165335063Y-66964592D01*
X165273903Y-66736337D01*
X165174035Y-66522171D01*
X165038495Y-66328599D01*
X165038494Y-66328597D01*
X164871402Y-66161506D01*
X164871396Y-66161501D01*
X164685842Y-66031575D01*
X164642217Y-65976998D01*
X164635023Y-65907500D01*
X164666546Y-65845145D01*
X164685842Y-65828425D01*
X164708026Y-65812891D01*
X164871401Y-65698495D01*
X165038495Y-65531401D01*
X165174035Y-65337830D01*
X165273903Y-65123663D01*
X165335063Y-64895408D01*
X165355659Y-64660000D01*
X165335063Y-64424592D01*
X165288626Y-64251285D01*
X165273905Y-64196344D01*
X165273904Y-64196343D01*
X165273903Y-64196337D01*
X165174035Y-63982171D01*
X165098529Y-63874336D01*
X165038494Y-63788597D01*
X164871402Y-63621506D01*
X164871396Y-63621501D01*
X164685842Y-63491575D01*
X164642217Y-63436998D01*
X164635023Y-63367500D01*
X164666546Y-63305145D01*
X164685842Y-63288425D01*
X164710546Y-63271127D01*
X164871401Y-63158495D01*
X165038495Y-62991401D01*
X165174035Y-62797830D01*
X165273903Y-62583663D01*
X165335063Y-62355408D01*
X165355659Y-62120000D01*
X165335063Y-61884592D01*
X165273903Y-61656337D01*
X165174035Y-61442171D01*
X165158641Y-61420185D01*
X165038494Y-61248597D01*
X164871402Y-61081506D01*
X164871396Y-61081501D01*
X164685842Y-60951575D01*
X164642217Y-60896998D01*
X164635023Y-60827500D01*
X164666546Y-60765145D01*
X164685842Y-60748425D01*
X164708026Y-60732891D01*
X164871401Y-60618495D01*
X165038495Y-60451401D01*
X165174035Y-60257830D01*
X165273903Y-60043663D01*
X165335063Y-59815408D01*
X165355659Y-59580000D01*
X165335063Y-59344592D01*
X165273903Y-59116337D01*
X165174035Y-58902171D01*
X165149836Y-58867610D01*
X165038494Y-58708597D01*
X164871402Y-58541506D01*
X164871396Y-58541501D01*
X164685842Y-58411575D01*
X164642217Y-58356998D01*
X164635023Y-58287500D01*
X164666546Y-58225145D01*
X164685842Y-58208425D01*
X164735497Y-58173656D01*
X164871401Y-58078495D01*
X165038495Y-57911401D01*
X165174035Y-57717830D01*
X165273903Y-57503663D01*
X165335063Y-57275408D01*
X165355659Y-57040000D01*
X165335063Y-56804592D01*
X165273903Y-56576337D01*
X165174035Y-56362171D01*
X165063972Y-56204983D01*
X165038494Y-56168597D01*
X164871402Y-56001506D01*
X164871396Y-56001501D01*
X164685842Y-55871575D01*
X164642217Y-55816998D01*
X164635023Y-55747500D01*
X164666546Y-55685145D01*
X164685842Y-55668425D01*
X164708026Y-55652891D01*
X164871401Y-55538495D01*
X165038495Y-55371401D01*
X165174035Y-55177830D01*
X165273903Y-54963663D01*
X165335063Y-54735408D01*
X165355659Y-54500000D01*
X165335063Y-54264592D01*
X165273903Y-54036337D01*
X165174035Y-53822171D01*
X165038495Y-53628599D01*
X165038494Y-53628597D01*
X164871402Y-53461506D01*
X164871401Y-53461505D01*
X164685405Y-53331269D01*
X164641781Y-53276692D01*
X164634588Y-53207193D01*
X164666110Y-53144839D01*
X164685405Y-53128119D01*
X164871082Y-52998105D01*
X165038105Y-52831082D01*
X165173600Y-52637578D01*
X165273429Y-52423492D01*
X165273432Y-52423486D01*
X165330636Y-52210000D01*
X164433012Y-52210000D01*
X164465925Y-52152993D01*
X164500000Y-52025826D01*
X164500000Y-51894174D01*
X164465925Y-51767007D01*
X164433012Y-51710000D01*
X165330636Y-51710000D01*
X165330635Y-51709999D01*
X165273432Y-51496513D01*
X165273429Y-51496507D01*
X165173600Y-51282422D01*
X165173599Y-51282420D01*
X165038113Y-51088926D01*
X165038108Y-51088920D01*
X164916053Y-50966865D01*
X164882568Y-50905542D01*
X164887552Y-50835850D01*
X164929424Y-50779917D01*
X164960400Y-50763002D01*
X165092331Y-50713796D01*
X165207546Y-50627546D01*
X165293796Y-50512331D01*
X165344091Y-50377483D01*
X165350500Y-50317873D01*
X165350499Y-48522128D01*
X165344091Y-48462517D01*
X165340443Y-48452737D01*
X165293797Y-48327671D01*
X165293793Y-48327664D01*
X165207547Y-48212455D01*
X165207544Y-48212452D01*
X165092335Y-48126206D01*
X165092328Y-48126202D01*
X164957482Y-48075908D01*
X164957483Y-48075908D01*
X164897883Y-48069501D01*
X164897881Y-48069500D01*
X164897873Y-48069500D01*
X164897864Y-48069500D01*
X163102129Y-48069500D01*
X163102123Y-48069501D01*
X163042516Y-48075908D01*
X162907671Y-48126202D01*
X162907664Y-48126206D01*
X162792455Y-48212452D01*
X162792452Y-48212455D01*
X162706206Y-48327664D01*
X162706202Y-48327671D01*
X162655908Y-48462517D01*
X162649501Y-48522116D01*
X162649501Y-48522123D01*
X162649500Y-48522135D01*
X162649500Y-50317870D01*
X162649501Y-50317876D01*
X162655908Y-50377483D01*
X162706202Y-50512328D01*
X162706206Y-50512335D01*
X162792452Y-50627544D01*
X162792455Y-50627547D01*
X162907664Y-50713793D01*
X162907671Y-50713797D01*
X162907674Y-50713798D01*
X163039598Y-50763002D01*
X163095531Y-50804873D01*
X163119949Y-50870337D01*
X163105098Y-50938610D01*
X163083947Y-50966865D01*
X162961886Y-51088926D01*
X162826400Y-51282420D01*
X162826399Y-51282422D01*
X162726570Y-51496507D01*
X162726567Y-51496513D01*
X162669364Y-51709999D01*
X162669364Y-51710000D01*
X163566988Y-51710000D01*
X163534075Y-51767007D01*
X163500000Y-51894174D01*
X163500000Y-52025826D01*
X163534075Y-52152993D01*
X163566988Y-52210000D01*
X162669364Y-52210000D01*
X162726567Y-52423486D01*
X162726570Y-52423492D01*
X162826399Y-52637578D01*
X162961894Y-52831082D01*
X163128917Y-52998105D01*
X163314595Y-53128119D01*
X163358219Y-53182696D01*
X163365412Y-53252195D01*
X163333890Y-53314549D01*
X163314595Y-53331269D01*
X163128594Y-53461508D01*
X162961505Y-53628597D01*
X162825965Y-53822169D01*
X162825964Y-53822171D01*
X162726098Y-54036335D01*
X162726094Y-54036344D01*
X162664938Y-54264586D01*
X162664936Y-54264596D01*
X162644341Y-54499999D01*
X132470373Y-54499999D01*
X132470373Y-50354983D01*
X135077037Y-50354983D01*
X135077037Y-51905001D01*
X135077038Y-51905018D01*
X135087537Y-52007796D01*
X135087538Y-52007799D01*
X135133431Y-52146294D01*
X135142723Y-52174334D01*
X135234825Y-52323656D01*
X135358881Y-52447712D01*
X135508203Y-52539814D01*
X135674740Y-52594999D01*
X135777528Y-52605500D01*
X137077545Y-52605499D01*
X137180334Y-52594999D01*
X137346871Y-52539814D01*
X137496193Y-52447712D01*
X137620249Y-52323656D01*
X137712351Y-52174334D01*
X137712351Y-52174331D01*
X137715715Y-52168879D01*
X137767663Y-52122154D01*
X137836625Y-52110931D01*
X137900707Y-52138774D01*
X137908935Y-52146294D01*
X138047750Y-52285109D01*
X138219716Y-52410048D01*
X138219718Y-52410049D01*
X138219721Y-52410051D01*
X138409125Y-52506557D01*
X138611294Y-52572246D01*
X138821250Y-52605500D01*
X138821251Y-52605500D01*
X139033823Y-52605500D01*
X139033824Y-52605500D01*
X139243780Y-52572246D01*
X139445949Y-52506557D01*
X139635353Y-52410051D01*
X139704107Y-52360099D01*
X139807323Y-52285109D01*
X139807325Y-52285106D01*
X139807329Y-52285104D01*
X139957641Y-52134792D01*
X140077528Y-51969779D01*
X140132857Y-51927115D01*
X140202470Y-51921136D01*
X140264266Y-51953741D01*
X140278164Y-51969781D01*
X140397809Y-52134459D01*
X140397813Y-52134464D01*
X140548072Y-52284723D01*
X140548077Y-52284727D01*
X140719979Y-52409620D01*
X140909319Y-52506095D01*
X141111408Y-52571757D01*
X141177537Y-52582231D01*
X141177537Y-51534145D01*
X141244194Y-51572630D01*
X141365002Y-51605000D01*
X141490072Y-51605000D01*
X141610880Y-51572630D01*
X141677537Y-51534145D01*
X141677537Y-52582230D01*
X141743663Y-52571757D01*
X141743666Y-52571757D01*
X141945754Y-52506095D01*
X142135094Y-52409620D01*
X142306996Y-52284727D01*
X142307001Y-52284723D01*
X142457260Y-52134464D01*
X142457264Y-52134459D01*
X142582157Y-51962557D01*
X142678632Y-51773217D01*
X142744294Y-51571130D01*
X142744294Y-51571127D01*
X142774567Y-51380000D01*
X141831683Y-51380000D01*
X141870167Y-51313343D01*
X141902537Y-51192535D01*
X141902537Y-51067465D01*
X141870167Y-50946657D01*
X141831683Y-50880000D01*
X142774567Y-50880000D01*
X142758727Y-50779996D01*
X148414308Y-50779996D01*
X148414308Y-50780003D01*
X148434503Y-50959249D01*
X148434504Y-50959254D01*
X148494084Y-51129523D01*
X148590057Y-51282262D01*
X148717611Y-51409816D01*
X148736456Y-51421657D01*
X148855578Y-51496507D01*
X148870351Y-51505789D01*
X149024994Y-51559901D01*
X149040618Y-51565368D01*
X149040623Y-51565369D01*
X149219869Y-51585565D01*
X149219873Y-51585565D01*
X149219877Y-51585565D01*
X149399122Y-51565369D01*
X149399125Y-51565368D01*
X149399128Y-51565368D01*
X149569395Y-51505789D01*
X149722135Y-51409816D01*
X149849689Y-51282262D01*
X149945662Y-51129522D01*
X150005241Y-50959255D01*
X150005242Y-50959249D01*
X150025438Y-50780003D01*
X150025438Y-50779996D01*
X150005242Y-50600750D01*
X150005241Y-50600745D01*
X149974305Y-50512335D01*
X149945662Y-50430478D01*
X149849689Y-50277738D01*
X149722135Y-50150184D01*
X149709438Y-50142206D01*
X149569396Y-50054211D01*
X149399127Y-49994631D01*
X149399122Y-49994630D01*
X149219877Y-49974435D01*
X149219869Y-49974435D01*
X149040623Y-49994630D01*
X149040618Y-49994631D01*
X148870349Y-50054211D01*
X148717610Y-50150184D01*
X148590057Y-50277737D01*
X148494084Y-50430476D01*
X148434504Y-50600745D01*
X148434503Y-50600750D01*
X148414308Y-50779996D01*
X142758727Y-50779996D01*
X142744294Y-50688872D01*
X142744294Y-50688869D01*
X142678632Y-50486782D01*
X142582157Y-50297442D01*
X142457264Y-50125540D01*
X142457260Y-50125535D01*
X142307001Y-49975276D01*
X142306996Y-49975272D01*
X142135094Y-49850379D01*
X141945752Y-49753903D01*
X141743661Y-49688241D01*
X141677537Y-49677768D01*
X141677537Y-50725854D01*
X141610880Y-50687370D01*
X141490072Y-50655000D01*
X141365002Y-50655000D01*
X141244194Y-50687370D01*
X141177537Y-50725854D01*
X141177537Y-49677768D01*
X141177536Y-49677768D01*
X141111412Y-49688241D01*
X140909321Y-49753903D01*
X140719979Y-49850379D01*
X140548077Y-49975272D01*
X140548072Y-49975276D01*
X140397813Y-50125535D01*
X140397809Y-50125540D01*
X140278164Y-50290218D01*
X140222834Y-50332884D01*
X140153221Y-50338863D01*
X140091426Y-50306257D01*
X140077528Y-50290218D01*
X139957646Y-50125214D01*
X139957642Y-50125209D01*
X139807323Y-49974890D01*
X139635357Y-49849951D01*
X139445951Y-49753444D01*
X139445950Y-49753443D01*
X139445949Y-49753443D01*
X139243780Y-49687754D01*
X139243778Y-49687753D01*
X139243777Y-49687753D01*
X139082494Y-49662208D01*
X139033824Y-49654500D01*
X138821250Y-49654500D01*
X138772579Y-49662208D01*
X138611297Y-49687753D01*
X138409122Y-49753444D01*
X138219716Y-49849951D01*
X138047752Y-49974889D01*
X137908935Y-50113706D01*
X137847612Y-50147190D01*
X137777920Y-50142206D01*
X137721987Y-50100334D01*
X137715715Y-50091120D01*
X137692949Y-50054211D01*
X137620249Y-49936344D01*
X137496193Y-49812288D01*
X137379593Y-49740369D01*
X137346873Y-49720187D01*
X137346868Y-49720185D01*
X137345399Y-49719698D01*
X137180334Y-49665001D01*
X137180332Y-49665000D01*
X137077547Y-49654500D01*
X135777535Y-49654500D01*
X135777518Y-49654501D01*
X135674740Y-49665000D01*
X135674737Y-49665001D01*
X135508205Y-49720185D01*
X135508200Y-49720187D01*
X135358879Y-49812289D01*
X135234826Y-49936342D01*
X135142724Y-50085663D01*
X135142722Y-50085668D01*
X135137862Y-50100334D01*
X135087538Y-50252203D01*
X135087538Y-50252204D01*
X135087537Y-50252204D01*
X135077037Y-50354983D01*
X132470373Y-50354983D01*
X132470373Y-48954996D01*
X152239308Y-48954996D01*
X152239308Y-48955003D01*
X152259503Y-49134249D01*
X152259504Y-49134254D01*
X152319084Y-49304523D01*
X152415057Y-49457262D01*
X152542611Y-49584816D01*
X152632953Y-49641582D01*
X152670224Y-49665001D01*
X152695351Y-49680789D01*
X152807941Y-49720186D01*
X152865618Y-49740368D01*
X152865623Y-49740369D01*
X153044869Y-49760565D01*
X153044873Y-49760565D01*
X153044877Y-49760565D01*
X153224122Y-49740369D01*
X153224125Y-49740368D01*
X153224128Y-49740368D01*
X153394395Y-49680789D01*
X153547135Y-49584816D01*
X153674689Y-49457262D01*
X153770662Y-49304522D01*
X153830241Y-49134255D01*
X153850438Y-48955000D01*
X153830241Y-48775745D01*
X153770662Y-48605478D01*
X153674689Y-48452738D01*
X153547135Y-48325184D01*
X153394396Y-48229211D01*
X153224127Y-48169631D01*
X153224122Y-48169630D01*
X153044877Y-48149435D01*
X153044869Y-48149435D01*
X152865623Y-48169630D01*
X152865618Y-48169631D01*
X152695349Y-48229211D01*
X152542610Y-48325184D01*
X152415057Y-48452737D01*
X152319084Y-48605476D01*
X152259504Y-48775745D01*
X152259503Y-48775750D01*
X152239308Y-48954996D01*
X132470373Y-48954996D01*
X132470373Y-44504983D01*
X135077037Y-44504983D01*
X135077037Y-46055001D01*
X135077038Y-46055018D01*
X135087537Y-46157796D01*
X135087538Y-46157799D01*
X135142722Y-46324331D01*
X135142724Y-46324336D01*
X135160324Y-46352870D01*
X135234825Y-46473656D01*
X135358881Y-46597712D01*
X135508203Y-46689814D01*
X135674740Y-46744999D01*
X135777528Y-46755500D01*
X137077545Y-46755499D01*
X137180334Y-46744999D01*
X137346871Y-46689814D01*
X137496193Y-46597712D01*
X137620249Y-46473656D01*
X137712351Y-46324334D01*
X137712351Y-46324331D01*
X137715715Y-46318879D01*
X137767663Y-46272154D01*
X137836625Y-46260931D01*
X137900707Y-46288774D01*
X137908935Y-46296294D01*
X138047750Y-46435109D01*
X138219716Y-46560048D01*
X138219718Y-46560049D01*
X138219721Y-46560051D01*
X138409125Y-46656557D01*
X138611294Y-46722246D01*
X138821250Y-46755500D01*
X138821251Y-46755500D01*
X139033823Y-46755500D01*
X139033824Y-46755500D01*
X139243780Y-46722246D01*
X139445949Y-46656557D01*
X139635353Y-46560051D01*
X139722183Y-46496966D01*
X139807323Y-46435109D01*
X139807325Y-46435106D01*
X139807329Y-46435104D01*
X139957641Y-46284792D01*
X140077528Y-46119779D01*
X140132857Y-46077115D01*
X140202470Y-46071136D01*
X140264266Y-46103741D01*
X140278164Y-46119781D01*
X140397809Y-46284459D01*
X140397813Y-46284464D01*
X140548072Y-46434723D01*
X140548077Y-46434727D01*
X140719979Y-46559620D01*
X140909319Y-46656095D01*
X141111408Y-46721757D01*
X141177537Y-46732231D01*
X141177537Y-45684145D01*
X141244194Y-45722630D01*
X141365002Y-45755000D01*
X141490072Y-45755000D01*
X141610880Y-45722630D01*
X141677537Y-45684145D01*
X141677537Y-46732230D01*
X141743663Y-46721757D01*
X141743666Y-46721757D01*
X141945754Y-46656095D01*
X142135094Y-46559620D01*
X142306996Y-46434727D01*
X142307001Y-46434723D01*
X142457260Y-46284464D01*
X142457264Y-46284459D01*
X142582157Y-46112557D01*
X142624225Y-46029996D01*
X145414308Y-46029996D01*
X145414308Y-46030003D01*
X145434503Y-46209249D01*
X145434504Y-46209254D01*
X145494084Y-46379523D01*
X145553232Y-46473655D01*
X145590057Y-46532262D01*
X145717611Y-46659816D01*
X145797825Y-46710218D01*
X145869887Y-46755498D01*
X145870351Y-46755789D01*
X145994101Y-46799091D01*
X146040618Y-46815368D01*
X146040623Y-46815369D01*
X146219869Y-46835565D01*
X146219873Y-46835565D01*
X146219877Y-46835565D01*
X146399122Y-46815369D01*
X146399125Y-46815368D01*
X146399128Y-46815368D01*
X146569395Y-46755789D01*
X146722135Y-46659816D01*
X146849689Y-46532262D01*
X146945662Y-46379522D01*
X147005241Y-46209255D01*
X147007792Y-46186613D01*
X147025438Y-46030003D01*
X147025438Y-46029996D01*
X150414308Y-46029996D01*
X150414308Y-46030003D01*
X150434503Y-46209249D01*
X150434504Y-46209254D01*
X150494084Y-46379523D01*
X150553232Y-46473655D01*
X150590057Y-46532262D01*
X150717611Y-46659816D01*
X150797825Y-46710218D01*
X150869887Y-46755498D01*
X150870351Y-46755789D01*
X150994101Y-46799091D01*
X151040618Y-46815368D01*
X151040623Y-46815369D01*
X151219869Y-46835565D01*
X151219873Y-46835565D01*
X151219877Y-46835565D01*
X151399122Y-46815369D01*
X151399125Y-46815368D01*
X151399128Y-46815368D01*
X151569395Y-46755789D01*
X151722135Y-46659816D01*
X151849689Y-46532262D01*
X151945662Y-46379522D01*
X152005241Y-46209255D01*
X152007792Y-46186613D01*
X152025438Y-46030003D01*
X152025438Y-46029996D01*
X152005242Y-45850750D01*
X152005241Y-45850745D01*
X151971738Y-45755000D01*
X151945662Y-45680478D01*
X151932854Y-45660095D01*
X151849688Y-45527737D01*
X151722135Y-45400184D01*
X151569396Y-45304211D01*
X151399127Y-45244631D01*
X151399122Y-45244630D01*
X151219877Y-45224435D01*
X151219869Y-45224435D01*
X151040623Y-45244630D01*
X151040618Y-45244631D01*
X150870349Y-45304211D01*
X150717610Y-45400184D01*
X150590057Y-45527737D01*
X150494084Y-45680476D01*
X150434504Y-45850745D01*
X150434503Y-45850750D01*
X150414308Y-46029996D01*
X147025438Y-46029996D01*
X147005242Y-45850750D01*
X147005241Y-45850745D01*
X146971738Y-45755000D01*
X146945662Y-45680478D01*
X146932854Y-45660095D01*
X146849688Y-45527737D01*
X146722135Y-45400184D01*
X146569396Y-45304211D01*
X146399127Y-45244631D01*
X146399122Y-45244630D01*
X146219877Y-45224435D01*
X146219869Y-45224435D01*
X146040623Y-45244630D01*
X146040618Y-45244631D01*
X145870349Y-45304211D01*
X145717610Y-45400184D01*
X145590057Y-45527737D01*
X145494084Y-45680476D01*
X145434504Y-45850745D01*
X145434503Y-45850750D01*
X145414308Y-46029996D01*
X142624225Y-46029996D01*
X142678632Y-45923217D01*
X142744294Y-45721130D01*
X142744294Y-45721127D01*
X142774567Y-45530000D01*
X141831683Y-45530000D01*
X141870167Y-45463343D01*
X141902537Y-45342535D01*
X141902537Y-45217465D01*
X141870167Y-45096657D01*
X141831683Y-45030000D01*
X142774567Y-45030000D01*
X142744294Y-44838872D01*
X142744294Y-44838869D01*
X142678632Y-44636782D01*
X142582157Y-44447442D01*
X142457264Y-44275540D01*
X142457260Y-44275535D01*
X142307001Y-44125276D01*
X142306996Y-44125272D01*
X142135094Y-44000379D01*
X141945752Y-43903903D01*
X141801812Y-43857135D01*
X155369373Y-43857135D01*
X155369373Y-46352870D01*
X155369374Y-46352876D01*
X155375781Y-46412483D01*
X155426075Y-46547328D01*
X155426079Y-46547335D01*
X155512325Y-46662544D01*
X155512328Y-46662547D01*
X155627537Y-46748793D01*
X155627544Y-46748797D01*
X155762390Y-46799091D01*
X155762389Y-46799091D01*
X155769317Y-46799835D01*
X155822000Y-46805500D01*
X157517745Y-46805499D01*
X157577356Y-46799091D01*
X157712204Y-46748796D01*
X157827419Y-46662546D01*
X157913669Y-46547331D01*
X157963964Y-46412483D01*
X157967934Y-46375556D01*
X157994669Y-46311011D01*
X158052061Y-46271161D01*
X158121886Y-46268666D01*
X158181975Y-46304317D01*
X158191540Y-46315929D01*
X158217905Y-46352217D01*
X158362659Y-46496971D01*
X158501317Y-46597710D01*
X158528263Y-46617287D01*
X158605331Y-46656555D01*
X158710649Y-46710218D01*
X158710651Y-46710218D01*
X158710654Y-46710220D01*
X158778394Y-46732230D01*
X158905338Y-46773477D01*
X159006430Y-46789488D01*
X159107521Y-46805500D01*
X159107522Y-46805500D01*
X159312224Y-46805500D01*
X159312225Y-46805500D01*
X159514407Y-46773477D01*
X159709092Y-46710220D01*
X159891483Y-46617287D01*
X160008511Y-46532262D01*
X160057086Y-46496971D01*
X160057088Y-46496968D01*
X160057092Y-46496966D01*
X160201839Y-46352219D01*
X160201841Y-46352215D01*
X160201844Y-46352213D01*
X160322157Y-46186614D01*
X160322158Y-46186613D01*
X160322160Y-46186610D01*
X160369389Y-46093917D01*
X160417362Y-46043123D01*
X160485183Y-46026328D01*
X160551318Y-46048865D01*
X160590356Y-46093917D01*
X160599854Y-46112557D01*
X160637588Y-46186614D01*
X160757901Y-46352213D01*
X160902659Y-46496971D01*
X161041317Y-46597710D01*
X161068263Y-46617287D01*
X161145331Y-46656555D01*
X161250649Y-46710218D01*
X161250651Y-46710218D01*
X161250654Y-46710220D01*
X161318394Y-46732230D01*
X161445338Y-46773477D01*
X161546430Y-46789488D01*
X161647521Y-46805500D01*
X161647522Y-46805500D01*
X161852224Y-46805500D01*
X161852225Y-46805500D01*
X162054407Y-46773477D01*
X162249092Y-46710220D01*
X162431483Y-46617287D01*
X162548511Y-46532262D01*
X162597086Y-46496971D01*
X162597088Y-46496968D01*
X162597092Y-46496966D01*
X162741839Y-46352219D01*
X162741841Y-46352215D01*
X162741844Y-46352213D01*
X162862157Y-46186614D01*
X162862158Y-46186613D01*
X162862160Y-46186610D01*
X162909389Y-46093917D01*
X162957362Y-46043123D01*
X163025183Y-46026328D01*
X163091318Y-46048865D01*
X163130356Y-46093917D01*
X163139854Y-46112557D01*
X163177588Y-46186614D01*
X163297901Y-46352213D01*
X163442659Y-46496971D01*
X163581317Y-46597710D01*
X163608263Y-46617287D01*
X163685331Y-46656555D01*
X163790649Y-46710218D01*
X163790651Y-46710218D01*
X163790654Y-46710220D01*
X163858394Y-46732230D01*
X163985338Y-46773477D01*
X164086430Y-46789488D01*
X164187521Y-46805500D01*
X164187522Y-46805500D01*
X164392224Y-46805500D01*
X164392225Y-46805500D01*
X164594407Y-46773477D01*
X164789092Y-46710220D01*
X164971483Y-46617287D01*
X165088511Y-46532262D01*
X165137086Y-46496971D01*
X165137088Y-46496968D01*
X165137092Y-46496966D01*
X165281839Y-46352219D01*
X165281841Y-46352215D01*
X165281844Y-46352213D01*
X165348163Y-46260931D01*
X165402160Y-46186610D01*
X165495093Y-46004219D01*
X165558350Y-45809534D01*
X165590373Y-45607352D01*
X165590373Y-44602648D01*
X165567187Y-44456257D01*
X165558350Y-44400465D01*
X165517653Y-44275214D01*
X165495093Y-44205781D01*
X165495091Y-44205778D01*
X165495091Y-44205776D01*
X165461376Y-44139607D01*
X165402160Y-44023390D01*
X165357768Y-43962289D01*
X165281844Y-43857786D01*
X165137086Y-43713028D01*
X164971486Y-43592715D01*
X164971485Y-43592714D01*
X164971483Y-43592713D01*
X164914526Y-43563691D01*
X164789096Y-43499781D01*
X164594407Y-43436522D01*
X164419868Y-43408878D01*
X164392225Y-43404500D01*
X164187521Y-43404500D01*
X164163202Y-43408351D01*
X163985338Y-43436522D01*
X163790649Y-43499781D01*
X163608259Y-43592715D01*
X163442659Y-43713028D01*
X163297901Y-43857786D01*
X163177588Y-44023386D01*
X163130358Y-44116080D01*
X163082383Y-44166876D01*
X163014562Y-44183671D01*
X162948427Y-44161134D01*
X162909388Y-44116080D01*
X162908756Y-44114840D01*
X162862160Y-44023390D01*
X162817768Y-43962289D01*
X162741844Y-43857786D01*
X162597086Y-43713028D01*
X162431486Y-43592715D01*
X162431485Y-43592714D01*
X162431483Y-43592713D01*
X162374526Y-43563691D01*
X162249096Y-43499781D01*
X162054407Y-43436522D01*
X161879868Y-43408878D01*
X161852225Y-43404500D01*
X161647521Y-43404500D01*
X161623202Y-43408351D01*
X161445338Y-43436522D01*
X161250649Y-43499781D01*
X161068259Y-43592715D01*
X160902659Y-43713028D01*
X160757901Y-43857786D01*
X160637588Y-44023386D01*
X160590358Y-44116080D01*
X160542383Y-44166876D01*
X160474562Y-44183671D01*
X160408427Y-44161134D01*
X160369388Y-44116080D01*
X160368756Y-44114840D01*
X160322160Y-44023390D01*
X160277768Y-43962289D01*
X160201844Y-43857786D01*
X160057086Y-43713028D01*
X159891486Y-43592715D01*
X159891485Y-43592714D01*
X159891483Y-43592713D01*
X159834526Y-43563691D01*
X159709096Y-43499781D01*
X159514407Y-43436522D01*
X159339868Y-43408878D01*
X159312225Y-43404500D01*
X159107521Y-43404500D01*
X159083202Y-43408351D01*
X158905338Y-43436522D01*
X158710649Y-43499781D01*
X158528259Y-43592715D01*
X158362659Y-43713028D01*
X158217905Y-43857782D01*
X158191541Y-43894070D01*
X158136211Y-43936735D01*
X158066597Y-43942714D01*
X158004802Y-43910108D01*
X157970445Y-43849269D01*
X157967933Y-43834438D01*
X157965843Y-43815000D01*
X157963964Y-43797517D01*
X157913669Y-43662669D01*
X157913668Y-43662668D01*
X157913666Y-43662664D01*
X157827420Y-43547455D01*
X157827417Y-43547452D01*
X157712208Y-43461206D01*
X157712201Y-43461202D01*
X157577355Y-43410908D01*
X157577356Y-43410908D01*
X157517756Y-43404501D01*
X157517754Y-43404500D01*
X157517746Y-43404500D01*
X157517737Y-43404500D01*
X155822002Y-43404500D01*
X155821996Y-43404501D01*
X155762389Y-43410908D01*
X155627544Y-43461202D01*
X155627537Y-43461206D01*
X155512328Y-43547452D01*
X155512325Y-43547455D01*
X155426079Y-43662664D01*
X155426075Y-43662671D01*
X155375781Y-43797517D01*
X155369374Y-43857116D01*
X155369373Y-43857135D01*
X141801812Y-43857135D01*
X141743661Y-43838241D01*
X141677537Y-43827768D01*
X141677537Y-44875854D01*
X141610880Y-44837370D01*
X141490072Y-44805000D01*
X141365002Y-44805000D01*
X141244194Y-44837370D01*
X141177537Y-44875854D01*
X141177537Y-43827768D01*
X141177536Y-43827768D01*
X141111412Y-43838241D01*
X140909321Y-43903903D01*
X140719979Y-44000379D01*
X140548077Y-44125272D01*
X140548072Y-44125276D01*
X140397813Y-44275535D01*
X140397809Y-44275540D01*
X140278164Y-44440218D01*
X140222834Y-44482884D01*
X140153221Y-44488863D01*
X140091426Y-44456257D01*
X140077528Y-44440218D01*
X139957646Y-44275214D01*
X139957642Y-44275209D01*
X139807323Y-44124890D01*
X139635357Y-43999951D01*
X139445951Y-43903444D01*
X139445950Y-43903443D01*
X139445949Y-43903443D01*
X139243780Y-43837754D01*
X139243778Y-43837753D01*
X139243777Y-43837753D01*
X139082494Y-43812208D01*
X139033824Y-43804500D01*
X138821250Y-43804500D01*
X138772579Y-43812208D01*
X138611297Y-43837753D01*
X138409122Y-43903444D01*
X138219716Y-43999951D01*
X138047752Y-44124889D01*
X137908935Y-44263706D01*
X137847612Y-44297190D01*
X137777920Y-44292206D01*
X137721987Y-44250334D01*
X137715715Y-44241120D01*
X137620249Y-44086344D01*
X137496194Y-43962289D01*
X137496193Y-43962288D01*
X137346871Y-43870186D01*
X137180334Y-43815001D01*
X137180332Y-43815000D01*
X137077547Y-43804500D01*
X135777535Y-43804500D01*
X135777518Y-43804501D01*
X135674740Y-43815000D01*
X135674737Y-43815001D01*
X135508205Y-43870185D01*
X135508200Y-43870187D01*
X135358879Y-43962289D01*
X135234826Y-44086342D01*
X135142724Y-44235663D01*
X135142722Y-44235668D01*
X135137862Y-44250334D01*
X135087538Y-44402203D01*
X135087538Y-44402204D01*
X135087537Y-44402204D01*
X135077037Y-44504983D01*
X132470373Y-44504983D01*
X132470373Y-38654983D01*
X135077037Y-38654983D01*
X135077037Y-40205001D01*
X135077038Y-40205018D01*
X135087537Y-40307796D01*
X135087538Y-40307799D01*
X135133431Y-40446294D01*
X135142723Y-40474334D01*
X135234825Y-40623656D01*
X135358881Y-40747712D01*
X135508203Y-40839814D01*
X135674740Y-40894999D01*
X135777528Y-40905500D01*
X137077545Y-40905499D01*
X137180334Y-40894999D01*
X137346871Y-40839814D01*
X137496193Y-40747712D01*
X137620249Y-40623656D01*
X137712351Y-40474334D01*
X137712351Y-40474331D01*
X137715715Y-40468879D01*
X137767663Y-40422154D01*
X137836625Y-40410931D01*
X137900707Y-40438774D01*
X137908935Y-40446294D01*
X138047750Y-40585109D01*
X138219716Y-40710048D01*
X138219718Y-40710049D01*
X138219721Y-40710051D01*
X138409125Y-40806557D01*
X138611294Y-40872246D01*
X138821250Y-40905500D01*
X138821251Y-40905500D01*
X139033823Y-40905500D01*
X139033824Y-40905500D01*
X139037006Y-40904996D01*
X150039308Y-40904996D01*
X150039308Y-40905003D01*
X150059503Y-41084249D01*
X150059504Y-41084254D01*
X150119084Y-41254523D01*
X150215057Y-41407262D01*
X150342611Y-41534816D01*
X150495351Y-41630789D01*
X150665618Y-41690368D01*
X150665623Y-41690369D01*
X150844869Y-41710565D01*
X150844873Y-41710565D01*
X150844877Y-41710565D01*
X151024122Y-41690369D01*
X151024125Y-41690368D01*
X151024128Y-41690368D01*
X151194395Y-41630789D01*
X151347135Y-41534816D01*
X151474689Y-41407262D01*
X151570662Y-41254522D01*
X151630241Y-41084255D01*
X151650438Y-40905000D01*
X151649311Y-40894999D01*
X151630242Y-40725750D01*
X151630241Y-40725745D01*
X151594519Y-40623657D01*
X151570662Y-40555478D01*
X151474689Y-40402738D01*
X151347135Y-40275184D01*
X151338536Y-40269781D01*
X151194396Y-40179211D01*
X151024127Y-40119631D01*
X151024122Y-40119630D01*
X150844877Y-40099435D01*
X150844869Y-40099435D01*
X150665623Y-40119630D01*
X150665618Y-40119631D01*
X150495349Y-40179211D01*
X150342610Y-40275184D01*
X150215057Y-40402737D01*
X150119084Y-40555476D01*
X150059504Y-40725745D01*
X150059503Y-40725750D01*
X150039308Y-40904996D01*
X139037006Y-40904996D01*
X139243780Y-40872246D01*
X139445949Y-40806557D01*
X139635353Y-40710051D01*
X139657326Y-40694086D01*
X139807323Y-40585109D01*
X139807325Y-40585106D01*
X139807329Y-40585104D01*
X139957641Y-40434792D01*
X140077528Y-40269779D01*
X140132857Y-40227115D01*
X140202470Y-40221136D01*
X140264266Y-40253741D01*
X140278164Y-40269781D01*
X140397809Y-40434459D01*
X140397813Y-40434464D01*
X140548072Y-40584723D01*
X140548077Y-40584727D01*
X140719979Y-40709620D01*
X140909319Y-40806095D01*
X141111408Y-40871757D01*
X141177537Y-40882231D01*
X141177537Y-39834145D01*
X141244194Y-39872630D01*
X141365002Y-39905000D01*
X141490072Y-39905000D01*
X141610880Y-39872630D01*
X141677537Y-39834145D01*
X141677537Y-40882230D01*
X141743663Y-40871757D01*
X141743666Y-40871757D01*
X141945754Y-40806095D01*
X142135094Y-40709620D01*
X142306996Y-40584727D01*
X142307001Y-40584723D01*
X142457260Y-40434464D01*
X142457264Y-40434459D01*
X142582157Y-40262557D01*
X142678632Y-40073217D01*
X142744294Y-39871130D01*
X142744294Y-39871127D01*
X142774567Y-39680000D01*
X141831683Y-39680000D01*
X141870167Y-39613343D01*
X141902537Y-39492535D01*
X141902537Y-39367465D01*
X141870167Y-39246657D01*
X141831683Y-39180000D01*
X142774567Y-39180000D01*
X142744294Y-38988872D01*
X142744294Y-38988869D01*
X142678632Y-38786782D01*
X142582157Y-38597442D01*
X142457264Y-38425540D01*
X142457260Y-38425535D01*
X142307001Y-38275276D01*
X142306996Y-38275272D01*
X142135094Y-38150379D01*
X141945752Y-38053903D01*
X141743661Y-37988241D01*
X141677537Y-37977768D01*
X141677537Y-39025854D01*
X141610880Y-38987370D01*
X141490072Y-38955000D01*
X141365002Y-38955000D01*
X141244194Y-38987370D01*
X141177537Y-39025854D01*
X141177537Y-37977768D01*
X141177536Y-37977768D01*
X141111412Y-37988241D01*
X140909321Y-38053903D01*
X140719979Y-38150379D01*
X140548077Y-38275272D01*
X140548072Y-38275276D01*
X140397813Y-38425535D01*
X140397809Y-38425540D01*
X140278164Y-38590218D01*
X140222834Y-38632884D01*
X140153221Y-38638863D01*
X140091426Y-38606257D01*
X140077528Y-38590218D01*
X139957646Y-38425214D01*
X139957642Y-38425209D01*
X139807323Y-38274890D01*
X139635357Y-38149951D01*
X139445951Y-38053444D01*
X139445950Y-38053443D01*
X139445949Y-38053443D01*
X139243780Y-37987754D01*
X139243778Y-37987753D01*
X139243777Y-37987753D01*
X139082494Y-37962208D01*
X139033824Y-37954500D01*
X138821250Y-37954500D01*
X138772579Y-37962208D01*
X138611297Y-37987753D01*
X138409122Y-38053444D01*
X138219716Y-38149951D01*
X138047752Y-38274889D01*
X137908935Y-38413706D01*
X137847612Y-38447190D01*
X137777920Y-38442206D01*
X137721987Y-38400334D01*
X137715715Y-38391120D01*
X137711342Y-38384031D01*
X137620249Y-38236344D01*
X137496193Y-38112288D01*
X137346871Y-38020186D01*
X137180334Y-37965001D01*
X137180332Y-37965000D01*
X137077547Y-37954500D01*
X135777535Y-37954500D01*
X135777518Y-37954501D01*
X135674740Y-37965000D01*
X135674737Y-37965001D01*
X135508205Y-38020185D01*
X135508200Y-38020187D01*
X135358879Y-38112289D01*
X135234826Y-38236342D01*
X135142724Y-38385663D01*
X135142722Y-38385668D01*
X135130311Y-38423123D01*
X135087538Y-38552203D01*
X135087538Y-38552204D01*
X135087537Y-38552204D01*
X135077037Y-38654983D01*
X132470373Y-38654983D01*
X132470373Y-36982682D01*
X155369873Y-36982682D01*
X155369873Y-37235000D01*
X156354187Y-37235000D01*
X156349793Y-37239394D01*
X156297132Y-37330606D01*
X156269873Y-37432339D01*
X156269873Y-37537661D01*
X156297132Y-37639394D01*
X156349793Y-37730606D01*
X156354187Y-37735000D01*
X155369873Y-37735000D01*
X155369873Y-37987317D01*
X155401882Y-38189417D01*
X155465117Y-38384031D01*
X155558013Y-38566349D01*
X155678290Y-38731894D01*
X155678290Y-38731895D01*
X155822977Y-38876582D01*
X155988523Y-38996859D01*
X156170841Y-39089754D01*
X156365451Y-39152988D01*
X156419873Y-39161607D01*
X156419873Y-37800686D01*
X156424267Y-37805080D01*
X156515479Y-37857741D01*
X156617212Y-37885000D01*
X156722534Y-37885000D01*
X156824267Y-37857741D01*
X156915479Y-37805080D01*
X156919873Y-37800686D01*
X156919873Y-39161606D01*
X156974294Y-39152988D01*
X157168904Y-39089754D01*
X157351222Y-38996859D01*
X157516767Y-38876582D01*
X157516768Y-38876582D01*
X157661455Y-38731895D01*
X157661455Y-38731894D01*
X157781734Y-38566347D01*
X157829107Y-38473371D01*
X157877081Y-38422575D01*
X157944901Y-38405779D01*
X158011037Y-38428316D01*
X158050076Y-38473369D01*
X158097586Y-38566611D01*
X158217901Y-38732213D01*
X158362659Y-38876971D01*
X158470059Y-38955000D01*
X158528263Y-38997287D01*
X158644480Y-39056503D01*
X158710649Y-39090218D01*
X158710651Y-39090218D01*
X158710654Y-39090220D01*
X158815010Y-39124127D01*
X158905338Y-39153477D01*
X159006430Y-39169488D01*
X159107521Y-39185500D01*
X159107522Y-39185500D01*
X159312224Y-39185500D01*
X159312225Y-39185500D01*
X159514407Y-39153477D01*
X159709092Y-39090220D01*
X159891483Y-38997287D01*
X159984463Y-38929732D01*
X160057086Y-38876971D01*
X160057088Y-38876968D01*
X160057092Y-38876966D01*
X160201839Y-38732219D01*
X160201841Y-38732215D01*
X160201844Y-38732213D01*
X160322157Y-38566614D01*
X160322159Y-38566611D01*
X160322160Y-38566610D01*
X160369389Y-38473917D01*
X160417362Y-38423123D01*
X160485183Y-38406328D01*
X160551318Y-38428865D01*
X160590358Y-38473919D01*
X160637588Y-38566614D01*
X160757901Y-38732213D01*
X160902659Y-38876971D01*
X161010059Y-38955000D01*
X161068263Y-38997287D01*
X161184480Y-39056503D01*
X161250649Y-39090218D01*
X161250651Y-39090218D01*
X161250654Y-39090220D01*
X161355010Y-39124127D01*
X161445338Y-39153477D01*
X161546430Y-39169488D01*
X161647521Y-39185500D01*
X161647522Y-39185500D01*
X161852224Y-39185500D01*
X161852225Y-39185500D01*
X162054407Y-39153477D01*
X162249092Y-39090220D01*
X162431483Y-38997287D01*
X162524463Y-38929732D01*
X162597086Y-38876971D01*
X162597088Y-38876968D01*
X162597092Y-38876966D01*
X162741839Y-38732219D01*
X162741841Y-38732215D01*
X162741844Y-38732213D01*
X162862157Y-38566614D01*
X162862159Y-38566611D01*
X162862160Y-38566610D01*
X162909389Y-38473917D01*
X162957362Y-38423123D01*
X163025183Y-38406328D01*
X163091318Y-38428865D01*
X163130358Y-38473919D01*
X163177588Y-38566614D01*
X163297901Y-38732213D01*
X163442659Y-38876971D01*
X163550059Y-38955000D01*
X163608263Y-38997287D01*
X163724480Y-39056503D01*
X163790649Y-39090218D01*
X163790651Y-39090218D01*
X163790654Y-39090220D01*
X163895010Y-39124127D01*
X163985338Y-39153477D01*
X164086430Y-39169488D01*
X164187521Y-39185500D01*
X164187522Y-39185500D01*
X164392224Y-39185500D01*
X164392225Y-39185500D01*
X164594407Y-39153477D01*
X164789092Y-39090220D01*
X164971483Y-38997287D01*
X165064463Y-38929732D01*
X165137086Y-38876971D01*
X165137088Y-38876968D01*
X165137092Y-38876966D01*
X165281839Y-38732219D01*
X165281841Y-38732215D01*
X165281844Y-38732213D01*
X165337954Y-38654983D01*
X165402160Y-38566610D01*
X165495093Y-38384219D01*
X165558350Y-38189534D01*
X165590373Y-37987352D01*
X165590373Y-36982648D01*
X165559873Y-36790081D01*
X165558350Y-36780465D01*
X165529000Y-36690137D01*
X165495093Y-36585781D01*
X165495091Y-36585778D01*
X165495091Y-36585776D01*
X165402292Y-36403650D01*
X165402160Y-36403390D01*
X165394429Y-36392749D01*
X165281844Y-36237786D01*
X165137086Y-36093028D01*
X164971486Y-35972715D01*
X164971485Y-35972714D01*
X164971483Y-35972713D01*
X164884585Y-35928436D01*
X164789096Y-35879781D01*
X164594407Y-35816522D01*
X164419868Y-35788878D01*
X164392225Y-35784500D01*
X164187521Y-35784500D01*
X164163202Y-35788351D01*
X163985338Y-35816522D01*
X163790649Y-35879781D01*
X163608259Y-35972715D01*
X163442659Y-36093028D01*
X163297901Y-36237786D01*
X163177588Y-36403386D01*
X163130358Y-36496080D01*
X163082383Y-36546876D01*
X163014562Y-36563671D01*
X162948427Y-36541134D01*
X162909388Y-36496080D01*
X162862292Y-36403650D01*
X162862160Y-36403390D01*
X162854429Y-36392749D01*
X162741844Y-36237786D01*
X162597086Y-36093028D01*
X162431486Y-35972715D01*
X162431485Y-35972714D01*
X162431483Y-35972713D01*
X162344585Y-35928436D01*
X162249096Y-35879781D01*
X162054407Y-35816522D01*
X161879868Y-35788878D01*
X161852225Y-35784500D01*
X161647521Y-35784500D01*
X161623202Y-35788351D01*
X161445338Y-35816522D01*
X161250649Y-35879781D01*
X161068259Y-35972715D01*
X160902659Y-36093028D01*
X160757901Y-36237786D01*
X160637588Y-36403386D01*
X160590358Y-36496080D01*
X160542383Y-36546876D01*
X160474562Y-36563671D01*
X160408427Y-36541134D01*
X160369388Y-36496080D01*
X160322292Y-36403650D01*
X160322160Y-36403390D01*
X160314429Y-36392749D01*
X160201844Y-36237786D01*
X160057086Y-36093028D01*
X159891486Y-35972715D01*
X159891485Y-35972714D01*
X159891483Y-35972713D01*
X159804585Y-35928436D01*
X159709096Y-35879781D01*
X159514407Y-35816522D01*
X159339868Y-35788878D01*
X159312225Y-35784500D01*
X159107521Y-35784500D01*
X159083202Y-35788351D01*
X158905338Y-35816522D01*
X158710649Y-35879781D01*
X158528259Y-35972715D01*
X158362659Y-36093028D01*
X158217901Y-36237786D01*
X158097586Y-36403388D01*
X158050076Y-36496630D01*
X158002101Y-36547426D01*
X157934280Y-36564220D01*
X157868145Y-36541682D01*
X157829107Y-36496628D01*
X157781734Y-36403652D01*
X157661455Y-36238105D01*
X157661455Y-36238104D01*
X157516768Y-36093417D01*
X157461662Y-36053380D01*
X157418997Y-35998050D01*
X157413018Y-35928436D01*
X157445624Y-35866641D01*
X157506463Y-35832284D01*
X157520662Y-35829842D01*
X157556550Y-35825798D01*
X157649123Y-35815369D01*
X157649126Y-35815368D01*
X157649128Y-35815368D01*
X157819395Y-35755789D01*
X157972135Y-35659816D01*
X158099689Y-35532262D01*
X158195662Y-35379522D01*
X158255241Y-35209255D01*
X158275438Y-35030000D01*
X158274564Y-35022246D01*
X158255242Y-34850750D01*
X158255241Y-34850745D01*
X158214776Y-34735104D01*
X158195662Y-34680478D01*
X158099689Y-34527738D01*
X157972135Y-34400184D01*
X157935421Y-34377115D01*
X157819396Y-34304211D01*
X157649127Y-34244631D01*
X157649122Y-34244630D01*
X157469877Y-34224435D01*
X157469869Y-34224435D01*
X157290623Y-34244630D01*
X157290618Y-34244631D01*
X157120349Y-34304211D01*
X156967610Y-34400184D01*
X156840057Y-34527737D01*
X156744084Y-34680476D01*
X156684504Y-34850745D01*
X156684503Y-34850750D01*
X156664308Y-35029996D01*
X156664308Y-35030003D01*
X156684503Y-35209249D01*
X156684504Y-35209254D01*
X156744084Y-35379523D01*
X156840057Y-35532262D01*
X156930901Y-35623106D01*
X156964386Y-35684429D01*
X156959402Y-35754121D01*
X156923753Y-35805077D01*
X156919873Y-35808390D01*
X156919873Y-37169314D01*
X156915479Y-37164920D01*
X156824267Y-37112259D01*
X156722534Y-37085000D01*
X156617212Y-37085000D01*
X156515479Y-37112259D01*
X156424267Y-37164920D01*
X156419873Y-37169314D01*
X156419873Y-35808390D01*
X156365459Y-35817009D01*
X156170843Y-35880244D01*
X155988523Y-35973140D01*
X155822978Y-36093417D01*
X155822977Y-36093417D01*
X155678290Y-36238104D01*
X155678290Y-36238105D01*
X155558013Y-36403650D01*
X155465117Y-36585968D01*
X155401882Y-36780582D01*
X155369873Y-36982682D01*
X132470373Y-36982682D01*
X132470373Y-32804983D01*
X135077037Y-32804983D01*
X135077037Y-34355001D01*
X135077038Y-34355018D01*
X135087537Y-34457796D01*
X135087538Y-34457799D01*
X135133431Y-34596294D01*
X135142723Y-34624334D01*
X135234825Y-34773656D01*
X135358881Y-34897712D01*
X135508203Y-34989814D01*
X135674740Y-35044999D01*
X135777528Y-35055500D01*
X137077545Y-35055499D01*
X137180334Y-35044999D01*
X137346871Y-34989814D01*
X137496193Y-34897712D01*
X137620249Y-34773656D01*
X137712351Y-34624334D01*
X137712351Y-34624331D01*
X137715715Y-34618879D01*
X137767663Y-34572154D01*
X137836625Y-34560931D01*
X137900707Y-34588774D01*
X137908935Y-34596294D01*
X138047750Y-34735109D01*
X138219716Y-34860048D01*
X138219718Y-34860049D01*
X138219721Y-34860051D01*
X138409125Y-34956557D01*
X138611294Y-35022246D01*
X138821250Y-35055500D01*
X138821251Y-35055500D01*
X139033823Y-35055500D01*
X139033824Y-35055500D01*
X139243780Y-35022246D01*
X139445949Y-34956557D01*
X139635353Y-34860051D01*
X139657326Y-34844086D01*
X139807323Y-34735109D01*
X139807325Y-34735106D01*
X139807329Y-34735104D01*
X139957641Y-34584792D01*
X140077528Y-34419779D01*
X140132857Y-34377115D01*
X140202470Y-34371136D01*
X140264266Y-34403741D01*
X140278164Y-34419781D01*
X140397809Y-34584459D01*
X140397813Y-34584464D01*
X140548072Y-34734723D01*
X140548077Y-34734727D01*
X140719979Y-34859620D01*
X140909319Y-34956095D01*
X141111408Y-35021757D01*
X141177537Y-35032231D01*
X141177537Y-33984145D01*
X141244194Y-34022630D01*
X141365002Y-34055000D01*
X141490072Y-34055000D01*
X141610880Y-34022630D01*
X141677537Y-33984145D01*
X141677537Y-35032230D01*
X141743663Y-35021757D01*
X141743666Y-35021757D01*
X141945754Y-34956095D01*
X142135094Y-34859620D01*
X142306996Y-34734727D01*
X142307001Y-34734723D01*
X142457260Y-34584464D01*
X142457264Y-34584459D01*
X142582157Y-34412557D01*
X142678632Y-34223217D01*
X142744294Y-34021130D01*
X142744294Y-34021127D01*
X142774567Y-33830000D01*
X141831683Y-33830000D01*
X141870167Y-33763343D01*
X141902537Y-33642535D01*
X141902537Y-33517465D01*
X141870167Y-33396657D01*
X141831683Y-33330000D01*
X142774567Y-33330000D01*
X142744294Y-33138872D01*
X142744294Y-33138869D01*
X142678632Y-32936782D01*
X142582157Y-32747442D01*
X142457264Y-32575540D01*
X142457260Y-32575535D01*
X142307001Y-32425276D01*
X142306996Y-32425272D01*
X142135094Y-32300379D01*
X141945752Y-32203903D01*
X141743661Y-32138241D01*
X141677537Y-32127768D01*
X141677537Y-33175854D01*
X141610880Y-33137370D01*
X141490072Y-33105000D01*
X141365002Y-33105000D01*
X141244194Y-33137370D01*
X141177537Y-33175854D01*
X141177537Y-32127768D01*
X141177536Y-32127768D01*
X141111412Y-32138241D01*
X140909321Y-32203903D01*
X140719979Y-32300379D01*
X140548077Y-32425272D01*
X140548072Y-32425276D01*
X140397813Y-32575535D01*
X140397809Y-32575540D01*
X140278164Y-32740218D01*
X140222834Y-32782884D01*
X140153221Y-32788863D01*
X140091426Y-32756257D01*
X140077528Y-32740218D01*
X139957646Y-32575214D01*
X139957642Y-32575209D01*
X139807323Y-32424890D01*
X139635357Y-32299951D01*
X139445951Y-32203444D01*
X139445950Y-32203443D01*
X139445949Y-32203443D01*
X139243780Y-32137754D01*
X139243778Y-32137753D01*
X139243777Y-32137753D01*
X139082494Y-32112208D01*
X139033824Y-32104500D01*
X138821250Y-32104500D01*
X138772579Y-32112208D01*
X138611297Y-32137753D01*
X138409122Y-32203444D01*
X138219716Y-32299951D01*
X138047752Y-32424889D01*
X137908935Y-32563706D01*
X137847612Y-32597190D01*
X137777920Y-32592206D01*
X137721987Y-32550334D01*
X137715715Y-32541120D01*
X137620249Y-32386344D01*
X137496194Y-32262289D01*
X137496193Y-32262288D01*
X137346871Y-32170186D01*
X137180334Y-32115001D01*
X137180332Y-32115000D01*
X137077547Y-32104500D01*
X135777535Y-32104500D01*
X135777518Y-32104501D01*
X135674740Y-32115000D01*
X135674737Y-32115001D01*
X135508205Y-32170185D01*
X135508200Y-32170187D01*
X135358879Y-32262289D01*
X135234826Y-32386342D01*
X135142724Y-32535663D01*
X135142722Y-32535668D01*
X135137862Y-32550334D01*
X135087538Y-32702203D01*
X135087538Y-32702204D01*
X135087537Y-32702204D01*
X135077037Y-32804983D01*
X132470373Y-32804983D01*
X132470373Y-26954983D01*
X135077037Y-26954983D01*
X135077037Y-28505001D01*
X135077038Y-28505018D01*
X135087537Y-28607796D01*
X135087538Y-28607799D01*
X135131845Y-28741506D01*
X135142723Y-28774334D01*
X135234825Y-28923656D01*
X135358881Y-29047712D01*
X135508203Y-29139814D01*
X135674740Y-29194999D01*
X135777528Y-29205500D01*
X137077545Y-29205499D01*
X137180334Y-29194999D01*
X137346871Y-29139814D01*
X137496193Y-29047712D01*
X137620249Y-28923656D01*
X137712351Y-28774334D01*
X137712351Y-28774331D01*
X137715715Y-28768879D01*
X137767663Y-28722154D01*
X137836625Y-28710931D01*
X137900707Y-28738774D01*
X137908935Y-28746294D01*
X138047750Y-28885109D01*
X138219716Y-29010048D01*
X138219718Y-29010049D01*
X138219721Y-29010051D01*
X138409125Y-29106557D01*
X138611294Y-29172246D01*
X138821250Y-29205500D01*
X138821251Y-29205500D01*
X139033823Y-29205500D01*
X139033824Y-29205500D01*
X139243780Y-29172246D01*
X139445949Y-29106557D01*
X139635353Y-29010051D01*
X139657326Y-28994086D01*
X139807323Y-28885109D01*
X139807325Y-28885106D01*
X139807329Y-28885104D01*
X139957641Y-28734792D01*
X140077528Y-28569779D01*
X140132857Y-28527115D01*
X140202470Y-28521136D01*
X140264266Y-28553741D01*
X140278164Y-28569781D01*
X140397809Y-28734459D01*
X140397813Y-28734464D01*
X140548072Y-28884723D01*
X140548077Y-28884727D01*
X140719979Y-29009620D01*
X140909319Y-29106095D01*
X141111408Y-29171757D01*
X141177537Y-29182231D01*
X141177537Y-28134145D01*
X141244194Y-28172630D01*
X141365002Y-28205000D01*
X141490072Y-28205000D01*
X141610880Y-28172630D01*
X141677537Y-28134145D01*
X141677537Y-29182230D01*
X141743663Y-29171757D01*
X141743666Y-29171757D01*
X141945754Y-29106095D01*
X142135094Y-29009620D01*
X142306996Y-28884727D01*
X142307001Y-28884723D01*
X142309589Y-28882135D01*
X152249373Y-28882135D01*
X152249373Y-30677870D01*
X152249374Y-30677876D01*
X152255781Y-30737483D01*
X152306075Y-30872328D01*
X152306079Y-30872335D01*
X152392325Y-30987544D01*
X152392328Y-30987547D01*
X152507537Y-31073793D01*
X152507544Y-31073797D01*
X152642390Y-31124091D01*
X152642389Y-31124091D01*
X152649317Y-31124835D01*
X152702000Y-31130500D01*
X154497745Y-31130499D01*
X154557356Y-31124091D01*
X154692204Y-31073796D01*
X154807419Y-30987546D01*
X154893669Y-30872331D01*
X154942683Y-30740916D01*
X154984554Y-30684984D01*
X155050018Y-30660566D01*
X155118291Y-30675417D01*
X155146546Y-30696569D01*
X155268472Y-30818495D01*
X155365257Y-30886265D01*
X155462038Y-30954032D01*
X155462040Y-30954033D01*
X155462043Y-30954035D01*
X155676210Y-31053903D01*
X155904465Y-31115063D01*
X156080907Y-31130500D01*
X156139872Y-31135659D01*
X156139873Y-31135659D01*
X156139874Y-31135659D01*
X156198839Y-31130500D01*
X156375281Y-31115063D01*
X156603536Y-31053903D01*
X156817703Y-30954035D01*
X157011274Y-30818495D01*
X157178368Y-30651401D01*
X157308298Y-30465842D01*
X157362875Y-30422217D01*
X157432373Y-30415023D01*
X157494728Y-30446546D01*
X157511448Y-30465842D01*
X157641373Y-30651395D01*
X157641378Y-30651401D01*
X157808472Y-30818495D01*
X157905257Y-30886265D01*
X158002038Y-30954032D01*
X158002040Y-30954033D01*
X158002043Y-30954035D01*
X158216210Y-31053903D01*
X158444465Y-31115063D01*
X158620907Y-31130500D01*
X158679872Y-31135659D01*
X158679873Y-31135659D01*
X158679874Y-31135659D01*
X158738839Y-31130500D01*
X158915281Y-31115063D01*
X159143536Y-31053903D01*
X159357703Y-30954035D01*
X159551274Y-30818495D01*
X159718368Y-30651401D01*
X159848298Y-30465842D01*
X159902875Y-30422217D01*
X159972373Y-30415023D01*
X160034728Y-30446546D01*
X160051448Y-30465842D01*
X160181373Y-30651395D01*
X160181378Y-30651401D01*
X160348472Y-30818495D01*
X160445257Y-30886265D01*
X160542038Y-30954032D01*
X160542040Y-30954033D01*
X160542043Y-30954035D01*
X160756210Y-31053903D01*
X160984465Y-31115063D01*
X161160907Y-31130500D01*
X161219872Y-31135659D01*
X161219873Y-31135659D01*
X161219874Y-31135659D01*
X161278839Y-31130500D01*
X161455281Y-31115063D01*
X161683536Y-31053903D01*
X161897703Y-30954035D01*
X162091274Y-30818495D01*
X162258368Y-30651401D01*
X162388298Y-30465842D01*
X162442875Y-30422217D01*
X162512373Y-30415023D01*
X162574728Y-30446546D01*
X162591448Y-30465842D01*
X162721373Y-30651395D01*
X162721378Y-30651401D01*
X162888472Y-30818495D01*
X162985257Y-30886265D01*
X163082038Y-30954032D01*
X163082040Y-30954033D01*
X163082043Y-30954035D01*
X163296210Y-31053903D01*
X163524465Y-31115063D01*
X163700907Y-31130500D01*
X163759872Y-31135659D01*
X163759873Y-31135659D01*
X163759874Y-31135659D01*
X163818839Y-31130500D01*
X163995281Y-31115063D01*
X164223536Y-31053903D01*
X164437703Y-30954035D01*
X164631274Y-30818495D01*
X164798368Y-30651401D01*
X164933908Y-30457830D01*
X165033776Y-30243663D01*
X165094936Y-30015408D01*
X165115532Y-29780000D01*
X165094936Y-29544592D01*
X165033776Y-29316337D01*
X164933908Y-29102171D01*
X164928298Y-29094158D01*
X164798367Y-28908597D01*
X164631275Y-28741506D01*
X164631268Y-28741501D01*
X164627373Y-28738774D01*
X164554391Y-28687671D01*
X164437707Y-28605967D01*
X164437703Y-28605965D01*
X164437701Y-28605964D01*
X164223536Y-28506097D01*
X164223532Y-28506096D01*
X164223528Y-28506094D01*
X163995286Y-28444938D01*
X163995276Y-28444936D01*
X163759874Y-28424341D01*
X163759872Y-28424341D01*
X163524469Y-28444936D01*
X163524459Y-28444938D01*
X163296217Y-28506094D01*
X163296208Y-28506098D01*
X163082044Y-28605964D01*
X163082042Y-28605965D01*
X162888470Y-28741505D01*
X162721378Y-28908597D01*
X162591448Y-29094158D01*
X162536871Y-29137783D01*
X162467373Y-29144977D01*
X162405018Y-29113454D01*
X162388298Y-29094158D01*
X162258367Y-28908597D01*
X162091275Y-28741506D01*
X162091268Y-28741501D01*
X162087373Y-28738774D01*
X162014391Y-28687671D01*
X161897707Y-28605967D01*
X161897703Y-28605965D01*
X161897701Y-28605964D01*
X161683536Y-28506097D01*
X161683532Y-28506096D01*
X161683528Y-28506094D01*
X161455286Y-28444938D01*
X161455276Y-28444936D01*
X161219874Y-28424341D01*
X161219872Y-28424341D01*
X160984469Y-28444936D01*
X160984459Y-28444938D01*
X160756217Y-28506094D01*
X160756208Y-28506098D01*
X160542044Y-28605964D01*
X160542042Y-28605965D01*
X160348470Y-28741505D01*
X160181378Y-28908597D01*
X160051448Y-29094158D01*
X159996871Y-29137783D01*
X159927373Y-29144977D01*
X159865018Y-29113454D01*
X159848298Y-29094158D01*
X159718367Y-28908597D01*
X159551275Y-28741506D01*
X159551268Y-28741501D01*
X159547373Y-28738774D01*
X159474391Y-28687671D01*
X159357707Y-28605967D01*
X159357703Y-28605965D01*
X159357701Y-28605964D01*
X159143536Y-28506097D01*
X159143532Y-28506096D01*
X159143528Y-28506094D01*
X158915286Y-28444938D01*
X158915276Y-28444936D01*
X158679874Y-28424341D01*
X158679872Y-28424341D01*
X158444469Y-28444936D01*
X158444459Y-28444938D01*
X158216217Y-28506094D01*
X158216208Y-28506098D01*
X158002044Y-28605964D01*
X158002042Y-28605965D01*
X157808470Y-28741505D01*
X157641378Y-28908597D01*
X157511448Y-29094158D01*
X157456871Y-29137783D01*
X157387373Y-29144977D01*
X157325018Y-29113454D01*
X157308298Y-29094158D01*
X157178367Y-28908597D01*
X157011275Y-28741506D01*
X157011268Y-28741501D01*
X157007373Y-28738774D01*
X156934391Y-28687671D01*
X156817707Y-28605967D01*
X156817703Y-28605965D01*
X156817701Y-28605964D01*
X156603536Y-28506097D01*
X156603532Y-28506096D01*
X156603528Y-28506094D01*
X156375286Y-28444938D01*
X156375276Y-28444936D01*
X156139874Y-28424341D01*
X156139872Y-28424341D01*
X155904469Y-28444936D01*
X155904459Y-28444938D01*
X155676217Y-28506094D01*
X155676208Y-28506098D01*
X155462044Y-28605964D01*
X155462042Y-28605965D01*
X155268473Y-28741503D01*
X155146546Y-28863430D01*
X155085223Y-28896914D01*
X155015531Y-28891930D01*
X154959598Y-28850058D01*
X154942683Y-28819081D01*
X154893670Y-28687671D01*
X154893666Y-28687664D01*
X154807420Y-28572455D01*
X154807417Y-28572452D01*
X154692208Y-28486206D01*
X154692201Y-28486202D01*
X154557355Y-28435908D01*
X154557356Y-28435908D01*
X154497756Y-28429501D01*
X154497754Y-28429500D01*
X154497746Y-28429500D01*
X154497737Y-28429500D01*
X152702002Y-28429500D01*
X152701996Y-28429501D01*
X152642389Y-28435908D01*
X152507544Y-28486202D01*
X152507537Y-28486206D01*
X152392328Y-28572452D01*
X152392325Y-28572455D01*
X152306079Y-28687664D01*
X152306075Y-28687671D01*
X152255781Y-28822517D01*
X152249374Y-28882116D01*
X152249373Y-28882135D01*
X142309589Y-28882135D01*
X142457260Y-28734464D01*
X142457264Y-28734459D01*
X142582157Y-28562557D01*
X142678632Y-28373217D01*
X142744294Y-28171130D01*
X142744294Y-28171127D01*
X142774567Y-27980000D01*
X141831683Y-27980000D01*
X141870167Y-27913343D01*
X141902537Y-27792535D01*
X141902537Y-27667465D01*
X141870167Y-27546657D01*
X141831683Y-27480000D01*
X142774567Y-27480000D01*
X142744294Y-27288872D01*
X142744294Y-27288869D01*
X142678632Y-27086782D01*
X142582157Y-26897442D01*
X142457264Y-26725540D01*
X142457260Y-26725535D01*
X142307001Y-26575276D01*
X142306996Y-26575272D01*
X142135094Y-26450379D01*
X141945752Y-26353903D01*
X141743661Y-26288241D01*
X141677537Y-26277768D01*
X141677537Y-27325854D01*
X141610880Y-27287370D01*
X141490072Y-27255000D01*
X141365002Y-27255000D01*
X141244194Y-27287370D01*
X141177537Y-27325854D01*
X141177537Y-26277768D01*
X141177536Y-26277768D01*
X141111412Y-26288241D01*
X140909321Y-26353903D01*
X140719979Y-26450379D01*
X140548077Y-26575272D01*
X140548072Y-26575276D01*
X140397813Y-26725535D01*
X140397809Y-26725540D01*
X140278164Y-26890218D01*
X140222834Y-26932884D01*
X140153221Y-26938863D01*
X140091426Y-26906257D01*
X140077528Y-26890218D01*
X139957646Y-26725214D01*
X139957642Y-26725209D01*
X139807323Y-26574890D01*
X139635357Y-26449951D01*
X139445951Y-26353444D01*
X139445950Y-26353443D01*
X139445949Y-26353443D01*
X139243780Y-26287754D01*
X139243778Y-26287753D01*
X139243777Y-26287753D01*
X139082494Y-26262208D01*
X139033824Y-26254500D01*
X138821250Y-26254500D01*
X138772579Y-26262208D01*
X138611297Y-26287753D01*
X138409122Y-26353444D01*
X138219716Y-26449951D01*
X138047752Y-26574889D01*
X137908935Y-26713706D01*
X137847612Y-26747190D01*
X137777920Y-26742206D01*
X137721987Y-26700334D01*
X137715715Y-26691120D01*
X137620249Y-26536344D01*
X137496194Y-26412289D01*
X137496193Y-26412288D01*
X137346871Y-26320186D01*
X137180334Y-26265001D01*
X137180332Y-26265000D01*
X137077547Y-26254500D01*
X135777535Y-26254500D01*
X135777518Y-26254501D01*
X135674740Y-26265000D01*
X135674737Y-26265001D01*
X135508205Y-26320185D01*
X135508200Y-26320187D01*
X135358879Y-26412289D01*
X135234826Y-26536342D01*
X135142724Y-26685663D01*
X135142722Y-26685668D01*
X135137862Y-26700334D01*
X135087538Y-26852203D01*
X135087538Y-26852204D01*
X135087537Y-26852204D01*
X135077037Y-26954983D01*
X132470373Y-26954983D01*
X132470373Y-21393389D01*
X155269373Y-21393389D01*
X155269373Y-21566611D01*
X155296471Y-21737701D01*
X155350000Y-21902445D01*
X155428641Y-22056788D01*
X155530459Y-22196928D01*
X155652945Y-22319414D01*
X155793085Y-22421232D01*
X155947428Y-22499873D01*
X156112172Y-22553402D01*
X156283262Y-22580500D01*
X156283263Y-22580500D01*
X156456483Y-22580500D01*
X156456484Y-22580500D01*
X156627574Y-22553402D01*
X156792318Y-22499873D01*
X156946661Y-22421232D01*
X157086801Y-22319414D01*
X157209287Y-22196928D01*
X157311105Y-22056788D01*
X157389746Y-21902445D01*
X157443275Y-21737701D01*
X157470373Y-21566611D01*
X157470373Y-21393389D01*
X162269373Y-21393389D01*
X162269373Y-21566611D01*
X162296471Y-21737701D01*
X162350000Y-21902445D01*
X162428641Y-22056788D01*
X162530459Y-22196928D01*
X162652945Y-22319414D01*
X162793085Y-22421232D01*
X162947428Y-22499873D01*
X163112172Y-22553402D01*
X163283262Y-22580500D01*
X163283263Y-22580500D01*
X163456483Y-22580500D01*
X163456484Y-22580500D01*
X163627574Y-22553402D01*
X163792318Y-22499873D01*
X163946661Y-22421232D01*
X164086801Y-22319414D01*
X164209287Y-22196928D01*
X164311105Y-22056788D01*
X164389746Y-21902445D01*
X164443275Y-21737701D01*
X164470373Y-21566611D01*
X164470373Y-21393389D01*
X164443275Y-21222299D01*
X164389746Y-21057555D01*
X164311105Y-20903212D01*
X164209287Y-20763072D01*
X164086801Y-20640586D01*
X163946661Y-20538768D01*
X163792318Y-20460127D01*
X163627574Y-20406598D01*
X163627572Y-20406597D01*
X163627571Y-20406597D01*
X163496144Y-20385781D01*
X163456484Y-20379500D01*
X163283262Y-20379500D01*
X163243601Y-20385781D01*
X163112175Y-20406597D01*
X162947425Y-20460128D01*
X162793084Y-20538768D01*
X162713129Y-20596859D01*
X162652945Y-20640586D01*
X162652943Y-20640588D01*
X162652942Y-20640588D01*
X162530461Y-20763069D01*
X162530461Y-20763070D01*
X162530459Y-20763072D01*
X162486732Y-20823256D01*
X162428641Y-20903211D01*
X162350001Y-21057552D01*
X162296470Y-21222302D01*
X162269373Y-21393389D01*
X157470373Y-21393389D01*
X157443275Y-21222299D01*
X157389746Y-21057555D01*
X157311105Y-20903212D01*
X157209287Y-20763072D01*
X157086801Y-20640586D01*
X156946661Y-20538768D01*
X156792318Y-20460127D01*
X156627574Y-20406598D01*
X156627572Y-20406597D01*
X156627571Y-20406597D01*
X156496144Y-20385781D01*
X156456484Y-20379500D01*
X156283262Y-20379500D01*
X156243601Y-20385781D01*
X156112175Y-20406597D01*
X155947425Y-20460128D01*
X155793084Y-20538768D01*
X155713129Y-20596859D01*
X155652945Y-20640586D01*
X155652943Y-20640588D01*
X155652942Y-20640588D01*
X155530461Y-20763069D01*
X155530461Y-20763070D01*
X155530459Y-20763072D01*
X155486732Y-20823256D01*
X155428641Y-20903211D01*
X155350001Y-21057552D01*
X155296470Y-21222302D01*
X155269373Y-21393389D01*
X132470373Y-21393389D01*
X132470373Y-15404500D01*
X132490058Y-15337461D01*
X132542862Y-15291706D01*
X132594373Y-15280500D01*
X166345373Y-15280500D01*
X166412412Y-15300185D01*
G37*
%TD.AperFunction*%
%TD*%
M02*
