%TF.GenerationSoftware,KiCad,Pcbnew,8.0.8*%
%TF.CreationDate,2025-03-24T10:48:50+01:00*%
%TF.ProjectId,Unit,556e6974-2e6b-4696-9361-645f70636258,rev?*%
%TF.SameCoordinates,Original*%
%TF.FileFunction,Copper,L3,Inr*%
%TF.FilePolarity,Positive*%
%FSLAX46Y46*%
G04 Gerber Fmt 4.6, Leading zero omitted, Abs format (unit mm)*
G04 Created by KiCad (PCBNEW 8.0.8) date 2025-03-24 10:48:50*
%MOMM*%
%LPD*%
G01*
G04 APERTURE LIST*
G04 Aperture macros list*
%AMRoundRect*
0 Rectangle with rounded corners*
0 $1 Rounding radius*
0 $2 $3 $4 $5 $6 $7 $8 $9 X,Y pos of 4 corners*
0 Add a 4 corners polygon primitive as box body*
4,1,4,$2,$3,$4,$5,$6,$7,$8,$9,$2,$3,0*
0 Add four circle primitives for the rounded corners*
1,1,$1+$1,$2,$3*
1,1,$1+$1,$4,$5*
1,1,$1+$1,$6,$7*
1,1,$1+$1,$8,$9*
0 Add four rect primitives between the rounded corners*
20,1,$1+$1,$2,$3,$4,$5,0*
20,1,$1+$1,$4,$5,$6,$7,0*
20,1,$1+$1,$6,$7,$8,$9,0*
20,1,$1+$1,$8,$9,$2,$3,0*%
G04 Aperture macros list end*
%TA.AperFunction,ComponentPad*%
%ADD10C,1.800000*%
%TD*%
%TA.AperFunction,ComponentPad*%
%ADD11RoundRect,0.250000X-0.600000X-0.725000X0.600000X-0.725000X0.600000X0.725000X-0.600000X0.725000X0*%
%TD*%
%TA.AperFunction,ComponentPad*%
%ADD12O,1.700000X1.950000*%
%TD*%
%TA.AperFunction,ComponentPad*%
%ADD13R,1.700000X1.700000*%
%TD*%
%TA.AperFunction,ComponentPad*%
%ADD14O,1.700000X1.700000*%
%TD*%
%TA.AperFunction,ComponentPad*%
%ADD15R,1.600000X2.400000*%
%TD*%
%TA.AperFunction,ComponentPad*%
%ADD16O,1.600000X2.400000*%
%TD*%
%TA.AperFunction,ViaPad*%
%ADD17C,0.600000*%
%TD*%
%TA.AperFunction,Conductor*%
%ADD18C,0.200000*%
%TD*%
G04 APERTURE END LIST*
D10*
%TO.N,+3.3V*%
%TO.C,RV5*%
X144427537Y-137230000D03*
%TO.N,Net-(U1-CH4)*%
X141927537Y-137230000D03*
%TO.N,GND*%
X139427537Y-137230000D03*
%TD*%
D11*
%TO.N,GND*%
%TO.C,J10*%
X136427537Y-51130000D03*
D12*
%TO.N,/Main_board/c4*%
X138927537Y-51130000D03*
%TO.N,+3.3V*%
X141427537Y-51130000D03*
%TD*%
D11*
%TO.N,GND*%
%TO.C,J9*%
X136427537Y-45280000D03*
D12*
%TO.N,/Main_board/c3*%
X138927537Y-45280000D03*
%TO.N,+3.3V*%
X141427537Y-45280000D03*
%TD*%
D11*
%TO.N,GND*%
%TO.C,J12*%
X136427537Y-62830000D03*
D12*
%TO.N,/Main_board/c6*%
X138927537Y-62830000D03*
%TO.N,+3.3V*%
X141427537Y-62830000D03*
%TD*%
D11*
%TO.N,GND*%
%TO.C,J8*%
X136427537Y-39430000D03*
D12*
%TO.N,/Main_board/c2*%
X138927537Y-39430000D03*
%TO.N,+3.3V*%
X141427537Y-39430000D03*
%TD*%
D13*
%TO.N,unconnected-(J4-Pad1)*%
%TO.C,J4*%
X153599873Y-29780000D03*
D14*
%TO.N,unconnected-(J4-Pad2)*%
X156139873Y-29780000D03*
%TO.N,unconnected-(J4-Pad3)*%
X158679873Y-29780000D03*
%TO.N,Net-(J4-Pad4)*%
X161219873Y-29780000D03*
%TO.N,Net-(U4-VO2)*%
X163759873Y-29780000D03*
%TD*%
D10*
%TO.N,+3.3V*%
%TO.C,RV1*%
X144427537Y-168130000D03*
%TO.N,Net-(U1-CH0)*%
X141927537Y-168130000D03*
%TO.N,GND*%
X139427537Y-168130000D03*
%TD*%
D11*
%TO.N,GND*%
%TO.C,J11*%
X136427537Y-56980000D03*
D12*
%TO.N,/Main_board/c5*%
X138927537Y-56980000D03*
%TO.N,+3.3V*%
X141427537Y-56980000D03*
%TD*%
D10*
%TO.N,+3.3V*%
%TO.C,RV4*%
X158777537Y-152680000D03*
%TO.N,Net-(U1-CH3)*%
X156277537Y-152680000D03*
%TO.N,GND*%
X153777537Y-152680000D03*
%TD*%
%TO.N,+3.3V*%
%TO.C,RV8*%
X158777537Y-121780000D03*
%TO.N,Net-(U1-CH7)*%
X156277537Y-121780000D03*
%TO.N,GND*%
X153777537Y-121780000D03*
%TD*%
%TO.N,+3.3V*%
%TO.C,RV2*%
X158777537Y-168130000D03*
%TO.N,Net-(U1-CH1)*%
X156277537Y-168130000D03*
%TO.N,GND*%
X153777537Y-168130000D03*
%TD*%
%TO.N,+3.3V*%
%TO.C,RV7*%
X144427537Y-121780000D03*
%TO.N,Net-(U1-CH6)*%
X141927537Y-121780000D03*
%TO.N,GND*%
X139427537Y-121780000D03*
%TD*%
D11*
%TO.N,GND*%
%TO.C,J6*%
X136427537Y-27730000D03*
D12*
%TO.N,/Main_board/c0*%
X138927537Y-27730000D03*
%TO.N,+3.3V*%
X141427537Y-27730000D03*
%TD*%
D15*
%TO.N,unconnected-(U4-NC-Pad1)*%
%TO.C,U4*%
X156669873Y-45105000D03*
D16*
%TO.N,Net-(U4-C1)*%
X159209873Y-45105000D03*
%TO.N,GND*%
X161749873Y-45105000D03*
%TO.N,unconnected-(U4-NC-Pad4)*%
X164289873Y-45105000D03*
%TO.N,GND*%
X164289873Y-37485000D03*
%TO.N,Net-(U4-VO2)*%
X161749873Y-37485000D03*
%TO.N,Net-(U4-VO1)*%
X159209873Y-37485000D03*
%TO.N,+3.3V*%
X156669873Y-37485000D03*
%TD*%
D14*
%TO.N,+3.3V*%
%TO.C,J1*%
X164000000Y-51960000D03*
D13*
%TO.N,/Raspberry_connections/GND*%
X164000000Y-49420000D03*
D14*
%TO.N,/Main_board/midi_in*%
X164000000Y-54500000D03*
%TO.N,/Main_board/DATA_IN_595*%
X164000000Y-57040000D03*
%TO.N,/Main_board/clock_595*%
X164000000Y-69740000D03*
%TO.N,/Main_board/LATCH_595*%
X164000000Y-59580000D03*
%TO.N,/Main_board/LOAD_165*%
X164000000Y-62120000D03*
%TO.N,/Main_board/clock_165*%
X164000000Y-64660000D03*
%TO.N,/Octaves board/DATA_IN_ADC*%
X164000000Y-77360000D03*
%TO.N,/Octaves board/DATA_OUT_ADC*%
X164000000Y-74820000D03*
%TO.N,/Main_board/DATA_OUT_165*%
X164000000Y-67200000D03*
%TO.N,/Octaves board/ADC_clock*%
X164000000Y-79900000D03*
%TO.N,/Octaves board/select*%
X164000000Y-72280000D03*
%TO.N,N/C*%
X164000000Y-82440000D03*
X164000000Y-84980000D03*
X164000000Y-87520000D03*
%TD*%
D10*
%TO.N,+3.3V*%
%TO.C,RV3*%
X144427537Y-152680000D03*
%TO.N,Net-(U1-CH2)*%
X141927537Y-152680000D03*
%TO.N,GND*%
X139427537Y-152680000D03*
%TD*%
%TO.N,+3.3V*%
%TO.C,RV6*%
X158777537Y-137230000D03*
%TO.N,Net-(U1-CH5)*%
X156277537Y-137230000D03*
%TO.N,GND*%
X153777537Y-137230000D03*
%TD*%
D11*
%TO.N,GND*%
%TO.C,J7*%
X136427537Y-33580000D03*
D12*
%TO.N,/Main_board/c1*%
X138927537Y-33580000D03*
%TO.N,+3.3V*%
X141427537Y-33580000D03*
%TD*%
D13*
%TO.N,/Main_board/jst0*%
%TO.C,J5*%
X135800000Y-75100000D03*
D14*
%TO.N,/Main_board/jst1*%
X135800000Y-77640000D03*
%TO.N,/Main_board/jst2*%
X135800000Y-80180000D03*
%TO.N,/Main_board/jst3*%
X135800000Y-82720000D03*
%TO.N,/Main_board/jst4*%
X135800000Y-85260000D03*
%TO.N,/Main_board/jst5*%
X135800000Y-87800000D03*
%TO.N,/Main_board/jst6*%
X135800000Y-90340000D03*
%TD*%
D17*
%TO.N,GND*%
X151219873Y-46030000D03*
X137969873Y-152680000D03*
X137519873Y-137230000D03*
X137969873Y-168780000D03*
X153469873Y-101280000D03*
X151119873Y-85730000D03*
X147219873Y-101280000D03*
X150844873Y-40905000D03*
X152469873Y-81030000D03*
X151969873Y-137280000D03*
X153719873Y-85780000D03*
X151469873Y-168280000D03*
X151969873Y-152780000D03*
X146219873Y-46030000D03*
%TO.N,+3.3V*%
X145719873Y-101280000D03*
X151219873Y-44530000D03*
X160569873Y-152680000D03*
X156219873Y-36780000D03*
X160469873Y-137280000D03*
X145969873Y-168280000D03*
X145994873Y-80780000D03*
X146469873Y-152780000D03*
X144719873Y-101280000D03*
X160469873Y-168280000D03*
X145969873Y-137280000D03*
X144794873Y-80780000D03*
X151219873Y-37030000D03*
%TO.N,/Main_board/jst6*%
X149869873Y-84205000D03*
%TO.N,/Main_board/jst5*%
X148494873Y-84130000D03*
%TO.N,Net-(U1-CH0)*%
X144577537Y-106280000D03*
%TO.N,Net-(U1-CH1)*%
X145847537Y-106280000D03*
%TO.N,/Main_board/clock_595*%
X149219873Y-50780000D03*
X157300000Y-69800000D03*
%TO.N,/Main_board/LATCH_595*%
X150969873Y-59369873D03*
X153044873Y-48955000D03*
%TO.N,/Main_board/LOAD_165*%
X157369873Y-89280000D03*
%TO.N,/Main_board/DATA_OUT_165*%
X153669873Y-80605000D03*
X154400000Y-71700000D03*
X154344873Y-80055000D03*
%TO.N,/Main_board/clock_165*%
X157244873Y-87830000D03*
%TO.N,/Octaves board/ADC_clock*%
X160950000Y-80450000D03*
%TO.N,Net-(U4-VO2)*%
X157469873Y-35030000D03*
%TD*%
D18*
%TO.N,/Raspberry_connections/GND*%
X164000000Y-49420000D02*
X164720000Y-48700000D01*
X164720000Y-48700000D02*
X165700000Y-48700000D01*
%TD*%
%TA.AperFunction,Conductor*%
%TO.N,GND*%
G36*
X166412412Y-15300185D02*
G01*
X166458167Y-15352989D01*
X166469373Y-15404500D01*
X166469373Y-48368818D01*
X166449688Y-48435857D01*
X166396884Y-48481612D01*
X166327726Y-48491556D01*
X166264170Y-48462531D01*
X166237986Y-48430818D01*
X166180522Y-48331287D01*
X166180518Y-48331282D01*
X166068717Y-48219481D01*
X166068709Y-48219475D01*
X165931790Y-48140426D01*
X165931786Y-48140424D01*
X165931784Y-48140423D01*
X165779057Y-48099500D01*
X165779056Y-48099500D01*
X165043106Y-48099500D01*
X164999773Y-48091682D01*
X164957482Y-48075908D01*
X164957483Y-48075908D01*
X164897883Y-48069501D01*
X164897881Y-48069500D01*
X164897873Y-48069500D01*
X164897864Y-48069500D01*
X163102129Y-48069500D01*
X163102123Y-48069501D01*
X163042516Y-48075908D01*
X162907671Y-48126202D01*
X162907664Y-48126206D01*
X162792455Y-48212452D01*
X162792452Y-48212455D01*
X162706206Y-48327664D01*
X162706202Y-48327671D01*
X162655908Y-48462517D01*
X162649501Y-48522116D01*
X162649500Y-48522135D01*
X162649500Y-50317870D01*
X162649501Y-50317876D01*
X162655908Y-50377483D01*
X162706202Y-50512328D01*
X162706206Y-50512335D01*
X162792452Y-50627544D01*
X162792455Y-50627547D01*
X162907664Y-50713793D01*
X162907671Y-50713797D01*
X163039081Y-50762810D01*
X163095015Y-50804681D01*
X163119432Y-50870145D01*
X163104580Y-50938418D01*
X163083430Y-50966673D01*
X162961503Y-51088600D01*
X162825965Y-51282169D01*
X162825964Y-51282171D01*
X162726098Y-51496335D01*
X162726094Y-51496344D01*
X162664938Y-51724586D01*
X162664936Y-51724596D01*
X162644341Y-51959999D01*
X162644341Y-51960000D01*
X162664936Y-52195403D01*
X162664938Y-52195413D01*
X162726094Y-52423655D01*
X162726096Y-52423659D01*
X162726097Y-52423663D01*
X162780046Y-52539356D01*
X162825965Y-52637830D01*
X162825967Y-52637834D01*
X162961501Y-52831395D01*
X162961506Y-52831402D01*
X163128597Y-52998493D01*
X163128603Y-52998498D01*
X163314158Y-53128425D01*
X163357783Y-53183002D01*
X163364977Y-53252500D01*
X163333454Y-53314855D01*
X163314158Y-53331575D01*
X163128597Y-53461505D01*
X162961505Y-53628597D01*
X162825965Y-53822169D01*
X162825964Y-53822171D01*
X162726098Y-54036335D01*
X162726094Y-54036344D01*
X162664938Y-54264586D01*
X162664936Y-54264596D01*
X162644341Y-54499999D01*
X162644341Y-54500000D01*
X162664936Y-54735403D01*
X162664938Y-54735413D01*
X162726094Y-54963655D01*
X162726096Y-54963659D01*
X162726097Y-54963663D01*
X162825965Y-55177830D01*
X162825967Y-55177834D01*
X162961501Y-55371395D01*
X162961506Y-55371402D01*
X163128597Y-55538493D01*
X163128603Y-55538498D01*
X163314158Y-55668425D01*
X163357783Y-55723002D01*
X163364977Y-55792500D01*
X163333454Y-55854855D01*
X163314158Y-55871575D01*
X163128597Y-56001505D01*
X162961505Y-56168597D01*
X162825965Y-56362169D01*
X162825964Y-56362171D01*
X162726098Y-56576335D01*
X162726094Y-56576344D01*
X162664938Y-56804586D01*
X162664936Y-56804596D01*
X162644341Y-57039999D01*
X162644341Y-57040000D01*
X162664936Y-57275403D01*
X162664938Y-57275413D01*
X162726094Y-57503655D01*
X162726096Y-57503659D01*
X162726097Y-57503663D01*
X162781937Y-57623412D01*
X162825965Y-57717830D01*
X162825967Y-57717834D01*
X162961501Y-57911395D01*
X162961506Y-57911402D01*
X163128597Y-58078493D01*
X163128603Y-58078498D01*
X163314158Y-58208425D01*
X163357783Y-58263002D01*
X163364977Y-58332500D01*
X163333454Y-58394855D01*
X163314158Y-58411575D01*
X163128597Y-58541505D01*
X162961505Y-58708597D01*
X162825965Y-58902169D01*
X162825964Y-58902171D01*
X162726098Y-59116335D01*
X162726094Y-59116344D01*
X162664938Y-59344586D01*
X162664936Y-59344596D01*
X162644341Y-59579999D01*
X162644341Y-59580000D01*
X162664936Y-59815403D01*
X162664938Y-59815413D01*
X162726094Y-60043655D01*
X162726096Y-60043659D01*
X162726097Y-60043663D01*
X162787545Y-60175438D01*
X162825965Y-60257830D01*
X162825967Y-60257834D01*
X162961501Y-60451395D01*
X162961506Y-60451402D01*
X163128597Y-60618493D01*
X163128603Y-60618498D01*
X163314158Y-60748425D01*
X163357783Y-60803002D01*
X163364977Y-60872500D01*
X163333454Y-60934855D01*
X163314158Y-60951575D01*
X163128597Y-61081505D01*
X162961505Y-61248597D01*
X162825965Y-61442169D01*
X162825964Y-61442171D01*
X162726098Y-61656335D01*
X162726094Y-61656344D01*
X162664938Y-61884586D01*
X162664936Y-61884596D01*
X162644341Y-62119999D01*
X162644341Y-62120000D01*
X162664936Y-62355403D01*
X162664938Y-62355413D01*
X162726094Y-62583655D01*
X162726096Y-62583659D01*
X162726097Y-62583663D01*
X162733115Y-62598713D01*
X162825965Y-62797830D01*
X162825967Y-62797834D01*
X162961501Y-62991395D01*
X162961506Y-62991402D01*
X163128597Y-63158493D01*
X163128603Y-63158498D01*
X163314158Y-63288425D01*
X163357783Y-63343002D01*
X163364977Y-63412500D01*
X163333454Y-63474855D01*
X163314158Y-63491575D01*
X163128597Y-63621505D01*
X162961505Y-63788597D01*
X162825965Y-63982169D01*
X162825964Y-63982171D01*
X162726098Y-64196335D01*
X162726094Y-64196344D01*
X162664938Y-64424586D01*
X162664936Y-64424596D01*
X162644341Y-64659999D01*
X162644341Y-64660000D01*
X162664936Y-64895403D01*
X162664938Y-64895413D01*
X162726094Y-65123655D01*
X162726096Y-65123659D01*
X162726097Y-65123663D01*
X162825965Y-65337830D01*
X162825967Y-65337834D01*
X162961501Y-65531395D01*
X162961506Y-65531402D01*
X163128597Y-65698493D01*
X163128603Y-65698498D01*
X163314158Y-65828425D01*
X163357783Y-65883002D01*
X163364977Y-65952500D01*
X163333454Y-66014855D01*
X163314158Y-66031575D01*
X163128597Y-66161505D01*
X162961505Y-66328597D01*
X162825965Y-66522169D01*
X162825964Y-66522171D01*
X162726098Y-66736335D01*
X162726094Y-66736344D01*
X162664938Y-66964586D01*
X162664936Y-66964596D01*
X162644341Y-67199999D01*
X162644341Y-67200000D01*
X162664936Y-67435403D01*
X162664938Y-67435413D01*
X162726094Y-67663655D01*
X162726096Y-67663659D01*
X162726097Y-67663663D01*
X162749620Y-67714108D01*
X162825965Y-67877830D01*
X162825967Y-67877834D01*
X162961501Y-68071395D01*
X162961506Y-68071402D01*
X163128597Y-68238493D01*
X163128603Y-68238498D01*
X163314158Y-68368425D01*
X163357783Y-68423002D01*
X163364977Y-68492500D01*
X163333454Y-68554855D01*
X163314158Y-68571575D01*
X163128597Y-68701505D01*
X162961505Y-68868597D01*
X162825965Y-69062169D01*
X162825964Y-69062171D01*
X162726098Y-69276335D01*
X162726094Y-69276344D01*
X162664938Y-69504586D01*
X162664936Y-69504596D01*
X162644341Y-69739999D01*
X162644341Y-69740000D01*
X162664936Y-69975403D01*
X162664938Y-69975413D01*
X162726094Y-70203655D01*
X162726096Y-70203659D01*
X162726097Y-70203663D01*
X162772075Y-70302262D01*
X162825965Y-70417830D01*
X162825967Y-70417834D01*
X162901558Y-70525788D01*
X162943276Y-70585368D01*
X162961501Y-70611395D01*
X162961506Y-70611402D01*
X163128597Y-70778493D01*
X163128603Y-70778498D01*
X163314158Y-70908425D01*
X163357783Y-70963002D01*
X163364977Y-71032500D01*
X163333454Y-71094855D01*
X163314158Y-71111575D01*
X163128597Y-71241505D01*
X162961505Y-71408597D01*
X162825965Y-71602169D01*
X162825964Y-71602171D01*
X162726098Y-71816335D01*
X162726094Y-71816344D01*
X162664938Y-72044586D01*
X162664936Y-72044596D01*
X162644341Y-72279999D01*
X162644341Y-72280000D01*
X162664936Y-72515403D01*
X162664938Y-72515413D01*
X162726094Y-72743655D01*
X162726096Y-72743659D01*
X162726097Y-72743663D01*
X162825965Y-72957830D01*
X162825967Y-72957834D01*
X162961501Y-73151395D01*
X162961506Y-73151402D01*
X163128597Y-73318493D01*
X163128603Y-73318498D01*
X163314158Y-73448425D01*
X163357783Y-73503002D01*
X163364977Y-73572500D01*
X163333454Y-73634855D01*
X163314158Y-73651575D01*
X163128597Y-73781505D01*
X162961505Y-73948597D01*
X162825965Y-74142169D01*
X162825964Y-74142171D01*
X162726098Y-74356335D01*
X162726094Y-74356344D01*
X162664938Y-74584586D01*
X162664936Y-74584596D01*
X162644341Y-74819999D01*
X162644341Y-74820000D01*
X162664936Y-75055403D01*
X162664938Y-75055413D01*
X162726094Y-75283655D01*
X162726096Y-75283659D01*
X162726097Y-75283663D01*
X162825965Y-75497830D01*
X162825967Y-75497834D01*
X162961501Y-75691395D01*
X162961506Y-75691402D01*
X163128597Y-75858493D01*
X163128603Y-75858498D01*
X163314158Y-75988425D01*
X163357783Y-76043002D01*
X163364977Y-76112500D01*
X163333454Y-76174855D01*
X163314158Y-76191575D01*
X163128597Y-76321505D01*
X162961505Y-76488597D01*
X162825965Y-76682169D01*
X162825964Y-76682171D01*
X162726098Y-76896335D01*
X162726094Y-76896344D01*
X162664938Y-77124586D01*
X162664936Y-77124596D01*
X162644341Y-77359999D01*
X162644341Y-77360000D01*
X162664936Y-77595403D01*
X162664938Y-77595413D01*
X162726094Y-77823655D01*
X162726096Y-77823659D01*
X162726097Y-77823663D01*
X162825965Y-78037830D01*
X162825967Y-78037834D01*
X162961501Y-78231395D01*
X162961506Y-78231402D01*
X163128597Y-78398493D01*
X163128603Y-78398498D01*
X163314158Y-78528425D01*
X163357783Y-78583002D01*
X163364977Y-78652500D01*
X163333454Y-78714855D01*
X163314158Y-78731575D01*
X163128597Y-78861505D01*
X162961505Y-79028597D01*
X162825965Y-79222169D01*
X162825964Y-79222171D01*
X162726098Y-79436335D01*
X162726094Y-79436344D01*
X162664938Y-79664586D01*
X162664936Y-79664596D01*
X162644341Y-79899999D01*
X162644341Y-79900000D01*
X162664936Y-80135403D01*
X162664938Y-80135413D01*
X162726094Y-80363655D01*
X162726096Y-80363659D01*
X162726097Y-80363663D01*
X162766355Y-80449996D01*
X162825965Y-80577830D01*
X162825967Y-80577834D01*
X162961501Y-80771395D01*
X162961506Y-80771402D01*
X163128597Y-80938493D01*
X163128603Y-80938498D01*
X163314158Y-81068425D01*
X163357783Y-81123002D01*
X163364977Y-81192500D01*
X163333454Y-81254855D01*
X163314158Y-81271575D01*
X163128597Y-81401505D01*
X162961505Y-81568597D01*
X162825965Y-81762169D01*
X162825964Y-81762171D01*
X162726098Y-81976335D01*
X162726094Y-81976344D01*
X162664938Y-82204586D01*
X162664936Y-82204596D01*
X162644341Y-82439999D01*
X162644341Y-82440000D01*
X162664936Y-82675403D01*
X162664938Y-82675413D01*
X162726094Y-82903655D01*
X162726096Y-82903659D01*
X162726097Y-82903663D01*
X162825965Y-83117830D01*
X162825967Y-83117834D01*
X162961501Y-83311395D01*
X162961506Y-83311402D01*
X163128597Y-83478493D01*
X163128603Y-83478498D01*
X163314158Y-83608425D01*
X163357783Y-83663002D01*
X163364977Y-83732500D01*
X163333454Y-83794855D01*
X163314158Y-83811575D01*
X163128597Y-83941505D01*
X162961505Y-84108597D01*
X162825965Y-84302169D01*
X162825964Y-84302171D01*
X162726098Y-84516335D01*
X162726094Y-84516344D01*
X162664938Y-84744586D01*
X162664936Y-84744596D01*
X162644341Y-84979999D01*
X162644341Y-84980000D01*
X162664936Y-85215403D01*
X162664938Y-85215413D01*
X162726094Y-85443655D01*
X162726096Y-85443659D01*
X162726097Y-85443663D01*
X162825965Y-85657830D01*
X162825967Y-85657834D01*
X162961501Y-85851395D01*
X162961506Y-85851402D01*
X163128597Y-86018493D01*
X163128603Y-86018498D01*
X163314158Y-86148425D01*
X163357783Y-86203002D01*
X163364977Y-86272500D01*
X163333454Y-86334855D01*
X163314158Y-86351575D01*
X163128597Y-86481505D01*
X162961505Y-86648597D01*
X162825965Y-86842169D01*
X162825964Y-86842171D01*
X162726098Y-87056335D01*
X162726094Y-87056344D01*
X162664938Y-87284586D01*
X162664936Y-87284596D01*
X162644341Y-87519999D01*
X162644341Y-87520000D01*
X162664936Y-87755403D01*
X162664938Y-87755413D01*
X162726094Y-87983655D01*
X162726096Y-87983659D01*
X162726097Y-87983663D01*
X162817428Y-88179522D01*
X162825965Y-88197830D01*
X162825967Y-88197834D01*
X162920093Y-88332259D01*
X162961505Y-88391401D01*
X163128599Y-88558495D01*
X163164050Y-88583318D01*
X163322165Y-88694032D01*
X163322167Y-88694033D01*
X163322170Y-88694035D01*
X163536337Y-88793903D01*
X163764592Y-88855063D01*
X163952918Y-88871539D01*
X163999999Y-88875659D01*
X164000000Y-88875659D01*
X164000001Y-88875659D01*
X164039234Y-88872226D01*
X164235408Y-88855063D01*
X164463663Y-88793903D01*
X164677830Y-88694035D01*
X164871401Y-88558495D01*
X165038495Y-88391401D01*
X165174035Y-88197830D01*
X165273903Y-87983663D01*
X165335063Y-87755408D01*
X165355659Y-87520000D01*
X165335063Y-87284592D01*
X165273903Y-87056337D01*
X165174035Y-86842171D01*
X165117553Y-86761505D01*
X165038494Y-86648597D01*
X164871402Y-86481506D01*
X164871396Y-86481501D01*
X164685842Y-86351575D01*
X164642217Y-86296998D01*
X164635023Y-86227500D01*
X164666546Y-86165145D01*
X164685842Y-86148425D01*
X164710163Y-86131395D01*
X164871401Y-86018495D01*
X165038495Y-85851401D01*
X165174035Y-85657830D01*
X165273903Y-85443663D01*
X165335063Y-85215408D01*
X165355659Y-84980000D01*
X165335063Y-84744592D01*
X165273903Y-84516337D01*
X165174035Y-84302171D01*
X165117553Y-84221505D01*
X165038494Y-84108597D01*
X164871402Y-83941506D01*
X164871396Y-83941501D01*
X164685842Y-83811575D01*
X164642217Y-83756998D01*
X164635023Y-83687500D01*
X164666546Y-83625145D01*
X164685842Y-83608425D01*
X164733316Y-83575183D01*
X164871401Y-83478495D01*
X165038495Y-83311401D01*
X165174035Y-83117830D01*
X165273903Y-82903663D01*
X165335063Y-82675408D01*
X165355659Y-82440000D01*
X165335063Y-82204592D01*
X165273903Y-81976337D01*
X165174035Y-81762171D01*
X165117553Y-81681505D01*
X165038494Y-81568597D01*
X164871402Y-81401506D01*
X164871396Y-81401501D01*
X164685842Y-81271575D01*
X164642217Y-81216998D01*
X164635023Y-81147500D01*
X164666546Y-81085145D01*
X164685842Y-81068425D01*
X164710163Y-81051395D01*
X164871401Y-80938495D01*
X165038495Y-80771401D01*
X165174035Y-80577830D01*
X165273903Y-80363663D01*
X165335063Y-80135408D01*
X165355659Y-79900000D01*
X165335063Y-79664592D01*
X165273903Y-79436337D01*
X165174035Y-79222171D01*
X165117553Y-79141505D01*
X165038494Y-79028597D01*
X164871402Y-78861506D01*
X164871396Y-78861501D01*
X164685842Y-78731575D01*
X164642217Y-78676998D01*
X164635023Y-78607500D01*
X164666546Y-78545145D01*
X164685842Y-78528425D01*
X164710163Y-78511395D01*
X164871401Y-78398495D01*
X165038495Y-78231401D01*
X165174035Y-78037830D01*
X165273903Y-77823663D01*
X165335063Y-77595408D01*
X165355659Y-77360000D01*
X165335063Y-77124592D01*
X165273903Y-76896337D01*
X165174035Y-76682171D01*
X165149180Y-76646673D01*
X165038494Y-76488597D01*
X164871402Y-76321506D01*
X164871396Y-76321501D01*
X164685842Y-76191575D01*
X164642217Y-76136998D01*
X164635023Y-76067500D01*
X164666546Y-76005145D01*
X164685842Y-75988425D01*
X164708026Y-75972891D01*
X164871401Y-75858495D01*
X165038495Y-75691401D01*
X165174035Y-75497830D01*
X165273903Y-75283663D01*
X165335063Y-75055408D01*
X165355659Y-74820000D01*
X165335063Y-74584592D01*
X165273903Y-74356337D01*
X165174035Y-74142171D01*
X165079858Y-74007671D01*
X165038494Y-73948597D01*
X164871402Y-73781506D01*
X164871396Y-73781501D01*
X164685842Y-73651575D01*
X164642217Y-73596998D01*
X164635023Y-73527500D01*
X164666546Y-73465145D01*
X164685842Y-73448425D01*
X164708026Y-73432891D01*
X164871401Y-73318495D01*
X165038495Y-73151401D01*
X165174035Y-72957830D01*
X165273903Y-72743663D01*
X165335063Y-72515408D01*
X165355659Y-72280000D01*
X165335063Y-72044592D01*
X165273903Y-71816337D01*
X165174035Y-71602171D01*
X165117021Y-71520745D01*
X165038494Y-71408597D01*
X164871402Y-71241506D01*
X164871396Y-71241501D01*
X164685842Y-71111575D01*
X164642217Y-71056998D01*
X164635023Y-70987500D01*
X164666546Y-70925145D01*
X164685842Y-70908425D01*
X164708026Y-70892891D01*
X164871401Y-70778495D01*
X165038495Y-70611401D01*
X165174035Y-70417830D01*
X165273903Y-70203663D01*
X165335063Y-69975408D01*
X165355659Y-69740000D01*
X165335063Y-69504592D01*
X165273903Y-69276337D01*
X165174035Y-69062171D01*
X165140748Y-69014631D01*
X165038494Y-68868597D01*
X164871402Y-68701506D01*
X164871396Y-68701501D01*
X164685842Y-68571575D01*
X164642217Y-68516998D01*
X164635023Y-68447500D01*
X164666546Y-68385145D01*
X164685842Y-68368425D01*
X164708026Y-68352891D01*
X164871401Y-68238495D01*
X165038495Y-68071401D01*
X165174035Y-67877830D01*
X165273903Y-67663663D01*
X165335063Y-67435408D01*
X165355659Y-67200000D01*
X165335063Y-66964592D01*
X165273903Y-66736337D01*
X165174035Y-66522171D01*
X165038495Y-66328599D01*
X165038494Y-66328597D01*
X164871402Y-66161506D01*
X164871396Y-66161501D01*
X164685842Y-66031575D01*
X164642217Y-65976998D01*
X164635023Y-65907500D01*
X164666546Y-65845145D01*
X164685842Y-65828425D01*
X164708026Y-65812891D01*
X164871401Y-65698495D01*
X165038495Y-65531401D01*
X165174035Y-65337830D01*
X165273903Y-65123663D01*
X165335063Y-64895408D01*
X165355659Y-64660000D01*
X165335063Y-64424592D01*
X165285430Y-64239356D01*
X165273905Y-64196344D01*
X165273904Y-64196343D01*
X165273903Y-64196337D01*
X165174035Y-63982171D01*
X165098377Y-63874119D01*
X165038494Y-63788597D01*
X164871402Y-63621506D01*
X164871396Y-63621501D01*
X164685842Y-63491575D01*
X164642217Y-63436998D01*
X164635023Y-63367500D01*
X164666546Y-63305145D01*
X164685842Y-63288425D01*
X164710386Y-63271239D01*
X164871401Y-63158495D01*
X165038495Y-62991401D01*
X165174035Y-62797830D01*
X165273903Y-62583663D01*
X165335063Y-62355408D01*
X165355659Y-62120000D01*
X165335063Y-61884592D01*
X165273903Y-61656337D01*
X165174035Y-61442171D01*
X165135932Y-61387753D01*
X165038494Y-61248597D01*
X164871402Y-61081506D01*
X164871396Y-61081501D01*
X164685842Y-60951575D01*
X164642217Y-60896998D01*
X164635023Y-60827500D01*
X164666546Y-60765145D01*
X164685842Y-60748425D01*
X164708026Y-60732891D01*
X164871401Y-60618495D01*
X165038495Y-60451401D01*
X165174035Y-60257830D01*
X165273903Y-60043663D01*
X165335063Y-59815408D01*
X165355659Y-59580000D01*
X165335063Y-59344592D01*
X165273903Y-59116337D01*
X165174035Y-58902171D01*
X165149836Y-58867610D01*
X165038494Y-58708597D01*
X164871402Y-58541506D01*
X164871396Y-58541501D01*
X164685842Y-58411575D01*
X164642217Y-58356998D01*
X164635023Y-58287500D01*
X164666546Y-58225145D01*
X164685842Y-58208425D01*
X164790555Y-58135104D01*
X164871401Y-58078495D01*
X165038495Y-57911401D01*
X165174035Y-57717830D01*
X165273903Y-57503663D01*
X165335063Y-57275408D01*
X165355659Y-57040000D01*
X165335063Y-56804592D01*
X165273903Y-56576337D01*
X165174035Y-56362171D01*
X165063993Y-56205013D01*
X165038494Y-56168597D01*
X164871402Y-56001506D01*
X164871396Y-56001501D01*
X164685842Y-55871575D01*
X164642217Y-55816998D01*
X164635023Y-55747500D01*
X164666546Y-55685145D01*
X164685842Y-55668425D01*
X164778644Y-55603444D01*
X164871401Y-55538495D01*
X165038495Y-55371401D01*
X165174035Y-55177830D01*
X165273903Y-54963663D01*
X165335063Y-54735408D01*
X165355659Y-54500000D01*
X165335063Y-54264592D01*
X165273903Y-54036337D01*
X165174035Y-53822171D01*
X165038495Y-53628599D01*
X165038494Y-53628597D01*
X164871402Y-53461506D01*
X164871396Y-53461501D01*
X164685842Y-53331575D01*
X164642217Y-53276998D01*
X164635023Y-53207500D01*
X164666546Y-53145145D01*
X164685842Y-53128425D01*
X164708026Y-53112891D01*
X164871401Y-52998495D01*
X165038495Y-52831401D01*
X165174035Y-52637830D01*
X165273903Y-52423663D01*
X165335063Y-52195408D01*
X165355659Y-51960000D01*
X165335063Y-51724592D01*
X165273903Y-51496337D01*
X165174035Y-51282171D01*
X165111271Y-51192535D01*
X165038496Y-51088600D01*
X165017361Y-51067465D01*
X164916567Y-50966671D01*
X164883084Y-50905351D01*
X164888068Y-50835659D01*
X164929939Y-50779725D01*
X164960915Y-50762810D01*
X165092331Y-50713796D01*
X165207546Y-50627546D01*
X165293796Y-50512331D01*
X165344091Y-50377483D01*
X165350500Y-50317873D01*
X165350499Y-49424499D01*
X165370183Y-49357461D01*
X165422987Y-49311706D01*
X165474499Y-49300500D01*
X165779055Y-49300500D01*
X165779057Y-49300500D01*
X165931784Y-49259577D01*
X166068716Y-49180520D01*
X166180520Y-49068716D01*
X166237986Y-48969181D01*
X166288552Y-48920966D01*
X166357159Y-48907742D01*
X166422024Y-48933710D01*
X166462553Y-48990624D01*
X166469373Y-49031181D01*
X166469373Y-153978566D01*
X166424872Y-168361218D01*
X166402302Y-175655884D01*
X166382411Y-175722862D01*
X166329465Y-175768453D01*
X166278303Y-175779500D01*
X132594373Y-175779500D01*
X132527334Y-175759815D01*
X132481579Y-175707011D01*
X132470373Y-175655500D01*
X132470373Y-168129994D01*
X138022739Y-168129994D01*
X138022739Y-168130005D01*
X138041898Y-168361218D01*
X138098854Y-168586135D01*
X138192053Y-168798609D01*
X138276348Y-168927633D01*
X138944574Y-168259408D01*
X138961612Y-168322993D01*
X139027438Y-168437007D01*
X139120530Y-168530099D01*
X139234544Y-168595925D01*
X139298127Y-168612962D01*
X138628738Y-169282351D01*
X138659186Y-169306050D01*
X138863234Y-169416476D01*
X138863243Y-169416479D01*
X139082676Y-169491811D01*
X139311530Y-169530000D01*
X139543544Y-169530000D01*
X139772397Y-169491811D01*
X139991830Y-169416479D01*
X139991838Y-169416476D01*
X140195892Y-169306047D01*
X140226334Y-169282351D01*
X140226335Y-169282350D01*
X139556947Y-168612962D01*
X139620530Y-168595925D01*
X139734544Y-168530099D01*
X139827636Y-168437007D01*
X139893462Y-168322993D01*
X139910499Y-168259410D01*
X140578723Y-168927634D01*
X140583506Y-168927138D01*
X140626574Y-168890381D01*
X140695806Y-168880957D01*
X140759142Y-168910458D01*
X140781047Y-168935738D01*
X140818553Y-168993147D01*
X140818556Y-168993151D01*
X140818558Y-168993153D01*
X140975753Y-169163913D01*
X140975756Y-169163915D01*
X140975759Y-169163918D01*
X141158902Y-169306464D01*
X141158908Y-169306468D01*
X141158911Y-169306470D01*
X141326397Y-169397109D01*
X141362189Y-169416479D01*
X141363034Y-169416936D01*
X141477024Y-169456068D01*
X141582552Y-169492297D01*
X141582554Y-169492297D01*
X141582556Y-169492298D01*
X141811488Y-169530500D01*
X141811489Y-169530500D01*
X142043585Y-169530500D01*
X142043586Y-169530500D01*
X142272518Y-169492298D01*
X142492040Y-169416936D01*
X142696163Y-169306470D01*
X142696707Y-169306047D01*
X142757666Y-169258600D01*
X142879321Y-169163913D01*
X143036516Y-168993153D01*
X143073728Y-168936196D01*
X143126874Y-168890839D01*
X143196106Y-168881415D01*
X143259441Y-168910917D01*
X143281346Y-168936196D01*
X143318553Y-168993147D01*
X143318556Y-168993151D01*
X143318558Y-168993153D01*
X143475753Y-169163913D01*
X143475756Y-169163915D01*
X143475759Y-169163918D01*
X143658902Y-169306464D01*
X143658908Y-169306468D01*
X143658911Y-169306470D01*
X143826397Y-169397109D01*
X143862189Y-169416479D01*
X143863034Y-169416936D01*
X143977024Y-169456068D01*
X144082552Y-169492297D01*
X144082554Y-169492297D01*
X144082556Y-169492298D01*
X144311488Y-169530500D01*
X144311489Y-169530500D01*
X144543585Y-169530500D01*
X144543586Y-169530500D01*
X144772518Y-169492298D01*
X144992040Y-169416936D01*
X145196163Y-169306470D01*
X145196707Y-169306047D01*
X145257666Y-169258600D01*
X145379321Y-169163913D01*
X145492921Y-169040509D01*
X145552806Y-169004521D01*
X145622644Y-169006621D01*
X145625104Y-169007452D01*
X145790618Y-169065368D01*
X145790623Y-169065369D01*
X145969869Y-169085565D01*
X145969873Y-169085565D01*
X145969877Y-169085565D01*
X146149122Y-169065369D01*
X146149125Y-169065368D01*
X146149128Y-169065368D01*
X146319395Y-169005789D01*
X146472135Y-168909816D01*
X146599689Y-168782262D01*
X146695662Y-168629522D01*
X146755241Y-168459255D01*
X146757748Y-168437007D01*
X146775438Y-168280003D01*
X146775438Y-168279996D01*
X146758537Y-168129994D01*
X152372739Y-168129994D01*
X152372739Y-168130005D01*
X152391898Y-168361218D01*
X152448854Y-168586135D01*
X152542053Y-168798609D01*
X152626348Y-168927633D01*
X153294574Y-168259408D01*
X153311612Y-168322993D01*
X153377438Y-168437007D01*
X153470530Y-168530099D01*
X153584544Y-168595925D01*
X153648127Y-168612962D01*
X152978738Y-169282351D01*
X153009186Y-169306050D01*
X153213234Y-169416476D01*
X153213243Y-169416479D01*
X153432676Y-169491811D01*
X153661530Y-169530000D01*
X153893544Y-169530000D01*
X154122397Y-169491811D01*
X154341830Y-169416479D01*
X154341838Y-169416476D01*
X154545892Y-169306047D01*
X154576334Y-169282351D01*
X154576335Y-169282350D01*
X153906947Y-168612962D01*
X153970530Y-168595925D01*
X154084544Y-168530099D01*
X154177636Y-168437007D01*
X154243462Y-168322993D01*
X154260499Y-168259410D01*
X154928723Y-168927634D01*
X154933506Y-168927138D01*
X154976574Y-168890381D01*
X155045806Y-168880957D01*
X155109142Y-168910458D01*
X155131047Y-168935738D01*
X155168553Y-168993147D01*
X155168556Y-168993151D01*
X155168558Y-168993153D01*
X155325753Y-169163913D01*
X155325756Y-169163915D01*
X155325759Y-169163918D01*
X155508902Y-169306464D01*
X155508908Y-169306468D01*
X155508911Y-169306470D01*
X155676397Y-169397109D01*
X155712189Y-169416479D01*
X155713034Y-169416936D01*
X155827024Y-169456068D01*
X155932552Y-169492297D01*
X155932554Y-169492297D01*
X155932556Y-169492298D01*
X156161488Y-169530500D01*
X156161489Y-169530500D01*
X156393585Y-169530500D01*
X156393586Y-169530500D01*
X156622518Y-169492298D01*
X156842040Y-169416936D01*
X157046163Y-169306470D01*
X157046707Y-169306047D01*
X157107666Y-169258600D01*
X157229321Y-169163913D01*
X157386516Y-168993153D01*
X157423728Y-168936196D01*
X157476874Y-168890839D01*
X157546106Y-168881415D01*
X157609441Y-168910917D01*
X157631346Y-168936196D01*
X157668553Y-168993147D01*
X157668556Y-168993151D01*
X157668558Y-168993153D01*
X157825753Y-169163913D01*
X157825756Y-169163915D01*
X157825759Y-169163918D01*
X158008902Y-169306464D01*
X158008908Y-169306468D01*
X158008911Y-169306470D01*
X158176397Y-169397109D01*
X158212189Y-169416479D01*
X158213034Y-169416936D01*
X158327024Y-169456068D01*
X158432552Y-169492297D01*
X158432554Y-169492297D01*
X158432556Y-169492298D01*
X158661488Y-169530500D01*
X158661489Y-169530500D01*
X158893585Y-169530500D01*
X158893586Y-169530500D01*
X159122518Y-169492298D01*
X159342040Y-169416936D01*
X159546163Y-169306470D01*
X159546707Y-169306047D01*
X159607666Y-169258600D01*
X159729321Y-169163913D01*
X159886516Y-168993153D01*
X159886526Y-168993137D01*
X159887830Y-168991463D01*
X159888542Y-168990949D01*
X159889989Y-168989379D01*
X159890312Y-168989676D01*
X159944539Y-168950647D01*
X160014312Y-168946970D01*
X160051659Y-168962627D01*
X160094234Y-168989379D01*
X160120351Y-169005789D01*
X160125104Y-169007452D01*
X160290618Y-169065368D01*
X160290623Y-169065369D01*
X160469869Y-169085565D01*
X160469873Y-169085565D01*
X160469877Y-169085565D01*
X160649122Y-169065369D01*
X160649125Y-169065368D01*
X160649128Y-169065368D01*
X160819395Y-169005789D01*
X160972135Y-168909816D01*
X161099689Y-168782262D01*
X161195662Y-168629522D01*
X161255241Y-168459255D01*
X161257748Y-168437007D01*
X161275438Y-168280003D01*
X161275438Y-168279996D01*
X161255242Y-168100750D01*
X161255241Y-168100745D01*
X161242444Y-168064174D01*
X161195662Y-167930478D01*
X161175745Y-167898781D01*
X161156455Y-167868080D01*
X161099689Y-167777738D01*
X160972135Y-167650184D01*
X160819396Y-167554211D01*
X160649127Y-167494631D01*
X160649122Y-167494630D01*
X160469877Y-167474435D01*
X160469869Y-167474435D01*
X160290623Y-167494630D01*
X160290615Y-167494632D01*
X160171456Y-167536328D01*
X160101678Y-167539889D01*
X160041050Y-167505160D01*
X160016945Y-167469094D01*
X160013461Y-167461151D01*
X159929321Y-167332365D01*
X159886520Y-167266852D01*
X159886517Y-167266849D01*
X159886516Y-167266847D01*
X159729321Y-167096087D01*
X159729316Y-167096083D01*
X159729314Y-167096081D01*
X159546171Y-166953535D01*
X159546165Y-166953531D01*
X159342041Y-166843064D01*
X159342032Y-166843061D01*
X159122521Y-166767702D01*
X158950819Y-166739050D01*
X158893586Y-166729500D01*
X158661488Y-166729500D01*
X158615701Y-166737140D01*
X158432552Y-166767702D01*
X158213041Y-166843061D01*
X158213032Y-166843064D01*
X158008908Y-166953531D01*
X158008902Y-166953535D01*
X157825759Y-167096081D01*
X157825756Y-167096084D01*
X157668552Y-167266854D01*
X157631345Y-167323804D01*
X157578199Y-167369161D01*
X157508967Y-167378584D01*
X157445632Y-167349082D01*
X157423729Y-167323804D01*
X157386521Y-167266854D01*
X157386519Y-167266852D01*
X157386516Y-167266847D01*
X157229321Y-167096087D01*
X157229316Y-167096083D01*
X157229314Y-167096081D01*
X157046171Y-166953535D01*
X157046165Y-166953531D01*
X156842041Y-166843064D01*
X156842032Y-166843061D01*
X156622521Y-166767702D01*
X156450819Y-166739050D01*
X156393586Y-166729500D01*
X156161488Y-166729500D01*
X156115701Y-166737140D01*
X155932552Y-166767702D01*
X155713041Y-166843061D01*
X155713032Y-166843064D01*
X155508908Y-166953531D01*
X155508902Y-166953535D01*
X155325759Y-167096081D01*
X155325756Y-167096084D01*
X155325753Y-167096086D01*
X155325753Y-167096087D01*
X155168558Y-167266847D01*
X155168556Y-167266849D01*
X155168554Y-167266852D01*
X155131046Y-167324262D01*
X155077899Y-167369618D01*
X155008668Y-167379041D01*
X154945332Y-167349538D01*
X154930621Y-167332561D01*
X154928723Y-167332364D01*
X154260499Y-168000589D01*
X154243462Y-167937007D01*
X154177636Y-167822993D01*
X154084544Y-167729901D01*
X153970530Y-167664075D01*
X153906946Y-167647037D01*
X154576334Y-166977647D01*
X154576334Y-166977645D01*
X154545897Y-166953955D01*
X154545891Y-166953951D01*
X154341839Y-166843523D01*
X154341830Y-166843520D01*
X154122397Y-166768188D01*
X153893544Y-166730000D01*
X153661530Y-166730000D01*
X153432676Y-166768188D01*
X153213243Y-166843520D01*
X153213234Y-166843523D01*
X153009187Y-166953949D01*
X152978737Y-166977647D01*
X153648128Y-167647037D01*
X153584544Y-167664075D01*
X153470530Y-167729901D01*
X153377438Y-167822993D01*
X153311612Y-167937007D01*
X153294574Y-168000590D01*
X152626349Y-167332365D01*
X152542053Y-167461391D01*
X152542051Y-167461395D01*
X152448854Y-167673864D01*
X152391898Y-167898781D01*
X152372739Y-168129994D01*
X146758537Y-168129994D01*
X146755242Y-168100750D01*
X146755241Y-168100745D01*
X146742444Y-168064174D01*
X146695662Y-167930478D01*
X146675745Y-167898781D01*
X146656455Y-167868080D01*
X146599689Y-167777738D01*
X146472135Y-167650184D01*
X146319396Y-167554211D01*
X146149127Y-167494631D01*
X146149122Y-167494630D01*
X145969877Y-167474435D01*
X145969869Y-167474435D01*
X145790619Y-167494631D01*
X145783829Y-167496181D01*
X145783159Y-167493245D01*
X145726712Y-167496086D01*
X145666110Y-167461314D01*
X145651815Y-167443325D01*
X145536520Y-167266852D01*
X145536517Y-167266849D01*
X145536516Y-167266847D01*
X145379321Y-167096087D01*
X145379316Y-167096083D01*
X145379314Y-167096081D01*
X145196171Y-166953535D01*
X145196165Y-166953531D01*
X144992041Y-166843064D01*
X144992032Y-166843061D01*
X144772521Y-166767702D01*
X144600819Y-166739050D01*
X144543586Y-166729500D01*
X144311488Y-166729500D01*
X144265701Y-166737140D01*
X144082552Y-166767702D01*
X143863041Y-166843061D01*
X143863032Y-166843064D01*
X143658908Y-166953531D01*
X143658902Y-166953535D01*
X143475759Y-167096081D01*
X143475756Y-167096084D01*
X143318552Y-167266854D01*
X143281345Y-167323804D01*
X143228199Y-167369161D01*
X143158967Y-167378584D01*
X143095632Y-167349082D01*
X143073729Y-167323804D01*
X143036521Y-167266854D01*
X143036519Y-167266852D01*
X143036516Y-167266847D01*
X142879321Y-167096087D01*
X142879316Y-167096083D01*
X142879314Y-167096081D01*
X142696171Y-166953535D01*
X142696165Y-166953531D01*
X142492041Y-166843064D01*
X142492032Y-166843061D01*
X142272521Y-166767702D01*
X142100819Y-166739050D01*
X142043586Y-166729500D01*
X141811488Y-166729500D01*
X141765701Y-166737140D01*
X141582552Y-166767702D01*
X141363041Y-166843061D01*
X141363032Y-166843064D01*
X141158908Y-166953531D01*
X141158902Y-166953535D01*
X140975759Y-167096081D01*
X140975756Y-167096084D01*
X140975753Y-167096086D01*
X140975753Y-167096087D01*
X140818558Y-167266847D01*
X140818556Y-167266849D01*
X140818554Y-167266852D01*
X140781046Y-167324262D01*
X140727899Y-167369618D01*
X140658668Y-167379041D01*
X140595332Y-167349538D01*
X140580621Y-167332561D01*
X140578723Y-167332364D01*
X139910499Y-168000589D01*
X139893462Y-167937007D01*
X139827636Y-167822993D01*
X139734544Y-167729901D01*
X139620530Y-167664075D01*
X139556946Y-167647037D01*
X140226334Y-166977647D01*
X140226334Y-166977645D01*
X140195897Y-166953955D01*
X140195891Y-166953951D01*
X139991839Y-166843523D01*
X139991830Y-166843520D01*
X139772397Y-166768188D01*
X139543544Y-166730000D01*
X139311530Y-166730000D01*
X139082676Y-166768188D01*
X138863243Y-166843520D01*
X138863234Y-166843523D01*
X138659187Y-166953949D01*
X138628737Y-166977647D01*
X139298128Y-167647037D01*
X139234544Y-167664075D01*
X139120530Y-167729901D01*
X139027438Y-167822993D01*
X138961612Y-167937007D01*
X138944574Y-168000590D01*
X138276349Y-167332365D01*
X138192053Y-167461391D01*
X138192051Y-167461395D01*
X138098854Y-167673864D01*
X138041898Y-167898781D01*
X138022739Y-168129994D01*
X132470373Y-168129994D01*
X132470373Y-161023713D01*
X136177037Y-161023713D01*
X136177037Y-161236286D01*
X136210290Y-161446239D01*
X136275981Y-161648414D01*
X136372488Y-161837820D01*
X136497427Y-162009786D01*
X136647750Y-162160109D01*
X136819716Y-162285048D01*
X136819718Y-162285049D01*
X136819721Y-162285051D01*
X137009125Y-162381557D01*
X137211294Y-162447246D01*
X137421250Y-162480500D01*
X137421251Y-162480500D01*
X137633823Y-162480500D01*
X137633824Y-162480500D01*
X137843780Y-162447246D01*
X138045949Y-162381557D01*
X138235353Y-162285051D01*
X138257326Y-162269086D01*
X138407323Y-162160109D01*
X138407325Y-162160106D01*
X138407329Y-162160104D01*
X138557641Y-162009792D01*
X138557643Y-162009788D01*
X138557646Y-162009786D01*
X138682585Y-161837820D01*
X138682584Y-161837820D01*
X138682588Y-161837816D01*
X138779094Y-161648412D01*
X138844783Y-161446243D01*
X138878037Y-161236287D01*
X138878037Y-161023713D01*
X144977037Y-161023713D01*
X144977037Y-161236286D01*
X145010290Y-161446239D01*
X145075981Y-161648414D01*
X145172488Y-161837820D01*
X145297427Y-162009786D01*
X145447750Y-162160109D01*
X145619716Y-162285048D01*
X145619718Y-162285049D01*
X145619721Y-162285051D01*
X145809125Y-162381557D01*
X146011294Y-162447246D01*
X146221250Y-162480500D01*
X146221251Y-162480500D01*
X146433823Y-162480500D01*
X146433824Y-162480500D01*
X146643780Y-162447246D01*
X146845949Y-162381557D01*
X147035353Y-162285051D01*
X147057326Y-162269086D01*
X147207323Y-162160109D01*
X147207325Y-162160106D01*
X147207329Y-162160104D01*
X147357641Y-162009792D01*
X147357643Y-162009788D01*
X147357646Y-162009786D01*
X147482585Y-161837820D01*
X147482584Y-161837820D01*
X147482588Y-161837816D01*
X147579094Y-161648412D01*
X147644783Y-161446243D01*
X147678037Y-161236287D01*
X147678037Y-161023713D01*
X150527037Y-161023713D01*
X150527037Y-161236286D01*
X150560290Y-161446239D01*
X150625981Y-161648414D01*
X150722488Y-161837820D01*
X150847427Y-162009786D01*
X150997750Y-162160109D01*
X151169716Y-162285048D01*
X151169718Y-162285049D01*
X151169721Y-162285051D01*
X151359125Y-162381557D01*
X151561294Y-162447246D01*
X151771250Y-162480500D01*
X151771251Y-162480500D01*
X151983823Y-162480500D01*
X151983824Y-162480500D01*
X152193780Y-162447246D01*
X152395949Y-162381557D01*
X152585353Y-162285051D01*
X152607326Y-162269086D01*
X152757323Y-162160109D01*
X152757325Y-162160106D01*
X152757329Y-162160104D01*
X152907641Y-162009792D01*
X152907643Y-162009788D01*
X152907646Y-162009786D01*
X153032585Y-161837820D01*
X153032584Y-161837820D01*
X153032588Y-161837816D01*
X153129094Y-161648412D01*
X153194783Y-161446243D01*
X153228037Y-161236287D01*
X153228037Y-161023713D01*
X159327037Y-161023713D01*
X159327037Y-161236286D01*
X159360290Y-161446239D01*
X159425981Y-161648414D01*
X159522488Y-161837820D01*
X159647427Y-162009786D01*
X159797750Y-162160109D01*
X159969716Y-162285048D01*
X159969718Y-162285049D01*
X159969721Y-162285051D01*
X160159125Y-162381557D01*
X160361294Y-162447246D01*
X160571250Y-162480500D01*
X160571251Y-162480500D01*
X160783823Y-162480500D01*
X160783824Y-162480500D01*
X160993780Y-162447246D01*
X161195949Y-162381557D01*
X161385353Y-162285051D01*
X161407326Y-162269086D01*
X161557323Y-162160109D01*
X161557325Y-162160106D01*
X161557329Y-162160104D01*
X161707641Y-162009792D01*
X161707643Y-162009788D01*
X161707646Y-162009786D01*
X161832585Y-161837820D01*
X161832584Y-161837820D01*
X161832588Y-161837816D01*
X161929094Y-161648412D01*
X161994783Y-161446243D01*
X162028037Y-161236287D01*
X162028037Y-161023713D01*
X161994783Y-160813757D01*
X161929094Y-160611588D01*
X161832588Y-160422184D01*
X161832586Y-160422181D01*
X161832585Y-160422179D01*
X161707646Y-160250213D01*
X161557323Y-160099890D01*
X161385357Y-159974951D01*
X161195951Y-159878444D01*
X161195950Y-159878443D01*
X161195949Y-159878443D01*
X160993780Y-159812754D01*
X160993778Y-159812753D01*
X160993777Y-159812753D01*
X160832494Y-159787208D01*
X160783824Y-159779500D01*
X160571250Y-159779500D01*
X160522579Y-159787208D01*
X160361297Y-159812753D01*
X160159122Y-159878444D01*
X159969716Y-159974951D01*
X159797750Y-160099890D01*
X159647427Y-160250213D01*
X159522488Y-160422179D01*
X159425981Y-160611585D01*
X159360290Y-160813760D01*
X159327037Y-161023713D01*
X153228037Y-161023713D01*
X153194783Y-160813757D01*
X153129094Y-160611588D01*
X153032588Y-160422184D01*
X153032586Y-160422181D01*
X153032585Y-160422179D01*
X152907646Y-160250213D01*
X152757323Y-160099890D01*
X152585357Y-159974951D01*
X152395951Y-159878444D01*
X152395950Y-159878443D01*
X152395949Y-159878443D01*
X152193780Y-159812754D01*
X152193778Y-159812753D01*
X152193777Y-159812753D01*
X152032494Y-159787208D01*
X151983824Y-159779500D01*
X151771250Y-159779500D01*
X151722579Y-159787208D01*
X151561297Y-159812753D01*
X151359122Y-159878444D01*
X151169716Y-159974951D01*
X150997750Y-160099890D01*
X150847427Y-160250213D01*
X150722488Y-160422179D01*
X150625981Y-160611585D01*
X150560290Y-160813760D01*
X150527037Y-161023713D01*
X147678037Y-161023713D01*
X147644783Y-160813757D01*
X147579094Y-160611588D01*
X147482588Y-160422184D01*
X147482586Y-160422181D01*
X147482585Y-160422179D01*
X147357646Y-160250213D01*
X147207323Y-160099890D01*
X147035357Y-159974951D01*
X146845951Y-159878444D01*
X146845950Y-159878443D01*
X146845949Y-159878443D01*
X146643780Y-159812754D01*
X146643778Y-159812753D01*
X146643777Y-159812753D01*
X146482494Y-159787208D01*
X146433824Y-159779500D01*
X146221250Y-159779500D01*
X146172579Y-159787208D01*
X146011297Y-159812753D01*
X145809122Y-159878444D01*
X145619716Y-159974951D01*
X145447750Y-160099890D01*
X145297427Y-160250213D01*
X145172488Y-160422179D01*
X145075981Y-160611585D01*
X145010290Y-160813760D01*
X144977037Y-161023713D01*
X138878037Y-161023713D01*
X138844783Y-160813757D01*
X138779094Y-160611588D01*
X138682588Y-160422184D01*
X138682586Y-160422181D01*
X138682585Y-160422179D01*
X138557646Y-160250213D01*
X138407323Y-160099890D01*
X138235357Y-159974951D01*
X138045951Y-159878444D01*
X138045950Y-159878443D01*
X138045949Y-159878443D01*
X137843780Y-159812754D01*
X137843778Y-159812753D01*
X137843777Y-159812753D01*
X137682494Y-159787208D01*
X137633824Y-159779500D01*
X137421250Y-159779500D01*
X137372579Y-159787208D01*
X137211297Y-159812753D01*
X137009122Y-159878444D01*
X136819716Y-159974951D01*
X136647750Y-160099890D01*
X136497427Y-160250213D01*
X136372488Y-160422179D01*
X136275981Y-160611585D01*
X136210290Y-160813760D01*
X136177037Y-161023713D01*
X132470373Y-161023713D01*
X132470373Y-152679994D01*
X138022739Y-152679994D01*
X138022739Y-152680005D01*
X138041898Y-152911218D01*
X138098854Y-153136135D01*
X138192053Y-153348609D01*
X138276348Y-153477633D01*
X138944574Y-152809408D01*
X138961612Y-152872993D01*
X139027438Y-152987007D01*
X139120530Y-153080099D01*
X139234544Y-153145925D01*
X139298127Y-153162962D01*
X138628738Y-153832351D01*
X138659186Y-153856050D01*
X138863234Y-153966476D01*
X138863243Y-153966479D01*
X139082676Y-154041811D01*
X139311530Y-154080000D01*
X139543544Y-154080000D01*
X139772397Y-154041811D01*
X139991830Y-153966479D01*
X139991838Y-153966476D01*
X140195892Y-153856047D01*
X140226334Y-153832351D01*
X140226335Y-153832350D01*
X139556947Y-153162962D01*
X139620530Y-153145925D01*
X139734544Y-153080099D01*
X139827636Y-152987007D01*
X139893462Y-152872993D01*
X139910499Y-152809410D01*
X140578723Y-153477634D01*
X140583506Y-153477138D01*
X140626574Y-153440381D01*
X140695806Y-153430957D01*
X140759142Y-153460458D01*
X140781047Y-153485738D01*
X140818553Y-153543147D01*
X140818556Y-153543151D01*
X140818558Y-153543153D01*
X140975753Y-153713913D01*
X140975756Y-153713915D01*
X140975759Y-153713918D01*
X141158902Y-153856464D01*
X141158908Y-153856468D01*
X141158911Y-153856470D01*
X141326397Y-153947109D01*
X141362189Y-153966479D01*
X141363034Y-153966936D01*
X141477024Y-154006068D01*
X141582552Y-154042297D01*
X141582554Y-154042297D01*
X141582556Y-154042298D01*
X141811488Y-154080500D01*
X141811489Y-154080500D01*
X142043585Y-154080500D01*
X142043586Y-154080500D01*
X142272518Y-154042298D01*
X142492040Y-153966936D01*
X142696163Y-153856470D01*
X142696707Y-153856047D01*
X142757666Y-153808600D01*
X142879321Y-153713913D01*
X143036516Y-153543153D01*
X143073728Y-153486196D01*
X143126874Y-153440839D01*
X143196106Y-153431415D01*
X143259441Y-153460917D01*
X143281346Y-153486196D01*
X143318553Y-153543147D01*
X143318556Y-153543151D01*
X143318558Y-153543153D01*
X143475753Y-153713913D01*
X143475756Y-153713915D01*
X143475759Y-153713918D01*
X143658902Y-153856464D01*
X143658908Y-153856468D01*
X143658911Y-153856470D01*
X143826397Y-153947109D01*
X143862189Y-153966479D01*
X143863034Y-153966936D01*
X143977024Y-154006068D01*
X144082552Y-154042297D01*
X144082554Y-154042297D01*
X144082556Y-154042298D01*
X144311488Y-154080500D01*
X144311489Y-154080500D01*
X144543585Y-154080500D01*
X144543586Y-154080500D01*
X144772518Y-154042298D01*
X144992040Y-153966936D01*
X145196163Y-153856470D01*
X145196707Y-153856047D01*
X145257666Y-153808600D01*
X145379321Y-153713913D01*
X145536516Y-153543153D01*
X145663461Y-153348849D01*
X145664698Y-153346027D01*
X145665513Y-153345057D01*
X145665903Y-153344338D01*
X145666050Y-153344418D01*
X145709648Y-153292537D01*
X145776382Y-153271840D01*
X145843712Y-153290508D01*
X145865940Y-153308145D01*
X145967611Y-153409816D01*
X146120351Y-153505789D01*
X146227114Y-153543147D01*
X146290618Y-153565368D01*
X146290623Y-153565369D01*
X146469869Y-153585565D01*
X146469873Y-153585565D01*
X146469877Y-153585565D01*
X146649122Y-153565369D01*
X146649125Y-153565368D01*
X146649128Y-153565368D01*
X146819395Y-153505789D01*
X146972135Y-153409816D01*
X147099689Y-153282262D01*
X147195662Y-153129522D01*
X147255241Y-152959255D01*
X147260644Y-152911305D01*
X147275438Y-152780003D01*
X147275438Y-152779996D01*
X147264171Y-152679994D01*
X152372739Y-152679994D01*
X152372739Y-152680005D01*
X152391898Y-152911218D01*
X152448854Y-153136135D01*
X152542053Y-153348609D01*
X152626348Y-153477633D01*
X153294574Y-152809408D01*
X153311612Y-152872993D01*
X153377438Y-152987007D01*
X153470530Y-153080099D01*
X153584544Y-153145925D01*
X153648127Y-153162962D01*
X152978738Y-153832351D01*
X153009186Y-153856050D01*
X153213234Y-153966476D01*
X153213243Y-153966479D01*
X153432676Y-154041811D01*
X153661530Y-154080000D01*
X153893544Y-154080000D01*
X154122397Y-154041811D01*
X154341830Y-153966479D01*
X154341838Y-153966476D01*
X154545892Y-153856047D01*
X154576334Y-153832351D01*
X154576335Y-153832350D01*
X153906947Y-153162962D01*
X153970530Y-153145925D01*
X154084544Y-153080099D01*
X154177636Y-152987007D01*
X154243462Y-152872993D01*
X154260499Y-152809410D01*
X154928723Y-153477634D01*
X154933506Y-153477138D01*
X154976574Y-153440381D01*
X155045806Y-153430957D01*
X155109142Y-153460458D01*
X155131047Y-153485738D01*
X155168553Y-153543147D01*
X155168556Y-153543151D01*
X155168558Y-153543153D01*
X155325753Y-153713913D01*
X155325756Y-153713915D01*
X155325759Y-153713918D01*
X155508902Y-153856464D01*
X155508908Y-153856468D01*
X155508911Y-153856470D01*
X155676397Y-153947109D01*
X155712189Y-153966479D01*
X155713034Y-153966936D01*
X155827024Y-154006068D01*
X155932552Y-154042297D01*
X155932554Y-154042297D01*
X155932556Y-154042298D01*
X156161488Y-154080500D01*
X156161489Y-154080500D01*
X156393585Y-154080500D01*
X156393586Y-154080500D01*
X156622518Y-154042298D01*
X156842040Y-153966936D01*
X157046163Y-153856470D01*
X157046707Y-153856047D01*
X157107666Y-153808600D01*
X157229321Y-153713913D01*
X157386516Y-153543153D01*
X157423728Y-153486196D01*
X157476874Y-153440839D01*
X157546106Y-153431415D01*
X157609441Y-153460917D01*
X157631346Y-153486196D01*
X157668553Y-153543147D01*
X157668556Y-153543151D01*
X157668558Y-153543153D01*
X157825753Y-153713913D01*
X157825756Y-153713915D01*
X157825759Y-153713918D01*
X158008902Y-153856464D01*
X158008908Y-153856468D01*
X158008911Y-153856470D01*
X158176397Y-153947109D01*
X158212189Y-153966479D01*
X158213034Y-153966936D01*
X158327024Y-154006068D01*
X158432552Y-154042297D01*
X158432554Y-154042297D01*
X158432556Y-154042298D01*
X158661488Y-154080500D01*
X158661489Y-154080500D01*
X158893585Y-154080500D01*
X158893586Y-154080500D01*
X159122518Y-154042298D01*
X159342040Y-153966936D01*
X159546163Y-153856470D01*
X159546707Y-153856047D01*
X159607666Y-153808600D01*
X159729321Y-153713913D01*
X159886516Y-153543153D01*
X159980670Y-153399038D01*
X160033815Y-153353683D01*
X160103046Y-153344259D01*
X160150451Y-153361868D01*
X160220348Y-153405788D01*
X160390618Y-153465368D01*
X160390623Y-153465369D01*
X160569869Y-153485565D01*
X160569873Y-153485565D01*
X160569877Y-153485565D01*
X160749122Y-153465369D01*
X160749125Y-153465368D01*
X160749128Y-153465368D01*
X160919395Y-153405789D01*
X161072135Y-153309816D01*
X161199689Y-153182262D01*
X161295662Y-153029522D01*
X161355241Y-152859255D01*
X161355242Y-152859249D01*
X161375438Y-152680003D01*
X161375438Y-152679996D01*
X161355242Y-152500750D01*
X161355241Y-152500745D01*
X161337028Y-152448695D01*
X161295662Y-152330478D01*
X161199689Y-152177738D01*
X161072135Y-152050184D01*
X161010403Y-152011395D01*
X160919396Y-151954211D01*
X160749127Y-151894631D01*
X160749122Y-151894630D01*
X160569877Y-151874435D01*
X160569869Y-151874435D01*
X160390623Y-151894630D01*
X160390618Y-151894631D01*
X160220349Y-151954211D01*
X160150450Y-151998132D01*
X160083213Y-152017132D01*
X160016378Y-151996764D01*
X159980669Y-151960959D01*
X159886520Y-151816852D01*
X159886517Y-151816849D01*
X159886516Y-151816847D01*
X159729321Y-151646087D01*
X159729316Y-151646083D01*
X159729314Y-151646081D01*
X159546171Y-151503535D01*
X159546165Y-151503531D01*
X159342041Y-151393064D01*
X159342032Y-151393061D01*
X159122521Y-151317702D01*
X158950819Y-151289050D01*
X158893586Y-151279500D01*
X158661488Y-151279500D01*
X158615701Y-151287140D01*
X158432552Y-151317702D01*
X158213041Y-151393061D01*
X158213032Y-151393064D01*
X158008908Y-151503531D01*
X158008902Y-151503535D01*
X157825759Y-151646081D01*
X157825756Y-151646084D01*
X157668552Y-151816854D01*
X157631345Y-151873804D01*
X157578199Y-151919161D01*
X157508967Y-151928584D01*
X157445632Y-151899082D01*
X157423729Y-151873804D01*
X157386521Y-151816854D01*
X157386519Y-151816852D01*
X157386516Y-151816847D01*
X157229321Y-151646087D01*
X157229316Y-151646083D01*
X157229314Y-151646081D01*
X157046171Y-151503535D01*
X157046165Y-151503531D01*
X156842041Y-151393064D01*
X156842032Y-151393061D01*
X156622521Y-151317702D01*
X156450819Y-151289050D01*
X156393586Y-151279500D01*
X156161488Y-151279500D01*
X156115701Y-151287140D01*
X155932552Y-151317702D01*
X155713041Y-151393061D01*
X155713032Y-151393064D01*
X155508908Y-151503531D01*
X155508902Y-151503535D01*
X155325759Y-151646081D01*
X155325756Y-151646084D01*
X155325753Y-151646086D01*
X155325753Y-151646087D01*
X155168558Y-151816847D01*
X155168556Y-151816849D01*
X155168554Y-151816852D01*
X155131046Y-151874262D01*
X155077899Y-151919618D01*
X155008668Y-151929041D01*
X154945332Y-151899538D01*
X154930621Y-151882561D01*
X154928723Y-151882364D01*
X154260499Y-152550589D01*
X154243462Y-152487007D01*
X154177636Y-152372993D01*
X154084544Y-152279901D01*
X153970530Y-152214075D01*
X153906946Y-152197037D01*
X154576334Y-151527647D01*
X154576334Y-151527645D01*
X154545897Y-151503955D01*
X154545891Y-151503951D01*
X154341839Y-151393523D01*
X154341830Y-151393520D01*
X154122397Y-151318188D01*
X153893544Y-151280000D01*
X153661530Y-151280000D01*
X153432676Y-151318188D01*
X153213243Y-151393520D01*
X153213234Y-151393523D01*
X153009187Y-151503949D01*
X152978737Y-151527647D01*
X153648128Y-152197037D01*
X153584544Y-152214075D01*
X153470530Y-152279901D01*
X153377438Y-152372993D01*
X153311612Y-152487007D01*
X153294574Y-152550590D01*
X152626349Y-151882365D01*
X152542053Y-152011391D01*
X152542051Y-152011395D01*
X152448854Y-152223864D01*
X152391898Y-152448781D01*
X152372739Y-152679994D01*
X147264171Y-152679994D01*
X147255242Y-152600750D01*
X147255241Y-152600745D01*
X147195661Y-152430476D01*
X147132828Y-152330478D01*
X147099689Y-152277738D01*
X146972135Y-152150184D01*
X146819396Y-152054211D01*
X146649127Y-151994631D01*
X146649122Y-151994630D01*
X146469877Y-151974435D01*
X146469869Y-151974435D01*
X146290623Y-151994630D01*
X146290618Y-151994631D01*
X146120349Y-152054211D01*
X145967610Y-152150184D01*
X145926919Y-152190875D01*
X145865596Y-152224360D01*
X145795904Y-152219374D01*
X145739971Y-152177502D01*
X145725683Y-152153003D01*
X145724446Y-152150184D01*
X145663461Y-152011151D01*
X145609816Y-151929041D01*
X145536520Y-151816852D01*
X145536517Y-151816849D01*
X145536516Y-151816847D01*
X145379321Y-151646087D01*
X145379316Y-151646083D01*
X145379314Y-151646081D01*
X145196171Y-151503535D01*
X145196165Y-151503531D01*
X144992041Y-151393064D01*
X144992032Y-151393061D01*
X144772521Y-151317702D01*
X144600819Y-151289050D01*
X144543586Y-151279500D01*
X144311488Y-151279500D01*
X144265701Y-151287140D01*
X144082552Y-151317702D01*
X143863041Y-151393061D01*
X143863032Y-151393064D01*
X143658908Y-151503531D01*
X143658902Y-151503535D01*
X143475759Y-151646081D01*
X143475756Y-151646084D01*
X143318552Y-151816854D01*
X143281345Y-151873804D01*
X143228199Y-151919161D01*
X143158967Y-151928584D01*
X143095632Y-151899082D01*
X143073729Y-151873804D01*
X143036521Y-151816854D01*
X143036519Y-151816852D01*
X143036516Y-151816847D01*
X142879321Y-151646087D01*
X142879316Y-151646083D01*
X142879314Y-151646081D01*
X142696171Y-151503535D01*
X142696165Y-151503531D01*
X142492041Y-151393064D01*
X142492032Y-151393061D01*
X142272521Y-151317702D01*
X142100819Y-151289050D01*
X142043586Y-151279500D01*
X141811488Y-151279500D01*
X141765701Y-151287140D01*
X141582552Y-151317702D01*
X141363041Y-151393061D01*
X141363032Y-151393064D01*
X141158908Y-151503531D01*
X141158902Y-151503535D01*
X140975759Y-151646081D01*
X140975756Y-151646084D01*
X140975753Y-151646086D01*
X140975753Y-151646087D01*
X140818558Y-151816847D01*
X140818556Y-151816849D01*
X140818554Y-151816852D01*
X140781046Y-151874262D01*
X140727899Y-151919618D01*
X140658668Y-151929041D01*
X140595332Y-151899538D01*
X140580621Y-151882561D01*
X140578723Y-151882364D01*
X139910499Y-152550589D01*
X139893462Y-152487007D01*
X139827636Y-152372993D01*
X139734544Y-152279901D01*
X139620530Y-152214075D01*
X139556946Y-152197037D01*
X140226334Y-151527647D01*
X140226334Y-151527645D01*
X140195897Y-151503955D01*
X140195891Y-151503951D01*
X139991839Y-151393523D01*
X139991830Y-151393520D01*
X139772397Y-151318188D01*
X139543544Y-151280000D01*
X139311530Y-151280000D01*
X139082676Y-151318188D01*
X138863243Y-151393520D01*
X138863234Y-151393523D01*
X138659187Y-151503949D01*
X138628737Y-151527647D01*
X139298128Y-152197037D01*
X139234544Y-152214075D01*
X139120530Y-152279901D01*
X139027438Y-152372993D01*
X138961612Y-152487007D01*
X138944574Y-152550590D01*
X138276349Y-151882365D01*
X138192053Y-152011391D01*
X138192051Y-152011395D01*
X138098854Y-152223864D01*
X138041898Y-152448781D01*
X138022739Y-152679994D01*
X132470373Y-152679994D01*
X132470373Y-145573713D01*
X136177037Y-145573713D01*
X136177037Y-145786286D01*
X136210290Y-145996239D01*
X136275981Y-146198414D01*
X136372488Y-146387820D01*
X136497427Y-146559786D01*
X136647750Y-146710109D01*
X136819716Y-146835048D01*
X136819718Y-146835049D01*
X136819721Y-146835051D01*
X137009125Y-146931557D01*
X137211294Y-146997246D01*
X137421250Y-147030500D01*
X137421251Y-147030500D01*
X137633823Y-147030500D01*
X137633824Y-147030500D01*
X137843780Y-146997246D01*
X138045949Y-146931557D01*
X138235353Y-146835051D01*
X138257326Y-146819086D01*
X138407323Y-146710109D01*
X138407325Y-146710106D01*
X138407329Y-146710104D01*
X138557641Y-146559792D01*
X138557643Y-146559788D01*
X138557646Y-146559786D01*
X138682585Y-146387820D01*
X138682584Y-146387820D01*
X138682588Y-146387816D01*
X138779094Y-146198412D01*
X138844783Y-145996243D01*
X138878037Y-145786287D01*
X138878037Y-145573713D01*
X144977037Y-145573713D01*
X144977037Y-145786286D01*
X145010290Y-145996239D01*
X145075981Y-146198414D01*
X145172488Y-146387820D01*
X145297427Y-146559786D01*
X145447750Y-146710109D01*
X145619716Y-146835048D01*
X145619718Y-146835049D01*
X145619721Y-146835051D01*
X145809125Y-146931557D01*
X146011294Y-146997246D01*
X146221250Y-147030500D01*
X146221251Y-147030500D01*
X146433823Y-147030500D01*
X146433824Y-147030500D01*
X146643780Y-146997246D01*
X146845949Y-146931557D01*
X147035353Y-146835051D01*
X147057326Y-146819086D01*
X147207323Y-146710109D01*
X147207325Y-146710106D01*
X147207329Y-146710104D01*
X147357641Y-146559792D01*
X147357643Y-146559788D01*
X147357646Y-146559786D01*
X147482585Y-146387820D01*
X147482584Y-146387820D01*
X147482588Y-146387816D01*
X147579094Y-146198412D01*
X147644783Y-145996243D01*
X147678037Y-145786287D01*
X147678037Y-145573713D01*
X150527037Y-145573713D01*
X150527037Y-145786286D01*
X150560290Y-145996239D01*
X150625981Y-146198414D01*
X150722488Y-146387820D01*
X150847427Y-146559786D01*
X150997750Y-146710109D01*
X151169716Y-146835048D01*
X151169718Y-146835049D01*
X151169721Y-146835051D01*
X151359125Y-146931557D01*
X151561294Y-146997246D01*
X151771250Y-147030500D01*
X151771251Y-147030500D01*
X151983823Y-147030500D01*
X151983824Y-147030500D01*
X152193780Y-146997246D01*
X152395949Y-146931557D01*
X152585353Y-146835051D01*
X152607326Y-146819086D01*
X152757323Y-146710109D01*
X152757325Y-146710106D01*
X152757329Y-146710104D01*
X152907641Y-146559792D01*
X152907643Y-146559788D01*
X152907646Y-146559786D01*
X153032585Y-146387820D01*
X153032584Y-146387820D01*
X153032588Y-146387816D01*
X153129094Y-146198412D01*
X153194783Y-145996243D01*
X153228037Y-145786287D01*
X153228037Y-145573713D01*
X159327037Y-145573713D01*
X159327037Y-145786286D01*
X159360290Y-145996239D01*
X159425981Y-146198414D01*
X159522488Y-146387820D01*
X159647427Y-146559786D01*
X159797750Y-146710109D01*
X159969716Y-146835048D01*
X159969718Y-146835049D01*
X159969721Y-146835051D01*
X160159125Y-146931557D01*
X160361294Y-146997246D01*
X160571250Y-147030500D01*
X160571251Y-147030500D01*
X160783823Y-147030500D01*
X160783824Y-147030500D01*
X160993780Y-146997246D01*
X161195949Y-146931557D01*
X161385353Y-146835051D01*
X161407326Y-146819086D01*
X161557323Y-146710109D01*
X161557325Y-146710106D01*
X161557329Y-146710104D01*
X161707641Y-146559792D01*
X161707643Y-146559788D01*
X161707646Y-146559786D01*
X161832585Y-146387820D01*
X161832584Y-146387820D01*
X161832588Y-146387816D01*
X161929094Y-146198412D01*
X161994783Y-145996243D01*
X162028037Y-145786287D01*
X162028037Y-145573713D01*
X161994783Y-145363757D01*
X161929094Y-145161588D01*
X161832588Y-144972184D01*
X161832586Y-144972181D01*
X161832585Y-144972179D01*
X161707646Y-144800213D01*
X161557323Y-144649890D01*
X161385357Y-144524951D01*
X161195951Y-144428444D01*
X161195950Y-144428443D01*
X161195949Y-144428443D01*
X160993780Y-144362754D01*
X160993778Y-144362753D01*
X160993777Y-144362753D01*
X160832494Y-144337208D01*
X160783824Y-144329500D01*
X160571250Y-144329500D01*
X160522579Y-144337208D01*
X160361297Y-144362753D01*
X160159122Y-144428444D01*
X159969716Y-144524951D01*
X159797750Y-144649890D01*
X159647427Y-144800213D01*
X159522488Y-144972179D01*
X159425981Y-145161585D01*
X159360290Y-145363760D01*
X159327037Y-145573713D01*
X153228037Y-145573713D01*
X153194783Y-145363757D01*
X153129094Y-145161588D01*
X153032588Y-144972184D01*
X153032586Y-144972181D01*
X153032585Y-144972179D01*
X152907646Y-144800213D01*
X152757323Y-144649890D01*
X152585357Y-144524951D01*
X152395951Y-144428444D01*
X152395950Y-144428443D01*
X152395949Y-144428443D01*
X152193780Y-144362754D01*
X152193778Y-144362753D01*
X152193777Y-144362753D01*
X152032494Y-144337208D01*
X151983824Y-144329500D01*
X151771250Y-144329500D01*
X151722579Y-144337208D01*
X151561297Y-144362753D01*
X151359122Y-144428444D01*
X151169716Y-144524951D01*
X150997750Y-144649890D01*
X150847427Y-144800213D01*
X150722488Y-144972179D01*
X150625981Y-145161585D01*
X150560290Y-145363760D01*
X150527037Y-145573713D01*
X147678037Y-145573713D01*
X147644783Y-145363757D01*
X147579094Y-145161588D01*
X147482588Y-144972184D01*
X147482586Y-144972181D01*
X147482585Y-144972179D01*
X147357646Y-144800213D01*
X147207323Y-144649890D01*
X147035357Y-144524951D01*
X146845951Y-144428444D01*
X146845950Y-144428443D01*
X146845949Y-144428443D01*
X146643780Y-144362754D01*
X146643778Y-144362753D01*
X146643777Y-144362753D01*
X146482494Y-144337208D01*
X146433824Y-144329500D01*
X146221250Y-144329500D01*
X146172579Y-144337208D01*
X146011297Y-144362753D01*
X145809122Y-144428444D01*
X145619716Y-144524951D01*
X145447750Y-144649890D01*
X145297427Y-144800213D01*
X145172488Y-144972179D01*
X145075981Y-145161585D01*
X145010290Y-145363760D01*
X144977037Y-145573713D01*
X138878037Y-145573713D01*
X138844783Y-145363757D01*
X138779094Y-145161588D01*
X138682588Y-144972184D01*
X138682586Y-144972181D01*
X138682585Y-144972179D01*
X138557646Y-144800213D01*
X138407323Y-144649890D01*
X138235357Y-144524951D01*
X138045951Y-144428444D01*
X138045950Y-144428443D01*
X138045949Y-144428443D01*
X137843780Y-144362754D01*
X137843778Y-144362753D01*
X137843777Y-144362753D01*
X137682494Y-144337208D01*
X137633824Y-144329500D01*
X137421250Y-144329500D01*
X137372579Y-144337208D01*
X137211297Y-144362753D01*
X137009122Y-144428444D01*
X136819716Y-144524951D01*
X136647750Y-144649890D01*
X136497427Y-144800213D01*
X136372488Y-144972179D01*
X136275981Y-145161585D01*
X136210290Y-145363760D01*
X136177037Y-145573713D01*
X132470373Y-145573713D01*
X132470373Y-137229994D01*
X138022739Y-137229994D01*
X138022739Y-137230005D01*
X138041898Y-137461218D01*
X138098854Y-137686135D01*
X138192053Y-137898609D01*
X138276348Y-138027633D01*
X138944574Y-137359408D01*
X138961612Y-137422993D01*
X139027438Y-137537007D01*
X139120530Y-137630099D01*
X139234544Y-137695925D01*
X139298127Y-137712962D01*
X138628738Y-138382351D01*
X138659186Y-138406050D01*
X138863234Y-138516476D01*
X138863243Y-138516479D01*
X139082676Y-138591811D01*
X139311530Y-138630000D01*
X139543544Y-138630000D01*
X139772397Y-138591811D01*
X139991830Y-138516479D01*
X139991838Y-138516476D01*
X140195892Y-138406047D01*
X140226334Y-138382351D01*
X140226335Y-138382350D01*
X139556947Y-137712962D01*
X139620530Y-137695925D01*
X139734544Y-137630099D01*
X139827636Y-137537007D01*
X139893462Y-137422993D01*
X139910499Y-137359410D01*
X140578723Y-138027634D01*
X140583506Y-138027138D01*
X140626574Y-137990381D01*
X140695806Y-137980957D01*
X140759142Y-138010458D01*
X140781047Y-138035738D01*
X140818553Y-138093147D01*
X140818556Y-138093151D01*
X140818558Y-138093153D01*
X140975753Y-138263913D01*
X140975756Y-138263915D01*
X140975759Y-138263918D01*
X141158902Y-138406464D01*
X141158908Y-138406468D01*
X141158911Y-138406470D01*
X141326397Y-138497109D01*
X141362189Y-138516479D01*
X141363034Y-138516936D01*
X141477024Y-138556068D01*
X141582552Y-138592297D01*
X141582554Y-138592297D01*
X141582556Y-138592298D01*
X141811488Y-138630500D01*
X141811489Y-138630500D01*
X142043585Y-138630500D01*
X142043586Y-138630500D01*
X142272518Y-138592298D01*
X142492040Y-138516936D01*
X142696163Y-138406470D01*
X142696707Y-138406047D01*
X142757666Y-138358600D01*
X142879321Y-138263913D01*
X143036516Y-138093153D01*
X143036520Y-138093147D01*
X143073728Y-138036196D01*
X143126874Y-137990839D01*
X143196106Y-137981415D01*
X143259441Y-138010917D01*
X143281346Y-138036196D01*
X143318553Y-138093147D01*
X143318556Y-138093151D01*
X143318558Y-138093153D01*
X143475753Y-138263913D01*
X143475756Y-138263915D01*
X143475759Y-138263918D01*
X143658902Y-138406464D01*
X143658908Y-138406468D01*
X143658911Y-138406470D01*
X143826397Y-138497109D01*
X143862189Y-138516479D01*
X143863034Y-138516936D01*
X143977024Y-138556068D01*
X144082552Y-138592297D01*
X144082554Y-138592297D01*
X144082556Y-138592298D01*
X144311488Y-138630500D01*
X144311489Y-138630500D01*
X144543585Y-138630500D01*
X144543586Y-138630500D01*
X144772518Y-138592298D01*
X144992040Y-138516936D01*
X145196163Y-138406470D01*
X145196707Y-138406047D01*
X145257666Y-138358600D01*
X145379321Y-138263913D01*
X145536516Y-138093153D01*
X145545461Y-138079460D01*
X145598604Y-138034104D01*
X145667835Y-138024677D01*
X145690220Y-138030237D01*
X145737600Y-138046816D01*
X145790613Y-138065367D01*
X145790623Y-138065369D01*
X145969869Y-138085565D01*
X145969873Y-138085565D01*
X145969877Y-138085565D01*
X146149122Y-138065369D01*
X146149125Y-138065368D01*
X146149128Y-138065368D01*
X146319395Y-138005789D01*
X146472135Y-137909816D01*
X146599689Y-137782262D01*
X146695662Y-137629522D01*
X146755241Y-137459255D01*
X146775438Y-137280000D01*
X146769804Y-137230000D01*
X146769803Y-137229994D01*
X152372739Y-137229994D01*
X152372739Y-137230005D01*
X152391898Y-137461218D01*
X152448854Y-137686135D01*
X152542053Y-137898609D01*
X152626348Y-138027633D01*
X153294574Y-137359408D01*
X153311612Y-137422993D01*
X153377438Y-137537007D01*
X153470530Y-137630099D01*
X153584544Y-137695925D01*
X153648127Y-137712962D01*
X152978738Y-138382351D01*
X153009186Y-138406050D01*
X153213234Y-138516476D01*
X153213243Y-138516479D01*
X153432676Y-138591811D01*
X153661530Y-138630000D01*
X153893544Y-138630000D01*
X154122397Y-138591811D01*
X154341830Y-138516479D01*
X154341838Y-138516476D01*
X154545892Y-138406047D01*
X154576334Y-138382351D01*
X154576335Y-138382350D01*
X153906947Y-137712962D01*
X153970530Y-137695925D01*
X154084544Y-137630099D01*
X154177636Y-137537007D01*
X154243462Y-137422993D01*
X154260499Y-137359410D01*
X154928723Y-138027634D01*
X154933506Y-138027138D01*
X154976574Y-137990381D01*
X155045806Y-137980957D01*
X155109142Y-138010458D01*
X155131047Y-138035738D01*
X155168553Y-138093147D01*
X155168556Y-138093151D01*
X155168558Y-138093153D01*
X155325753Y-138263913D01*
X155325756Y-138263915D01*
X155325759Y-138263918D01*
X155508902Y-138406464D01*
X155508908Y-138406468D01*
X155508911Y-138406470D01*
X155676397Y-138497109D01*
X155712189Y-138516479D01*
X155713034Y-138516936D01*
X155827024Y-138556068D01*
X155932552Y-138592297D01*
X155932554Y-138592297D01*
X155932556Y-138592298D01*
X156161488Y-138630500D01*
X156161489Y-138630500D01*
X156393585Y-138630500D01*
X156393586Y-138630500D01*
X156622518Y-138592298D01*
X156842040Y-138516936D01*
X157046163Y-138406470D01*
X157046707Y-138406047D01*
X157107666Y-138358600D01*
X157229321Y-138263913D01*
X157386516Y-138093153D01*
X157386520Y-138093147D01*
X157423728Y-138036196D01*
X157476874Y-137990839D01*
X157546106Y-137981415D01*
X157609441Y-138010917D01*
X157631346Y-138036196D01*
X157668553Y-138093147D01*
X157668556Y-138093151D01*
X157668558Y-138093153D01*
X157825753Y-138263913D01*
X157825756Y-138263915D01*
X157825759Y-138263918D01*
X158008902Y-138406464D01*
X158008908Y-138406468D01*
X158008911Y-138406470D01*
X158176397Y-138497109D01*
X158212189Y-138516479D01*
X158213034Y-138516936D01*
X158327024Y-138556068D01*
X158432552Y-138592297D01*
X158432554Y-138592297D01*
X158432556Y-138592298D01*
X158661488Y-138630500D01*
X158661489Y-138630500D01*
X158893585Y-138630500D01*
X158893586Y-138630500D01*
X159122518Y-138592298D01*
X159342040Y-138516936D01*
X159546163Y-138406470D01*
X159546707Y-138406047D01*
X159607666Y-138358600D01*
X159729321Y-138263913D01*
X159886516Y-138093153D01*
X159928407Y-138029032D01*
X159981551Y-137983677D01*
X160050782Y-137974253D01*
X160098183Y-137991859D01*
X160120351Y-138005789D01*
X160186784Y-138029035D01*
X160290618Y-138065368D01*
X160290623Y-138065369D01*
X160469869Y-138085565D01*
X160469873Y-138085565D01*
X160469877Y-138085565D01*
X160649122Y-138065369D01*
X160649125Y-138065368D01*
X160649128Y-138065368D01*
X160819395Y-138005789D01*
X160972135Y-137909816D01*
X161099689Y-137782262D01*
X161195662Y-137629522D01*
X161255241Y-137459255D01*
X161275438Y-137280000D01*
X161269804Y-137230000D01*
X161255242Y-137100750D01*
X161255241Y-137100745D01*
X161195661Y-136930476D01*
X161099688Y-136777737D01*
X160972135Y-136650184D01*
X160819396Y-136554211D01*
X160649127Y-136494631D01*
X160649122Y-136494630D01*
X160469877Y-136474435D01*
X160469869Y-136474435D01*
X160290623Y-136494630D01*
X160290615Y-136494632D01*
X160121312Y-136553874D01*
X160051534Y-136557435D01*
X159990906Y-136522706D01*
X159976549Y-136504653D01*
X159886520Y-136366852D01*
X159886517Y-136366849D01*
X159886516Y-136366847D01*
X159729321Y-136196087D01*
X159729316Y-136196083D01*
X159729314Y-136196081D01*
X159546171Y-136053535D01*
X159546165Y-136053531D01*
X159342041Y-135943064D01*
X159342032Y-135943061D01*
X159122521Y-135867702D01*
X158950819Y-135839050D01*
X158893586Y-135829500D01*
X158661488Y-135829500D01*
X158615701Y-135837140D01*
X158432552Y-135867702D01*
X158213041Y-135943061D01*
X158213032Y-135943064D01*
X158008908Y-136053531D01*
X158008902Y-136053535D01*
X157825759Y-136196081D01*
X157825756Y-136196084D01*
X157668552Y-136366854D01*
X157631345Y-136423804D01*
X157578199Y-136469161D01*
X157508967Y-136478584D01*
X157445632Y-136449082D01*
X157423729Y-136423804D01*
X157386521Y-136366854D01*
X157386519Y-136366852D01*
X157386516Y-136366847D01*
X157229321Y-136196087D01*
X157229316Y-136196083D01*
X157229314Y-136196081D01*
X157046171Y-136053535D01*
X157046165Y-136053531D01*
X156842041Y-135943064D01*
X156842032Y-135943061D01*
X156622521Y-135867702D01*
X156450819Y-135839050D01*
X156393586Y-135829500D01*
X156161488Y-135829500D01*
X156115701Y-135837140D01*
X155932552Y-135867702D01*
X155713041Y-135943061D01*
X155713032Y-135943064D01*
X155508908Y-136053531D01*
X155508902Y-136053535D01*
X155325759Y-136196081D01*
X155325756Y-136196084D01*
X155325753Y-136196086D01*
X155325753Y-136196087D01*
X155168558Y-136366847D01*
X155168556Y-136366849D01*
X155168554Y-136366852D01*
X155131046Y-136424262D01*
X155077899Y-136469618D01*
X155008668Y-136479041D01*
X154945332Y-136449538D01*
X154930621Y-136432561D01*
X154928723Y-136432364D01*
X154260499Y-137100589D01*
X154243462Y-137037007D01*
X154177636Y-136922993D01*
X154084544Y-136829901D01*
X153970530Y-136764075D01*
X153906946Y-136747037D01*
X154576334Y-136077647D01*
X154576334Y-136077645D01*
X154545897Y-136053955D01*
X154545891Y-136053951D01*
X154341839Y-135943523D01*
X154341830Y-135943520D01*
X154122397Y-135868188D01*
X153893544Y-135830000D01*
X153661530Y-135830000D01*
X153432676Y-135868188D01*
X153213243Y-135943520D01*
X153213234Y-135943523D01*
X153009187Y-136053949D01*
X152978737Y-136077647D01*
X153648128Y-136747037D01*
X153584544Y-136764075D01*
X153470530Y-136829901D01*
X153377438Y-136922993D01*
X153311612Y-137037007D01*
X153294574Y-137100590D01*
X152626349Y-136432365D01*
X152542053Y-136561391D01*
X152542051Y-136561395D01*
X152448854Y-136773864D01*
X152391898Y-136998781D01*
X152372739Y-137229994D01*
X146769803Y-137229994D01*
X146755242Y-137100750D01*
X146755241Y-137100745D01*
X146695661Y-136930476D01*
X146599688Y-136777737D01*
X146472135Y-136650184D01*
X146319396Y-136554211D01*
X146149127Y-136494631D01*
X146149122Y-136494630D01*
X145969877Y-136474435D01*
X145969869Y-136474435D01*
X145790619Y-136494631D01*
X145790618Y-136494631D01*
X145743400Y-136511153D01*
X145673621Y-136514714D01*
X145612994Y-136479984D01*
X145598638Y-136461932D01*
X145566688Y-136413029D01*
X145536516Y-136366847D01*
X145379321Y-136196087D01*
X145379316Y-136196083D01*
X145379314Y-136196081D01*
X145196171Y-136053535D01*
X145196165Y-136053531D01*
X144992041Y-135943064D01*
X144992032Y-135943061D01*
X144772521Y-135867702D01*
X144600819Y-135839050D01*
X144543586Y-135829500D01*
X144311488Y-135829500D01*
X144265701Y-135837140D01*
X144082552Y-135867702D01*
X143863041Y-135943061D01*
X143863032Y-135943064D01*
X143658908Y-136053531D01*
X143658902Y-136053535D01*
X143475759Y-136196081D01*
X143475756Y-136196084D01*
X143318552Y-136366854D01*
X143281345Y-136423804D01*
X143228199Y-136469161D01*
X143158967Y-136478584D01*
X143095632Y-136449082D01*
X143073729Y-136423804D01*
X143036521Y-136366854D01*
X143036519Y-136366852D01*
X143036516Y-136366847D01*
X142879321Y-136196087D01*
X142879316Y-136196083D01*
X142879314Y-136196081D01*
X142696171Y-136053535D01*
X142696165Y-136053531D01*
X142492041Y-135943064D01*
X142492032Y-135943061D01*
X142272521Y-135867702D01*
X142100819Y-135839050D01*
X142043586Y-135829500D01*
X141811488Y-135829500D01*
X141765701Y-135837140D01*
X141582552Y-135867702D01*
X141363041Y-135943061D01*
X141363032Y-135943064D01*
X141158908Y-136053531D01*
X141158902Y-136053535D01*
X140975759Y-136196081D01*
X140975756Y-136196084D01*
X140975753Y-136196086D01*
X140975753Y-136196087D01*
X140818558Y-136366847D01*
X140818556Y-136366849D01*
X140818554Y-136366852D01*
X140781046Y-136424262D01*
X140727899Y-136469618D01*
X140658668Y-136479041D01*
X140595332Y-136449538D01*
X140580621Y-136432561D01*
X140578723Y-136432364D01*
X139910499Y-137100589D01*
X139893462Y-137037007D01*
X139827636Y-136922993D01*
X139734544Y-136829901D01*
X139620530Y-136764075D01*
X139556946Y-136747037D01*
X140226334Y-136077647D01*
X140226334Y-136077645D01*
X140195897Y-136053955D01*
X140195891Y-136053951D01*
X139991839Y-135943523D01*
X139991830Y-135943520D01*
X139772397Y-135868188D01*
X139543544Y-135830000D01*
X139311530Y-135830000D01*
X139082676Y-135868188D01*
X138863243Y-135943520D01*
X138863234Y-135943523D01*
X138659187Y-136053949D01*
X138628737Y-136077647D01*
X139298128Y-136747037D01*
X139234544Y-136764075D01*
X139120530Y-136829901D01*
X139027438Y-136922993D01*
X138961612Y-137037007D01*
X138944574Y-137100590D01*
X138276349Y-136432365D01*
X138192053Y-136561391D01*
X138192051Y-136561395D01*
X138098854Y-136773864D01*
X138041898Y-136998781D01*
X138022739Y-137229994D01*
X132470373Y-137229994D01*
X132470373Y-130123713D01*
X136177037Y-130123713D01*
X136177037Y-130336286D01*
X136210290Y-130546239D01*
X136275981Y-130748414D01*
X136372488Y-130937820D01*
X136497427Y-131109786D01*
X136647750Y-131260109D01*
X136819716Y-131385048D01*
X136819718Y-131385049D01*
X136819721Y-131385051D01*
X137009125Y-131481557D01*
X137211294Y-131547246D01*
X137421250Y-131580500D01*
X137421251Y-131580500D01*
X137633823Y-131580500D01*
X137633824Y-131580500D01*
X137843780Y-131547246D01*
X138045949Y-131481557D01*
X138235353Y-131385051D01*
X138257326Y-131369086D01*
X138407323Y-131260109D01*
X138407325Y-131260106D01*
X138407329Y-131260104D01*
X138557641Y-131109792D01*
X138557643Y-131109788D01*
X138557646Y-131109786D01*
X138682585Y-130937820D01*
X138682584Y-130937820D01*
X138682588Y-130937816D01*
X138779094Y-130748412D01*
X138844783Y-130546243D01*
X138878037Y-130336287D01*
X138878037Y-130123713D01*
X144977037Y-130123713D01*
X144977037Y-130336286D01*
X145010290Y-130546239D01*
X145075981Y-130748414D01*
X145172488Y-130937820D01*
X145297427Y-131109786D01*
X145447750Y-131260109D01*
X145619716Y-131385048D01*
X145619718Y-131385049D01*
X145619721Y-131385051D01*
X145809125Y-131481557D01*
X146011294Y-131547246D01*
X146221250Y-131580500D01*
X146221251Y-131580500D01*
X146433823Y-131580500D01*
X146433824Y-131580500D01*
X146643780Y-131547246D01*
X146845949Y-131481557D01*
X147035353Y-131385051D01*
X147057326Y-131369086D01*
X147207323Y-131260109D01*
X147207325Y-131260106D01*
X147207329Y-131260104D01*
X147357641Y-131109792D01*
X147357643Y-131109788D01*
X147357646Y-131109786D01*
X147482585Y-130937820D01*
X147482584Y-130937820D01*
X147482588Y-130937816D01*
X147579094Y-130748412D01*
X147644783Y-130546243D01*
X147678037Y-130336287D01*
X147678037Y-130123713D01*
X150527037Y-130123713D01*
X150527037Y-130336286D01*
X150560290Y-130546239D01*
X150625981Y-130748414D01*
X150722488Y-130937820D01*
X150847427Y-131109786D01*
X150997750Y-131260109D01*
X151169716Y-131385048D01*
X151169718Y-131385049D01*
X151169721Y-131385051D01*
X151359125Y-131481557D01*
X151561294Y-131547246D01*
X151771250Y-131580500D01*
X151771251Y-131580500D01*
X151983823Y-131580500D01*
X151983824Y-131580500D01*
X152193780Y-131547246D01*
X152395949Y-131481557D01*
X152585353Y-131385051D01*
X152607326Y-131369086D01*
X152757323Y-131260109D01*
X152757325Y-131260106D01*
X152757329Y-131260104D01*
X152907641Y-131109792D01*
X152907643Y-131109788D01*
X152907646Y-131109786D01*
X153032585Y-130937820D01*
X153032584Y-130937820D01*
X153032588Y-130937816D01*
X153129094Y-130748412D01*
X153194783Y-130546243D01*
X153228037Y-130336287D01*
X153228037Y-130123713D01*
X159327037Y-130123713D01*
X159327037Y-130336286D01*
X159360290Y-130546239D01*
X159425981Y-130748414D01*
X159522488Y-130937820D01*
X159647427Y-131109786D01*
X159797750Y-131260109D01*
X159969716Y-131385048D01*
X159969718Y-131385049D01*
X159969721Y-131385051D01*
X160159125Y-131481557D01*
X160361294Y-131547246D01*
X160571250Y-131580500D01*
X160571251Y-131580500D01*
X160783823Y-131580500D01*
X160783824Y-131580500D01*
X160993780Y-131547246D01*
X161195949Y-131481557D01*
X161385353Y-131385051D01*
X161407326Y-131369086D01*
X161557323Y-131260109D01*
X161557325Y-131260106D01*
X161557329Y-131260104D01*
X161707641Y-131109792D01*
X161707643Y-131109788D01*
X161707646Y-131109786D01*
X161832585Y-130937820D01*
X161832584Y-130937820D01*
X161832588Y-130937816D01*
X161929094Y-130748412D01*
X161994783Y-130546243D01*
X162028037Y-130336287D01*
X162028037Y-130123713D01*
X161994783Y-129913757D01*
X161929094Y-129711588D01*
X161832588Y-129522184D01*
X161832586Y-129522181D01*
X161832585Y-129522179D01*
X161707646Y-129350213D01*
X161557323Y-129199890D01*
X161385357Y-129074951D01*
X161195951Y-128978444D01*
X161195950Y-128978443D01*
X161195949Y-128978443D01*
X160993780Y-128912754D01*
X160993778Y-128912753D01*
X160993777Y-128912753D01*
X160832494Y-128887208D01*
X160783824Y-128879500D01*
X160571250Y-128879500D01*
X160522579Y-128887208D01*
X160361297Y-128912753D01*
X160159122Y-128978444D01*
X159969716Y-129074951D01*
X159797750Y-129199890D01*
X159647427Y-129350213D01*
X159522488Y-129522179D01*
X159425981Y-129711585D01*
X159360290Y-129913760D01*
X159327037Y-130123713D01*
X153228037Y-130123713D01*
X153194783Y-129913757D01*
X153129094Y-129711588D01*
X153032588Y-129522184D01*
X153032586Y-129522181D01*
X153032585Y-129522179D01*
X152907646Y-129350213D01*
X152757323Y-129199890D01*
X152585357Y-129074951D01*
X152395951Y-128978444D01*
X152395950Y-128978443D01*
X152395949Y-128978443D01*
X152193780Y-128912754D01*
X152193778Y-128912753D01*
X152193777Y-128912753D01*
X152032494Y-128887208D01*
X151983824Y-128879500D01*
X151771250Y-128879500D01*
X151722579Y-128887208D01*
X151561297Y-128912753D01*
X151359122Y-128978444D01*
X151169716Y-129074951D01*
X150997750Y-129199890D01*
X150847427Y-129350213D01*
X150722488Y-129522179D01*
X150625981Y-129711585D01*
X150560290Y-129913760D01*
X150527037Y-130123713D01*
X147678037Y-130123713D01*
X147644783Y-129913757D01*
X147579094Y-129711588D01*
X147482588Y-129522184D01*
X147482586Y-129522181D01*
X147482585Y-129522179D01*
X147357646Y-129350213D01*
X147207323Y-129199890D01*
X147035357Y-129074951D01*
X146845951Y-128978444D01*
X146845950Y-128978443D01*
X146845949Y-128978443D01*
X146643780Y-128912754D01*
X146643778Y-128912753D01*
X146643777Y-128912753D01*
X146482494Y-128887208D01*
X146433824Y-128879500D01*
X146221250Y-128879500D01*
X146172579Y-128887208D01*
X146011297Y-128912753D01*
X145809122Y-128978444D01*
X145619716Y-129074951D01*
X145447750Y-129199890D01*
X145297427Y-129350213D01*
X145172488Y-129522179D01*
X145075981Y-129711585D01*
X145010290Y-129913760D01*
X144977037Y-130123713D01*
X138878037Y-130123713D01*
X138844783Y-129913757D01*
X138779094Y-129711588D01*
X138682588Y-129522184D01*
X138682586Y-129522181D01*
X138682585Y-129522179D01*
X138557646Y-129350213D01*
X138407323Y-129199890D01*
X138235357Y-129074951D01*
X138045951Y-128978444D01*
X138045950Y-128978443D01*
X138045949Y-128978443D01*
X137843780Y-128912754D01*
X137843778Y-128912753D01*
X137843777Y-128912753D01*
X137682494Y-128887208D01*
X137633824Y-128879500D01*
X137421250Y-128879500D01*
X137372579Y-128887208D01*
X137211297Y-128912753D01*
X137009122Y-128978444D01*
X136819716Y-129074951D01*
X136647750Y-129199890D01*
X136497427Y-129350213D01*
X136372488Y-129522179D01*
X136275981Y-129711585D01*
X136210290Y-129913760D01*
X136177037Y-130123713D01*
X132470373Y-130123713D01*
X132470373Y-121779994D01*
X138022739Y-121779994D01*
X138022739Y-121780005D01*
X138041898Y-122011218D01*
X138098854Y-122236135D01*
X138192053Y-122448609D01*
X138276348Y-122577633D01*
X138944574Y-121909408D01*
X138961612Y-121972993D01*
X139027438Y-122087007D01*
X139120530Y-122180099D01*
X139234544Y-122245925D01*
X139298127Y-122262962D01*
X138628738Y-122932351D01*
X138659186Y-122956050D01*
X138863234Y-123066476D01*
X138863243Y-123066479D01*
X139082676Y-123141811D01*
X139311530Y-123180000D01*
X139543544Y-123180000D01*
X139772397Y-123141811D01*
X139991830Y-123066479D01*
X139991838Y-123066476D01*
X140195892Y-122956047D01*
X140226334Y-122932351D01*
X140226335Y-122932350D01*
X139556947Y-122262962D01*
X139620530Y-122245925D01*
X139734544Y-122180099D01*
X139827636Y-122087007D01*
X139893462Y-121972993D01*
X139910499Y-121909410D01*
X140578723Y-122577634D01*
X140583506Y-122577138D01*
X140626574Y-122540381D01*
X140695806Y-122530957D01*
X140759142Y-122560458D01*
X140781047Y-122585738D01*
X140818553Y-122643147D01*
X140818556Y-122643151D01*
X140818558Y-122643153D01*
X140975753Y-122813913D01*
X140975756Y-122813915D01*
X140975759Y-122813918D01*
X141158902Y-122956464D01*
X141158908Y-122956468D01*
X141158911Y-122956470D01*
X141326397Y-123047109D01*
X141362189Y-123066479D01*
X141363034Y-123066936D01*
X141477024Y-123106068D01*
X141582552Y-123142297D01*
X141582554Y-123142297D01*
X141582556Y-123142298D01*
X141811488Y-123180500D01*
X141811489Y-123180500D01*
X142043585Y-123180500D01*
X142043586Y-123180500D01*
X142272518Y-123142298D01*
X142492040Y-123066936D01*
X142696163Y-122956470D01*
X142696707Y-122956047D01*
X142757666Y-122908600D01*
X142879321Y-122813913D01*
X143036516Y-122643153D01*
X143073728Y-122586196D01*
X143126874Y-122540839D01*
X143196106Y-122531415D01*
X143259441Y-122560917D01*
X143281346Y-122586196D01*
X143318553Y-122643147D01*
X143318556Y-122643151D01*
X143318558Y-122643153D01*
X143475753Y-122813913D01*
X143475756Y-122813915D01*
X143475759Y-122813918D01*
X143658902Y-122956464D01*
X143658908Y-122956468D01*
X143658911Y-122956470D01*
X143826397Y-123047109D01*
X143862189Y-123066479D01*
X143863034Y-123066936D01*
X143977024Y-123106068D01*
X144082552Y-123142297D01*
X144082554Y-123142297D01*
X144082556Y-123142298D01*
X144311488Y-123180500D01*
X144311489Y-123180500D01*
X144543585Y-123180500D01*
X144543586Y-123180500D01*
X144772518Y-123142298D01*
X144992040Y-123066936D01*
X145196163Y-122956470D01*
X145196707Y-122956047D01*
X145257666Y-122908600D01*
X145379321Y-122813913D01*
X145536516Y-122643153D01*
X145663461Y-122448849D01*
X145756694Y-122236300D01*
X145813671Y-122011305D01*
X145813672Y-122011297D01*
X145832837Y-121780006D01*
X145832837Y-121779994D01*
X152372739Y-121779994D01*
X152372739Y-121780005D01*
X152391898Y-122011218D01*
X152448854Y-122236135D01*
X152542053Y-122448609D01*
X152626348Y-122577633D01*
X153294574Y-121909408D01*
X153311612Y-121972993D01*
X153377438Y-122087007D01*
X153470530Y-122180099D01*
X153584544Y-122245925D01*
X153648127Y-122262962D01*
X152978738Y-122932351D01*
X153009186Y-122956050D01*
X153213234Y-123066476D01*
X153213243Y-123066479D01*
X153432676Y-123141811D01*
X153661530Y-123180000D01*
X153893544Y-123180000D01*
X154122397Y-123141811D01*
X154341830Y-123066479D01*
X154341838Y-123066476D01*
X154545892Y-122956047D01*
X154576334Y-122932351D01*
X154576335Y-122932350D01*
X153906947Y-122262962D01*
X153970530Y-122245925D01*
X154084544Y-122180099D01*
X154177636Y-122087007D01*
X154243462Y-121972993D01*
X154260499Y-121909410D01*
X154928723Y-122577634D01*
X154933506Y-122577138D01*
X154976574Y-122540381D01*
X155045806Y-122530957D01*
X155109142Y-122560458D01*
X155131047Y-122585738D01*
X155168553Y-122643147D01*
X155168556Y-122643151D01*
X155168558Y-122643153D01*
X155325753Y-122813913D01*
X155325756Y-122813915D01*
X155325759Y-122813918D01*
X155508902Y-122956464D01*
X155508908Y-122956468D01*
X155508911Y-122956470D01*
X155676397Y-123047109D01*
X155712189Y-123066479D01*
X155713034Y-123066936D01*
X155827024Y-123106068D01*
X155932552Y-123142297D01*
X155932554Y-123142297D01*
X155932556Y-123142298D01*
X156161488Y-123180500D01*
X156161489Y-123180500D01*
X156393585Y-123180500D01*
X156393586Y-123180500D01*
X156622518Y-123142298D01*
X156842040Y-123066936D01*
X157046163Y-122956470D01*
X157046707Y-122956047D01*
X157107666Y-122908600D01*
X157229321Y-122813913D01*
X157386516Y-122643153D01*
X157423728Y-122586196D01*
X157476874Y-122540839D01*
X157546106Y-122531415D01*
X157609441Y-122560917D01*
X157631346Y-122586196D01*
X157668553Y-122643147D01*
X157668556Y-122643151D01*
X157668558Y-122643153D01*
X157825753Y-122813913D01*
X157825756Y-122813915D01*
X157825759Y-122813918D01*
X158008902Y-122956464D01*
X158008908Y-122956468D01*
X158008911Y-122956470D01*
X158176397Y-123047109D01*
X158212189Y-123066479D01*
X158213034Y-123066936D01*
X158327024Y-123106068D01*
X158432552Y-123142297D01*
X158432554Y-123142297D01*
X158432556Y-123142298D01*
X158661488Y-123180500D01*
X158661489Y-123180500D01*
X158893585Y-123180500D01*
X158893586Y-123180500D01*
X159122518Y-123142298D01*
X159342040Y-123066936D01*
X159546163Y-122956470D01*
X159546707Y-122956047D01*
X159607666Y-122908600D01*
X159729321Y-122813913D01*
X159886516Y-122643153D01*
X160013461Y-122448849D01*
X160106694Y-122236300D01*
X160163671Y-122011305D01*
X160163672Y-122011297D01*
X160182837Y-121780006D01*
X160182837Y-121779993D01*
X160163672Y-121548702D01*
X160163670Y-121548691D01*
X160106694Y-121323699D01*
X160013461Y-121111151D01*
X159886520Y-120916852D01*
X159886517Y-120916849D01*
X159886516Y-120916847D01*
X159729321Y-120746087D01*
X159729316Y-120746083D01*
X159729314Y-120746081D01*
X159546171Y-120603535D01*
X159546165Y-120603531D01*
X159342041Y-120493064D01*
X159342032Y-120493061D01*
X159122521Y-120417702D01*
X158950819Y-120389050D01*
X158893586Y-120379500D01*
X158661488Y-120379500D01*
X158615701Y-120387140D01*
X158432552Y-120417702D01*
X158213041Y-120493061D01*
X158213032Y-120493064D01*
X158008908Y-120603531D01*
X158008902Y-120603535D01*
X157825759Y-120746081D01*
X157825756Y-120746084D01*
X157668552Y-120916854D01*
X157631345Y-120973804D01*
X157578199Y-121019161D01*
X157508967Y-121028584D01*
X157445632Y-120999082D01*
X157423729Y-120973804D01*
X157386521Y-120916854D01*
X157386519Y-120916852D01*
X157386516Y-120916847D01*
X157229321Y-120746087D01*
X157229316Y-120746083D01*
X157229314Y-120746081D01*
X157046171Y-120603535D01*
X157046165Y-120603531D01*
X156842041Y-120493064D01*
X156842032Y-120493061D01*
X156622521Y-120417702D01*
X156450819Y-120389050D01*
X156393586Y-120379500D01*
X156161488Y-120379500D01*
X156115701Y-120387140D01*
X155932552Y-120417702D01*
X155713041Y-120493061D01*
X155713032Y-120493064D01*
X155508908Y-120603531D01*
X155508902Y-120603535D01*
X155325759Y-120746081D01*
X155325756Y-120746084D01*
X155325753Y-120746086D01*
X155325753Y-120746087D01*
X155168558Y-120916847D01*
X155168556Y-120916849D01*
X155168554Y-120916852D01*
X155131046Y-120974262D01*
X155077899Y-121019618D01*
X155008668Y-121029041D01*
X154945332Y-120999538D01*
X154930621Y-120982561D01*
X154928723Y-120982364D01*
X154260499Y-121650589D01*
X154243462Y-121587007D01*
X154177636Y-121472993D01*
X154084544Y-121379901D01*
X153970530Y-121314075D01*
X153906946Y-121297037D01*
X154576334Y-120627647D01*
X154576334Y-120627645D01*
X154545897Y-120603955D01*
X154545891Y-120603951D01*
X154341839Y-120493523D01*
X154341830Y-120493520D01*
X154122397Y-120418188D01*
X153893544Y-120380000D01*
X153661530Y-120380000D01*
X153432676Y-120418188D01*
X153213243Y-120493520D01*
X153213234Y-120493523D01*
X153009187Y-120603949D01*
X152978737Y-120627647D01*
X153648128Y-121297037D01*
X153584544Y-121314075D01*
X153470530Y-121379901D01*
X153377438Y-121472993D01*
X153311612Y-121587007D01*
X153294574Y-121650590D01*
X152626349Y-120982365D01*
X152542053Y-121111391D01*
X152542051Y-121111395D01*
X152448854Y-121323864D01*
X152391898Y-121548781D01*
X152372739Y-121779994D01*
X145832837Y-121779994D01*
X145832837Y-121779993D01*
X145813672Y-121548702D01*
X145813670Y-121548691D01*
X145756694Y-121323699D01*
X145663461Y-121111151D01*
X145536520Y-120916852D01*
X145536517Y-120916849D01*
X145536516Y-120916847D01*
X145379321Y-120746087D01*
X145379316Y-120746083D01*
X145379314Y-120746081D01*
X145196171Y-120603535D01*
X145196165Y-120603531D01*
X144992041Y-120493064D01*
X144992032Y-120493061D01*
X144772521Y-120417702D01*
X144600819Y-120389050D01*
X144543586Y-120379500D01*
X144311488Y-120379500D01*
X144265701Y-120387140D01*
X144082552Y-120417702D01*
X143863041Y-120493061D01*
X143863032Y-120493064D01*
X143658908Y-120603531D01*
X143658902Y-120603535D01*
X143475759Y-120746081D01*
X143475756Y-120746084D01*
X143318552Y-120916854D01*
X143281345Y-120973804D01*
X143228199Y-121019161D01*
X143158967Y-121028584D01*
X143095632Y-120999082D01*
X143073729Y-120973804D01*
X143036521Y-120916854D01*
X143036519Y-120916852D01*
X143036516Y-120916847D01*
X142879321Y-120746087D01*
X142879316Y-120746083D01*
X142879314Y-120746081D01*
X142696171Y-120603535D01*
X142696165Y-120603531D01*
X142492041Y-120493064D01*
X142492032Y-120493061D01*
X142272521Y-120417702D01*
X142100819Y-120389050D01*
X142043586Y-120379500D01*
X141811488Y-120379500D01*
X141765701Y-120387140D01*
X141582552Y-120417702D01*
X141363041Y-120493061D01*
X141363032Y-120493064D01*
X141158908Y-120603531D01*
X141158902Y-120603535D01*
X140975759Y-120746081D01*
X140975756Y-120746084D01*
X140975753Y-120746086D01*
X140975753Y-120746087D01*
X140818558Y-120916847D01*
X140818556Y-120916849D01*
X140818554Y-120916852D01*
X140781046Y-120974262D01*
X140727899Y-121019618D01*
X140658668Y-121029041D01*
X140595332Y-120999538D01*
X140580621Y-120982561D01*
X140578723Y-120982364D01*
X139910499Y-121650589D01*
X139893462Y-121587007D01*
X139827636Y-121472993D01*
X139734544Y-121379901D01*
X139620530Y-121314075D01*
X139556946Y-121297037D01*
X140226334Y-120627647D01*
X140226334Y-120627645D01*
X140195897Y-120603955D01*
X140195891Y-120603951D01*
X139991839Y-120493523D01*
X139991830Y-120493520D01*
X139772397Y-120418188D01*
X139543544Y-120380000D01*
X139311530Y-120380000D01*
X139082676Y-120418188D01*
X138863243Y-120493520D01*
X138863234Y-120493523D01*
X138659187Y-120603949D01*
X138628737Y-120627647D01*
X139298128Y-121297037D01*
X139234544Y-121314075D01*
X139120530Y-121379901D01*
X139027438Y-121472993D01*
X138961612Y-121587007D01*
X138944574Y-121650590D01*
X138276349Y-120982365D01*
X138192053Y-121111391D01*
X138192051Y-121111395D01*
X138098854Y-121323864D01*
X138041898Y-121548781D01*
X138022739Y-121779994D01*
X132470373Y-121779994D01*
X132470373Y-114673713D01*
X136177037Y-114673713D01*
X136177037Y-114886286D01*
X136210290Y-115096239D01*
X136275981Y-115298414D01*
X136372488Y-115487820D01*
X136497427Y-115659786D01*
X136647750Y-115810109D01*
X136819716Y-115935048D01*
X136819718Y-115935049D01*
X136819721Y-115935051D01*
X137009125Y-116031557D01*
X137211294Y-116097246D01*
X137421250Y-116130500D01*
X137421251Y-116130500D01*
X137633823Y-116130500D01*
X137633824Y-116130500D01*
X137843780Y-116097246D01*
X138045949Y-116031557D01*
X138235353Y-115935051D01*
X138257326Y-115919086D01*
X138407323Y-115810109D01*
X138407325Y-115810106D01*
X138407329Y-115810104D01*
X138557641Y-115659792D01*
X138557643Y-115659788D01*
X138557646Y-115659786D01*
X138682585Y-115487820D01*
X138682584Y-115487820D01*
X138682588Y-115487816D01*
X138779094Y-115298412D01*
X138844783Y-115096243D01*
X138878037Y-114886287D01*
X138878037Y-114673713D01*
X144977037Y-114673713D01*
X144977037Y-114886286D01*
X145010290Y-115096239D01*
X145075981Y-115298414D01*
X145172488Y-115487820D01*
X145297427Y-115659786D01*
X145447750Y-115810109D01*
X145619716Y-115935048D01*
X145619718Y-115935049D01*
X145619721Y-115935051D01*
X145809125Y-116031557D01*
X146011294Y-116097246D01*
X146221250Y-116130500D01*
X146221251Y-116130500D01*
X146433823Y-116130500D01*
X146433824Y-116130500D01*
X146643780Y-116097246D01*
X146845949Y-116031557D01*
X147035353Y-115935051D01*
X147057326Y-115919086D01*
X147207323Y-115810109D01*
X147207325Y-115810106D01*
X147207329Y-115810104D01*
X147357641Y-115659792D01*
X147357643Y-115659788D01*
X147357646Y-115659786D01*
X147482585Y-115487820D01*
X147482584Y-115487820D01*
X147482588Y-115487816D01*
X147579094Y-115298412D01*
X147644783Y-115096243D01*
X147678037Y-114886287D01*
X147678037Y-114673713D01*
X150527037Y-114673713D01*
X150527037Y-114886286D01*
X150560290Y-115096239D01*
X150625981Y-115298414D01*
X150722488Y-115487820D01*
X150847427Y-115659786D01*
X150997750Y-115810109D01*
X151169716Y-115935048D01*
X151169718Y-115935049D01*
X151169721Y-115935051D01*
X151359125Y-116031557D01*
X151561294Y-116097246D01*
X151771250Y-116130500D01*
X151771251Y-116130500D01*
X151983823Y-116130500D01*
X151983824Y-116130500D01*
X152193780Y-116097246D01*
X152395949Y-116031557D01*
X152585353Y-115935051D01*
X152607326Y-115919086D01*
X152757323Y-115810109D01*
X152757325Y-115810106D01*
X152757329Y-115810104D01*
X152907641Y-115659792D01*
X152907643Y-115659788D01*
X152907646Y-115659786D01*
X153032585Y-115487820D01*
X153032584Y-115487820D01*
X153032588Y-115487816D01*
X153129094Y-115298412D01*
X153194783Y-115096243D01*
X153228037Y-114886287D01*
X153228037Y-114673713D01*
X159327037Y-114673713D01*
X159327037Y-114886286D01*
X159360290Y-115096239D01*
X159425981Y-115298414D01*
X159522488Y-115487820D01*
X159647427Y-115659786D01*
X159797750Y-115810109D01*
X159969716Y-115935048D01*
X159969718Y-115935049D01*
X159969721Y-115935051D01*
X160159125Y-116031557D01*
X160361294Y-116097246D01*
X160571250Y-116130500D01*
X160571251Y-116130500D01*
X160783823Y-116130500D01*
X160783824Y-116130500D01*
X160993780Y-116097246D01*
X161195949Y-116031557D01*
X161385353Y-115935051D01*
X161407326Y-115919086D01*
X161557323Y-115810109D01*
X161557325Y-115810106D01*
X161557329Y-115810104D01*
X161707641Y-115659792D01*
X161707643Y-115659788D01*
X161707646Y-115659786D01*
X161832585Y-115487820D01*
X161832584Y-115487820D01*
X161832588Y-115487816D01*
X161929094Y-115298412D01*
X161994783Y-115096243D01*
X162028037Y-114886287D01*
X162028037Y-114673713D01*
X161994783Y-114463757D01*
X161929094Y-114261588D01*
X161832588Y-114072184D01*
X161832586Y-114072181D01*
X161832585Y-114072179D01*
X161707646Y-113900213D01*
X161557323Y-113749890D01*
X161385357Y-113624951D01*
X161195951Y-113528444D01*
X161195950Y-113528443D01*
X161195949Y-113528443D01*
X160993780Y-113462754D01*
X160993778Y-113462753D01*
X160993777Y-113462753D01*
X160832494Y-113437208D01*
X160783824Y-113429500D01*
X160571250Y-113429500D01*
X160522579Y-113437208D01*
X160361297Y-113462753D01*
X160159122Y-113528444D01*
X159969716Y-113624951D01*
X159797750Y-113749890D01*
X159647427Y-113900213D01*
X159522488Y-114072179D01*
X159425981Y-114261585D01*
X159360290Y-114463760D01*
X159327037Y-114673713D01*
X153228037Y-114673713D01*
X153194783Y-114463757D01*
X153129094Y-114261588D01*
X153032588Y-114072184D01*
X153032586Y-114072181D01*
X153032585Y-114072179D01*
X152907646Y-113900213D01*
X152757323Y-113749890D01*
X152585357Y-113624951D01*
X152395951Y-113528444D01*
X152395950Y-113528443D01*
X152395949Y-113528443D01*
X152193780Y-113462754D01*
X152193778Y-113462753D01*
X152193777Y-113462753D01*
X152032494Y-113437208D01*
X151983824Y-113429500D01*
X151771250Y-113429500D01*
X151722579Y-113437208D01*
X151561297Y-113462753D01*
X151359122Y-113528444D01*
X151169716Y-113624951D01*
X150997750Y-113749890D01*
X150847427Y-113900213D01*
X150722488Y-114072179D01*
X150625981Y-114261585D01*
X150560290Y-114463760D01*
X150527037Y-114673713D01*
X147678037Y-114673713D01*
X147644783Y-114463757D01*
X147579094Y-114261588D01*
X147482588Y-114072184D01*
X147482586Y-114072181D01*
X147482585Y-114072179D01*
X147357646Y-113900213D01*
X147207323Y-113749890D01*
X147035357Y-113624951D01*
X146845951Y-113528444D01*
X146845950Y-113528443D01*
X146845949Y-113528443D01*
X146643780Y-113462754D01*
X146643778Y-113462753D01*
X146643777Y-113462753D01*
X146482494Y-113437208D01*
X146433824Y-113429500D01*
X146221250Y-113429500D01*
X146172579Y-113437208D01*
X146011297Y-113462753D01*
X145809122Y-113528444D01*
X145619716Y-113624951D01*
X145447750Y-113749890D01*
X145297427Y-113900213D01*
X145172488Y-114072179D01*
X145075981Y-114261585D01*
X145010290Y-114463760D01*
X144977037Y-114673713D01*
X138878037Y-114673713D01*
X138844783Y-114463757D01*
X138779094Y-114261588D01*
X138682588Y-114072184D01*
X138682586Y-114072181D01*
X138682585Y-114072179D01*
X138557646Y-113900213D01*
X138407323Y-113749890D01*
X138235357Y-113624951D01*
X138045951Y-113528444D01*
X138045950Y-113528443D01*
X138045949Y-113528443D01*
X137843780Y-113462754D01*
X137843778Y-113462753D01*
X137843777Y-113462753D01*
X137682494Y-113437208D01*
X137633824Y-113429500D01*
X137421250Y-113429500D01*
X137372579Y-113437208D01*
X137211297Y-113462753D01*
X137009122Y-113528444D01*
X136819716Y-113624951D01*
X136647750Y-113749890D01*
X136497427Y-113900213D01*
X136372488Y-114072179D01*
X136275981Y-114261585D01*
X136210290Y-114463760D01*
X136177037Y-114673713D01*
X132470373Y-114673713D01*
X132470373Y-106279996D01*
X143771972Y-106279996D01*
X143771972Y-106280003D01*
X143792167Y-106459249D01*
X143792168Y-106459254D01*
X143851748Y-106629523D01*
X143942537Y-106774011D01*
X143947721Y-106782262D01*
X144075275Y-106909816D01*
X144228015Y-107005789D01*
X144398282Y-107065368D01*
X144398287Y-107065369D01*
X144577533Y-107085565D01*
X144577537Y-107085565D01*
X144577541Y-107085565D01*
X144756786Y-107065369D01*
X144756789Y-107065368D01*
X144756792Y-107065368D01*
X144927059Y-107005789D01*
X145079799Y-106909816D01*
X145124856Y-106864759D01*
X145186179Y-106831274D01*
X145255871Y-106836258D01*
X145300218Y-106864759D01*
X145345275Y-106909816D01*
X145498015Y-107005789D01*
X145668282Y-107065368D01*
X145668287Y-107065369D01*
X145847533Y-107085565D01*
X145847537Y-107085565D01*
X145847541Y-107085565D01*
X146026786Y-107065369D01*
X146026789Y-107065368D01*
X146026792Y-107065368D01*
X146197059Y-107005789D01*
X146349799Y-106909816D01*
X146477353Y-106782262D01*
X146573326Y-106629522D01*
X146632905Y-106459255D01*
X146653102Y-106280000D01*
X146632905Y-106100745D01*
X146573326Y-105930478D01*
X146477353Y-105777738D01*
X146349799Y-105650184D01*
X146197060Y-105554211D01*
X146026791Y-105494631D01*
X146026786Y-105494630D01*
X145847541Y-105474435D01*
X145847533Y-105474435D01*
X145668287Y-105494630D01*
X145668282Y-105494631D01*
X145498013Y-105554211D01*
X145345274Y-105650184D01*
X145300217Y-105695241D01*
X145238894Y-105728725D01*
X145169202Y-105723740D01*
X145124857Y-105695241D01*
X145079800Y-105650185D01*
X145079799Y-105650184D01*
X144927060Y-105554211D01*
X144756791Y-105494631D01*
X144756786Y-105494630D01*
X144577541Y-105474435D01*
X144577533Y-105474435D01*
X144398287Y-105494630D01*
X144398282Y-105494631D01*
X144228013Y-105554211D01*
X144075274Y-105650184D01*
X143947721Y-105777737D01*
X143851748Y-105930476D01*
X143792168Y-106100745D01*
X143792167Y-106100750D01*
X143771972Y-106279996D01*
X132470373Y-106279996D01*
X132470373Y-101279996D01*
X143914308Y-101279996D01*
X143914308Y-101280003D01*
X143934503Y-101459249D01*
X143934504Y-101459254D01*
X143994084Y-101629523D01*
X144090057Y-101782262D01*
X144217611Y-101909816D01*
X144370351Y-102005789D01*
X144540618Y-102065368D01*
X144540623Y-102065369D01*
X144719869Y-102085565D01*
X144719873Y-102085565D01*
X144719877Y-102085565D01*
X144899122Y-102065369D01*
X144899125Y-102065368D01*
X144899128Y-102065368D01*
X145069395Y-102005789D01*
X145153900Y-101952691D01*
X145221137Y-101933690D01*
X145285846Y-101952691D01*
X145370348Y-102005788D01*
X145540618Y-102065368D01*
X145540623Y-102065369D01*
X145719869Y-102085565D01*
X145719873Y-102085565D01*
X145719877Y-102085565D01*
X145899122Y-102065369D01*
X145899125Y-102065368D01*
X145899128Y-102065368D01*
X146069395Y-102005789D01*
X146222135Y-101909816D01*
X146349689Y-101782262D01*
X146445662Y-101629522D01*
X146505241Y-101459255D01*
X146525438Y-101280000D01*
X146505241Y-101100745D01*
X146445662Y-100930478D01*
X146349689Y-100777738D01*
X146222135Y-100650184D01*
X146153900Y-100607309D01*
X146069396Y-100554211D01*
X145899127Y-100494631D01*
X145899122Y-100494630D01*
X145719877Y-100474435D01*
X145719869Y-100474435D01*
X145540623Y-100494630D01*
X145540610Y-100494633D01*
X145370352Y-100554209D01*
X145285844Y-100607309D01*
X145218607Y-100626309D01*
X145153902Y-100607309D01*
X145069393Y-100554209D01*
X144899135Y-100494633D01*
X144899122Y-100494630D01*
X144719877Y-100474435D01*
X144719869Y-100474435D01*
X144540623Y-100494630D01*
X144540618Y-100494631D01*
X144370349Y-100554211D01*
X144217610Y-100650184D01*
X144090057Y-100777737D01*
X143994084Y-100930476D01*
X143934504Y-101100745D01*
X143934503Y-101100750D01*
X143914308Y-101279996D01*
X132470373Y-101279996D01*
X132470373Y-77639999D01*
X134444341Y-77639999D01*
X134444341Y-77640000D01*
X134464936Y-77875403D01*
X134464938Y-77875413D01*
X134526094Y-78103655D01*
X134526096Y-78103659D01*
X134526097Y-78103663D01*
X134585663Y-78231402D01*
X134625965Y-78317830D01*
X134625967Y-78317834D01*
X134761501Y-78511395D01*
X134761506Y-78511402D01*
X134928597Y-78678493D01*
X134928603Y-78678498D01*
X135114158Y-78808425D01*
X135157783Y-78863002D01*
X135164977Y-78932500D01*
X135133454Y-78994855D01*
X135114158Y-79011575D01*
X134928597Y-79141505D01*
X134761505Y-79308597D01*
X134625965Y-79502169D01*
X134625964Y-79502171D01*
X134526098Y-79716335D01*
X134526094Y-79716344D01*
X134464938Y-79944586D01*
X134464936Y-79944596D01*
X134444341Y-80179999D01*
X134444341Y-80180000D01*
X134464936Y-80415403D01*
X134464938Y-80415413D01*
X134526094Y-80643655D01*
X134526096Y-80643659D01*
X134526097Y-80643663D01*
X134598776Y-80799523D01*
X134625965Y-80857830D01*
X134625967Y-80857834D01*
X134761501Y-81051395D01*
X134761506Y-81051402D01*
X134928597Y-81218493D01*
X134928603Y-81218498D01*
X135114158Y-81348425D01*
X135157783Y-81403002D01*
X135164977Y-81472500D01*
X135133454Y-81534855D01*
X135114158Y-81551575D01*
X134928597Y-81681505D01*
X134761505Y-81848597D01*
X134625965Y-82042169D01*
X134625964Y-82042171D01*
X134526098Y-82256335D01*
X134526094Y-82256344D01*
X134464938Y-82484586D01*
X134464936Y-82484596D01*
X134444341Y-82719999D01*
X134444341Y-82720000D01*
X134464936Y-82955403D01*
X134464938Y-82955413D01*
X134526094Y-83183655D01*
X134526096Y-83183659D01*
X134526097Y-83183663D01*
X134585663Y-83311402D01*
X134625965Y-83397830D01*
X134625967Y-83397834D01*
X134761501Y-83591395D01*
X134761506Y-83591402D01*
X134928597Y-83758493D01*
X134928603Y-83758498D01*
X135114158Y-83888425D01*
X135157783Y-83943002D01*
X135164977Y-84012500D01*
X135133454Y-84074855D01*
X135114158Y-84091575D01*
X134928597Y-84221505D01*
X134761505Y-84388597D01*
X134625965Y-84582169D01*
X134625964Y-84582171D01*
X134526098Y-84796335D01*
X134526094Y-84796344D01*
X134464938Y-85024586D01*
X134464936Y-85024596D01*
X134444341Y-85259999D01*
X134444341Y-85260000D01*
X134464936Y-85495403D01*
X134464938Y-85495413D01*
X134526094Y-85723655D01*
X134526096Y-85723659D01*
X134526097Y-85723663D01*
X134585663Y-85851402D01*
X134625965Y-85937830D01*
X134625967Y-85937834D01*
X134761501Y-86131395D01*
X134761506Y-86131402D01*
X134928597Y-86298493D01*
X134928603Y-86298498D01*
X135114158Y-86428425D01*
X135157783Y-86483002D01*
X135164977Y-86552500D01*
X135133454Y-86614855D01*
X135114158Y-86631575D01*
X134928597Y-86761505D01*
X134761505Y-86928597D01*
X134625965Y-87122169D01*
X134625964Y-87122171D01*
X134526098Y-87336335D01*
X134526094Y-87336344D01*
X134464938Y-87564586D01*
X134464936Y-87564596D01*
X134444341Y-87799999D01*
X134444341Y-87800000D01*
X134464936Y-88035403D01*
X134464938Y-88035413D01*
X134526094Y-88263655D01*
X134526096Y-88263659D01*
X134526097Y-88263663D01*
X134617564Y-88459815D01*
X134625965Y-88477830D01*
X134625967Y-88477834D01*
X134761501Y-88671395D01*
X134761506Y-88671402D01*
X134928597Y-88838493D01*
X134928603Y-88838498D01*
X135114158Y-88968425D01*
X135157783Y-89023002D01*
X135164977Y-89092500D01*
X135133454Y-89154855D01*
X135114158Y-89171575D01*
X134928597Y-89301505D01*
X134761505Y-89468597D01*
X134625965Y-89662169D01*
X134625964Y-89662171D01*
X134526098Y-89876335D01*
X134526094Y-89876344D01*
X134464938Y-90104586D01*
X134464936Y-90104596D01*
X134444341Y-90339999D01*
X134444341Y-90340000D01*
X134464936Y-90575403D01*
X134464938Y-90575413D01*
X134526094Y-90803655D01*
X134526096Y-90803659D01*
X134526097Y-90803663D01*
X134625965Y-91017830D01*
X134625967Y-91017834D01*
X134734281Y-91172521D01*
X134761505Y-91211401D01*
X134928599Y-91378495D01*
X135025384Y-91446265D01*
X135122165Y-91514032D01*
X135122167Y-91514033D01*
X135122170Y-91514035D01*
X135336337Y-91613903D01*
X135564592Y-91675063D01*
X135752918Y-91691539D01*
X135799999Y-91695659D01*
X135800000Y-91695659D01*
X135800001Y-91695659D01*
X135839234Y-91692226D01*
X136035408Y-91675063D01*
X136263663Y-91613903D01*
X136477830Y-91514035D01*
X136671401Y-91378495D01*
X136838495Y-91211401D01*
X136974035Y-91017830D01*
X137073903Y-90803663D01*
X137135063Y-90575408D01*
X137155659Y-90340000D01*
X137135063Y-90104592D01*
X137073903Y-89876337D01*
X136974035Y-89662171D01*
X136838495Y-89468599D01*
X136838494Y-89468597D01*
X136671402Y-89301506D01*
X136671396Y-89301501D01*
X136485842Y-89171575D01*
X136442217Y-89116998D01*
X136435023Y-89047500D01*
X136466546Y-88985145D01*
X136485842Y-88968425D01*
X136647742Y-88855061D01*
X136671401Y-88838495D01*
X136838495Y-88671401D01*
X136974035Y-88477830D01*
X137073903Y-88263663D01*
X137135063Y-88035408D01*
X137153035Y-87829996D01*
X156439308Y-87829996D01*
X156439308Y-87830003D01*
X156459503Y-88009249D01*
X156459504Y-88009254D01*
X156519084Y-88179523D01*
X156530590Y-88197834D01*
X156615057Y-88332262D01*
X156742611Y-88459816D01*
X156804627Y-88498783D01*
X156850918Y-88551118D01*
X156861566Y-88620171D01*
X156833191Y-88684020D01*
X156826337Y-88691458D01*
X156740056Y-88777739D01*
X156644084Y-88930476D01*
X156584504Y-89100745D01*
X156584503Y-89100750D01*
X156564308Y-89279996D01*
X156564308Y-89280003D01*
X156584503Y-89459249D01*
X156584504Y-89459254D01*
X156644084Y-89629523D01*
X156740057Y-89782262D01*
X156867611Y-89909816D01*
X157020351Y-90005789D01*
X157190618Y-90065368D01*
X157190623Y-90065369D01*
X157369869Y-90085565D01*
X157369873Y-90085565D01*
X157369877Y-90085565D01*
X157549122Y-90065369D01*
X157549125Y-90065368D01*
X157549128Y-90065368D01*
X157719395Y-90005789D01*
X157872135Y-89909816D01*
X157999689Y-89782262D01*
X158095662Y-89629522D01*
X158155241Y-89459255D01*
X158173015Y-89301505D01*
X158175438Y-89280003D01*
X158175438Y-89279996D01*
X158155242Y-89100750D01*
X158155241Y-89100745D01*
X158136610Y-89047500D01*
X158095662Y-88930478D01*
X157999689Y-88777738D01*
X157872135Y-88650184D01*
X157872129Y-88650179D01*
X157810118Y-88611215D01*
X157763827Y-88558881D01*
X157753179Y-88489827D01*
X157781554Y-88425979D01*
X157788385Y-88418565D01*
X157874689Y-88332262D01*
X157970662Y-88179522D01*
X158030241Y-88009255D01*
X158030242Y-88009249D01*
X158050438Y-87830003D01*
X158050438Y-87829996D01*
X158030242Y-87650750D01*
X158030241Y-87650745D01*
X157970661Y-87480476D01*
X157931455Y-87418080D01*
X157874689Y-87327738D01*
X157747135Y-87200184D01*
X157594396Y-87104211D01*
X157424127Y-87044631D01*
X157424122Y-87044630D01*
X157244877Y-87024435D01*
X157244869Y-87024435D01*
X157065623Y-87044630D01*
X157065618Y-87044631D01*
X156895349Y-87104211D01*
X156742610Y-87200184D01*
X156615057Y-87327737D01*
X156519084Y-87480476D01*
X156459504Y-87650745D01*
X156459503Y-87650750D01*
X156439308Y-87829996D01*
X137153035Y-87829996D01*
X137155659Y-87800000D01*
X137135063Y-87564592D01*
X137073903Y-87336337D01*
X136974035Y-87122171D01*
X136961460Y-87104211D01*
X136838494Y-86928597D01*
X136671402Y-86761506D01*
X136671396Y-86761501D01*
X136485842Y-86631575D01*
X136442217Y-86576998D01*
X136435023Y-86507500D01*
X136466546Y-86445145D01*
X136485842Y-86428425D01*
X136595595Y-86351575D01*
X136671401Y-86298495D01*
X136838495Y-86131401D01*
X136974035Y-85937830D01*
X137073903Y-85723663D01*
X137135063Y-85495408D01*
X137155659Y-85260000D01*
X137135063Y-85024592D01*
X137073903Y-84796337D01*
X136974035Y-84582171D01*
X136927937Y-84516335D01*
X136838494Y-84388597D01*
X136671402Y-84221506D01*
X136671396Y-84221501D01*
X136540712Y-84129995D01*
X147689308Y-84129995D01*
X147689308Y-84130003D01*
X147709503Y-84309249D01*
X147709504Y-84309254D01*
X147769084Y-84479523D01*
X147833581Y-84582169D01*
X147865057Y-84632262D01*
X147992611Y-84759816D01*
X148145351Y-84855789D01*
X148315618Y-84915368D01*
X148315623Y-84915369D01*
X148494869Y-84935565D01*
X148494873Y-84935565D01*
X148494877Y-84935565D01*
X148674122Y-84915369D01*
X148674125Y-84915368D01*
X148674128Y-84915368D01*
X148844395Y-84855789D01*
X148997135Y-84759816D01*
X149057485Y-84699465D01*
X149118804Y-84665983D01*
X149188496Y-84670967D01*
X149233719Y-84703751D01*
X149235133Y-84702338D01*
X149240057Y-84707262D01*
X149367611Y-84834816D01*
X149457953Y-84891582D01*
X149495808Y-84915368D01*
X149520351Y-84930789D01*
X149660985Y-84979999D01*
X149690618Y-84990368D01*
X149690623Y-84990369D01*
X149869869Y-85010565D01*
X149869873Y-85010565D01*
X149869877Y-85010565D01*
X150049122Y-84990369D01*
X150049125Y-84990368D01*
X150049128Y-84990368D01*
X150219395Y-84930789D01*
X150372135Y-84834816D01*
X150499689Y-84707262D01*
X150595662Y-84554522D01*
X150655241Y-84384255D01*
X150655242Y-84384249D01*
X150675438Y-84205003D01*
X150675438Y-84204996D01*
X150655242Y-84025750D01*
X150655241Y-84025745D01*
X150613041Y-83905145D01*
X150595662Y-83855478D01*
X150499689Y-83702738D01*
X150372135Y-83575184D01*
X150372133Y-83575183D01*
X150219396Y-83479211D01*
X150049127Y-83419631D01*
X150049122Y-83419630D01*
X149869877Y-83399435D01*
X149869869Y-83399435D01*
X149690623Y-83419630D01*
X149690618Y-83419631D01*
X149520349Y-83479211D01*
X149367612Y-83575183D01*
X149307263Y-83635532D01*
X149245939Y-83669016D01*
X149176248Y-83664031D01*
X149131027Y-83631247D01*
X149129613Y-83632662D01*
X148997135Y-83500184D01*
X148844396Y-83404211D01*
X148674127Y-83344631D01*
X148674122Y-83344630D01*
X148494877Y-83324435D01*
X148494869Y-83324435D01*
X148315623Y-83344630D01*
X148315618Y-83344631D01*
X148145349Y-83404211D01*
X147992610Y-83500184D01*
X147865057Y-83627737D01*
X147769084Y-83780476D01*
X147709504Y-83950745D01*
X147709503Y-83950750D01*
X147689308Y-84129995D01*
X136540712Y-84129995D01*
X136485842Y-84091575D01*
X136442217Y-84036998D01*
X136435023Y-83967500D01*
X136466546Y-83905145D01*
X136485842Y-83888425D01*
X136595595Y-83811575D01*
X136671401Y-83758495D01*
X136838495Y-83591401D01*
X136974035Y-83397830D01*
X137073903Y-83183663D01*
X137135063Y-82955408D01*
X137155659Y-82720000D01*
X137135063Y-82484592D01*
X137073903Y-82256337D01*
X136974035Y-82042171D01*
X136927937Y-81976335D01*
X136838494Y-81848597D01*
X136671402Y-81681506D01*
X136671396Y-81681501D01*
X136485842Y-81551575D01*
X136442217Y-81496998D01*
X136435023Y-81427500D01*
X136466546Y-81365145D01*
X136485842Y-81348425D01*
X136595595Y-81271575D01*
X136671401Y-81218495D01*
X136838495Y-81051401D01*
X136974035Y-80857830D01*
X137010330Y-80779996D01*
X143989308Y-80779996D01*
X143989308Y-80780003D01*
X144009503Y-80959249D01*
X144009504Y-80959254D01*
X144069084Y-81129523D01*
X144135592Y-81235369D01*
X144165057Y-81282262D01*
X144292611Y-81409816D01*
X144445351Y-81505789D01*
X144576200Y-81551575D01*
X144615618Y-81565368D01*
X144615623Y-81565369D01*
X144794869Y-81585565D01*
X144794873Y-81585565D01*
X144794877Y-81585565D01*
X144974122Y-81565369D01*
X144974125Y-81565368D01*
X144974128Y-81565368D01*
X145144395Y-81505789D01*
X145297135Y-81409816D01*
X145307192Y-81399759D01*
X145368515Y-81366274D01*
X145438207Y-81371258D01*
X145482554Y-81399759D01*
X145492611Y-81409816D01*
X145645351Y-81505789D01*
X145776200Y-81551575D01*
X145815618Y-81565368D01*
X145815623Y-81565369D01*
X145994869Y-81585565D01*
X145994873Y-81585565D01*
X145994877Y-81585565D01*
X146174122Y-81565369D01*
X146174125Y-81565368D01*
X146174128Y-81565368D01*
X146344395Y-81505789D01*
X146497135Y-81409816D01*
X146624689Y-81282262D01*
X146720662Y-81129522D01*
X146780241Y-80959255D01*
X146780774Y-80954523D01*
X146800438Y-80780003D01*
X146800438Y-80779996D01*
X146780720Y-80604996D01*
X152864308Y-80604996D01*
X152864308Y-80605003D01*
X152884503Y-80784249D01*
X152884504Y-80784254D01*
X152944084Y-80954523D01*
X153026160Y-81085145D01*
X153040057Y-81107262D01*
X153167611Y-81234816D01*
X153226113Y-81271575D01*
X153290572Y-81312078D01*
X153320351Y-81330789D01*
X153436005Y-81371258D01*
X153490618Y-81390368D01*
X153490623Y-81390369D01*
X153669869Y-81410565D01*
X153669873Y-81410565D01*
X153669877Y-81410565D01*
X153849122Y-81390369D01*
X153849125Y-81390368D01*
X153849128Y-81390368D01*
X154019395Y-81330789D01*
X154172135Y-81234816D01*
X154299689Y-81107262D01*
X154395662Y-80954522D01*
X154406238Y-80924294D01*
X154446957Y-80867520D01*
X154509397Y-80842027D01*
X154524128Y-80840368D01*
X154694395Y-80780789D01*
X154847135Y-80684816D01*
X154974689Y-80557262D01*
X155042089Y-80449996D01*
X160144435Y-80449996D01*
X160144435Y-80450003D01*
X160164630Y-80629249D01*
X160164631Y-80629254D01*
X160224211Y-80799523D01*
X160256400Y-80850751D01*
X160320184Y-80952262D01*
X160447738Y-81079816D01*
X160600478Y-81175789D01*
X160769165Y-81234815D01*
X160770745Y-81235368D01*
X160770750Y-81235369D01*
X160949996Y-81255565D01*
X160950000Y-81255565D01*
X160950004Y-81255565D01*
X161129249Y-81235369D01*
X161129252Y-81235368D01*
X161129255Y-81235368D01*
X161299522Y-81175789D01*
X161452262Y-81079816D01*
X161579816Y-80952262D01*
X161675789Y-80799522D01*
X161735368Y-80629255D01*
X161738101Y-80605000D01*
X161755565Y-80450003D01*
X161755565Y-80449996D01*
X161735369Y-80270750D01*
X161735368Y-80270745D01*
X161703615Y-80180000D01*
X161675789Y-80100478D01*
X161646717Y-80054211D01*
X161579815Y-79947737D01*
X161452262Y-79820184D01*
X161299523Y-79724211D01*
X161129254Y-79664631D01*
X161129249Y-79664630D01*
X160950004Y-79644435D01*
X160949996Y-79644435D01*
X160770750Y-79664630D01*
X160770745Y-79664631D01*
X160600476Y-79724211D01*
X160447737Y-79820184D01*
X160320184Y-79947737D01*
X160224211Y-80100476D01*
X160164631Y-80270745D01*
X160164630Y-80270750D01*
X160144435Y-80449996D01*
X155042089Y-80449996D01*
X155070662Y-80404522D01*
X155130241Y-80234255D01*
X155130242Y-80234249D01*
X155150438Y-80055003D01*
X155150438Y-80054996D01*
X155130242Y-79875750D01*
X155130241Y-79875745D01*
X155110606Y-79819632D01*
X155070662Y-79705478D01*
X155070659Y-79705474D01*
X154974688Y-79552737D01*
X154847135Y-79425184D01*
X154694396Y-79329211D01*
X154524127Y-79269631D01*
X154524122Y-79269630D01*
X154344877Y-79249435D01*
X154344869Y-79249435D01*
X154165623Y-79269630D01*
X154165618Y-79269631D01*
X153995349Y-79329211D01*
X153842610Y-79425184D01*
X153715057Y-79552737D01*
X153619085Y-79705474D01*
X153608506Y-79735708D01*
X153567783Y-79792483D01*
X153505352Y-79817971D01*
X153490622Y-79819630D01*
X153320351Y-79879210D01*
X153167610Y-79975184D01*
X153040057Y-80102737D01*
X152944084Y-80255476D01*
X152884504Y-80425745D01*
X152884503Y-80425750D01*
X152864308Y-80604996D01*
X146780720Y-80604996D01*
X146780242Y-80600750D01*
X146780241Y-80600745D01*
X146727493Y-80450000D01*
X146720662Y-80430478D01*
X146704353Y-80404523D01*
X146624688Y-80277737D01*
X146497135Y-80150184D01*
X146344396Y-80054211D01*
X146174127Y-79994631D01*
X146174122Y-79994630D01*
X145994877Y-79974435D01*
X145994869Y-79974435D01*
X145815623Y-79994630D01*
X145815618Y-79994631D01*
X145645349Y-80054211D01*
X145492610Y-80150184D01*
X145482554Y-80160241D01*
X145421231Y-80193726D01*
X145351539Y-80188742D01*
X145307192Y-80160241D01*
X145297135Y-80150184D01*
X145144396Y-80054211D01*
X144974127Y-79994631D01*
X144974122Y-79994630D01*
X144794877Y-79974435D01*
X144794869Y-79974435D01*
X144615623Y-79994630D01*
X144615618Y-79994631D01*
X144445349Y-80054211D01*
X144292610Y-80150184D01*
X144165057Y-80277737D01*
X144069084Y-80430476D01*
X144009504Y-80600745D01*
X144009503Y-80600750D01*
X143989308Y-80779996D01*
X137010330Y-80779996D01*
X137073903Y-80643663D01*
X137135063Y-80415408D01*
X137155659Y-80180000D01*
X137135063Y-79944592D01*
X137073903Y-79716337D01*
X136974035Y-79502171D01*
X136927937Y-79436335D01*
X136838494Y-79308597D01*
X136671402Y-79141506D01*
X136671396Y-79141501D01*
X136485842Y-79011575D01*
X136442217Y-78956998D01*
X136435023Y-78887500D01*
X136466546Y-78825145D01*
X136485842Y-78808425D01*
X136595595Y-78731575D01*
X136671401Y-78678495D01*
X136838495Y-78511401D01*
X136974035Y-78317830D01*
X137073903Y-78103663D01*
X137135063Y-77875408D01*
X137155659Y-77640000D01*
X137135063Y-77404592D01*
X137073903Y-77176337D01*
X136974035Y-76962171D01*
X136927936Y-76896335D01*
X136838496Y-76768600D01*
X136838495Y-76768599D01*
X136716567Y-76646671D01*
X136683084Y-76585351D01*
X136688068Y-76515659D01*
X136729939Y-76459725D01*
X136760915Y-76442810D01*
X136892331Y-76393796D01*
X137007546Y-76307546D01*
X137093796Y-76192331D01*
X137144091Y-76057483D01*
X137150500Y-75997873D01*
X137150499Y-74202128D01*
X137144091Y-74142517D01*
X137143961Y-74142169D01*
X137093797Y-74007671D01*
X137093793Y-74007664D01*
X137007547Y-73892455D01*
X137007544Y-73892452D01*
X136892335Y-73806206D01*
X136892328Y-73806202D01*
X136757482Y-73755908D01*
X136757483Y-73755908D01*
X136697883Y-73749501D01*
X136697881Y-73749500D01*
X136697873Y-73749500D01*
X136697864Y-73749500D01*
X134902129Y-73749500D01*
X134902123Y-73749501D01*
X134842516Y-73755908D01*
X134707671Y-73806202D01*
X134707664Y-73806206D01*
X134592455Y-73892452D01*
X134592452Y-73892455D01*
X134506206Y-74007664D01*
X134506202Y-74007671D01*
X134455908Y-74142517D01*
X134449501Y-74202116D01*
X134449501Y-74202123D01*
X134449500Y-74202135D01*
X134449500Y-75997870D01*
X134449501Y-75997876D01*
X134455908Y-76057483D01*
X134506202Y-76192328D01*
X134506206Y-76192335D01*
X134592452Y-76307544D01*
X134592455Y-76307547D01*
X134707664Y-76393793D01*
X134707671Y-76393797D01*
X134839081Y-76442810D01*
X134895015Y-76484681D01*
X134919432Y-76550145D01*
X134904580Y-76618418D01*
X134883430Y-76646673D01*
X134761503Y-76768600D01*
X134625965Y-76962169D01*
X134625964Y-76962171D01*
X134526098Y-77176335D01*
X134526094Y-77176344D01*
X134464938Y-77404586D01*
X134464936Y-77404596D01*
X134444341Y-77639999D01*
X132470373Y-77639999D01*
X132470373Y-71699996D01*
X153594435Y-71699996D01*
X153594435Y-71700003D01*
X153614630Y-71879249D01*
X153614631Y-71879254D01*
X153674211Y-72049523D01*
X153770184Y-72202262D01*
X153897738Y-72329816D01*
X154050478Y-72425789D01*
X154220745Y-72485368D01*
X154220750Y-72485369D01*
X154399996Y-72505565D01*
X154400000Y-72505565D01*
X154400004Y-72505565D01*
X154579249Y-72485369D01*
X154579252Y-72485368D01*
X154579255Y-72485368D01*
X154749522Y-72425789D01*
X154902262Y-72329816D01*
X155029816Y-72202262D01*
X155125789Y-72049522D01*
X155185368Y-71879255D01*
X155185369Y-71879249D01*
X155205565Y-71700003D01*
X155205565Y-71699996D01*
X155185369Y-71520750D01*
X155185368Y-71520745D01*
X155125788Y-71350476D01*
X155057317Y-71241506D01*
X155029816Y-71197738D01*
X154902262Y-71070184D01*
X154881277Y-71056998D01*
X154749523Y-70974211D01*
X154579254Y-70914631D01*
X154579249Y-70914630D01*
X154400004Y-70894435D01*
X154399996Y-70894435D01*
X154220750Y-70914630D01*
X154220745Y-70914631D01*
X154050476Y-70974211D01*
X153897737Y-71070184D01*
X153770184Y-71197737D01*
X153674211Y-71350476D01*
X153614631Y-71520745D01*
X153614630Y-71520750D01*
X153594435Y-71699996D01*
X132470373Y-71699996D01*
X132470373Y-69799996D01*
X156494435Y-69799996D01*
X156494435Y-69800003D01*
X156514630Y-69979249D01*
X156514631Y-69979254D01*
X156574211Y-70149523D01*
X156670184Y-70302262D01*
X156797738Y-70429816D01*
X156950478Y-70525789D01*
X157120745Y-70585368D01*
X157120750Y-70585369D01*
X157299996Y-70605565D01*
X157300000Y-70605565D01*
X157300004Y-70605565D01*
X157479249Y-70585369D01*
X157479252Y-70585368D01*
X157479255Y-70585368D01*
X157649522Y-70525789D01*
X157802262Y-70429816D01*
X157929816Y-70302262D01*
X158025789Y-70149522D01*
X158085368Y-69979255D01*
X158085801Y-69975413D01*
X158105565Y-69800003D01*
X158105565Y-69799996D01*
X158085369Y-69620750D01*
X158085368Y-69620745D01*
X158025788Y-69450476D01*
X157929815Y-69297737D01*
X157802262Y-69170184D01*
X157649523Y-69074211D01*
X157479254Y-69014631D01*
X157479249Y-69014630D01*
X157300004Y-68994435D01*
X157299996Y-68994435D01*
X157120750Y-69014630D01*
X157120745Y-69014631D01*
X156950476Y-69074211D01*
X156797737Y-69170184D01*
X156670184Y-69297737D01*
X156574211Y-69450476D01*
X156514631Y-69620745D01*
X156514630Y-69620750D01*
X156494435Y-69799996D01*
X132470373Y-69799996D01*
X132470373Y-62055013D01*
X135077537Y-62055013D01*
X135077537Y-62580000D01*
X136023391Y-62580000D01*
X135984907Y-62646657D01*
X135952537Y-62767465D01*
X135952537Y-62892535D01*
X135984907Y-63013343D01*
X136023391Y-63080000D01*
X135077538Y-63080000D01*
X135077538Y-63604986D01*
X135088031Y-63707697D01*
X135143178Y-63874119D01*
X135143180Y-63874124D01*
X135235221Y-64023345D01*
X135359191Y-64147315D01*
X135508412Y-64239356D01*
X135508417Y-64239358D01*
X135674839Y-64294505D01*
X135674846Y-64294506D01*
X135777556Y-64304999D01*
X136177536Y-64304999D01*
X136177537Y-64304998D01*
X136177537Y-63234145D01*
X136244194Y-63272630D01*
X136365002Y-63305000D01*
X136490072Y-63305000D01*
X136610880Y-63272630D01*
X136677537Y-63234145D01*
X136677537Y-64304999D01*
X137077509Y-64304999D01*
X137077523Y-64304998D01*
X137180234Y-64294505D01*
X137346656Y-64239358D01*
X137346661Y-64239356D01*
X137495882Y-64147315D01*
X137619854Y-64023343D01*
X137715352Y-63868516D01*
X137767300Y-63821791D01*
X137836262Y-63810568D01*
X137900345Y-63838412D01*
X137908572Y-63845931D01*
X138047750Y-63985109D01*
X138219716Y-64110048D01*
X138219718Y-64110049D01*
X138219721Y-64110051D01*
X138409125Y-64206557D01*
X138611294Y-64272246D01*
X138821250Y-64305500D01*
X138821251Y-64305500D01*
X139033823Y-64305500D01*
X139033824Y-64305500D01*
X139243780Y-64272246D01*
X139445949Y-64206557D01*
X139635353Y-64110051D01*
X139657326Y-64094086D01*
X139807323Y-63985109D01*
X139807325Y-63985106D01*
X139807329Y-63985104D01*
X139957641Y-63834792D01*
X140077220Y-63670204D01*
X140132548Y-63627540D01*
X140202161Y-63621561D01*
X140263957Y-63654166D01*
X140277850Y-63670199D01*
X140305094Y-63707697D01*
X140397433Y-63834792D01*
X140547750Y-63985109D01*
X140719716Y-64110048D01*
X140719718Y-64110049D01*
X140719721Y-64110051D01*
X140909125Y-64206557D01*
X141111294Y-64272246D01*
X141321250Y-64305500D01*
X141321251Y-64305500D01*
X141533823Y-64305500D01*
X141533824Y-64305500D01*
X141743780Y-64272246D01*
X141945949Y-64206557D01*
X142135353Y-64110051D01*
X142157326Y-64094086D01*
X142307323Y-63985109D01*
X142307325Y-63985106D01*
X142307329Y-63985104D01*
X142457641Y-63834792D01*
X142457643Y-63834788D01*
X142457646Y-63834786D01*
X142582585Y-63662820D01*
X142582584Y-63662820D01*
X142582588Y-63662816D01*
X142679094Y-63473412D01*
X142744783Y-63271243D01*
X142778037Y-63061287D01*
X142778037Y-62598713D01*
X142744783Y-62388757D01*
X142679094Y-62186588D01*
X142582588Y-61997184D01*
X142582586Y-61997181D01*
X142582585Y-61997179D01*
X142457646Y-61825213D01*
X142307323Y-61674890D01*
X142135357Y-61549951D01*
X141945951Y-61453444D01*
X141945950Y-61453443D01*
X141945949Y-61453443D01*
X141743780Y-61387754D01*
X141743778Y-61387753D01*
X141743777Y-61387753D01*
X141582494Y-61362208D01*
X141533824Y-61354500D01*
X141321250Y-61354500D01*
X141272579Y-61362208D01*
X141111297Y-61387753D01*
X141111294Y-61387754D01*
X140943817Y-61442171D01*
X140909122Y-61453444D01*
X140719716Y-61549951D01*
X140547750Y-61674890D01*
X140397431Y-61825209D01*
X140397427Y-61825214D01*
X140277855Y-61989793D01*
X140222526Y-62032459D01*
X140152912Y-62038438D01*
X140091117Y-62005833D01*
X140077219Y-61989793D01*
X139957646Y-61825214D01*
X139957642Y-61825209D01*
X139807323Y-61674890D01*
X139635357Y-61549951D01*
X139445951Y-61453444D01*
X139445950Y-61453443D01*
X139445949Y-61453443D01*
X139243780Y-61387754D01*
X139243778Y-61387753D01*
X139243777Y-61387753D01*
X139082494Y-61362208D01*
X139033824Y-61354500D01*
X138821250Y-61354500D01*
X138772579Y-61362208D01*
X138611297Y-61387753D01*
X138611294Y-61387754D01*
X138443817Y-61442171D01*
X138409122Y-61453444D01*
X138219716Y-61549951D01*
X138047752Y-61674889D01*
X137908572Y-61814069D01*
X137847249Y-61847553D01*
X137777557Y-61842569D01*
X137721624Y-61800697D01*
X137715352Y-61791484D01*
X137619852Y-61636654D01*
X137495882Y-61512684D01*
X137346661Y-61420643D01*
X137346656Y-61420641D01*
X137180234Y-61365494D01*
X137180227Y-61365493D01*
X137077523Y-61355000D01*
X136677537Y-61355000D01*
X136677537Y-62425854D01*
X136610880Y-62387370D01*
X136490072Y-62355000D01*
X136365002Y-62355000D01*
X136244194Y-62387370D01*
X136177537Y-62425854D01*
X136177537Y-61355000D01*
X135777565Y-61355000D01*
X135777549Y-61355001D01*
X135674839Y-61365494D01*
X135508417Y-61420641D01*
X135508412Y-61420643D01*
X135359191Y-61512684D01*
X135235221Y-61636654D01*
X135143180Y-61785875D01*
X135143178Y-61785880D01*
X135088031Y-61952302D01*
X135088030Y-61952309D01*
X135077537Y-62055013D01*
X132470373Y-62055013D01*
X132470373Y-59369869D01*
X150164308Y-59369869D01*
X150164308Y-59369876D01*
X150184503Y-59549122D01*
X150184504Y-59549127D01*
X150244084Y-59719396D01*
X150304410Y-59815403D01*
X150340057Y-59872135D01*
X150467611Y-59999689D01*
X150620351Y-60095662D01*
X150790618Y-60155241D01*
X150790623Y-60155242D01*
X150969869Y-60175438D01*
X150969873Y-60175438D01*
X150969877Y-60175438D01*
X151149122Y-60155242D01*
X151149125Y-60155241D01*
X151149128Y-60155241D01*
X151319395Y-60095662D01*
X151472135Y-59999689D01*
X151599689Y-59872135D01*
X151695662Y-59719395D01*
X151755241Y-59549128D01*
X151775438Y-59369873D01*
X151755241Y-59190618D01*
X151695662Y-59020351D01*
X151599689Y-58867611D01*
X151472135Y-58740057D01*
X151422067Y-58708597D01*
X151319396Y-58644084D01*
X151149127Y-58584504D01*
X151149122Y-58584503D01*
X150969877Y-58564308D01*
X150969869Y-58564308D01*
X150790623Y-58584503D01*
X150790618Y-58584504D01*
X150620349Y-58644084D01*
X150467610Y-58740057D01*
X150340057Y-58867610D01*
X150244084Y-59020349D01*
X150184504Y-59190618D01*
X150184503Y-59190623D01*
X150164308Y-59369869D01*
X132470373Y-59369869D01*
X132470373Y-56205013D01*
X135077537Y-56205013D01*
X135077537Y-56730000D01*
X136023391Y-56730000D01*
X135984907Y-56796657D01*
X135952537Y-56917465D01*
X135952537Y-57042535D01*
X135984907Y-57163343D01*
X136023391Y-57230000D01*
X135077538Y-57230000D01*
X135077538Y-57754986D01*
X135088031Y-57857697D01*
X135143178Y-58024119D01*
X135143180Y-58024124D01*
X135235221Y-58173345D01*
X135359191Y-58297315D01*
X135508412Y-58389356D01*
X135508417Y-58389358D01*
X135674839Y-58444505D01*
X135674846Y-58444506D01*
X135777556Y-58454999D01*
X136177536Y-58454999D01*
X136177537Y-58454998D01*
X136177537Y-57384145D01*
X136244194Y-57422630D01*
X136365002Y-57455000D01*
X136490072Y-57455000D01*
X136610880Y-57422630D01*
X136677537Y-57384145D01*
X136677537Y-58454999D01*
X137077509Y-58454999D01*
X137077523Y-58454998D01*
X137180234Y-58444505D01*
X137346656Y-58389358D01*
X137346661Y-58389356D01*
X137495882Y-58297315D01*
X137619854Y-58173343D01*
X137715352Y-58018516D01*
X137767300Y-57971791D01*
X137836262Y-57960568D01*
X137900345Y-57988412D01*
X137908572Y-57995931D01*
X138047750Y-58135109D01*
X138219716Y-58260048D01*
X138219718Y-58260049D01*
X138219721Y-58260051D01*
X138409125Y-58356557D01*
X138611294Y-58422246D01*
X138821250Y-58455500D01*
X138821251Y-58455500D01*
X139033823Y-58455500D01*
X139033824Y-58455500D01*
X139243780Y-58422246D01*
X139445949Y-58356557D01*
X139635353Y-58260051D01*
X139706411Y-58208425D01*
X139807323Y-58135109D01*
X139807325Y-58135106D01*
X139807329Y-58135104D01*
X139957641Y-57984792D01*
X140077220Y-57820204D01*
X140132548Y-57777540D01*
X140202161Y-57771561D01*
X140263957Y-57804166D01*
X140277850Y-57820199D01*
X140379833Y-57960568D01*
X140397433Y-57984792D01*
X140547750Y-58135109D01*
X140719716Y-58260048D01*
X140719718Y-58260049D01*
X140719721Y-58260051D01*
X140909125Y-58356557D01*
X141111294Y-58422246D01*
X141321250Y-58455500D01*
X141321251Y-58455500D01*
X141533823Y-58455500D01*
X141533824Y-58455500D01*
X141743780Y-58422246D01*
X141945949Y-58356557D01*
X142135353Y-58260051D01*
X142206411Y-58208425D01*
X142307323Y-58135109D01*
X142307325Y-58135106D01*
X142307329Y-58135104D01*
X142457641Y-57984792D01*
X142457643Y-57984788D01*
X142457646Y-57984786D01*
X142582585Y-57812820D01*
X142582584Y-57812820D01*
X142582588Y-57812816D01*
X142679094Y-57623412D01*
X142744783Y-57421243D01*
X142778037Y-57211287D01*
X142778037Y-56748713D01*
X142744783Y-56538757D01*
X142679094Y-56336588D01*
X142582588Y-56147184D01*
X142582586Y-56147181D01*
X142582585Y-56147179D01*
X142457646Y-55975213D01*
X142307323Y-55824890D01*
X142135357Y-55699951D01*
X141945951Y-55603444D01*
X141945950Y-55603443D01*
X141945949Y-55603443D01*
X141743780Y-55537754D01*
X141743778Y-55537753D01*
X141743777Y-55537753D01*
X141582494Y-55512208D01*
X141533824Y-55504500D01*
X141321250Y-55504500D01*
X141272579Y-55512208D01*
X141111297Y-55537753D01*
X140909122Y-55603444D01*
X140719716Y-55699951D01*
X140547750Y-55824890D01*
X140397431Y-55975209D01*
X140397427Y-55975214D01*
X140277855Y-56139793D01*
X140222526Y-56182459D01*
X140152912Y-56188438D01*
X140091117Y-56155833D01*
X140077219Y-56139793D01*
X139957646Y-55975214D01*
X139957642Y-55975209D01*
X139807323Y-55824890D01*
X139635357Y-55699951D01*
X139445951Y-55603444D01*
X139445950Y-55603443D01*
X139445949Y-55603443D01*
X139243780Y-55537754D01*
X139243778Y-55537753D01*
X139243777Y-55537753D01*
X139082494Y-55512208D01*
X139033824Y-55504500D01*
X138821250Y-55504500D01*
X138772579Y-55512208D01*
X138611297Y-55537753D01*
X138409122Y-55603444D01*
X138219716Y-55699951D01*
X138047752Y-55824889D01*
X137908572Y-55964069D01*
X137847249Y-55997553D01*
X137777557Y-55992569D01*
X137721624Y-55950697D01*
X137715352Y-55941484D01*
X137619852Y-55786654D01*
X137495882Y-55662684D01*
X137346661Y-55570643D01*
X137346656Y-55570641D01*
X137180234Y-55515494D01*
X137180227Y-55515493D01*
X137077523Y-55505000D01*
X136677537Y-55505000D01*
X136677537Y-56575854D01*
X136610880Y-56537370D01*
X136490072Y-56505000D01*
X136365002Y-56505000D01*
X136244194Y-56537370D01*
X136177537Y-56575854D01*
X136177537Y-55505000D01*
X135777565Y-55505000D01*
X135777549Y-55505001D01*
X135674839Y-55515494D01*
X135508417Y-55570641D01*
X135508412Y-55570643D01*
X135359191Y-55662684D01*
X135235221Y-55786654D01*
X135143180Y-55935875D01*
X135143178Y-55935880D01*
X135088031Y-56102302D01*
X135088030Y-56102309D01*
X135077537Y-56205013D01*
X132470373Y-56205013D01*
X132470373Y-50355013D01*
X135077537Y-50355013D01*
X135077537Y-50880000D01*
X136023391Y-50880000D01*
X135984907Y-50946657D01*
X135952537Y-51067465D01*
X135952537Y-51192535D01*
X135984907Y-51313343D01*
X136023391Y-51380000D01*
X135077538Y-51380000D01*
X135077538Y-51904986D01*
X135088031Y-52007697D01*
X135143178Y-52174119D01*
X135143180Y-52174124D01*
X135235221Y-52323345D01*
X135359191Y-52447315D01*
X135508412Y-52539356D01*
X135508417Y-52539358D01*
X135674839Y-52594505D01*
X135674846Y-52594506D01*
X135777556Y-52604999D01*
X136177536Y-52604999D01*
X136177537Y-52604998D01*
X136177537Y-51534145D01*
X136244194Y-51572630D01*
X136365002Y-51605000D01*
X136490072Y-51605000D01*
X136610880Y-51572630D01*
X136677537Y-51534145D01*
X136677537Y-52604999D01*
X137077509Y-52604999D01*
X137077523Y-52604998D01*
X137180234Y-52594505D01*
X137346656Y-52539358D01*
X137346661Y-52539356D01*
X137495882Y-52447315D01*
X137619854Y-52323343D01*
X137715352Y-52168516D01*
X137767300Y-52121791D01*
X137836262Y-52110568D01*
X137900345Y-52138412D01*
X137908572Y-52145931D01*
X138047750Y-52285109D01*
X138219716Y-52410048D01*
X138219718Y-52410049D01*
X138219721Y-52410051D01*
X138409125Y-52506557D01*
X138611294Y-52572246D01*
X138821250Y-52605500D01*
X138821251Y-52605500D01*
X139033823Y-52605500D01*
X139033824Y-52605500D01*
X139243780Y-52572246D01*
X139445949Y-52506557D01*
X139635353Y-52410051D01*
X139657326Y-52394086D01*
X139807323Y-52285109D01*
X139807325Y-52285106D01*
X139807329Y-52285104D01*
X139957641Y-52134792D01*
X140077220Y-51970204D01*
X140132548Y-51927540D01*
X140202161Y-51921561D01*
X140263957Y-51954166D01*
X140277850Y-51970199D01*
X140305094Y-52007697D01*
X140397433Y-52134792D01*
X140547750Y-52285109D01*
X140719716Y-52410048D01*
X140719718Y-52410049D01*
X140719721Y-52410051D01*
X140909125Y-52506557D01*
X141111294Y-52572246D01*
X141321250Y-52605500D01*
X141321251Y-52605500D01*
X141533823Y-52605500D01*
X141533824Y-52605500D01*
X141743780Y-52572246D01*
X141945949Y-52506557D01*
X142135353Y-52410051D01*
X142157326Y-52394086D01*
X142307323Y-52285109D01*
X142307325Y-52285106D01*
X142307329Y-52285104D01*
X142457641Y-52134792D01*
X142457643Y-52134788D01*
X142457646Y-52134786D01*
X142582585Y-51962820D01*
X142582584Y-51962820D01*
X142582588Y-51962816D01*
X142679094Y-51773412D01*
X142744783Y-51571243D01*
X142778037Y-51361287D01*
X142778037Y-50898713D01*
X142759234Y-50779996D01*
X148414308Y-50779996D01*
X148414308Y-50780003D01*
X148434503Y-50959249D01*
X148434504Y-50959254D01*
X148494084Y-51129523D01*
X148589999Y-51282169D01*
X148590057Y-51282262D01*
X148717611Y-51409816D01*
X148870351Y-51505789D01*
X149040618Y-51565368D01*
X149040623Y-51565369D01*
X149219869Y-51585565D01*
X149219873Y-51585565D01*
X149219877Y-51585565D01*
X149399122Y-51565369D01*
X149399125Y-51565368D01*
X149399128Y-51565368D01*
X149569395Y-51505789D01*
X149722135Y-51409816D01*
X149849689Y-51282262D01*
X149945662Y-51129522D01*
X150005241Y-50959255D01*
X150005242Y-50959249D01*
X150025438Y-50780003D01*
X150025438Y-50779996D01*
X150005242Y-50600750D01*
X150005241Y-50600745D01*
X149974305Y-50512335D01*
X149945662Y-50430478D01*
X149849689Y-50277738D01*
X149722135Y-50150184D01*
X149682386Y-50125208D01*
X149569396Y-50054211D01*
X149399127Y-49994631D01*
X149399122Y-49994630D01*
X149219877Y-49974435D01*
X149219869Y-49974435D01*
X149040623Y-49994630D01*
X149040618Y-49994631D01*
X148870349Y-50054211D01*
X148717610Y-50150184D01*
X148590057Y-50277737D01*
X148494084Y-50430476D01*
X148434504Y-50600745D01*
X148434503Y-50600750D01*
X148414308Y-50779996D01*
X142759234Y-50779996D01*
X142744783Y-50688757D01*
X142679094Y-50486588D01*
X142582588Y-50297184D01*
X142582586Y-50297181D01*
X142582585Y-50297179D01*
X142457646Y-50125213D01*
X142307323Y-49974890D01*
X142135357Y-49849951D01*
X141945951Y-49753444D01*
X141945950Y-49753443D01*
X141945949Y-49753443D01*
X141743780Y-49687754D01*
X141743778Y-49687753D01*
X141743777Y-49687753D01*
X141582494Y-49662208D01*
X141533824Y-49654500D01*
X141321250Y-49654500D01*
X141272579Y-49662208D01*
X141111297Y-49687753D01*
X140909122Y-49753444D01*
X140719716Y-49849951D01*
X140547750Y-49974890D01*
X140397431Y-50125209D01*
X140397427Y-50125214D01*
X140277855Y-50289793D01*
X140222526Y-50332459D01*
X140152912Y-50338438D01*
X140091117Y-50305833D01*
X140077219Y-50289793D01*
X139957646Y-50125214D01*
X139957642Y-50125209D01*
X139807323Y-49974890D01*
X139635357Y-49849951D01*
X139445951Y-49753444D01*
X139445950Y-49753443D01*
X139445949Y-49753443D01*
X139243780Y-49687754D01*
X139243778Y-49687753D01*
X139243777Y-49687753D01*
X139082494Y-49662208D01*
X139033824Y-49654500D01*
X138821250Y-49654500D01*
X138772579Y-49662208D01*
X138611297Y-49687753D01*
X138409122Y-49753444D01*
X138219716Y-49849951D01*
X138047752Y-49974889D01*
X137908572Y-50114069D01*
X137847249Y-50147553D01*
X137777557Y-50142569D01*
X137721624Y-50100697D01*
X137715352Y-50091484D01*
X137619852Y-49936654D01*
X137495882Y-49812684D01*
X137346661Y-49720643D01*
X137346656Y-49720641D01*
X137180234Y-49665494D01*
X137180227Y-49665493D01*
X137077523Y-49655000D01*
X136677537Y-49655000D01*
X136677537Y-50725854D01*
X136610880Y-50687370D01*
X136490072Y-50655000D01*
X136365002Y-50655000D01*
X136244194Y-50687370D01*
X136177537Y-50725854D01*
X136177537Y-49655000D01*
X135777565Y-49655000D01*
X135777549Y-49655001D01*
X135674839Y-49665494D01*
X135508417Y-49720641D01*
X135508412Y-49720643D01*
X135359191Y-49812684D01*
X135235221Y-49936654D01*
X135143180Y-50085875D01*
X135143178Y-50085880D01*
X135088031Y-50252302D01*
X135088030Y-50252309D01*
X135077537Y-50355013D01*
X132470373Y-50355013D01*
X132470373Y-48954996D01*
X152239308Y-48954996D01*
X152239308Y-48955003D01*
X152259503Y-49134249D01*
X152259504Y-49134254D01*
X152319084Y-49304523D01*
X152394471Y-49424500D01*
X152415057Y-49457262D01*
X152542611Y-49584816D01*
X152632953Y-49641582D01*
X152671007Y-49665493D01*
X152695351Y-49680789D01*
X152809247Y-49720643D01*
X152865618Y-49740368D01*
X152865623Y-49740369D01*
X153044869Y-49760565D01*
X153044873Y-49760565D01*
X153044877Y-49760565D01*
X153224122Y-49740369D01*
X153224125Y-49740368D01*
X153224128Y-49740368D01*
X153394395Y-49680789D01*
X153547135Y-49584816D01*
X153674689Y-49457262D01*
X153770662Y-49304522D01*
X153830241Y-49134255D01*
X153830242Y-49134249D01*
X153850438Y-48955003D01*
X153850438Y-48954996D01*
X153830242Y-48775750D01*
X153830241Y-48775745D01*
X153770661Y-48605476D01*
X153680842Y-48462531D01*
X153674689Y-48452738D01*
X153547135Y-48325184D01*
X153394396Y-48229211D01*
X153224127Y-48169631D01*
X153224122Y-48169630D01*
X153044877Y-48149435D01*
X153044869Y-48149435D01*
X152865623Y-48169630D01*
X152865618Y-48169631D01*
X152695349Y-48229211D01*
X152542610Y-48325184D01*
X152415057Y-48452737D01*
X152319084Y-48605476D01*
X152259504Y-48775745D01*
X152259503Y-48775750D01*
X152239308Y-48954996D01*
X132470373Y-48954996D01*
X132470373Y-44505013D01*
X135077537Y-44505013D01*
X135077537Y-45030000D01*
X136023391Y-45030000D01*
X135984907Y-45096657D01*
X135952537Y-45217465D01*
X135952537Y-45342535D01*
X135984907Y-45463343D01*
X136023391Y-45530000D01*
X135077538Y-45530000D01*
X135077538Y-46054986D01*
X135088031Y-46157697D01*
X135143178Y-46324119D01*
X135143180Y-46324124D01*
X135235221Y-46473345D01*
X135359191Y-46597315D01*
X135508412Y-46689356D01*
X135508417Y-46689358D01*
X135674839Y-46744505D01*
X135674846Y-46744506D01*
X135777556Y-46754999D01*
X136177536Y-46754999D01*
X136177537Y-46754998D01*
X136177537Y-45684145D01*
X136244194Y-45722630D01*
X136365002Y-45755000D01*
X136490072Y-45755000D01*
X136610880Y-45722630D01*
X136677537Y-45684145D01*
X136677537Y-46754999D01*
X137077509Y-46754999D01*
X137077523Y-46754998D01*
X137180234Y-46744505D01*
X137346656Y-46689358D01*
X137346661Y-46689356D01*
X137495882Y-46597315D01*
X137619854Y-46473343D01*
X137715352Y-46318516D01*
X137767300Y-46271791D01*
X137836262Y-46260568D01*
X137900345Y-46288412D01*
X137908572Y-46295931D01*
X138047750Y-46435109D01*
X138219716Y-46560048D01*
X138219718Y-46560049D01*
X138219721Y-46560051D01*
X138409125Y-46656557D01*
X138611294Y-46722246D01*
X138821250Y-46755500D01*
X138821251Y-46755500D01*
X139033823Y-46755500D01*
X139033824Y-46755500D01*
X139243780Y-46722246D01*
X139445949Y-46656557D01*
X139635353Y-46560051D01*
X139722183Y-46496966D01*
X139807323Y-46435109D01*
X139807325Y-46435106D01*
X139807329Y-46435104D01*
X139957641Y-46284792D01*
X140077220Y-46120204D01*
X140132548Y-46077540D01*
X140202161Y-46071561D01*
X140263957Y-46104166D01*
X140277850Y-46120199D01*
X140379833Y-46260568D01*
X140397433Y-46284792D01*
X140547750Y-46435109D01*
X140719716Y-46560048D01*
X140719718Y-46560049D01*
X140719721Y-46560051D01*
X140909125Y-46656557D01*
X141111294Y-46722246D01*
X141321250Y-46755500D01*
X141321251Y-46755500D01*
X141533823Y-46755500D01*
X141533824Y-46755500D01*
X141743780Y-46722246D01*
X141945949Y-46656557D01*
X142135353Y-46560051D01*
X142222183Y-46496966D01*
X142307323Y-46435109D01*
X142307325Y-46435106D01*
X142307329Y-46435104D01*
X142457641Y-46284792D01*
X142457643Y-46284788D01*
X142457646Y-46284786D01*
X142582585Y-46112820D01*
X142582584Y-46112820D01*
X142582588Y-46112816D01*
X142679094Y-45923412D01*
X142744783Y-45721243D01*
X142778037Y-45511287D01*
X142778037Y-45048713D01*
X142744783Y-44838757D01*
X142679094Y-44636588D01*
X142624783Y-44529996D01*
X150414308Y-44529996D01*
X150414308Y-44530003D01*
X150434503Y-44709249D01*
X150434504Y-44709254D01*
X150494084Y-44879523D01*
X150538749Y-44950606D01*
X150590057Y-45032262D01*
X150717611Y-45159816D01*
X150870351Y-45255789D01*
X151040618Y-45315368D01*
X151040623Y-45315369D01*
X151219869Y-45335565D01*
X151219873Y-45335565D01*
X151219877Y-45335565D01*
X151399122Y-45315369D01*
X151399125Y-45315368D01*
X151399128Y-45315368D01*
X151569395Y-45255789D01*
X151722135Y-45159816D01*
X151849689Y-45032262D01*
X151945662Y-44879522D01*
X152005241Y-44709255D01*
X152005242Y-44709249D01*
X152025438Y-44530003D01*
X152025438Y-44529996D01*
X152005242Y-44350750D01*
X152005241Y-44350745D01*
X151984884Y-44292569D01*
X151945662Y-44180478D01*
X151910737Y-44124896D01*
X151849688Y-44027737D01*
X151722135Y-43900184D01*
X151653623Y-43857135D01*
X155369373Y-43857135D01*
X155369373Y-46352870D01*
X155369374Y-46352876D01*
X155375781Y-46412483D01*
X155426075Y-46547328D01*
X155426079Y-46547335D01*
X155512325Y-46662544D01*
X155512328Y-46662547D01*
X155627537Y-46748793D01*
X155627544Y-46748797D01*
X155762390Y-46799091D01*
X155762389Y-46799091D01*
X155769317Y-46799835D01*
X155822000Y-46805500D01*
X157517745Y-46805499D01*
X157577356Y-46799091D01*
X157712204Y-46748796D01*
X157827419Y-46662546D01*
X157913669Y-46547331D01*
X157963964Y-46412483D01*
X157967934Y-46375556D01*
X157994669Y-46311011D01*
X158052061Y-46271161D01*
X158121886Y-46268666D01*
X158181975Y-46304317D01*
X158191540Y-46315929D01*
X158217905Y-46352217D01*
X158362659Y-46496971D01*
X158517622Y-46609556D01*
X158528263Y-46617287D01*
X158605331Y-46656555D01*
X158710649Y-46710218D01*
X158710651Y-46710218D01*
X158710654Y-46710220D01*
X158815010Y-46744127D01*
X158905338Y-46773477D01*
X159006430Y-46789488D01*
X159107521Y-46805500D01*
X159107522Y-46805500D01*
X159312224Y-46805500D01*
X159312225Y-46805500D01*
X159514407Y-46773477D01*
X159709092Y-46710220D01*
X159891483Y-46617287D01*
X159987774Y-46547328D01*
X160057086Y-46496971D01*
X160057088Y-46496968D01*
X160057092Y-46496966D01*
X160201839Y-46352219D01*
X160201841Y-46352215D01*
X160201844Y-46352213D01*
X160322157Y-46186614D01*
X160322159Y-46186611D01*
X160322160Y-46186610D01*
X160369668Y-46093369D01*
X160417643Y-46042574D01*
X160485464Y-46025779D01*
X160551598Y-46048316D01*
X160590638Y-46093370D01*
X160638013Y-46186349D01*
X160758290Y-46351894D01*
X160758290Y-46351895D01*
X160902977Y-46496582D01*
X161068523Y-46616859D01*
X161250841Y-46709754D01*
X161445451Y-46772988D01*
X161499873Y-46781607D01*
X161499873Y-45420686D01*
X161504267Y-45425080D01*
X161595479Y-45477741D01*
X161697212Y-45505000D01*
X161802534Y-45505000D01*
X161904267Y-45477741D01*
X161995479Y-45425080D01*
X161999873Y-45420686D01*
X161999873Y-46781606D01*
X162054294Y-46772988D01*
X162248904Y-46709754D01*
X162431222Y-46616859D01*
X162596767Y-46496582D01*
X162596768Y-46496582D01*
X162741455Y-46351895D01*
X162741455Y-46351894D01*
X162861734Y-46186347D01*
X162909107Y-46093371D01*
X162957081Y-46042575D01*
X163024901Y-46025779D01*
X163091037Y-46048316D01*
X163130076Y-46093369D01*
X163177586Y-46186611D01*
X163297901Y-46352213D01*
X163442659Y-46496971D01*
X163597622Y-46609556D01*
X163608263Y-46617287D01*
X163685331Y-46656555D01*
X163790649Y-46710218D01*
X163790651Y-46710218D01*
X163790654Y-46710220D01*
X163895010Y-46744127D01*
X163985338Y-46773477D01*
X164086430Y-46789488D01*
X164187521Y-46805500D01*
X164187522Y-46805500D01*
X164392224Y-46805500D01*
X164392225Y-46805500D01*
X164594407Y-46773477D01*
X164789092Y-46710220D01*
X164971483Y-46617287D01*
X165067774Y-46547328D01*
X165137086Y-46496971D01*
X165137088Y-46496968D01*
X165137092Y-46496966D01*
X165281839Y-46352219D01*
X165281841Y-46352215D01*
X165281844Y-46352213D01*
X165348427Y-46260568D01*
X165402160Y-46186610D01*
X165495093Y-46004219D01*
X165558350Y-45809534D01*
X165590373Y-45607352D01*
X165590373Y-44602648D01*
X165571337Y-44482459D01*
X165558350Y-44400465D01*
X165529000Y-44310137D01*
X165495093Y-44205781D01*
X165495091Y-44205778D01*
X165495091Y-44205776D01*
X165449667Y-44116628D01*
X165402160Y-44023390D01*
X165358055Y-43962684D01*
X165281844Y-43857786D01*
X165137086Y-43713028D01*
X164971486Y-43592715D01*
X164971485Y-43592714D01*
X164971483Y-43592713D01*
X164914526Y-43563691D01*
X164789096Y-43499781D01*
X164594407Y-43436522D01*
X164419868Y-43408878D01*
X164392225Y-43404500D01*
X164187521Y-43404500D01*
X164163202Y-43408351D01*
X163985338Y-43436522D01*
X163790649Y-43499781D01*
X163608259Y-43592715D01*
X163442659Y-43713028D01*
X163297901Y-43857786D01*
X163177586Y-44023388D01*
X163130076Y-44116630D01*
X163082101Y-44167426D01*
X163014280Y-44184220D01*
X162948145Y-44161682D01*
X162909107Y-44116628D01*
X162861734Y-44023652D01*
X162741455Y-43858105D01*
X162741455Y-43858104D01*
X162596768Y-43713417D01*
X162431222Y-43593140D01*
X162248902Y-43500244D01*
X162054286Y-43437009D01*
X161999873Y-43428390D01*
X161999873Y-44789314D01*
X161995479Y-44784920D01*
X161904267Y-44732259D01*
X161802534Y-44705000D01*
X161697212Y-44705000D01*
X161595479Y-44732259D01*
X161504267Y-44784920D01*
X161499873Y-44789314D01*
X161499873Y-43428390D01*
X161445459Y-43437009D01*
X161250843Y-43500244D01*
X161068523Y-43593140D01*
X160902978Y-43713417D01*
X160902977Y-43713417D01*
X160758290Y-43858104D01*
X160758290Y-43858105D01*
X160638013Y-44023650D01*
X160590638Y-44116629D01*
X160542663Y-44167425D01*
X160474842Y-44184220D01*
X160408707Y-44161682D01*
X160369668Y-44116629D01*
X160324375Y-44027738D01*
X160322160Y-44023390D01*
X160278055Y-43962684D01*
X160201844Y-43857786D01*
X160057086Y-43713028D01*
X159891486Y-43592715D01*
X159891485Y-43592714D01*
X159891483Y-43592713D01*
X159834526Y-43563691D01*
X159709096Y-43499781D01*
X159514407Y-43436522D01*
X159339868Y-43408878D01*
X159312225Y-43404500D01*
X159107521Y-43404500D01*
X159083202Y-43408351D01*
X158905338Y-43436522D01*
X158710649Y-43499781D01*
X158528259Y-43592715D01*
X158362659Y-43713028D01*
X158217905Y-43857782D01*
X158191541Y-43894070D01*
X158136211Y-43936735D01*
X158066597Y-43942714D01*
X158004802Y-43910108D01*
X157970445Y-43849269D01*
X157967933Y-43834438D01*
X157965896Y-43815493D01*
X157963964Y-43797517D01*
X157913669Y-43662669D01*
X157913668Y-43662668D01*
X157913666Y-43662664D01*
X157827420Y-43547455D01*
X157827417Y-43547452D01*
X157712208Y-43461206D01*
X157712201Y-43461202D01*
X157577355Y-43410908D01*
X157577356Y-43410908D01*
X157517756Y-43404501D01*
X157517754Y-43404500D01*
X157517746Y-43404500D01*
X157517737Y-43404500D01*
X155822002Y-43404500D01*
X155821996Y-43404501D01*
X155762389Y-43410908D01*
X155627544Y-43461202D01*
X155627537Y-43461206D01*
X155512328Y-43547452D01*
X155512325Y-43547455D01*
X155426079Y-43662664D01*
X155426075Y-43662671D01*
X155375781Y-43797517D01*
X155369374Y-43857116D01*
X155369373Y-43857135D01*
X151653623Y-43857135D01*
X151569396Y-43804211D01*
X151399127Y-43744631D01*
X151399122Y-43744630D01*
X151219877Y-43724435D01*
X151219869Y-43724435D01*
X151040623Y-43744630D01*
X151040618Y-43744631D01*
X150870349Y-43804211D01*
X150717610Y-43900184D01*
X150590057Y-44027737D01*
X150494084Y-44180476D01*
X150434504Y-44350745D01*
X150434503Y-44350750D01*
X150414308Y-44529996D01*
X142624783Y-44529996D01*
X142582588Y-44447184D01*
X142582586Y-44447181D01*
X142582585Y-44447179D01*
X142457646Y-44275213D01*
X142307323Y-44124890D01*
X142135357Y-43999951D01*
X141945951Y-43903444D01*
X141945950Y-43903443D01*
X141945949Y-43903443D01*
X141743780Y-43837754D01*
X141743778Y-43837753D01*
X141743777Y-43837753D01*
X141582494Y-43812208D01*
X141533824Y-43804500D01*
X141321250Y-43804500D01*
X141272579Y-43812208D01*
X141111297Y-43837753D01*
X140909122Y-43903444D01*
X140719716Y-43999951D01*
X140547750Y-44124890D01*
X140397431Y-44275209D01*
X140397427Y-44275214D01*
X140277855Y-44439793D01*
X140222526Y-44482459D01*
X140152912Y-44488438D01*
X140091117Y-44455833D01*
X140077219Y-44439793D01*
X139957646Y-44275214D01*
X139957642Y-44275209D01*
X139807323Y-44124890D01*
X139635357Y-43999951D01*
X139445951Y-43903444D01*
X139445950Y-43903443D01*
X139445949Y-43903443D01*
X139243780Y-43837754D01*
X139243778Y-43837753D01*
X139243777Y-43837753D01*
X139082494Y-43812208D01*
X139033824Y-43804500D01*
X138821250Y-43804500D01*
X138772579Y-43812208D01*
X138611297Y-43837753D01*
X138409122Y-43903444D01*
X138219716Y-43999951D01*
X138047752Y-44124889D01*
X137908572Y-44264069D01*
X137847249Y-44297553D01*
X137777557Y-44292569D01*
X137721624Y-44250697D01*
X137715352Y-44241484D01*
X137619852Y-44086654D01*
X137495882Y-43962684D01*
X137346661Y-43870643D01*
X137346656Y-43870641D01*
X137180234Y-43815494D01*
X137180227Y-43815493D01*
X137077523Y-43805000D01*
X136677537Y-43805000D01*
X136677537Y-44875854D01*
X136610880Y-44837370D01*
X136490072Y-44805000D01*
X136365002Y-44805000D01*
X136244194Y-44837370D01*
X136177537Y-44875854D01*
X136177537Y-43805000D01*
X135777565Y-43805000D01*
X135777549Y-43805001D01*
X135674839Y-43815494D01*
X135508417Y-43870641D01*
X135508412Y-43870643D01*
X135359191Y-43962684D01*
X135235221Y-44086654D01*
X135143180Y-44235875D01*
X135143178Y-44235880D01*
X135088031Y-44402302D01*
X135088030Y-44402309D01*
X135077537Y-44505013D01*
X132470373Y-44505013D01*
X132470373Y-38655013D01*
X135077537Y-38655013D01*
X135077537Y-39180000D01*
X136023391Y-39180000D01*
X135984907Y-39246657D01*
X135952537Y-39367465D01*
X135952537Y-39492535D01*
X135984907Y-39613343D01*
X136023391Y-39680000D01*
X135077538Y-39680000D01*
X135077538Y-40204986D01*
X135088031Y-40307697D01*
X135143178Y-40474119D01*
X135143180Y-40474124D01*
X135235221Y-40623345D01*
X135359191Y-40747315D01*
X135508412Y-40839356D01*
X135508417Y-40839358D01*
X135674839Y-40894505D01*
X135674846Y-40894506D01*
X135777556Y-40904999D01*
X136177536Y-40904999D01*
X136177537Y-40904998D01*
X136177537Y-39834145D01*
X136244194Y-39872630D01*
X136365002Y-39905000D01*
X136490072Y-39905000D01*
X136610880Y-39872630D01*
X136677537Y-39834145D01*
X136677537Y-40904999D01*
X137077509Y-40904999D01*
X137077523Y-40904998D01*
X137180234Y-40894505D01*
X137346656Y-40839358D01*
X137346661Y-40839356D01*
X137495882Y-40747315D01*
X137619854Y-40623343D01*
X137715352Y-40468516D01*
X137767300Y-40421791D01*
X137836262Y-40410568D01*
X137900345Y-40438412D01*
X137908572Y-40445931D01*
X138047750Y-40585109D01*
X138219716Y-40710048D01*
X138219718Y-40710049D01*
X138219721Y-40710051D01*
X138409125Y-40806557D01*
X138611294Y-40872246D01*
X138821250Y-40905500D01*
X138821251Y-40905500D01*
X139033823Y-40905500D01*
X139033824Y-40905500D01*
X139243780Y-40872246D01*
X139445949Y-40806557D01*
X139635353Y-40710051D01*
X139657326Y-40694086D01*
X139807323Y-40585109D01*
X139807325Y-40585106D01*
X139807329Y-40585104D01*
X139957641Y-40434792D01*
X140077220Y-40270204D01*
X140132548Y-40227540D01*
X140202161Y-40221561D01*
X140263957Y-40254166D01*
X140277850Y-40270199D01*
X140305094Y-40307697D01*
X140397433Y-40434792D01*
X140547750Y-40585109D01*
X140719716Y-40710048D01*
X140719718Y-40710049D01*
X140719721Y-40710051D01*
X140909125Y-40806557D01*
X141111294Y-40872246D01*
X141321250Y-40905500D01*
X141321251Y-40905500D01*
X141533823Y-40905500D01*
X141533824Y-40905500D01*
X141743780Y-40872246D01*
X141945949Y-40806557D01*
X142135353Y-40710051D01*
X142157326Y-40694086D01*
X142307323Y-40585109D01*
X142307325Y-40585106D01*
X142307329Y-40585104D01*
X142457641Y-40434792D01*
X142457643Y-40434788D01*
X142457646Y-40434786D01*
X142582585Y-40262820D01*
X142582584Y-40262820D01*
X142582588Y-40262816D01*
X142679094Y-40073412D01*
X142744783Y-39871243D01*
X142778037Y-39661287D01*
X142778037Y-39198713D01*
X142744783Y-38988757D01*
X142679094Y-38786588D01*
X142582588Y-38597184D01*
X142582586Y-38597181D01*
X142582585Y-38597179D01*
X142457646Y-38425213D01*
X142307323Y-38274890D01*
X142135357Y-38149951D01*
X141945951Y-38053444D01*
X141945950Y-38053443D01*
X141945949Y-38053443D01*
X141743780Y-37987754D01*
X141743778Y-37987753D01*
X141743777Y-37987753D01*
X141582494Y-37962208D01*
X141533824Y-37954500D01*
X141321250Y-37954500D01*
X141272579Y-37962208D01*
X141111297Y-37987753D01*
X140909122Y-38053444D01*
X140719716Y-38149951D01*
X140547750Y-38274890D01*
X140397431Y-38425209D01*
X140397427Y-38425214D01*
X140277855Y-38589793D01*
X140222526Y-38632459D01*
X140152912Y-38638438D01*
X140091117Y-38605833D01*
X140077219Y-38589793D01*
X139957646Y-38425214D01*
X139957642Y-38425209D01*
X139807323Y-38274890D01*
X139635357Y-38149951D01*
X139445951Y-38053444D01*
X139445950Y-38053443D01*
X139445949Y-38053443D01*
X139243780Y-37987754D01*
X139243778Y-37987753D01*
X139243777Y-37987753D01*
X139082494Y-37962208D01*
X139033824Y-37954500D01*
X138821250Y-37954500D01*
X138772579Y-37962208D01*
X138611297Y-37987753D01*
X138409122Y-38053444D01*
X138219716Y-38149951D01*
X138047752Y-38274889D01*
X137908572Y-38414069D01*
X137847249Y-38447553D01*
X137777557Y-38442569D01*
X137721624Y-38400697D01*
X137715352Y-38391484D01*
X137619852Y-38236654D01*
X137495882Y-38112684D01*
X137346661Y-38020643D01*
X137346656Y-38020641D01*
X137180234Y-37965494D01*
X137180227Y-37965493D01*
X137077523Y-37955000D01*
X136677537Y-37955000D01*
X136677537Y-39025854D01*
X136610880Y-38987370D01*
X136490072Y-38955000D01*
X136365002Y-38955000D01*
X136244194Y-38987370D01*
X136177537Y-39025854D01*
X136177537Y-37955000D01*
X135777565Y-37955000D01*
X135777549Y-37955001D01*
X135674839Y-37965494D01*
X135508417Y-38020641D01*
X135508412Y-38020643D01*
X135359191Y-38112684D01*
X135235221Y-38236654D01*
X135143180Y-38385875D01*
X135143178Y-38385880D01*
X135088031Y-38552302D01*
X135088030Y-38552309D01*
X135077537Y-38655013D01*
X132470373Y-38655013D01*
X132470373Y-37029996D01*
X150414308Y-37029996D01*
X150414308Y-37030003D01*
X150434503Y-37209249D01*
X150434504Y-37209254D01*
X150494084Y-37379523D01*
X150527271Y-37432339D01*
X150590057Y-37532262D01*
X150717611Y-37659816D01*
X150807953Y-37716582D01*
X150837265Y-37735000D01*
X150870351Y-37755789D01*
X151011217Y-37805080D01*
X151040618Y-37815368D01*
X151040623Y-37815369D01*
X151219869Y-37835565D01*
X151219873Y-37835565D01*
X151219877Y-37835565D01*
X151399122Y-37815369D01*
X151399125Y-37815368D01*
X151399128Y-37815368D01*
X151569395Y-37755789D01*
X151722135Y-37659816D01*
X151849689Y-37532262D01*
X151945662Y-37379522D01*
X152005241Y-37209255D01*
X152005242Y-37209249D01*
X152025438Y-37030003D01*
X152025438Y-37029996D01*
X152020103Y-36982648D01*
X155369373Y-36982648D01*
X155369373Y-37987351D01*
X155401395Y-38189534D01*
X155464654Y-38384223D01*
X155528564Y-38509653D01*
X155550299Y-38552309D01*
X155557588Y-38566613D01*
X155677901Y-38732213D01*
X155822659Y-38876971D01*
X155930059Y-38955000D01*
X155988263Y-38997287D01*
X156104480Y-39056503D01*
X156170649Y-39090218D01*
X156170651Y-39090218D01*
X156170654Y-39090220D01*
X156275010Y-39124127D01*
X156365338Y-39153477D01*
X156466430Y-39169488D01*
X156567521Y-39185500D01*
X156567522Y-39185500D01*
X156772224Y-39185500D01*
X156772225Y-39185500D01*
X156974407Y-39153477D01*
X157169092Y-39090220D01*
X157351483Y-38997287D01*
X157444463Y-38929732D01*
X157517086Y-38876971D01*
X157517088Y-38876968D01*
X157517092Y-38876966D01*
X157661839Y-38732219D01*
X157661841Y-38732215D01*
X157661844Y-38732213D01*
X157782157Y-38566614D01*
X157782158Y-38566613D01*
X157782160Y-38566610D01*
X157829389Y-38473917D01*
X157877362Y-38423123D01*
X157945183Y-38406328D01*
X158011318Y-38428865D01*
X158050358Y-38473919D01*
X158097588Y-38566614D01*
X158217901Y-38732213D01*
X158362659Y-38876971D01*
X158470059Y-38955000D01*
X158528263Y-38997287D01*
X158644480Y-39056503D01*
X158710649Y-39090218D01*
X158710651Y-39090218D01*
X158710654Y-39090220D01*
X158815010Y-39124127D01*
X158905338Y-39153477D01*
X159006430Y-39169488D01*
X159107521Y-39185500D01*
X159107522Y-39185500D01*
X159312224Y-39185500D01*
X159312225Y-39185500D01*
X159514407Y-39153477D01*
X159709092Y-39090220D01*
X159891483Y-38997287D01*
X159984463Y-38929732D01*
X160057086Y-38876971D01*
X160057088Y-38876968D01*
X160057092Y-38876966D01*
X160201839Y-38732219D01*
X160201841Y-38732215D01*
X160201844Y-38732213D01*
X160322157Y-38566614D01*
X160322158Y-38566613D01*
X160322160Y-38566610D01*
X160369389Y-38473917D01*
X160417362Y-38423123D01*
X160485183Y-38406328D01*
X160551318Y-38428865D01*
X160590358Y-38473919D01*
X160637588Y-38566614D01*
X160757901Y-38732213D01*
X160902659Y-38876971D01*
X161010059Y-38955000D01*
X161068263Y-38997287D01*
X161184480Y-39056503D01*
X161250649Y-39090218D01*
X161250651Y-39090218D01*
X161250654Y-39090220D01*
X161355010Y-39124127D01*
X161445338Y-39153477D01*
X161546430Y-39169488D01*
X161647521Y-39185500D01*
X161647522Y-39185500D01*
X161852224Y-39185500D01*
X161852225Y-39185500D01*
X162054407Y-39153477D01*
X162249092Y-39090220D01*
X162431483Y-38997287D01*
X162524463Y-38929732D01*
X162597086Y-38876971D01*
X162597088Y-38876968D01*
X162597092Y-38876966D01*
X162741839Y-38732219D01*
X162741841Y-38732215D01*
X162741844Y-38732213D01*
X162862157Y-38566614D01*
X162862158Y-38566613D01*
X162862160Y-38566610D01*
X162909668Y-38473369D01*
X162957643Y-38422574D01*
X163025464Y-38405779D01*
X163091598Y-38428316D01*
X163130638Y-38473370D01*
X163178013Y-38566349D01*
X163298290Y-38731894D01*
X163298290Y-38731895D01*
X163442977Y-38876582D01*
X163608523Y-38996859D01*
X163790841Y-39089754D01*
X163985451Y-39152988D01*
X164039873Y-39161607D01*
X164039873Y-37800686D01*
X164044267Y-37805080D01*
X164135479Y-37857741D01*
X164237212Y-37885000D01*
X164342534Y-37885000D01*
X164444267Y-37857741D01*
X164535479Y-37805080D01*
X164539873Y-37800686D01*
X164539873Y-39161606D01*
X164594294Y-39152988D01*
X164788904Y-39089754D01*
X164971222Y-38996859D01*
X165136767Y-38876582D01*
X165136768Y-38876582D01*
X165281455Y-38731895D01*
X165281455Y-38731894D01*
X165401732Y-38566349D01*
X165494628Y-38384031D01*
X165557863Y-38189417D01*
X165589873Y-37987317D01*
X165589873Y-37735000D01*
X164605559Y-37735000D01*
X164609953Y-37730606D01*
X164662614Y-37639394D01*
X164689873Y-37537661D01*
X164689873Y-37432339D01*
X164662614Y-37330606D01*
X164609953Y-37239394D01*
X164605559Y-37235000D01*
X165589873Y-37235000D01*
X165589873Y-36982682D01*
X165557863Y-36780582D01*
X165494628Y-36585968D01*
X165401732Y-36403650D01*
X165281455Y-36238105D01*
X165281455Y-36238104D01*
X165136768Y-36093417D01*
X164971222Y-35973140D01*
X164788902Y-35880244D01*
X164594286Y-35817009D01*
X164539873Y-35808390D01*
X164539873Y-37169314D01*
X164535479Y-37164920D01*
X164444267Y-37112259D01*
X164342534Y-37085000D01*
X164237212Y-37085000D01*
X164135479Y-37112259D01*
X164044267Y-37164920D01*
X164039873Y-37169314D01*
X164039873Y-35808390D01*
X163985459Y-35817009D01*
X163790843Y-35880244D01*
X163608523Y-35973140D01*
X163442978Y-36093417D01*
X163442977Y-36093417D01*
X163298290Y-36238104D01*
X163298290Y-36238105D01*
X163178013Y-36403650D01*
X163130638Y-36496629D01*
X163082663Y-36547425D01*
X163014842Y-36564220D01*
X162948707Y-36541682D01*
X162909668Y-36496629D01*
X162898863Y-36475424D01*
X162862160Y-36403390D01*
X162854429Y-36392749D01*
X162741844Y-36237786D01*
X162597086Y-36093028D01*
X162431486Y-35972715D01*
X162431485Y-35972714D01*
X162431483Y-35972713D01*
X162344424Y-35928354D01*
X162249096Y-35879781D01*
X162054407Y-35816522D01*
X161855596Y-35785034D01*
X161852225Y-35784500D01*
X161647521Y-35784500D01*
X161644150Y-35785034D01*
X161445338Y-35816522D01*
X161250649Y-35879781D01*
X161068259Y-35972715D01*
X160902659Y-36093028D01*
X160757901Y-36237786D01*
X160637588Y-36403386D01*
X160590358Y-36496080D01*
X160542383Y-36546876D01*
X160474562Y-36563671D01*
X160408427Y-36541134D01*
X160369388Y-36496080D01*
X160368756Y-36494840D01*
X160322160Y-36403390D01*
X160314429Y-36392749D01*
X160201844Y-36237786D01*
X160057086Y-36093028D01*
X159891486Y-35972715D01*
X159891485Y-35972714D01*
X159891483Y-35972713D01*
X159804424Y-35928354D01*
X159709096Y-35879781D01*
X159514407Y-35816522D01*
X159315596Y-35785034D01*
X159312225Y-35784500D01*
X159107521Y-35784500D01*
X159104150Y-35785034D01*
X158905338Y-35816522D01*
X158710649Y-35879781D01*
X158528259Y-35972715D01*
X158362659Y-36093028D01*
X158217901Y-36237786D01*
X158097588Y-36403386D01*
X158050358Y-36496080D01*
X158002383Y-36546876D01*
X157934562Y-36563671D01*
X157868427Y-36541134D01*
X157829388Y-36496080D01*
X157828756Y-36494840D01*
X157782160Y-36403390D01*
X157774429Y-36392749D01*
X157661844Y-36237786D01*
X157517090Y-36093032D01*
X157517085Y-36093028D01*
X157462400Y-36053297D01*
X157419734Y-35997967D01*
X157413755Y-35928354D01*
X157446361Y-35866559D01*
X157507199Y-35832202D01*
X157521399Y-35829759D01*
X157550717Y-35826456D01*
X157649123Y-35815369D01*
X157649126Y-35815368D01*
X157649128Y-35815368D01*
X157819395Y-35755789D01*
X157972135Y-35659816D01*
X158099689Y-35532262D01*
X158195662Y-35379522D01*
X158255241Y-35209255D01*
X158272565Y-35055500D01*
X158275438Y-35030003D01*
X158275438Y-35029996D01*
X158255242Y-34850750D01*
X158255241Y-34850745D01*
X158195662Y-34680478D01*
X158099689Y-34527738D01*
X157972135Y-34400184D01*
X157819396Y-34304211D01*
X157649127Y-34244631D01*
X157649122Y-34244630D01*
X157469877Y-34224435D01*
X157469869Y-34224435D01*
X157290623Y-34244630D01*
X157290618Y-34244631D01*
X157120349Y-34304211D01*
X156967610Y-34400184D01*
X156840057Y-34527737D01*
X156744084Y-34680476D01*
X156684504Y-34850745D01*
X156684503Y-34850750D01*
X156664308Y-35029996D01*
X156664308Y-35030003D01*
X156684503Y-35209249D01*
X156684504Y-35209254D01*
X156744084Y-35379523D01*
X156840057Y-35532262D01*
X156882675Y-35574880D01*
X156916160Y-35636203D01*
X156911176Y-35705895D01*
X156869304Y-35761828D01*
X156803840Y-35786245D01*
X156775597Y-35785034D01*
X156772225Y-35784500D01*
X156567521Y-35784500D01*
X156564150Y-35785034D01*
X156365338Y-35816522D01*
X156170649Y-35879781D01*
X155988264Y-35972712D01*
X155896152Y-36039633D01*
X155876120Y-36050146D01*
X155876623Y-36051191D01*
X155870348Y-36054212D01*
X155717610Y-36150184D01*
X155590057Y-36277737D01*
X155494083Y-36430478D01*
X155434505Y-36600745D01*
X155422487Y-36707393D01*
X155417200Y-36731820D01*
X155401397Y-36780463D01*
X155401394Y-36780472D01*
X155369373Y-36982648D01*
X152020103Y-36982648D01*
X152005242Y-36850750D01*
X152005241Y-36850745D01*
X151963627Y-36731820D01*
X151945662Y-36680478D01*
X151849689Y-36527738D01*
X151722135Y-36400184D01*
X151569396Y-36304211D01*
X151399127Y-36244631D01*
X151399122Y-36244630D01*
X151219877Y-36224435D01*
X151219869Y-36224435D01*
X151040623Y-36244630D01*
X151040618Y-36244631D01*
X150870349Y-36304211D01*
X150717610Y-36400184D01*
X150590057Y-36527737D01*
X150494084Y-36680476D01*
X150434504Y-36850745D01*
X150434503Y-36850750D01*
X150414308Y-37029996D01*
X132470373Y-37029996D01*
X132470373Y-32805013D01*
X135077537Y-32805013D01*
X135077537Y-33330000D01*
X136023391Y-33330000D01*
X135984907Y-33396657D01*
X135952537Y-33517465D01*
X135952537Y-33642535D01*
X135984907Y-33763343D01*
X136023391Y-33830000D01*
X135077538Y-33830000D01*
X135077538Y-34354986D01*
X135088031Y-34457697D01*
X135143178Y-34624119D01*
X135143180Y-34624124D01*
X135235221Y-34773345D01*
X135359191Y-34897315D01*
X135508412Y-34989356D01*
X135508417Y-34989358D01*
X135674839Y-35044505D01*
X135674846Y-35044506D01*
X135777556Y-35054999D01*
X136177536Y-35054999D01*
X136177537Y-35054998D01*
X136177537Y-33984145D01*
X136244194Y-34022630D01*
X136365002Y-34055000D01*
X136490072Y-34055000D01*
X136610880Y-34022630D01*
X136677537Y-33984145D01*
X136677537Y-35054999D01*
X137077509Y-35054999D01*
X137077523Y-35054998D01*
X137180234Y-35044505D01*
X137346656Y-34989358D01*
X137346661Y-34989356D01*
X137495882Y-34897315D01*
X137619854Y-34773343D01*
X137715352Y-34618516D01*
X137767300Y-34571791D01*
X137836262Y-34560568D01*
X137900345Y-34588412D01*
X137908572Y-34595931D01*
X138047750Y-34735109D01*
X138219716Y-34860048D01*
X138219718Y-34860049D01*
X138219721Y-34860051D01*
X138409125Y-34956557D01*
X138611294Y-35022246D01*
X138821250Y-35055500D01*
X138821251Y-35055500D01*
X139033823Y-35055500D01*
X139033824Y-35055500D01*
X139243780Y-35022246D01*
X139445949Y-34956557D01*
X139635353Y-34860051D01*
X139657326Y-34844086D01*
X139807323Y-34735109D01*
X139807325Y-34735106D01*
X139807329Y-34735104D01*
X139957641Y-34584792D01*
X140077220Y-34420204D01*
X140132548Y-34377540D01*
X140202161Y-34371561D01*
X140263957Y-34404166D01*
X140277850Y-34420199D01*
X140355981Y-34527738D01*
X140397433Y-34584792D01*
X140547750Y-34735109D01*
X140719716Y-34860048D01*
X140719718Y-34860049D01*
X140719721Y-34860051D01*
X140909125Y-34956557D01*
X141111294Y-35022246D01*
X141321250Y-35055500D01*
X141321251Y-35055500D01*
X141533823Y-35055500D01*
X141533824Y-35055500D01*
X141743780Y-35022246D01*
X141945949Y-34956557D01*
X142135353Y-34860051D01*
X142157326Y-34844086D01*
X142307323Y-34735109D01*
X142307325Y-34735106D01*
X142307329Y-34735104D01*
X142457641Y-34584792D01*
X142457643Y-34584788D01*
X142457646Y-34584786D01*
X142582585Y-34412820D01*
X142582584Y-34412820D01*
X142582588Y-34412816D01*
X142679094Y-34223412D01*
X142744783Y-34021243D01*
X142778037Y-33811287D01*
X142778037Y-33348713D01*
X142744783Y-33138757D01*
X142679094Y-32936588D01*
X142582588Y-32747184D01*
X142582586Y-32747181D01*
X142582585Y-32747179D01*
X142457646Y-32575213D01*
X142307323Y-32424890D01*
X142135357Y-32299951D01*
X141945951Y-32203444D01*
X141945950Y-32203443D01*
X141945949Y-32203443D01*
X141743780Y-32137754D01*
X141743778Y-32137753D01*
X141743777Y-32137753D01*
X141582494Y-32112208D01*
X141533824Y-32104500D01*
X141321250Y-32104500D01*
X141272579Y-32112208D01*
X141111297Y-32137753D01*
X140909122Y-32203444D01*
X140719716Y-32299951D01*
X140547750Y-32424890D01*
X140397431Y-32575209D01*
X140397427Y-32575214D01*
X140277855Y-32739793D01*
X140222526Y-32782459D01*
X140152912Y-32788438D01*
X140091117Y-32755833D01*
X140077219Y-32739793D01*
X139957646Y-32575214D01*
X139957642Y-32575209D01*
X139807323Y-32424890D01*
X139635357Y-32299951D01*
X139445951Y-32203444D01*
X139445950Y-32203443D01*
X139445949Y-32203443D01*
X139243780Y-32137754D01*
X139243778Y-32137753D01*
X139243777Y-32137753D01*
X139082494Y-32112208D01*
X139033824Y-32104500D01*
X138821250Y-32104500D01*
X138772579Y-32112208D01*
X138611297Y-32137753D01*
X138409122Y-32203444D01*
X138219716Y-32299951D01*
X138047752Y-32424889D01*
X137908572Y-32564069D01*
X137847249Y-32597553D01*
X137777557Y-32592569D01*
X137721624Y-32550697D01*
X137715352Y-32541484D01*
X137619852Y-32386654D01*
X137495882Y-32262684D01*
X137346661Y-32170643D01*
X137346656Y-32170641D01*
X137180234Y-32115494D01*
X137180227Y-32115493D01*
X137077523Y-32105000D01*
X136677537Y-32105000D01*
X136677537Y-33175854D01*
X136610880Y-33137370D01*
X136490072Y-33105000D01*
X136365002Y-33105000D01*
X136244194Y-33137370D01*
X136177537Y-33175854D01*
X136177537Y-32105000D01*
X135777565Y-32105000D01*
X135777549Y-32105001D01*
X135674839Y-32115494D01*
X135508417Y-32170641D01*
X135508412Y-32170643D01*
X135359191Y-32262684D01*
X135235221Y-32386654D01*
X135143180Y-32535875D01*
X135143178Y-32535880D01*
X135088031Y-32702302D01*
X135088030Y-32702309D01*
X135077537Y-32805013D01*
X132470373Y-32805013D01*
X132470373Y-26955013D01*
X135077537Y-26955013D01*
X135077537Y-27480000D01*
X136023391Y-27480000D01*
X135984907Y-27546657D01*
X135952537Y-27667465D01*
X135952537Y-27792535D01*
X135984907Y-27913343D01*
X136023391Y-27980000D01*
X135077538Y-27980000D01*
X135077538Y-28504986D01*
X135088031Y-28607697D01*
X135143178Y-28774119D01*
X135143180Y-28774124D01*
X135235221Y-28923345D01*
X135359191Y-29047315D01*
X135508412Y-29139356D01*
X135508417Y-29139358D01*
X135674839Y-29194505D01*
X135674846Y-29194506D01*
X135777556Y-29204999D01*
X136177536Y-29204999D01*
X136177537Y-29204998D01*
X136177537Y-28134145D01*
X136244194Y-28172630D01*
X136365002Y-28205000D01*
X136490072Y-28205000D01*
X136610880Y-28172630D01*
X136677537Y-28134145D01*
X136677537Y-29204999D01*
X137077509Y-29204999D01*
X137077523Y-29204998D01*
X137180234Y-29194505D01*
X137346656Y-29139358D01*
X137346661Y-29139356D01*
X137495882Y-29047315D01*
X137619854Y-28923343D01*
X137715352Y-28768516D01*
X137767300Y-28721791D01*
X137836262Y-28710568D01*
X137900345Y-28738412D01*
X137908572Y-28745931D01*
X138047750Y-28885109D01*
X138219716Y-29010048D01*
X138219718Y-29010049D01*
X138219721Y-29010051D01*
X138409125Y-29106557D01*
X138611294Y-29172246D01*
X138821250Y-29205500D01*
X138821251Y-29205500D01*
X139033823Y-29205500D01*
X139033824Y-29205500D01*
X139243780Y-29172246D01*
X139445949Y-29106557D01*
X139635353Y-29010051D01*
X139657326Y-28994086D01*
X139807323Y-28885109D01*
X139807325Y-28885106D01*
X139807329Y-28885104D01*
X139957641Y-28734792D01*
X140077220Y-28570204D01*
X140132548Y-28527540D01*
X140202161Y-28521561D01*
X140263957Y-28554166D01*
X140277850Y-28570199D01*
X140363198Y-28687671D01*
X140397433Y-28734792D01*
X140547750Y-28885109D01*
X140719716Y-29010048D01*
X140719718Y-29010049D01*
X140719721Y-29010051D01*
X140909125Y-29106557D01*
X141111294Y-29172246D01*
X141321250Y-29205500D01*
X141321251Y-29205500D01*
X141533823Y-29205500D01*
X141533824Y-29205500D01*
X141743780Y-29172246D01*
X141945949Y-29106557D01*
X142135353Y-29010051D01*
X142157326Y-28994086D01*
X142307323Y-28885109D01*
X142307325Y-28885106D01*
X142307329Y-28885104D01*
X142310298Y-28882135D01*
X152249373Y-28882135D01*
X152249373Y-30677870D01*
X152249374Y-30677876D01*
X152255781Y-30737483D01*
X152306075Y-30872328D01*
X152306079Y-30872335D01*
X152392325Y-30987544D01*
X152392328Y-30987547D01*
X152507537Y-31073793D01*
X152507544Y-31073797D01*
X152642390Y-31124091D01*
X152642389Y-31124091D01*
X152649317Y-31124835D01*
X152702000Y-31130500D01*
X154497745Y-31130499D01*
X154557356Y-31124091D01*
X154692204Y-31073796D01*
X154807419Y-30987546D01*
X154893669Y-30872331D01*
X154942683Y-30740916D01*
X154984554Y-30684984D01*
X155050018Y-30660566D01*
X155118291Y-30675417D01*
X155146546Y-30696569D01*
X155268472Y-30818495D01*
X155365257Y-30886265D01*
X155462038Y-30954032D01*
X155462040Y-30954033D01*
X155462043Y-30954035D01*
X155676210Y-31053903D01*
X155904465Y-31115063D01*
X156080907Y-31130500D01*
X156139872Y-31135659D01*
X156139873Y-31135659D01*
X156139874Y-31135659D01*
X156198839Y-31130500D01*
X156375281Y-31115063D01*
X156603536Y-31053903D01*
X156817703Y-30954035D01*
X157011274Y-30818495D01*
X157178368Y-30651401D01*
X157308298Y-30465842D01*
X157362875Y-30422217D01*
X157432373Y-30415023D01*
X157494728Y-30446546D01*
X157511448Y-30465842D01*
X157641373Y-30651395D01*
X157641378Y-30651401D01*
X157808472Y-30818495D01*
X157905257Y-30886265D01*
X158002038Y-30954032D01*
X158002040Y-30954033D01*
X158002043Y-30954035D01*
X158216210Y-31053903D01*
X158444465Y-31115063D01*
X158620907Y-31130500D01*
X158679872Y-31135659D01*
X158679873Y-31135659D01*
X158679874Y-31135659D01*
X158738839Y-31130500D01*
X158915281Y-31115063D01*
X159143536Y-31053903D01*
X159357703Y-30954035D01*
X159551274Y-30818495D01*
X159718368Y-30651401D01*
X159848298Y-30465842D01*
X159902875Y-30422217D01*
X159972373Y-30415023D01*
X160034728Y-30446546D01*
X160051448Y-30465842D01*
X160181373Y-30651395D01*
X160181378Y-30651401D01*
X160348472Y-30818495D01*
X160445257Y-30886265D01*
X160542038Y-30954032D01*
X160542040Y-30954033D01*
X160542043Y-30954035D01*
X160756210Y-31053903D01*
X160984465Y-31115063D01*
X161160907Y-31130500D01*
X161219872Y-31135659D01*
X161219873Y-31135659D01*
X161219874Y-31135659D01*
X161278839Y-31130500D01*
X161455281Y-31115063D01*
X161683536Y-31053903D01*
X161897703Y-30954035D01*
X162091274Y-30818495D01*
X162258368Y-30651401D01*
X162388298Y-30465842D01*
X162442875Y-30422217D01*
X162512373Y-30415023D01*
X162574728Y-30446546D01*
X162591448Y-30465842D01*
X162721373Y-30651395D01*
X162721378Y-30651401D01*
X162888472Y-30818495D01*
X162985257Y-30886265D01*
X163082038Y-30954032D01*
X163082040Y-30954033D01*
X163082043Y-30954035D01*
X163296210Y-31053903D01*
X163524465Y-31115063D01*
X163700907Y-31130500D01*
X163759872Y-31135659D01*
X163759873Y-31135659D01*
X163759874Y-31135659D01*
X163818839Y-31130500D01*
X163995281Y-31115063D01*
X164223536Y-31053903D01*
X164437703Y-30954035D01*
X164631274Y-30818495D01*
X164798368Y-30651401D01*
X164933908Y-30457830D01*
X165033776Y-30243663D01*
X165094936Y-30015408D01*
X165115532Y-29780000D01*
X165094936Y-29544592D01*
X165033776Y-29316337D01*
X164933908Y-29102171D01*
X164928298Y-29094158D01*
X164798367Y-28908597D01*
X164631275Y-28741506D01*
X164631268Y-28741501D01*
X164626856Y-28738412D01*
X164554391Y-28687671D01*
X164437707Y-28605967D01*
X164437703Y-28605965D01*
X164437701Y-28605964D01*
X164223536Y-28506097D01*
X164223532Y-28506096D01*
X164223528Y-28506094D01*
X163995286Y-28444938D01*
X163995276Y-28444936D01*
X163759874Y-28424341D01*
X163759872Y-28424341D01*
X163524469Y-28444936D01*
X163524459Y-28444938D01*
X163296217Y-28506094D01*
X163296208Y-28506098D01*
X163082044Y-28605964D01*
X163082042Y-28605965D01*
X162888470Y-28741505D01*
X162721378Y-28908597D01*
X162591448Y-29094158D01*
X162536871Y-29137783D01*
X162467373Y-29144977D01*
X162405018Y-29113454D01*
X162388298Y-29094158D01*
X162258367Y-28908597D01*
X162091275Y-28741506D01*
X162091268Y-28741501D01*
X162086856Y-28738412D01*
X162014391Y-28687671D01*
X161897707Y-28605967D01*
X161897703Y-28605965D01*
X161897701Y-28605964D01*
X161683536Y-28506097D01*
X161683532Y-28506096D01*
X161683528Y-28506094D01*
X161455286Y-28444938D01*
X161455276Y-28444936D01*
X161219874Y-28424341D01*
X161219872Y-28424341D01*
X160984469Y-28444936D01*
X160984459Y-28444938D01*
X160756217Y-28506094D01*
X160756208Y-28506098D01*
X160542044Y-28605964D01*
X160542042Y-28605965D01*
X160348470Y-28741505D01*
X160181378Y-28908597D01*
X160051448Y-29094158D01*
X159996871Y-29137783D01*
X159927373Y-29144977D01*
X159865018Y-29113454D01*
X159848298Y-29094158D01*
X159718367Y-28908597D01*
X159551275Y-28741506D01*
X159551268Y-28741501D01*
X159546856Y-28738412D01*
X159474391Y-28687671D01*
X159357707Y-28605967D01*
X159357703Y-28605965D01*
X159357701Y-28605964D01*
X159143536Y-28506097D01*
X159143532Y-28506096D01*
X159143528Y-28506094D01*
X158915286Y-28444938D01*
X158915276Y-28444936D01*
X158679874Y-28424341D01*
X158679872Y-28424341D01*
X158444469Y-28444936D01*
X158444459Y-28444938D01*
X158216217Y-28506094D01*
X158216208Y-28506098D01*
X158002044Y-28605964D01*
X158002042Y-28605965D01*
X157808470Y-28741505D01*
X157641378Y-28908597D01*
X157511448Y-29094158D01*
X157456871Y-29137783D01*
X157387373Y-29144977D01*
X157325018Y-29113454D01*
X157308298Y-29094158D01*
X157178367Y-28908597D01*
X157011275Y-28741506D01*
X157011268Y-28741501D01*
X157006856Y-28738412D01*
X156934391Y-28687671D01*
X156817707Y-28605967D01*
X156817703Y-28605965D01*
X156817701Y-28605964D01*
X156603536Y-28506097D01*
X156603532Y-28506096D01*
X156603528Y-28506094D01*
X156375286Y-28444938D01*
X156375276Y-28444936D01*
X156139874Y-28424341D01*
X156139872Y-28424341D01*
X155904469Y-28444936D01*
X155904459Y-28444938D01*
X155676217Y-28506094D01*
X155676208Y-28506098D01*
X155462044Y-28605964D01*
X155462042Y-28605965D01*
X155268473Y-28741503D01*
X155146546Y-28863430D01*
X155085223Y-28896914D01*
X155015531Y-28891930D01*
X154959598Y-28850058D01*
X154942683Y-28819081D01*
X154893670Y-28687671D01*
X154893666Y-28687664D01*
X154807420Y-28572455D01*
X154807417Y-28572452D01*
X154692208Y-28486206D01*
X154692201Y-28486202D01*
X154557355Y-28435908D01*
X154557356Y-28435908D01*
X154497756Y-28429501D01*
X154497754Y-28429500D01*
X154497746Y-28429500D01*
X154497737Y-28429500D01*
X152702002Y-28429500D01*
X152701996Y-28429501D01*
X152642389Y-28435908D01*
X152507544Y-28486202D01*
X152507537Y-28486206D01*
X152392328Y-28572452D01*
X152392325Y-28572455D01*
X152306079Y-28687664D01*
X152306075Y-28687671D01*
X152255781Y-28822517D01*
X152249374Y-28882116D01*
X152249373Y-28882135D01*
X142310298Y-28882135D01*
X142457641Y-28734792D01*
X142457643Y-28734788D01*
X142457646Y-28734786D01*
X142582585Y-28562820D01*
X142582584Y-28562820D01*
X142582588Y-28562816D01*
X142679094Y-28373412D01*
X142744783Y-28171243D01*
X142778037Y-27961287D01*
X142778037Y-27498713D01*
X142744783Y-27288757D01*
X142679094Y-27086588D01*
X142582588Y-26897184D01*
X142582586Y-26897181D01*
X142582585Y-26897179D01*
X142457646Y-26725213D01*
X142307323Y-26574890D01*
X142135357Y-26449951D01*
X141945951Y-26353444D01*
X141945950Y-26353443D01*
X141945949Y-26353443D01*
X141743780Y-26287754D01*
X141743778Y-26287753D01*
X141743777Y-26287753D01*
X141582494Y-26262208D01*
X141533824Y-26254500D01*
X141321250Y-26254500D01*
X141272579Y-26262208D01*
X141111297Y-26287753D01*
X140909122Y-26353444D01*
X140719716Y-26449951D01*
X140547750Y-26574890D01*
X140397431Y-26725209D01*
X140397427Y-26725214D01*
X140277855Y-26889793D01*
X140222526Y-26932459D01*
X140152912Y-26938438D01*
X140091117Y-26905833D01*
X140077219Y-26889793D01*
X139957646Y-26725214D01*
X139957642Y-26725209D01*
X139807323Y-26574890D01*
X139635357Y-26449951D01*
X139445951Y-26353444D01*
X139445950Y-26353443D01*
X139445949Y-26353443D01*
X139243780Y-26287754D01*
X139243778Y-26287753D01*
X139243777Y-26287753D01*
X139082494Y-26262208D01*
X139033824Y-26254500D01*
X138821250Y-26254500D01*
X138772579Y-26262208D01*
X138611297Y-26287753D01*
X138409122Y-26353444D01*
X138219716Y-26449951D01*
X138047752Y-26574889D01*
X137908572Y-26714069D01*
X137847249Y-26747553D01*
X137777557Y-26742569D01*
X137721624Y-26700697D01*
X137715352Y-26691484D01*
X137619852Y-26536654D01*
X137495882Y-26412684D01*
X137346661Y-26320643D01*
X137346656Y-26320641D01*
X137180234Y-26265494D01*
X137180227Y-26265493D01*
X137077523Y-26255000D01*
X136677537Y-26255000D01*
X136677537Y-27325854D01*
X136610880Y-27287370D01*
X136490072Y-27255000D01*
X136365002Y-27255000D01*
X136244194Y-27287370D01*
X136177537Y-27325854D01*
X136177537Y-26255000D01*
X135777565Y-26255000D01*
X135777549Y-26255001D01*
X135674839Y-26265494D01*
X135508417Y-26320641D01*
X135508412Y-26320643D01*
X135359191Y-26412684D01*
X135235221Y-26536654D01*
X135143180Y-26685875D01*
X135143178Y-26685880D01*
X135088031Y-26852302D01*
X135088030Y-26852309D01*
X135077537Y-26955013D01*
X132470373Y-26955013D01*
X132470373Y-21393389D01*
X155269373Y-21393389D01*
X155269373Y-21566611D01*
X155296471Y-21737701D01*
X155350000Y-21902445D01*
X155428641Y-22056788D01*
X155530459Y-22196928D01*
X155652945Y-22319414D01*
X155793085Y-22421232D01*
X155947428Y-22499873D01*
X156112172Y-22553402D01*
X156283262Y-22580500D01*
X156283263Y-22580500D01*
X156456483Y-22580500D01*
X156456484Y-22580500D01*
X156627574Y-22553402D01*
X156792318Y-22499873D01*
X156946661Y-22421232D01*
X157086801Y-22319414D01*
X157209287Y-22196928D01*
X157311105Y-22056788D01*
X157389746Y-21902445D01*
X157443275Y-21737701D01*
X157470373Y-21566611D01*
X157470373Y-21393389D01*
X162269373Y-21393389D01*
X162269373Y-21566611D01*
X162296471Y-21737701D01*
X162350000Y-21902445D01*
X162428641Y-22056788D01*
X162530459Y-22196928D01*
X162652945Y-22319414D01*
X162793085Y-22421232D01*
X162947428Y-22499873D01*
X163112172Y-22553402D01*
X163283262Y-22580500D01*
X163283263Y-22580500D01*
X163456483Y-22580500D01*
X163456484Y-22580500D01*
X163627574Y-22553402D01*
X163792318Y-22499873D01*
X163946661Y-22421232D01*
X164086801Y-22319414D01*
X164209287Y-22196928D01*
X164311105Y-22056788D01*
X164389746Y-21902445D01*
X164443275Y-21737701D01*
X164470373Y-21566611D01*
X164470373Y-21393389D01*
X164443275Y-21222299D01*
X164389746Y-21057555D01*
X164311105Y-20903212D01*
X164209287Y-20763072D01*
X164086801Y-20640586D01*
X163946661Y-20538768D01*
X163792318Y-20460127D01*
X163627574Y-20406598D01*
X163627572Y-20406597D01*
X163627571Y-20406597D01*
X163496144Y-20385781D01*
X163456484Y-20379500D01*
X163283262Y-20379500D01*
X163243601Y-20385781D01*
X163112175Y-20406597D01*
X162947425Y-20460128D01*
X162793084Y-20538768D01*
X162713129Y-20596859D01*
X162652945Y-20640586D01*
X162652943Y-20640588D01*
X162652942Y-20640588D01*
X162530461Y-20763069D01*
X162530461Y-20763070D01*
X162530459Y-20763072D01*
X162486732Y-20823256D01*
X162428641Y-20903211D01*
X162350001Y-21057552D01*
X162296470Y-21222302D01*
X162269373Y-21393389D01*
X157470373Y-21393389D01*
X157443275Y-21222299D01*
X157389746Y-21057555D01*
X157311105Y-20903212D01*
X157209287Y-20763072D01*
X157086801Y-20640586D01*
X156946661Y-20538768D01*
X156792318Y-20460127D01*
X156627574Y-20406598D01*
X156627572Y-20406597D01*
X156627571Y-20406597D01*
X156496144Y-20385781D01*
X156456484Y-20379500D01*
X156283262Y-20379500D01*
X156243601Y-20385781D01*
X156112175Y-20406597D01*
X155947425Y-20460128D01*
X155793084Y-20538768D01*
X155713129Y-20596859D01*
X155652945Y-20640586D01*
X155652943Y-20640588D01*
X155652942Y-20640588D01*
X155530461Y-20763069D01*
X155530461Y-20763070D01*
X155530459Y-20763072D01*
X155486732Y-20823256D01*
X155428641Y-20903211D01*
X155350001Y-21057552D01*
X155296470Y-21222302D01*
X155269373Y-21393389D01*
X132470373Y-21393389D01*
X132470373Y-15404500D01*
X132490058Y-15337461D01*
X132542862Y-15291706D01*
X132594373Y-15280500D01*
X166345373Y-15280500D01*
X166412412Y-15300185D01*
G37*
%TD.AperFunction*%
%TD*%
M02*
