%TF.GenerationSoftware,KiCad,Pcbnew,8.0.8*%
%TF.CreationDate,2025-03-24T10:48:51+01:00*%
%TF.ProjectId,Unit,556e6974-2e6b-4696-9361-645f70636258,rev?*%
%TF.SameCoordinates,Original*%
%TF.FileFunction,Soldermask,Bot*%
%TF.FilePolarity,Negative*%
%FSLAX46Y46*%
G04 Gerber Fmt 4.6, Leading zero omitted, Abs format (unit mm)*
G04 Created by KiCad (PCBNEW 8.0.8) date 2025-03-24 10:48:51*
%MOMM*%
%LPD*%
G01*
G04 APERTURE LIST*
G04 Aperture macros list*
%AMRoundRect*
0 Rectangle with rounded corners*
0 $1 Rounding radius*
0 $2 $3 $4 $5 $6 $7 $8 $9 X,Y pos of 4 corners*
0 Add a 4 corners polygon primitive as box body*
4,1,4,$2,$3,$4,$5,$6,$7,$8,$9,$2,$3,0*
0 Add four circle primitives for the rounded corners*
1,1,$1+$1,$2,$3*
1,1,$1+$1,$4,$5*
1,1,$1+$1,$6,$7*
1,1,$1+$1,$8,$9*
0 Add four rect primitives between the rounded corners*
20,1,$1+$1,$2,$3,$4,$5,0*
20,1,$1+$1,$4,$5,$6,$7,0*
20,1,$1+$1,$6,$7,$8,$9,0*
20,1,$1+$1,$8,$9,$2,$3,0*%
G04 Aperture macros list end*
%ADD10C,4.000000*%
%ADD11C,1.800000*%
%ADD12RoundRect,0.250000X-0.600000X-0.725000X0.600000X-0.725000X0.600000X0.725000X-0.600000X0.725000X0*%
%ADD13O,1.700000X1.950000*%
%ADD14C,1.700000*%
%ADD15R,1.700000X1.700000*%
%ADD16O,1.700000X1.700000*%
%ADD17R,1.600000X2.400000*%
%ADD18O,1.600000X2.400000*%
G04 APERTURE END LIST*
D10*
%TO.C,RV5*%
X137527537Y-130230000D03*
X146327537Y-130230000D03*
D11*
X144427537Y-137230000D03*
X141927537Y-137230000D03*
X139427537Y-137230000D03*
%TD*%
D12*
%TO.C,J10*%
X136427537Y-51130000D03*
D13*
X138927537Y-51130000D03*
X141427537Y-51130000D03*
%TD*%
D12*
%TO.C,J9*%
X136427537Y-45280000D03*
D13*
X138927537Y-45280000D03*
X141427537Y-45280000D03*
%TD*%
D12*
%TO.C,J12*%
X136427537Y-62830000D03*
D13*
X138927537Y-62830000D03*
X141427537Y-62830000D03*
%TD*%
D12*
%TO.C,J8*%
X136427537Y-39430000D03*
D13*
X138927537Y-39430000D03*
X141427537Y-39430000D03*
%TD*%
D14*
%TO.C,J14*%
X163369873Y-21480000D03*
X156369873Y-21480000D03*
%TD*%
D15*
%TO.C,J4*%
X153599873Y-29780000D03*
D16*
X156139873Y-29780000D03*
X158679873Y-29780000D03*
X161219873Y-29780000D03*
X163759873Y-29780000D03*
%TD*%
D10*
%TO.C,RV1*%
X137527537Y-161130000D03*
X146327537Y-161130000D03*
D11*
X144427537Y-168130000D03*
X141927537Y-168130000D03*
X139427537Y-168130000D03*
%TD*%
D12*
%TO.C,J11*%
X136427537Y-56980000D03*
D13*
X138927537Y-56980000D03*
X141427537Y-56980000D03*
%TD*%
D10*
%TO.C,RV4*%
X151877537Y-145680000D03*
X160677537Y-145680000D03*
D11*
X158777537Y-152680000D03*
X156277537Y-152680000D03*
X153777537Y-152680000D03*
%TD*%
D10*
%TO.C,RV8*%
X151877537Y-114780000D03*
X160677537Y-114780000D03*
D11*
X158777537Y-121780000D03*
X156277537Y-121780000D03*
X153777537Y-121780000D03*
%TD*%
D10*
%TO.C,RV2*%
X151877537Y-161130000D03*
X160677537Y-161130000D03*
D11*
X158777537Y-168130000D03*
X156277537Y-168130000D03*
X153777537Y-168130000D03*
%TD*%
D10*
%TO.C,RV7*%
X137527537Y-114780000D03*
X146327537Y-114780000D03*
D11*
X144427537Y-121780000D03*
X141927537Y-121780000D03*
X139427537Y-121780000D03*
%TD*%
D12*
%TO.C,J6*%
X136427537Y-27730000D03*
D13*
X138927537Y-27730000D03*
X141427537Y-27730000D03*
%TD*%
D17*
%TO.C,U4*%
X156669873Y-45105000D03*
D18*
X159209873Y-45105000D03*
X161749873Y-45105000D03*
X164289873Y-45105000D03*
X164289873Y-37485000D03*
X161749873Y-37485000D03*
X159209873Y-37485000D03*
X156669873Y-37485000D03*
%TD*%
D16*
%TO.C,J1*%
X164000000Y-51960000D03*
D15*
X164000000Y-49420000D03*
D16*
X164000000Y-54500000D03*
X164000000Y-57040000D03*
X164000000Y-69740000D03*
X164000000Y-59580000D03*
X164000000Y-62120000D03*
X164000000Y-64660000D03*
X164000000Y-77360000D03*
X164000000Y-74820000D03*
X164000000Y-67200000D03*
X164000000Y-79900000D03*
X164000000Y-72280000D03*
X164000000Y-82440000D03*
X164000000Y-84980000D03*
X164000000Y-87520000D03*
%TD*%
D10*
%TO.C,RV3*%
X137527537Y-145680000D03*
X146327537Y-145680000D03*
D11*
X144427537Y-152680000D03*
X141927537Y-152680000D03*
X139427537Y-152680000D03*
%TD*%
D10*
%TO.C,RV6*%
X151877537Y-130230000D03*
X160677537Y-130230000D03*
D11*
X158777537Y-137230000D03*
X156277537Y-137230000D03*
X153777537Y-137230000D03*
%TD*%
D12*
%TO.C,J7*%
X136427537Y-33580000D03*
D13*
X138927537Y-33580000D03*
X141427537Y-33580000D03*
%TD*%
D15*
%TO.C,J5*%
X135800000Y-75100000D03*
D16*
X135800000Y-77640000D03*
X135800000Y-80180000D03*
X135800000Y-82720000D03*
X135800000Y-85260000D03*
X135800000Y-87800000D03*
X135800000Y-90340000D03*
%TD*%
M02*
