%TF.GenerationSoftware,KiCad,Pcbnew,8.0.0*%
%TF.CreationDate,2025-03-21T10:21:52+01:00*%
%TF.ProjectId,MuseMatrix_Core,4d757365-4d61-4747-9269-785f436f7265,rev?*%
%TF.SameCoordinates,Original*%
%TF.FileFunction,Soldermask,Top*%
%TF.FilePolarity,Negative*%
%FSLAX46Y46*%
G04 Gerber Fmt 4.6, Leading zero omitted, Abs format (unit mm)*
G04 Created by KiCad (PCBNEW 8.0.0) date 2025-03-21 10:21:52*
%MOMM*%
%LPD*%
G01*
G04 APERTURE LIST*
G04 Aperture macros list*
%AMRoundRect*
0 Rectangle with rounded corners*
0 $1 Rounding radius*
0 $2 $3 $4 $5 $6 $7 $8 $9 X,Y pos of 4 corners*
0 Add a 4 corners polygon primitive as box body*
4,1,4,$2,$3,$4,$5,$6,$7,$8,$9,$2,$3,0*
0 Add four circle primitives for the rounded corners*
1,1,$1+$1,$2,$3*
1,1,$1+$1,$4,$5*
1,1,$1+$1,$6,$7*
1,1,$1+$1,$8,$9*
0 Add four rect primitives between the rounded corners*
20,1,$1+$1,$2,$3,$4,$5,0*
20,1,$1+$1,$4,$5,$6,$7,0*
20,1,$1+$1,$6,$7,$8,$9,0*
20,1,$1+$1,$8,$9,$2,$3,0*%
G04 Aperture macros list end*
%ADD10C,2.200000*%
%ADD11C,1.600000*%
%ADD12R,1.700000X1.700000*%
%ADD13O,1.700000X1.700000*%
%ADD14C,0.500000*%
%ADD15RoundRect,0.135000X-0.185000X0.135000X-0.185000X-0.135000X0.185000X-0.135000X0.185000X0.135000X0*%
%ADD16C,4.000000*%
%ADD17C,1.800000*%
%ADD18RoundRect,0.140000X0.170000X-0.140000X0.170000X0.140000X-0.170000X0.140000X-0.170000X-0.140000X0*%
%ADD19R,1.500000X1.050000*%
%ADD20O,1.500000X1.050000*%
%ADD21RoundRect,0.250000X-0.600000X-0.725000X0.600000X-0.725000X0.600000X0.725000X-0.600000X0.725000X0*%
%ADD22O,1.700000X1.950000*%
%ADD23C,2.100000*%
%ADD24C,1.524000*%
%ADD25RoundRect,0.140000X-0.140000X-0.170000X0.140000X-0.170000X0.140000X0.170000X-0.140000X0.170000X0*%
%ADD26RoundRect,0.135000X-0.135000X-0.185000X0.135000X-0.185000X0.135000X0.185000X-0.135000X0.185000X0*%
%ADD27C,1.700000*%
%ADD28R,2.200000X2.800000*%
%ADD29R,2.800000X2.800000*%
%ADD30RoundRect,0.150000X0.150000X-0.825000X0.150000X0.825000X-0.150000X0.825000X-0.150000X-0.825000X0*%
%ADD31RoundRect,0.150000X-0.825000X-0.150000X0.825000X-0.150000X0.825000X0.150000X-0.825000X0.150000X0*%
%ADD32R,1.050000X1.500000*%
%ADD33O,1.050000X1.500000*%
%ADD34R,1.600000X2.400000*%
%ADD35O,1.600000X2.400000*%
%ADD36O,0.850000X0.850000*%
%ADD37R,0.850000X0.850000*%
%ADD38RoundRect,0.140000X-0.170000X0.140000X-0.170000X-0.140000X0.170000X-0.140000X0.170000X0.140000X0*%
%ADD39RoundRect,0.135000X0.185000X-0.135000X0.185000X0.135000X-0.185000X0.135000X-0.185000X-0.135000X0*%
%ADD40RoundRect,0.250000X0.600000X0.725000X-0.600000X0.725000X-0.600000X-0.725000X0.600000X-0.725000X0*%
G04 APERTURE END LIST*
D10*
%TO.C,J5*%
X91997664Y-74200000D03*
X89457664Y-88160000D03*
D11*
X89457664Y-75460000D03*
X89457664Y-78000000D03*
X89457664Y-80540000D03*
X89457664Y-83080000D03*
X89457664Y-85620000D03*
X91997664Y-76740000D03*
X91997664Y-79260000D03*
X91997664Y-81820000D03*
X91997664Y-84340000D03*
X91997664Y-86900000D03*
%TD*%
D12*
%TO.C,J4*%
X106130000Y-30000000D03*
D13*
X108670000Y-30000000D03*
X111210000Y-30000000D03*
X113750000Y-30000000D03*
X116290000Y-30000000D03*
%TD*%
D14*
%TO.C,mouse-bite-1mm-slot*%
X83250000Y-103150000D03*
X84750000Y-103150000D03*
X83000000Y-102350000D03*
X85000000Y-102350000D03*
X83000000Y-101650000D03*
X85000000Y-101650000D03*
X83250000Y-100850000D03*
X84750000Y-100850000D03*
%TD*%
%TO.C,mouse-bite-1mm-slot*%
X83250000Y-70650000D03*
X84750000Y-70650000D03*
X83000000Y-69850000D03*
X85000000Y-69850000D03*
X83000000Y-69150000D03*
X85000000Y-69150000D03*
X83250000Y-68350000D03*
X84750000Y-68350000D03*
%TD*%
%TO.C,mouse-bite-1mm-slot*%
X52250000Y-114400000D03*
X53750000Y-114400000D03*
X52000000Y-113600000D03*
X54000000Y-113600000D03*
X52000000Y-112900000D03*
X54000000Y-112900000D03*
X52250000Y-112100000D03*
X53750000Y-112100000D03*
%TD*%
%TO.C,mouse-bite-1mm-slot*%
X52000000Y-39650000D03*
X53750000Y-41150000D03*
X53750000Y-38850000D03*
X52250000Y-41150000D03*
X52000000Y-40350000D03*
X52250000Y-38850000D03*
X54000000Y-40350000D03*
X54000000Y-39650000D03*
%TD*%
D15*
%TO.C,R31*%
X111750000Y-32990000D03*
X111750000Y-34010000D03*
%TD*%
D16*
%TO.C,RV5*%
X90057664Y-130450000D03*
X98857664Y-130450000D03*
D17*
X96957664Y-137450000D03*
X94457664Y-137450000D03*
X91957664Y-137450000D03*
%TD*%
D18*
%TO.C,R8*%
X49500000Y-101480000D03*
X49500000Y-100520000D03*
%TD*%
D12*
%TO.C,D6*%
X70542336Y-53025000D03*
D13*
X68002336Y-53025000D03*
%TD*%
D19*
%TO.C,Q6*%
X79042336Y-87025000D03*
D20*
X79042336Y-85755000D03*
X79042336Y-84485000D03*
%TD*%
D11*
%TO.C,J17*%
X31270000Y-173580000D03*
X31270000Y-171040000D03*
X31270000Y-168500000D03*
X28730000Y-172300000D03*
X28730000Y-169780000D03*
X28730000Y-167240000D03*
D10*
X28730000Y-174840000D03*
X31270000Y-166010000D03*
%TD*%
D21*
%TO.C,J10*%
X88957664Y-51350000D03*
D22*
X91457664Y-51350000D03*
X93957664Y-51350000D03*
%TD*%
D19*
%TO.C,Q5*%
X79042336Y-52025000D03*
D20*
X79042336Y-50755000D03*
X79042336Y-49485000D03*
%TD*%
D23*
%TO.C,H4*%
X25000000Y-173500000D03*
%TD*%
D19*
%TO.C,Q1*%
X45500000Y-69000000D03*
D20*
X45500000Y-67730000D03*
X45500000Y-66460000D03*
%TD*%
D21*
%TO.C,J9*%
X88957664Y-45500000D03*
D22*
X91457664Y-45500000D03*
X93957664Y-45500000D03*
%TD*%
D10*
%TO.C,J13*%
X27040000Y-75200000D03*
X24500000Y-89160000D03*
D11*
X24500000Y-76460000D03*
X24500000Y-79000000D03*
X24500000Y-81540000D03*
X24500000Y-84080000D03*
X24500000Y-86620000D03*
X27040000Y-77740000D03*
X27040000Y-80260000D03*
X27040000Y-82820000D03*
X27040000Y-85340000D03*
X27040000Y-87900000D03*
%TD*%
D19*
%TO.C,Q7*%
X79042336Y-122025000D03*
D20*
X79042336Y-120755000D03*
X79042336Y-119485000D03*
%TD*%
D12*
%TO.C,D7*%
X70542336Y-88025000D03*
D13*
X68002336Y-88025000D03*
%TD*%
D24*
%TO.C,R20*%
X68042336Y-49525000D03*
X70542336Y-49575000D03*
%TD*%
D25*
%TO.C,R17*%
X64542336Y-18025000D03*
X65502336Y-18025000D03*
%TD*%
D24*
%TO.C,R12*%
X34500000Y-171500000D03*
X37000000Y-171550000D03*
%TD*%
D23*
%TO.C,H7*%
X55957664Y-128000000D03*
%TD*%
D26*
%TO.C,R28*%
X81457664Y-117500000D03*
X82477664Y-117500000D03*
%TD*%
D25*
%TO.C,R26*%
X80997664Y-47500000D03*
X81957664Y-47500000D03*
%TD*%
%TO.C,R14*%
X38520000Y-171500000D03*
X39480000Y-171500000D03*
%TD*%
%TO.C,R27*%
X80977664Y-82500000D03*
X81937664Y-82500000D03*
%TD*%
D21*
%TO.C,J12*%
X88957664Y-63050000D03*
D22*
X91457664Y-63050000D03*
X93957664Y-63050000D03*
%TD*%
D21*
%TO.C,J8*%
X88957664Y-39650000D03*
D22*
X91457664Y-39650000D03*
X93957664Y-39650000D03*
%TD*%
D27*
%TO.C,J14*%
X115900000Y-21700000D03*
X108900000Y-21700000D03*
D28*
X115000000Y-25400000D03*
X117000000Y-18000000D03*
D29*
X107600000Y-18000000D03*
%TD*%
D30*
%TO.C,U3*%
X97305000Y-85975000D03*
X98575000Y-85975000D03*
X99845000Y-85975000D03*
X101115000Y-85975000D03*
X102385000Y-85975000D03*
X103655000Y-85975000D03*
X104925000Y-85975000D03*
X106195000Y-85975000D03*
X106195000Y-81025000D03*
X104925000Y-81025000D03*
X103655000Y-81025000D03*
X102385000Y-81025000D03*
X101115000Y-81025000D03*
X99845000Y-81025000D03*
X98575000Y-81025000D03*
X97305000Y-81025000D03*
%TD*%
D25*
%TO.C,R5*%
X31000000Y-70000000D03*
X31960000Y-70000000D03*
%TD*%
D11*
%TO.C,J18*%
X58457664Y-31655000D03*
X58457664Y-29115000D03*
X58457664Y-26575000D03*
X55917664Y-30375000D03*
X55917664Y-27855000D03*
X55917664Y-25315000D03*
D10*
X55917664Y-32915000D03*
X58457664Y-24085000D03*
%TD*%
D16*
%TO.C,RV1*%
X90057664Y-161350000D03*
X98857664Y-161350000D03*
D17*
X96957664Y-168350000D03*
X94457664Y-168350000D03*
X91957664Y-168350000D03*
%TD*%
D25*
%TO.C,R13*%
X39040000Y-136500000D03*
X40000000Y-136500000D03*
%TD*%
D10*
%TO.C,J3*%
X50856252Y-75213251D03*
X48316252Y-89173251D03*
D11*
X48316252Y-76473251D03*
X48316252Y-79013251D03*
X48316252Y-81553251D03*
X48316252Y-84093251D03*
X48316252Y-86633251D03*
X50856252Y-77753251D03*
X50856252Y-80273251D03*
X50856252Y-82833251D03*
X50856252Y-85353251D03*
X50856252Y-87913251D03*
%TD*%
D19*
%TO.C,Q4*%
X45000000Y-174000000D03*
D20*
X45000000Y-172730000D03*
X45000000Y-171460000D03*
%TD*%
D24*
%TO.C,R21*%
X68042336Y-84525000D03*
X70542336Y-84575000D03*
%TD*%
D21*
%TO.C,J11*%
X88957664Y-57200000D03*
D22*
X91457664Y-57200000D03*
X93957664Y-57200000D03*
%TD*%
D25*
%TO.C,R24*%
X73062336Y-84525000D03*
X74022336Y-84525000D03*
%TD*%
D23*
%TO.C,H8*%
X80957664Y-128000000D03*
%TD*%
D25*
%TO.C,R9*%
X31020000Y-105000000D03*
X31980000Y-105000000D03*
%TD*%
D16*
%TO.C,RV4*%
X104407664Y-145900000D03*
X113207664Y-145900000D03*
D17*
X111307664Y-152900000D03*
X108807664Y-152900000D03*
X106307664Y-152900000D03*
%TD*%
D24*
%TO.C,R2*%
X34500000Y-66500000D03*
X37000000Y-66550000D03*
%TD*%
D31*
%TO.C,U2*%
X98550000Y-37230000D03*
X98550000Y-38500000D03*
X98550000Y-39770000D03*
X98550000Y-41040000D03*
X98550000Y-42310000D03*
X98550000Y-43580000D03*
X98550000Y-44850000D03*
X98550000Y-46120000D03*
X103500000Y-46120000D03*
X103500000Y-44850000D03*
X103500000Y-43580000D03*
X103500000Y-42310000D03*
X103500000Y-41040000D03*
X103500000Y-39770000D03*
X103500000Y-38500000D03*
X103500000Y-37230000D03*
%TD*%
D12*
%TO.C,D4*%
X37000000Y-140000000D03*
D13*
X34460000Y-140000000D03*
%TD*%
D23*
%TO.C,H2*%
X50000000Y-17500000D03*
%TD*%
D32*
%TO.C,Q8*%
X35960000Y-28000000D03*
D33*
X34690000Y-28000000D03*
X33420000Y-28000000D03*
%TD*%
D19*
%TO.C,Q3*%
X43860000Y-139000000D03*
D20*
X43860000Y-137730000D03*
X43860000Y-136460000D03*
%TD*%
D25*
%TO.C,R10*%
X31000000Y-140000000D03*
X31960000Y-140000000D03*
%TD*%
D12*
%TO.C,D2*%
X37000000Y-70000000D03*
D13*
X34460000Y-70000000D03*
%TD*%
D12*
%TO.C,D1*%
X37000000Y-35000000D03*
D13*
X34460000Y-35000000D03*
%TD*%
D25*
%TO.C,R19*%
X64792336Y-88025000D03*
X65752336Y-88025000D03*
%TD*%
D24*
%TO.C,R22*%
X68042336Y-119525000D03*
X70542336Y-119575000D03*
%TD*%
D25*
%TO.C,R1*%
X32020000Y-32000000D03*
X32980000Y-32000000D03*
%TD*%
D12*
%TO.C,D5*%
X70500000Y-18000000D03*
D13*
X67960000Y-18000000D03*
%TD*%
D23*
%TO.C,H3*%
X50000000Y-173500000D03*
%TD*%
D25*
%TO.C,R25*%
X73042336Y-119525000D03*
X74002336Y-119525000D03*
%TD*%
D24*
%TO.C,R11*%
X37000000Y-136500000D03*
X34500000Y-136450000D03*
%TD*%
D16*
%TO.C,RV8*%
X104407664Y-115000000D03*
X113207664Y-115000000D03*
D17*
X111307664Y-122000000D03*
X108807664Y-122000000D03*
X106307664Y-122000000D03*
%TD*%
D16*
%TO.C,RV2*%
X104407664Y-161350000D03*
X113207664Y-161350000D03*
D17*
X111307664Y-168350000D03*
X108807664Y-168350000D03*
X106307664Y-168350000D03*
%TD*%
D16*
%TO.C,RV7*%
X90057664Y-115000000D03*
X98857664Y-115000000D03*
D17*
X96957664Y-122000000D03*
X94457664Y-122000000D03*
X91957664Y-122000000D03*
%TD*%
D26*
%TO.C,R30*%
X108990000Y-35250000D03*
X110010000Y-35250000D03*
%TD*%
D25*
%TO.C,R18*%
X64542336Y-53025000D03*
X65502336Y-53025000D03*
%TD*%
%TO.C,R3*%
X31520000Y-66500000D03*
X32480000Y-66500000D03*
%TD*%
D19*
%TO.C,Q2*%
X45500000Y-104000000D03*
D20*
X45500000Y-102730000D03*
X45500000Y-101460000D03*
%TD*%
D30*
%TO.C,U1*%
X97107664Y-106500000D03*
X98377664Y-106500000D03*
X99647664Y-106500000D03*
X100917664Y-106500000D03*
X102187664Y-106500000D03*
X103457664Y-106500000D03*
X104727664Y-106500000D03*
X105997664Y-106500000D03*
X105997664Y-101550000D03*
X104727664Y-101550000D03*
X103457664Y-101550000D03*
X102187664Y-101550000D03*
X100917664Y-101550000D03*
X99647664Y-101550000D03*
X98377664Y-101550000D03*
X97107664Y-101550000D03*
%TD*%
D24*
%TO.C,R6*%
X37000000Y-101500000D03*
X34500000Y-101450000D03*
%TD*%
D22*
%TO.C,J6*%
X93957664Y-27950000D03*
X91457664Y-27950000D03*
D21*
X88957664Y-27950000D03*
%TD*%
D18*
%TO.C,R15*%
X48360000Y-136980000D03*
X48360000Y-136020000D03*
%TD*%
D34*
%TO.C,U4*%
X109200000Y-45325000D03*
D35*
X111740000Y-45325000D03*
X114280000Y-45325000D03*
X116820000Y-45325000D03*
X116820000Y-37705000D03*
X114280000Y-37705000D03*
X111740000Y-37705000D03*
X109200000Y-37705000D03*
%TD*%
D12*
%TO.C,D3*%
X37000000Y-105000000D03*
D13*
X34460000Y-105000000D03*
%TD*%
D25*
%TO.C,R4*%
X49520000Y-66500000D03*
X50480000Y-66500000D03*
%TD*%
D36*
%TO.C,J1*%
X104500000Y-68750000D03*
X103500000Y-68750000D03*
X104500000Y-67750000D03*
X103500000Y-67750000D03*
X104500000Y-66750000D03*
X103500000Y-66750000D03*
X104500000Y-65750000D03*
X103500000Y-65750000D03*
X104500000Y-64750000D03*
X103500000Y-64750000D03*
X104500000Y-63750000D03*
X103500000Y-63750000D03*
X104500000Y-62750000D03*
X103500000Y-62750000D03*
X104500000Y-61750000D03*
X103500000Y-61750000D03*
X104500000Y-60750000D03*
X103500000Y-60750000D03*
X104500000Y-59750000D03*
X103500000Y-59750000D03*
X104500000Y-58750000D03*
X103500000Y-58750000D03*
X104500000Y-57750000D03*
X103500000Y-57750000D03*
X104500000Y-56750000D03*
X103500000Y-56750000D03*
X104500000Y-55750000D03*
X103500000Y-55750000D03*
X104500000Y-54750000D03*
X103500000Y-54750000D03*
X104500000Y-53750000D03*
D37*
X103500000Y-53750000D03*
%TD*%
D16*
%TO.C,RV3*%
X90057664Y-145900000D03*
X98857664Y-145900000D03*
D17*
X96957664Y-152900000D03*
X94457664Y-152900000D03*
X91957664Y-152900000D03*
%TD*%
D25*
%TO.C,R23*%
X73042336Y-49025000D03*
X74002336Y-49025000D03*
%TD*%
D16*
%TO.C,RV6*%
X104407664Y-130450000D03*
X113207664Y-130450000D03*
D17*
X111307664Y-137450000D03*
X108807664Y-137450000D03*
X106307664Y-137450000D03*
%TD*%
D21*
%TO.C,J7*%
X88957664Y-33800000D03*
D22*
X91457664Y-33800000D03*
X93957664Y-33800000D03*
%TD*%
D23*
%TO.C,H5*%
X55957664Y-17500000D03*
%TD*%
%TO.C,H1*%
X25000000Y-17500000D03*
%TD*%
%TO.C,H6*%
X80957664Y-17500000D03*
%TD*%
D38*
%TO.C,R16*%
X48500000Y-169000000D03*
X48500000Y-169960000D03*
%TD*%
D25*
%TO.C,R7*%
X39520000Y-101500000D03*
X40480000Y-101500000D03*
%TD*%
D39*
%TO.C,R29*%
X108750000Y-51260000D03*
X108750000Y-50240000D03*
%TD*%
D40*
%TO.C,J2*%
X36000000Y-21000000D03*
D22*
X33500000Y-21000000D03*
X31000000Y-21000000D03*
%TD*%
M02*
