%TF.GenerationSoftware,KiCad,Pcbnew,8.0.0*%
%TF.CreationDate,2025-03-21T10:21:52+01:00*%
%TF.ProjectId,MuseMatrix_Core,4d757365-4d61-4747-9269-785f436f7265,rev?*%
%TF.SameCoordinates,Original*%
%TF.FileFunction,Profile,NP*%
%FSLAX46Y46*%
G04 Gerber Fmt 4.6, Leading zero omitted, Abs format (unit mm)*
G04 Created by KiCad (PCBNEW 8.0.0) date 2025-03-21 10:21:52*
%MOMM*%
%LPD*%
G01*
G04 APERTURE LIST*
%TA.AperFunction,Profile*%
%ADD10C,0.050000*%
%TD*%
G04 APERTURE END LIST*
D10*
X84500000Y-103500000D02*
X84500000Y-104250000D01*
X83500000Y-104250000D02*
X83500000Y-103500000D01*
X83500000Y-99750000D02*
X83500000Y-100500000D01*
X84500000Y-99750000D02*
X84500000Y-100500000D01*
X84500000Y-100500000D02*
G75*
G02*
X83500000Y-100500000I-500000J0D01*
G01*
X83500000Y-103500000D02*
G75*
G02*
X84500000Y-103500000I500000J0D01*
G01*
X84500000Y-67000000D02*
X84500000Y-68000000D01*
X83500000Y-67000000D02*
X83500000Y-68000000D01*
X84500000Y-71000000D02*
X84500000Y-72000000D01*
X83500000Y-72000000D02*
X83500000Y-71000000D01*
X84500000Y-68000000D02*
G75*
G02*
X83500000Y-68000000I-500000J0D01*
G01*
X83500000Y-71000000D02*
G75*
G02*
X84500000Y-71000000I500000J0D01*
G01*
X53500000Y-114750000D02*
X53500000Y-115500000D01*
X52500000Y-115500000D02*
X52500000Y-114750000D01*
X52500000Y-110750000D02*
X52500000Y-111750000D01*
X53500000Y-110750000D02*
X53500000Y-111750000D01*
X53500000Y-111750000D02*
G75*
G02*
X52500000Y-111750000I-500000J0D01*
G01*
X52500000Y-114750000D02*
G75*
G02*
X53500000Y-114750000I500000J0D01*
G01*
X53500000Y-41500000D02*
X53500000Y-42750000D01*
X52500000Y-42750000D02*
X52500000Y-41500000D01*
X52500000Y-37500000D02*
X52500000Y-38500000D01*
X53500000Y-38500000D02*
G75*
G02*
X52500000Y-38500000I-500000J0D01*
G01*
X53500000Y-37500000D02*
X53500000Y-38500000D01*
X52500000Y-41500000D02*
G75*
G02*
X53500000Y-41500000I500000J0D01*
G01*
X84500000Y-176500000D02*
X84500000Y-104250000D01*
X119500000Y-176500000D02*
X84500000Y-176500000D01*
X119500000Y-15000000D02*
X119500000Y-176500000D01*
X84500000Y-15000000D02*
X119500000Y-15000000D01*
X84500000Y-67000000D02*
X84500000Y-15000000D01*
X83500000Y-67000000D02*
X83457664Y-15000000D01*
X84500000Y-99750000D02*
X84500000Y-72000000D01*
X83500000Y-72000000D02*
X83500000Y-99750000D01*
X83457664Y-130500000D02*
X83500000Y-104250000D01*
X52500000Y-115500000D02*
X52500000Y-130500000D01*
X52500000Y-110750000D02*
X52500000Y-42750000D01*
X52500000Y-37500000D02*
X52500000Y-15000000D01*
X53500000Y-37500000D02*
X53457664Y-15000000D01*
X53500000Y-110750000D02*
X53500000Y-42750000D01*
X53457664Y-130500000D02*
X53500000Y-115500000D01*
X22500000Y-176500000D02*
X52500000Y-176500000D01*
X83457664Y-130500000D02*
X53457664Y-130500000D01*
X53457664Y-15000000D02*
X83457664Y-15000000D01*
X22500000Y-15000000D02*
X22500000Y-176500000D01*
X52500000Y-176500000D02*
X52500000Y-130500000D01*
X52500000Y-15000000D02*
X22500000Y-15000000D01*
M02*
