M48
; DRILL file {KiCad 8.0.0} date 2025-03-21T10:22:00+0100
; FORMAT={-:-/ absolute / inch / decimal}
; #@! TF.CreationDate,2025-03-21T10:22:00+01:00
; #@! TF.GenerationSoftware,Kicad,Pcbnew,8.0.0
; #@! TF.FileFunction,Plated,1,4,PTH
FMAT,2
INCH
; #@! TA.AperFunction,Plated,PTH,ViaDrill
T1C0.0118
; #@! TA.AperFunction,Plated,PTH,ComponentDrill
T2C0.0197
; #@! TA.AperFunction,Plated,PTH,ComponentDrill
T3C0.0295
; #@! TA.AperFunction,Plated,PTH,ComponentDrill
T4C0.0300
; #@! TA.AperFunction,Plated,PTH,ComponentDrill
T5C0.0315
; #@! TA.AperFunction,Plated,PTH,ComponentDrill
T6C0.0374
; #@! TA.AperFunction,Plated,PTH,ComponentDrill
T7C0.0394
; #@! TA.AperFunction,Plated,PTH,ComponentDrill
T8C0.0551
; #@! TA.AperFunction,Plated,PTH,ComponentDrill
T9C0.0827
%
G90
G05
T1
X1.2205Y-2.815
X1.2402Y-3.6417
X1.2787Y-2.6181
X1.2992Y-3.0709
X1.2992Y-3.4843
X1.2992Y-3.9961
X1.2992Y-5.374
X1.3583Y-3.5236
X1.3976Y-3.1693
X1.4567Y-1.3189
X1.4764Y-0.8268
X1.4961Y-2.6181
X1.5157Y-2.7559
X1.5157Y-4.1339
X1.5748Y-5.374
X1.5945Y-6.752
X1.6142Y-3.9764
X1.7323Y-4.0945
X1.7717Y-3.4646
X1.7913Y-5.4724
X1.811Y-4.1732
X1.8307Y-6.8504
X1.9039Y-5.3929
X1.9094Y-6.6134
X1.9183Y-2.628
X1.9488Y-3.9953
X2.3819Y-1.2205
X2.3819Y-1.2795
X2.5394Y-2.0866
X2.5509Y-3.4656
X2.7953Y-3.2874
X2.7953Y-4.7638
X2.8337Y-3.4656
X2.8346Y-0.689
X2.8346Y-1.9685
X2.9135Y-1.9301
X2.9143Y-3.3278
X2.9511Y-1.1811
X2.9518Y-4.7057
X3.0709Y-3.4449
X3.0709Y-4.8425
X3.1693Y-2.0472
X3.1881Y-3.248
X3.1889Y-1.8701
X3.207Y-4.626
X3.5453Y-5.4114
X3.563Y-6.0197
X3.563Y-6.6535
X3.8231Y-4.1929
X3.8287Y-3.9961
X3.8317Y-3.189
X3.8681Y-3.9961
X3.8731Y-4.1929
X3.878Y-5.4134
X3.878Y-6.6339
X3.8789Y-3.189
X3.8878Y-1.8209
X3.8976Y-6.0236
X3.9272Y-3.9961
X3.9774Y-3.3209
X4.0049Y-2.6555
X4.0059Y-2.0079
X4.0157Y-2.1161
X4.0157Y-2.2835
X4.0207Y-2.4301
X4.0315Y-3.3238
X4.0354Y-2.0669
X4.0551Y-2.0866
X4.0699Y-1.6191
X4.0748Y-2.0669
X4.0807Y-3.3839
X4.0846Y-1.4665
X4.0846Y-1.7618
X4.0846Y-1.8209
X4.0945Y-6.6339
X4.1142Y-5.4134
X4.1142Y-6.0236
X4.1339Y-3.1988
X4.1535Y-2.185
X4.1565Y-1.936
X4.1575Y-2.6634
X4.1713Y-2.4705
X4.1732Y-2.1654
X4.1732Y-2.3622
X4.1732Y-3.9961
X4.1811Y-3.1821
X4.1831Y-3.3858
X4.2077Y-3.1604
X4.2234Y-2.8524
X4.2815Y-1.4567
X4.3219Y-3.4665
X4.3268Y-3.5236
X4.3307Y-1.3878
X4.3593Y-2.878
X4.4488Y-5.4134
X4.4488Y-6.6339
X4.4528Y-6.0197
T2
X4.0748Y-2.1161
X4.0748Y-2.1555
X4.0748Y-2.1949
X4.0748Y-2.2343
X4.0748Y-2.2736
X4.0748Y-2.313
X4.0748Y-2.3524
X4.0748Y-2.3917
X4.0748Y-2.4311
X4.0748Y-2.4705
X4.0748Y-2.5098
X4.0748Y-2.5492
X4.0748Y-2.5886
X4.0748Y-2.628
X4.0748Y-2.6673
X4.0748Y-2.7067
X4.1142Y-2.1161
X4.1142Y-2.1555
X4.1142Y-2.1949
X4.1142Y-2.2343
X4.1142Y-2.2736
X4.1142Y-2.313
X4.1142Y-2.3524
X4.1142Y-2.3917
X4.1142Y-2.4311
X4.1142Y-2.4705
X4.1142Y-2.5098
X4.1142Y-2.5492
X4.1142Y-2.5886
X4.1142Y-2.628
X4.1142Y-2.6673
X4.1142Y-2.7067
T3
X1.3157Y-1.1024
X1.3657Y-1.1024
X1.4157Y-1.1024
X1.7268Y-5.3724
X1.7268Y-5.4224
X1.7268Y-5.4724
X1.7717Y-6.7504
X1.7717Y-6.8004
X1.7717Y-6.8504
X1.7913Y-2.6165
X1.7913Y-2.6665
X1.7913Y-2.7165
X1.7913Y-3.9945
X1.7913Y-4.0445
X1.7913Y-4.0945
X3.1119Y-1.9482
X3.1119Y-1.9982
X3.1119Y-2.0482
X3.1119Y-3.3262
X3.1119Y-3.3762
X3.1119Y-3.4262
X3.1119Y-4.7041
X3.1119Y-4.7541
X3.1119Y-4.8041
T4
X1.3583Y-2.6181
X1.3583Y-3.9941
X1.3583Y-5.372
X1.3583Y-6.752
X1.4567Y-2.6201
X1.4567Y-3.9961
X1.4567Y-5.374
X1.4567Y-6.7539
X2.6788Y-1.9498
X2.6788Y-3.3278
X2.6788Y-4.7057
X2.7773Y-1.9518
X2.7773Y-3.3297
X2.7773Y-4.7077
T5
X4.2992Y-1.4844
X4.2992Y-1.7844
X4.3992Y-1.4844
X4.3992Y-1.7844
X4.4992Y-1.4844
X4.4992Y-1.7844
X4.5992Y-1.4844
X4.5992Y-1.7844
T6
X1.2205Y-0.8268
X1.3189Y-0.8268
X1.4173Y-0.8268
X3.5023Y-1.1004
X3.5023Y-1.3307
X3.5023Y-1.561
X3.5023Y-1.7913
X3.5023Y-2.0217
X3.5023Y-2.252
X3.5023Y-2.4823
X3.6007Y-1.1004
X3.6007Y-1.3307
X3.6007Y-1.561
X3.6007Y-1.7913
X3.6007Y-2.0217
X3.6007Y-2.252
X3.6007Y-2.4823
X3.6991Y-1.1004
X3.6991Y-1.3307
X3.6991Y-1.561
X3.6991Y-1.7913
X3.6991Y-2.0217
X3.6991Y-2.252
X3.6991Y-2.4823
T7
X1.3567Y-1.378
X1.3567Y-2.7559
X1.3567Y-4.1339
X1.3567Y-5.5118
X1.4567Y-1.378
X1.4567Y-2.7559
X1.4567Y-4.1339
X1.4567Y-5.5118
X2.6756Y-0.7087
X2.6773Y-2.0876
X2.6773Y-3.4656
X2.7756Y-0.7087
X2.7773Y-2.0876
X2.7773Y-3.4656
X3.6204Y-4.8031
X3.6204Y-5.4114
X3.6204Y-6.0197
X3.6204Y-6.628
X3.7188Y-4.8031
X3.7188Y-5.4114
X3.7188Y-6.0197
X3.7188Y-6.628
X3.8172Y-4.8031
X3.8172Y-5.4114
X3.8172Y-6.0197
X3.8172Y-6.628
X4.1783Y-1.1811
X4.1853Y-4.8031
X4.1853Y-5.4114
X4.1853Y-6.0197
X4.1853Y-6.628
X4.2783Y-1.1811
X4.2838Y-4.8031
X4.2838Y-5.4114
X4.2838Y-6.0197
X4.2838Y-6.628
X4.3783Y-1.1811
X4.3822Y-4.8031
X4.3822Y-5.4114
X4.3822Y-6.0197
X4.3822Y-6.628
X4.4783Y-1.1811
X4.5783Y-1.1811
T8
X0.9646Y-3.0102
X0.9646Y-3.1102
X0.9646Y-3.2102
X0.9646Y-3.3102
X0.9646Y-3.4102
X1.0646Y-3.0606
X1.0646Y-3.1598
X1.0646Y-3.2606
X1.0646Y-3.3598
X1.0646Y-3.4606
X1.1311Y-6.5843
X1.1311Y-6.6843
X1.1311Y-6.7835
X1.2311Y-6.6339
X1.2311Y-6.7339
X1.2311Y-6.8339
X1.9022Y-3.0108
X1.9022Y-3.1108
X1.9022Y-3.2108
X1.9022Y-3.3108
X1.9022Y-3.4108
X2.0022Y-3.0612
X2.0022Y-3.1604
X2.0022Y-3.2612
X2.0022Y-3.3604
X2.0022Y-3.4612
X2.2015Y-0.9967
X2.2015Y-1.0967
X2.2015Y-1.1959
X2.3015Y-1.0463
X2.3015Y-1.1463
X2.3015Y-1.2463
X3.522Y-2.9709
X3.522Y-3.0709
X3.522Y-3.1709
X3.522Y-3.2709
X3.522Y-3.3709
X3.622Y-3.0213
X3.622Y-3.1205
X3.622Y-3.2213
X3.622Y-3.3205
X3.622Y-3.4213
T9
X0.9646Y-3.5102
X1.0646Y-2.9606
X1.1311Y-6.8835
X1.2311Y-6.5358
X1.9022Y-3.5108
X2.0022Y-2.9612
X2.2015Y-1.2959
X2.3015Y-0.9482
X3.522Y-3.4709
X3.622Y-2.9213
M30
