%TF.GenerationSoftware,KiCad,Pcbnew,8.0.0*%
%TF.CreationDate,2025-03-21T10:21:52+01:00*%
%TF.ProjectId,MuseMatrix_Core,4d757365-4d61-4747-9269-785f436f7265,rev?*%
%TF.SameCoordinates,Original*%
%TF.FileFunction,Legend,Bot*%
%TF.FilePolarity,Positive*%
%FSLAX46Y46*%
G04 Gerber Fmt 4.6, Leading zero omitted, Abs format (unit mm)*
G04 Created by KiCad (PCBNEW 8.0.0) date 2025-03-21 10:21:52*
%MOMM*%
%LPD*%
G01*
G04 APERTURE LIST*
%ADD10C,0.150000*%
%ADD11C,0.120000*%
G04 APERTURE END LIST*
D10*
X33833333Y-17654819D02*
X33833333Y-18369104D01*
X33833333Y-18369104D02*
X33880952Y-18511961D01*
X33880952Y-18511961D02*
X33976190Y-18607200D01*
X33976190Y-18607200D02*
X34119047Y-18654819D01*
X34119047Y-18654819D02*
X34214285Y-18654819D01*
X33404761Y-17750057D02*
X33357142Y-17702438D01*
X33357142Y-17702438D02*
X33261904Y-17654819D01*
X33261904Y-17654819D02*
X33023809Y-17654819D01*
X33023809Y-17654819D02*
X32928571Y-17702438D01*
X32928571Y-17702438D02*
X32880952Y-17750057D01*
X32880952Y-17750057D02*
X32833333Y-17845295D01*
X32833333Y-17845295D02*
X32833333Y-17940533D01*
X32833333Y-17940533D02*
X32880952Y-18083390D01*
X32880952Y-18083390D02*
X33452380Y-18654819D01*
X33452380Y-18654819D02*
X32833333Y-18654819D01*
D11*
%TO.C,J2*%
X28390000Y-19290000D02*
X28390000Y-23310000D01*
X28390000Y-21000000D02*
X28890000Y-21000000D01*
X28390000Y-23310000D02*
X38610000Y-23310000D01*
X28890000Y-19790000D02*
X38110000Y-19790000D01*
X28890000Y-21000000D02*
X28890000Y-19790000D01*
X29390000Y-21810000D02*
X28390000Y-21810000D01*
X29390000Y-23310000D02*
X29390000Y-21810000D01*
X36410000Y-23610000D02*
X38910000Y-23610000D01*
X37610000Y-21810000D02*
X38610000Y-21810000D01*
X37610000Y-23310000D02*
X37610000Y-21810000D01*
X38110000Y-19790000D02*
X38110000Y-21000000D01*
X38110000Y-21000000D02*
X38610000Y-21000000D01*
X38610000Y-19290000D02*
X28390000Y-19290000D01*
X38610000Y-23310000D02*
X38610000Y-19290000D01*
X38910000Y-23610000D02*
X38910000Y-21110000D01*
%TD*%
M02*
