%TF.GenerationSoftware,KiCad,Pcbnew,8.0.0*%
%TF.CreationDate,2025-03-21T10:21:52+01:00*%
%TF.ProjectId,MuseMatrix_Core,4d757365-4d61-4747-9269-785f436f7265,rev?*%
%TF.SameCoordinates,Original*%
%TF.FileFunction,Legend,Top*%
%TF.FilePolarity,Positive*%
%FSLAX46Y46*%
G04 Gerber Fmt 4.6, Leading zero omitted, Abs format (unit mm)*
G04 Created by KiCad (PCBNEW 8.0.0) date 2025-03-21 10:21:52*
%MOMM*%
%LPD*%
G01*
G04 APERTURE LIST*
%ADD10C,0.100000*%
%ADD11C,0.150000*%
%ADD12C,0.120000*%
G04 APERTURE END LIST*
D10*
X94700244Y-77666666D02*
X93985959Y-77666666D01*
X93985959Y-77666666D02*
X93843102Y-77619047D01*
X93843102Y-77619047D02*
X93747864Y-77523809D01*
X93747864Y-77523809D02*
X93700244Y-77380952D01*
X93700244Y-77380952D02*
X93700244Y-77285714D01*
X94700244Y-78619047D02*
X94700244Y-78142857D01*
X94700244Y-78142857D02*
X94224054Y-78095238D01*
X94224054Y-78095238D02*
X94271673Y-78142857D01*
X94271673Y-78142857D02*
X94319292Y-78238095D01*
X94319292Y-78238095D02*
X94319292Y-78476190D01*
X94319292Y-78476190D02*
X94271673Y-78571428D01*
X94271673Y-78571428D02*
X94224054Y-78619047D01*
X94224054Y-78619047D02*
X94128816Y-78666666D01*
X94128816Y-78666666D02*
X93890721Y-78666666D01*
X93890721Y-78666666D02*
X93795483Y-78619047D01*
X93795483Y-78619047D02*
X93747864Y-78571428D01*
X93747864Y-78571428D02*
X93700244Y-78476190D01*
X93700244Y-78476190D02*
X93700244Y-78238095D01*
X93700244Y-78238095D02*
X93747864Y-78142857D01*
X93747864Y-78142857D02*
X93795483Y-78095238D01*
D11*
X103254819Y-30333333D02*
X103969104Y-30333333D01*
X103969104Y-30333333D02*
X104111961Y-30380952D01*
X104111961Y-30380952D02*
X104207200Y-30476190D01*
X104207200Y-30476190D02*
X104254819Y-30619047D01*
X104254819Y-30619047D02*
X104254819Y-30714285D01*
X103588152Y-29428571D02*
X104254819Y-29428571D01*
X103207200Y-29666666D02*
X103921485Y-29904761D01*
X103921485Y-29904761D02*
X103921485Y-29285714D01*
X113107142Y-32954819D02*
X112773809Y-32478628D01*
X112535714Y-32954819D02*
X112535714Y-31954819D01*
X112535714Y-31954819D02*
X112916666Y-31954819D01*
X112916666Y-31954819D02*
X113011904Y-32002438D01*
X113011904Y-32002438D02*
X113059523Y-32050057D01*
X113059523Y-32050057D02*
X113107142Y-32145295D01*
X113107142Y-32145295D02*
X113107142Y-32288152D01*
X113107142Y-32288152D02*
X113059523Y-32383390D01*
X113059523Y-32383390D02*
X113011904Y-32431009D01*
X113011904Y-32431009D02*
X112916666Y-32478628D01*
X112916666Y-32478628D02*
X112535714Y-32478628D01*
X113440476Y-31954819D02*
X114059523Y-31954819D01*
X114059523Y-31954819D02*
X113726190Y-32335771D01*
X113726190Y-32335771D02*
X113869047Y-32335771D01*
X113869047Y-32335771D02*
X113964285Y-32383390D01*
X113964285Y-32383390D02*
X114011904Y-32431009D01*
X114011904Y-32431009D02*
X114059523Y-32526247D01*
X114059523Y-32526247D02*
X114059523Y-32764342D01*
X114059523Y-32764342D02*
X114011904Y-32859580D01*
X114011904Y-32859580D02*
X113964285Y-32907200D01*
X113964285Y-32907200D02*
X113869047Y-32954819D01*
X113869047Y-32954819D02*
X113583333Y-32954819D01*
X113583333Y-32954819D02*
X113488095Y-32907200D01*
X113488095Y-32907200D02*
X113440476Y-32859580D01*
X115011904Y-32954819D02*
X114440476Y-32954819D01*
X114726190Y-32954819D02*
X114726190Y-31954819D01*
X114726190Y-31954819D02*
X114630952Y-32097676D01*
X114630952Y-32097676D02*
X114535714Y-32192914D01*
X114535714Y-32192914D02*
X114440476Y-32240533D01*
X87262483Y-131995238D02*
X86786292Y-132328571D01*
X87262483Y-132566666D02*
X86262483Y-132566666D01*
X86262483Y-132566666D02*
X86262483Y-132185714D01*
X86262483Y-132185714D02*
X86310102Y-132090476D01*
X86310102Y-132090476D02*
X86357721Y-132042857D01*
X86357721Y-132042857D02*
X86452959Y-131995238D01*
X86452959Y-131995238D02*
X86595816Y-131995238D01*
X86595816Y-131995238D02*
X86691054Y-132042857D01*
X86691054Y-132042857D02*
X86738673Y-132090476D01*
X86738673Y-132090476D02*
X86786292Y-132185714D01*
X86786292Y-132185714D02*
X86786292Y-132566666D01*
X86262483Y-131709523D02*
X87262483Y-131376190D01*
X87262483Y-131376190D02*
X86262483Y-131042857D01*
X86262483Y-130233333D02*
X86262483Y-130709523D01*
X86262483Y-130709523D02*
X86738673Y-130757142D01*
X86738673Y-130757142D02*
X86691054Y-130709523D01*
X86691054Y-130709523D02*
X86643435Y-130614285D01*
X86643435Y-130614285D02*
X86643435Y-130376190D01*
X86643435Y-130376190D02*
X86691054Y-130280952D01*
X86691054Y-130280952D02*
X86738673Y-130233333D01*
X86738673Y-130233333D02*
X86833911Y-130185714D01*
X86833911Y-130185714D02*
X87072006Y-130185714D01*
X87072006Y-130185714D02*
X87167244Y-130233333D01*
X87167244Y-130233333D02*
X87214864Y-130280952D01*
X87214864Y-130280952D02*
X87262483Y-130376190D01*
X87262483Y-130376190D02*
X87262483Y-130614285D01*
X87262483Y-130614285D02*
X87214864Y-130709523D01*
X87214864Y-130709523D02*
X87167244Y-130757142D01*
X51454819Y-101166666D02*
X50978628Y-101499999D01*
X51454819Y-101738094D02*
X50454819Y-101738094D01*
X50454819Y-101738094D02*
X50454819Y-101357142D01*
X50454819Y-101357142D02*
X50502438Y-101261904D01*
X50502438Y-101261904D02*
X50550057Y-101214285D01*
X50550057Y-101214285D02*
X50645295Y-101166666D01*
X50645295Y-101166666D02*
X50788152Y-101166666D01*
X50788152Y-101166666D02*
X50883390Y-101214285D01*
X50883390Y-101214285D02*
X50931009Y-101261904D01*
X50931009Y-101261904D02*
X50978628Y-101357142D01*
X50978628Y-101357142D02*
X50978628Y-101738094D01*
X50883390Y-100595237D02*
X50835771Y-100690475D01*
X50835771Y-100690475D02*
X50788152Y-100738094D01*
X50788152Y-100738094D02*
X50692914Y-100785713D01*
X50692914Y-100785713D02*
X50645295Y-100785713D01*
X50645295Y-100785713D02*
X50550057Y-100738094D01*
X50550057Y-100738094D02*
X50502438Y-100690475D01*
X50502438Y-100690475D02*
X50454819Y-100595237D01*
X50454819Y-100595237D02*
X50454819Y-100404761D01*
X50454819Y-100404761D02*
X50502438Y-100309523D01*
X50502438Y-100309523D02*
X50550057Y-100261904D01*
X50550057Y-100261904D02*
X50645295Y-100214285D01*
X50645295Y-100214285D02*
X50692914Y-100214285D01*
X50692914Y-100214285D02*
X50788152Y-100261904D01*
X50788152Y-100261904D02*
X50835771Y-100309523D01*
X50835771Y-100309523D02*
X50883390Y-100404761D01*
X50883390Y-100404761D02*
X50883390Y-100595237D01*
X50883390Y-100595237D02*
X50931009Y-100690475D01*
X50931009Y-100690475D02*
X50978628Y-100738094D01*
X50978628Y-100738094D02*
X51073866Y-100785713D01*
X51073866Y-100785713D02*
X51264342Y-100785713D01*
X51264342Y-100785713D02*
X51359580Y-100738094D01*
X51359580Y-100738094D02*
X51407200Y-100690475D01*
X51407200Y-100690475D02*
X51454819Y-100595237D01*
X51454819Y-100595237D02*
X51454819Y-100404761D01*
X51454819Y-100404761D02*
X51407200Y-100309523D01*
X51407200Y-100309523D02*
X51359580Y-100261904D01*
X51359580Y-100261904D02*
X51264342Y-100214285D01*
X51264342Y-100214285D02*
X51073866Y-100214285D01*
X51073866Y-100214285D02*
X50978628Y-100261904D01*
X50978628Y-100261904D02*
X50931009Y-100309523D01*
X50931009Y-100309523D02*
X50883390Y-100404761D01*
X76032393Y-85850238D02*
X75984774Y-85945476D01*
X75984774Y-85945476D02*
X75889536Y-86040714D01*
X75889536Y-86040714D02*
X75746678Y-86183571D01*
X75746678Y-86183571D02*
X75699059Y-86278809D01*
X75699059Y-86278809D02*
X75699059Y-86374047D01*
X75937155Y-86326428D02*
X75889536Y-86421666D01*
X75889536Y-86421666D02*
X75794297Y-86516904D01*
X75794297Y-86516904D02*
X75603821Y-86564523D01*
X75603821Y-86564523D02*
X75270488Y-86564523D01*
X75270488Y-86564523D02*
X75080012Y-86516904D01*
X75080012Y-86516904D02*
X74984774Y-86421666D01*
X74984774Y-86421666D02*
X74937155Y-86326428D01*
X74937155Y-86326428D02*
X74937155Y-86135952D01*
X74937155Y-86135952D02*
X74984774Y-86040714D01*
X74984774Y-86040714D02*
X75080012Y-85945476D01*
X75080012Y-85945476D02*
X75270488Y-85897857D01*
X75270488Y-85897857D02*
X75603821Y-85897857D01*
X75603821Y-85897857D02*
X75794297Y-85945476D01*
X75794297Y-85945476D02*
X75889536Y-86040714D01*
X75889536Y-86040714D02*
X75937155Y-86135952D01*
X75937155Y-86135952D02*
X75937155Y-86326428D01*
X74937155Y-85040714D02*
X74937155Y-85231190D01*
X74937155Y-85231190D02*
X74984774Y-85326428D01*
X74984774Y-85326428D02*
X75032393Y-85374047D01*
X75032393Y-85374047D02*
X75175250Y-85469285D01*
X75175250Y-85469285D02*
X75365726Y-85516904D01*
X75365726Y-85516904D02*
X75746678Y-85516904D01*
X75746678Y-85516904D02*
X75841916Y-85469285D01*
X75841916Y-85469285D02*
X75889536Y-85421666D01*
X75889536Y-85421666D02*
X75937155Y-85326428D01*
X75937155Y-85326428D02*
X75937155Y-85135952D01*
X75937155Y-85135952D02*
X75889536Y-85040714D01*
X75889536Y-85040714D02*
X75841916Y-84993095D01*
X75841916Y-84993095D02*
X75746678Y-84945476D01*
X75746678Y-84945476D02*
X75508583Y-84945476D01*
X75508583Y-84945476D02*
X75413345Y-84993095D01*
X75413345Y-84993095D02*
X75365726Y-85040714D01*
X75365726Y-85040714D02*
X75318107Y-85135952D01*
X75318107Y-85135952D02*
X75318107Y-85326428D01*
X75318107Y-85326428D02*
X75365726Y-85421666D01*
X75365726Y-85421666D02*
X75413345Y-85469285D01*
X75413345Y-85469285D02*
X75508583Y-85516904D01*
X90648140Y-48004819D02*
X90648140Y-48719104D01*
X90648140Y-48719104D02*
X90600521Y-48861961D01*
X90600521Y-48861961D02*
X90505283Y-48957200D01*
X90505283Y-48957200D02*
X90362426Y-49004819D01*
X90362426Y-49004819D02*
X90267188Y-49004819D01*
X91648140Y-49004819D02*
X91076712Y-49004819D01*
X91362426Y-49004819D02*
X91362426Y-48004819D01*
X91362426Y-48004819D02*
X91267188Y-48147676D01*
X91267188Y-48147676D02*
X91171950Y-48242914D01*
X91171950Y-48242914D02*
X91076712Y-48290533D01*
X92267188Y-48004819D02*
X92362426Y-48004819D01*
X92362426Y-48004819D02*
X92457664Y-48052438D01*
X92457664Y-48052438D02*
X92505283Y-48100057D01*
X92505283Y-48100057D02*
X92552902Y-48195295D01*
X92552902Y-48195295D02*
X92600521Y-48385771D01*
X92600521Y-48385771D02*
X92600521Y-48623866D01*
X92600521Y-48623866D02*
X92552902Y-48814342D01*
X92552902Y-48814342D02*
X92505283Y-48909580D01*
X92505283Y-48909580D02*
X92457664Y-48957200D01*
X92457664Y-48957200D02*
X92362426Y-49004819D01*
X92362426Y-49004819D02*
X92267188Y-49004819D01*
X92267188Y-49004819D02*
X92171950Y-48957200D01*
X92171950Y-48957200D02*
X92124331Y-48909580D01*
X92124331Y-48909580D02*
X92076712Y-48814342D01*
X92076712Y-48814342D02*
X92029093Y-48623866D01*
X92029093Y-48623866D02*
X92029093Y-48385771D01*
X92029093Y-48385771D02*
X92076712Y-48195295D01*
X92076712Y-48195295D02*
X92124331Y-48100057D01*
X92124331Y-48100057D02*
X92171950Y-48052438D01*
X92171950Y-48052438D02*
X92267188Y-48004819D01*
X76032393Y-50850238D02*
X75984774Y-50945476D01*
X75984774Y-50945476D02*
X75889536Y-51040714D01*
X75889536Y-51040714D02*
X75746678Y-51183571D01*
X75746678Y-51183571D02*
X75699059Y-51278809D01*
X75699059Y-51278809D02*
X75699059Y-51374047D01*
X75937155Y-51326428D02*
X75889536Y-51421666D01*
X75889536Y-51421666D02*
X75794297Y-51516904D01*
X75794297Y-51516904D02*
X75603821Y-51564523D01*
X75603821Y-51564523D02*
X75270488Y-51564523D01*
X75270488Y-51564523D02*
X75080012Y-51516904D01*
X75080012Y-51516904D02*
X74984774Y-51421666D01*
X74984774Y-51421666D02*
X74937155Y-51326428D01*
X74937155Y-51326428D02*
X74937155Y-51135952D01*
X74937155Y-51135952D02*
X74984774Y-51040714D01*
X74984774Y-51040714D02*
X75080012Y-50945476D01*
X75080012Y-50945476D02*
X75270488Y-50897857D01*
X75270488Y-50897857D02*
X75603821Y-50897857D01*
X75603821Y-50897857D02*
X75794297Y-50945476D01*
X75794297Y-50945476D02*
X75889536Y-51040714D01*
X75889536Y-51040714D02*
X75937155Y-51135952D01*
X75937155Y-51135952D02*
X75937155Y-51326428D01*
X74937155Y-49993095D02*
X74937155Y-50469285D01*
X74937155Y-50469285D02*
X75413345Y-50516904D01*
X75413345Y-50516904D02*
X75365726Y-50469285D01*
X75365726Y-50469285D02*
X75318107Y-50374047D01*
X75318107Y-50374047D02*
X75318107Y-50135952D01*
X75318107Y-50135952D02*
X75365726Y-50040714D01*
X75365726Y-50040714D02*
X75413345Y-49993095D01*
X75413345Y-49993095D02*
X75508583Y-49945476D01*
X75508583Y-49945476D02*
X75746678Y-49945476D01*
X75746678Y-49945476D02*
X75841916Y-49993095D01*
X75841916Y-49993095D02*
X75889536Y-50040714D01*
X75889536Y-50040714D02*
X75937155Y-50135952D01*
X75937155Y-50135952D02*
X75937155Y-50374047D01*
X75937155Y-50374047D02*
X75889536Y-50469285D01*
X75889536Y-50469285D02*
X75841916Y-50516904D01*
X24238095Y-170754819D02*
X24238095Y-169754819D01*
X24238095Y-170231009D02*
X24809523Y-170231009D01*
X24809523Y-170754819D02*
X24809523Y-169754819D01*
X25714285Y-170088152D02*
X25714285Y-170754819D01*
X25476190Y-169707200D02*
X25238095Y-170421485D01*
X25238095Y-170421485D02*
X25857142Y-170421485D01*
X42490057Y-67825238D02*
X42442438Y-67920476D01*
X42442438Y-67920476D02*
X42347200Y-68015714D01*
X42347200Y-68015714D02*
X42204342Y-68158571D01*
X42204342Y-68158571D02*
X42156723Y-68253809D01*
X42156723Y-68253809D02*
X42156723Y-68349047D01*
X42394819Y-68301428D02*
X42347200Y-68396666D01*
X42347200Y-68396666D02*
X42251961Y-68491904D01*
X42251961Y-68491904D02*
X42061485Y-68539523D01*
X42061485Y-68539523D02*
X41728152Y-68539523D01*
X41728152Y-68539523D02*
X41537676Y-68491904D01*
X41537676Y-68491904D02*
X41442438Y-68396666D01*
X41442438Y-68396666D02*
X41394819Y-68301428D01*
X41394819Y-68301428D02*
X41394819Y-68110952D01*
X41394819Y-68110952D02*
X41442438Y-68015714D01*
X41442438Y-68015714D02*
X41537676Y-67920476D01*
X41537676Y-67920476D02*
X41728152Y-67872857D01*
X41728152Y-67872857D02*
X42061485Y-67872857D01*
X42061485Y-67872857D02*
X42251961Y-67920476D01*
X42251961Y-67920476D02*
X42347200Y-68015714D01*
X42347200Y-68015714D02*
X42394819Y-68110952D01*
X42394819Y-68110952D02*
X42394819Y-68301428D01*
X42394819Y-66920476D02*
X42394819Y-67491904D01*
X42394819Y-67206190D02*
X41394819Y-67206190D01*
X41394819Y-67206190D02*
X41537676Y-67301428D01*
X41537676Y-67301428D02*
X41632914Y-67396666D01*
X41632914Y-67396666D02*
X41680533Y-67491904D01*
X91124330Y-42154819D02*
X91124330Y-42869104D01*
X91124330Y-42869104D02*
X91076711Y-43011961D01*
X91076711Y-43011961D02*
X90981473Y-43107200D01*
X90981473Y-43107200D02*
X90838616Y-43154819D01*
X90838616Y-43154819D02*
X90743378Y-43154819D01*
X91648140Y-43154819D02*
X91838616Y-43154819D01*
X91838616Y-43154819D02*
X91933854Y-43107200D01*
X91933854Y-43107200D02*
X91981473Y-43059580D01*
X91981473Y-43059580D02*
X92076711Y-42916723D01*
X92076711Y-42916723D02*
X92124330Y-42726247D01*
X92124330Y-42726247D02*
X92124330Y-42345295D01*
X92124330Y-42345295D02*
X92076711Y-42250057D01*
X92076711Y-42250057D02*
X92029092Y-42202438D01*
X92029092Y-42202438D02*
X91933854Y-42154819D01*
X91933854Y-42154819D02*
X91743378Y-42154819D01*
X91743378Y-42154819D02*
X91648140Y-42202438D01*
X91648140Y-42202438D02*
X91600521Y-42250057D01*
X91600521Y-42250057D02*
X91552902Y-42345295D01*
X91552902Y-42345295D02*
X91552902Y-42583390D01*
X91552902Y-42583390D02*
X91600521Y-42678628D01*
X91600521Y-42678628D02*
X91648140Y-42726247D01*
X91648140Y-42726247D02*
X91743378Y-42773866D01*
X91743378Y-42773866D02*
X91933854Y-42773866D01*
X91933854Y-42773866D02*
X92029092Y-42726247D01*
X92029092Y-42726247D02*
X92076711Y-42678628D01*
X92076711Y-42678628D02*
X92124330Y-42583390D01*
D10*
X29742580Y-78190476D02*
X29028295Y-78190476D01*
X29028295Y-78190476D02*
X28885438Y-78142857D01*
X28885438Y-78142857D02*
X28790200Y-78047619D01*
X28790200Y-78047619D02*
X28742580Y-77904762D01*
X28742580Y-77904762D02*
X28742580Y-77809524D01*
X28742580Y-79190476D02*
X28742580Y-78619048D01*
X28742580Y-78904762D02*
X29742580Y-78904762D01*
X29742580Y-78904762D02*
X29599723Y-78809524D01*
X29599723Y-78809524D02*
X29504485Y-78714286D01*
X29504485Y-78714286D02*
X29456866Y-78619048D01*
X29742580Y-79523810D02*
X29742580Y-80142857D01*
X29742580Y-80142857D02*
X29361628Y-79809524D01*
X29361628Y-79809524D02*
X29361628Y-79952381D01*
X29361628Y-79952381D02*
X29314009Y-80047619D01*
X29314009Y-80047619D02*
X29266390Y-80095238D01*
X29266390Y-80095238D02*
X29171152Y-80142857D01*
X29171152Y-80142857D02*
X28933057Y-80142857D01*
X28933057Y-80142857D02*
X28837819Y-80095238D01*
X28837819Y-80095238D02*
X28790200Y-80047619D01*
X28790200Y-80047619D02*
X28742580Y-79952381D01*
X28742580Y-79952381D02*
X28742580Y-79666667D01*
X28742580Y-79666667D02*
X28790200Y-79571429D01*
X28790200Y-79571429D02*
X28837819Y-79523810D01*
D11*
X76032393Y-120850238D02*
X75984774Y-120945476D01*
X75984774Y-120945476D02*
X75889536Y-121040714D01*
X75889536Y-121040714D02*
X75746678Y-121183571D01*
X75746678Y-121183571D02*
X75699059Y-121278809D01*
X75699059Y-121278809D02*
X75699059Y-121374047D01*
X75937155Y-121326428D02*
X75889536Y-121421666D01*
X75889536Y-121421666D02*
X75794297Y-121516904D01*
X75794297Y-121516904D02*
X75603821Y-121564523D01*
X75603821Y-121564523D02*
X75270488Y-121564523D01*
X75270488Y-121564523D02*
X75080012Y-121516904D01*
X75080012Y-121516904D02*
X74984774Y-121421666D01*
X74984774Y-121421666D02*
X74937155Y-121326428D01*
X74937155Y-121326428D02*
X74937155Y-121135952D01*
X74937155Y-121135952D02*
X74984774Y-121040714D01*
X74984774Y-121040714D02*
X75080012Y-120945476D01*
X75080012Y-120945476D02*
X75270488Y-120897857D01*
X75270488Y-120897857D02*
X75603821Y-120897857D01*
X75603821Y-120897857D02*
X75794297Y-120945476D01*
X75794297Y-120945476D02*
X75889536Y-121040714D01*
X75889536Y-121040714D02*
X75937155Y-121135952D01*
X75937155Y-121135952D02*
X75937155Y-121326428D01*
X74937155Y-120564523D02*
X74937155Y-119897857D01*
X74937155Y-119897857D02*
X75937155Y-120326428D01*
X64379478Y-17319819D02*
X64046145Y-16843628D01*
X63808050Y-17319819D02*
X63808050Y-16319819D01*
X63808050Y-16319819D02*
X64189002Y-16319819D01*
X64189002Y-16319819D02*
X64284240Y-16367438D01*
X64284240Y-16367438D02*
X64331859Y-16415057D01*
X64331859Y-16415057D02*
X64379478Y-16510295D01*
X64379478Y-16510295D02*
X64379478Y-16653152D01*
X64379478Y-16653152D02*
X64331859Y-16748390D01*
X64331859Y-16748390D02*
X64284240Y-16796009D01*
X64284240Y-16796009D02*
X64189002Y-16843628D01*
X64189002Y-16843628D02*
X63808050Y-16843628D01*
X65331859Y-17319819D02*
X64760431Y-17319819D01*
X65046145Y-17319819D02*
X65046145Y-16319819D01*
X65046145Y-16319819D02*
X64950907Y-16462676D01*
X64950907Y-16462676D02*
X64855669Y-16557914D01*
X64855669Y-16557914D02*
X64760431Y-16605533D01*
X65665193Y-16319819D02*
X66331859Y-16319819D01*
X66331859Y-16319819D02*
X65903288Y-17319819D01*
D10*
X35007142Y-170107419D02*
X34673809Y-169631228D01*
X34435714Y-170107419D02*
X34435714Y-169107419D01*
X34435714Y-169107419D02*
X34816666Y-169107419D01*
X34816666Y-169107419D02*
X34911904Y-169155038D01*
X34911904Y-169155038D02*
X34959523Y-169202657D01*
X34959523Y-169202657D02*
X35007142Y-169297895D01*
X35007142Y-169297895D02*
X35007142Y-169440752D01*
X35007142Y-169440752D02*
X34959523Y-169535990D01*
X34959523Y-169535990D02*
X34911904Y-169583609D01*
X34911904Y-169583609D02*
X34816666Y-169631228D01*
X34816666Y-169631228D02*
X34435714Y-169631228D01*
X35959523Y-170107419D02*
X35388095Y-170107419D01*
X35673809Y-170107419D02*
X35673809Y-169107419D01*
X35673809Y-169107419D02*
X35578571Y-169250276D01*
X35578571Y-169250276D02*
X35483333Y-169345514D01*
X35483333Y-169345514D02*
X35388095Y-169393133D01*
X36340476Y-169202657D02*
X36388095Y-169155038D01*
X36388095Y-169155038D02*
X36483333Y-169107419D01*
X36483333Y-169107419D02*
X36721428Y-169107419D01*
X36721428Y-169107419D02*
X36816666Y-169155038D01*
X36816666Y-169155038D02*
X36864285Y-169202657D01*
X36864285Y-169202657D02*
X36911904Y-169297895D01*
X36911904Y-169297895D02*
X36911904Y-169393133D01*
X36911904Y-169393133D02*
X36864285Y-169535990D01*
X36864285Y-169535990D02*
X36292857Y-170107419D01*
X36292857Y-170107419D02*
X36911904Y-170107419D01*
D11*
X55195759Y-125254819D02*
X55195759Y-124254819D01*
X55195759Y-124731009D02*
X55767187Y-124731009D01*
X55767187Y-125254819D02*
X55767187Y-124254819D01*
X56148140Y-124254819D02*
X56814806Y-124254819D01*
X56814806Y-124254819D02*
X56386235Y-125254819D01*
X81324806Y-116784819D02*
X80991473Y-116308628D01*
X80753378Y-116784819D02*
X80753378Y-115784819D01*
X80753378Y-115784819D02*
X81134330Y-115784819D01*
X81134330Y-115784819D02*
X81229568Y-115832438D01*
X81229568Y-115832438D02*
X81277187Y-115880057D01*
X81277187Y-115880057D02*
X81324806Y-115975295D01*
X81324806Y-115975295D02*
X81324806Y-116118152D01*
X81324806Y-116118152D02*
X81277187Y-116213390D01*
X81277187Y-116213390D02*
X81229568Y-116261009D01*
X81229568Y-116261009D02*
X81134330Y-116308628D01*
X81134330Y-116308628D02*
X80753378Y-116308628D01*
X81705759Y-115880057D02*
X81753378Y-115832438D01*
X81753378Y-115832438D02*
X81848616Y-115784819D01*
X81848616Y-115784819D02*
X82086711Y-115784819D01*
X82086711Y-115784819D02*
X82181949Y-115832438D01*
X82181949Y-115832438D02*
X82229568Y-115880057D01*
X82229568Y-115880057D02*
X82277187Y-115975295D01*
X82277187Y-115975295D02*
X82277187Y-116070533D01*
X82277187Y-116070533D02*
X82229568Y-116213390D01*
X82229568Y-116213390D02*
X81658140Y-116784819D01*
X81658140Y-116784819D02*
X82277187Y-116784819D01*
X82848616Y-116213390D02*
X82753378Y-116165771D01*
X82753378Y-116165771D02*
X82705759Y-116118152D01*
X82705759Y-116118152D02*
X82658140Y-116022914D01*
X82658140Y-116022914D02*
X82658140Y-115975295D01*
X82658140Y-115975295D02*
X82705759Y-115880057D01*
X82705759Y-115880057D02*
X82753378Y-115832438D01*
X82753378Y-115832438D02*
X82848616Y-115784819D01*
X82848616Y-115784819D02*
X83039092Y-115784819D01*
X83039092Y-115784819D02*
X83134330Y-115832438D01*
X83134330Y-115832438D02*
X83181949Y-115880057D01*
X83181949Y-115880057D02*
X83229568Y-115975295D01*
X83229568Y-115975295D02*
X83229568Y-116022914D01*
X83229568Y-116022914D02*
X83181949Y-116118152D01*
X83181949Y-116118152D02*
X83134330Y-116165771D01*
X83134330Y-116165771D02*
X83039092Y-116213390D01*
X83039092Y-116213390D02*
X82848616Y-116213390D01*
X82848616Y-116213390D02*
X82753378Y-116261009D01*
X82753378Y-116261009D02*
X82705759Y-116308628D01*
X82705759Y-116308628D02*
X82658140Y-116403866D01*
X82658140Y-116403866D02*
X82658140Y-116594342D01*
X82658140Y-116594342D02*
X82705759Y-116689580D01*
X82705759Y-116689580D02*
X82753378Y-116737200D01*
X82753378Y-116737200D02*
X82848616Y-116784819D01*
X82848616Y-116784819D02*
X83039092Y-116784819D01*
X83039092Y-116784819D02*
X83134330Y-116737200D01*
X83134330Y-116737200D02*
X83181949Y-116689580D01*
X83181949Y-116689580D02*
X83229568Y-116594342D01*
X83229568Y-116594342D02*
X83229568Y-116403866D01*
X83229568Y-116403866D02*
X83181949Y-116308628D01*
X83181949Y-116308628D02*
X83134330Y-116261009D01*
X83134330Y-116261009D02*
X83039092Y-116213390D01*
X80834806Y-46794819D02*
X80501473Y-46318628D01*
X80263378Y-46794819D02*
X80263378Y-45794819D01*
X80263378Y-45794819D02*
X80644330Y-45794819D01*
X80644330Y-45794819D02*
X80739568Y-45842438D01*
X80739568Y-45842438D02*
X80787187Y-45890057D01*
X80787187Y-45890057D02*
X80834806Y-45985295D01*
X80834806Y-45985295D02*
X80834806Y-46128152D01*
X80834806Y-46128152D02*
X80787187Y-46223390D01*
X80787187Y-46223390D02*
X80739568Y-46271009D01*
X80739568Y-46271009D02*
X80644330Y-46318628D01*
X80644330Y-46318628D02*
X80263378Y-46318628D01*
X81215759Y-45890057D02*
X81263378Y-45842438D01*
X81263378Y-45842438D02*
X81358616Y-45794819D01*
X81358616Y-45794819D02*
X81596711Y-45794819D01*
X81596711Y-45794819D02*
X81691949Y-45842438D01*
X81691949Y-45842438D02*
X81739568Y-45890057D01*
X81739568Y-45890057D02*
X81787187Y-45985295D01*
X81787187Y-45985295D02*
X81787187Y-46080533D01*
X81787187Y-46080533D02*
X81739568Y-46223390D01*
X81739568Y-46223390D02*
X81168140Y-46794819D01*
X81168140Y-46794819D02*
X81787187Y-46794819D01*
X82644330Y-45794819D02*
X82453854Y-45794819D01*
X82453854Y-45794819D02*
X82358616Y-45842438D01*
X82358616Y-45842438D02*
X82310997Y-45890057D01*
X82310997Y-45890057D02*
X82215759Y-46032914D01*
X82215759Y-46032914D02*
X82168140Y-46223390D01*
X82168140Y-46223390D02*
X82168140Y-46604342D01*
X82168140Y-46604342D02*
X82215759Y-46699580D01*
X82215759Y-46699580D02*
X82263378Y-46747200D01*
X82263378Y-46747200D02*
X82358616Y-46794819D01*
X82358616Y-46794819D02*
X82549092Y-46794819D01*
X82549092Y-46794819D02*
X82644330Y-46747200D01*
X82644330Y-46747200D02*
X82691949Y-46699580D01*
X82691949Y-46699580D02*
X82739568Y-46604342D01*
X82739568Y-46604342D02*
X82739568Y-46366247D01*
X82739568Y-46366247D02*
X82691949Y-46271009D01*
X82691949Y-46271009D02*
X82644330Y-46223390D01*
X82644330Y-46223390D02*
X82549092Y-46175771D01*
X82549092Y-46175771D02*
X82358616Y-46175771D01*
X82358616Y-46175771D02*
X82263378Y-46223390D01*
X82263378Y-46223390D02*
X82215759Y-46271009D01*
X82215759Y-46271009D02*
X82168140Y-46366247D01*
X38857142Y-170454819D02*
X38523809Y-169978628D01*
X38285714Y-170454819D02*
X38285714Y-169454819D01*
X38285714Y-169454819D02*
X38666666Y-169454819D01*
X38666666Y-169454819D02*
X38761904Y-169502438D01*
X38761904Y-169502438D02*
X38809523Y-169550057D01*
X38809523Y-169550057D02*
X38857142Y-169645295D01*
X38857142Y-169645295D02*
X38857142Y-169788152D01*
X38857142Y-169788152D02*
X38809523Y-169883390D01*
X38809523Y-169883390D02*
X38761904Y-169931009D01*
X38761904Y-169931009D02*
X38666666Y-169978628D01*
X38666666Y-169978628D02*
X38285714Y-169978628D01*
X39809523Y-170454819D02*
X39238095Y-170454819D01*
X39523809Y-170454819D02*
X39523809Y-169454819D01*
X39523809Y-169454819D02*
X39428571Y-169597676D01*
X39428571Y-169597676D02*
X39333333Y-169692914D01*
X39333333Y-169692914D02*
X39238095Y-169740533D01*
X40666666Y-169788152D02*
X40666666Y-170454819D01*
X40428571Y-169407200D02*
X40190476Y-170121485D01*
X40190476Y-170121485D02*
X40809523Y-170121485D01*
X80814806Y-81794819D02*
X80481473Y-81318628D01*
X80243378Y-81794819D02*
X80243378Y-80794819D01*
X80243378Y-80794819D02*
X80624330Y-80794819D01*
X80624330Y-80794819D02*
X80719568Y-80842438D01*
X80719568Y-80842438D02*
X80767187Y-80890057D01*
X80767187Y-80890057D02*
X80814806Y-80985295D01*
X80814806Y-80985295D02*
X80814806Y-81128152D01*
X80814806Y-81128152D02*
X80767187Y-81223390D01*
X80767187Y-81223390D02*
X80719568Y-81271009D01*
X80719568Y-81271009D02*
X80624330Y-81318628D01*
X80624330Y-81318628D02*
X80243378Y-81318628D01*
X81195759Y-80890057D02*
X81243378Y-80842438D01*
X81243378Y-80842438D02*
X81338616Y-80794819D01*
X81338616Y-80794819D02*
X81576711Y-80794819D01*
X81576711Y-80794819D02*
X81671949Y-80842438D01*
X81671949Y-80842438D02*
X81719568Y-80890057D01*
X81719568Y-80890057D02*
X81767187Y-80985295D01*
X81767187Y-80985295D02*
X81767187Y-81080533D01*
X81767187Y-81080533D02*
X81719568Y-81223390D01*
X81719568Y-81223390D02*
X81148140Y-81794819D01*
X81148140Y-81794819D02*
X81767187Y-81794819D01*
X82100521Y-80794819D02*
X82767187Y-80794819D01*
X82767187Y-80794819D02*
X82338616Y-81794819D01*
X90648140Y-59704819D02*
X90648140Y-60419104D01*
X90648140Y-60419104D02*
X90600521Y-60561961D01*
X90600521Y-60561961D02*
X90505283Y-60657200D01*
X90505283Y-60657200D02*
X90362426Y-60704819D01*
X90362426Y-60704819D02*
X90267188Y-60704819D01*
X91648140Y-60704819D02*
X91076712Y-60704819D01*
X91362426Y-60704819D02*
X91362426Y-59704819D01*
X91362426Y-59704819D02*
X91267188Y-59847676D01*
X91267188Y-59847676D02*
X91171950Y-59942914D01*
X91171950Y-59942914D02*
X91076712Y-59990533D01*
X92029093Y-59800057D02*
X92076712Y-59752438D01*
X92076712Y-59752438D02*
X92171950Y-59704819D01*
X92171950Y-59704819D02*
X92410045Y-59704819D01*
X92410045Y-59704819D02*
X92505283Y-59752438D01*
X92505283Y-59752438D02*
X92552902Y-59800057D01*
X92552902Y-59800057D02*
X92600521Y-59895295D01*
X92600521Y-59895295D02*
X92600521Y-59990533D01*
X92600521Y-59990533D02*
X92552902Y-60133390D01*
X92552902Y-60133390D02*
X91981474Y-60704819D01*
X91981474Y-60704819D02*
X92600521Y-60704819D01*
X91124330Y-36304819D02*
X91124330Y-37019104D01*
X91124330Y-37019104D02*
X91076711Y-37161961D01*
X91076711Y-37161961D02*
X90981473Y-37257200D01*
X90981473Y-37257200D02*
X90838616Y-37304819D01*
X90838616Y-37304819D02*
X90743378Y-37304819D01*
X91743378Y-36733390D02*
X91648140Y-36685771D01*
X91648140Y-36685771D02*
X91600521Y-36638152D01*
X91600521Y-36638152D02*
X91552902Y-36542914D01*
X91552902Y-36542914D02*
X91552902Y-36495295D01*
X91552902Y-36495295D02*
X91600521Y-36400057D01*
X91600521Y-36400057D02*
X91648140Y-36352438D01*
X91648140Y-36352438D02*
X91743378Y-36304819D01*
X91743378Y-36304819D02*
X91933854Y-36304819D01*
X91933854Y-36304819D02*
X92029092Y-36352438D01*
X92029092Y-36352438D02*
X92076711Y-36400057D01*
X92076711Y-36400057D02*
X92124330Y-36495295D01*
X92124330Y-36495295D02*
X92124330Y-36542914D01*
X92124330Y-36542914D02*
X92076711Y-36638152D01*
X92076711Y-36638152D02*
X92029092Y-36685771D01*
X92029092Y-36685771D02*
X91933854Y-36733390D01*
X91933854Y-36733390D02*
X91743378Y-36733390D01*
X91743378Y-36733390D02*
X91648140Y-36781009D01*
X91648140Y-36781009D02*
X91600521Y-36828628D01*
X91600521Y-36828628D02*
X91552902Y-36923866D01*
X91552902Y-36923866D02*
X91552902Y-37114342D01*
X91552902Y-37114342D02*
X91600521Y-37209580D01*
X91600521Y-37209580D02*
X91648140Y-37257200D01*
X91648140Y-37257200D02*
X91743378Y-37304819D01*
X91743378Y-37304819D02*
X91933854Y-37304819D01*
X91933854Y-37304819D02*
X92029092Y-37257200D01*
X92029092Y-37257200D02*
X92076711Y-37209580D01*
X92076711Y-37209580D02*
X92124330Y-37114342D01*
X92124330Y-37114342D02*
X92124330Y-36923866D01*
X92124330Y-36923866D02*
X92076711Y-36828628D01*
X92076711Y-36828628D02*
X92029092Y-36781009D01*
X92029092Y-36781009D02*
X91933854Y-36733390D01*
X122754819Y-22509523D02*
X123469104Y-22509523D01*
X123469104Y-22509523D02*
X123611961Y-22557142D01*
X123611961Y-22557142D02*
X123707200Y-22652380D01*
X123707200Y-22652380D02*
X123754819Y-22795237D01*
X123754819Y-22795237D02*
X123754819Y-22890475D01*
X123754819Y-21509523D02*
X123754819Y-22080951D01*
X123754819Y-21795237D02*
X122754819Y-21795237D01*
X122754819Y-21795237D02*
X122897676Y-21890475D01*
X122897676Y-21890475D02*
X122992914Y-21985713D01*
X122992914Y-21985713D02*
X123040533Y-22080951D01*
X123088152Y-20652380D02*
X123754819Y-20652380D01*
X122707200Y-20890475D02*
X123421485Y-21128570D01*
X123421485Y-21128570D02*
X123421485Y-20509523D01*
X95304819Y-84261904D02*
X96114342Y-84261904D01*
X96114342Y-84261904D02*
X96209580Y-84214285D01*
X96209580Y-84214285D02*
X96257200Y-84166666D01*
X96257200Y-84166666D02*
X96304819Y-84071428D01*
X96304819Y-84071428D02*
X96304819Y-83880952D01*
X96304819Y-83880952D02*
X96257200Y-83785714D01*
X96257200Y-83785714D02*
X96209580Y-83738095D01*
X96209580Y-83738095D02*
X96114342Y-83690476D01*
X96114342Y-83690476D02*
X95304819Y-83690476D01*
X95304819Y-83309523D02*
X95304819Y-82690476D01*
X95304819Y-82690476D02*
X95685771Y-83023809D01*
X95685771Y-83023809D02*
X95685771Y-82880952D01*
X95685771Y-82880952D02*
X95733390Y-82785714D01*
X95733390Y-82785714D02*
X95781009Y-82738095D01*
X95781009Y-82738095D02*
X95876247Y-82690476D01*
X95876247Y-82690476D02*
X96114342Y-82690476D01*
X96114342Y-82690476D02*
X96209580Y-82738095D01*
X96209580Y-82738095D02*
X96257200Y-82785714D01*
X96257200Y-82785714D02*
X96304819Y-82880952D01*
X96304819Y-82880952D02*
X96304819Y-83166666D01*
X96304819Y-83166666D02*
X96257200Y-83261904D01*
X96257200Y-83261904D02*
X96209580Y-83309523D01*
X27333333Y-70454819D02*
X27000000Y-69978628D01*
X26761905Y-70454819D02*
X26761905Y-69454819D01*
X26761905Y-69454819D02*
X27142857Y-69454819D01*
X27142857Y-69454819D02*
X27238095Y-69502438D01*
X27238095Y-69502438D02*
X27285714Y-69550057D01*
X27285714Y-69550057D02*
X27333333Y-69645295D01*
X27333333Y-69645295D02*
X27333333Y-69788152D01*
X27333333Y-69788152D02*
X27285714Y-69883390D01*
X27285714Y-69883390D02*
X27238095Y-69931009D01*
X27238095Y-69931009D02*
X27142857Y-69978628D01*
X27142857Y-69978628D02*
X26761905Y-69978628D01*
X28238095Y-69454819D02*
X27761905Y-69454819D01*
X27761905Y-69454819D02*
X27714286Y-69931009D01*
X27714286Y-69931009D02*
X27761905Y-69883390D01*
X27761905Y-69883390D02*
X27857143Y-69835771D01*
X27857143Y-69835771D02*
X28095238Y-69835771D01*
X28095238Y-69835771D02*
X28190476Y-69883390D01*
X28190476Y-69883390D02*
X28238095Y-69931009D01*
X28238095Y-69931009D02*
X28285714Y-70026247D01*
X28285714Y-70026247D02*
X28285714Y-70264342D01*
X28285714Y-70264342D02*
X28238095Y-70359580D01*
X28238095Y-70359580D02*
X28190476Y-70407200D01*
X28190476Y-70407200D02*
X28095238Y-70454819D01*
X28095238Y-70454819D02*
X27857143Y-70454819D01*
X27857143Y-70454819D02*
X27761905Y-70407200D01*
X27761905Y-70407200D02*
X27714286Y-70359580D01*
X87262483Y-162895238D02*
X86786292Y-163228571D01*
X87262483Y-163466666D02*
X86262483Y-163466666D01*
X86262483Y-163466666D02*
X86262483Y-163085714D01*
X86262483Y-163085714D02*
X86310102Y-162990476D01*
X86310102Y-162990476D02*
X86357721Y-162942857D01*
X86357721Y-162942857D02*
X86452959Y-162895238D01*
X86452959Y-162895238D02*
X86595816Y-162895238D01*
X86595816Y-162895238D02*
X86691054Y-162942857D01*
X86691054Y-162942857D02*
X86738673Y-162990476D01*
X86738673Y-162990476D02*
X86786292Y-163085714D01*
X86786292Y-163085714D02*
X86786292Y-163466666D01*
X86262483Y-162609523D02*
X87262483Y-162276190D01*
X87262483Y-162276190D02*
X86262483Y-161942857D01*
X87262483Y-161085714D02*
X87262483Y-161657142D01*
X87262483Y-161371428D02*
X86262483Y-161371428D01*
X86262483Y-161371428D02*
X86405340Y-161466666D01*
X86405340Y-161466666D02*
X86500578Y-161561904D01*
X86500578Y-161561904D02*
X86548197Y-161657142D01*
X38877142Y-135794819D02*
X38543809Y-135318628D01*
X38305714Y-135794819D02*
X38305714Y-134794819D01*
X38305714Y-134794819D02*
X38686666Y-134794819D01*
X38686666Y-134794819D02*
X38781904Y-134842438D01*
X38781904Y-134842438D02*
X38829523Y-134890057D01*
X38829523Y-134890057D02*
X38877142Y-134985295D01*
X38877142Y-134985295D02*
X38877142Y-135128152D01*
X38877142Y-135128152D02*
X38829523Y-135223390D01*
X38829523Y-135223390D02*
X38781904Y-135271009D01*
X38781904Y-135271009D02*
X38686666Y-135318628D01*
X38686666Y-135318628D02*
X38305714Y-135318628D01*
X39829523Y-135794819D02*
X39258095Y-135794819D01*
X39543809Y-135794819D02*
X39543809Y-134794819D01*
X39543809Y-134794819D02*
X39448571Y-134937676D01*
X39448571Y-134937676D02*
X39353333Y-135032914D01*
X39353333Y-135032914D02*
X39258095Y-135080533D01*
X40162857Y-134794819D02*
X40781904Y-134794819D01*
X40781904Y-134794819D02*
X40448571Y-135175771D01*
X40448571Y-135175771D02*
X40591428Y-135175771D01*
X40591428Y-135175771D02*
X40686666Y-135223390D01*
X40686666Y-135223390D02*
X40734285Y-135271009D01*
X40734285Y-135271009D02*
X40781904Y-135366247D01*
X40781904Y-135366247D02*
X40781904Y-135604342D01*
X40781904Y-135604342D02*
X40734285Y-135699580D01*
X40734285Y-135699580D02*
X40686666Y-135747200D01*
X40686666Y-135747200D02*
X40591428Y-135794819D01*
X40591428Y-135794819D02*
X40305714Y-135794819D01*
X40305714Y-135794819D02*
X40210476Y-135747200D01*
X40210476Y-135747200D02*
X40162857Y-135699580D01*
X41990057Y-172825238D02*
X41942438Y-172920476D01*
X41942438Y-172920476D02*
X41847200Y-173015714D01*
X41847200Y-173015714D02*
X41704342Y-173158571D01*
X41704342Y-173158571D02*
X41656723Y-173253809D01*
X41656723Y-173253809D02*
X41656723Y-173349047D01*
X41894819Y-173301428D02*
X41847200Y-173396666D01*
X41847200Y-173396666D02*
X41751961Y-173491904D01*
X41751961Y-173491904D02*
X41561485Y-173539523D01*
X41561485Y-173539523D02*
X41228152Y-173539523D01*
X41228152Y-173539523D02*
X41037676Y-173491904D01*
X41037676Y-173491904D02*
X40942438Y-173396666D01*
X40942438Y-173396666D02*
X40894819Y-173301428D01*
X40894819Y-173301428D02*
X40894819Y-173110952D01*
X40894819Y-173110952D02*
X40942438Y-173015714D01*
X40942438Y-173015714D02*
X41037676Y-172920476D01*
X41037676Y-172920476D02*
X41228152Y-172872857D01*
X41228152Y-172872857D02*
X41561485Y-172872857D01*
X41561485Y-172872857D02*
X41751961Y-172920476D01*
X41751961Y-172920476D02*
X41847200Y-173015714D01*
X41847200Y-173015714D02*
X41894819Y-173110952D01*
X41894819Y-173110952D02*
X41894819Y-173301428D01*
X41228152Y-172015714D02*
X41894819Y-172015714D01*
X40847200Y-172253809D02*
X41561485Y-172491904D01*
X41561485Y-172491904D02*
X41561485Y-171872857D01*
X90648140Y-53854819D02*
X90648140Y-54569104D01*
X90648140Y-54569104D02*
X90600521Y-54711961D01*
X90600521Y-54711961D02*
X90505283Y-54807200D01*
X90505283Y-54807200D02*
X90362426Y-54854819D01*
X90362426Y-54854819D02*
X90267188Y-54854819D01*
X91648140Y-54854819D02*
X91076712Y-54854819D01*
X91362426Y-54854819D02*
X91362426Y-53854819D01*
X91362426Y-53854819D02*
X91267188Y-53997676D01*
X91267188Y-53997676D02*
X91171950Y-54092914D01*
X91171950Y-54092914D02*
X91076712Y-54140533D01*
X92600521Y-54854819D02*
X92029093Y-54854819D01*
X92314807Y-54854819D02*
X92314807Y-53854819D01*
X92314807Y-53854819D02*
X92219569Y-53997676D01*
X92219569Y-53997676D02*
X92124331Y-54092914D01*
X92124331Y-54092914D02*
X92029093Y-54140533D01*
X72899478Y-83819819D02*
X72566145Y-83343628D01*
X72328050Y-83819819D02*
X72328050Y-82819819D01*
X72328050Y-82819819D02*
X72709002Y-82819819D01*
X72709002Y-82819819D02*
X72804240Y-82867438D01*
X72804240Y-82867438D02*
X72851859Y-82915057D01*
X72851859Y-82915057D02*
X72899478Y-83010295D01*
X72899478Y-83010295D02*
X72899478Y-83153152D01*
X72899478Y-83153152D02*
X72851859Y-83248390D01*
X72851859Y-83248390D02*
X72804240Y-83296009D01*
X72804240Y-83296009D02*
X72709002Y-83343628D01*
X72709002Y-83343628D02*
X72328050Y-83343628D01*
X73280431Y-82915057D02*
X73328050Y-82867438D01*
X73328050Y-82867438D02*
X73423288Y-82819819D01*
X73423288Y-82819819D02*
X73661383Y-82819819D01*
X73661383Y-82819819D02*
X73756621Y-82867438D01*
X73756621Y-82867438D02*
X73804240Y-82915057D01*
X73804240Y-82915057D02*
X73851859Y-83010295D01*
X73851859Y-83010295D02*
X73851859Y-83105533D01*
X73851859Y-83105533D02*
X73804240Y-83248390D01*
X73804240Y-83248390D02*
X73232812Y-83819819D01*
X73232812Y-83819819D02*
X73851859Y-83819819D01*
X74709002Y-83153152D02*
X74709002Y-83819819D01*
X74470907Y-82772200D02*
X74232812Y-83486485D01*
X74232812Y-83486485D02*
X74851859Y-83486485D01*
X80195759Y-125254819D02*
X80195759Y-124254819D01*
X80195759Y-124731009D02*
X80767187Y-124731009D01*
X80767187Y-125254819D02*
X80767187Y-124254819D01*
X81386235Y-124683390D02*
X81290997Y-124635771D01*
X81290997Y-124635771D02*
X81243378Y-124588152D01*
X81243378Y-124588152D02*
X81195759Y-124492914D01*
X81195759Y-124492914D02*
X81195759Y-124445295D01*
X81195759Y-124445295D02*
X81243378Y-124350057D01*
X81243378Y-124350057D02*
X81290997Y-124302438D01*
X81290997Y-124302438D02*
X81386235Y-124254819D01*
X81386235Y-124254819D02*
X81576711Y-124254819D01*
X81576711Y-124254819D02*
X81671949Y-124302438D01*
X81671949Y-124302438D02*
X81719568Y-124350057D01*
X81719568Y-124350057D02*
X81767187Y-124445295D01*
X81767187Y-124445295D02*
X81767187Y-124492914D01*
X81767187Y-124492914D02*
X81719568Y-124588152D01*
X81719568Y-124588152D02*
X81671949Y-124635771D01*
X81671949Y-124635771D02*
X81576711Y-124683390D01*
X81576711Y-124683390D02*
X81386235Y-124683390D01*
X81386235Y-124683390D02*
X81290997Y-124731009D01*
X81290997Y-124731009D02*
X81243378Y-124778628D01*
X81243378Y-124778628D02*
X81195759Y-124873866D01*
X81195759Y-124873866D02*
X81195759Y-125064342D01*
X81195759Y-125064342D02*
X81243378Y-125159580D01*
X81243378Y-125159580D02*
X81290997Y-125207200D01*
X81290997Y-125207200D02*
X81386235Y-125254819D01*
X81386235Y-125254819D02*
X81576711Y-125254819D01*
X81576711Y-125254819D02*
X81671949Y-125207200D01*
X81671949Y-125207200D02*
X81719568Y-125159580D01*
X81719568Y-125159580D02*
X81767187Y-125064342D01*
X81767187Y-125064342D02*
X81767187Y-124873866D01*
X81767187Y-124873866D02*
X81719568Y-124778628D01*
X81719568Y-124778628D02*
X81671949Y-124731009D01*
X81671949Y-124731009D02*
X81576711Y-124683390D01*
X31333333Y-104294819D02*
X31000000Y-103818628D01*
X30761905Y-104294819D02*
X30761905Y-103294819D01*
X30761905Y-103294819D02*
X31142857Y-103294819D01*
X31142857Y-103294819D02*
X31238095Y-103342438D01*
X31238095Y-103342438D02*
X31285714Y-103390057D01*
X31285714Y-103390057D02*
X31333333Y-103485295D01*
X31333333Y-103485295D02*
X31333333Y-103628152D01*
X31333333Y-103628152D02*
X31285714Y-103723390D01*
X31285714Y-103723390D02*
X31238095Y-103771009D01*
X31238095Y-103771009D02*
X31142857Y-103818628D01*
X31142857Y-103818628D02*
X30761905Y-103818628D01*
X31809524Y-104294819D02*
X32000000Y-104294819D01*
X32000000Y-104294819D02*
X32095238Y-104247200D01*
X32095238Y-104247200D02*
X32142857Y-104199580D01*
X32142857Y-104199580D02*
X32238095Y-104056723D01*
X32238095Y-104056723D02*
X32285714Y-103866247D01*
X32285714Y-103866247D02*
X32285714Y-103485295D01*
X32285714Y-103485295D02*
X32238095Y-103390057D01*
X32238095Y-103390057D02*
X32190476Y-103342438D01*
X32190476Y-103342438D02*
X32095238Y-103294819D01*
X32095238Y-103294819D02*
X31904762Y-103294819D01*
X31904762Y-103294819D02*
X31809524Y-103342438D01*
X31809524Y-103342438D02*
X31761905Y-103390057D01*
X31761905Y-103390057D02*
X31714286Y-103485295D01*
X31714286Y-103485295D02*
X31714286Y-103723390D01*
X31714286Y-103723390D02*
X31761905Y-103818628D01*
X31761905Y-103818628D02*
X31809524Y-103866247D01*
X31809524Y-103866247D02*
X31904762Y-103913866D01*
X31904762Y-103913866D02*
X32095238Y-103913866D01*
X32095238Y-103913866D02*
X32190476Y-103866247D01*
X32190476Y-103866247D02*
X32238095Y-103818628D01*
X32238095Y-103818628D02*
X32285714Y-103723390D01*
X101612483Y-147445238D02*
X101136292Y-147778571D01*
X101612483Y-148016666D02*
X100612483Y-148016666D01*
X100612483Y-148016666D02*
X100612483Y-147635714D01*
X100612483Y-147635714D02*
X100660102Y-147540476D01*
X100660102Y-147540476D02*
X100707721Y-147492857D01*
X100707721Y-147492857D02*
X100802959Y-147445238D01*
X100802959Y-147445238D02*
X100945816Y-147445238D01*
X100945816Y-147445238D02*
X101041054Y-147492857D01*
X101041054Y-147492857D02*
X101088673Y-147540476D01*
X101088673Y-147540476D02*
X101136292Y-147635714D01*
X101136292Y-147635714D02*
X101136292Y-148016666D01*
X100612483Y-147159523D02*
X101612483Y-146826190D01*
X101612483Y-146826190D02*
X100612483Y-146492857D01*
X100945816Y-145730952D02*
X101612483Y-145730952D01*
X100564864Y-145969047D02*
X101279149Y-146207142D01*
X101279149Y-146207142D02*
X101279149Y-145588095D01*
X100263095Y-35229819D02*
X100263095Y-36039342D01*
X100263095Y-36039342D02*
X100310714Y-36134580D01*
X100310714Y-36134580D02*
X100358333Y-36182200D01*
X100358333Y-36182200D02*
X100453571Y-36229819D01*
X100453571Y-36229819D02*
X100644047Y-36229819D01*
X100644047Y-36229819D02*
X100739285Y-36182200D01*
X100739285Y-36182200D02*
X100786904Y-36134580D01*
X100786904Y-36134580D02*
X100834523Y-36039342D01*
X100834523Y-36039342D02*
X100834523Y-35229819D01*
X101263095Y-35325057D02*
X101310714Y-35277438D01*
X101310714Y-35277438D02*
X101405952Y-35229819D01*
X101405952Y-35229819D02*
X101644047Y-35229819D01*
X101644047Y-35229819D02*
X101739285Y-35277438D01*
X101739285Y-35277438D02*
X101786904Y-35325057D01*
X101786904Y-35325057D02*
X101834523Y-35420295D01*
X101834523Y-35420295D02*
X101834523Y-35515533D01*
X101834523Y-35515533D02*
X101786904Y-35658390D01*
X101786904Y-35658390D02*
X101215476Y-36229819D01*
X101215476Y-36229819D02*
X101834523Y-36229819D01*
X34991905Y-137684819D02*
X34991905Y-136684819D01*
X34991905Y-136684819D02*
X35230000Y-136684819D01*
X35230000Y-136684819D02*
X35372857Y-136732438D01*
X35372857Y-136732438D02*
X35468095Y-136827676D01*
X35468095Y-136827676D02*
X35515714Y-136922914D01*
X35515714Y-136922914D02*
X35563333Y-137113390D01*
X35563333Y-137113390D02*
X35563333Y-137256247D01*
X35563333Y-137256247D02*
X35515714Y-137446723D01*
X35515714Y-137446723D02*
X35468095Y-137541961D01*
X35468095Y-137541961D02*
X35372857Y-137637200D01*
X35372857Y-137637200D02*
X35230000Y-137684819D01*
X35230000Y-137684819D02*
X34991905Y-137684819D01*
X36420476Y-137018152D02*
X36420476Y-137684819D01*
X36182381Y-136637200D02*
X35944286Y-137351485D01*
X35944286Y-137351485D02*
X36563333Y-137351485D01*
X49238095Y-14754819D02*
X49238095Y-13754819D01*
X49238095Y-14231009D02*
X49809523Y-14231009D01*
X49809523Y-14754819D02*
X49809523Y-13754819D01*
X50238095Y-13850057D02*
X50285714Y-13802438D01*
X50285714Y-13802438D02*
X50380952Y-13754819D01*
X50380952Y-13754819D02*
X50619047Y-13754819D01*
X50619047Y-13754819D02*
X50714285Y-13802438D01*
X50714285Y-13802438D02*
X50761904Y-13850057D01*
X50761904Y-13850057D02*
X50809523Y-13945295D01*
X50809523Y-13945295D02*
X50809523Y-14040533D01*
X50809523Y-14040533D02*
X50761904Y-14183390D01*
X50761904Y-14183390D02*
X50190476Y-14754819D01*
X50190476Y-14754819D02*
X50809523Y-14754819D01*
X38904761Y-28550057D02*
X38809523Y-28502438D01*
X38809523Y-28502438D02*
X38714285Y-28407200D01*
X38714285Y-28407200D02*
X38571428Y-28264342D01*
X38571428Y-28264342D02*
X38476190Y-28216723D01*
X38476190Y-28216723D02*
X38380952Y-28216723D01*
X38428571Y-28454819D02*
X38333333Y-28407200D01*
X38333333Y-28407200D02*
X38238095Y-28311961D01*
X38238095Y-28311961D02*
X38190476Y-28121485D01*
X38190476Y-28121485D02*
X38190476Y-27788152D01*
X38190476Y-27788152D02*
X38238095Y-27597676D01*
X38238095Y-27597676D02*
X38333333Y-27502438D01*
X38333333Y-27502438D02*
X38428571Y-27454819D01*
X38428571Y-27454819D02*
X38619047Y-27454819D01*
X38619047Y-27454819D02*
X38714285Y-27502438D01*
X38714285Y-27502438D02*
X38809523Y-27597676D01*
X38809523Y-27597676D02*
X38857142Y-27788152D01*
X38857142Y-27788152D02*
X38857142Y-28121485D01*
X38857142Y-28121485D02*
X38809523Y-28311961D01*
X38809523Y-28311961D02*
X38714285Y-28407200D01*
X38714285Y-28407200D02*
X38619047Y-28454819D01*
X38619047Y-28454819D02*
X38428571Y-28454819D01*
X39428571Y-27883390D02*
X39333333Y-27835771D01*
X39333333Y-27835771D02*
X39285714Y-27788152D01*
X39285714Y-27788152D02*
X39238095Y-27692914D01*
X39238095Y-27692914D02*
X39238095Y-27645295D01*
X39238095Y-27645295D02*
X39285714Y-27550057D01*
X39285714Y-27550057D02*
X39333333Y-27502438D01*
X39333333Y-27502438D02*
X39428571Y-27454819D01*
X39428571Y-27454819D02*
X39619047Y-27454819D01*
X39619047Y-27454819D02*
X39714285Y-27502438D01*
X39714285Y-27502438D02*
X39761904Y-27550057D01*
X39761904Y-27550057D02*
X39809523Y-27645295D01*
X39809523Y-27645295D02*
X39809523Y-27692914D01*
X39809523Y-27692914D02*
X39761904Y-27788152D01*
X39761904Y-27788152D02*
X39714285Y-27835771D01*
X39714285Y-27835771D02*
X39619047Y-27883390D01*
X39619047Y-27883390D02*
X39428571Y-27883390D01*
X39428571Y-27883390D02*
X39333333Y-27931009D01*
X39333333Y-27931009D02*
X39285714Y-27978628D01*
X39285714Y-27978628D02*
X39238095Y-28073866D01*
X39238095Y-28073866D02*
X39238095Y-28264342D01*
X39238095Y-28264342D02*
X39285714Y-28359580D01*
X39285714Y-28359580D02*
X39333333Y-28407200D01*
X39333333Y-28407200D02*
X39428571Y-28454819D01*
X39428571Y-28454819D02*
X39619047Y-28454819D01*
X39619047Y-28454819D02*
X39714285Y-28407200D01*
X39714285Y-28407200D02*
X39761904Y-28359580D01*
X39761904Y-28359580D02*
X39809523Y-28264342D01*
X39809523Y-28264342D02*
X39809523Y-28073866D01*
X39809523Y-28073866D02*
X39761904Y-27978628D01*
X39761904Y-27978628D02*
X39714285Y-27931009D01*
X39714285Y-27931009D02*
X39619047Y-27883390D01*
X40850057Y-137825238D02*
X40802438Y-137920476D01*
X40802438Y-137920476D02*
X40707200Y-138015714D01*
X40707200Y-138015714D02*
X40564342Y-138158571D01*
X40564342Y-138158571D02*
X40516723Y-138253809D01*
X40516723Y-138253809D02*
X40516723Y-138349047D01*
X40754819Y-138301428D02*
X40707200Y-138396666D01*
X40707200Y-138396666D02*
X40611961Y-138491904D01*
X40611961Y-138491904D02*
X40421485Y-138539523D01*
X40421485Y-138539523D02*
X40088152Y-138539523D01*
X40088152Y-138539523D02*
X39897676Y-138491904D01*
X39897676Y-138491904D02*
X39802438Y-138396666D01*
X39802438Y-138396666D02*
X39754819Y-138301428D01*
X39754819Y-138301428D02*
X39754819Y-138110952D01*
X39754819Y-138110952D02*
X39802438Y-138015714D01*
X39802438Y-138015714D02*
X39897676Y-137920476D01*
X39897676Y-137920476D02*
X40088152Y-137872857D01*
X40088152Y-137872857D02*
X40421485Y-137872857D01*
X40421485Y-137872857D02*
X40611961Y-137920476D01*
X40611961Y-137920476D02*
X40707200Y-138015714D01*
X40707200Y-138015714D02*
X40754819Y-138110952D01*
X40754819Y-138110952D02*
X40754819Y-138301428D01*
X39754819Y-137539523D02*
X39754819Y-136920476D01*
X39754819Y-136920476D02*
X40135771Y-137253809D01*
X40135771Y-137253809D02*
X40135771Y-137110952D01*
X40135771Y-137110952D02*
X40183390Y-137015714D01*
X40183390Y-137015714D02*
X40231009Y-136968095D01*
X40231009Y-136968095D02*
X40326247Y-136920476D01*
X40326247Y-136920476D02*
X40564342Y-136920476D01*
X40564342Y-136920476D02*
X40659580Y-136968095D01*
X40659580Y-136968095D02*
X40707200Y-137015714D01*
X40707200Y-137015714D02*
X40754819Y-137110952D01*
X40754819Y-137110952D02*
X40754819Y-137396666D01*
X40754819Y-137396666D02*
X40707200Y-137491904D01*
X40707200Y-137491904D02*
X40659580Y-137539523D01*
X30837142Y-139294819D02*
X30503809Y-138818628D01*
X30265714Y-139294819D02*
X30265714Y-138294819D01*
X30265714Y-138294819D02*
X30646666Y-138294819D01*
X30646666Y-138294819D02*
X30741904Y-138342438D01*
X30741904Y-138342438D02*
X30789523Y-138390057D01*
X30789523Y-138390057D02*
X30837142Y-138485295D01*
X30837142Y-138485295D02*
X30837142Y-138628152D01*
X30837142Y-138628152D02*
X30789523Y-138723390D01*
X30789523Y-138723390D02*
X30741904Y-138771009D01*
X30741904Y-138771009D02*
X30646666Y-138818628D01*
X30646666Y-138818628D02*
X30265714Y-138818628D01*
X31789523Y-139294819D02*
X31218095Y-139294819D01*
X31503809Y-139294819D02*
X31503809Y-138294819D01*
X31503809Y-138294819D02*
X31408571Y-138437676D01*
X31408571Y-138437676D02*
X31313333Y-138532914D01*
X31313333Y-138532914D02*
X31218095Y-138580533D01*
X32408571Y-138294819D02*
X32503809Y-138294819D01*
X32503809Y-138294819D02*
X32599047Y-138342438D01*
X32599047Y-138342438D02*
X32646666Y-138390057D01*
X32646666Y-138390057D02*
X32694285Y-138485295D01*
X32694285Y-138485295D02*
X32741904Y-138675771D01*
X32741904Y-138675771D02*
X32741904Y-138913866D01*
X32741904Y-138913866D02*
X32694285Y-139104342D01*
X32694285Y-139104342D02*
X32646666Y-139199580D01*
X32646666Y-139199580D02*
X32599047Y-139247200D01*
X32599047Y-139247200D02*
X32503809Y-139294819D01*
X32503809Y-139294819D02*
X32408571Y-139294819D01*
X32408571Y-139294819D02*
X32313333Y-139247200D01*
X32313333Y-139247200D02*
X32265714Y-139199580D01*
X32265714Y-139199580D02*
X32218095Y-139104342D01*
X32218095Y-139104342D02*
X32170476Y-138913866D01*
X32170476Y-138913866D02*
X32170476Y-138675771D01*
X32170476Y-138675771D02*
X32218095Y-138485295D01*
X32218095Y-138485295D02*
X32265714Y-138390057D01*
X32265714Y-138390057D02*
X32313333Y-138342438D01*
X32313333Y-138342438D02*
X32408571Y-138294819D01*
X39761905Y-70454819D02*
X39761905Y-69454819D01*
X39761905Y-69454819D02*
X40000000Y-69454819D01*
X40000000Y-69454819D02*
X40142857Y-69502438D01*
X40142857Y-69502438D02*
X40238095Y-69597676D01*
X40238095Y-69597676D02*
X40285714Y-69692914D01*
X40285714Y-69692914D02*
X40333333Y-69883390D01*
X40333333Y-69883390D02*
X40333333Y-70026247D01*
X40333333Y-70026247D02*
X40285714Y-70216723D01*
X40285714Y-70216723D02*
X40238095Y-70311961D01*
X40238095Y-70311961D02*
X40142857Y-70407200D01*
X40142857Y-70407200D02*
X40000000Y-70454819D01*
X40000000Y-70454819D02*
X39761905Y-70454819D01*
X40714286Y-69550057D02*
X40761905Y-69502438D01*
X40761905Y-69502438D02*
X40857143Y-69454819D01*
X40857143Y-69454819D02*
X41095238Y-69454819D01*
X41095238Y-69454819D02*
X41190476Y-69502438D01*
X41190476Y-69502438D02*
X41238095Y-69550057D01*
X41238095Y-69550057D02*
X41285714Y-69645295D01*
X41285714Y-69645295D02*
X41285714Y-69740533D01*
X41285714Y-69740533D02*
X41238095Y-69883390D01*
X41238095Y-69883390D02*
X40666667Y-70454819D01*
X40666667Y-70454819D02*
X41285714Y-70454819D01*
X39261905Y-35454819D02*
X39261905Y-34454819D01*
X39261905Y-34454819D02*
X39500000Y-34454819D01*
X39500000Y-34454819D02*
X39642857Y-34502438D01*
X39642857Y-34502438D02*
X39738095Y-34597676D01*
X39738095Y-34597676D02*
X39785714Y-34692914D01*
X39785714Y-34692914D02*
X39833333Y-34883390D01*
X39833333Y-34883390D02*
X39833333Y-35026247D01*
X39833333Y-35026247D02*
X39785714Y-35216723D01*
X39785714Y-35216723D02*
X39738095Y-35311961D01*
X39738095Y-35311961D02*
X39642857Y-35407200D01*
X39642857Y-35407200D02*
X39500000Y-35454819D01*
X39500000Y-35454819D02*
X39261905Y-35454819D01*
X40785714Y-35454819D02*
X40214286Y-35454819D01*
X40500000Y-35454819D02*
X40500000Y-34454819D01*
X40500000Y-34454819D02*
X40404762Y-34597676D01*
X40404762Y-34597676D02*
X40309524Y-34692914D01*
X40309524Y-34692914D02*
X40214286Y-34740533D01*
X63919478Y-87319819D02*
X63586145Y-86843628D01*
X63348050Y-87319819D02*
X63348050Y-86319819D01*
X63348050Y-86319819D02*
X63729002Y-86319819D01*
X63729002Y-86319819D02*
X63824240Y-86367438D01*
X63824240Y-86367438D02*
X63871859Y-86415057D01*
X63871859Y-86415057D02*
X63919478Y-86510295D01*
X63919478Y-86510295D02*
X63919478Y-86653152D01*
X63919478Y-86653152D02*
X63871859Y-86748390D01*
X63871859Y-86748390D02*
X63824240Y-86796009D01*
X63824240Y-86796009D02*
X63729002Y-86843628D01*
X63729002Y-86843628D02*
X63348050Y-86843628D01*
X64871859Y-87319819D02*
X64300431Y-87319819D01*
X64586145Y-87319819D02*
X64586145Y-86319819D01*
X64586145Y-86319819D02*
X64490907Y-86462676D01*
X64490907Y-86462676D02*
X64395669Y-86557914D01*
X64395669Y-86557914D02*
X64300431Y-86605533D01*
X65348050Y-87319819D02*
X65538526Y-87319819D01*
X65538526Y-87319819D02*
X65633764Y-87272200D01*
X65633764Y-87272200D02*
X65681383Y-87224580D01*
X65681383Y-87224580D02*
X65776621Y-87081723D01*
X65776621Y-87081723D02*
X65824240Y-86891247D01*
X65824240Y-86891247D02*
X65824240Y-86510295D01*
X65824240Y-86510295D02*
X65776621Y-86415057D01*
X65776621Y-86415057D02*
X65729002Y-86367438D01*
X65729002Y-86367438D02*
X65633764Y-86319819D01*
X65633764Y-86319819D02*
X65443288Y-86319819D01*
X65443288Y-86319819D02*
X65348050Y-86367438D01*
X65348050Y-86367438D02*
X65300431Y-86415057D01*
X65300431Y-86415057D02*
X65252812Y-86510295D01*
X65252812Y-86510295D02*
X65252812Y-86748390D01*
X65252812Y-86748390D02*
X65300431Y-86843628D01*
X65300431Y-86843628D02*
X65348050Y-86891247D01*
X65348050Y-86891247D02*
X65443288Y-86938866D01*
X65443288Y-86938866D02*
X65633764Y-86938866D01*
X65633764Y-86938866D02*
X65729002Y-86891247D01*
X65729002Y-86891247D02*
X65776621Y-86843628D01*
X65776621Y-86843628D02*
X65824240Y-86748390D01*
X29833333Y-32454819D02*
X29500000Y-31978628D01*
X29261905Y-32454819D02*
X29261905Y-31454819D01*
X29261905Y-31454819D02*
X29642857Y-31454819D01*
X29642857Y-31454819D02*
X29738095Y-31502438D01*
X29738095Y-31502438D02*
X29785714Y-31550057D01*
X29785714Y-31550057D02*
X29833333Y-31645295D01*
X29833333Y-31645295D02*
X29833333Y-31788152D01*
X29833333Y-31788152D02*
X29785714Y-31883390D01*
X29785714Y-31883390D02*
X29738095Y-31931009D01*
X29738095Y-31931009D02*
X29642857Y-31978628D01*
X29642857Y-31978628D02*
X29261905Y-31978628D01*
X30785714Y-32454819D02*
X30214286Y-32454819D01*
X30500000Y-32454819D02*
X30500000Y-31454819D01*
X30500000Y-31454819D02*
X30404762Y-31597676D01*
X30404762Y-31597676D02*
X30309524Y-31692914D01*
X30309524Y-31692914D02*
X30214286Y-31740533D01*
X72677233Y-18429819D02*
X72677233Y-17429819D01*
X72677233Y-17429819D02*
X72915328Y-17429819D01*
X72915328Y-17429819D02*
X73058185Y-17477438D01*
X73058185Y-17477438D02*
X73153423Y-17572676D01*
X73153423Y-17572676D02*
X73201042Y-17667914D01*
X73201042Y-17667914D02*
X73248661Y-17858390D01*
X73248661Y-17858390D02*
X73248661Y-18001247D01*
X73248661Y-18001247D02*
X73201042Y-18191723D01*
X73201042Y-18191723D02*
X73153423Y-18286961D01*
X73153423Y-18286961D02*
X73058185Y-18382200D01*
X73058185Y-18382200D02*
X72915328Y-18429819D01*
X72915328Y-18429819D02*
X72677233Y-18429819D01*
X74153423Y-17429819D02*
X73677233Y-17429819D01*
X73677233Y-17429819D02*
X73629614Y-17906009D01*
X73629614Y-17906009D02*
X73677233Y-17858390D01*
X73677233Y-17858390D02*
X73772471Y-17810771D01*
X73772471Y-17810771D02*
X74010566Y-17810771D01*
X74010566Y-17810771D02*
X74105804Y-17858390D01*
X74105804Y-17858390D02*
X74153423Y-17906009D01*
X74153423Y-17906009D02*
X74201042Y-18001247D01*
X74201042Y-18001247D02*
X74201042Y-18239342D01*
X74201042Y-18239342D02*
X74153423Y-18334580D01*
X74153423Y-18334580D02*
X74105804Y-18382200D01*
X74105804Y-18382200D02*
X74010566Y-18429819D01*
X74010566Y-18429819D02*
X73772471Y-18429819D01*
X73772471Y-18429819D02*
X73677233Y-18382200D01*
X73677233Y-18382200D02*
X73629614Y-18334580D01*
X72879478Y-118819819D02*
X72546145Y-118343628D01*
X72308050Y-118819819D02*
X72308050Y-117819819D01*
X72308050Y-117819819D02*
X72689002Y-117819819D01*
X72689002Y-117819819D02*
X72784240Y-117867438D01*
X72784240Y-117867438D02*
X72831859Y-117915057D01*
X72831859Y-117915057D02*
X72879478Y-118010295D01*
X72879478Y-118010295D02*
X72879478Y-118153152D01*
X72879478Y-118153152D02*
X72831859Y-118248390D01*
X72831859Y-118248390D02*
X72784240Y-118296009D01*
X72784240Y-118296009D02*
X72689002Y-118343628D01*
X72689002Y-118343628D02*
X72308050Y-118343628D01*
X73260431Y-117915057D02*
X73308050Y-117867438D01*
X73308050Y-117867438D02*
X73403288Y-117819819D01*
X73403288Y-117819819D02*
X73641383Y-117819819D01*
X73641383Y-117819819D02*
X73736621Y-117867438D01*
X73736621Y-117867438D02*
X73784240Y-117915057D01*
X73784240Y-117915057D02*
X73831859Y-118010295D01*
X73831859Y-118010295D02*
X73831859Y-118105533D01*
X73831859Y-118105533D02*
X73784240Y-118248390D01*
X73784240Y-118248390D02*
X73212812Y-118819819D01*
X73212812Y-118819819D02*
X73831859Y-118819819D01*
X74736621Y-117819819D02*
X74260431Y-117819819D01*
X74260431Y-117819819D02*
X74212812Y-118296009D01*
X74212812Y-118296009D02*
X74260431Y-118248390D01*
X74260431Y-118248390D02*
X74355669Y-118200771D01*
X74355669Y-118200771D02*
X74593764Y-118200771D01*
X74593764Y-118200771D02*
X74689002Y-118248390D01*
X74689002Y-118248390D02*
X74736621Y-118296009D01*
X74736621Y-118296009D02*
X74784240Y-118391247D01*
X74784240Y-118391247D02*
X74784240Y-118629342D01*
X74784240Y-118629342D02*
X74736621Y-118724580D01*
X74736621Y-118724580D02*
X74689002Y-118772200D01*
X74689002Y-118772200D02*
X74593764Y-118819819D01*
X74593764Y-118819819D02*
X74355669Y-118819819D01*
X74355669Y-118819819D02*
X74260431Y-118772200D01*
X74260431Y-118772200D02*
X74212812Y-118724580D01*
D10*
X32642857Y-136042580D02*
X32976190Y-136518771D01*
X33214285Y-136042580D02*
X33214285Y-137042580D01*
X33214285Y-137042580D02*
X32833333Y-137042580D01*
X32833333Y-137042580D02*
X32738095Y-136994961D01*
X32738095Y-136994961D02*
X32690476Y-136947342D01*
X32690476Y-136947342D02*
X32642857Y-136852104D01*
X32642857Y-136852104D02*
X32642857Y-136709247D01*
X32642857Y-136709247D02*
X32690476Y-136614009D01*
X32690476Y-136614009D02*
X32738095Y-136566390D01*
X32738095Y-136566390D02*
X32833333Y-136518771D01*
X32833333Y-136518771D02*
X33214285Y-136518771D01*
X31690476Y-136042580D02*
X32261904Y-136042580D01*
X31976190Y-136042580D02*
X31976190Y-137042580D01*
X31976190Y-137042580D02*
X32071428Y-136899723D01*
X32071428Y-136899723D02*
X32166666Y-136804485D01*
X32166666Y-136804485D02*
X32261904Y-136756866D01*
X30738095Y-136042580D02*
X31309523Y-136042580D01*
X31023809Y-136042580D02*
X31023809Y-137042580D01*
X31023809Y-137042580D02*
X31119047Y-136899723D01*
X31119047Y-136899723D02*
X31214285Y-136804485D01*
X31214285Y-136804485D02*
X31309523Y-136756866D01*
D11*
X101612483Y-116545238D02*
X101136292Y-116878571D01*
X101612483Y-117116666D02*
X100612483Y-117116666D01*
X100612483Y-117116666D02*
X100612483Y-116735714D01*
X100612483Y-116735714D02*
X100660102Y-116640476D01*
X100660102Y-116640476D02*
X100707721Y-116592857D01*
X100707721Y-116592857D02*
X100802959Y-116545238D01*
X100802959Y-116545238D02*
X100945816Y-116545238D01*
X100945816Y-116545238D02*
X101041054Y-116592857D01*
X101041054Y-116592857D02*
X101088673Y-116640476D01*
X101088673Y-116640476D02*
X101136292Y-116735714D01*
X101136292Y-116735714D02*
X101136292Y-117116666D01*
X100612483Y-116259523D02*
X101612483Y-115926190D01*
X101612483Y-115926190D02*
X100612483Y-115592857D01*
X101041054Y-115116666D02*
X100993435Y-115211904D01*
X100993435Y-115211904D02*
X100945816Y-115259523D01*
X100945816Y-115259523D02*
X100850578Y-115307142D01*
X100850578Y-115307142D02*
X100802959Y-115307142D01*
X100802959Y-115307142D02*
X100707721Y-115259523D01*
X100707721Y-115259523D02*
X100660102Y-115211904D01*
X100660102Y-115211904D02*
X100612483Y-115116666D01*
X100612483Y-115116666D02*
X100612483Y-114926190D01*
X100612483Y-114926190D02*
X100660102Y-114830952D01*
X100660102Y-114830952D02*
X100707721Y-114783333D01*
X100707721Y-114783333D02*
X100802959Y-114735714D01*
X100802959Y-114735714D02*
X100850578Y-114735714D01*
X100850578Y-114735714D02*
X100945816Y-114783333D01*
X100945816Y-114783333D02*
X100993435Y-114830952D01*
X100993435Y-114830952D02*
X101041054Y-114926190D01*
X101041054Y-114926190D02*
X101041054Y-115116666D01*
X101041054Y-115116666D02*
X101088673Y-115211904D01*
X101088673Y-115211904D02*
X101136292Y-115259523D01*
X101136292Y-115259523D02*
X101231530Y-115307142D01*
X101231530Y-115307142D02*
X101422006Y-115307142D01*
X101422006Y-115307142D02*
X101517244Y-115259523D01*
X101517244Y-115259523D02*
X101564864Y-115211904D01*
X101564864Y-115211904D02*
X101612483Y-115116666D01*
X101612483Y-115116666D02*
X101612483Y-114926190D01*
X101612483Y-114926190D02*
X101564864Y-114830952D01*
X101564864Y-114830952D02*
X101517244Y-114783333D01*
X101517244Y-114783333D02*
X101422006Y-114735714D01*
X101422006Y-114735714D02*
X101231530Y-114735714D01*
X101231530Y-114735714D02*
X101136292Y-114783333D01*
X101136292Y-114783333D02*
X101088673Y-114830952D01*
X101088673Y-114830952D02*
X101041054Y-114926190D01*
X101612483Y-162895238D02*
X101136292Y-163228571D01*
X101612483Y-163466666D02*
X100612483Y-163466666D01*
X100612483Y-163466666D02*
X100612483Y-163085714D01*
X100612483Y-163085714D02*
X100660102Y-162990476D01*
X100660102Y-162990476D02*
X100707721Y-162942857D01*
X100707721Y-162942857D02*
X100802959Y-162895238D01*
X100802959Y-162895238D02*
X100945816Y-162895238D01*
X100945816Y-162895238D02*
X101041054Y-162942857D01*
X101041054Y-162942857D02*
X101088673Y-162990476D01*
X101088673Y-162990476D02*
X101136292Y-163085714D01*
X101136292Y-163085714D02*
X101136292Y-163466666D01*
X100612483Y-162609523D02*
X101612483Y-162276190D01*
X101612483Y-162276190D02*
X100612483Y-161942857D01*
X100707721Y-161657142D02*
X100660102Y-161609523D01*
X100660102Y-161609523D02*
X100612483Y-161514285D01*
X100612483Y-161514285D02*
X100612483Y-161276190D01*
X100612483Y-161276190D02*
X100660102Y-161180952D01*
X100660102Y-161180952D02*
X100707721Y-161133333D01*
X100707721Y-161133333D02*
X100802959Y-161085714D01*
X100802959Y-161085714D02*
X100898197Y-161085714D01*
X100898197Y-161085714D02*
X101041054Y-161133333D01*
X101041054Y-161133333D02*
X101612483Y-161704761D01*
X101612483Y-161704761D02*
X101612483Y-161085714D01*
X87262483Y-116545238D02*
X86786292Y-116878571D01*
X87262483Y-117116666D02*
X86262483Y-117116666D01*
X86262483Y-117116666D02*
X86262483Y-116735714D01*
X86262483Y-116735714D02*
X86310102Y-116640476D01*
X86310102Y-116640476D02*
X86357721Y-116592857D01*
X86357721Y-116592857D02*
X86452959Y-116545238D01*
X86452959Y-116545238D02*
X86595816Y-116545238D01*
X86595816Y-116545238D02*
X86691054Y-116592857D01*
X86691054Y-116592857D02*
X86738673Y-116640476D01*
X86738673Y-116640476D02*
X86786292Y-116735714D01*
X86786292Y-116735714D02*
X86786292Y-117116666D01*
X86262483Y-116259523D02*
X87262483Y-115926190D01*
X87262483Y-115926190D02*
X86262483Y-115592857D01*
X86262483Y-115354761D02*
X86262483Y-114688095D01*
X86262483Y-114688095D02*
X87262483Y-115116666D01*
X108857142Y-33204819D02*
X108523809Y-32728628D01*
X108285714Y-33204819D02*
X108285714Y-32204819D01*
X108285714Y-32204819D02*
X108666666Y-32204819D01*
X108666666Y-32204819D02*
X108761904Y-32252438D01*
X108761904Y-32252438D02*
X108809523Y-32300057D01*
X108809523Y-32300057D02*
X108857142Y-32395295D01*
X108857142Y-32395295D02*
X108857142Y-32538152D01*
X108857142Y-32538152D02*
X108809523Y-32633390D01*
X108809523Y-32633390D02*
X108761904Y-32681009D01*
X108761904Y-32681009D02*
X108666666Y-32728628D01*
X108666666Y-32728628D02*
X108285714Y-32728628D01*
X109190476Y-32204819D02*
X109809523Y-32204819D01*
X109809523Y-32204819D02*
X109476190Y-32585771D01*
X109476190Y-32585771D02*
X109619047Y-32585771D01*
X109619047Y-32585771D02*
X109714285Y-32633390D01*
X109714285Y-32633390D02*
X109761904Y-32681009D01*
X109761904Y-32681009D02*
X109809523Y-32776247D01*
X109809523Y-32776247D02*
X109809523Y-33014342D01*
X109809523Y-33014342D02*
X109761904Y-33109580D01*
X109761904Y-33109580D02*
X109714285Y-33157200D01*
X109714285Y-33157200D02*
X109619047Y-33204819D01*
X109619047Y-33204819D02*
X109333333Y-33204819D01*
X109333333Y-33204819D02*
X109238095Y-33157200D01*
X109238095Y-33157200D02*
X109190476Y-33109580D01*
X110428571Y-32204819D02*
X110523809Y-32204819D01*
X110523809Y-32204819D02*
X110619047Y-32252438D01*
X110619047Y-32252438D02*
X110666666Y-32300057D01*
X110666666Y-32300057D02*
X110714285Y-32395295D01*
X110714285Y-32395295D02*
X110761904Y-32585771D01*
X110761904Y-32585771D02*
X110761904Y-32823866D01*
X110761904Y-32823866D02*
X110714285Y-33014342D01*
X110714285Y-33014342D02*
X110666666Y-33109580D01*
X110666666Y-33109580D02*
X110619047Y-33157200D01*
X110619047Y-33157200D02*
X110523809Y-33204819D01*
X110523809Y-33204819D02*
X110428571Y-33204819D01*
X110428571Y-33204819D02*
X110333333Y-33157200D01*
X110333333Y-33157200D02*
X110285714Y-33109580D01*
X110285714Y-33109580D02*
X110238095Y-33014342D01*
X110238095Y-33014342D02*
X110190476Y-32823866D01*
X110190476Y-32823866D02*
X110190476Y-32585771D01*
X110190476Y-32585771D02*
X110238095Y-32395295D01*
X110238095Y-32395295D02*
X110285714Y-32300057D01*
X110285714Y-32300057D02*
X110333333Y-32252438D01*
X110333333Y-32252438D02*
X110428571Y-32204819D01*
X64379478Y-52319819D02*
X64046145Y-51843628D01*
X63808050Y-52319819D02*
X63808050Y-51319819D01*
X63808050Y-51319819D02*
X64189002Y-51319819D01*
X64189002Y-51319819D02*
X64284240Y-51367438D01*
X64284240Y-51367438D02*
X64331859Y-51415057D01*
X64331859Y-51415057D02*
X64379478Y-51510295D01*
X64379478Y-51510295D02*
X64379478Y-51653152D01*
X64379478Y-51653152D02*
X64331859Y-51748390D01*
X64331859Y-51748390D02*
X64284240Y-51796009D01*
X64284240Y-51796009D02*
X64189002Y-51843628D01*
X64189002Y-51843628D02*
X63808050Y-51843628D01*
X65331859Y-52319819D02*
X64760431Y-52319819D01*
X65046145Y-52319819D02*
X65046145Y-51319819D01*
X65046145Y-51319819D02*
X64950907Y-51462676D01*
X64950907Y-51462676D02*
X64855669Y-51557914D01*
X64855669Y-51557914D02*
X64760431Y-51605533D01*
X65903288Y-51748390D02*
X65808050Y-51700771D01*
X65808050Y-51700771D02*
X65760431Y-51653152D01*
X65760431Y-51653152D02*
X65712812Y-51557914D01*
X65712812Y-51557914D02*
X65712812Y-51510295D01*
X65712812Y-51510295D02*
X65760431Y-51415057D01*
X65760431Y-51415057D02*
X65808050Y-51367438D01*
X65808050Y-51367438D02*
X65903288Y-51319819D01*
X65903288Y-51319819D02*
X66093764Y-51319819D01*
X66093764Y-51319819D02*
X66189002Y-51367438D01*
X66189002Y-51367438D02*
X66236621Y-51415057D01*
X66236621Y-51415057D02*
X66284240Y-51510295D01*
X66284240Y-51510295D02*
X66284240Y-51557914D01*
X66284240Y-51557914D02*
X66236621Y-51653152D01*
X66236621Y-51653152D02*
X66189002Y-51700771D01*
X66189002Y-51700771D02*
X66093764Y-51748390D01*
X66093764Y-51748390D02*
X65903288Y-51748390D01*
X65903288Y-51748390D02*
X65808050Y-51796009D01*
X65808050Y-51796009D02*
X65760431Y-51843628D01*
X65760431Y-51843628D02*
X65712812Y-51938866D01*
X65712812Y-51938866D02*
X65712812Y-52129342D01*
X65712812Y-52129342D02*
X65760431Y-52224580D01*
X65760431Y-52224580D02*
X65808050Y-52272200D01*
X65808050Y-52272200D02*
X65903288Y-52319819D01*
X65903288Y-52319819D02*
X66093764Y-52319819D01*
X66093764Y-52319819D02*
X66189002Y-52272200D01*
X66189002Y-52272200D02*
X66236621Y-52224580D01*
X66236621Y-52224580D02*
X66284240Y-52129342D01*
X66284240Y-52129342D02*
X66284240Y-51938866D01*
X66284240Y-51938866D02*
X66236621Y-51843628D01*
X66236621Y-51843628D02*
X66189002Y-51796009D01*
X66189002Y-51796009D02*
X66093764Y-51748390D01*
X31833333Y-65794819D02*
X31500000Y-65318628D01*
X31261905Y-65794819D02*
X31261905Y-64794819D01*
X31261905Y-64794819D02*
X31642857Y-64794819D01*
X31642857Y-64794819D02*
X31738095Y-64842438D01*
X31738095Y-64842438D02*
X31785714Y-64890057D01*
X31785714Y-64890057D02*
X31833333Y-64985295D01*
X31833333Y-64985295D02*
X31833333Y-65128152D01*
X31833333Y-65128152D02*
X31785714Y-65223390D01*
X31785714Y-65223390D02*
X31738095Y-65271009D01*
X31738095Y-65271009D02*
X31642857Y-65318628D01*
X31642857Y-65318628D02*
X31261905Y-65318628D01*
X32166667Y-64794819D02*
X32785714Y-64794819D01*
X32785714Y-64794819D02*
X32452381Y-65175771D01*
X32452381Y-65175771D02*
X32595238Y-65175771D01*
X32595238Y-65175771D02*
X32690476Y-65223390D01*
X32690476Y-65223390D02*
X32738095Y-65271009D01*
X32738095Y-65271009D02*
X32785714Y-65366247D01*
X32785714Y-65366247D02*
X32785714Y-65604342D01*
X32785714Y-65604342D02*
X32738095Y-65699580D01*
X32738095Y-65699580D02*
X32690476Y-65747200D01*
X32690476Y-65747200D02*
X32595238Y-65794819D01*
X32595238Y-65794819D02*
X32309524Y-65794819D01*
X32309524Y-65794819D02*
X32214286Y-65747200D01*
X32214286Y-65747200D02*
X32166667Y-65699580D01*
X42490057Y-102825238D02*
X42442438Y-102920476D01*
X42442438Y-102920476D02*
X42347200Y-103015714D01*
X42347200Y-103015714D02*
X42204342Y-103158571D01*
X42204342Y-103158571D02*
X42156723Y-103253809D01*
X42156723Y-103253809D02*
X42156723Y-103349047D01*
X42394819Y-103301428D02*
X42347200Y-103396666D01*
X42347200Y-103396666D02*
X42251961Y-103491904D01*
X42251961Y-103491904D02*
X42061485Y-103539523D01*
X42061485Y-103539523D02*
X41728152Y-103539523D01*
X41728152Y-103539523D02*
X41537676Y-103491904D01*
X41537676Y-103491904D02*
X41442438Y-103396666D01*
X41442438Y-103396666D02*
X41394819Y-103301428D01*
X41394819Y-103301428D02*
X41394819Y-103110952D01*
X41394819Y-103110952D02*
X41442438Y-103015714D01*
X41442438Y-103015714D02*
X41537676Y-102920476D01*
X41537676Y-102920476D02*
X41728152Y-102872857D01*
X41728152Y-102872857D02*
X42061485Y-102872857D01*
X42061485Y-102872857D02*
X42251961Y-102920476D01*
X42251961Y-102920476D02*
X42347200Y-103015714D01*
X42347200Y-103015714D02*
X42394819Y-103110952D01*
X42394819Y-103110952D02*
X42394819Y-103301428D01*
X41490057Y-102491904D02*
X41442438Y-102444285D01*
X41442438Y-102444285D02*
X41394819Y-102349047D01*
X41394819Y-102349047D02*
X41394819Y-102110952D01*
X41394819Y-102110952D02*
X41442438Y-102015714D01*
X41442438Y-102015714D02*
X41490057Y-101968095D01*
X41490057Y-101968095D02*
X41585295Y-101920476D01*
X41585295Y-101920476D02*
X41680533Y-101920476D01*
X41680533Y-101920476D02*
X41823390Y-101968095D01*
X41823390Y-101968095D02*
X42394819Y-102539523D01*
X42394819Y-102539523D02*
X42394819Y-101920476D01*
X95107483Y-104786904D02*
X95917006Y-104786904D01*
X95917006Y-104786904D02*
X96012244Y-104739285D01*
X96012244Y-104739285D02*
X96059864Y-104691666D01*
X96059864Y-104691666D02*
X96107483Y-104596428D01*
X96107483Y-104596428D02*
X96107483Y-104405952D01*
X96107483Y-104405952D02*
X96059864Y-104310714D01*
X96059864Y-104310714D02*
X96012244Y-104263095D01*
X96012244Y-104263095D02*
X95917006Y-104215476D01*
X95917006Y-104215476D02*
X95107483Y-104215476D01*
X96107483Y-103215476D02*
X96107483Y-103786904D01*
X96107483Y-103501190D02*
X95107483Y-103501190D01*
X95107483Y-103501190D02*
X95250340Y-103596428D01*
X95250340Y-103596428D02*
X95345578Y-103691666D01*
X95345578Y-103691666D02*
X95393197Y-103786904D01*
X91124330Y-24604819D02*
X91124330Y-25319104D01*
X91124330Y-25319104D02*
X91076711Y-25461961D01*
X91076711Y-25461961D02*
X90981473Y-25557200D01*
X90981473Y-25557200D02*
X90838616Y-25604819D01*
X90838616Y-25604819D02*
X90743378Y-25604819D01*
X92029092Y-24604819D02*
X91838616Y-24604819D01*
X91838616Y-24604819D02*
X91743378Y-24652438D01*
X91743378Y-24652438D02*
X91695759Y-24700057D01*
X91695759Y-24700057D02*
X91600521Y-24842914D01*
X91600521Y-24842914D02*
X91552902Y-25033390D01*
X91552902Y-25033390D02*
X91552902Y-25414342D01*
X91552902Y-25414342D02*
X91600521Y-25509580D01*
X91600521Y-25509580D02*
X91648140Y-25557200D01*
X91648140Y-25557200D02*
X91743378Y-25604819D01*
X91743378Y-25604819D02*
X91933854Y-25604819D01*
X91933854Y-25604819D02*
X92029092Y-25557200D01*
X92029092Y-25557200D02*
X92076711Y-25509580D01*
X92076711Y-25509580D02*
X92124330Y-25414342D01*
X92124330Y-25414342D02*
X92124330Y-25176247D01*
X92124330Y-25176247D02*
X92076711Y-25081009D01*
X92076711Y-25081009D02*
X92029092Y-25033390D01*
X92029092Y-25033390D02*
X91933854Y-24985771D01*
X91933854Y-24985771D02*
X91743378Y-24985771D01*
X91743378Y-24985771D02*
X91648140Y-25033390D01*
X91648140Y-25033390D02*
X91600521Y-25081009D01*
X91600521Y-25081009D02*
X91552902Y-25176247D01*
X50314819Y-137142857D02*
X49838628Y-137476190D01*
X50314819Y-137714285D02*
X49314819Y-137714285D01*
X49314819Y-137714285D02*
X49314819Y-137333333D01*
X49314819Y-137333333D02*
X49362438Y-137238095D01*
X49362438Y-137238095D02*
X49410057Y-137190476D01*
X49410057Y-137190476D02*
X49505295Y-137142857D01*
X49505295Y-137142857D02*
X49648152Y-137142857D01*
X49648152Y-137142857D02*
X49743390Y-137190476D01*
X49743390Y-137190476D02*
X49791009Y-137238095D01*
X49791009Y-137238095D02*
X49838628Y-137333333D01*
X49838628Y-137333333D02*
X49838628Y-137714285D01*
X50314819Y-136190476D02*
X50314819Y-136761904D01*
X50314819Y-136476190D02*
X49314819Y-136476190D01*
X49314819Y-136476190D02*
X49457676Y-136571428D01*
X49457676Y-136571428D02*
X49552914Y-136666666D01*
X49552914Y-136666666D02*
X49600533Y-136761904D01*
X49314819Y-135285714D02*
X49314819Y-135761904D01*
X49314819Y-135761904D02*
X49791009Y-135809523D01*
X49791009Y-135809523D02*
X49743390Y-135761904D01*
X49743390Y-135761904D02*
X49695771Y-135666666D01*
X49695771Y-135666666D02*
X49695771Y-135428571D01*
X49695771Y-135428571D02*
X49743390Y-135333333D01*
X49743390Y-135333333D02*
X49791009Y-135285714D01*
X49791009Y-135285714D02*
X49886247Y-135238095D01*
X49886247Y-135238095D02*
X50124342Y-135238095D01*
X50124342Y-135238095D02*
X50219580Y-135285714D01*
X50219580Y-135285714D02*
X50267200Y-135333333D01*
X50267200Y-135333333D02*
X50314819Y-135428571D01*
X50314819Y-135428571D02*
X50314819Y-135666666D01*
X50314819Y-135666666D02*
X50267200Y-135761904D01*
X50267200Y-135761904D02*
X50219580Y-135809523D01*
X106324819Y-42276904D02*
X107134342Y-42276904D01*
X107134342Y-42276904D02*
X107229580Y-42229285D01*
X107229580Y-42229285D02*
X107277200Y-42181666D01*
X107277200Y-42181666D02*
X107324819Y-42086428D01*
X107324819Y-42086428D02*
X107324819Y-41895952D01*
X107324819Y-41895952D02*
X107277200Y-41800714D01*
X107277200Y-41800714D02*
X107229580Y-41753095D01*
X107229580Y-41753095D02*
X107134342Y-41705476D01*
X107134342Y-41705476D02*
X106324819Y-41705476D01*
X106658152Y-40800714D02*
X107324819Y-40800714D01*
X106277200Y-41038809D02*
X106991485Y-41276904D01*
X106991485Y-41276904D02*
X106991485Y-40657857D01*
X38761905Y-105454819D02*
X38761905Y-104454819D01*
X38761905Y-104454819D02*
X39000000Y-104454819D01*
X39000000Y-104454819D02*
X39142857Y-104502438D01*
X39142857Y-104502438D02*
X39238095Y-104597676D01*
X39238095Y-104597676D02*
X39285714Y-104692914D01*
X39285714Y-104692914D02*
X39333333Y-104883390D01*
X39333333Y-104883390D02*
X39333333Y-105026247D01*
X39333333Y-105026247D02*
X39285714Y-105216723D01*
X39285714Y-105216723D02*
X39238095Y-105311961D01*
X39238095Y-105311961D02*
X39142857Y-105407200D01*
X39142857Y-105407200D02*
X39000000Y-105454819D01*
X39000000Y-105454819D02*
X38761905Y-105454819D01*
X39666667Y-104454819D02*
X40285714Y-104454819D01*
X40285714Y-104454819D02*
X39952381Y-104835771D01*
X39952381Y-104835771D02*
X40095238Y-104835771D01*
X40095238Y-104835771D02*
X40190476Y-104883390D01*
X40190476Y-104883390D02*
X40238095Y-104931009D01*
X40238095Y-104931009D02*
X40285714Y-105026247D01*
X40285714Y-105026247D02*
X40285714Y-105264342D01*
X40285714Y-105264342D02*
X40238095Y-105359580D01*
X40238095Y-105359580D02*
X40190476Y-105407200D01*
X40190476Y-105407200D02*
X40095238Y-105454819D01*
X40095238Y-105454819D02*
X39809524Y-105454819D01*
X39809524Y-105454819D02*
X39714286Y-105407200D01*
X39714286Y-105407200D02*
X39666667Y-105359580D01*
X49833333Y-65794819D02*
X49500000Y-65318628D01*
X49261905Y-65794819D02*
X49261905Y-64794819D01*
X49261905Y-64794819D02*
X49642857Y-64794819D01*
X49642857Y-64794819D02*
X49738095Y-64842438D01*
X49738095Y-64842438D02*
X49785714Y-64890057D01*
X49785714Y-64890057D02*
X49833333Y-64985295D01*
X49833333Y-64985295D02*
X49833333Y-65128152D01*
X49833333Y-65128152D02*
X49785714Y-65223390D01*
X49785714Y-65223390D02*
X49738095Y-65271009D01*
X49738095Y-65271009D02*
X49642857Y-65318628D01*
X49642857Y-65318628D02*
X49261905Y-65318628D01*
X50690476Y-65128152D02*
X50690476Y-65794819D01*
X50452381Y-64747200D02*
X50214286Y-65461485D01*
X50214286Y-65461485D02*
X50833333Y-65461485D01*
X103666666Y-51644819D02*
X103666666Y-52359104D01*
X103666666Y-52359104D02*
X103619047Y-52501961D01*
X103619047Y-52501961D02*
X103523809Y-52597200D01*
X103523809Y-52597200D02*
X103380952Y-52644819D01*
X103380952Y-52644819D02*
X103285714Y-52644819D01*
X104666666Y-52644819D02*
X104095238Y-52644819D01*
X104380952Y-52644819D02*
X104380952Y-51644819D01*
X104380952Y-51644819D02*
X104285714Y-51787676D01*
X104285714Y-51787676D02*
X104190476Y-51882914D01*
X104190476Y-51882914D02*
X104095238Y-51930533D01*
X87262483Y-147445238D02*
X86786292Y-147778571D01*
X87262483Y-148016666D02*
X86262483Y-148016666D01*
X86262483Y-148016666D02*
X86262483Y-147635714D01*
X86262483Y-147635714D02*
X86310102Y-147540476D01*
X86310102Y-147540476D02*
X86357721Y-147492857D01*
X86357721Y-147492857D02*
X86452959Y-147445238D01*
X86452959Y-147445238D02*
X86595816Y-147445238D01*
X86595816Y-147445238D02*
X86691054Y-147492857D01*
X86691054Y-147492857D02*
X86738673Y-147540476D01*
X86738673Y-147540476D02*
X86786292Y-147635714D01*
X86786292Y-147635714D02*
X86786292Y-148016666D01*
X86262483Y-147159523D02*
X87262483Y-146826190D01*
X87262483Y-146826190D02*
X86262483Y-146492857D01*
X86262483Y-146254761D02*
X86262483Y-145635714D01*
X86262483Y-145635714D02*
X86643435Y-145969047D01*
X86643435Y-145969047D02*
X86643435Y-145826190D01*
X86643435Y-145826190D02*
X86691054Y-145730952D01*
X86691054Y-145730952D02*
X86738673Y-145683333D01*
X86738673Y-145683333D02*
X86833911Y-145635714D01*
X86833911Y-145635714D02*
X87072006Y-145635714D01*
X87072006Y-145635714D02*
X87167244Y-145683333D01*
X87167244Y-145683333D02*
X87214864Y-145730952D01*
X87214864Y-145730952D02*
X87262483Y-145826190D01*
X87262483Y-145826190D02*
X87262483Y-146111904D01*
X87262483Y-146111904D02*
X87214864Y-146207142D01*
X87214864Y-146207142D02*
X87167244Y-146254761D01*
X72879478Y-48319819D02*
X72546145Y-47843628D01*
X72308050Y-48319819D02*
X72308050Y-47319819D01*
X72308050Y-47319819D02*
X72689002Y-47319819D01*
X72689002Y-47319819D02*
X72784240Y-47367438D01*
X72784240Y-47367438D02*
X72831859Y-47415057D01*
X72831859Y-47415057D02*
X72879478Y-47510295D01*
X72879478Y-47510295D02*
X72879478Y-47653152D01*
X72879478Y-47653152D02*
X72831859Y-47748390D01*
X72831859Y-47748390D02*
X72784240Y-47796009D01*
X72784240Y-47796009D02*
X72689002Y-47843628D01*
X72689002Y-47843628D02*
X72308050Y-47843628D01*
X73260431Y-47415057D02*
X73308050Y-47367438D01*
X73308050Y-47367438D02*
X73403288Y-47319819D01*
X73403288Y-47319819D02*
X73641383Y-47319819D01*
X73641383Y-47319819D02*
X73736621Y-47367438D01*
X73736621Y-47367438D02*
X73784240Y-47415057D01*
X73784240Y-47415057D02*
X73831859Y-47510295D01*
X73831859Y-47510295D02*
X73831859Y-47605533D01*
X73831859Y-47605533D02*
X73784240Y-47748390D01*
X73784240Y-47748390D02*
X73212812Y-48319819D01*
X73212812Y-48319819D02*
X73831859Y-48319819D01*
X74165193Y-47319819D02*
X74784240Y-47319819D01*
X74784240Y-47319819D02*
X74450907Y-47700771D01*
X74450907Y-47700771D02*
X74593764Y-47700771D01*
X74593764Y-47700771D02*
X74689002Y-47748390D01*
X74689002Y-47748390D02*
X74736621Y-47796009D01*
X74736621Y-47796009D02*
X74784240Y-47891247D01*
X74784240Y-47891247D02*
X74784240Y-48129342D01*
X74784240Y-48129342D02*
X74736621Y-48224580D01*
X74736621Y-48224580D02*
X74689002Y-48272200D01*
X74689002Y-48272200D02*
X74593764Y-48319819D01*
X74593764Y-48319819D02*
X74308050Y-48319819D01*
X74308050Y-48319819D02*
X74212812Y-48272200D01*
X74212812Y-48272200D02*
X74165193Y-48224580D01*
X101612483Y-131995238D02*
X101136292Y-132328571D01*
X101612483Y-132566666D02*
X100612483Y-132566666D01*
X100612483Y-132566666D02*
X100612483Y-132185714D01*
X100612483Y-132185714D02*
X100660102Y-132090476D01*
X100660102Y-132090476D02*
X100707721Y-132042857D01*
X100707721Y-132042857D02*
X100802959Y-131995238D01*
X100802959Y-131995238D02*
X100945816Y-131995238D01*
X100945816Y-131995238D02*
X101041054Y-132042857D01*
X101041054Y-132042857D02*
X101088673Y-132090476D01*
X101088673Y-132090476D02*
X101136292Y-132185714D01*
X101136292Y-132185714D02*
X101136292Y-132566666D01*
X100612483Y-131709523D02*
X101612483Y-131376190D01*
X101612483Y-131376190D02*
X100612483Y-131042857D01*
X100612483Y-130280952D02*
X100612483Y-130471428D01*
X100612483Y-130471428D02*
X100660102Y-130566666D01*
X100660102Y-130566666D02*
X100707721Y-130614285D01*
X100707721Y-130614285D02*
X100850578Y-130709523D01*
X100850578Y-130709523D02*
X101041054Y-130757142D01*
X101041054Y-130757142D02*
X101422006Y-130757142D01*
X101422006Y-130757142D02*
X101517244Y-130709523D01*
X101517244Y-130709523D02*
X101564864Y-130661904D01*
X101564864Y-130661904D02*
X101612483Y-130566666D01*
X101612483Y-130566666D02*
X101612483Y-130376190D01*
X101612483Y-130376190D02*
X101564864Y-130280952D01*
X101564864Y-130280952D02*
X101517244Y-130233333D01*
X101517244Y-130233333D02*
X101422006Y-130185714D01*
X101422006Y-130185714D02*
X101183911Y-130185714D01*
X101183911Y-130185714D02*
X101088673Y-130233333D01*
X101088673Y-130233333D02*
X101041054Y-130280952D01*
X101041054Y-130280952D02*
X100993435Y-130376190D01*
X100993435Y-130376190D02*
X100993435Y-130566666D01*
X100993435Y-130566666D02*
X101041054Y-130661904D01*
X101041054Y-130661904D02*
X101088673Y-130709523D01*
X101088673Y-130709523D02*
X101183911Y-130757142D01*
X91124330Y-30454819D02*
X91124330Y-31169104D01*
X91124330Y-31169104D02*
X91076711Y-31311961D01*
X91076711Y-31311961D02*
X90981473Y-31407200D01*
X90981473Y-31407200D02*
X90838616Y-31454819D01*
X90838616Y-31454819D02*
X90743378Y-31454819D01*
X91505283Y-30454819D02*
X92171949Y-30454819D01*
X92171949Y-30454819D02*
X91743378Y-31454819D01*
X55195759Y-14754819D02*
X55195759Y-13754819D01*
X55195759Y-14231009D02*
X55767187Y-14231009D01*
X55767187Y-14754819D02*
X55767187Y-13754819D01*
X56719568Y-13754819D02*
X56243378Y-13754819D01*
X56243378Y-13754819D02*
X56195759Y-14231009D01*
X56195759Y-14231009D02*
X56243378Y-14183390D01*
X56243378Y-14183390D02*
X56338616Y-14135771D01*
X56338616Y-14135771D02*
X56576711Y-14135771D01*
X56576711Y-14135771D02*
X56671949Y-14183390D01*
X56671949Y-14183390D02*
X56719568Y-14231009D01*
X56719568Y-14231009D02*
X56767187Y-14326247D01*
X56767187Y-14326247D02*
X56767187Y-14564342D01*
X56767187Y-14564342D02*
X56719568Y-14659580D01*
X56719568Y-14659580D02*
X56671949Y-14707200D01*
X56671949Y-14707200D02*
X56576711Y-14754819D01*
X56576711Y-14754819D02*
X56338616Y-14754819D01*
X56338616Y-14754819D02*
X56243378Y-14707200D01*
X56243378Y-14707200D02*
X56195759Y-14659580D01*
X24238095Y-14754819D02*
X24238095Y-13754819D01*
X24238095Y-14231009D02*
X24809523Y-14231009D01*
X24809523Y-14754819D02*
X24809523Y-13754819D01*
X25809523Y-14754819D02*
X25238095Y-14754819D01*
X25523809Y-14754819D02*
X25523809Y-13754819D01*
X25523809Y-13754819D02*
X25428571Y-13897676D01*
X25428571Y-13897676D02*
X25333333Y-13992914D01*
X25333333Y-13992914D02*
X25238095Y-14040533D01*
X80195759Y-14754819D02*
X80195759Y-13754819D01*
X80195759Y-14231009D02*
X80767187Y-14231009D01*
X80767187Y-14754819D02*
X80767187Y-13754819D01*
X81671949Y-13754819D02*
X81481473Y-13754819D01*
X81481473Y-13754819D02*
X81386235Y-13802438D01*
X81386235Y-13802438D02*
X81338616Y-13850057D01*
X81338616Y-13850057D02*
X81243378Y-13992914D01*
X81243378Y-13992914D02*
X81195759Y-14183390D01*
X81195759Y-14183390D02*
X81195759Y-14564342D01*
X81195759Y-14564342D02*
X81243378Y-14659580D01*
X81243378Y-14659580D02*
X81290997Y-14707200D01*
X81290997Y-14707200D02*
X81386235Y-14754819D01*
X81386235Y-14754819D02*
X81576711Y-14754819D01*
X81576711Y-14754819D02*
X81671949Y-14707200D01*
X81671949Y-14707200D02*
X81719568Y-14659580D01*
X81719568Y-14659580D02*
X81767187Y-14564342D01*
X81767187Y-14564342D02*
X81767187Y-14326247D01*
X81767187Y-14326247D02*
X81719568Y-14231009D01*
X81719568Y-14231009D02*
X81671949Y-14183390D01*
X81671949Y-14183390D02*
X81576711Y-14135771D01*
X81576711Y-14135771D02*
X81386235Y-14135771D01*
X81386235Y-14135771D02*
X81290997Y-14183390D01*
X81290997Y-14183390D02*
X81243378Y-14231009D01*
X81243378Y-14231009D02*
X81195759Y-14326247D01*
X50114819Y-170122857D02*
X49638628Y-170456190D01*
X50114819Y-170694285D02*
X49114819Y-170694285D01*
X49114819Y-170694285D02*
X49114819Y-170313333D01*
X49114819Y-170313333D02*
X49162438Y-170218095D01*
X49162438Y-170218095D02*
X49210057Y-170170476D01*
X49210057Y-170170476D02*
X49305295Y-170122857D01*
X49305295Y-170122857D02*
X49448152Y-170122857D01*
X49448152Y-170122857D02*
X49543390Y-170170476D01*
X49543390Y-170170476D02*
X49591009Y-170218095D01*
X49591009Y-170218095D02*
X49638628Y-170313333D01*
X49638628Y-170313333D02*
X49638628Y-170694285D01*
X50114819Y-169170476D02*
X50114819Y-169741904D01*
X50114819Y-169456190D02*
X49114819Y-169456190D01*
X49114819Y-169456190D02*
X49257676Y-169551428D01*
X49257676Y-169551428D02*
X49352914Y-169646666D01*
X49352914Y-169646666D02*
X49400533Y-169741904D01*
X49114819Y-168313333D02*
X49114819Y-168503809D01*
X49114819Y-168503809D02*
X49162438Y-168599047D01*
X49162438Y-168599047D02*
X49210057Y-168646666D01*
X49210057Y-168646666D02*
X49352914Y-168741904D01*
X49352914Y-168741904D02*
X49543390Y-168789523D01*
X49543390Y-168789523D02*
X49924342Y-168789523D01*
X49924342Y-168789523D02*
X50019580Y-168741904D01*
X50019580Y-168741904D02*
X50067200Y-168694285D01*
X50067200Y-168694285D02*
X50114819Y-168599047D01*
X50114819Y-168599047D02*
X50114819Y-168408571D01*
X50114819Y-168408571D02*
X50067200Y-168313333D01*
X50067200Y-168313333D02*
X50019580Y-168265714D01*
X50019580Y-168265714D02*
X49924342Y-168218095D01*
X49924342Y-168218095D02*
X49686247Y-168218095D01*
X49686247Y-168218095D02*
X49591009Y-168265714D01*
X49591009Y-168265714D02*
X49543390Y-168313333D01*
X49543390Y-168313333D02*
X49495771Y-168408571D01*
X49495771Y-168408571D02*
X49495771Y-168599047D01*
X49495771Y-168599047D02*
X49543390Y-168694285D01*
X49543390Y-168694285D02*
X49591009Y-168741904D01*
X49591009Y-168741904D02*
X49686247Y-168789523D01*
X39833333Y-100794819D02*
X39500000Y-100318628D01*
X39261905Y-100794819D02*
X39261905Y-99794819D01*
X39261905Y-99794819D02*
X39642857Y-99794819D01*
X39642857Y-99794819D02*
X39738095Y-99842438D01*
X39738095Y-99842438D02*
X39785714Y-99890057D01*
X39785714Y-99890057D02*
X39833333Y-99985295D01*
X39833333Y-99985295D02*
X39833333Y-100128152D01*
X39833333Y-100128152D02*
X39785714Y-100223390D01*
X39785714Y-100223390D02*
X39738095Y-100271009D01*
X39738095Y-100271009D02*
X39642857Y-100318628D01*
X39642857Y-100318628D02*
X39261905Y-100318628D01*
X40166667Y-99794819D02*
X40833333Y-99794819D01*
X40833333Y-99794819D02*
X40404762Y-100794819D01*
X108034819Y-51392857D02*
X107558628Y-51726190D01*
X108034819Y-51964285D02*
X107034819Y-51964285D01*
X107034819Y-51964285D02*
X107034819Y-51583333D01*
X107034819Y-51583333D02*
X107082438Y-51488095D01*
X107082438Y-51488095D02*
X107130057Y-51440476D01*
X107130057Y-51440476D02*
X107225295Y-51392857D01*
X107225295Y-51392857D02*
X107368152Y-51392857D01*
X107368152Y-51392857D02*
X107463390Y-51440476D01*
X107463390Y-51440476D02*
X107511009Y-51488095D01*
X107511009Y-51488095D02*
X107558628Y-51583333D01*
X107558628Y-51583333D02*
X107558628Y-51964285D01*
X107130057Y-51011904D02*
X107082438Y-50964285D01*
X107082438Y-50964285D02*
X107034819Y-50869047D01*
X107034819Y-50869047D02*
X107034819Y-50630952D01*
X107034819Y-50630952D02*
X107082438Y-50535714D01*
X107082438Y-50535714D02*
X107130057Y-50488095D01*
X107130057Y-50488095D02*
X107225295Y-50440476D01*
X107225295Y-50440476D02*
X107320533Y-50440476D01*
X107320533Y-50440476D02*
X107463390Y-50488095D01*
X107463390Y-50488095D02*
X108034819Y-51059523D01*
X108034819Y-51059523D02*
X108034819Y-50440476D01*
X108034819Y-49964285D02*
X108034819Y-49773809D01*
X108034819Y-49773809D02*
X107987200Y-49678571D01*
X107987200Y-49678571D02*
X107939580Y-49630952D01*
X107939580Y-49630952D02*
X107796723Y-49535714D01*
X107796723Y-49535714D02*
X107606247Y-49488095D01*
X107606247Y-49488095D02*
X107225295Y-49488095D01*
X107225295Y-49488095D02*
X107130057Y-49535714D01*
X107130057Y-49535714D02*
X107082438Y-49583333D01*
X107082438Y-49583333D02*
X107034819Y-49678571D01*
X107034819Y-49678571D02*
X107034819Y-49869047D01*
X107034819Y-49869047D02*
X107082438Y-49964285D01*
X107082438Y-49964285D02*
X107130057Y-50011904D01*
X107130057Y-50011904D02*
X107225295Y-50059523D01*
X107225295Y-50059523D02*
X107463390Y-50059523D01*
X107463390Y-50059523D02*
X107558628Y-50011904D01*
X107558628Y-50011904D02*
X107606247Y-49964285D01*
X107606247Y-49964285D02*
X107653866Y-49869047D01*
X107653866Y-49869047D02*
X107653866Y-49678571D01*
X107653866Y-49678571D02*
X107606247Y-49583333D01*
X107606247Y-49583333D02*
X107558628Y-49535714D01*
X107558628Y-49535714D02*
X107463390Y-49488095D01*
D12*
%TO.C,J4*%
X104800000Y-31330000D02*
X104800000Y-30000000D01*
X106130000Y-31330000D02*
X104800000Y-31330000D01*
X107400000Y-31330000D02*
X117620000Y-31330000D01*
X107400000Y-31330000D02*
X107400000Y-28670000D01*
X117620000Y-31330000D02*
X117620000Y-28670000D01*
X107400000Y-28670000D02*
X117620000Y-28670000D01*
D10*
%TO.C,mouse-bite-1mm-slot*%
X83500000Y-103500000D02*
G75*
G02*
X84500000Y-103500000I500000J0D01*
G01*
X84500000Y-100500000D02*
G75*
G02*
X83500000Y-100500000I-500000J0D01*
G01*
X83500000Y-71000000D02*
G75*
G02*
X84500000Y-71000000I500000J0D01*
G01*
X84500000Y-68000000D02*
G75*
G02*
X83500000Y-68000000I-500000J0D01*
G01*
X52500000Y-114750000D02*
G75*
G02*
X53500000Y-114750000I500000J0D01*
G01*
X53500000Y-111750000D02*
G75*
G02*
X52500000Y-111750000I-500000J0D01*
G01*
X53500000Y-38500000D02*
G75*
G02*
X52500000Y-38500000I-500000J0D01*
G01*
X52500000Y-41500000D02*
G75*
G02*
X53500000Y-41500000I500000J0D01*
G01*
D12*
%TO.C,R31*%
X112130000Y-33346359D02*
X112130000Y-33653641D01*
X111370000Y-33346359D02*
X111370000Y-33653641D01*
%TO.C,RV5*%
X89487664Y-124330000D02*
X99427664Y-124330000D01*
X89487664Y-128195000D02*
X89487664Y-124330000D01*
X89487664Y-136570000D02*
X89487664Y-132705000D01*
X89487664Y-136570000D02*
X91086664Y-136570000D01*
X92828664Y-136570000D02*
X93587664Y-136570000D01*
X95328664Y-136570000D02*
X96087664Y-136570000D01*
X97827664Y-136570000D02*
X99427664Y-136570000D01*
X99427664Y-128195000D02*
X99427664Y-124330000D01*
X99427664Y-136570000D02*
X99427664Y-132705000D01*
%TO.C,R8*%
X49140000Y-101107836D02*
X49140000Y-100892164D01*
X49860000Y-101107836D02*
X49860000Y-100892164D01*
%TO.C,D6*%
X66672336Y-51695000D02*
X66672336Y-54355000D01*
X66672336Y-51695000D02*
X69272336Y-51695000D01*
X66672336Y-54355000D02*
X71872336Y-54355000D01*
X69272336Y-51695000D02*
X69272336Y-54295000D01*
X69272336Y-54295000D02*
X71872336Y-54295000D01*
X70542336Y-51695000D02*
X71872336Y-51695000D01*
X71872336Y-51695000D02*
X71872336Y-53025000D01*
X71872336Y-54295000D02*
X71872336Y-54355000D01*
%TO.C,Q6*%
X80892336Y-87555000D02*
X80892336Y-83955000D01*
X76442336Y-85755000D02*
G75*
G02*
X80880814Y-83916522I2600000J0D01*
G01*
X80880814Y-87593478D02*
G75*
G02*
X76442336Y-85755000I-1838478J1838478D01*
G01*
%TO.C,J10*%
X86047664Y-51460000D02*
X86047664Y-53960000D01*
X86047664Y-53960000D02*
X88547664Y-53960000D01*
X86347664Y-49640000D02*
X86347664Y-53660000D01*
X86347664Y-51350000D02*
X86847664Y-51350000D01*
X86347664Y-52160000D02*
X87347664Y-52160000D01*
X86347664Y-53660000D02*
X96567664Y-53660000D01*
X86847664Y-50140000D02*
X96067664Y-50140000D01*
X86847664Y-51350000D02*
X86847664Y-50140000D01*
X87347664Y-52160000D02*
X87347664Y-53660000D01*
X95567664Y-52160000D02*
X95567664Y-53660000D01*
X96067664Y-50140000D02*
X96067664Y-51350000D01*
X96067664Y-51350000D02*
X96567664Y-51350000D01*
X96567664Y-49640000D02*
X86347664Y-49640000D01*
X96567664Y-52160000D02*
X95567664Y-52160000D01*
X96567664Y-53660000D02*
X96567664Y-49640000D01*
%TO.C,Q5*%
X80892336Y-52555000D02*
X80892336Y-48955000D01*
X76442336Y-50755000D02*
G75*
G02*
X80880814Y-48916522I2600000J0D01*
G01*
X80880814Y-52593478D02*
G75*
G02*
X76442336Y-50755000I-1838478J1838478D01*
G01*
%TO.C,Q1*%
X47350000Y-69530000D02*
X47350000Y-65930000D01*
X42900000Y-67730000D02*
G75*
G02*
X47338478Y-65891522I2600000J0D01*
G01*
X47338478Y-69568478D02*
G75*
G02*
X42900000Y-67730000I-1838478J1838478D01*
G01*
%TO.C,J9*%
X86047664Y-45610000D02*
X86047664Y-48110000D01*
X86047664Y-48110000D02*
X88547664Y-48110000D01*
X86347664Y-43790000D02*
X86347664Y-47810000D01*
X86347664Y-45500000D02*
X86847664Y-45500000D01*
X86347664Y-46310000D02*
X87347664Y-46310000D01*
X86347664Y-47810000D02*
X96567664Y-47810000D01*
X86847664Y-44290000D02*
X96067664Y-44290000D01*
X86847664Y-45500000D02*
X86847664Y-44290000D01*
X87347664Y-46310000D02*
X87347664Y-47810000D01*
X95567664Y-46310000D02*
X95567664Y-47810000D01*
X96067664Y-44290000D02*
X96067664Y-45500000D01*
X96067664Y-45500000D02*
X96567664Y-45500000D01*
X96567664Y-43790000D02*
X86347664Y-43790000D01*
X96567664Y-46310000D02*
X95567664Y-46310000D01*
X96567664Y-47810000D02*
X96567664Y-43790000D01*
%TO.C,Q7*%
X80892336Y-122555000D02*
X80892336Y-118955000D01*
X76442336Y-120755000D02*
G75*
G02*
X80880814Y-118916522I2600000J0D01*
G01*
X80880814Y-122593478D02*
G75*
G02*
X76442336Y-120755000I-1838478J1838478D01*
G01*
%TO.C,D7*%
X66672336Y-86695000D02*
X66672336Y-89355000D01*
X66672336Y-86695000D02*
X69272336Y-86695000D01*
X66672336Y-89355000D02*
X71872336Y-89355000D01*
X69272336Y-86695000D02*
X69272336Y-89295000D01*
X69272336Y-89295000D02*
X71872336Y-89295000D01*
X70542336Y-86695000D02*
X71872336Y-86695000D01*
X71872336Y-86695000D02*
X71872336Y-88025000D01*
X71872336Y-89295000D02*
X71872336Y-89355000D01*
%TO.C,R20*%
D10*
X67292336Y-48525000D02*
X71342336Y-48525000D01*
X71342336Y-50325000D01*
X67292336Y-50325000D01*
X67292336Y-48525000D01*
D12*
%TO.C,R17*%
X64914500Y-17665000D02*
X65130172Y-17665000D01*
X64914500Y-18385000D02*
X65130172Y-18385000D01*
%TO.C,R12*%
D10*
X33750000Y-170500000D02*
X37800000Y-170500000D01*
X37800000Y-172300000D01*
X33750000Y-172300000D01*
X33750000Y-170500000D01*
D12*
%TO.C,R28*%
X81814023Y-117120000D02*
X82121305Y-117120000D01*
X81814023Y-117880000D02*
X82121305Y-117880000D01*
%TO.C,R26*%
X81369828Y-47140000D02*
X81585500Y-47140000D01*
X81369828Y-47860000D02*
X81585500Y-47860000D01*
%TO.C,R14*%
X38892164Y-171140000D02*
X39107836Y-171140000D01*
X38892164Y-171860000D02*
X39107836Y-171860000D01*
%TO.C,R27*%
X81349828Y-82140000D02*
X81565500Y-82140000D01*
X81349828Y-82860000D02*
X81565500Y-82860000D01*
%TO.C,J12*%
X86047664Y-63160000D02*
X86047664Y-65660000D01*
X86047664Y-65660000D02*
X88547664Y-65660000D01*
X86347664Y-61340000D02*
X86347664Y-65360000D01*
X86347664Y-63050000D02*
X86847664Y-63050000D01*
X86347664Y-63860000D02*
X87347664Y-63860000D01*
X86347664Y-65360000D02*
X96567664Y-65360000D01*
X86847664Y-61840000D02*
X96067664Y-61840000D01*
X86847664Y-63050000D02*
X86847664Y-61840000D01*
X87347664Y-63860000D02*
X87347664Y-65360000D01*
X95567664Y-63860000D02*
X95567664Y-65360000D01*
X96067664Y-61840000D02*
X96067664Y-63050000D01*
X96067664Y-63050000D02*
X96567664Y-63050000D01*
X96567664Y-61340000D02*
X86347664Y-61340000D01*
X96567664Y-63860000D02*
X95567664Y-63860000D01*
X96567664Y-65360000D02*
X96567664Y-61340000D01*
%TO.C,J8*%
X86047664Y-39760000D02*
X86047664Y-42260000D01*
X86047664Y-42260000D02*
X88547664Y-42260000D01*
X86347664Y-37940000D02*
X86347664Y-41960000D01*
X86347664Y-39650000D02*
X86847664Y-39650000D01*
X86347664Y-40460000D02*
X87347664Y-40460000D01*
X86347664Y-41960000D02*
X96567664Y-41960000D01*
X86847664Y-38440000D02*
X96067664Y-38440000D01*
X86847664Y-39650000D02*
X86847664Y-38440000D01*
X87347664Y-40460000D02*
X87347664Y-41960000D01*
X95567664Y-40460000D02*
X95567664Y-41960000D01*
X96067664Y-38440000D02*
X96067664Y-39650000D01*
X96067664Y-39650000D02*
X96567664Y-39650000D01*
X96567664Y-37940000D02*
X86347664Y-37940000D01*
X96567664Y-40460000D02*
X95567664Y-40460000D01*
X96567664Y-41960000D02*
X96567664Y-37940000D01*
%TO.C,J14*%
X104800000Y-18600000D02*
X106000000Y-18600000D01*
X104800000Y-24800000D02*
X104800000Y-18600000D01*
X109200000Y-18600000D02*
X115700000Y-18600000D01*
X113700000Y-24800000D02*
X104800000Y-24800000D01*
X115700000Y-18600000D02*
X115700000Y-16600000D01*
X118300000Y-18600000D02*
X118300000Y-16600000D01*
X118300000Y-18600000D02*
X119500000Y-18600000D01*
X119500000Y-18600000D02*
X119500000Y-19100000D01*
X119500000Y-19100000D02*
X122000000Y-19100000D01*
X119500000Y-24300000D02*
X119500000Y-24800000D01*
X119500000Y-24800000D02*
X116300000Y-24800000D01*
X122000000Y-19100000D02*
X122000000Y-24300000D01*
X122000000Y-24300000D02*
X119500000Y-24300000D01*
%TO.C,U3*%
X96690000Y-83500000D02*
X96690000Y-81550000D01*
X96690000Y-83500000D02*
X96690000Y-85450000D01*
X106810000Y-83500000D02*
X106810000Y-81550000D01*
X106810000Y-83500000D02*
X106810000Y-85450000D01*
X96745000Y-86200000D02*
X96415000Y-86440000D01*
X96415000Y-85960000D01*
X96745000Y-86200000D01*
G36*
X96745000Y-86200000D02*
G01*
X96415000Y-86440000D01*
X96415000Y-85960000D01*
X96745000Y-86200000D01*
G37*
%TO.C,R5*%
X31372164Y-69640000D02*
X31587836Y-69640000D01*
X31372164Y-70360000D02*
X31587836Y-70360000D01*
%TO.C,RV1*%
X89487664Y-155230000D02*
X99427664Y-155230000D01*
X89487664Y-159095000D02*
X89487664Y-155230000D01*
X89487664Y-167470000D02*
X89487664Y-163605000D01*
X89487664Y-167470000D02*
X91086664Y-167470000D01*
X92828664Y-167470000D02*
X93587664Y-167470000D01*
X95328664Y-167470000D02*
X96087664Y-167470000D01*
X97827664Y-167470000D02*
X99427664Y-167470000D01*
X99427664Y-159095000D02*
X99427664Y-155230000D01*
X99427664Y-167470000D02*
X99427664Y-163605000D01*
%TO.C,R13*%
X39412164Y-136140000D02*
X39627836Y-136140000D01*
X39412164Y-136860000D02*
X39627836Y-136860000D01*
%TO.C,Q4*%
X46850000Y-174530000D02*
X46850000Y-170930000D01*
X42400000Y-172730000D02*
G75*
G02*
X46838478Y-170891522I2600000J0D01*
G01*
X46838478Y-174568478D02*
G75*
G02*
X42400000Y-172730000I-1838478J1838478D01*
G01*
%TO.C,R21*%
D10*
X67292336Y-83525000D02*
X71342336Y-83525000D01*
X71342336Y-85325000D01*
X67292336Y-85325000D01*
X67292336Y-83525000D01*
D12*
%TO.C,J11*%
X86047664Y-57310000D02*
X86047664Y-59810000D01*
X86047664Y-59810000D02*
X88547664Y-59810000D01*
X86347664Y-55490000D02*
X86347664Y-59510000D01*
X86347664Y-57200000D02*
X86847664Y-57200000D01*
X86347664Y-58010000D02*
X87347664Y-58010000D01*
X86347664Y-59510000D02*
X96567664Y-59510000D01*
X86847664Y-55990000D02*
X96067664Y-55990000D01*
X86847664Y-57200000D02*
X86847664Y-55990000D01*
X87347664Y-58010000D02*
X87347664Y-59510000D01*
X95567664Y-58010000D02*
X95567664Y-59510000D01*
X96067664Y-55990000D02*
X96067664Y-57200000D01*
X96067664Y-57200000D02*
X96567664Y-57200000D01*
X96567664Y-55490000D02*
X86347664Y-55490000D01*
X96567664Y-58010000D02*
X95567664Y-58010000D01*
X96567664Y-59510000D02*
X96567664Y-55490000D01*
%TO.C,R24*%
X73434500Y-84165000D02*
X73650172Y-84165000D01*
X73434500Y-84885000D02*
X73650172Y-84885000D01*
%TO.C,R9*%
X31392164Y-104640000D02*
X31607836Y-104640000D01*
X31392164Y-105360000D02*
X31607836Y-105360000D01*
%TO.C,RV4*%
X103837664Y-139780000D02*
X113777664Y-139780000D01*
X103837664Y-143645000D02*
X103837664Y-139780000D01*
X103837664Y-152020000D02*
X103837664Y-148155000D01*
X103837664Y-152020000D02*
X105436664Y-152020000D01*
X107178664Y-152020000D02*
X107937664Y-152020000D01*
X109678664Y-152020000D02*
X110437664Y-152020000D01*
X112177664Y-152020000D02*
X113777664Y-152020000D01*
X113777664Y-143645000D02*
X113777664Y-139780000D01*
X113777664Y-152020000D02*
X113777664Y-148155000D01*
%TO.C,R2*%
D10*
X33750000Y-65500000D02*
X37800000Y-65500000D01*
X37800000Y-67300000D01*
X33750000Y-67300000D01*
X33750000Y-65500000D01*
D12*
%TO.C,U2*%
X101025000Y-36615000D02*
X99075000Y-36615000D01*
X101025000Y-36615000D02*
X102975000Y-36615000D01*
X101025000Y-46735000D02*
X99075000Y-46735000D01*
X101025000Y-46735000D02*
X102975000Y-46735000D01*
X98325000Y-36670000D02*
X98085000Y-36340000D01*
X98565000Y-36340000D01*
X98325000Y-36670000D01*
G36*
X98325000Y-36670000D02*
G01*
X98085000Y-36340000D01*
X98565000Y-36340000D01*
X98325000Y-36670000D01*
G37*
%TO.C,D4*%
X33130000Y-138670000D02*
X33130000Y-141330000D01*
X33130000Y-138670000D02*
X35730000Y-138670000D01*
X33130000Y-141330000D02*
X38330000Y-141330000D01*
X35730000Y-138670000D02*
X35730000Y-141270000D01*
X35730000Y-141270000D02*
X38330000Y-141270000D01*
X37000000Y-138670000D02*
X38330000Y-138670000D01*
X38330000Y-138670000D02*
X38330000Y-140000000D01*
X38330000Y-141270000D02*
X38330000Y-141330000D01*
%TO.C,Q8*%
X36490000Y-26150000D02*
X32890000Y-26150000D01*
X34690000Y-30600000D02*
G75*
G02*
X32851522Y-26161522I0J2600000D01*
G01*
X36528478Y-26161522D02*
G75*
G02*
X34690000Y-30600000I-1838478J-1838478D01*
G01*
%TO.C,Q3*%
X45710000Y-139530000D02*
X45710000Y-135930000D01*
X41260000Y-137730000D02*
G75*
G02*
X45698478Y-135891522I2600000J0D01*
G01*
X45698478Y-139568478D02*
G75*
G02*
X41260000Y-137730000I-1838478J1838478D01*
G01*
%TO.C,R10*%
X31372164Y-139640000D02*
X31587836Y-139640000D01*
X31372164Y-140360000D02*
X31587836Y-140360000D01*
%TO.C,D2*%
X33130000Y-68670000D02*
X33130000Y-71330000D01*
X33130000Y-68670000D02*
X35730000Y-68670000D01*
X33130000Y-71330000D02*
X38330000Y-71330000D01*
X35730000Y-68670000D02*
X35730000Y-71270000D01*
X35730000Y-71270000D02*
X38330000Y-71270000D01*
X37000000Y-68670000D02*
X38330000Y-68670000D01*
X38330000Y-68670000D02*
X38330000Y-70000000D01*
X38330000Y-71270000D02*
X38330000Y-71330000D01*
%TO.C,D1*%
X33130000Y-33670000D02*
X33130000Y-36330000D01*
X33130000Y-33670000D02*
X35730000Y-33670000D01*
X33130000Y-36330000D02*
X38330000Y-36330000D01*
X35730000Y-33670000D02*
X35730000Y-36270000D01*
X35730000Y-36270000D02*
X38330000Y-36270000D01*
X37000000Y-33670000D02*
X38330000Y-33670000D01*
X38330000Y-33670000D02*
X38330000Y-35000000D01*
X38330000Y-36270000D02*
X38330000Y-36330000D01*
%TO.C,R19*%
X65164500Y-87665000D02*
X65380172Y-87665000D01*
X65164500Y-88385000D02*
X65380172Y-88385000D01*
%TO.C,R22*%
D10*
X67292336Y-118525000D02*
X71342336Y-118525000D01*
X71342336Y-120325000D01*
X67292336Y-120325000D01*
X67292336Y-118525000D01*
D12*
%TO.C,R1*%
X32392164Y-31640000D02*
X32607836Y-31640000D01*
X32392164Y-32360000D02*
X32607836Y-32360000D01*
%TO.C,D5*%
X66630000Y-16670000D02*
X66630000Y-19330000D01*
X66630000Y-16670000D02*
X69230000Y-16670000D01*
X66630000Y-19330000D02*
X71830000Y-19330000D01*
X69230000Y-16670000D02*
X69230000Y-19270000D01*
X69230000Y-19270000D02*
X71830000Y-19270000D01*
X70500000Y-16670000D02*
X71830000Y-16670000D01*
X71830000Y-16670000D02*
X71830000Y-18000000D01*
X71830000Y-19270000D02*
X71830000Y-19330000D01*
%TO.C,R25*%
X73414500Y-119165000D02*
X73630172Y-119165000D01*
X73414500Y-119885000D02*
X73630172Y-119885000D01*
%TO.C,R11*%
D10*
X37750000Y-137500000D02*
X33700000Y-137500000D01*
X33700000Y-135700000D01*
X37750000Y-135700000D01*
X37750000Y-137500000D01*
D12*
%TO.C,RV8*%
X103837664Y-108880000D02*
X113777664Y-108880000D01*
X103837664Y-112745000D02*
X103837664Y-108880000D01*
X103837664Y-121120000D02*
X103837664Y-117255000D01*
X103837664Y-121120000D02*
X105436664Y-121120000D01*
X107178664Y-121120000D02*
X107937664Y-121120000D01*
X109678664Y-121120000D02*
X110437664Y-121120000D01*
X112177664Y-121120000D02*
X113777664Y-121120000D01*
X113777664Y-112745000D02*
X113777664Y-108880000D01*
X113777664Y-121120000D02*
X113777664Y-117255000D01*
%TO.C,RV2*%
X103837664Y-155230000D02*
X113777664Y-155230000D01*
X103837664Y-159095000D02*
X103837664Y-155230000D01*
X103837664Y-167470000D02*
X103837664Y-163605000D01*
X103837664Y-167470000D02*
X105436664Y-167470000D01*
X107178664Y-167470000D02*
X107937664Y-167470000D01*
X109678664Y-167470000D02*
X110437664Y-167470000D01*
X112177664Y-167470000D02*
X113777664Y-167470000D01*
X113777664Y-159095000D02*
X113777664Y-155230000D01*
X113777664Y-167470000D02*
X113777664Y-163605000D01*
%TO.C,RV7*%
X89487664Y-108880000D02*
X99427664Y-108880000D01*
X89487664Y-112745000D02*
X89487664Y-108880000D01*
X89487664Y-121120000D02*
X89487664Y-117255000D01*
X89487664Y-121120000D02*
X91086664Y-121120000D01*
X92828664Y-121120000D02*
X93587664Y-121120000D01*
X95328664Y-121120000D02*
X96087664Y-121120000D01*
X97827664Y-121120000D02*
X99427664Y-121120000D01*
X99427664Y-112745000D02*
X99427664Y-108880000D01*
X99427664Y-121120000D02*
X99427664Y-117255000D01*
%TO.C,R30*%
X109346359Y-34870000D02*
X109653641Y-34870000D01*
X109346359Y-35630000D02*
X109653641Y-35630000D01*
%TO.C,R18*%
X64914500Y-52665000D02*
X65130172Y-52665000D01*
X64914500Y-53385000D02*
X65130172Y-53385000D01*
%TO.C,R3*%
X31892164Y-66140000D02*
X32107836Y-66140000D01*
X31892164Y-66860000D02*
X32107836Y-66860000D01*
%TO.C,Q2*%
X47350000Y-104530000D02*
X47350000Y-100930000D01*
X42900000Y-102730000D02*
G75*
G02*
X47338478Y-100891522I2600000J0D01*
G01*
X47338478Y-104568478D02*
G75*
G02*
X42900000Y-102730000I-1838478J1838478D01*
G01*
%TO.C,U1*%
X96492664Y-104025000D02*
X96492664Y-102075000D01*
X96492664Y-104025000D02*
X96492664Y-105975000D01*
X106612664Y-104025000D02*
X106612664Y-102075000D01*
X106612664Y-104025000D02*
X106612664Y-105975000D01*
X96547664Y-106725000D02*
X96217664Y-106965000D01*
X96217664Y-106485000D01*
X96547664Y-106725000D01*
G36*
X96547664Y-106725000D02*
G01*
X96217664Y-106965000D01*
X96217664Y-106485000D01*
X96547664Y-106725000D01*
G37*
%TO.C,R6*%
D10*
X37750000Y-102500000D02*
X33700000Y-102500000D01*
X33700000Y-100700000D01*
X37750000Y-100700000D01*
X37750000Y-102500000D01*
D12*
%TO.C,J6*%
X96567664Y-30260000D02*
X96567664Y-26240000D01*
X96567664Y-28760000D02*
X95567664Y-28760000D01*
X96567664Y-26240000D02*
X86347664Y-26240000D01*
X96067664Y-27950000D02*
X96567664Y-27950000D01*
X96067664Y-26740000D02*
X96067664Y-27950000D01*
X95567664Y-28760000D02*
X95567664Y-30260000D01*
X87347664Y-28760000D02*
X87347664Y-30260000D01*
X86847664Y-27950000D02*
X86847664Y-26740000D01*
X86847664Y-26740000D02*
X96067664Y-26740000D01*
X86347664Y-30260000D02*
X96567664Y-30260000D01*
X86347664Y-28760000D02*
X87347664Y-28760000D01*
X86347664Y-27950000D02*
X86847664Y-27950000D01*
X86347664Y-26240000D02*
X86347664Y-30260000D01*
X86047664Y-30560000D02*
X88547664Y-30560000D01*
X86047664Y-28060000D02*
X86047664Y-30560000D01*
%TO.C,R15*%
X48000000Y-136607836D02*
X48000000Y-136392164D01*
X48720000Y-136607836D02*
X48720000Y-136392164D01*
%TO.C,U4*%
X107870000Y-43765000D02*
X118150000Y-43765000D01*
X118150000Y-43765000D02*
X118150000Y-39265000D01*
X107870000Y-42515000D02*
X107870000Y-43765000D01*
X107870000Y-39265000D02*
X107870000Y-40515000D01*
X118150000Y-39265000D02*
X107870000Y-39265000D01*
X107870000Y-40515000D02*
G75*
G02*
X107870000Y-42515000I0J-1000000D01*
G01*
%TO.C,D3*%
X33130000Y-103670000D02*
X33130000Y-106330000D01*
X33130000Y-103670000D02*
X35730000Y-103670000D01*
X33130000Y-106330000D02*
X38330000Y-106330000D01*
X35730000Y-103670000D02*
X35730000Y-106270000D01*
X35730000Y-106270000D02*
X38330000Y-106270000D01*
X37000000Y-103670000D02*
X38330000Y-103670000D01*
X38330000Y-103670000D02*
X38330000Y-105000000D01*
X38330000Y-106270000D02*
X38330000Y-106330000D01*
%TO.C,R4*%
X49892164Y-66140000D02*
X50107836Y-66140000D01*
X49892164Y-66860000D02*
X50107836Y-66860000D01*
%TO.C,J1*%
X105210000Y-53190000D02*
X105210000Y-69310000D01*
X104894493Y-69310000D02*
X105210000Y-69310000D01*
X104894493Y-53190000D02*
X105210000Y-53190000D01*
X103894493Y-69310000D02*
X104105507Y-69310000D01*
X102790000Y-69310000D02*
X103105507Y-69310000D01*
X102790000Y-54435000D02*
X102891724Y-54435000D01*
X102790000Y-54435000D02*
X102790000Y-69310000D01*
X102790000Y-53750000D02*
X102790000Y-53065000D01*
X102790000Y-53065000D02*
X103500000Y-53065000D01*
%TO.C,RV3*%
X89487664Y-139780000D02*
X99427664Y-139780000D01*
X89487664Y-143645000D02*
X89487664Y-139780000D01*
X89487664Y-152020000D02*
X89487664Y-148155000D01*
X89487664Y-152020000D02*
X91086664Y-152020000D01*
X92828664Y-152020000D02*
X93587664Y-152020000D01*
X95328664Y-152020000D02*
X96087664Y-152020000D01*
X97827664Y-152020000D02*
X99427664Y-152020000D01*
X99427664Y-143645000D02*
X99427664Y-139780000D01*
X99427664Y-152020000D02*
X99427664Y-148155000D01*
%TO.C,R23*%
X73414500Y-48665000D02*
X73630172Y-48665000D01*
X73414500Y-49385000D02*
X73630172Y-49385000D01*
%TO.C,RV6*%
X103837664Y-124330000D02*
X113777664Y-124330000D01*
X103837664Y-128195000D02*
X103837664Y-124330000D01*
X103837664Y-136570000D02*
X103837664Y-132705000D01*
X103837664Y-136570000D02*
X105436664Y-136570000D01*
X107178664Y-136570000D02*
X107937664Y-136570000D01*
X109678664Y-136570000D02*
X110437664Y-136570000D01*
X112177664Y-136570000D02*
X113777664Y-136570000D01*
X113777664Y-128195000D02*
X113777664Y-124330000D01*
X113777664Y-136570000D02*
X113777664Y-132705000D01*
%TO.C,J7*%
X86047664Y-33910000D02*
X86047664Y-36410000D01*
X86047664Y-36410000D02*
X88547664Y-36410000D01*
X86347664Y-32090000D02*
X86347664Y-36110000D01*
X86347664Y-33800000D02*
X86847664Y-33800000D01*
X86347664Y-34610000D02*
X87347664Y-34610000D01*
X86347664Y-36110000D02*
X96567664Y-36110000D01*
X86847664Y-32590000D02*
X96067664Y-32590000D01*
X86847664Y-33800000D02*
X86847664Y-32590000D01*
X87347664Y-34610000D02*
X87347664Y-36110000D01*
X95567664Y-34610000D02*
X95567664Y-36110000D01*
X96067664Y-32590000D02*
X96067664Y-33800000D01*
X96067664Y-33800000D02*
X96567664Y-33800000D01*
X96567664Y-32090000D02*
X86347664Y-32090000D01*
X96567664Y-34610000D02*
X95567664Y-34610000D01*
X96567664Y-36110000D02*
X96567664Y-32090000D01*
%TO.C,R16*%
X48140000Y-169372164D02*
X48140000Y-169587836D01*
X48860000Y-169372164D02*
X48860000Y-169587836D01*
%TO.C,R7*%
X39892164Y-101140000D02*
X40107836Y-101140000D01*
X39892164Y-101860000D02*
X40107836Y-101860000D01*
%TO.C,R29*%
X108370000Y-50903641D02*
X108370000Y-50596359D01*
X109130000Y-50903641D02*
X109130000Y-50596359D01*
%TD*%
M02*
