M48
; DRILL file {KiCad 8.0.0} date 2025-03-21T10:22:00+0100
; FORMAT={-:-/ absolute / inch / decimal}
; #@! TF.CreationDate,2025-03-21T10:22:00+01:00
; #@! TF.GenerationSoftware,Kicad,Pcbnew,8.0.0
; #@! TF.FileFunction,NonPlated,1,4,NPTH
FMAT,2
INCH
; #@! TA.AperFunction,NonPlated,NPTH,ComponentDrill
T1C0.0197
; #@! TA.AperFunction,NonPlated,NPTH,ComponentDrill
T2C0.0669
; #@! TA.AperFunction,NonPlated,NPTH,ComponentDrill
T3C0.0827
; #@! TA.AperFunction,NonPlated,NPTH,ComponentDrill
T4C0.0866
%
G90
G05
T1
X2.0472Y-1.561
X2.0472Y-1.5886
X2.0472Y-4.4449
X2.0472Y-4.4724
X2.0571Y-1.5295
X2.0571Y-1.6201
X2.0571Y-4.4134
X2.0571Y-4.5039
X2.1161Y-1.5295
X2.1161Y-1.6201
X2.1161Y-4.4134
X2.1161Y-4.5039
X2.126Y-1.561
X2.126Y-1.5886
X2.126Y-4.4449
X2.126Y-4.4724
X3.2677Y-2.7224
X3.2677Y-2.75
X3.2677Y-4.002
X3.2677Y-4.0295
X3.2776Y-2.6909
X3.2776Y-2.7815
X3.2776Y-3.9705
X3.2776Y-4.061
X3.3366Y-2.6909
X3.3366Y-2.7815
X3.3366Y-3.9705
X3.3366Y-4.061
X3.3465Y-2.7224
X3.3465Y-2.75
X3.3465Y-4.002
X3.3465Y-4.0295
T2
X4.2874Y-0.8543
X4.563Y-0.8543
T3
X0.9843Y-0.689
X0.9843Y-6.8307
X1.9685Y-0.689
X1.9685Y-6.8307
X2.2031Y-0.689
X2.2031Y-5.0394
X3.1873Y-0.689
X3.1873Y-5.0394
T4
X3.5456Y-4.5276
X3.5456Y-5.1358
X3.5456Y-5.7441
X3.5456Y-6.3524
X3.892Y-4.5276
X3.892Y-5.1358
X3.892Y-5.7441
X3.892Y-6.3524
X4.1105Y-4.5276
X4.1105Y-5.1358
X4.1105Y-5.7441
X4.1105Y-6.3524
X4.457Y-4.5276
X4.457Y-5.1358
X4.457Y-5.7441
X4.457Y-6.3524
M30
