%TF.GenerationSoftware,KiCad,Pcbnew,8.0.0*%
%TF.CreationDate,2025-03-21T10:21:52+01:00*%
%TF.ProjectId,MuseMatrix_Core,4d757365-4d61-4747-9269-785f436f7265,rev?*%
%TF.SameCoordinates,Original*%
%TF.FileFunction,Paste,Top*%
%TF.FilePolarity,Positive*%
%FSLAX46Y46*%
G04 Gerber Fmt 4.6, Leading zero omitted, Abs format (unit mm)*
G04 Created by KiCad (PCBNEW 8.0.0) date 2025-03-21 10:21:52*
%MOMM*%
%LPD*%
G01*
G04 APERTURE LIST*
G04 Aperture macros list*
%AMRoundRect*
0 Rectangle with rounded corners*
0 $1 Rounding radius*
0 $2 $3 $4 $5 $6 $7 $8 $9 X,Y pos of 4 corners*
0 Add a 4 corners polygon primitive as box body*
4,1,4,$2,$3,$4,$5,$6,$7,$8,$9,$2,$3,0*
0 Add four circle primitives for the rounded corners*
1,1,$1+$1,$2,$3*
1,1,$1+$1,$4,$5*
1,1,$1+$1,$6,$7*
1,1,$1+$1,$8,$9*
0 Add four rect primitives between the rounded corners*
20,1,$1+$1,$2,$3,$4,$5,0*
20,1,$1+$1,$4,$5,$6,$7,0*
20,1,$1+$1,$6,$7,$8,$9,0*
20,1,$1+$1,$8,$9,$2,$3,0*%
G04 Aperture macros list end*
%ADD10RoundRect,0.135000X-0.185000X0.135000X-0.185000X-0.135000X0.185000X-0.135000X0.185000X0.135000X0*%
%ADD11RoundRect,0.140000X0.170000X-0.140000X0.170000X0.140000X-0.170000X0.140000X-0.170000X-0.140000X0*%
%ADD12RoundRect,0.140000X-0.140000X-0.170000X0.140000X-0.170000X0.140000X0.170000X-0.140000X0.170000X0*%
%ADD13RoundRect,0.135000X-0.135000X-0.185000X0.135000X-0.185000X0.135000X0.185000X-0.135000X0.185000X0*%
%ADD14R,2.200000X2.800000*%
%ADD15R,2.800000X2.800000*%
%ADD16RoundRect,0.150000X0.150000X-0.825000X0.150000X0.825000X-0.150000X0.825000X-0.150000X-0.825000X0*%
%ADD17RoundRect,0.150000X-0.825000X-0.150000X0.825000X-0.150000X0.825000X0.150000X-0.825000X0.150000X0*%
%ADD18RoundRect,0.140000X-0.170000X0.140000X-0.170000X-0.140000X0.170000X-0.140000X0.170000X0.140000X0*%
%ADD19RoundRect,0.135000X0.185000X-0.135000X0.185000X0.135000X-0.185000X0.135000X-0.185000X-0.135000X0*%
G04 APERTURE END LIST*
D10*
%TO.C,R31*%
X111750000Y-32990000D03*
X111750000Y-34010000D03*
%TD*%
D11*
%TO.C,R8*%
X49500000Y-101480000D03*
X49500000Y-100520000D03*
%TD*%
D12*
%TO.C,R17*%
X64542336Y-18025000D03*
X65502336Y-18025000D03*
%TD*%
D13*
%TO.C,R28*%
X81457664Y-117500000D03*
X82477664Y-117500000D03*
%TD*%
D12*
%TO.C,R26*%
X80997664Y-47500000D03*
X81957664Y-47500000D03*
%TD*%
%TO.C,R14*%
X38520000Y-171500000D03*
X39480000Y-171500000D03*
%TD*%
%TO.C,R27*%
X80977664Y-82500000D03*
X81937664Y-82500000D03*
%TD*%
D14*
%TO.C,J14*%
X115000000Y-25400000D03*
X117000000Y-18000000D03*
D15*
X107600000Y-18000000D03*
%TD*%
D16*
%TO.C,U3*%
X97305000Y-85975000D03*
X98575000Y-85975000D03*
X99845000Y-85975000D03*
X101115000Y-85975000D03*
X102385000Y-85975000D03*
X103655000Y-85975000D03*
X104925000Y-85975000D03*
X106195000Y-85975000D03*
X106195000Y-81025000D03*
X104925000Y-81025000D03*
X103655000Y-81025000D03*
X102385000Y-81025000D03*
X101115000Y-81025000D03*
X99845000Y-81025000D03*
X98575000Y-81025000D03*
X97305000Y-81025000D03*
%TD*%
D12*
%TO.C,R5*%
X31000000Y-70000000D03*
X31960000Y-70000000D03*
%TD*%
%TO.C,R13*%
X39040000Y-136500000D03*
X40000000Y-136500000D03*
%TD*%
%TO.C,R24*%
X73062336Y-84525000D03*
X74022336Y-84525000D03*
%TD*%
%TO.C,R9*%
X31020000Y-105000000D03*
X31980000Y-105000000D03*
%TD*%
D17*
%TO.C,U2*%
X98550000Y-37230000D03*
X98550000Y-38500000D03*
X98550000Y-39770000D03*
X98550000Y-41040000D03*
X98550000Y-42310000D03*
X98550000Y-43580000D03*
X98550000Y-44850000D03*
X98550000Y-46120000D03*
X103500000Y-46120000D03*
X103500000Y-44850000D03*
X103500000Y-43580000D03*
X103500000Y-42310000D03*
X103500000Y-41040000D03*
X103500000Y-39770000D03*
X103500000Y-38500000D03*
X103500000Y-37230000D03*
%TD*%
D12*
%TO.C,R10*%
X31000000Y-140000000D03*
X31960000Y-140000000D03*
%TD*%
%TO.C,R19*%
X64792336Y-88025000D03*
X65752336Y-88025000D03*
%TD*%
%TO.C,R1*%
X32020000Y-32000000D03*
X32980000Y-32000000D03*
%TD*%
%TO.C,R25*%
X73042336Y-119525000D03*
X74002336Y-119525000D03*
%TD*%
D13*
%TO.C,R30*%
X108990000Y-35250000D03*
X110010000Y-35250000D03*
%TD*%
D12*
%TO.C,R18*%
X64542336Y-53025000D03*
X65502336Y-53025000D03*
%TD*%
%TO.C,R3*%
X31520000Y-66500000D03*
X32480000Y-66500000D03*
%TD*%
D16*
%TO.C,U1*%
X97107664Y-106500000D03*
X98377664Y-106500000D03*
X99647664Y-106500000D03*
X100917664Y-106500000D03*
X102187664Y-106500000D03*
X103457664Y-106500000D03*
X104727664Y-106500000D03*
X105997664Y-106500000D03*
X105997664Y-101550000D03*
X104727664Y-101550000D03*
X103457664Y-101550000D03*
X102187664Y-101550000D03*
X100917664Y-101550000D03*
X99647664Y-101550000D03*
X98377664Y-101550000D03*
X97107664Y-101550000D03*
%TD*%
D11*
%TO.C,R15*%
X48360000Y-136980000D03*
X48360000Y-136020000D03*
%TD*%
D12*
%TO.C,R4*%
X49520000Y-66500000D03*
X50480000Y-66500000D03*
%TD*%
%TO.C,R23*%
X73042336Y-49025000D03*
X74002336Y-49025000D03*
%TD*%
D18*
%TO.C,R16*%
X48500000Y-169000000D03*
X48500000Y-169960000D03*
%TD*%
D12*
%TO.C,R7*%
X39520000Y-101500000D03*
X40480000Y-101500000D03*
%TD*%
D19*
%TO.C,R29*%
X108750000Y-51260000D03*
X108750000Y-50240000D03*
%TD*%
M02*
