%TF.GenerationSoftware,KiCad,Pcbnew,8.0.8*%
%TF.CreationDate,2025-03-24T10:51:22+01:00*%
%TF.ProjectId,column,636f6c75-6d6e-42e6-9b69-6361645f7063,rev?*%
%TF.SameCoordinates,Original*%
%TF.FileFunction,Copper,L4,Bot*%
%TF.FilePolarity,Positive*%
%FSLAX46Y46*%
G04 Gerber Fmt 4.6, Leading zero omitted, Abs format (unit mm)*
G04 Created by KiCad (PCBNEW 8.0.8) date 2025-03-24 10:51:22*
%MOMM*%
%LPD*%
G01*
G04 APERTURE LIST*
G04 Aperture macros list*
%AMRoundRect*
0 Rectangle with rounded corners*
0 $1 Rounding radius*
0 $2 $3 $4 $5 $6 $7 $8 $9 X,Y pos of 4 corners*
0 Add a 4 corners polygon primitive as box body*
4,1,4,$2,$3,$4,$5,$6,$7,$8,$9,$2,$3,0*
0 Add four circle primitives for the rounded corners*
1,1,$1+$1,$2,$3*
1,1,$1+$1,$4,$5*
1,1,$1+$1,$6,$7*
1,1,$1+$1,$8,$9*
0 Add four rect primitives between the rounded corners*
20,1,$1+$1,$2,$3,$4,$5,0*
20,1,$1+$1,$4,$5,$6,$7,0*
20,1,$1+$1,$6,$7,$8,$9,0*
20,1,$1+$1,$8,$9,$2,$3,0*%
G04 Aperture macros list end*
%TA.AperFunction,ComponentPad*%
%ADD10R,1.700000X1.700000*%
%TD*%
%TA.AperFunction,ComponentPad*%
%ADD11O,1.700000X1.700000*%
%TD*%
%TA.AperFunction,ComponentPad*%
%ADD12R,1.500000X1.050000*%
%TD*%
%TA.AperFunction,ComponentPad*%
%ADD13O,1.500000X1.050000*%
%TD*%
%TA.AperFunction,ComponentPad*%
%ADD14C,1.524000*%
%TD*%
%TA.AperFunction,ComponentPad*%
%ADD15R,1.050000X1.500000*%
%TD*%
%TA.AperFunction,ComponentPad*%
%ADD16O,1.050000X1.500000*%
%TD*%
%TA.AperFunction,ComponentPad*%
%ADD17RoundRect,0.250000X0.600000X0.725000X-0.600000X0.725000X-0.600000X-0.725000X0.600000X-0.725000X0*%
%TD*%
%TA.AperFunction,ComponentPad*%
%ADD18O,1.700000X1.950000*%
%TD*%
%TA.AperFunction,ViaPad*%
%ADD19C,0.600000*%
%TD*%
%TA.AperFunction,Conductor*%
%ADD20C,0.200000*%
%TD*%
G04 APERTURE END LIST*
D10*
%TO.P,D6,1,K*%
%TO.N,GND*%
X70550000Y-55200000D03*
D11*
%TO.P,D6,2,A*%
%TO.N,Net-(D6-A)*%
X68010000Y-55200000D03*
%TD*%
D12*
%TO.P,Q6,1,E*%
%TO.N,GND*%
X79050000Y-89200000D03*
D13*
%TO.P,Q6,2,B*%
%TO.N,Net-(Q6-B)*%
X79050000Y-87930000D03*
%TO.P,Q6,3,C*%
%TO.N,/Column_7_Rows/d6_0*%
X79050000Y-86660000D03*
%TD*%
D12*
%TO.P,Q5,1,E*%
%TO.N,GND*%
X79050000Y-54200000D03*
D13*
%TO.P,Q5,2,B*%
%TO.N,Net-(Q5-B)*%
X79050000Y-52930000D03*
%TO.P,Q5,3,C*%
%TO.N,/Column_7_Rows/d5_0*%
X79050000Y-51660000D03*
%TD*%
D12*
%TO.P,Q1,1,E*%
%TO.N,GND*%
X45500000Y-69000000D03*
D13*
%TO.P,Q1,2,B*%
%TO.N,Net-(Q1-B)*%
X45500000Y-67730000D03*
%TO.P,Q1,3,C*%
%TO.N,/Column_7_Rows/d1*%
X45500000Y-66460000D03*
%TD*%
D12*
%TO.P,Q7,1,E*%
%TO.N,GND*%
X79050000Y-124200000D03*
D13*
%TO.P,Q7,2,B*%
%TO.N,Net-(Q7-B)*%
X79050000Y-122930000D03*
%TO.P,Q7,3,C*%
%TO.N,/Column_7_Rows/d7_0*%
X79050000Y-121660000D03*
%TD*%
D10*
%TO.P,D7,1,K*%
%TO.N,GND*%
X70550000Y-90200000D03*
D11*
%TO.P,D7,2,A*%
%TO.N,Net-(D7-A)*%
X68010000Y-90200000D03*
%TD*%
D14*
%TO.P,R20,1*%
%TO.N,Net-(Q5-B)*%
X68050000Y-51700000D03*
%TO.P,R20,2*%
%TO.N,+3.3V*%
X70550000Y-51750000D03*
%TD*%
%TO.P,R12,1*%
%TO.N,Net-(Q4-B)*%
X34500000Y-171500000D03*
%TO.P,R12,2*%
%TO.N,+3.3V*%
X37000000Y-171550000D03*
%TD*%
D12*
%TO.P,Q4,1,E*%
%TO.N,GND*%
X45000000Y-174000000D03*
D13*
%TO.P,Q4,2,B*%
%TO.N,Net-(Q4-B)*%
X45000000Y-172730000D03*
%TO.P,Q4,3,C*%
%TO.N,/Column_7_Rows/d4*%
X45000000Y-171460000D03*
%TD*%
D14*
%TO.P,R21,1*%
%TO.N,Net-(Q6-B)*%
X68050000Y-86700000D03*
%TO.P,R21,2*%
%TO.N,+3.3V*%
X70550000Y-86750000D03*
%TD*%
%TO.P,R2,1*%
%TO.N,Net-(Q1-B)*%
X34500000Y-66500000D03*
%TO.P,R2,2*%
%TO.N,+3.3V*%
X37000000Y-66550000D03*
%TD*%
D10*
%TO.P,D4,1,K*%
%TO.N,GND*%
X37000000Y-140000000D03*
D11*
%TO.P,D4,2,A*%
%TO.N,Net-(D4-A)*%
X34460000Y-140000000D03*
%TD*%
D15*
%TO.P,Q8,1,E*%
%TO.N,GND*%
X35960000Y-28000000D03*
D16*
%TO.P,Q8,2,B*%
%TO.N,/Column_7_Rows/Column_voltage*%
X34690000Y-28000000D03*
%TO.P,Q8,3,C*%
%TO.N,/Column_7_Rows/column_voltage*%
X33420000Y-28000000D03*
%TD*%
D12*
%TO.P,Q3,1,E*%
%TO.N,GND*%
X43860000Y-139000000D03*
D13*
%TO.P,Q3,2,B*%
%TO.N,Net-(Q3-B)*%
X43860000Y-137730000D03*
%TO.P,Q3,3,C*%
%TO.N,/Column_7_Rows/d3*%
X43860000Y-136460000D03*
%TD*%
D10*
%TO.P,D2,1,K*%
%TO.N,GND*%
X37000000Y-70000000D03*
D11*
%TO.P,D2,2,A*%
%TO.N,Net-(D2-A)*%
X34460000Y-70000000D03*
%TD*%
D10*
%TO.P,D1,1,K*%
%TO.N,GND*%
X37000000Y-35000000D03*
D11*
%TO.P,D1,2,A*%
%TO.N,Net-(D1-A)*%
X34460000Y-35000000D03*
%TD*%
D14*
%TO.P,R22,1*%
%TO.N,Net-(Q7-B)*%
X68050000Y-121700000D03*
%TO.P,R22,2*%
%TO.N,+3.3V*%
X70550000Y-121750000D03*
%TD*%
D10*
%TO.P,D5,1,K*%
%TO.N,GND*%
X70507664Y-20175000D03*
D11*
%TO.P,D5,2,A*%
%TO.N,Net-(D5-A)*%
X67967664Y-20175000D03*
%TD*%
D14*
%TO.P,R11,1*%
%TO.N,Net-(Q3-B)*%
X37000000Y-136500000D03*
%TO.P,R11,2*%
%TO.N,+3.3V*%
X34500000Y-136450000D03*
%TD*%
D12*
%TO.P,Q2,1,E*%
%TO.N,GND*%
X45500000Y-104000000D03*
D13*
%TO.P,Q2,2,B*%
%TO.N,Net-(Q2-B)*%
X45500000Y-102730000D03*
%TO.P,Q2,3,C*%
%TO.N,/Column_7_Rows/d2*%
X45500000Y-101460000D03*
%TD*%
D14*
%TO.P,R6,1*%
%TO.N,Net-(Q2-B)*%
X37000000Y-101500000D03*
%TO.P,R6,2*%
%TO.N,+3.3V*%
X34500000Y-101450000D03*
%TD*%
D10*
%TO.P,D3,1,K*%
%TO.N,GND*%
X37000000Y-105000000D03*
D11*
%TO.P,D3,2,A*%
%TO.N,Net-(D3-A)*%
X34460000Y-105000000D03*
%TD*%
D10*
%TO.P,J13,1,Pin_1*%
%TO.N,/Column_7_Rows/d1*%
X24000000Y-75460000D03*
D11*
%TO.P,J13,2,Pin_2*%
%TO.N,/Column_7_Rows/d2*%
X24000000Y-78000000D03*
%TO.P,J13,3,Pin_3*%
%TO.N,/Column_7_Rows/d3*%
X24000000Y-80540000D03*
%TO.P,J13,4,Pin_4*%
%TO.N,/Column_7_Rows/d4*%
X24000000Y-83080000D03*
%TO.P,J13,5,Pin_5*%
%TO.N,/Column_7_Rows/d5_1*%
X24000000Y-85620000D03*
%TO.P,J13,6,Pin_6*%
%TO.N,/Column_7_Rows/d6_1*%
X24000000Y-88160000D03*
%TO.P,J13,7,Pin_7*%
%TO.N,/Column_7_Rows/d7_1*%
X24000000Y-90700000D03*
%TD*%
D10*
%TO.P,J3,1,Pin_1*%
%TO.N,/Column_7_Rows/d7_1*%
X51000000Y-90700000D03*
D11*
%TO.P,J3,2,Pin_2*%
%TO.N,/Column_7_Rows/d6_1*%
X51000000Y-88160000D03*
%TO.P,J3,3,Pin_3*%
%TO.N,/Column_7_Rows/d5_1*%
X51000000Y-85620000D03*
%TO.P,J3,4,Pin_4*%
%TO.N,/Column_7_Rows/d4*%
X51000000Y-83080000D03*
%TO.P,J3,5,Pin_5*%
%TO.N,/Column_7_Rows/d3*%
X51000000Y-80540000D03*
%TO.P,J3,6,Pin_6*%
%TO.N,/Column_7_Rows/d2*%
X51000000Y-78000000D03*
%TO.P,J3,7,Pin_7*%
%TO.N,/Column_7_Rows/d1*%
X51000000Y-75460000D03*
%TD*%
D10*
%TO.P,J18,1,Pin_1*%
%TO.N,/Column_7_Rows/d7_0*%
X72000000Y-17375000D03*
D11*
%TO.P,J18,2,Pin_2*%
%TO.N,/Column_7_Rows/d6_0*%
X69460000Y-17375000D03*
%TO.P,J18,3,Pin_3*%
%TO.N,/Column_7_Rows/d5_0*%
X66920000Y-17375000D03*
%TO.P,J18,4,Pin_4*%
%TO.N,/Column_7_Rows/column_voltage2*%
X64380000Y-17375000D03*
%TO.P,J18,5,Pin_5*%
%TO.N,+3.3V*%
X61840000Y-17375000D03*
%TO.P,J18,6,Pin_6*%
%TO.N,GND*%
X59300000Y-17375000D03*
%TD*%
D10*
%TO.P,J17,1,Pin_1*%
%TO.N,GND*%
X28380000Y-174025000D03*
D11*
%TO.P,J17,2,Pin_2*%
%TO.N,+3.3V*%
X30920000Y-174025000D03*
%TO.P,J17,3,Pin_3*%
%TO.N,/Column_7_Rows/column_voltage*%
X33460000Y-174025000D03*
%TO.P,J17,4,Pin_4*%
%TO.N,/Column_7_Rows/d5_1*%
X36000000Y-174025000D03*
%TO.P,J17,5,Pin_5*%
%TO.N,/Column_7_Rows/d6_1*%
X38540000Y-174025000D03*
%TO.P,J17,6,Pin_6*%
%TO.N,/Column_7_Rows/d7_1*%
X41080000Y-174025000D03*
%TD*%
D17*
%TO.P,J2,1,Pin_1*%
%TO.N,GND*%
X36000000Y-21000000D03*
D18*
%TO.P,J2,2,Pin_2*%
%TO.N,/Column_7_Rows/Column_voltage*%
X33500000Y-21000000D03*
%TO.P,J2,3,Pin_3*%
%TO.N,+3.3V*%
X31000000Y-21000000D03*
%TD*%
D19*
%TO.N,GND*%
X40000000Y-136500000D03*
X80507664Y-54175000D03*
X44000000Y-104000000D03*
X74982664Y-121700000D03*
X38500000Y-70000000D03*
X37000000Y-33500000D03*
X41000000Y-101000000D03*
X32480000Y-66500000D03*
X74010000Y-51200000D03*
X37500000Y-21000000D03*
X78007664Y-89675000D03*
X74030000Y-86700000D03*
X72007664Y-19675000D03*
X71982664Y-90200000D03*
X78007664Y-125175000D03*
X38500000Y-105000000D03*
X45500000Y-139000000D03*
X46500000Y-174000000D03*
X40500000Y-171500000D03*
%TO.N,/Column_7_Rows/d3*%
X46000000Y-106000000D03*
%TO.N,/Column_7_Rows/d4*%
X39500000Y-140800000D03*
X42400000Y-84100000D03*
%TO.N,/Column_7_Rows/d2*%
X45000000Y-88000000D03*
%TO.N,+3.3V*%
X30920000Y-172500000D03*
X49500000Y-101480000D03*
X48500000Y-167980000D03*
X72007664Y-52175000D03*
X48360000Y-136980000D03*
X81465328Y-119675000D03*
X48725000Y-66750000D03*
X81005328Y-49675000D03*
X71007664Y-85675000D03*
X33000000Y-101500000D03*
X71007664Y-123175000D03*
X33000000Y-136500000D03*
X38000000Y-66500000D03*
X80985328Y-84675000D03*
%TO.N,/Column_7_Rows/column_voltage*%
X31000000Y-71500000D03*
X31500000Y-92500000D03*
%TO.N,/Column_7_Rows/d7_1*%
X48400000Y-95600000D03*
%TO.N,/Column_7_Rows/d6_1*%
X47400000Y-86620000D03*
%TO.N,/Column_7_Rows/column_voltage2*%
X64500000Y-20200000D03*
X64507664Y-55175000D03*
X64800000Y-90200000D03*
%TO.N,/Column_7_Rows/d5_0*%
X74965328Y-32175000D03*
%TO.N,/Column_7_Rows/d7_0*%
X75700000Y-93100000D03*
%TD*%
D20*
%TO.N,GND*%
X71507664Y-20175000D02*
X72007664Y-19675000D01*
X70507664Y-20175000D02*
X71507664Y-20175000D01*
%TO.N,/Column_7_Rows/d3*%
X46000000Y-106000000D02*
X47500000Y-104500000D01*
X50000000Y-81540000D02*
X51000000Y-80540000D01*
X47500000Y-104500000D02*
X47500000Y-97500000D01*
X46500000Y-83540000D02*
X48500000Y-81540000D01*
X46500000Y-96500000D02*
X46500000Y-83540000D01*
X47500000Y-97500000D02*
X46500000Y-96500000D01*
X48500000Y-81540000D02*
X50000000Y-81540000D01*
%TO.N,/Column_7_Rows/d4*%
X39500000Y-140800000D02*
X41900000Y-138400000D01*
X41900000Y-134700000D02*
X42400000Y-134200000D01*
X42400000Y-134200000D02*
X42400000Y-84100000D01*
X41900000Y-138400000D02*
X41900000Y-134700000D01*
%TO.N,/Column_7_Rows/d2*%
X49329503Y-78000000D02*
X51000000Y-78000000D01*
X45000000Y-82329503D02*
X49329503Y-78000000D01*
X45000000Y-88000000D02*
X45000000Y-82329503D01*
%TO.N,+3.3V*%
X33050000Y-101450000D02*
X33000000Y-101500000D01*
X34500000Y-101450000D02*
X33050000Y-101450000D01*
X70550000Y-51750000D02*
X70975000Y-52175000D01*
X70975000Y-52175000D02*
X72007664Y-52175000D01*
%TO.N,/Column_7_Rows/column_voltage*%
X31500000Y-72000000D02*
X31000000Y-71500000D01*
X31500000Y-92500000D02*
X31500000Y-72000000D01*
%TO.N,/Column_7_Rows/d7_1*%
X42000000Y-173105000D02*
X42000000Y-169900000D01*
X51000000Y-93100000D02*
X48500000Y-95600000D01*
X51000000Y-160900000D02*
X51000000Y-93100000D01*
X51000000Y-93100000D02*
X51000000Y-90700000D01*
X41080000Y-174025000D02*
X42000000Y-173105000D01*
X42000000Y-169900000D02*
X51000000Y-160900000D01*
X48500000Y-95600000D02*
X48400000Y-95600000D01*
%TO.N,/Column_7_Rows/d6_1*%
X38900000Y-146762182D02*
X47810000Y-137852182D01*
X47850000Y-97355026D02*
X46900000Y-96405026D01*
X47850000Y-134892182D02*
X47850000Y-97355026D01*
X46900000Y-88600000D02*
X47340000Y-88160000D01*
X38540000Y-172760000D02*
X38900000Y-172400000D01*
X47400000Y-86620000D02*
X49460000Y-86620000D01*
X47810000Y-136752182D02*
X46900000Y-135842182D01*
X47810000Y-137852182D02*
X47810000Y-136752182D01*
X49460000Y-86620000D02*
X51000000Y-88160000D01*
X38900000Y-172400000D02*
X38900000Y-146762182D01*
X38540000Y-174025000D02*
X38540000Y-172760000D01*
X46900000Y-135842182D02*
X47850000Y-134892182D01*
X46900000Y-96405026D02*
X46900000Y-88600000D01*
X47340000Y-88160000D02*
X51000000Y-88160000D01*
%TO.N,/Column_7_Rows/d5_1*%
X32900000Y-171400000D02*
X32900000Y-169100000D01*
X30100000Y-166100000D02*
X30100000Y-91720000D01*
X34400000Y-172900000D02*
X32900000Y-171400000D01*
X36000000Y-174025000D02*
X34875000Y-172900000D01*
X33000000Y-169000000D02*
X30100000Y-166100000D01*
X32900000Y-169100000D02*
X33000000Y-169000000D01*
X34875000Y-172900000D02*
X34400000Y-172900000D01*
X30100000Y-91720000D02*
X24000000Y-85620000D01*
%TO.N,/Column_7_Rows/column_voltage2*%
X64380000Y-20080000D02*
X64500000Y-20200000D01*
X64800000Y-55467336D02*
X64507664Y-55175000D01*
X64800000Y-90200000D02*
X64800000Y-55467336D01*
X64380000Y-17375000D02*
X64380000Y-20080000D01*
%TO.N,/Column_7_Rows/d5_0*%
X66200000Y-21800000D02*
X66200000Y-18095000D01*
X74965328Y-30565328D02*
X66200000Y-21800000D01*
X74965328Y-32175000D02*
X74965328Y-30565328D01*
X66200000Y-18095000D02*
X66920000Y-17375000D01*
%TO.N,/Column_7_Rows/d7_0*%
X75700000Y-21075000D02*
X72000000Y-17375000D01*
X75700000Y-93100000D02*
X75700000Y-21075000D01*
%TD*%
%TA.AperFunction,NonConductor*%
G36*
X52500000Y-39580311D02*
G01*
X52499689Y-39577950D01*
X52500000Y-39575954D01*
X52500000Y-39580311D01*
G37*
%TD.AperFunction*%
%TA.AperFunction,NonConductor*%
G36*
X52500000Y-40282241D02*
G01*
X52466392Y-40156814D01*
X52411650Y-40061999D01*
X52395178Y-39994100D01*
X52411650Y-39938000D01*
X52466392Y-39843186D01*
X52500000Y-39717758D01*
X52500000Y-40282241D01*
G37*
%TD.AperFunction*%
%TA.AperFunction,NonConductor*%
G36*
X52500000Y-40455433D02*
G01*
X52499747Y-40454867D01*
X52499689Y-40422050D01*
X52500000Y-40419688D01*
X52500000Y-40455433D01*
G37*
%TD.AperFunction*%
%TA.AperFunction,NonConductor*%
G36*
X49838026Y-82160185D02*
G01*
X49883781Y-82212989D01*
X49893725Y-82282147D01*
X49872562Y-82335623D01*
X49825965Y-82402169D01*
X49825964Y-82402171D01*
X49726098Y-82616335D01*
X49726094Y-82616344D01*
X49664938Y-82844586D01*
X49664936Y-82844596D01*
X49644341Y-83079999D01*
X49644341Y-83080000D01*
X49664936Y-83315403D01*
X49664938Y-83315411D01*
X49726094Y-83543655D01*
X49726096Y-83543659D01*
X49726097Y-83543663D01*
X49765912Y-83629046D01*
X49825965Y-83757830D01*
X49825967Y-83757834D01*
X49961501Y-83951395D01*
X49961506Y-83951402D01*
X50128597Y-84118493D01*
X50128603Y-84118498D01*
X50314158Y-84248425D01*
X50357783Y-84303002D01*
X50364977Y-84372500D01*
X50333454Y-84434855D01*
X50314158Y-84451575D01*
X50128597Y-84581505D01*
X49961505Y-84748597D01*
X49825965Y-84942169D01*
X49825964Y-84942171D01*
X49726098Y-85156335D01*
X49726094Y-85156344D01*
X49664938Y-85384586D01*
X49664936Y-85384596D01*
X49644341Y-85619999D01*
X49644341Y-85620000D01*
X49664936Y-85855403D01*
X49664938Y-85855412D01*
X49667085Y-85863425D01*
X49665420Y-85933275D01*
X49626256Y-85991136D01*
X49562026Y-86018639D01*
X49547185Y-86018569D01*
X49547185Y-86019499D01*
X49373347Y-86019499D01*
X49373331Y-86019500D01*
X47982412Y-86019500D01*
X47915373Y-85999815D01*
X47905097Y-85992445D01*
X47902263Y-85990185D01*
X47902262Y-85990184D01*
X47811692Y-85933275D01*
X47749523Y-85894211D01*
X47579254Y-85834631D01*
X47579249Y-85834630D01*
X47400004Y-85814435D01*
X47399996Y-85814435D01*
X47238383Y-85832644D01*
X47169561Y-85820589D01*
X47118182Y-85773240D01*
X47100500Y-85709424D01*
X47100500Y-83840097D01*
X47120185Y-83773058D01*
X47136819Y-83752416D01*
X48712416Y-82176819D01*
X48773739Y-82143334D01*
X48800097Y-82140500D01*
X49770987Y-82140500D01*
X49838026Y-82160185D01*
G37*
%TD.AperFunction*%
%TA.AperFunction,NonConductor*%
G36*
X49226942Y-87240185D02*
G01*
X49247584Y-87256819D01*
X49338584Y-87347819D01*
X49372069Y-87409142D01*
X49367085Y-87478834D01*
X49325213Y-87534767D01*
X49259749Y-87559184D01*
X49250903Y-87559500D01*
X47839817Y-87559500D01*
X47772778Y-87539815D01*
X47727023Y-87487011D01*
X47717079Y-87417853D01*
X47746104Y-87354297D01*
X47773845Y-87330506D01*
X47787953Y-87321640D01*
X47902262Y-87249816D01*
X47902267Y-87249810D01*
X47905097Y-87247555D01*
X47907275Y-87246665D01*
X47908158Y-87246111D01*
X47908255Y-87246265D01*
X47969783Y-87221145D01*
X47982412Y-87220500D01*
X49159903Y-87220500D01*
X49226942Y-87240185D01*
G37*
%TD.AperFunction*%
%TA.AperFunction,NonConductor*%
G36*
X49777948Y-78620185D02*
G01*
X49823292Y-78672097D01*
X49825965Y-78677830D01*
X49825966Y-78677831D01*
X49961501Y-78871395D01*
X49961506Y-78871402D01*
X50128597Y-79038493D01*
X50128603Y-79038498D01*
X50314158Y-79168425D01*
X50357783Y-79223002D01*
X50364977Y-79292500D01*
X50333454Y-79354855D01*
X50314158Y-79371575D01*
X50128597Y-79501505D01*
X49961505Y-79668597D01*
X49825965Y-79862169D01*
X49825964Y-79862171D01*
X49726098Y-80076335D01*
X49726094Y-80076344D01*
X49664938Y-80304586D01*
X49664936Y-80304596D01*
X49644341Y-80539999D01*
X49644341Y-80540000D01*
X49664936Y-80775403D01*
X49664938Y-80775412D01*
X49667081Y-80783410D01*
X49665416Y-80853260D01*
X49626252Y-80911121D01*
X49562022Y-80938624D01*
X49547305Y-80939500D01*
X48420943Y-80939500D01*
X48268214Y-80980423D01*
X48227963Y-81003663D01*
X48227962Y-81003663D01*
X48131287Y-81059477D01*
X48131282Y-81059481D01*
X46019481Y-83171282D01*
X46019479Y-83171285D01*
X45969361Y-83258094D01*
X45969359Y-83258096D01*
X45940425Y-83308209D01*
X45940424Y-83308210D01*
X45938495Y-83315411D01*
X45899499Y-83460943D01*
X45899499Y-83460945D01*
X45899499Y-83629046D01*
X45899500Y-83629059D01*
X45899500Y-87496523D01*
X45879815Y-87563562D01*
X45827011Y-87609317D01*
X45757853Y-87619261D01*
X45694297Y-87590236D01*
X45670507Y-87562496D01*
X45629815Y-87497737D01*
X45627550Y-87494896D01*
X45626659Y-87492713D01*
X45626112Y-87491843D01*
X45626264Y-87491747D01*
X45601144Y-87430209D01*
X45600500Y-87417587D01*
X45600500Y-82629600D01*
X45620185Y-82562561D01*
X45636819Y-82541919D01*
X49541919Y-78636819D01*
X49603242Y-78603334D01*
X49629600Y-78600500D01*
X49710909Y-78600500D01*
X49777948Y-78620185D01*
G37*
%TD.AperFunction*%
%TA.AperFunction,NonConductor*%
G36*
X49777948Y-88780185D02*
G01*
X49823292Y-88832097D01*
X49825965Y-88837830D01*
X49825966Y-88837831D01*
X49961501Y-89031395D01*
X49961506Y-89031402D01*
X50083430Y-89153326D01*
X50116915Y-89214649D01*
X50111931Y-89284341D01*
X50070059Y-89340274D01*
X50039083Y-89357189D01*
X49907669Y-89406203D01*
X49907664Y-89406206D01*
X49792455Y-89492452D01*
X49792452Y-89492455D01*
X49706206Y-89607664D01*
X49706202Y-89607671D01*
X49655908Y-89742517D01*
X49649501Y-89802116D01*
X49649500Y-89802135D01*
X49649500Y-91597870D01*
X49649501Y-91597876D01*
X49655908Y-91657483D01*
X49706202Y-91792328D01*
X49706206Y-91792335D01*
X49792452Y-91907544D01*
X49792455Y-91907547D01*
X49907664Y-91993793D01*
X49907671Y-91993797D01*
X49910618Y-91994896D01*
X50042517Y-92044091D01*
X50102127Y-92050500D01*
X50275500Y-92050499D01*
X50342539Y-92070183D01*
X50388294Y-92122987D01*
X50399500Y-92174499D01*
X50399500Y-92799902D01*
X50379815Y-92866941D01*
X50363181Y-92887583D01*
X48492648Y-94758116D01*
X48431325Y-94791601D01*
X48404967Y-94794435D01*
X48399996Y-94794435D01*
X48220750Y-94814630D01*
X48220745Y-94814631D01*
X48050476Y-94874211D01*
X47897737Y-94970184D01*
X47770182Y-95097739D01*
X47729493Y-95162496D01*
X47677158Y-95208787D01*
X47608105Y-95219434D01*
X47544257Y-95191059D01*
X47505885Y-95132669D01*
X47500500Y-95096523D01*
X47500500Y-88900097D01*
X47520185Y-88833058D01*
X47536819Y-88812416D01*
X47552416Y-88796819D01*
X47613739Y-88763334D01*
X47640097Y-88760500D01*
X49710909Y-88760500D01*
X49777948Y-88780185D01*
G37*
%TD.AperFunction*%
%TA.AperFunction,NonConductor*%
G36*
X46838773Y-101821014D02*
G01*
X46886384Y-101872151D01*
X46899500Y-101927656D01*
X46899500Y-102262343D01*
X46879815Y-102329382D01*
X46827011Y-102375137D01*
X46757853Y-102385081D01*
X46694297Y-102356056D01*
X46660939Y-102309796D01*
X46633787Y-102244246D01*
X46621455Y-102225790D01*
X46580094Y-102163889D01*
X46559217Y-102097214D01*
X46577701Y-102029834D01*
X46580078Y-102026134D01*
X46633786Y-101945756D01*
X46660939Y-101880202D01*
X46704780Y-101825800D01*
X46771074Y-101803735D01*
X46838773Y-101821014D01*
G37*
%TD.AperFunction*%
%TA.AperFunction,NonConductor*%
G36*
X51942539Y-92070184D02*
G01*
X51988294Y-92122988D01*
X51999500Y-92174499D01*
X51999500Y-111595107D01*
X51979815Y-111662146D01*
X51947739Y-111692732D01*
X51949135Y-111694552D01*
X51942683Y-111699502D01*
X51849502Y-111792683D01*
X51849500Y-111792686D01*
X51831887Y-111823193D01*
X51781319Y-111871408D01*
X51712712Y-111884630D01*
X51647848Y-111858662D01*
X51607320Y-111801748D01*
X51600500Y-111761192D01*
X51600500Y-93189059D01*
X51600501Y-93189046D01*
X51600501Y-93013348D01*
X51600500Y-93013330D01*
X51600500Y-92174499D01*
X51620185Y-92107460D01*
X51672989Y-92061705D01*
X51724500Y-92050499D01*
X51875500Y-92050499D01*
X51942539Y-92070184D01*
G37*
%TD.AperFunction*%
%TA.AperFunction,NonConductor*%
G36*
X52500000Y-112830311D02*
G01*
X52499689Y-112827950D01*
X52500000Y-112825954D01*
X52500000Y-112830311D01*
G37*
%TD.AperFunction*%
%TA.AperFunction,NonConductor*%
G36*
X52500000Y-113532241D02*
G01*
X52466392Y-113406814D01*
X52411650Y-113311999D01*
X52395178Y-113244100D01*
X52411650Y-113188000D01*
X52466392Y-113093186D01*
X52500000Y-112967758D01*
X52500000Y-113532241D01*
G37*
%TD.AperFunction*%
%TA.AperFunction,NonConductor*%
G36*
X52500000Y-113705433D02*
G01*
X52499747Y-113704867D01*
X52499689Y-113672050D01*
X52500000Y-113669688D01*
X52500000Y-113705433D01*
G37*
%TD.AperFunction*%
%TA.AperFunction,NonConductor*%
G36*
X43205703Y-104203401D02*
G01*
X43241542Y-104256160D01*
X43274210Y-104349521D01*
X43306095Y-104400265D01*
X43370184Y-104502262D01*
X43497738Y-104629816D01*
X43650478Y-104725789D01*
X43761371Y-104764592D01*
X43820745Y-104785368D01*
X43820750Y-104785369D01*
X43999996Y-104805565D01*
X44000000Y-104805565D01*
X44000004Y-104805565D01*
X44179250Y-104785369D01*
X44179251Y-104785368D01*
X44179255Y-104785368D01*
X44204784Y-104776434D01*
X44274560Y-104772871D01*
X44335188Y-104807598D01*
X44345005Y-104819163D01*
X44392455Y-104882547D01*
X44507664Y-104968793D01*
X44507671Y-104968797D01*
X44642517Y-105019091D01*
X44642516Y-105019091D01*
X44649444Y-105019835D01*
X44702127Y-105025500D01*
X45631443Y-105025499D01*
X45698481Y-105045183D01*
X45744236Y-105097987D01*
X45754180Y-105167146D01*
X45725155Y-105230702D01*
X45672397Y-105266540D01*
X45650480Y-105274208D01*
X45497737Y-105370184D01*
X45370184Y-105497737D01*
X45274211Y-105650476D01*
X45214631Y-105820745D01*
X45214630Y-105820750D01*
X45194435Y-105999996D01*
X45194435Y-106000003D01*
X45214630Y-106179249D01*
X45214631Y-106179254D01*
X45274211Y-106349523D01*
X45278067Y-106355659D01*
X45370184Y-106502262D01*
X45497738Y-106629816D01*
X45650478Y-106725789D01*
X45820745Y-106785368D01*
X45820750Y-106785369D01*
X45999996Y-106805565D01*
X46000000Y-106805565D01*
X46000004Y-106805565D01*
X46179249Y-106785369D01*
X46179252Y-106785368D01*
X46179255Y-106785368D01*
X46349522Y-106725789D01*
X46502262Y-106629816D01*
X46629816Y-106502262D01*
X46725789Y-106349522D01*
X46785368Y-106179255D01*
X46795162Y-106092328D01*
X46822226Y-106027918D01*
X46830690Y-106018544D01*
X47037820Y-105811414D01*
X47099142Y-105777930D01*
X47168834Y-105782914D01*
X47224767Y-105824786D01*
X47249184Y-105890250D01*
X47249500Y-105899096D01*
X47249500Y-134592085D01*
X47229815Y-134659124D01*
X47213181Y-134679766D01*
X46419483Y-135473463D01*
X46419481Y-135473466D01*
X46340423Y-135610396D01*
X46340423Y-135610397D01*
X46299499Y-135763125D01*
X46299499Y-135763127D01*
X46299499Y-135921236D01*
X46299498Y-135921236D01*
X46338435Y-136066548D01*
X46340423Y-136073967D01*
X46419481Y-136210898D01*
X46419483Y-136210900D01*
X47173181Y-136964598D01*
X47206666Y-137025921D01*
X47209500Y-137052279D01*
X47209500Y-137552084D01*
X47189815Y-137619123D01*
X47173181Y-137639765D01*
X46310182Y-138502763D01*
X46248859Y-138536248D01*
X46179167Y-138531264D01*
X46136893Y-138500508D01*
X46134740Y-138502662D01*
X46002262Y-138370184D01*
X45849523Y-138274211D01*
X45679254Y-138214631D01*
X45679249Y-138214630D01*
X45500004Y-138194435D01*
X45499996Y-138194435D01*
X45320750Y-138214630D01*
X45320742Y-138214632D01*
X45200470Y-138256717D01*
X45130691Y-138260278D01*
X45070064Y-138225549D01*
X45037837Y-138163555D01*
X45044243Y-138093980D01*
X45044956Y-138092221D01*
X45071089Y-138029132D01*
X45071089Y-138029131D01*
X45071091Y-138029127D01*
X45110500Y-137831003D01*
X45110500Y-137628997D01*
X45071091Y-137430873D01*
X45002224Y-137264615D01*
X44993787Y-137244246D01*
X44981455Y-137225790D01*
X44940094Y-137163889D01*
X44919217Y-137097214D01*
X44937701Y-137029834D01*
X44940078Y-137026134D01*
X44993786Y-136945756D01*
X45071091Y-136759127D01*
X45110500Y-136561003D01*
X45110500Y-136358997D01*
X45071091Y-136160873D01*
X44993786Y-135974244D01*
X44993784Y-135974241D01*
X44993782Y-135974237D01*
X44881558Y-135806281D01*
X44738718Y-135663441D01*
X44570762Y-135551217D01*
X44570752Y-135551212D01*
X44384127Y-135473909D01*
X44384119Y-135473907D01*
X44186007Y-135434500D01*
X44186003Y-135434500D01*
X43533997Y-135434500D01*
X43533992Y-135434500D01*
X43335880Y-135473907D01*
X43335872Y-135473909D01*
X43149247Y-135551212D01*
X43149237Y-135551217D01*
X42981281Y-135663441D01*
X42838444Y-135806278D01*
X42838441Y-135806282D01*
X42727602Y-135972165D01*
X42673990Y-136016970D01*
X42604665Y-136025677D01*
X42541637Y-135995523D01*
X42504918Y-135936080D01*
X42500500Y-135903274D01*
X42500500Y-135000097D01*
X42520185Y-134933058D01*
X42536819Y-134912416D01*
X42670178Y-134779057D01*
X42880520Y-134568716D01*
X42959577Y-134431784D01*
X43000501Y-134279057D01*
X43000501Y-134120942D01*
X43000501Y-134113347D01*
X43000500Y-134113329D01*
X43000500Y-104297114D01*
X43020185Y-104230075D01*
X43072989Y-104184320D01*
X43142147Y-104174376D01*
X43205703Y-104203401D01*
G37*
%TD.AperFunction*%
%TA.AperFunction,NonConductor*%
G36*
X51942539Y-15520185D02*
G01*
X51988294Y-15572989D01*
X51999500Y-15624500D01*
X51999500Y-38345107D01*
X51979815Y-38412146D01*
X51947739Y-38442732D01*
X51949135Y-38444552D01*
X51942683Y-38449502D01*
X51849502Y-38542683D01*
X51849500Y-38542686D01*
X51783608Y-38656812D01*
X51749500Y-38784108D01*
X51749500Y-38915891D01*
X51783609Y-39043188D01*
X51783609Y-39043189D01*
X51788213Y-39051163D01*
X51804686Y-39119063D01*
X51781834Y-39185090D01*
X51742828Y-39220549D01*
X51692689Y-39249497D01*
X51692683Y-39249502D01*
X51599502Y-39342683D01*
X51599500Y-39342686D01*
X51533608Y-39456812D01*
X51499500Y-39584108D01*
X51499500Y-39715891D01*
X51533609Y-39843188D01*
X51533609Y-39843189D01*
X51588348Y-39938000D01*
X51604821Y-40005900D01*
X51588348Y-40062000D01*
X51533609Y-40156810D01*
X51533609Y-40156811D01*
X51499500Y-40284108D01*
X51499500Y-40415891D01*
X51533608Y-40543187D01*
X51545085Y-40563065D01*
X51599500Y-40657314D01*
X51692686Y-40750500D01*
X51742521Y-40779272D01*
X51742827Y-40779449D01*
X51791042Y-40830017D01*
X51804264Y-40898624D01*
X51788215Y-40948833D01*
X51783609Y-40956810D01*
X51783609Y-40956811D01*
X51749500Y-41084108D01*
X51749500Y-41215891D01*
X51783608Y-41343187D01*
X51816554Y-41400250D01*
X51849500Y-41457314D01*
X51942686Y-41550500D01*
X51942688Y-41550501D01*
X51949137Y-41555450D01*
X51947324Y-41557812D01*
X51985710Y-41598062D01*
X51999500Y-41654893D01*
X51999500Y-74272998D01*
X51979815Y-74340037D01*
X51927011Y-74385792D01*
X51857853Y-74395736D01*
X51804377Y-74374573D01*
X51677834Y-74285967D01*
X51677830Y-74285965D01*
X51650022Y-74272998D01*
X51463663Y-74186097D01*
X51463659Y-74186096D01*
X51463655Y-74186094D01*
X51235413Y-74124938D01*
X51235403Y-74124936D01*
X51000001Y-74104341D01*
X50999999Y-74104341D01*
X50764596Y-74124936D01*
X50764586Y-74124938D01*
X50536344Y-74186094D01*
X50536335Y-74186098D01*
X50322171Y-74285964D01*
X50322169Y-74285965D01*
X50128597Y-74421505D01*
X49961505Y-74588597D01*
X49825965Y-74782169D01*
X49825964Y-74782171D01*
X49726098Y-74996335D01*
X49726094Y-74996344D01*
X49664938Y-75224586D01*
X49664936Y-75224596D01*
X49644341Y-75459999D01*
X49644341Y-75460000D01*
X49664936Y-75695403D01*
X49664938Y-75695413D01*
X49726094Y-75923655D01*
X49726096Y-75923659D01*
X49726097Y-75923663D01*
X49825965Y-76137830D01*
X49825967Y-76137834D01*
X49961501Y-76331395D01*
X49961506Y-76331402D01*
X50128597Y-76498493D01*
X50128603Y-76498498D01*
X50314158Y-76628425D01*
X50357783Y-76683002D01*
X50364977Y-76752500D01*
X50333454Y-76814855D01*
X50314158Y-76831575D01*
X50128597Y-76961505D01*
X49961506Y-77128596D01*
X49825965Y-77322170D01*
X49825962Y-77322175D01*
X49823289Y-77327909D01*
X49777115Y-77380346D01*
X49710909Y-77399500D01*
X49416172Y-77399500D01*
X49416156Y-77399499D01*
X49408560Y-77399499D01*
X49250446Y-77399499D01*
X49143090Y-77428265D01*
X49097713Y-77440424D01*
X49097712Y-77440425D01*
X49047599Y-77469359D01*
X49047598Y-77469360D01*
X49004192Y-77494420D01*
X48960788Y-77519479D01*
X48960785Y-77519481D01*
X44519481Y-81960785D01*
X44519477Y-81960790D01*
X44472878Y-82041504D01*
X44472878Y-82041505D01*
X44440423Y-82097717D01*
X44440423Y-82097718D01*
X44399499Y-82250446D01*
X44399499Y-82250448D01*
X44399499Y-82418549D01*
X44399500Y-82418562D01*
X44399500Y-87417587D01*
X44379815Y-87484626D01*
X44372450Y-87494896D01*
X44370186Y-87497734D01*
X44274211Y-87650476D01*
X44214631Y-87820745D01*
X44214630Y-87820750D01*
X44194435Y-87999996D01*
X44194435Y-88000003D01*
X44214630Y-88179249D01*
X44214631Y-88179254D01*
X44274211Y-88349523D01*
X44329494Y-88437504D01*
X44370184Y-88502262D01*
X44497738Y-88629816D01*
X44650478Y-88725789D01*
X44805933Y-88780185D01*
X44820745Y-88785368D01*
X44820750Y-88785369D01*
X44999996Y-88805565D01*
X45000000Y-88805565D01*
X45000004Y-88805565D01*
X45179249Y-88785369D01*
X45179252Y-88785368D01*
X45179255Y-88785368D01*
X45349522Y-88725789D01*
X45502262Y-88629816D01*
X45629816Y-88502262D01*
X45670506Y-88437503D01*
X45722841Y-88391213D01*
X45791894Y-88380565D01*
X45855743Y-88408940D01*
X45894115Y-88467330D01*
X45899500Y-88503476D01*
X45899500Y-96413330D01*
X45899499Y-96413348D01*
X45899499Y-96579054D01*
X45899498Y-96579054D01*
X45899499Y-96579057D01*
X45940423Y-96731785D01*
X45940424Y-96731787D01*
X45940423Y-96731787D01*
X45953553Y-96754527D01*
X45953554Y-96754529D01*
X46019475Y-96868709D01*
X46019481Y-96868717D01*
X46138349Y-96987585D01*
X46138355Y-96987590D01*
X46863181Y-97712416D01*
X46896666Y-97773739D01*
X46899500Y-97800097D01*
X46899500Y-100992343D01*
X46879815Y-101059382D01*
X46827011Y-101105137D01*
X46757853Y-101115081D01*
X46694297Y-101086056D01*
X46660939Y-101039796D01*
X46636062Y-100979739D01*
X46633786Y-100974244D01*
X46633784Y-100974241D01*
X46633782Y-100974237D01*
X46521558Y-100806281D01*
X46378718Y-100663441D01*
X46210762Y-100551217D01*
X46210752Y-100551212D01*
X46024127Y-100473909D01*
X46024119Y-100473907D01*
X45826007Y-100434500D01*
X45826003Y-100434500D01*
X45173997Y-100434500D01*
X45173992Y-100434500D01*
X44975880Y-100473907D01*
X44975872Y-100473909D01*
X44789247Y-100551212D01*
X44789237Y-100551217D01*
X44621281Y-100663441D01*
X44478441Y-100806281D01*
X44366217Y-100974237D01*
X44366212Y-100974247D01*
X44288909Y-101160872D01*
X44288907Y-101160880D01*
X44249500Y-101358992D01*
X44249500Y-101561007D01*
X44288907Y-101759119D01*
X44288909Y-101759127D01*
X44366213Y-101945755D01*
X44419904Y-102026109D01*
X44440782Y-102092787D01*
X44422297Y-102160167D01*
X44419904Y-102163891D01*
X44366213Y-102244244D01*
X44288909Y-102430872D01*
X44288907Y-102430880D01*
X44249500Y-102628992D01*
X44249500Y-102831007D01*
X44288907Y-103029119D01*
X44288910Y-103029131D01*
X44294433Y-103042464D01*
X44301902Y-103111933D01*
X44270626Y-103174412D01*
X44210537Y-103210064D01*
X44165989Y-103213136D01*
X44000004Y-103194435D01*
X43999996Y-103194435D01*
X43820750Y-103214630D01*
X43820745Y-103214631D01*
X43650476Y-103274211D01*
X43497737Y-103370184D01*
X43370184Y-103497737D01*
X43274209Y-103650480D01*
X43241541Y-103743840D01*
X43200820Y-103800616D01*
X43135867Y-103826363D01*
X43067305Y-103812907D01*
X43016903Y-103764519D01*
X43000500Y-103702885D01*
X43000500Y-84682412D01*
X43020185Y-84615373D01*
X43027555Y-84605097D01*
X43029810Y-84602267D01*
X43029816Y-84602262D01*
X43125789Y-84449522D01*
X43185368Y-84279255D01*
X43203481Y-84118495D01*
X43205565Y-84100003D01*
X43205565Y-84099996D01*
X43185369Y-83920750D01*
X43185368Y-83920745D01*
X43157148Y-83840097D01*
X43125789Y-83750478D01*
X43029816Y-83597738D01*
X42902262Y-83470184D01*
X42887555Y-83460943D01*
X42749523Y-83374211D01*
X42579254Y-83314631D01*
X42579249Y-83314630D01*
X42400004Y-83294435D01*
X42399996Y-83294435D01*
X42220750Y-83314630D01*
X42220745Y-83314631D01*
X42050476Y-83374211D01*
X41897737Y-83470184D01*
X41770184Y-83597737D01*
X41674211Y-83750476D01*
X41614631Y-83920745D01*
X41614630Y-83920750D01*
X41594435Y-84099996D01*
X41594435Y-84100003D01*
X41614630Y-84279249D01*
X41614631Y-84279254D01*
X41674211Y-84449523D01*
X41734515Y-84545496D01*
X41757141Y-84581505D01*
X41770185Y-84602263D01*
X41772445Y-84605097D01*
X41773334Y-84607275D01*
X41773889Y-84608158D01*
X41773734Y-84608255D01*
X41798855Y-84669783D01*
X41799500Y-84682412D01*
X41799500Y-100368060D01*
X41779815Y-100435099D01*
X41727011Y-100480854D01*
X41657853Y-100490798D01*
X41594297Y-100461773D01*
X41587819Y-100455741D01*
X41502262Y-100370184D01*
X41349523Y-100274211D01*
X41179254Y-100214631D01*
X41179249Y-100214630D01*
X41000004Y-100194435D01*
X40999996Y-100194435D01*
X40820750Y-100214630D01*
X40820745Y-100214631D01*
X40650476Y-100274211D01*
X40497737Y-100370184D01*
X40370184Y-100497737D01*
X40274211Y-100650476D01*
X40214631Y-100820745D01*
X40214630Y-100820750D01*
X40194435Y-100999996D01*
X40194435Y-101000003D01*
X40214630Y-101179249D01*
X40214631Y-101179254D01*
X40274211Y-101349523D01*
X40329150Y-101436957D01*
X40370184Y-101502262D01*
X40497738Y-101629816D01*
X40544590Y-101659255D01*
X40641363Y-101720062D01*
X40650478Y-101725789D01*
X40745730Y-101759119D01*
X40820745Y-101785368D01*
X40820750Y-101785369D01*
X40999996Y-101805565D01*
X41000000Y-101805565D01*
X41000004Y-101805565D01*
X41179249Y-101785369D01*
X41179252Y-101785368D01*
X41179255Y-101785368D01*
X41349522Y-101725789D01*
X41502262Y-101629816D01*
X41587819Y-101544259D01*
X41649142Y-101510774D01*
X41718834Y-101515758D01*
X41774767Y-101557630D01*
X41799184Y-101623094D01*
X41799500Y-101631940D01*
X41799500Y-133899901D01*
X41779815Y-133966940D01*
X41763181Y-133987582D01*
X41524214Y-134226548D01*
X41524215Y-134226549D01*
X41419478Y-134331286D01*
X41419475Y-134331290D01*
X41373074Y-134411661D01*
X41373074Y-134411662D01*
X41340423Y-134468214D01*
X41340423Y-134468215D01*
X41299499Y-134620943D01*
X41299499Y-134620945D01*
X41299499Y-134789046D01*
X41299500Y-134789059D01*
X41299500Y-138099902D01*
X41279815Y-138166941D01*
X41263181Y-138187583D01*
X39481465Y-139969298D01*
X39420142Y-140002783D01*
X39407668Y-140004837D01*
X39320750Y-140014630D01*
X39150478Y-140074210D01*
X38997737Y-140170184D01*
X38870184Y-140297737D01*
X38774211Y-140450476D01*
X38714631Y-140620745D01*
X38714630Y-140620750D01*
X38694435Y-140799996D01*
X38694435Y-140800003D01*
X38714630Y-140979249D01*
X38714631Y-140979254D01*
X38774211Y-141149523D01*
X38852365Y-141273903D01*
X38870184Y-141302262D01*
X38997738Y-141429816D01*
X39150478Y-141525789D01*
X39320745Y-141585368D01*
X39320750Y-141585369D01*
X39499996Y-141605565D01*
X39500000Y-141605565D01*
X39500004Y-141605565D01*
X39679249Y-141585369D01*
X39679252Y-141585368D01*
X39679255Y-141585368D01*
X39849522Y-141525789D01*
X40002262Y-141429816D01*
X40129816Y-141302262D01*
X40225789Y-141149522D01*
X40285368Y-140979255D01*
X40295161Y-140892329D01*
X40322226Y-140827918D01*
X40330690Y-140818543D01*
X42380520Y-138768716D01*
X42380523Y-138768709D01*
X42385470Y-138762265D01*
X42387566Y-138763874D01*
X42428668Y-138724676D01*
X42497273Y-138711445D01*
X42562141Y-138737406D01*
X42602676Y-138794316D01*
X42609500Y-138834885D01*
X42609500Y-139572870D01*
X42609501Y-139572876D01*
X42615908Y-139632483D01*
X42666202Y-139767328D01*
X42666206Y-139767335D01*
X42752452Y-139882544D01*
X42752455Y-139882547D01*
X42867664Y-139968793D01*
X42867671Y-139968797D01*
X43002517Y-140019091D01*
X43002516Y-140019091D01*
X43009444Y-140019835D01*
X43062127Y-140025500D01*
X44488084Y-140025499D01*
X44555123Y-140045184D01*
X44600878Y-140097987D01*
X44610822Y-140167146D01*
X44581797Y-140230702D01*
X44575765Y-140237180D01*
X38531286Y-146281660D01*
X38419481Y-146393464D01*
X38419479Y-146393467D01*
X38369361Y-146480276D01*
X38369359Y-146480278D01*
X38340425Y-146530391D01*
X38340424Y-146530392D01*
X38340423Y-146530397D01*
X38299499Y-146683125D01*
X38299499Y-146683127D01*
X38299499Y-146851228D01*
X38299500Y-146851241D01*
X38299500Y-170811498D01*
X38279815Y-170878537D01*
X38227011Y-170924292D01*
X38157853Y-170934236D01*
X38094297Y-170905211D01*
X38073925Y-170882621D01*
X37970827Y-170735381D01*
X37898887Y-170663441D01*
X37814620Y-170579174D01*
X37814616Y-170579171D01*
X37814615Y-170579170D01*
X37633666Y-170452468D01*
X37633662Y-170452466D01*
X37633660Y-170452465D01*
X37433450Y-170359106D01*
X37433447Y-170359105D01*
X37433445Y-170359104D01*
X37220070Y-170301930D01*
X37220062Y-170301929D01*
X37000002Y-170282677D01*
X36999998Y-170282677D01*
X36779937Y-170301929D01*
X36779929Y-170301930D01*
X36566554Y-170359104D01*
X36566548Y-170359107D01*
X36366340Y-170452465D01*
X36366338Y-170452466D01*
X36185377Y-170579175D01*
X36029175Y-170735377D01*
X35902466Y-170916338D01*
X35902462Y-170916345D01*
X35874038Y-170977300D01*
X35827865Y-171029739D01*
X35760671Y-171048890D01*
X35693791Y-171028673D01*
X35649276Y-170977300D01*
X35597534Y-170866339D01*
X35499499Y-170726330D01*
X35470827Y-170685381D01*
X35448887Y-170663441D01*
X35314620Y-170529174D01*
X35314616Y-170529171D01*
X35314615Y-170529170D01*
X35133666Y-170402468D01*
X35133662Y-170402466D01*
X35133660Y-170402465D01*
X34933450Y-170309106D01*
X34933447Y-170309105D01*
X34933445Y-170309104D01*
X34720070Y-170251930D01*
X34720062Y-170251929D01*
X34500002Y-170232677D01*
X34499998Y-170232677D01*
X34279937Y-170251929D01*
X34279929Y-170251930D01*
X34066554Y-170309104D01*
X34066548Y-170309107D01*
X33866340Y-170402465D01*
X33866338Y-170402466D01*
X33695623Y-170522001D01*
X33629416Y-170544328D01*
X33561649Y-170527317D01*
X33513837Y-170476369D01*
X33500500Y-170420426D01*
X33500500Y-169367332D01*
X33517114Y-169305331D01*
X33559573Y-169231790D01*
X33559575Y-169231787D01*
X33559576Y-169231785D01*
X33600500Y-169079058D01*
X33600500Y-168920943D01*
X33600499Y-168920939D01*
X33586373Y-168868216D01*
X33559577Y-168768218D01*
X33559576Y-168768215D01*
X33523534Y-168705789D01*
X33480519Y-168631284D01*
X30736819Y-165887584D01*
X30703334Y-165826261D01*
X30700500Y-165799903D01*
X30700500Y-139999999D01*
X33104341Y-139999999D01*
X33104341Y-140000000D01*
X33124936Y-140235403D01*
X33124938Y-140235413D01*
X33186094Y-140463655D01*
X33186096Y-140463659D01*
X33186097Y-140463663D01*
X33259346Y-140620745D01*
X33285965Y-140677830D01*
X33285967Y-140677834D01*
X33384486Y-140818533D01*
X33421505Y-140871401D01*
X33588599Y-141038495D01*
X33685384Y-141106265D01*
X33782165Y-141174032D01*
X33782167Y-141174033D01*
X33782170Y-141174035D01*
X33996337Y-141273903D01*
X34224592Y-141335063D01*
X34401034Y-141350500D01*
X34459999Y-141355659D01*
X34460000Y-141355659D01*
X34460001Y-141355659D01*
X34518966Y-141350500D01*
X34695408Y-141335063D01*
X34923663Y-141273903D01*
X35137830Y-141174035D01*
X35331401Y-141038495D01*
X35453329Y-140916566D01*
X35514648Y-140883084D01*
X35584340Y-140888068D01*
X35640274Y-140929939D01*
X35657189Y-140960917D01*
X35706202Y-141092328D01*
X35706206Y-141092335D01*
X35792452Y-141207544D01*
X35792455Y-141207547D01*
X35907664Y-141293793D01*
X35907671Y-141293797D01*
X36042517Y-141344091D01*
X36042516Y-141344091D01*
X36049444Y-141344835D01*
X36102127Y-141350500D01*
X37897872Y-141350499D01*
X37957483Y-141344091D01*
X38092331Y-141293796D01*
X38207546Y-141207546D01*
X38293796Y-141092331D01*
X38344091Y-140957483D01*
X38350500Y-140897873D01*
X38350499Y-139102128D01*
X38344091Y-139042517D01*
X38342810Y-139039083D01*
X38293797Y-138907671D01*
X38293793Y-138907664D01*
X38207547Y-138792455D01*
X38207544Y-138792452D01*
X38092335Y-138706206D01*
X38092328Y-138706202D01*
X37957482Y-138655908D01*
X37957483Y-138655908D01*
X37897883Y-138649501D01*
X37897881Y-138649500D01*
X37897873Y-138649500D01*
X37897864Y-138649500D01*
X36102129Y-138649500D01*
X36102123Y-138649501D01*
X36042516Y-138655908D01*
X35907671Y-138706202D01*
X35907664Y-138706206D01*
X35792455Y-138792452D01*
X35792452Y-138792455D01*
X35706206Y-138907664D01*
X35706203Y-138907669D01*
X35657189Y-139039083D01*
X35615317Y-139095016D01*
X35549853Y-139119433D01*
X35481580Y-139104581D01*
X35453326Y-139083430D01*
X35331402Y-138961506D01*
X35331395Y-138961501D01*
X35137834Y-138825967D01*
X35137830Y-138825965D01*
X35137828Y-138825964D01*
X34923663Y-138726097D01*
X34923659Y-138726096D01*
X34923655Y-138726094D01*
X34695413Y-138664938D01*
X34695403Y-138664936D01*
X34460001Y-138644341D01*
X34459999Y-138644341D01*
X34224596Y-138664936D01*
X34224586Y-138664938D01*
X33996344Y-138726094D01*
X33996335Y-138726098D01*
X33782171Y-138825964D01*
X33782169Y-138825965D01*
X33588597Y-138961505D01*
X33421505Y-139128597D01*
X33285965Y-139322169D01*
X33285964Y-139322171D01*
X33186098Y-139536335D01*
X33186094Y-139536344D01*
X33124938Y-139764586D01*
X33124936Y-139764596D01*
X33104341Y-139999999D01*
X30700500Y-139999999D01*
X30700500Y-136499996D01*
X32194435Y-136499996D01*
X32194435Y-136500003D01*
X32214630Y-136679249D01*
X32214631Y-136679254D01*
X32274211Y-136849523D01*
X32326947Y-136933451D01*
X32370184Y-137002262D01*
X32497738Y-137129816D01*
X32544590Y-137159255D01*
X32644487Y-137222025D01*
X32650478Y-137225789D01*
X32820739Y-137285366D01*
X32820745Y-137285368D01*
X32820750Y-137285369D01*
X32999996Y-137305565D01*
X33000000Y-137305565D01*
X33000004Y-137305565D01*
X33179249Y-137285369D01*
X33179251Y-137285368D01*
X33179255Y-137285368D01*
X33179258Y-137285366D01*
X33179262Y-137285366D01*
X33296775Y-137244246D01*
X33349522Y-137225789D01*
X33355514Y-137222023D01*
X33422745Y-137203021D01*
X33489582Y-137223385D01*
X33523062Y-137255891D01*
X33529174Y-137264620D01*
X33685378Y-137420824D01*
X33685384Y-137420829D01*
X33866333Y-137547531D01*
X33866335Y-137547532D01*
X33866338Y-137547534D01*
X34066550Y-137640894D01*
X34279932Y-137698070D01*
X34437123Y-137711822D01*
X34499998Y-137717323D01*
X34500000Y-137717323D01*
X34500002Y-137717323D01*
X34555017Y-137712509D01*
X34720068Y-137698070D01*
X34933450Y-137640894D01*
X35133662Y-137547534D01*
X35314620Y-137420826D01*
X35470826Y-137264620D01*
X35597534Y-137083662D01*
X35625962Y-137022697D01*
X35672131Y-136970262D01*
X35739325Y-136951109D01*
X35806206Y-136971324D01*
X35850723Y-137022699D01*
X35864517Y-137052279D01*
X35902466Y-137133662D01*
X35902468Y-137133666D01*
X36029170Y-137314615D01*
X36029175Y-137314621D01*
X36185378Y-137470824D01*
X36185384Y-137470829D01*
X36366333Y-137597531D01*
X36366335Y-137597532D01*
X36366338Y-137597534D01*
X36566550Y-137690894D01*
X36779932Y-137748070D01*
X36937123Y-137761822D01*
X36999998Y-137767323D01*
X37000000Y-137767323D01*
X37000002Y-137767323D01*
X37055017Y-137762509D01*
X37220068Y-137748070D01*
X37433450Y-137690894D01*
X37633662Y-137597534D01*
X37814620Y-137470826D01*
X37970826Y-137314620D01*
X38097534Y-137133662D01*
X38190894Y-136933450D01*
X38248070Y-136720068D01*
X38267323Y-136500000D01*
X38267323Y-136499996D01*
X39194435Y-136499996D01*
X39194435Y-136500003D01*
X39214630Y-136679249D01*
X39214631Y-136679254D01*
X39274211Y-136849523D01*
X39326947Y-136933451D01*
X39370184Y-137002262D01*
X39497738Y-137129816D01*
X39544590Y-137159255D01*
X39644487Y-137222025D01*
X39650478Y-137225789D01*
X39820739Y-137285366D01*
X39820745Y-137285368D01*
X39820750Y-137285369D01*
X39999996Y-137305565D01*
X40000000Y-137305565D01*
X40000004Y-137305565D01*
X40179249Y-137285369D01*
X40179252Y-137285368D01*
X40179255Y-137285368D01*
X40349522Y-137225789D01*
X40502262Y-137129816D01*
X40629816Y-137002262D01*
X40725789Y-136849522D01*
X40785368Y-136679255D01*
X40790864Y-136630476D01*
X40805565Y-136500003D01*
X40805565Y-136499996D01*
X40785369Y-136320750D01*
X40785368Y-136320745D01*
X40748410Y-136215125D01*
X40725789Y-136150478D01*
X40629816Y-135997738D01*
X40502262Y-135870184D01*
X40416570Y-135816340D01*
X40349523Y-135774211D01*
X40179254Y-135714631D01*
X40179249Y-135714630D01*
X40000004Y-135694435D01*
X39999996Y-135694435D01*
X39820750Y-135714630D01*
X39820745Y-135714631D01*
X39650476Y-135774211D01*
X39497737Y-135870184D01*
X39370184Y-135997737D01*
X39274211Y-136150476D01*
X39214631Y-136320745D01*
X39214630Y-136320750D01*
X39194435Y-136499996D01*
X38267323Y-136499996D01*
X38265375Y-136477738D01*
X38251641Y-136320750D01*
X38248070Y-136279932D01*
X38190894Y-136066550D01*
X38097534Y-135866339D01*
X37995377Y-135720442D01*
X37970827Y-135685381D01*
X37895842Y-135610396D01*
X37814620Y-135529174D01*
X37814616Y-135529171D01*
X37814615Y-135529170D01*
X37633666Y-135402468D01*
X37633662Y-135402466D01*
X37591732Y-135382914D01*
X37433450Y-135309106D01*
X37433447Y-135309105D01*
X37433445Y-135309104D01*
X37220070Y-135251930D01*
X37220062Y-135251929D01*
X37000002Y-135232677D01*
X36999998Y-135232677D01*
X36779937Y-135251929D01*
X36779929Y-135251930D01*
X36566554Y-135309104D01*
X36566548Y-135309107D01*
X36366340Y-135402465D01*
X36366338Y-135402466D01*
X36185377Y-135529175D01*
X36029175Y-135685377D01*
X35902466Y-135866338D01*
X35902462Y-135866345D01*
X35874038Y-135927300D01*
X35827865Y-135979739D01*
X35760671Y-135998890D01*
X35693791Y-135978673D01*
X35649276Y-135927300D01*
X35597534Y-135816339D01*
X35530387Y-135720442D01*
X35470827Y-135635381D01*
X35445842Y-135610396D01*
X35314620Y-135479174D01*
X35314616Y-135479171D01*
X35314615Y-135479170D01*
X35133666Y-135352468D01*
X35133662Y-135352466D01*
X35133660Y-135352465D01*
X34933450Y-135259106D01*
X34933447Y-135259105D01*
X34933445Y-135259104D01*
X34720070Y-135201930D01*
X34720062Y-135201929D01*
X34500002Y-135182677D01*
X34499998Y-135182677D01*
X34279937Y-135201929D01*
X34279929Y-135201930D01*
X34066554Y-135259104D01*
X34066548Y-135259107D01*
X33866340Y-135352465D01*
X33866338Y-135352466D01*
X33685381Y-135479172D01*
X33529174Y-135635380D01*
X33469612Y-135720442D01*
X33415034Y-135764066D01*
X33345536Y-135771258D01*
X33327084Y-135766359D01*
X33179257Y-135714632D01*
X33179249Y-135714630D01*
X33000004Y-135694435D01*
X32999996Y-135694435D01*
X32820750Y-135714630D01*
X32820745Y-135714631D01*
X32650476Y-135774211D01*
X32497737Y-135870184D01*
X32370184Y-135997737D01*
X32274211Y-136150476D01*
X32214631Y-136320745D01*
X32214630Y-136320750D01*
X32194435Y-136499996D01*
X30700500Y-136499996D01*
X30700500Y-104999999D01*
X33104341Y-104999999D01*
X33104341Y-105000000D01*
X33124936Y-105235403D01*
X33124938Y-105235413D01*
X33186094Y-105463655D01*
X33186096Y-105463659D01*
X33186097Y-105463663D01*
X33204096Y-105502262D01*
X33285965Y-105677830D01*
X33285967Y-105677834D01*
X33363611Y-105788720D01*
X33421505Y-105871401D01*
X33588599Y-106038495D01*
X33665485Y-106092331D01*
X33782165Y-106174032D01*
X33782167Y-106174033D01*
X33782170Y-106174035D01*
X33996337Y-106273903D01*
X34224592Y-106335063D01*
X34401034Y-106350500D01*
X34459999Y-106355659D01*
X34460000Y-106355659D01*
X34460001Y-106355659D01*
X34518966Y-106350500D01*
X34695408Y-106335063D01*
X34923663Y-106273903D01*
X35137830Y-106174035D01*
X35331401Y-106038495D01*
X35453329Y-105916566D01*
X35514648Y-105883084D01*
X35584340Y-105888068D01*
X35640274Y-105929939D01*
X35657189Y-105960917D01*
X35706202Y-106092328D01*
X35706205Y-106092333D01*
X35792452Y-106207544D01*
X35792455Y-106207547D01*
X35907664Y-106293793D01*
X35907671Y-106293797D01*
X36042517Y-106344091D01*
X36042516Y-106344091D01*
X36049444Y-106344835D01*
X36102127Y-106350500D01*
X37897872Y-106350499D01*
X37957483Y-106344091D01*
X38092331Y-106293796D01*
X38207546Y-106207546D01*
X38293796Y-106092331D01*
X38344091Y-105957483D01*
X38348772Y-105913943D01*
X38375510Y-105849395D01*
X38432902Y-105809547D01*
X38485945Y-105803981D01*
X38500000Y-105805565D01*
X38500001Y-105805564D01*
X38500003Y-105805565D01*
X38500004Y-105805565D01*
X38679249Y-105785369D01*
X38679252Y-105785368D01*
X38679255Y-105785368D01*
X38849522Y-105725789D01*
X39002262Y-105629816D01*
X39129816Y-105502262D01*
X39225789Y-105349522D01*
X39285368Y-105179255D01*
X39285369Y-105179249D01*
X39305565Y-105000003D01*
X39305565Y-104999996D01*
X39285369Y-104820750D01*
X39285368Y-104820745D01*
X39225788Y-104650476D01*
X39154068Y-104536335D01*
X39129816Y-104497738D01*
X39002262Y-104370184D01*
X38925847Y-104322169D01*
X38849523Y-104274211D01*
X38679254Y-104214631D01*
X38679249Y-104214630D01*
X38500004Y-104194435D01*
X38500002Y-104194435D01*
X38500000Y-104194435D01*
X38490666Y-104195486D01*
X38485940Y-104196019D01*
X38417119Y-104183962D01*
X38365741Y-104136612D01*
X38348770Y-104086051D01*
X38344091Y-104042517D01*
X38342810Y-104039083D01*
X38293797Y-103907671D01*
X38293793Y-103907664D01*
X38207547Y-103792455D01*
X38207544Y-103792452D01*
X38092335Y-103706206D01*
X38092328Y-103706202D01*
X37957482Y-103655908D01*
X37957483Y-103655908D01*
X37897883Y-103649501D01*
X37897881Y-103649500D01*
X37897873Y-103649500D01*
X37897864Y-103649500D01*
X36102129Y-103649500D01*
X36102123Y-103649501D01*
X36042516Y-103655908D01*
X35907671Y-103706202D01*
X35907664Y-103706206D01*
X35792455Y-103792452D01*
X35792452Y-103792455D01*
X35706206Y-103907664D01*
X35706203Y-103907669D01*
X35657189Y-104039083D01*
X35615317Y-104095016D01*
X35549853Y-104119433D01*
X35481580Y-104104581D01*
X35453326Y-104083430D01*
X35331402Y-103961506D01*
X35331395Y-103961501D01*
X35137834Y-103825967D01*
X35137830Y-103825965D01*
X35083469Y-103800616D01*
X34923663Y-103726097D01*
X34923659Y-103726096D01*
X34923655Y-103726094D01*
X34695413Y-103664938D01*
X34695403Y-103664936D01*
X34460001Y-103644341D01*
X34459999Y-103644341D01*
X34224596Y-103664936D01*
X34224586Y-103664938D01*
X33996344Y-103726094D01*
X33996335Y-103726098D01*
X33782171Y-103825964D01*
X33782169Y-103825965D01*
X33588597Y-103961505D01*
X33421505Y-104128597D01*
X33285965Y-104322169D01*
X33285964Y-104322171D01*
X33186098Y-104536335D01*
X33186094Y-104536344D01*
X33124938Y-104764586D01*
X33124936Y-104764596D01*
X33104341Y-104999999D01*
X30700500Y-104999999D01*
X30700500Y-101499996D01*
X32194435Y-101499996D01*
X32194435Y-101500003D01*
X32214630Y-101679249D01*
X32214631Y-101679254D01*
X32274211Y-101849523D01*
X32326947Y-101933451D01*
X32370184Y-102002262D01*
X32497738Y-102129816D01*
X32551968Y-102163891D01*
X32644487Y-102222025D01*
X32650478Y-102225789D01*
X32763591Y-102265369D01*
X32820745Y-102285368D01*
X32820750Y-102285369D01*
X32999996Y-102305565D01*
X33000000Y-102305565D01*
X33000004Y-102305565D01*
X33179249Y-102285369D01*
X33179251Y-102285368D01*
X33179255Y-102285368D01*
X33179258Y-102285366D01*
X33179262Y-102285366D01*
X33296775Y-102244246D01*
X33349522Y-102225789D01*
X33355514Y-102222023D01*
X33422745Y-102203021D01*
X33489582Y-102223385D01*
X33523062Y-102255891D01*
X33529174Y-102264620D01*
X33685378Y-102420824D01*
X33685384Y-102420829D01*
X33866333Y-102547531D01*
X33866335Y-102547532D01*
X33866338Y-102547534D01*
X34066550Y-102640894D01*
X34279932Y-102698070D01*
X34437123Y-102711822D01*
X34499998Y-102717323D01*
X34500000Y-102717323D01*
X34500002Y-102717323D01*
X34555017Y-102712509D01*
X34720068Y-102698070D01*
X34933450Y-102640894D01*
X35133662Y-102547534D01*
X35314620Y-102420826D01*
X35470826Y-102264620D01*
X35597534Y-102083662D01*
X35625962Y-102022697D01*
X35672131Y-101970262D01*
X35739325Y-101951109D01*
X35806206Y-101971324D01*
X35850723Y-102022699D01*
X35900672Y-102129815D01*
X35902466Y-102133662D01*
X35902468Y-102133666D01*
X36029170Y-102314615D01*
X36029175Y-102314621D01*
X36185378Y-102470824D01*
X36185384Y-102470829D01*
X36366333Y-102597531D01*
X36366335Y-102597532D01*
X36366338Y-102597534D01*
X36566550Y-102690894D01*
X36779932Y-102748070D01*
X36937123Y-102761822D01*
X36999998Y-102767323D01*
X37000000Y-102767323D01*
X37000002Y-102767323D01*
X37055017Y-102762509D01*
X37220068Y-102748070D01*
X37433450Y-102690894D01*
X37633662Y-102597534D01*
X37814620Y-102470826D01*
X37970826Y-102314620D01*
X38097534Y-102133662D01*
X38190894Y-101933450D01*
X38248070Y-101720068D01*
X38265307Y-101523042D01*
X38267323Y-101500002D01*
X38267323Y-101499997D01*
X38251641Y-101320750D01*
X38248070Y-101279932D01*
X38190894Y-101066550D01*
X38097534Y-100866339D01*
X37995377Y-100720442D01*
X37970827Y-100685381D01*
X37920826Y-100635380D01*
X37814620Y-100529174D01*
X37814616Y-100529171D01*
X37814615Y-100529170D01*
X37633666Y-100402468D01*
X37633662Y-100402466D01*
X37633660Y-100402465D01*
X37433450Y-100309106D01*
X37433447Y-100309105D01*
X37433445Y-100309104D01*
X37220070Y-100251930D01*
X37220062Y-100251929D01*
X37000002Y-100232677D01*
X36999998Y-100232677D01*
X36779937Y-100251929D01*
X36779929Y-100251930D01*
X36566554Y-100309104D01*
X36566548Y-100309107D01*
X36366340Y-100402465D01*
X36366338Y-100402466D01*
X36185377Y-100529175D01*
X36029175Y-100685377D01*
X35902466Y-100866338D01*
X35902462Y-100866345D01*
X35874038Y-100927300D01*
X35827865Y-100979739D01*
X35760671Y-100998890D01*
X35693791Y-100978673D01*
X35649276Y-100927300D01*
X35597534Y-100816339D01*
X35530387Y-100720442D01*
X35470827Y-100635381D01*
X35470826Y-100635380D01*
X35314620Y-100479174D01*
X35314616Y-100479171D01*
X35314615Y-100479170D01*
X35133666Y-100352468D01*
X35133662Y-100352466D01*
X35133660Y-100352465D01*
X34933450Y-100259106D01*
X34933447Y-100259105D01*
X34933445Y-100259104D01*
X34720070Y-100201930D01*
X34720062Y-100201929D01*
X34500002Y-100182677D01*
X34499998Y-100182677D01*
X34279937Y-100201929D01*
X34279929Y-100201930D01*
X34066554Y-100259104D01*
X34066548Y-100259107D01*
X33866340Y-100352465D01*
X33866338Y-100352466D01*
X33685381Y-100479172D01*
X33529174Y-100635380D01*
X33469612Y-100720442D01*
X33415034Y-100764066D01*
X33345536Y-100771258D01*
X33327084Y-100766359D01*
X33179257Y-100714632D01*
X33179249Y-100714630D01*
X33000004Y-100694435D01*
X32999996Y-100694435D01*
X32820750Y-100714630D01*
X32820745Y-100714631D01*
X32650476Y-100774211D01*
X32497737Y-100870184D01*
X32370184Y-100997737D01*
X32274211Y-101150476D01*
X32214631Y-101320745D01*
X32214630Y-101320750D01*
X32194435Y-101499996D01*
X30700500Y-101499996D01*
X30700500Y-93131940D01*
X30720185Y-93064901D01*
X30772989Y-93019146D01*
X30842147Y-93009202D01*
X30905703Y-93038227D01*
X30912181Y-93044259D01*
X30997738Y-93129816D01*
X31150478Y-93225789D01*
X31320745Y-93285368D01*
X31320750Y-93285369D01*
X31499996Y-93305565D01*
X31500000Y-93305565D01*
X31500004Y-93305565D01*
X31679249Y-93285369D01*
X31679252Y-93285368D01*
X31679255Y-93285368D01*
X31849522Y-93225789D01*
X32002262Y-93129816D01*
X32129816Y-93002262D01*
X32225789Y-92849522D01*
X32285368Y-92679255D01*
X32305565Y-92500000D01*
X32285368Y-92320745D01*
X32225789Y-92150478D01*
X32129816Y-91997738D01*
X32129814Y-91997736D01*
X32129813Y-91997734D01*
X32127550Y-91994896D01*
X32126659Y-91992715D01*
X32126111Y-91991842D01*
X32126264Y-91991745D01*
X32101144Y-91930209D01*
X32100500Y-91917587D01*
X32100500Y-72089060D01*
X32100501Y-72089047D01*
X32100501Y-71920944D01*
X32100501Y-71920943D01*
X32059577Y-71768216D01*
X32008216Y-71679255D01*
X31980524Y-71631290D01*
X31980522Y-71631287D01*
X31980521Y-71631286D01*
X31980520Y-71631284D01*
X31830698Y-71481463D01*
X31797215Y-71420142D01*
X31795163Y-71407686D01*
X31785368Y-71320745D01*
X31725789Y-71150478D01*
X31629816Y-70997738D01*
X31502262Y-70870184D01*
X31396901Y-70803981D01*
X31349523Y-70774211D01*
X31179254Y-70714631D01*
X31179249Y-70714630D01*
X31000004Y-70694435D01*
X30999996Y-70694435D01*
X30820750Y-70714630D01*
X30820745Y-70714631D01*
X30650476Y-70774211D01*
X30497737Y-70870184D01*
X30370184Y-70997737D01*
X30274211Y-71150476D01*
X30214631Y-71320745D01*
X30214630Y-71320750D01*
X30194435Y-71499996D01*
X30194435Y-71500003D01*
X30214630Y-71679249D01*
X30214631Y-71679254D01*
X30274211Y-71849523D01*
X30319088Y-71920944D01*
X30370184Y-72002262D01*
X30497738Y-72129816D01*
X30650478Y-72225789D01*
X30816455Y-72283867D01*
X30873230Y-72324588D01*
X30898978Y-72389540D01*
X30899500Y-72400908D01*
X30899500Y-91444051D01*
X30879815Y-91511090D01*
X30827011Y-91556845D01*
X30757853Y-91566789D01*
X30694297Y-91537764D01*
X30663642Y-91495253D01*
X30663641Y-91495254D01*
X30663631Y-91495237D01*
X30660940Y-91491505D01*
X30659577Y-91488215D01*
X30580524Y-91351290D01*
X30580518Y-91351282D01*
X27989736Y-88760500D01*
X25332765Y-86103530D01*
X25299281Y-86042208D01*
X25300672Y-85983757D01*
X25301863Y-85979309D01*
X25335063Y-85855408D01*
X25355659Y-85620000D01*
X25335063Y-85384592D01*
X25273903Y-85156337D01*
X25174035Y-84942171D01*
X25038495Y-84748599D01*
X25038494Y-84748597D01*
X24871402Y-84581506D01*
X24871396Y-84581501D01*
X24685842Y-84451575D01*
X24642217Y-84396998D01*
X24635023Y-84327500D01*
X24666546Y-84265145D01*
X24685842Y-84248425D01*
X24708026Y-84232891D01*
X24871401Y-84118495D01*
X25038495Y-83951401D01*
X25174035Y-83757830D01*
X25273903Y-83543663D01*
X25335063Y-83315408D01*
X25355659Y-83080000D01*
X25335063Y-82844592D01*
X25273903Y-82616337D01*
X25174035Y-82402171D01*
X25067797Y-82250446D01*
X25038494Y-82208597D01*
X24871401Y-82041505D01*
X24871396Y-82041501D01*
X24685842Y-81911575D01*
X24642217Y-81856998D01*
X24635023Y-81787500D01*
X24666546Y-81725145D01*
X24685842Y-81708425D01*
X24708026Y-81692891D01*
X24871401Y-81578495D01*
X25038495Y-81411401D01*
X25174035Y-81217830D01*
X25273903Y-81003663D01*
X25335063Y-80775408D01*
X25355659Y-80540000D01*
X25335063Y-80304592D01*
X25273903Y-80076337D01*
X25174035Y-79862171D01*
X25038495Y-79668599D01*
X25038494Y-79668597D01*
X24871402Y-79501506D01*
X24871396Y-79501501D01*
X24685842Y-79371575D01*
X24642217Y-79316998D01*
X24635023Y-79247500D01*
X24666546Y-79185145D01*
X24685842Y-79168425D01*
X24708026Y-79152891D01*
X24871401Y-79038495D01*
X25038495Y-78871401D01*
X25174035Y-78677830D01*
X25273903Y-78463663D01*
X25335063Y-78235408D01*
X25355659Y-78000000D01*
X25335063Y-77764592D01*
X25273903Y-77536337D01*
X25174035Y-77322171D01*
X25174034Y-77322169D01*
X25038496Y-77128600D01*
X24999500Y-77089604D01*
X24916567Y-77006671D01*
X24883084Y-76945351D01*
X24888068Y-76875659D01*
X24929939Y-76819725D01*
X24960915Y-76802810D01*
X25092331Y-76753796D01*
X25207546Y-76667546D01*
X25293796Y-76552331D01*
X25344091Y-76417483D01*
X25350500Y-76357873D01*
X25350499Y-74562128D01*
X25344091Y-74502517D01*
X25304264Y-74395736D01*
X25293797Y-74367671D01*
X25293793Y-74367664D01*
X25207547Y-74252455D01*
X25207544Y-74252452D01*
X25092335Y-74166206D01*
X25092328Y-74166202D01*
X24957482Y-74115908D01*
X24957483Y-74115908D01*
X24897883Y-74109501D01*
X24897881Y-74109500D01*
X24897873Y-74109500D01*
X24897865Y-74109500D01*
X23124500Y-74109500D01*
X23057461Y-74089815D01*
X23011706Y-74037011D01*
X23000500Y-73985500D01*
X23000500Y-69999999D01*
X33104341Y-69999999D01*
X33104341Y-70000000D01*
X33124936Y-70235403D01*
X33124938Y-70235413D01*
X33186094Y-70463655D01*
X33186096Y-70463659D01*
X33186097Y-70463663D01*
X33204096Y-70502262D01*
X33285965Y-70677830D01*
X33285967Y-70677834D01*
X33363611Y-70788720D01*
X33421505Y-70871401D01*
X33588599Y-71038495D01*
X33685384Y-71106265D01*
X33782165Y-71174032D01*
X33782167Y-71174033D01*
X33782170Y-71174035D01*
X33996337Y-71273903D01*
X34224592Y-71335063D01*
X34401034Y-71350500D01*
X34459999Y-71355659D01*
X34460000Y-71355659D01*
X34460001Y-71355659D01*
X34518966Y-71350500D01*
X34695408Y-71335063D01*
X34923663Y-71273903D01*
X35137830Y-71174035D01*
X35331401Y-71038495D01*
X35453329Y-70916566D01*
X35514648Y-70883084D01*
X35584340Y-70888068D01*
X35640274Y-70929939D01*
X35657189Y-70960917D01*
X35706202Y-71092328D01*
X35706206Y-71092335D01*
X35792452Y-71207544D01*
X35792455Y-71207547D01*
X35907664Y-71293793D01*
X35907671Y-71293797D01*
X36042517Y-71344091D01*
X36042516Y-71344091D01*
X36049444Y-71344835D01*
X36102127Y-71350500D01*
X37897872Y-71350499D01*
X37957483Y-71344091D01*
X38092331Y-71293796D01*
X38207546Y-71207546D01*
X38293796Y-71092331D01*
X38344091Y-70957483D01*
X38348772Y-70913943D01*
X38375510Y-70849395D01*
X38432902Y-70809547D01*
X38485945Y-70803981D01*
X38500000Y-70805565D01*
X38500001Y-70805564D01*
X38500003Y-70805565D01*
X38500004Y-70805565D01*
X38679249Y-70785369D01*
X38679252Y-70785368D01*
X38679255Y-70785368D01*
X38849522Y-70725789D01*
X39002262Y-70629816D01*
X39129816Y-70502262D01*
X39225789Y-70349522D01*
X39285368Y-70179255D01*
X39305565Y-70000000D01*
X39302049Y-69968797D01*
X39285369Y-69820750D01*
X39285368Y-69820745D01*
X39266678Y-69767331D01*
X39225789Y-69650478D01*
X39214481Y-69632482D01*
X39129815Y-69497737D01*
X39002262Y-69370184D01*
X38849523Y-69274211D01*
X38679254Y-69214631D01*
X38679249Y-69214630D01*
X38500004Y-69194435D01*
X38500002Y-69194435D01*
X38500000Y-69194435D01*
X38490666Y-69195486D01*
X38485940Y-69196019D01*
X38417119Y-69183962D01*
X38365741Y-69136612D01*
X38348770Y-69086051D01*
X38344091Y-69042517D01*
X38342810Y-69039083D01*
X38293797Y-68907671D01*
X38293793Y-68907664D01*
X38207547Y-68792455D01*
X38207544Y-68792452D01*
X38092335Y-68706206D01*
X38092328Y-68706202D01*
X37957482Y-68655908D01*
X37957483Y-68655908D01*
X37897883Y-68649501D01*
X37897881Y-68649500D01*
X37897873Y-68649500D01*
X37897864Y-68649500D01*
X36102129Y-68649500D01*
X36102123Y-68649501D01*
X36042516Y-68655908D01*
X35907671Y-68706202D01*
X35907664Y-68706206D01*
X35792455Y-68792452D01*
X35792452Y-68792455D01*
X35706206Y-68907664D01*
X35706203Y-68907669D01*
X35657189Y-69039083D01*
X35615317Y-69095016D01*
X35549853Y-69119433D01*
X35481580Y-69104581D01*
X35453326Y-69083430D01*
X35331402Y-68961506D01*
X35331395Y-68961501D01*
X35137834Y-68825967D01*
X35137830Y-68825965D01*
X35137828Y-68825964D01*
X34923663Y-68726097D01*
X34923659Y-68726096D01*
X34923655Y-68726094D01*
X34695413Y-68664938D01*
X34695403Y-68664936D01*
X34460001Y-68644341D01*
X34459999Y-68644341D01*
X34224596Y-68664936D01*
X34224586Y-68664938D01*
X33996344Y-68726094D01*
X33996335Y-68726098D01*
X33782171Y-68825964D01*
X33782169Y-68825965D01*
X33588597Y-68961505D01*
X33421505Y-69128597D01*
X33285965Y-69322169D01*
X33285964Y-69322171D01*
X33186098Y-69536335D01*
X33186094Y-69536344D01*
X33124938Y-69764586D01*
X33124936Y-69764596D01*
X33104341Y-69999999D01*
X23000500Y-69999999D01*
X23000500Y-66499996D01*
X31674435Y-66499996D01*
X31674435Y-66500003D01*
X31694630Y-66679249D01*
X31694631Y-66679254D01*
X31754211Y-66849523D01*
X31809429Y-66937401D01*
X31850184Y-67002262D01*
X31977738Y-67129816D01*
X32130478Y-67225789D01*
X32300742Y-67285367D01*
X32300745Y-67285368D01*
X32300750Y-67285369D01*
X32479996Y-67305565D01*
X32480000Y-67305565D01*
X32480004Y-67305565D01*
X32659249Y-67285369D01*
X32659252Y-67285368D01*
X32659255Y-67285368D01*
X32829522Y-67225789D01*
X32982262Y-67129816D01*
X33109816Y-67002262D01*
X33121484Y-66983691D01*
X33173817Y-66937401D01*
X33242870Y-66926751D01*
X33306719Y-66955125D01*
X33338860Y-66997258D01*
X33402466Y-67133662D01*
X33402468Y-67133666D01*
X33529170Y-67314615D01*
X33529175Y-67314621D01*
X33685378Y-67470824D01*
X33685384Y-67470829D01*
X33866333Y-67597531D01*
X33866335Y-67597532D01*
X33866338Y-67597534D01*
X34066550Y-67690894D01*
X34279932Y-67748070D01*
X34437123Y-67761822D01*
X34499998Y-67767323D01*
X34500000Y-67767323D01*
X34500002Y-67767323D01*
X34555017Y-67762509D01*
X34720068Y-67748070D01*
X34933450Y-67690894D01*
X35133662Y-67597534D01*
X35314620Y-67470826D01*
X35470826Y-67314620D01*
X35597534Y-67133662D01*
X35625962Y-67072697D01*
X35672131Y-67020262D01*
X35739325Y-67001109D01*
X35806206Y-67021324D01*
X35850723Y-67072699D01*
X35862155Y-67097214D01*
X35902466Y-67183662D01*
X35902468Y-67183666D01*
X36029170Y-67364615D01*
X36029175Y-67364621D01*
X36185378Y-67520824D01*
X36185384Y-67520829D01*
X36366333Y-67647531D01*
X36366335Y-67647532D01*
X36366338Y-67647534D01*
X36566550Y-67740894D01*
X36779932Y-67798070D01*
X36937123Y-67811822D01*
X36999998Y-67817323D01*
X37000000Y-67817323D01*
X37000002Y-67817323D01*
X37055017Y-67812509D01*
X37220068Y-67798070D01*
X37433450Y-67740894D01*
X37633662Y-67647534D01*
X37814620Y-67520826D01*
X37970826Y-67364620D01*
X37981126Y-67349908D01*
X38035701Y-67306283D01*
X38068809Y-67297811D01*
X38179255Y-67285368D01*
X38349522Y-67225789D01*
X38502262Y-67129816D01*
X38629816Y-67002262D01*
X38725789Y-66849522D01*
X38785368Y-66679255D01*
X38785369Y-66679249D01*
X38805565Y-66500003D01*
X38805565Y-66499996D01*
X38789678Y-66358992D01*
X44249500Y-66358992D01*
X44249500Y-66561007D01*
X44288907Y-66759119D01*
X44288909Y-66759127D01*
X44366213Y-66945755D01*
X44419904Y-67026109D01*
X44440782Y-67092787D01*
X44422297Y-67160167D01*
X44419904Y-67163891D01*
X44366213Y-67244244D01*
X44288909Y-67430872D01*
X44288907Y-67430880D01*
X44249500Y-67628992D01*
X44249500Y-67831007D01*
X44288907Y-68029119D01*
X44288909Y-68029127D01*
X44322325Y-68109800D01*
X44329794Y-68179270D01*
X44310038Y-68224660D01*
X44310454Y-68224887D01*
X44307919Y-68229528D01*
X44307037Y-68231556D01*
X44306206Y-68232665D01*
X44306202Y-68232672D01*
X44255908Y-68367517D01*
X44249501Y-68427116D01*
X44249501Y-68427123D01*
X44249500Y-68427135D01*
X44249500Y-69572870D01*
X44249501Y-69572876D01*
X44255908Y-69632483D01*
X44306202Y-69767328D01*
X44306206Y-69767335D01*
X44392452Y-69882544D01*
X44392455Y-69882547D01*
X44507664Y-69968793D01*
X44507671Y-69968797D01*
X44642517Y-70019091D01*
X44642516Y-70019091D01*
X44649444Y-70019835D01*
X44702127Y-70025500D01*
X46297872Y-70025499D01*
X46357483Y-70019091D01*
X46492331Y-69968796D01*
X46607546Y-69882546D01*
X46693796Y-69767331D01*
X46744091Y-69632483D01*
X46750500Y-69572873D01*
X46750499Y-68427128D01*
X46744091Y-68367517D01*
X46693796Y-68232669D01*
X46692967Y-68231562D01*
X46692485Y-68230268D01*
X46689546Y-68224886D01*
X46690319Y-68224463D01*
X46668551Y-68166099D01*
X46677675Y-68109798D01*
X46711089Y-68029132D01*
X46711089Y-68029131D01*
X46711091Y-68029127D01*
X46750500Y-67831003D01*
X46750500Y-67628997D01*
X46711091Y-67430873D01*
X46633786Y-67244244D01*
X46580094Y-67163889D01*
X46559217Y-67097214D01*
X46577701Y-67029834D01*
X46580078Y-67026134D01*
X46633786Y-66945756D01*
X46711091Y-66759127D01*
X46712907Y-66749996D01*
X47919435Y-66749996D01*
X47919435Y-66750003D01*
X47939630Y-66929249D01*
X47939631Y-66929254D01*
X47999211Y-67099523D01*
X48052082Y-67183666D01*
X48095184Y-67252262D01*
X48222738Y-67379816D01*
X48375478Y-67475789D01*
X48504195Y-67520829D01*
X48545745Y-67535368D01*
X48545750Y-67535369D01*
X48724996Y-67555565D01*
X48725000Y-67555565D01*
X48725004Y-67555565D01*
X48904249Y-67535369D01*
X48904252Y-67535368D01*
X48904255Y-67535368D01*
X49074522Y-67475789D01*
X49227262Y-67379816D01*
X49354816Y-67252262D01*
X49450789Y-67099522D01*
X49510368Y-66929255D01*
X49530565Y-66750000D01*
X49526975Y-66718140D01*
X49510369Y-66570750D01*
X49510368Y-66570745D01*
X49450788Y-66400476D01*
X49405552Y-66328484D01*
X49354816Y-66247738D01*
X49227262Y-66120184D01*
X49221479Y-66116550D01*
X49074523Y-66024211D01*
X48904254Y-65964631D01*
X48904249Y-65964630D01*
X48725004Y-65944435D01*
X48724996Y-65944435D01*
X48545750Y-65964630D01*
X48545745Y-65964631D01*
X48375476Y-66024211D01*
X48222737Y-66120184D01*
X48095184Y-66247737D01*
X47999211Y-66400476D01*
X47939631Y-66570745D01*
X47939630Y-66570750D01*
X47919435Y-66749996D01*
X46712907Y-66749996D01*
X46750500Y-66561003D01*
X46750500Y-66358997D01*
X46711091Y-66160873D01*
X46633786Y-65974244D01*
X46633784Y-65974241D01*
X46633782Y-65974237D01*
X46521558Y-65806281D01*
X46378718Y-65663441D01*
X46210762Y-65551217D01*
X46210752Y-65551212D01*
X46024127Y-65473909D01*
X46024119Y-65473907D01*
X45826007Y-65434500D01*
X45826003Y-65434500D01*
X45173997Y-65434500D01*
X45173992Y-65434500D01*
X44975880Y-65473907D01*
X44975872Y-65473909D01*
X44789247Y-65551212D01*
X44789237Y-65551217D01*
X44621281Y-65663441D01*
X44478441Y-65806281D01*
X44366217Y-65974237D01*
X44366212Y-65974247D01*
X44288909Y-66160872D01*
X44288907Y-66160880D01*
X44249500Y-66358992D01*
X38789678Y-66358992D01*
X38785369Y-66320750D01*
X38785368Y-66320745D01*
X38725788Y-66150476D01*
X38661957Y-66048890D01*
X38629816Y-65997738D01*
X38502262Y-65870184D01*
X38400563Y-65806282D01*
X38349523Y-65774211D01*
X38179254Y-65714631D01*
X38179249Y-65714630D01*
X38000004Y-65694435D01*
X38000001Y-65694435D01*
X38000000Y-65694435D01*
X37996316Y-65694849D01*
X37993948Y-65694435D01*
X37993037Y-65694435D01*
X37993037Y-65694275D01*
X37927495Y-65682793D01*
X37894756Y-65659310D01*
X37814621Y-65579175D01*
X37814615Y-65579170D01*
X37633666Y-65452468D01*
X37633662Y-65452466D01*
X37633660Y-65452465D01*
X37433450Y-65359106D01*
X37433447Y-65359105D01*
X37433445Y-65359104D01*
X37220070Y-65301930D01*
X37220062Y-65301929D01*
X37000002Y-65282677D01*
X36999998Y-65282677D01*
X36779937Y-65301929D01*
X36779929Y-65301930D01*
X36566554Y-65359104D01*
X36566548Y-65359107D01*
X36366340Y-65452465D01*
X36366338Y-65452466D01*
X36185377Y-65579175D01*
X36029175Y-65735377D01*
X35902466Y-65916338D01*
X35902462Y-65916345D01*
X35874038Y-65977300D01*
X35827865Y-66029739D01*
X35760671Y-66048890D01*
X35693791Y-66028673D01*
X35649276Y-65977300D01*
X35597534Y-65866339D01*
X35505834Y-65735377D01*
X35470827Y-65685381D01*
X35444756Y-65659310D01*
X35314620Y-65529174D01*
X35314616Y-65529171D01*
X35314615Y-65529170D01*
X35133666Y-65402468D01*
X35133662Y-65402466D01*
X35133660Y-65402465D01*
X34933450Y-65309106D01*
X34933447Y-65309105D01*
X34933445Y-65309104D01*
X34720070Y-65251930D01*
X34720062Y-65251929D01*
X34500002Y-65232677D01*
X34499998Y-65232677D01*
X34279937Y-65251929D01*
X34279929Y-65251930D01*
X34066554Y-65309104D01*
X34066548Y-65309107D01*
X33866340Y-65402465D01*
X33866338Y-65402466D01*
X33685377Y-65529175D01*
X33529175Y-65685377D01*
X33402466Y-65866338D01*
X33402465Y-65866340D01*
X33338860Y-66002741D01*
X33292687Y-66055180D01*
X33225494Y-66074332D01*
X33158612Y-66054116D01*
X33121484Y-66016308D01*
X33109816Y-65997738D01*
X32982262Y-65870184D01*
X32880563Y-65806282D01*
X32829523Y-65774211D01*
X32659254Y-65714631D01*
X32659249Y-65714630D01*
X32480004Y-65694435D01*
X32479996Y-65694435D01*
X32300750Y-65714630D01*
X32300745Y-65714631D01*
X32130476Y-65774211D01*
X31977737Y-65870184D01*
X31850184Y-65997737D01*
X31754211Y-66150476D01*
X31694631Y-66320745D01*
X31694630Y-66320750D01*
X31674435Y-66499996D01*
X23000500Y-66499996D01*
X23000500Y-34999999D01*
X33104341Y-34999999D01*
X33104341Y-35000000D01*
X33124936Y-35235403D01*
X33124938Y-35235413D01*
X33186094Y-35463655D01*
X33186096Y-35463659D01*
X33186097Y-35463663D01*
X33270499Y-35644663D01*
X33285965Y-35677830D01*
X33285967Y-35677834D01*
X33394281Y-35832521D01*
X33421505Y-35871401D01*
X33588599Y-36038495D01*
X33685384Y-36106265D01*
X33782165Y-36174032D01*
X33782167Y-36174033D01*
X33782170Y-36174035D01*
X33996337Y-36273903D01*
X34224592Y-36335063D01*
X34401034Y-36350500D01*
X34459999Y-36355659D01*
X34460000Y-36355659D01*
X34460001Y-36355659D01*
X34518966Y-36350500D01*
X34695408Y-36335063D01*
X34923663Y-36273903D01*
X35137830Y-36174035D01*
X35331401Y-36038495D01*
X35453329Y-35916566D01*
X35514648Y-35883084D01*
X35584340Y-35888068D01*
X35640274Y-35929939D01*
X35657189Y-35960917D01*
X35706202Y-36092328D01*
X35706206Y-36092335D01*
X35792452Y-36207544D01*
X35792455Y-36207547D01*
X35907664Y-36293793D01*
X35907671Y-36293797D01*
X36042517Y-36344091D01*
X36042516Y-36344091D01*
X36049444Y-36344835D01*
X36102127Y-36350500D01*
X37897872Y-36350499D01*
X37957483Y-36344091D01*
X38092331Y-36293796D01*
X38207546Y-36207546D01*
X38293796Y-36092331D01*
X38344091Y-35957483D01*
X38350500Y-35897873D01*
X38350499Y-34102128D01*
X38344091Y-34042517D01*
X38342810Y-34039083D01*
X38293797Y-33907671D01*
X38293793Y-33907664D01*
X38207547Y-33792455D01*
X38207544Y-33792452D01*
X38092335Y-33706206D01*
X38092328Y-33706202D01*
X37957486Y-33655910D01*
X37957485Y-33655909D01*
X37957483Y-33655909D01*
X37913943Y-33651227D01*
X37849395Y-33624490D01*
X37809547Y-33567098D01*
X37803981Y-33514054D01*
X37805565Y-33500000D01*
X37785368Y-33320745D01*
X37725789Y-33150478D01*
X37629816Y-32997738D01*
X37502262Y-32870184D01*
X37349523Y-32774211D01*
X37179254Y-32714631D01*
X37179249Y-32714630D01*
X37000004Y-32694435D01*
X36999996Y-32694435D01*
X36820750Y-32714630D01*
X36820745Y-32714631D01*
X36650476Y-32774211D01*
X36497737Y-32870184D01*
X36370184Y-32997737D01*
X36274211Y-33150476D01*
X36214631Y-33320745D01*
X36214630Y-33320750D01*
X36194435Y-33499996D01*
X36194435Y-33499997D01*
X36196019Y-33514058D01*
X36183962Y-33582880D01*
X36136612Y-33634258D01*
X36086052Y-33651229D01*
X36042516Y-33655909D01*
X35907671Y-33706202D01*
X35907664Y-33706206D01*
X35792455Y-33792452D01*
X35792452Y-33792455D01*
X35706206Y-33907664D01*
X35706203Y-33907669D01*
X35657189Y-34039083D01*
X35615317Y-34095016D01*
X35549853Y-34119433D01*
X35481580Y-34104581D01*
X35453326Y-34083430D01*
X35331402Y-33961506D01*
X35331395Y-33961501D01*
X35137834Y-33825967D01*
X35137830Y-33825965D01*
X35137828Y-33825964D01*
X34923663Y-33726097D01*
X34923659Y-33726096D01*
X34923655Y-33726094D01*
X34695413Y-33664938D01*
X34695403Y-33664936D01*
X34460001Y-33644341D01*
X34459999Y-33644341D01*
X34224596Y-33664936D01*
X34224586Y-33664938D01*
X33996344Y-33726094D01*
X33996335Y-33726098D01*
X33782171Y-33825964D01*
X33782169Y-33825965D01*
X33588597Y-33961505D01*
X33421505Y-34128597D01*
X33285965Y-34322169D01*
X33285964Y-34322171D01*
X33186098Y-34536335D01*
X33186094Y-34536344D01*
X33124938Y-34764586D01*
X33124936Y-34764596D01*
X33104341Y-34999999D01*
X23000500Y-34999999D01*
X23000500Y-27673992D01*
X32394500Y-27673992D01*
X32394500Y-28326007D01*
X32433907Y-28524119D01*
X32433909Y-28524127D01*
X32511212Y-28710752D01*
X32511217Y-28710762D01*
X32623441Y-28878718D01*
X32766281Y-29021558D01*
X32934237Y-29133782D01*
X32934241Y-29133784D01*
X32934244Y-29133786D01*
X33120873Y-29211091D01*
X33286777Y-29244091D01*
X33318992Y-29250499D01*
X33318996Y-29250500D01*
X33318997Y-29250500D01*
X33521004Y-29250500D01*
X33521005Y-29250499D01*
X33719127Y-29211091D01*
X33905756Y-29133786D01*
X33986110Y-29080094D01*
X34052786Y-29059217D01*
X34120166Y-29077701D01*
X34123865Y-29080078D01*
X34204244Y-29133786D01*
X34390873Y-29211091D01*
X34556777Y-29244091D01*
X34588992Y-29250499D01*
X34588996Y-29250500D01*
X34588997Y-29250500D01*
X34791004Y-29250500D01*
X34791005Y-29250499D01*
X34989127Y-29211091D01*
X35069798Y-29177674D01*
X35139267Y-29170205D01*
X35184658Y-29189962D01*
X35184886Y-29189546D01*
X35189540Y-29192087D01*
X35191562Y-29192967D01*
X35192669Y-29193796D01*
X35192670Y-29193796D01*
X35192671Y-29193797D01*
X35327517Y-29244091D01*
X35327516Y-29244091D01*
X35334444Y-29244835D01*
X35387127Y-29250500D01*
X36532872Y-29250499D01*
X36592483Y-29244091D01*
X36727331Y-29193796D01*
X36842546Y-29107546D01*
X36928796Y-28992331D01*
X36979091Y-28857483D01*
X36985500Y-28797873D01*
X36985499Y-27202128D01*
X36979091Y-27142517D01*
X36971170Y-27121281D01*
X36928797Y-27007671D01*
X36928793Y-27007664D01*
X36842547Y-26892455D01*
X36842544Y-26892452D01*
X36727335Y-26806206D01*
X36727328Y-26806202D01*
X36592482Y-26755908D01*
X36592483Y-26755908D01*
X36532883Y-26749501D01*
X36532881Y-26749500D01*
X36532873Y-26749500D01*
X36532864Y-26749500D01*
X35387129Y-26749500D01*
X35387123Y-26749501D01*
X35327516Y-26755908D01*
X35192672Y-26806202D01*
X35192665Y-26806206D01*
X35191556Y-26807037D01*
X35190258Y-26807520D01*
X35184887Y-26810454D01*
X35184465Y-26809681D01*
X35126090Y-26831449D01*
X35069800Y-26822325D01*
X34989127Y-26788909D01*
X34989119Y-26788907D01*
X34791007Y-26749500D01*
X34791003Y-26749500D01*
X34588997Y-26749500D01*
X34588992Y-26749500D01*
X34390880Y-26788907D01*
X34390872Y-26788909D01*
X34204244Y-26866213D01*
X34123891Y-26919904D01*
X34057213Y-26940782D01*
X33989833Y-26922297D01*
X33986109Y-26919904D01*
X33905755Y-26866213D01*
X33719127Y-26788909D01*
X33719119Y-26788907D01*
X33521007Y-26749500D01*
X33521003Y-26749500D01*
X33318997Y-26749500D01*
X33318992Y-26749500D01*
X33120880Y-26788907D01*
X33120872Y-26788909D01*
X32934247Y-26866212D01*
X32934237Y-26866217D01*
X32766281Y-26978441D01*
X32623441Y-27121281D01*
X32511217Y-27289237D01*
X32511212Y-27289247D01*
X32433909Y-27475872D01*
X32433907Y-27475880D01*
X32394500Y-27673992D01*
X23000500Y-27673992D01*
X23000500Y-20768713D01*
X29649500Y-20768713D01*
X29649500Y-21231287D01*
X29682754Y-21441243D01*
X29744025Y-21629816D01*
X29748444Y-21643414D01*
X29844951Y-21832820D01*
X29969890Y-22004786D01*
X30120213Y-22155109D01*
X30292179Y-22280048D01*
X30292181Y-22280049D01*
X30292184Y-22280051D01*
X30481588Y-22376557D01*
X30683757Y-22442246D01*
X30893713Y-22475500D01*
X30893714Y-22475500D01*
X31106286Y-22475500D01*
X31106287Y-22475500D01*
X31316243Y-22442246D01*
X31518412Y-22376557D01*
X31707816Y-22280051D01*
X31729789Y-22264086D01*
X31879786Y-22155109D01*
X31879788Y-22155106D01*
X31879792Y-22155104D01*
X32030104Y-22004792D01*
X32149683Y-21840204D01*
X32205011Y-21797540D01*
X32274624Y-21791561D01*
X32336420Y-21824166D01*
X32350313Y-21840199D01*
X32453925Y-21982809D01*
X32469896Y-22004792D01*
X32620213Y-22155109D01*
X32792179Y-22280048D01*
X32792181Y-22280049D01*
X32792184Y-22280051D01*
X32981588Y-22376557D01*
X33183757Y-22442246D01*
X33393713Y-22475500D01*
X33393714Y-22475500D01*
X33606286Y-22475500D01*
X33606287Y-22475500D01*
X33816243Y-22442246D01*
X34018412Y-22376557D01*
X34207816Y-22280051D01*
X34379792Y-22155104D01*
X34518604Y-22016291D01*
X34579923Y-21982809D01*
X34649615Y-21987793D01*
X34705549Y-22029664D01*
X34711821Y-22038878D01*
X34715185Y-22044333D01*
X34715186Y-22044334D01*
X34807288Y-22193656D01*
X34931344Y-22317712D01*
X35080666Y-22409814D01*
X35247203Y-22464999D01*
X35349991Y-22475500D01*
X36650008Y-22475499D01*
X36752797Y-22464999D01*
X36919334Y-22409814D01*
X37068656Y-22317712D01*
X37192712Y-22193656D01*
X37284814Y-22044334D01*
X37337194Y-21886260D01*
X37376964Y-21828819D01*
X37441480Y-21801995D01*
X37468777Y-21802046D01*
X37500000Y-21805565D01*
X37500000Y-21805564D01*
X37500001Y-21805565D01*
X37500004Y-21805565D01*
X37679249Y-21785369D01*
X37679252Y-21785368D01*
X37679255Y-21785368D01*
X37849522Y-21725789D01*
X38002262Y-21629816D01*
X38129816Y-21502262D01*
X38225789Y-21349522D01*
X38285368Y-21179255D01*
X38305565Y-21000000D01*
X38285368Y-20820745D01*
X38225789Y-20650478D01*
X38129816Y-20497738D01*
X38002262Y-20370184D01*
X37975761Y-20353532D01*
X37849523Y-20274211D01*
X37679254Y-20214631D01*
X37679249Y-20214630D01*
X37500004Y-20194435D01*
X37500001Y-20194435D01*
X37500000Y-20194435D01*
X37495083Y-20194988D01*
X37468779Y-20197952D01*
X37399957Y-20185895D01*
X37348579Y-20138544D01*
X37337193Y-20113735D01*
X37302104Y-20007845D01*
X37284814Y-19955666D01*
X37192712Y-19806344D01*
X37068656Y-19682288D01*
X36919334Y-19590186D01*
X36752797Y-19535001D01*
X36752795Y-19535000D01*
X36650010Y-19524500D01*
X35349998Y-19524500D01*
X35349981Y-19524501D01*
X35247203Y-19535000D01*
X35247200Y-19535001D01*
X35080668Y-19590185D01*
X35080663Y-19590187D01*
X34931342Y-19682289D01*
X34807289Y-19806342D01*
X34711821Y-19961121D01*
X34659873Y-20007845D01*
X34590910Y-20019068D01*
X34526828Y-19991224D01*
X34518601Y-19983705D01*
X34379786Y-19844890D01*
X34207820Y-19719951D01*
X34018414Y-19623444D01*
X34018413Y-19623443D01*
X34018412Y-19623443D01*
X33816243Y-19557754D01*
X33816241Y-19557753D01*
X33816240Y-19557753D01*
X33654957Y-19532208D01*
X33606287Y-19524500D01*
X33393713Y-19524500D01*
X33345042Y-19532208D01*
X33183760Y-19557753D01*
X32981585Y-19623444D01*
X32792179Y-19719951D01*
X32620213Y-19844890D01*
X32469894Y-19995209D01*
X32469890Y-19995214D01*
X32350318Y-20159793D01*
X32294989Y-20202459D01*
X32225375Y-20208438D01*
X32163580Y-20175833D01*
X32149682Y-20159793D01*
X32030109Y-19995214D01*
X32030105Y-19995209D01*
X31879786Y-19844890D01*
X31707820Y-19719951D01*
X31518414Y-19623444D01*
X31518413Y-19623443D01*
X31518412Y-19623443D01*
X31316243Y-19557754D01*
X31316241Y-19557753D01*
X31316240Y-19557753D01*
X31154957Y-19532208D01*
X31106287Y-19524500D01*
X30893713Y-19524500D01*
X30845042Y-19532208D01*
X30683760Y-19557753D01*
X30481585Y-19623444D01*
X30292179Y-19719951D01*
X30120213Y-19844890D01*
X29969890Y-19995213D01*
X29844951Y-20167179D01*
X29748444Y-20356585D01*
X29682753Y-20558760D01*
X29649500Y-20768713D01*
X23000500Y-20768713D01*
X23000500Y-17397648D01*
X23699500Y-17397648D01*
X23699500Y-17602351D01*
X23731522Y-17804534D01*
X23794781Y-17999223D01*
X23887715Y-18181613D01*
X24008028Y-18347213D01*
X24152786Y-18491971D01*
X24307749Y-18604556D01*
X24318390Y-18612287D01*
X24434607Y-18671503D01*
X24500776Y-18705218D01*
X24500778Y-18705218D01*
X24500781Y-18705220D01*
X24605137Y-18739127D01*
X24695465Y-18768477D01*
X24796557Y-18784488D01*
X24897648Y-18800500D01*
X24897649Y-18800500D01*
X25102351Y-18800500D01*
X25102352Y-18800500D01*
X25304534Y-18768477D01*
X25499219Y-18705220D01*
X25681610Y-18612287D01*
X25774590Y-18544732D01*
X25847213Y-18491971D01*
X25847215Y-18491968D01*
X25847219Y-18491966D01*
X25991966Y-18347219D01*
X25991968Y-18347215D01*
X25991971Y-18347213D01*
X26044732Y-18274590D01*
X26112287Y-18181610D01*
X26205220Y-17999219D01*
X26268477Y-17804534D01*
X26300500Y-17602352D01*
X26300500Y-17397648D01*
X48699500Y-17397648D01*
X48699500Y-17602351D01*
X48731522Y-17804534D01*
X48794781Y-17999223D01*
X48887715Y-18181613D01*
X49008028Y-18347213D01*
X49152786Y-18491971D01*
X49307749Y-18604556D01*
X49318390Y-18612287D01*
X49434607Y-18671503D01*
X49500776Y-18705218D01*
X49500778Y-18705218D01*
X49500781Y-18705220D01*
X49605137Y-18739127D01*
X49695465Y-18768477D01*
X49796557Y-18784488D01*
X49897648Y-18800500D01*
X49897649Y-18800500D01*
X50102351Y-18800500D01*
X50102352Y-18800500D01*
X50304534Y-18768477D01*
X50499219Y-18705220D01*
X50681610Y-18612287D01*
X50774590Y-18544732D01*
X50847213Y-18491971D01*
X50847215Y-18491968D01*
X50847219Y-18491966D01*
X50991966Y-18347219D01*
X50991968Y-18347215D01*
X50991971Y-18347213D01*
X51044732Y-18274590D01*
X51112287Y-18181610D01*
X51205220Y-17999219D01*
X51268477Y-17804534D01*
X51300500Y-17602352D01*
X51300500Y-17397648D01*
X51268477Y-17195466D01*
X51205220Y-17000781D01*
X51205218Y-17000778D01*
X51205218Y-17000776D01*
X51171503Y-16934607D01*
X51112287Y-16818390D01*
X51104556Y-16807749D01*
X50991971Y-16652786D01*
X50847213Y-16508028D01*
X50681613Y-16387715D01*
X50681612Y-16387714D01*
X50681610Y-16387713D01*
X50624653Y-16358691D01*
X50499223Y-16294781D01*
X50304534Y-16231522D01*
X50129995Y-16203878D01*
X50102352Y-16199500D01*
X49897648Y-16199500D01*
X49873329Y-16203351D01*
X49695465Y-16231522D01*
X49500776Y-16294781D01*
X49318386Y-16387715D01*
X49152786Y-16508028D01*
X49008028Y-16652786D01*
X48887715Y-16818386D01*
X48794781Y-17000776D01*
X48731522Y-17195465D01*
X48699500Y-17397648D01*
X26300500Y-17397648D01*
X26268477Y-17195466D01*
X26205220Y-17000781D01*
X26205218Y-17000778D01*
X26205218Y-17000776D01*
X26171503Y-16934607D01*
X26112287Y-16818390D01*
X26104556Y-16807749D01*
X25991971Y-16652786D01*
X25847213Y-16508028D01*
X25681613Y-16387715D01*
X25681612Y-16387714D01*
X25681610Y-16387713D01*
X25624653Y-16358691D01*
X25499223Y-16294781D01*
X25304534Y-16231522D01*
X25129995Y-16203878D01*
X25102352Y-16199500D01*
X24897648Y-16199500D01*
X24873329Y-16203351D01*
X24695465Y-16231522D01*
X24500776Y-16294781D01*
X24318386Y-16387715D01*
X24152786Y-16508028D01*
X24008028Y-16652786D01*
X23887715Y-16818386D01*
X23794781Y-17000776D01*
X23731522Y-17195465D01*
X23699500Y-17397648D01*
X23000500Y-17397648D01*
X23000500Y-15624500D01*
X23020185Y-15557461D01*
X23072989Y-15511706D01*
X23124500Y-15500500D01*
X51875500Y-15500500D01*
X51942539Y-15520185D01*
G37*
%TD.AperFunction*%
%TA.AperFunction,NonConductor*%
G36*
X50318834Y-94732914D02*
G01*
X50374767Y-94774786D01*
X50399184Y-94840250D01*
X50399500Y-94849096D01*
X50399500Y-100976523D01*
X50379815Y-101043562D01*
X50327011Y-101089317D01*
X50257853Y-101099261D01*
X50194297Y-101070236D01*
X50170507Y-101042496D01*
X50129817Y-100977739D01*
X50002262Y-100850184D01*
X49849523Y-100754211D01*
X49679254Y-100694631D01*
X49679249Y-100694630D01*
X49500004Y-100674435D01*
X49499996Y-100674435D01*
X49320750Y-100694630D01*
X49320745Y-100694631D01*
X49150476Y-100754211D01*
X48997737Y-100850184D01*
X48870184Y-100977737D01*
X48774211Y-101130476D01*
X48714631Y-101300745D01*
X48714630Y-101300750D01*
X48697720Y-101450840D01*
X48686574Y-101477365D01*
X48693477Y-101488107D01*
X48697720Y-101509159D01*
X48714630Y-101659249D01*
X48714631Y-101659254D01*
X48774211Y-101829523D01*
X48829494Y-101917504D01*
X48870184Y-101982262D01*
X48997738Y-102109816D01*
X49029568Y-102129816D01*
X49146072Y-102203021D01*
X49150478Y-102205789D01*
X49207632Y-102225788D01*
X49320745Y-102265368D01*
X49320750Y-102265369D01*
X49499996Y-102285565D01*
X49500000Y-102285565D01*
X49500004Y-102285565D01*
X49679249Y-102265369D01*
X49679252Y-102265368D01*
X49679255Y-102265368D01*
X49849522Y-102205789D01*
X50002262Y-102109816D01*
X50129816Y-101982262D01*
X50170506Y-101917503D01*
X50222841Y-101871213D01*
X50291894Y-101860565D01*
X50355743Y-101888940D01*
X50394115Y-101947330D01*
X50399500Y-101983476D01*
X50399500Y-160599902D01*
X50379815Y-160666941D01*
X50363181Y-160687583D01*
X41519481Y-169531282D01*
X41519479Y-169531285D01*
X41469361Y-169618094D01*
X41469359Y-169618096D01*
X41440425Y-169668209D01*
X41440424Y-169668210D01*
X41440423Y-169668215D01*
X41399499Y-169820943D01*
X41399499Y-169820945D01*
X41399499Y-169989046D01*
X41399500Y-169989059D01*
X41399500Y-170996523D01*
X41379815Y-171063562D01*
X41327011Y-171109317D01*
X41257853Y-171119261D01*
X41194297Y-171090236D01*
X41170507Y-171062496D01*
X41129817Y-170997739D01*
X41002262Y-170870184D01*
X40849523Y-170774211D01*
X40679254Y-170714631D01*
X40679249Y-170714630D01*
X40500004Y-170694435D01*
X40499996Y-170694435D01*
X40320750Y-170714630D01*
X40320745Y-170714631D01*
X40150476Y-170774211D01*
X39997737Y-170870184D01*
X39870184Y-170997737D01*
X39774209Y-171150480D01*
X39741541Y-171243840D01*
X39700820Y-171300616D01*
X39635867Y-171326363D01*
X39567305Y-171312907D01*
X39516903Y-171264519D01*
X39500500Y-171202885D01*
X39500500Y-147062278D01*
X39520185Y-146995239D01*
X39536814Y-146974602D01*
X48168506Y-138342909D01*
X48168511Y-138342906D01*
X48178714Y-138332702D01*
X48178716Y-138332702D01*
X48290520Y-138220898D01*
X48350243Y-138117454D01*
X48369577Y-138083967D01*
X48410501Y-137931239D01*
X48410501Y-137890688D01*
X48430186Y-137823649D01*
X48482990Y-137777894D01*
X48520616Y-137767467D01*
X48539255Y-137765368D01*
X48709522Y-137705789D01*
X48862262Y-137609816D01*
X48989816Y-137482262D01*
X49085789Y-137329522D01*
X49145368Y-137159255D01*
X49148685Y-137129815D01*
X49165565Y-136980003D01*
X49165565Y-136979996D01*
X49145369Y-136800750D01*
X49145368Y-136800745D01*
X49130802Y-136759119D01*
X49085789Y-136630478D01*
X48989816Y-136477738D01*
X48862262Y-136350184D01*
X48750457Y-136279932D01*
X48709523Y-136254211D01*
X48539254Y-136194631D01*
X48539249Y-136194630D01*
X48360004Y-136174435D01*
X48359996Y-136174435D01*
X48173825Y-136195411D01*
X48173608Y-136193489D01*
X48113432Y-136189793D01*
X48067916Y-136160863D01*
X47836915Y-135929862D01*
X47803430Y-135868539D01*
X47808414Y-135798847D01*
X47836911Y-135754505D01*
X48218713Y-135372703D01*
X48218716Y-135372702D01*
X48330520Y-135260898D01*
X48380639Y-135174086D01*
X48409577Y-135123967D01*
X48450501Y-134971239D01*
X48450501Y-134813125D01*
X48450501Y-134805530D01*
X48450500Y-134805512D01*
X48450500Y-101523042D01*
X48463108Y-101480101D01*
X48452360Y-101458351D01*
X48450500Y-101436957D01*
X48450500Y-97444085D01*
X48450501Y-97444072D01*
X48450501Y-97275971D01*
X48450501Y-97275969D01*
X48409577Y-97123241D01*
X48372820Y-97059577D01*
X48372820Y-97059575D01*
X48330524Y-96986316D01*
X48330521Y-96986312D01*
X48330520Y-96986310D01*
X48218716Y-96874506D01*
X48218715Y-96874505D01*
X48214385Y-96870175D01*
X48214374Y-96870165D01*
X47804933Y-96460724D01*
X47771448Y-96399401D01*
X47776432Y-96329709D01*
X47818304Y-96273776D01*
X47883768Y-96249359D01*
X47952041Y-96264211D01*
X47958587Y-96268050D01*
X48050475Y-96325788D01*
X48220745Y-96385368D01*
X48220750Y-96385369D01*
X48399996Y-96405565D01*
X48400000Y-96405565D01*
X48400004Y-96405565D01*
X48579249Y-96385369D01*
X48579252Y-96385368D01*
X48579255Y-96385368D01*
X48749522Y-96325789D01*
X48902262Y-96229816D01*
X49029816Y-96102262D01*
X49125789Y-95949522D01*
X49184305Y-95782292D01*
X49213662Y-95735571D01*
X50187820Y-94761414D01*
X50249142Y-94727930D01*
X50318834Y-94732914D01*
G37*
%TD.AperFunction*%
%TA.AperFunction,NonConductor*%
G36*
X35806206Y-172021324D02*
G01*
X35850723Y-172072699D01*
X35862155Y-172097214D01*
X35902466Y-172183662D01*
X35902468Y-172183666D01*
X36029170Y-172364615D01*
X36029175Y-172364621D01*
X36125005Y-172460451D01*
X36158490Y-172521774D01*
X36153506Y-172591466D01*
X36111634Y-172647399D01*
X36046170Y-172671816D01*
X36026520Y-172671660D01*
X36000006Y-172669341D01*
X35999999Y-172669341D01*
X35764596Y-172689936D01*
X35764583Y-172689939D01*
X35636241Y-172724327D01*
X35566392Y-172722664D01*
X35516468Y-172692233D01*
X35392521Y-172568286D01*
X35359036Y-172506963D01*
X35364020Y-172437271D01*
X35392517Y-172392928D01*
X35470826Y-172314620D01*
X35597534Y-172133662D01*
X35625962Y-172072697D01*
X35672131Y-172020262D01*
X35739325Y-172001109D01*
X35806206Y-172021324D01*
G37*
%TD.AperFunction*%
%TA.AperFunction,NonConductor*%
G36*
X39705703Y-171703401D02*
G01*
X39741542Y-171756160D01*
X39774210Y-171849521D01*
X39829494Y-171937504D01*
X39870184Y-172002262D01*
X39997738Y-172129816D01*
X40150478Y-172225789D01*
X40303912Y-172279478D01*
X40320745Y-172285368D01*
X40320750Y-172285369D01*
X40499996Y-172305565D01*
X40500000Y-172305565D01*
X40500004Y-172305565D01*
X40679249Y-172285369D01*
X40679252Y-172285368D01*
X40679255Y-172285368D01*
X40849522Y-172225789D01*
X41002262Y-172129816D01*
X41129816Y-172002262D01*
X41170506Y-171937503D01*
X41222841Y-171891213D01*
X41291894Y-171880565D01*
X41355743Y-171908940D01*
X41394115Y-171967330D01*
X41399500Y-172003476D01*
X41399500Y-172561971D01*
X41379815Y-172629010D01*
X41327011Y-172674765D01*
X41264693Y-172685499D01*
X41080002Y-172669341D01*
X41079999Y-172669341D01*
X40844596Y-172689936D01*
X40844586Y-172689938D01*
X40616344Y-172751094D01*
X40616335Y-172751098D01*
X40402171Y-172850964D01*
X40402169Y-172850965D01*
X40208597Y-172986505D01*
X40041505Y-173153597D01*
X39911575Y-173339158D01*
X39856998Y-173382783D01*
X39787500Y-173389977D01*
X39725145Y-173358454D01*
X39708425Y-173339158D01*
X39578494Y-173153597D01*
X39411404Y-172986507D01*
X39406015Y-172982734D01*
X39386194Y-172968855D01*
X39342569Y-172914279D01*
X39335375Y-172844781D01*
X39366897Y-172782426D01*
X39369576Y-172779659D01*
X39380520Y-172768716D01*
X39445124Y-172656818D01*
X39459577Y-172631785D01*
X39500501Y-172479057D01*
X39500501Y-172320943D01*
X39500501Y-172313348D01*
X39500500Y-172313330D01*
X39500500Y-171797114D01*
X39520185Y-171730075D01*
X39572989Y-171684320D01*
X39642147Y-171674376D01*
X39705703Y-171703401D01*
G37*
%TD.AperFunction*%
%TA.AperFunction,NonConductor*%
G36*
X37878526Y-172564569D02*
G01*
X37926340Y-172615517D01*
X37936912Y-172672815D01*
X37939499Y-172672815D01*
X37939499Y-172735909D01*
X37919814Y-172802948D01*
X37867908Y-172848289D01*
X37862174Y-172850962D01*
X37862169Y-172850965D01*
X37668597Y-172986505D01*
X37501505Y-173153597D01*
X37371575Y-173339158D01*
X37316998Y-173382783D01*
X37247500Y-173389977D01*
X37185145Y-173358454D01*
X37168425Y-173339158D01*
X37038496Y-173153600D01*
X36979955Y-173095059D01*
X36913898Y-173029002D01*
X36880415Y-172967682D01*
X36885399Y-172897990D01*
X36927270Y-172842056D01*
X36992734Y-172817639D01*
X36998912Y-172817418D01*
X36999998Y-172817322D01*
X37000000Y-172817323D01*
X37220068Y-172798070D01*
X37433450Y-172740894D01*
X37633662Y-172647534D01*
X37744554Y-172569886D01*
X37810759Y-172547559D01*
X37878526Y-172564569D01*
G37*
%TD.AperFunction*%
%TA.AperFunction,NonConductor*%
G36*
X25549473Y-88020911D02*
G01*
X25564431Y-88033666D01*
X29463181Y-91932416D01*
X29496666Y-91993739D01*
X29499500Y-92020097D01*
X29499500Y-166013330D01*
X29499499Y-166013348D01*
X29499499Y-166179054D01*
X29499498Y-166179054D01*
X29540423Y-166331785D01*
X29569358Y-166381900D01*
X29569359Y-166381904D01*
X29569360Y-166381904D01*
X29619479Y-166468714D01*
X29619481Y-166468717D01*
X29738349Y-166587585D01*
X29738355Y-166587590D01*
X32263181Y-169112416D01*
X32296666Y-169173739D01*
X32299500Y-169200097D01*
X32299500Y-171313330D01*
X32299499Y-171313348D01*
X32299499Y-171479054D01*
X32299498Y-171479054D01*
X32340423Y-171631785D01*
X32354876Y-171656818D01*
X32419477Y-171768712D01*
X32419481Y-171768717D01*
X32538349Y-171887585D01*
X32538355Y-171887590D01*
X33164296Y-172513531D01*
X33197781Y-172574854D01*
X33192797Y-172644546D01*
X33150925Y-172700479D01*
X33108708Y-172720987D01*
X32996344Y-172751094D01*
X32996335Y-172751098D01*
X32782171Y-172850964D01*
X32782169Y-172850965D01*
X32588597Y-172986505D01*
X32421505Y-173153597D01*
X32291575Y-173339158D01*
X32236998Y-173382783D01*
X32167500Y-173389977D01*
X32105145Y-173358454D01*
X32088425Y-173339158D01*
X31958494Y-173153597D01*
X31791401Y-172986505D01*
X31712884Y-172931526D01*
X31669259Y-172876949D01*
X31662067Y-172807450D01*
X31666963Y-172789007D01*
X31694107Y-172711435D01*
X31705367Y-172679259D01*
X31705369Y-172679249D01*
X31725565Y-172500003D01*
X31725565Y-172499996D01*
X31705369Y-172320750D01*
X31705368Y-172320745D01*
X31674148Y-172231523D01*
X31645789Y-172150478D01*
X31549816Y-171997738D01*
X31422262Y-171870184D01*
X31389377Y-171849521D01*
X31269523Y-171774211D01*
X31099254Y-171714631D01*
X31099249Y-171714630D01*
X30920004Y-171694435D01*
X30919996Y-171694435D01*
X30740750Y-171714630D01*
X30740745Y-171714631D01*
X30570476Y-171774211D01*
X30417737Y-171870184D01*
X30290184Y-171997737D01*
X30194211Y-172150476D01*
X30134631Y-172320745D01*
X30134630Y-172320750D01*
X30114435Y-172499996D01*
X30114435Y-172500003D01*
X30134630Y-172679249D01*
X30134632Y-172679257D01*
X30173032Y-172788998D01*
X30176593Y-172858777D01*
X30141864Y-172919404D01*
X30127115Y-172931526D01*
X30048602Y-172986502D01*
X29926673Y-173108431D01*
X29865350Y-173141915D01*
X29795658Y-173136931D01*
X29739725Y-173095059D01*
X29722810Y-173064082D01*
X29673797Y-172932671D01*
X29673793Y-172932664D01*
X29587547Y-172817455D01*
X29587544Y-172817452D01*
X29472335Y-172731206D01*
X29472328Y-172731202D01*
X29337482Y-172680908D01*
X29337483Y-172680908D01*
X29277883Y-172674501D01*
X29277881Y-172674500D01*
X29277873Y-172674500D01*
X29277864Y-172674500D01*
X27482129Y-172674500D01*
X27482123Y-172674501D01*
X27422516Y-172680908D01*
X27287671Y-172731202D01*
X27287664Y-172731206D01*
X27172455Y-172817452D01*
X27172452Y-172817455D01*
X27086206Y-172932664D01*
X27086202Y-172932671D01*
X27035908Y-173067517D01*
X27029501Y-173127116D01*
X27029500Y-173127135D01*
X27029500Y-174922870D01*
X27029501Y-174922876D01*
X27035908Y-174982483D01*
X27086202Y-175117328D01*
X27086206Y-175117335D01*
X27172452Y-175232544D01*
X27172455Y-175232547D01*
X27287664Y-175318793D01*
X27287671Y-175318797D01*
X27422517Y-175369091D01*
X27422516Y-175369091D01*
X27429444Y-175369835D01*
X27482127Y-175375500D01*
X29277872Y-175375499D01*
X29337483Y-175369091D01*
X29472331Y-175318796D01*
X29587546Y-175232546D01*
X29673796Y-175117331D01*
X29722810Y-174985916D01*
X29764681Y-174929984D01*
X29830145Y-174905566D01*
X29898418Y-174920417D01*
X29926673Y-174941569D01*
X30048599Y-175063495D01*
X30145384Y-175131265D01*
X30242165Y-175199032D01*
X30242167Y-175199033D01*
X30242170Y-175199035D01*
X30456337Y-175298903D01*
X30684592Y-175360063D01*
X30861034Y-175375500D01*
X30919999Y-175380659D01*
X30920000Y-175380659D01*
X30920001Y-175380659D01*
X30978966Y-175375500D01*
X31155408Y-175360063D01*
X31383663Y-175298903D01*
X31597830Y-175199035D01*
X31791401Y-175063495D01*
X31958495Y-174896401D01*
X32088425Y-174710842D01*
X32143002Y-174667217D01*
X32212500Y-174660023D01*
X32274855Y-174691546D01*
X32291575Y-174710842D01*
X32421500Y-174896395D01*
X32421505Y-174896401D01*
X32588599Y-175063495D01*
X32685384Y-175131265D01*
X32782165Y-175199032D01*
X32782167Y-175199033D01*
X32782170Y-175199035D01*
X32996337Y-175298903D01*
X33224592Y-175360063D01*
X33401034Y-175375500D01*
X33459999Y-175380659D01*
X33460000Y-175380659D01*
X33460001Y-175380659D01*
X33518966Y-175375500D01*
X33695408Y-175360063D01*
X33923663Y-175298903D01*
X34137830Y-175199035D01*
X34331401Y-175063495D01*
X34498495Y-174896401D01*
X34628425Y-174710842D01*
X34683002Y-174667217D01*
X34752500Y-174660023D01*
X34814855Y-174691546D01*
X34831575Y-174710842D01*
X34961500Y-174896395D01*
X34961505Y-174896401D01*
X35128599Y-175063495D01*
X35225384Y-175131265D01*
X35322165Y-175199032D01*
X35322167Y-175199033D01*
X35322170Y-175199035D01*
X35536337Y-175298903D01*
X35764592Y-175360063D01*
X35941034Y-175375500D01*
X35999999Y-175380659D01*
X36000000Y-175380659D01*
X36000001Y-175380659D01*
X36058966Y-175375500D01*
X36235408Y-175360063D01*
X36463663Y-175298903D01*
X36677830Y-175199035D01*
X36871401Y-175063495D01*
X37038495Y-174896401D01*
X37168425Y-174710842D01*
X37223002Y-174667217D01*
X37292500Y-174660023D01*
X37354855Y-174691546D01*
X37371575Y-174710842D01*
X37501500Y-174896395D01*
X37501505Y-174896401D01*
X37668599Y-175063495D01*
X37765384Y-175131265D01*
X37862165Y-175199032D01*
X37862167Y-175199033D01*
X37862170Y-175199035D01*
X38076337Y-175298903D01*
X38304592Y-175360063D01*
X38481034Y-175375500D01*
X38539999Y-175380659D01*
X38540000Y-175380659D01*
X38540001Y-175380659D01*
X38598966Y-175375500D01*
X38775408Y-175360063D01*
X39003663Y-175298903D01*
X39217830Y-175199035D01*
X39411401Y-175063495D01*
X39578495Y-174896401D01*
X39708425Y-174710842D01*
X39763002Y-174667217D01*
X39832500Y-174660023D01*
X39894855Y-174691546D01*
X39911575Y-174710842D01*
X40041500Y-174896395D01*
X40041505Y-174896401D01*
X40208599Y-175063495D01*
X40305384Y-175131265D01*
X40402165Y-175199032D01*
X40402167Y-175199033D01*
X40402170Y-175199035D01*
X40616337Y-175298903D01*
X40844592Y-175360063D01*
X41021034Y-175375500D01*
X41079999Y-175380659D01*
X41080000Y-175380659D01*
X41080001Y-175380659D01*
X41138966Y-175375500D01*
X41315408Y-175360063D01*
X41543663Y-175298903D01*
X41757830Y-175199035D01*
X41951401Y-175063495D01*
X42118495Y-174896401D01*
X42254035Y-174702830D01*
X42353903Y-174488663D01*
X42415063Y-174260408D01*
X42435659Y-174025000D01*
X42415063Y-173789592D01*
X42380672Y-173661242D01*
X42382335Y-173591394D01*
X42412762Y-173541473D01*
X42480520Y-173473716D01*
X42559577Y-173336784D01*
X42592006Y-173215756D01*
X42600500Y-173184058D01*
X42600500Y-173025943D01*
X42600500Y-171358992D01*
X43749500Y-171358992D01*
X43749500Y-171561007D01*
X43788907Y-171759119D01*
X43788909Y-171759127D01*
X43866213Y-171945755D01*
X43919904Y-172026109D01*
X43940782Y-172092787D01*
X43922297Y-172160167D01*
X43919904Y-172163891D01*
X43866213Y-172244244D01*
X43788909Y-172430872D01*
X43788907Y-172430880D01*
X43749500Y-172628992D01*
X43749500Y-172831007D01*
X43788907Y-173029119D01*
X43788909Y-173029127D01*
X43822325Y-173109800D01*
X43829794Y-173179270D01*
X43810038Y-173224660D01*
X43810454Y-173224887D01*
X43807919Y-173229528D01*
X43807037Y-173231556D01*
X43806206Y-173232665D01*
X43806202Y-173232672D01*
X43755908Y-173367517D01*
X43749501Y-173427116D01*
X43749500Y-173427135D01*
X43749500Y-174572870D01*
X43749501Y-174572876D01*
X43755908Y-174632483D01*
X43806202Y-174767328D01*
X43806206Y-174767335D01*
X43892452Y-174882544D01*
X43892455Y-174882547D01*
X44007664Y-174968793D01*
X44007671Y-174968797D01*
X44142517Y-175019091D01*
X44142516Y-175019091D01*
X44149444Y-175019835D01*
X44202127Y-175025500D01*
X45797872Y-175025499D01*
X45857483Y-175019091D01*
X45992331Y-174968796D01*
X46107546Y-174882546D01*
X46154994Y-174819163D01*
X46210925Y-174777293D01*
X46280617Y-174772309D01*
X46295206Y-174776431D01*
X46320745Y-174785368D01*
X46320749Y-174785368D01*
X46320753Y-174785369D01*
X46499996Y-174805565D01*
X46500000Y-174805565D01*
X46500004Y-174805565D01*
X46679249Y-174785369D01*
X46679252Y-174785368D01*
X46679255Y-174785368D01*
X46849522Y-174725789D01*
X47002262Y-174629816D01*
X47129816Y-174502262D01*
X47225789Y-174349522D01*
X47285368Y-174179255D01*
X47285369Y-174179249D01*
X47305565Y-174000003D01*
X47305565Y-173999996D01*
X47285369Y-173820750D01*
X47285368Y-173820745D01*
X47225789Y-173650478D01*
X47129816Y-173497738D01*
X47029726Y-173397648D01*
X48699500Y-173397648D01*
X48699500Y-173602351D01*
X48731522Y-173804534D01*
X48794781Y-173999223D01*
X48858691Y-174124653D01*
X48886513Y-174179255D01*
X48887715Y-174181613D01*
X49008028Y-174347213D01*
X49152786Y-174491971D01*
X49307749Y-174604556D01*
X49318390Y-174612287D01*
X49412077Y-174660023D01*
X49500776Y-174705218D01*
X49500778Y-174705218D01*
X49500781Y-174705220D01*
X49564083Y-174725788D01*
X49695465Y-174768477D01*
X49751127Y-174777293D01*
X49897648Y-174800500D01*
X49897649Y-174800500D01*
X50102351Y-174800500D01*
X50102352Y-174800500D01*
X50304534Y-174768477D01*
X50499219Y-174705220D01*
X50681610Y-174612287D01*
X50833048Y-174502262D01*
X50847213Y-174491971D01*
X50847215Y-174491968D01*
X50847219Y-174491966D01*
X50991966Y-174347219D01*
X50991968Y-174347215D01*
X50991971Y-174347213D01*
X51055041Y-174260403D01*
X51112287Y-174181610D01*
X51205220Y-173999219D01*
X51268477Y-173804534D01*
X51300500Y-173602352D01*
X51300500Y-173397648D01*
X51274370Y-173232672D01*
X51268477Y-173195465D01*
X51214430Y-173029127D01*
X51205220Y-173000781D01*
X51205218Y-173000778D01*
X51205218Y-173000776D01*
X51143944Y-172880521D01*
X51112287Y-172818390D01*
X51063397Y-172751098D01*
X50991971Y-172652786D01*
X50847213Y-172508028D01*
X50681613Y-172387715D01*
X50681612Y-172387714D01*
X50681610Y-172387713D01*
X50624653Y-172358691D01*
X50499223Y-172294781D01*
X50304534Y-172231522D01*
X50129995Y-172203878D01*
X50102352Y-172199500D01*
X49897648Y-172199500D01*
X49873329Y-172203351D01*
X49695465Y-172231522D01*
X49500776Y-172294781D01*
X49318386Y-172387715D01*
X49152786Y-172508028D01*
X49008028Y-172652786D01*
X48887715Y-172818386D01*
X48794781Y-173000776D01*
X48731522Y-173195465D01*
X48699500Y-173397648D01*
X47029726Y-173397648D01*
X47002262Y-173370184D01*
X46849523Y-173274211D01*
X46679254Y-173214631D01*
X46679249Y-173214630D01*
X46500004Y-173194435D01*
X46499996Y-173194435D01*
X46334010Y-173213136D01*
X46265188Y-173201081D01*
X46213809Y-173153732D01*
X46196185Y-173086121D01*
X46205567Y-173042461D01*
X46211091Y-173029127D01*
X46250500Y-172831003D01*
X46250500Y-172628997D01*
X46211091Y-172430873D01*
X46133786Y-172244244D01*
X46080094Y-172163889D01*
X46059217Y-172097214D01*
X46077701Y-172029834D01*
X46080078Y-172026134D01*
X46133786Y-171945756D01*
X46211091Y-171759127D01*
X46250500Y-171561003D01*
X46250500Y-171358997D01*
X46211091Y-171160873D01*
X46133786Y-170974244D01*
X46133784Y-170974241D01*
X46133782Y-170974237D01*
X46021558Y-170806281D01*
X45878718Y-170663441D01*
X45710762Y-170551217D01*
X45710752Y-170551212D01*
X45524127Y-170473909D01*
X45524119Y-170473907D01*
X45326007Y-170434500D01*
X45326003Y-170434500D01*
X44673997Y-170434500D01*
X44673992Y-170434500D01*
X44475880Y-170473907D01*
X44475872Y-170473909D01*
X44289247Y-170551212D01*
X44289237Y-170551217D01*
X44121281Y-170663441D01*
X43978441Y-170806281D01*
X43866217Y-170974237D01*
X43866212Y-170974247D01*
X43788909Y-171160872D01*
X43788907Y-171160880D01*
X43749500Y-171358992D01*
X42600500Y-171358992D01*
X42600500Y-170200096D01*
X42620185Y-170133057D01*
X42636814Y-170112420D01*
X44769238Y-167979996D01*
X47694435Y-167979996D01*
X47694435Y-167980003D01*
X47714630Y-168159249D01*
X47714631Y-168159254D01*
X47774211Y-168329523D01*
X47870184Y-168482262D01*
X47997738Y-168609816D01*
X48150478Y-168705789D01*
X48320745Y-168765368D01*
X48320750Y-168765369D01*
X48499996Y-168785565D01*
X48500000Y-168785565D01*
X48500004Y-168785565D01*
X48679249Y-168765369D01*
X48679252Y-168765368D01*
X48679255Y-168765368D01*
X48849522Y-168705789D01*
X49002262Y-168609816D01*
X49129816Y-168482262D01*
X49225789Y-168329522D01*
X49285368Y-168159255D01*
X49305565Y-167980000D01*
X49285368Y-167800745D01*
X49225789Y-167630478D01*
X49129816Y-167477738D01*
X49002262Y-167350184D01*
X48849523Y-167254211D01*
X48679254Y-167194631D01*
X48679249Y-167194630D01*
X48500004Y-167174435D01*
X48499996Y-167174435D01*
X48320750Y-167194630D01*
X48320745Y-167194631D01*
X48150476Y-167254211D01*
X47997737Y-167350184D01*
X47870184Y-167477737D01*
X47774211Y-167630476D01*
X47714631Y-167800745D01*
X47714630Y-167800750D01*
X47694435Y-167979996D01*
X44769238Y-167979996D01*
X51368713Y-161380521D01*
X51368716Y-161380520D01*
X51480520Y-161268716D01*
X51530639Y-161181904D01*
X51559577Y-161131785D01*
X51600500Y-160979057D01*
X51600500Y-160820943D01*
X51600500Y-114738807D01*
X51620185Y-114671768D01*
X51672989Y-114626013D01*
X51742147Y-114616069D01*
X51805703Y-114645094D01*
X51831886Y-114676805D01*
X51849500Y-114707314D01*
X51942686Y-114800500D01*
X51942688Y-114800501D01*
X51949137Y-114805450D01*
X51947324Y-114807812D01*
X51985710Y-114848062D01*
X51999500Y-114904893D01*
X51999500Y-175875500D01*
X51979815Y-175942539D01*
X51927011Y-175988294D01*
X51875500Y-175999500D01*
X23124500Y-175999500D01*
X23057461Y-175979815D01*
X23011706Y-175927011D01*
X23000500Y-175875500D01*
X23000500Y-173397648D01*
X23699500Y-173397648D01*
X23699500Y-173602351D01*
X23731522Y-173804534D01*
X23794781Y-173999223D01*
X23858691Y-174124653D01*
X23886513Y-174179255D01*
X23887715Y-174181613D01*
X24008028Y-174347213D01*
X24152786Y-174491971D01*
X24307749Y-174604556D01*
X24318390Y-174612287D01*
X24412077Y-174660023D01*
X24500776Y-174705218D01*
X24500778Y-174705218D01*
X24500781Y-174705220D01*
X24564083Y-174725788D01*
X24695465Y-174768477D01*
X24751127Y-174777293D01*
X24897648Y-174800500D01*
X24897649Y-174800500D01*
X25102351Y-174800500D01*
X25102352Y-174800500D01*
X25304534Y-174768477D01*
X25499219Y-174705220D01*
X25681610Y-174612287D01*
X25833048Y-174502262D01*
X25847213Y-174491971D01*
X25847215Y-174491968D01*
X25847219Y-174491966D01*
X25991966Y-174347219D01*
X25991968Y-174347215D01*
X25991971Y-174347213D01*
X26055041Y-174260403D01*
X26112287Y-174181610D01*
X26205220Y-173999219D01*
X26268477Y-173804534D01*
X26300500Y-173602352D01*
X26300500Y-173397648D01*
X26274370Y-173232672D01*
X26268477Y-173195465D01*
X26214430Y-173029127D01*
X26205220Y-173000781D01*
X26205218Y-173000778D01*
X26205218Y-173000776D01*
X26143944Y-172880521D01*
X26112287Y-172818390D01*
X26063397Y-172751098D01*
X25991971Y-172652786D01*
X25847213Y-172508028D01*
X25681613Y-172387715D01*
X25681612Y-172387714D01*
X25681610Y-172387713D01*
X25624653Y-172358691D01*
X25499223Y-172294781D01*
X25304534Y-172231522D01*
X25129995Y-172203878D01*
X25102352Y-172199500D01*
X24897648Y-172199500D01*
X24873329Y-172203351D01*
X24695465Y-172231522D01*
X24500776Y-172294781D01*
X24318386Y-172387715D01*
X24152786Y-172508028D01*
X24008028Y-172652786D01*
X23887715Y-172818386D01*
X23794781Y-173000776D01*
X23731522Y-173195465D01*
X23699500Y-173397648D01*
X23000500Y-173397648D01*
X23000500Y-91887001D01*
X23020185Y-91819962D01*
X23072989Y-91774207D01*
X23142147Y-91764263D01*
X23195622Y-91785425D01*
X23322170Y-91874035D01*
X23536337Y-91973903D01*
X23764592Y-92035063D01*
X23941034Y-92050500D01*
X23999999Y-92055659D01*
X24000000Y-92055659D01*
X24000001Y-92055659D01*
X24058966Y-92050500D01*
X24235408Y-92035063D01*
X24463663Y-91973903D01*
X24677830Y-91874035D01*
X24871401Y-91738495D01*
X25038495Y-91571401D01*
X25174035Y-91377830D01*
X25273903Y-91163663D01*
X25335063Y-90935408D01*
X25355659Y-90700000D01*
X25335063Y-90464592D01*
X25273903Y-90236337D01*
X25174035Y-90022171D01*
X25038495Y-89828599D01*
X25038494Y-89828597D01*
X24871402Y-89661506D01*
X24871396Y-89661501D01*
X24685842Y-89531575D01*
X24642217Y-89476998D01*
X24635023Y-89407500D01*
X24666546Y-89345145D01*
X24685842Y-89328425D01*
X24748800Y-89284341D01*
X24871401Y-89198495D01*
X25038495Y-89031401D01*
X25174035Y-88837830D01*
X25273903Y-88623663D01*
X25335063Y-88395408D01*
X25355659Y-88160000D01*
X25353222Y-88132154D01*
X25366987Y-88063657D01*
X25415601Y-88013473D01*
X25483629Y-87997538D01*
X25549473Y-88020911D01*
G37*
%TD.AperFunction*%
%TA.AperFunction,NonConductor*%
G36*
X52656557Y-112692491D02*
G01*
X52815371Y-112737678D01*
X52999999Y-112754786D01*
X53000000Y-112754786D01*
X53000001Y-112754786D01*
X53061543Y-112749083D01*
X53184629Y-112737678D01*
X53343440Y-112692492D01*
X53413304Y-112693078D01*
X53471763Y-112731345D01*
X53500000Y-112794573D01*
X53500000Y-112830309D01*
X53499500Y-112834108D01*
X53499500Y-112965891D01*
X53500000Y-112967757D01*
X53500000Y-113532241D01*
X53499500Y-113534108D01*
X53499500Y-113665890D01*
X53500000Y-113669688D01*
X53500000Y-113674059D01*
X53489544Y-113741094D01*
X53443163Y-113793348D01*
X53375893Y-113812232D01*
X53343438Y-113807507D01*
X53184630Y-113762322D01*
X53184628Y-113762321D01*
X53000001Y-113745214D01*
X52999999Y-113745214D01*
X52815371Y-113762321D01*
X52815368Y-113762322D01*
X52656561Y-113807507D01*
X52586694Y-113806920D01*
X52528235Y-113768654D01*
X52500000Y-113705427D01*
X52500000Y-113669688D01*
X52500500Y-113665891D01*
X52500500Y-113534110D01*
X52500500Y-113534108D01*
X52500000Y-113532241D01*
X52500000Y-112967757D01*
X52500500Y-112965892D01*
X52500500Y-112834108D01*
X52500498Y-112834102D01*
X52500000Y-112830317D01*
X52500000Y-112825946D01*
X52510452Y-112758912D01*
X52556830Y-112706655D01*
X52624098Y-112687767D01*
X52656557Y-112692491D01*
G37*
%TD.AperFunction*%
%TA.AperFunction,NonConductor*%
G36*
X52656557Y-39442491D02*
G01*
X52815371Y-39487678D01*
X52999999Y-39504786D01*
X53000000Y-39504786D01*
X53000001Y-39504786D01*
X53061543Y-39499083D01*
X53184629Y-39487678D01*
X53343440Y-39442492D01*
X53413304Y-39443078D01*
X53471763Y-39481345D01*
X53500000Y-39544573D01*
X53500000Y-39580309D01*
X53499500Y-39584108D01*
X53499500Y-39715891D01*
X53500000Y-39717757D01*
X53500000Y-40282241D01*
X53499500Y-40284108D01*
X53499500Y-40415890D01*
X53500000Y-40419688D01*
X53500000Y-40424059D01*
X53489544Y-40491094D01*
X53443163Y-40543348D01*
X53375893Y-40562232D01*
X53343438Y-40557507D01*
X53184630Y-40512322D01*
X53184628Y-40512321D01*
X53000001Y-40495214D01*
X52999999Y-40495214D01*
X52815371Y-40512321D01*
X52815368Y-40512322D01*
X52656561Y-40557507D01*
X52586694Y-40556920D01*
X52528235Y-40518654D01*
X52500000Y-40455427D01*
X52500000Y-40419688D01*
X52500500Y-40415891D01*
X52500500Y-40284110D01*
X52500500Y-40284108D01*
X52500000Y-40282241D01*
X52500000Y-39717757D01*
X52500500Y-39715892D01*
X52500500Y-39584108D01*
X52500498Y-39584102D01*
X52500000Y-39580317D01*
X52500000Y-39575946D01*
X52510452Y-39508912D01*
X52556830Y-39456655D01*
X52624098Y-39437767D01*
X52656557Y-39442491D01*
G37*
%TD.AperFunction*%
%TA.AperFunction,NonConductor*%
G36*
X53500254Y-39545144D02*
G01*
X53500312Y-39577941D01*
X53500000Y-39580310D01*
X53500000Y-39544575D01*
X53500254Y-39545144D01*
G37*
%TD.AperFunction*%
%TA.AperFunction,NonConductor*%
G36*
X53533609Y-39843188D02*
G01*
X53533609Y-39843189D01*
X53588348Y-39938000D01*
X53604821Y-40005900D01*
X53588348Y-40062000D01*
X53533609Y-40156810D01*
X53533609Y-40156811D01*
X53500000Y-40282241D01*
X53500000Y-39717757D01*
X53533609Y-39843188D01*
G37*
%TD.AperFunction*%
%TA.AperFunction,NonConductor*%
G36*
X53500312Y-40422059D02*
G01*
X53500000Y-40424059D01*
X53500000Y-40419688D01*
X53500312Y-40422059D01*
G37*
%TD.AperFunction*%
%TA.AperFunction,NonConductor*%
G36*
X53500254Y-112795144D02*
G01*
X53500312Y-112827941D01*
X53500000Y-112830310D01*
X53500000Y-112794575D01*
X53500254Y-112795144D01*
G37*
%TD.AperFunction*%
%TA.AperFunction,NonConductor*%
G36*
X53533609Y-113093188D02*
G01*
X53533609Y-113093189D01*
X53588348Y-113188000D01*
X53604821Y-113255900D01*
X53588348Y-113312000D01*
X53533609Y-113406810D01*
X53533609Y-113406811D01*
X53500000Y-113532241D01*
X53500000Y-112967757D01*
X53533609Y-113093188D01*
G37*
%TD.AperFunction*%
%TA.AperFunction,NonConductor*%
G36*
X53500312Y-113672059D02*
G01*
X53500000Y-113674059D01*
X53500000Y-113669688D01*
X53500312Y-113672059D01*
G37*
%TD.AperFunction*%
%TA.AperFunction,NonConductor*%
G36*
X82900712Y-15520185D02*
G01*
X82946467Y-15572989D01*
X82957672Y-15624398D01*
X82999500Y-66999972D01*
X82999500Y-67934108D01*
X82999500Y-70934108D01*
X82999500Y-71934108D01*
X82999500Y-99684108D01*
X82999500Y-100434108D01*
X82999500Y-103434108D01*
X82999500Y-104249644D01*
X82959098Y-129300500D01*
X82958170Y-129875700D01*
X82938377Y-129942708D01*
X82885499Y-129988377D01*
X82834170Y-129999500D01*
X54083930Y-129999500D01*
X54016891Y-129979815D01*
X53971136Y-129927011D01*
X53959930Y-129875150D01*
X53965511Y-127897648D01*
X54657164Y-127897648D01*
X54657164Y-128102351D01*
X54689186Y-128304534D01*
X54752445Y-128499223D01*
X54845379Y-128681613D01*
X54965692Y-128847213D01*
X55110450Y-128991971D01*
X55265413Y-129104556D01*
X55276054Y-129112287D01*
X55392271Y-129171503D01*
X55458440Y-129205218D01*
X55458442Y-129205218D01*
X55458445Y-129205220D01*
X55562801Y-129239127D01*
X55653129Y-129268477D01*
X55754221Y-129284488D01*
X55855312Y-129300500D01*
X55855313Y-129300500D01*
X56060015Y-129300500D01*
X56060016Y-129300500D01*
X56262198Y-129268477D01*
X56456883Y-129205220D01*
X56639274Y-129112287D01*
X56732254Y-129044732D01*
X56804877Y-128991971D01*
X56804879Y-128991968D01*
X56804883Y-128991966D01*
X56949630Y-128847219D01*
X56949632Y-128847215D01*
X56949635Y-128847213D01*
X57002396Y-128774590D01*
X57069951Y-128681610D01*
X57162884Y-128499219D01*
X57226141Y-128304534D01*
X57258164Y-128102352D01*
X57258164Y-127897648D01*
X79657164Y-127897648D01*
X79657164Y-128102351D01*
X79689186Y-128304534D01*
X79752445Y-128499223D01*
X79845379Y-128681613D01*
X79965692Y-128847213D01*
X80110450Y-128991971D01*
X80265413Y-129104556D01*
X80276054Y-129112287D01*
X80392271Y-129171503D01*
X80458440Y-129205218D01*
X80458442Y-129205218D01*
X80458445Y-129205220D01*
X80562801Y-129239127D01*
X80653129Y-129268477D01*
X80754221Y-129284488D01*
X80855312Y-129300500D01*
X80855313Y-129300500D01*
X81060015Y-129300500D01*
X81060016Y-129300500D01*
X81262198Y-129268477D01*
X81456883Y-129205220D01*
X81639274Y-129112287D01*
X81732254Y-129044732D01*
X81804877Y-128991971D01*
X81804879Y-128991968D01*
X81804883Y-128991966D01*
X81949630Y-128847219D01*
X81949632Y-128847215D01*
X81949635Y-128847213D01*
X82002396Y-128774590D01*
X82069951Y-128681610D01*
X82162884Y-128499219D01*
X82226141Y-128304534D01*
X82258164Y-128102352D01*
X82258164Y-127897648D01*
X82226141Y-127695466D01*
X82162884Y-127500781D01*
X82162882Y-127500778D01*
X82162882Y-127500776D01*
X82129167Y-127434607D01*
X82069951Y-127318390D01*
X82062220Y-127307749D01*
X81949635Y-127152786D01*
X81804877Y-127008028D01*
X81639277Y-126887715D01*
X81639276Y-126887714D01*
X81639274Y-126887713D01*
X81582317Y-126858691D01*
X81456887Y-126794781D01*
X81262198Y-126731522D01*
X81087659Y-126703878D01*
X81060016Y-126699500D01*
X80855312Y-126699500D01*
X80830993Y-126703351D01*
X80653129Y-126731522D01*
X80458440Y-126794781D01*
X80276050Y-126887715D01*
X80110450Y-127008028D01*
X79965692Y-127152786D01*
X79845379Y-127318386D01*
X79752445Y-127500776D01*
X79689186Y-127695465D01*
X79657164Y-127897648D01*
X57258164Y-127897648D01*
X57226141Y-127695466D01*
X57162884Y-127500781D01*
X57162882Y-127500778D01*
X57162882Y-127500776D01*
X57129167Y-127434607D01*
X57069951Y-127318390D01*
X57062220Y-127307749D01*
X56949635Y-127152786D01*
X56804877Y-127008028D01*
X56639277Y-126887715D01*
X56639276Y-126887714D01*
X56639274Y-126887713D01*
X56582317Y-126858691D01*
X56456887Y-126794781D01*
X56262198Y-126731522D01*
X56087659Y-126703878D01*
X56060016Y-126699500D01*
X55855312Y-126699500D01*
X55830993Y-126703351D01*
X55653129Y-126731522D01*
X55458440Y-126794781D01*
X55276050Y-126887715D01*
X55110450Y-127008028D01*
X54965692Y-127152786D01*
X54845379Y-127318386D01*
X54752445Y-127500776D01*
X54689186Y-127695465D01*
X54657164Y-127897648D01*
X53965511Y-127897648D01*
X53972209Y-125524522D01*
X53973195Y-125174996D01*
X77202099Y-125174996D01*
X77202099Y-125175003D01*
X77222294Y-125354249D01*
X77222295Y-125354254D01*
X77281875Y-125524523D01*
X77377848Y-125677262D01*
X77505402Y-125804816D01*
X77658142Y-125900789D01*
X77828409Y-125960368D01*
X77828414Y-125960369D01*
X78007660Y-125980565D01*
X78007664Y-125980565D01*
X78007668Y-125980565D01*
X78186913Y-125960369D01*
X78186916Y-125960368D01*
X78186919Y-125960368D01*
X78357186Y-125900789D01*
X78509926Y-125804816D01*
X78637480Y-125677262D01*
X78733453Y-125524522D01*
X78793032Y-125354255D01*
X78793848Y-125347012D01*
X78795133Y-125335614D01*
X78822200Y-125271201D01*
X78879795Y-125231646D01*
X78918353Y-125225499D01*
X79847871Y-125225499D01*
X79847872Y-125225499D01*
X79907483Y-125219091D01*
X80042331Y-125168796D01*
X80157546Y-125082546D01*
X80243796Y-124967331D01*
X80294091Y-124832483D01*
X80300500Y-124772873D01*
X80300499Y-123627128D01*
X80294091Y-123567517D01*
X80278055Y-123524523D01*
X80243797Y-123432671D01*
X80243796Y-123432670D01*
X80243796Y-123432669D01*
X80242967Y-123431562D01*
X80242485Y-123430268D01*
X80239546Y-123424886D01*
X80240319Y-123424463D01*
X80218551Y-123366099D01*
X80227675Y-123309798D01*
X80261089Y-123229132D01*
X80261089Y-123229131D01*
X80261091Y-123229127D01*
X80300500Y-123031003D01*
X80300500Y-122828997D01*
X80261091Y-122630873D01*
X80200820Y-122485368D01*
X80183787Y-122444246D01*
X80183786Y-122444244D01*
X80130094Y-122363889D01*
X80109217Y-122297214D01*
X80127701Y-122229834D01*
X80130078Y-122226134D01*
X80183786Y-122145756D01*
X80261091Y-121959127D01*
X80300500Y-121761003D01*
X80300500Y-121558997D01*
X80261091Y-121360873D01*
X80183786Y-121174244D01*
X80183784Y-121174241D01*
X80183782Y-121174237D01*
X80071558Y-121006281D01*
X79928718Y-120863441D01*
X79760762Y-120751217D01*
X79760752Y-120751212D01*
X79574127Y-120673909D01*
X79574119Y-120673907D01*
X79376007Y-120634500D01*
X79376003Y-120634500D01*
X78723997Y-120634500D01*
X78723992Y-120634500D01*
X78525880Y-120673907D01*
X78525872Y-120673909D01*
X78339247Y-120751212D01*
X78339237Y-120751217D01*
X78171281Y-120863441D01*
X78028441Y-121006281D01*
X77916217Y-121174237D01*
X77916212Y-121174247D01*
X77838909Y-121360872D01*
X77838907Y-121360880D01*
X77799500Y-121558992D01*
X77799500Y-121761007D01*
X77838907Y-121959119D01*
X77838909Y-121959127D01*
X77916213Y-122145755D01*
X77969904Y-122226109D01*
X77990782Y-122292787D01*
X77972297Y-122360167D01*
X77969904Y-122363891D01*
X77916213Y-122444244D01*
X77838909Y-122630872D01*
X77838907Y-122630880D01*
X77799500Y-122828992D01*
X77799500Y-123031007D01*
X77838907Y-123229119D01*
X77838909Y-123229127D01*
X77872325Y-123309800D01*
X77879794Y-123379270D01*
X77860038Y-123424660D01*
X77860454Y-123424887D01*
X77857919Y-123429528D01*
X77857037Y-123431556D01*
X77856206Y-123432665D01*
X77856202Y-123432672D01*
X77805908Y-123567517D01*
X77799501Y-123627116D01*
X77799501Y-123627123D01*
X77799500Y-123627135D01*
X77799500Y-124311765D01*
X77779815Y-124378804D01*
X77727011Y-124424559D01*
X77716455Y-124428806D01*
X77658143Y-124449210D01*
X77658139Y-124449212D01*
X77505401Y-124545184D01*
X77377848Y-124672737D01*
X77281875Y-124825476D01*
X77222295Y-124995745D01*
X77222294Y-124995750D01*
X77202099Y-125174996D01*
X53973195Y-125174996D01*
X53983003Y-121699997D01*
X66782677Y-121699997D01*
X66782677Y-121700002D01*
X66801929Y-121920062D01*
X66801930Y-121920070D01*
X66859104Y-122133445D01*
X66859105Y-122133447D01*
X66859106Y-122133450D01*
X66924039Y-122272700D01*
X66952466Y-122333662D01*
X66952468Y-122333666D01*
X67079170Y-122514615D01*
X67079175Y-122514621D01*
X67235378Y-122670824D01*
X67235384Y-122670829D01*
X67416333Y-122797531D01*
X67416335Y-122797532D01*
X67416338Y-122797534D01*
X67616550Y-122890894D01*
X67829932Y-122948070D01*
X67987123Y-122961822D01*
X68049998Y-122967323D01*
X68050000Y-122967323D01*
X68050002Y-122967323D01*
X68105017Y-122962509D01*
X68270068Y-122948070D01*
X68483450Y-122890894D01*
X68683662Y-122797534D01*
X68864620Y-122670826D01*
X69020826Y-122514620D01*
X69147534Y-122333662D01*
X69175962Y-122272697D01*
X69222131Y-122220262D01*
X69289325Y-122201109D01*
X69356206Y-122221324D01*
X69400723Y-122272699D01*
X69412155Y-122297214D01*
X69452466Y-122383662D01*
X69452468Y-122383666D01*
X69579170Y-122564615D01*
X69579175Y-122564621D01*
X69735378Y-122720824D01*
X69735384Y-122720829D01*
X69916333Y-122847531D01*
X69916335Y-122847532D01*
X69916338Y-122847534D01*
X70116550Y-122940894D01*
X70116559Y-122940896D01*
X70116563Y-122940898D01*
X70122122Y-122942388D01*
X70181782Y-122978753D01*
X70212310Y-123041601D01*
X70213247Y-123076044D01*
X70202099Y-123174994D01*
X70202099Y-123175003D01*
X70222294Y-123354249D01*
X70222295Y-123354254D01*
X70281875Y-123524523D01*
X70346347Y-123627129D01*
X70377848Y-123677262D01*
X70505402Y-123804816D01*
X70658142Y-123900789D01*
X70828409Y-123960368D01*
X70828414Y-123960369D01*
X71007660Y-123980565D01*
X71007664Y-123980565D01*
X71007668Y-123980565D01*
X71186913Y-123960369D01*
X71186916Y-123960368D01*
X71186919Y-123960368D01*
X71357186Y-123900789D01*
X71509926Y-123804816D01*
X71637480Y-123677262D01*
X71733453Y-123524522D01*
X71793032Y-123354255D01*
X71807130Y-123229132D01*
X71813229Y-123175003D01*
X71813229Y-123174996D01*
X71793033Y-122995750D01*
X71793032Y-122995745D01*
X71776349Y-122948069D01*
X71733453Y-122825478D01*
X71637480Y-122672738D01*
X71597914Y-122633172D01*
X71564429Y-122571849D01*
X71569413Y-122502157D01*
X71584021Y-122474367D01*
X71647530Y-122383668D01*
X71647530Y-122383666D01*
X71647534Y-122383662D01*
X71740894Y-122183450D01*
X71798070Y-121970068D01*
X71816360Y-121761004D01*
X71817323Y-121750002D01*
X71817323Y-121749997D01*
X71812948Y-121699996D01*
X74177099Y-121699996D01*
X74177099Y-121700003D01*
X74197294Y-121879249D01*
X74197295Y-121879254D01*
X74256875Y-122049523D01*
X74309611Y-122133451D01*
X74352848Y-122202262D01*
X74480402Y-122329816D01*
X74633142Y-122425789D01*
X74771970Y-122474367D01*
X74803409Y-122485368D01*
X74803414Y-122485369D01*
X74982660Y-122505565D01*
X74982664Y-122505565D01*
X74982668Y-122505565D01*
X75161913Y-122485369D01*
X75161916Y-122485368D01*
X75161919Y-122485368D01*
X75332186Y-122425789D01*
X75484926Y-122329816D01*
X75612480Y-122202262D01*
X75708453Y-122049522D01*
X75768032Y-121879255D01*
X75768033Y-121879249D01*
X75788229Y-121700003D01*
X75788229Y-121699996D01*
X75768033Y-121520750D01*
X75768032Y-121520745D01*
X75708452Y-121350476D01*
X75644621Y-121248890D01*
X75612480Y-121197738D01*
X75484926Y-121070184D01*
X75383227Y-121006282D01*
X75332187Y-120974211D01*
X75161918Y-120914631D01*
X75161913Y-120914630D01*
X74982668Y-120894435D01*
X74982660Y-120894435D01*
X74803414Y-120914630D01*
X74803409Y-120914631D01*
X74633140Y-120974211D01*
X74480401Y-121070184D01*
X74352848Y-121197737D01*
X74256875Y-121350476D01*
X74197295Y-121520745D01*
X74197294Y-121520750D01*
X74177099Y-121699996D01*
X71812948Y-121699996D01*
X71810103Y-121667474D01*
X71798070Y-121529932D01*
X71740894Y-121316550D01*
X71647534Y-121116339D01*
X71520826Y-120935380D01*
X71364620Y-120779174D01*
X71364616Y-120779171D01*
X71364615Y-120779170D01*
X71183666Y-120652468D01*
X71183662Y-120652466D01*
X71183660Y-120652465D01*
X70983450Y-120559106D01*
X70983447Y-120559105D01*
X70983445Y-120559104D01*
X70770070Y-120501930D01*
X70770062Y-120501929D01*
X70550002Y-120482677D01*
X70549998Y-120482677D01*
X70329937Y-120501929D01*
X70329929Y-120501930D01*
X70116554Y-120559104D01*
X70116548Y-120559107D01*
X69916340Y-120652465D01*
X69916338Y-120652466D01*
X69735377Y-120779175D01*
X69579175Y-120935377D01*
X69452466Y-121116338D01*
X69452462Y-121116345D01*
X69424038Y-121177300D01*
X69377865Y-121229739D01*
X69310671Y-121248890D01*
X69243791Y-121228673D01*
X69199276Y-121177300D01*
X69147534Y-121066339D01*
X69055834Y-120935377D01*
X69020827Y-120885381D01*
X68998887Y-120863441D01*
X68864620Y-120729174D01*
X68864616Y-120729171D01*
X68864615Y-120729170D01*
X68683666Y-120602468D01*
X68683662Y-120602466D01*
X68683660Y-120602465D01*
X68483450Y-120509106D01*
X68483447Y-120509105D01*
X68483445Y-120509104D01*
X68270070Y-120451930D01*
X68270062Y-120451929D01*
X68050002Y-120432677D01*
X68049998Y-120432677D01*
X67829937Y-120451929D01*
X67829929Y-120451930D01*
X67616554Y-120509104D01*
X67616548Y-120509107D01*
X67416340Y-120602465D01*
X67416338Y-120602466D01*
X67235377Y-120729175D01*
X67079175Y-120885377D01*
X66952466Y-121066338D01*
X66952465Y-121066340D01*
X66859107Y-121266548D01*
X66859104Y-121266554D01*
X66801930Y-121479929D01*
X66801929Y-121479937D01*
X66782677Y-121699997D01*
X53983003Y-121699997D01*
X53988718Y-119674996D01*
X80659763Y-119674996D01*
X80659763Y-119675003D01*
X80679958Y-119854249D01*
X80679959Y-119854254D01*
X80739539Y-120024523D01*
X80835512Y-120177262D01*
X80963066Y-120304816D01*
X81115806Y-120400789D01*
X81206937Y-120432677D01*
X81286073Y-120460368D01*
X81286078Y-120460369D01*
X81465324Y-120480565D01*
X81465328Y-120480565D01*
X81465332Y-120480565D01*
X81644577Y-120460369D01*
X81644580Y-120460368D01*
X81644583Y-120460368D01*
X81814850Y-120400789D01*
X81967590Y-120304816D01*
X82095144Y-120177262D01*
X82191117Y-120024522D01*
X82250696Y-119854255D01*
X82270893Y-119675000D01*
X82250696Y-119495745D01*
X82191117Y-119325478D01*
X82095144Y-119172738D01*
X81967590Y-119045184D01*
X81814851Y-118949211D01*
X81644582Y-118889631D01*
X81644577Y-118889630D01*
X81465332Y-118869435D01*
X81465324Y-118869435D01*
X81286078Y-118889630D01*
X81286073Y-118889631D01*
X81115804Y-118949211D01*
X80963065Y-119045184D01*
X80835512Y-119172737D01*
X80739539Y-119325476D01*
X80679959Y-119495745D01*
X80679958Y-119495750D01*
X80659763Y-119674996D01*
X53988718Y-119674996D01*
X54000289Y-115575271D01*
X54000500Y-115572139D01*
X54000500Y-115500715D01*
X54000504Y-115499304D01*
X54000684Y-115435521D01*
X54000682Y-115435515D01*
X54000700Y-115429280D01*
X54000500Y-115426147D01*
X54000500Y-114904893D01*
X54020185Y-114837854D01*
X54052261Y-114807272D01*
X54050863Y-114805450D01*
X54057307Y-114800503D01*
X54057314Y-114800500D01*
X54150500Y-114707314D01*
X54216392Y-114593186D01*
X54250500Y-114465892D01*
X54250500Y-114334108D01*
X54216392Y-114206814D01*
X54216390Y-114206810D01*
X54211786Y-114198835D01*
X54195313Y-114130934D01*
X54218166Y-114064908D01*
X54257169Y-114029450D01*
X54307314Y-114000500D01*
X54400500Y-113907314D01*
X54466392Y-113793186D01*
X54500500Y-113665892D01*
X54500500Y-113534108D01*
X54466392Y-113406814D01*
X54411650Y-113311999D01*
X54395178Y-113244100D01*
X54411650Y-113188000D01*
X54466392Y-113093186D01*
X54500500Y-112965892D01*
X54500500Y-112834108D01*
X54466392Y-112706814D01*
X54400500Y-112592686D01*
X54307314Y-112499500D01*
X54257173Y-112470551D01*
X54208957Y-112419984D01*
X54195734Y-112351377D01*
X54211786Y-112301163D01*
X54216392Y-112293186D01*
X54250500Y-112165892D01*
X54250500Y-112034108D01*
X54216392Y-111906814D01*
X54150500Y-111792686D01*
X54057314Y-111699500D01*
X54057311Y-111699498D01*
X54050865Y-111694552D01*
X54052675Y-111692192D01*
X54014280Y-111651920D01*
X54000500Y-111595107D01*
X54000500Y-55174996D01*
X63702099Y-55174996D01*
X63702099Y-55175003D01*
X63722294Y-55354249D01*
X63722295Y-55354254D01*
X63781875Y-55524523D01*
X63869298Y-55663655D01*
X63877848Y-55677262D01*
X64005402Y-55804816D01*
X64141473Y-55890315D01*
X64187763Y-55942649D01*
X64199500Y-55995308D01*
X64199500Y-89617587D01*
X64179815Y-89684626D01*
X64172450Y-89694896D01*
X64170186Y-89697734D01*
X64074211Y-89850476D01*
X64014631Y-90020745D01*
X64014630Y-90020750D01*
X63994435Y-90199996D01*
X63994435Y-90200003D01*
X64014630Y-90379249D01*
X64014631Y-90379254D01*
X64074211Y-90549523D01*
X64145931Y-90663664D01*
X64170184Y-90702262D01*
X64297738Y-90829816D01*
X64450478Y-90925789D01*
X64620745Y-90985368D01*
X64620750Y-90985369D01*
X64799996Y-91005565D01*
X64800000Y-91005565D01*
X64800004Y-91005565D01*
X64979249Y-90985369D01*
X64979252Y-90985368D01*
X64979255Y-90985368D01*
X65149522Y-90925789D01*
X65302262Y-90829816D01*
X65429816Y-90702262D01*
X65525789Y-90549522D01*
X65585368Y-90379255D01*
X65585369Y-90379249D01*
X65605565Y-90200003D01*
X65605565Y-90199999D01*
X66654341Y-90199999D01*
X66654341Y-90200000D01*
X66674936Y-90435403D01*
X66674938Y-90435413D01*
X66736094Y-90663655D01*
X66736096Y-90663659D01*
X66736097Y-90663663D01*
X66754096Y-90702262D01*
X66835965Y-90877830D01*
X66835967Y-90877834D01*
X66923382Y-91002674D01*
X66971505Y-91071401D01*
X67138599Y-91238495D01*
X67235384Y-91306265D01*
X67332165Y-91374032D01*
X67332167Y-91374033D01*
X67332170Y-91374035D01*
X67546337Y-91473903D01*
X67774592Y-91535063D01*
X67951034Y-91550500D01*
X68009999Y-91555659D01*
X68010000Y-91555659D01*
X68010001Y-91555659D01*
X68068966Y-91550500D01*
X68245408Y-91535063D01*
X68473663Y-91473903D01*
X68687830Y-91374035D01*
X68881401Y-91238495D01*
X69003329Y-91116566D01*
X69064648Y-91083084D01*
X69134340Y-91088068D01*
X69190274Y-91129939D01*
X69207189Y-91160917D01*
X69256202Y-91292328D01*
X69256206Y-91292335D01*
X69342452Y-91407544D01*
X69342455Y-91407547D01*
X69457664Y-91493793D01*
X69457671Y-91493797D01*
X69592517Y-91544091D01*
X69592516Y-91544091D01*
X69599444Y-91544835D01*
X69652127Y-91550500D01*
X71447872Y-91550499D01*
X71507483Y-91544091D01*
X71642331Y-91493796D01*
X71757546Y-91407546D01*
X71843796Y-91292331D01*
X71894091Y-91157483D01*
X71898913Y-91112638D01*
X71925651Y-91048087D01*
X71983044Y-91008239D01*
X72008315Y-91002674D01*
X72082002Y-90994372D01*
X72161914Y-90985369D01*
X72161917Y-90985368D01*
X72161919Y-90985368D01*
X72332186Y-90925789D01*
X72484926Y-90829816D01*
X72612480Y-90702262D01*
X72708453Y-90549522D01*
X72768032Y-90379255D01*
X72768033Y-90379249D01*
X72788229Y-90200003D01*
X72788229Y-90199996D01*
X72768033Y-90020750D01*
X72768032Y-90020745D01*
X72749342Y-89967331D01*
X72708453Y-89850478D01*
X72697145Y-89832482D01*
X72612479Y-89697737D01*
X72484926Y-89570184D01*
X72332187Y-89474211D01*
X72161918Y-89414631D01*
X72161913Y-89414630D01*
X72008318Y-89397325D01*
X71943904Y-89370259D01*
X71904348Y-89312664D01*
X71898911Y-89287357D01*
X71894091Y-89242516D01*
X71843797Y-89107671D01*
X71843793Y-89107664D01*
X71757547Y-88992455D01*
X71757544Y-88992452D01*
X71642335Y-88906206D01*
X71642328Y-88906202D01*
X71507482Y-88855908D01*
X71507483Y-88855908D01*
X71447883Y-88849501D01*
X71447881Y-88849500D01*
X71447873Y-88849500D01*
X71447864Y-88849500D01*
X69652129Y-88849500D01*
X69652123Y-88849501D01*
X69592516Y-88855908D01*
X69457671Y-88906202D01*
X69457664Y-88906206D01*
X69342455Y-88992452D01*
X69342452Y-88992455D01*
X69256206Y-89107664D01*
X69256203Y-89107669D01*
X69207189Y-89239083D01*
X69165317Y-89295016D01*
X69099853Y-89319433D01*
X69031580Y-89304581D01*
X69003326Y-89283430D01*
X68881402Y-89161506D01*
X68881395Y-89161501D01*
X68687834Y-89025967D01*
X68687830Y-89025965D01*
X68687828Y-89025964D01*
X68473663Y-88926097D01*
X68473659Y-88926096D01*
X68473655Y-88926094D01*
X68245413Y-88864938D01*
X68245403Y-88864936D01*
X68010001Y-88844341D01*
X68009999Y-88844341D01*
X67774596Y-88864936D01*
X67774586Y-88864938D01*
X67546344Y-88926094D01*
X67546335Y-88926098D01*
X67332171Y-89025964D01*
X67332169Y-89025965D01*
X67138597Y-89161505D01*
X66971505Y-89328597D01*
X66835965Y-89522169D01*
X66835964Y-89522171D01*
X66736098Y-89736335D01*
X66736094Y-89736344D01*
X66674938Y-89964586D01*
X66674936Y-89964596D01*
X66654341Y-90199999D01*
X65605565Y-90199999D01*
X65605565Y-90199996D01*
X65585369Y-90020750D01*
X65585368Y-90020745D01*
X65566678Y-89967331D01*
X65525789Y-89850478D01*
X65514481Y-89832482D01*
X65477021Y-89772864D01*
X65429816Y-89697738D01*
X65429814Y-89697736D01*
X65429813Y-89697734D01*
X65427550Y-89694896D01*
X65426659Y-89692715D01*
X65426111Y-89691842D01*
X65426264Y-89691745D01*
X65401144Y-89630209D01*
X65400500Y-89617587D01*
X65400500Y-86699997D01*
X66782677Y-86699997D01*
X66782677Y-86700002D01*
X66801929Y-86920062D01*
X66801930Y-86920070D01*
X66859104Y-87133445D01*
X66859105Y-87133447D01*
X66859106Y-87133450D01*
X66924039Y-87272700D01*
X66952466Y-87333662D01*
X66952468Y-87333666D01*
X67079170Y-87514615D01*
X67079175Y-87514621D01*
X67235378Y-87670824D01*
X67235384Y-87670829D01*
X67416333Y-87797531D01*
X67416335Y-87797532D01*
X67416338Y-87797534D01*
X67616550Y-87890894D01*
X67829932Y-87948070D01*
X67987123Y-87961822D01*
X68049998Y-87967323D01*
X68050000Y-87967323D01*
X68050002Y-87967323D01*
X68105017Y-87962509D01*
X68270068Y-87948070D01*
X68483450Y-87890894D01*
X68683662Y-87797534D01*
X68864620Y-87670826D01*
X69020826Y-87514620D01*
X69147534Y-87333662D01*
X69175962Y-87272697D01*
X69222131Y-87220262D01*
X69289325Y-87201109D01*
X69356206Y-87221324D01*
X69400723Y-87272699D01*
X69412155Y-87297214D01*
X69452466Y-87383662D01*
X69452468Y-87383666D01*
X69579170Y-87564615D01*
X69579175Y-87564621D01*
X69735378Y-87720824D01*
X69735384Y-87720829D01*
X69916333Y-87847531D01*
X69916335Y-87847532D01*
X69916338Y-87847534D01*
X70116550Y-87940894D01*
X70329932Y-87998070D01*
X70487123Y-88011822D01*
X70549998Y-88017323D01*
X70550000Y-88017323D01*
X70550002Y-88017323D01*
X70605017Y-88012509D01*
X70770068Y-87998070D01*
X70983450Y-87940894D01*
X71183662Y-87847534D01*
X71364620Y-87720826D01*
X71520826Y-87564620D01*
X71647534Y-87383662D01*
X71740894Y-87183450D01*
X71798070Y-86970068D01*
X71816360Y-86761004D01*
X71817323Y-86750002D01*
X71817323Y-86749997D01*
X71812948Y-86699996D01*
X73224435Y-86699996D01*
X73224435Y-86700003D01*
X73244630Y-86879249D01*
X73244631Y-86879254D01*
X73304211Y-87049523D01*
X73356947Y-87133451D01*
X73400184Y-87202262D01*
X73527738Y-87329816D01*
X73680478Y-87425789D01*
X73850745Y-87485368D01*
X73850750Y-87485369D01*
X74029996Y-87505565D01*
X74030000Y-87505565D01*
X74030004Y-87505565D01*
X74209249Y-87485369D01*
X74209252Y-87485368D01*
X74209255Y-87485368D01*
X74379522Y-87425789D01*
X74532262Y-87329816D01*
X74659816Y-87202262D01*
X74755789Y-87049522D01*
X74815368Y-86879255D01*
X74815369Y-86879249D01*
X74835565Y-86700003D01*
X74835565Y-86699996D01*
X74815369Y-86520750D01*
X74815368Y-86520745D01*
X74755788Y-86350476D01*
X74691957Y-86248890D01*
X74659816Y-86197738D01*
X74532262Y-86070184D01*
X74526141Y-86066338D01*
X74379523Y-85974211D01*
X74209254Y-85914631D01*
X74209249Y-85914630D01*
X74030004Y-85894435D01*
X74029996Y-85894435D01*
X73850750Y-85914630D01*
X73850745Y-85914631D01*
X73680476Y-85974211D01*
X73527737Y-86070184D01*
X73400184Y-86197737D01*
X73304211Y-86350476D01*
X73244631Y-86520745D01*
X73244630Y-86520750D01*
X73224435Y-86699996D01*
X71812948Y-86699996D01*
X71810103Y-86667474D01*
X71798070Y-86529932D01*
X71740894Y-86316550D01*
X71709344Y-86248890D01*
X71688096Y-86203323D01*
X71677604Y-86134246D01*
X71695483Y-86084949D01*
X71733453Y-86024522D01*
X71793032Y-85854255D01*
X71793033Y-85854249D01*
X71813229Y-85675003D01*
X71813229Y-85674996D01*
X71793033Y-85495750D01*
X71793032Y-85495745D01*
X71777700Y-85451929D01*
X71733453Y-85325478D01*
X71637480Y-85172738D01*
X71509926Y-85045184D01*
X71477043Y-85024522D01*
X71357187Y-84949211D01*
X71186918Y-84889631D01*
X71186913Y-84889630D01*
X71007668Y-84869435D01*
X71007660Y-84869435D01*
X70828414Y-84889630D01*
X70828409Y-84889631D01*
X70658140Y-84949211D01*
X70505401Y-85045184D01*
X70377848Y-85172737D01*
X70281874Y-85325478D01*
X70230417Y-85472536D01*
X70189695Y-85529313D01*
X70145471Y-85551356D01*
X70116551Y-85559105D01*
X70116550Y-85559105D01*
X69916340Y-85652465D01*
X69916338Y-85652466D01*
X69735377Y-85779175D01*
X69579175Y-85935377D01*
X69452466Y-86116338D01*
X69452462Y-86116345D01*
X69424038Y-86177300D01*
X69377865Y-86229739D01*
X69310671Y-86248890D01*
X69243791Y-86228673D01*
X69199276Y-86177300D01*
X69147534Y-86066339D01*
X69055834Y-85935377D01*
X69020827Y-85885381D01*
X68989695Y-85854249D01*
X68864620Y-85729174D01*
X68864616Y-85729171D01*
X68864615Y-85729170D01*
X68683666Y-85602468D01*
X68683662Y-85602466D01*
X68683660Y-85602465D01*
X68483450Y-85509106D01*
X68483447Y-85509105D01*
X68483445Y-85509104D01*
X68270070Y-85451930D01*
X68270062Y-85451929D01*
X68050002Y-85432677D01*
X68049998Y-85432677D01*
X67829937Y-85451929D01*
X67829929Y-85451930D01*
X67616554Y-85509104D01*
X67616548Y-85509107D01*
X67416340Y-85602465D01*
X67416338Y-85602466D01*
X67235377Y-85729175D01*
X67079175Y-85885377D01*
X66952466Y-86066338D01*
X66952465Y-86066340D01*
X66859107Y-86266548D01*
X66859104Y-86266554D01*
X66801930Y-86479929D01*
X66801929Y-86479937D01*
X66782677Y-86699997D01*
X65400500Y-86699997D01*
X65400500Y-55556396D01*
X65400501Y-55556383D01*
X65400501Y-55388280D01*
X65391384Y-55354255D01*
X65359577Y-55235552D01*
X65339050Y-55199999D01*
X66654341Y-55199999D01*
X66654341Y-55200000D01*
X66674936Y-55435403D01*
X66674938Y-55435413D01*
X66736094Y-55663655D01*
X66736096Y-55663659D01*
X66736097Y-55663663D01*
X66801918Y-55804816D01*
X66835965Y-55877830D01*
X66835967Y-55877834D01*
X66918224Y-55995308D01*
X66971505Y-56071401D01*
X67138599Y-56238495D01*
X67235384Y-56306265D01*
X67332165Y-56374032D01*
X67332167Y-56374033D01*
X67332170Y-56374035D01*
X67546337Y-56473903D01*
X67774592Y-56535063D01*
X67951034Y-56550500D01*
X68009999Y-56555659D01*
X68010000Y-56555659D01*
X68010001Y-56555659D01*
X68068966Y-56550500D01*
X68245408Y-56535063D01*
X68473663Y-56473903D01*
X68687830Y-56374035D01*
X68881401Y-56238495D01*
X69003329Y-56116566D01*
X69064648Y-56083084D01*
X69134340Y-56088068D01*
X69190274Y-56129939D01*
X69207189Y-56160917D01*
X69256202Y-56292328D01*
X69256206Y-56292335D01*
X69342452Y-56407544D01*
X69342455Y-56407547D01*
X69457664Y-56493793D01*
X69457671Y-56493797D01*
X69592517Y-56544091D01*
X69592516Y-56544091D01*
X69599444Y-56544835D01*
X69652127Y-56550500D01*
X71447872Y-56550499D01*
X71507483Y-56544091D01*
X71642331Y-56493796D01*
X71757546Y-56407546D01*
X71843796Y-56292331D01*
X71894091Y-56157483D01*
X71900500Y-56097873D01*
X71900499Y-54302128D01*
X71894091Y-54242517D01*
X71892810Y-54239083D01*
X71843797Y-54107671D01*
X71843793Y-54107664D01*
X71757547Y-53992455D01*
X71757544Y-53992452D01*
X71642335Y-53906206D01*
X71642328Y-53906202D01*
X71507482Y-53855908D01*
X71507483Y-53855908D01*
X71447883Y-53849501D01*
X71447881Y-53849500D01*
X71447873Y-53849500D01*
X71447864Y-53849500D01*
X69652129Y-53849500D01*
X69652123Y-53849501D01*
X69592516Y-53855908D01*
X69457671Y-53906202D01*
X69457664Y-53906206D01*
X69342455Y-53992452D01*
X69342452Y-53992455D01*
X69256206Y-54107664D01*
X69256203Y-54107669D01*
X69207189Y-54239083D01*
X69165317Y-54295016D01*
X69099853Y-54319433D01*
X69031580Y-54304581D01*
X69003326Y-54283430D01*
X68881402Y-54161506D01*
X68881395Y-54161501D01*
X68687834Y-54025967D01*
X68687830Y-54025965D01*
X68623023Y-53995745D01*
X68473663Y-53926097D01*
X68473659Y-53926096D01*
X68473655Y-53926094D01*
X68245413Y-53864938D01*
X68245403Y-53864936D01*
X68010001Y-53844341D01*
X68009999Y-53844341D01*
X67774596Y-53864936D01*
X67774586Y-53864938D01*
X67546344Y-53926094D01*
X67546335Y-53926098D01*
X67332171Y-54025964D01*
X67332169Y-54025965D01*
X67138597Y-54161505D01*
X66971505Y-54328597D01*
X66835965Y-54522169D01*
X66835964Y-54522171D01*
X66736098Y-54736335D01*
X66736094Y-54736344D01*
X66674938Y-54964586D01*
X66674936Y-54964596D01*
X66654341Y-55199999D01*
X65339050Y-55199999D01*
X65323402Y-55172895D01*
X65307570Y-55124779D01*
X65293033Y-54995750D01*
X65293032Y-54995745D01*
X65283091Y-54967335D01*
X65233453Y-54825478D01*
X65137480Y-54672738D01*
X65009926Y-54545184D01*
X64973298Y-54522169D01*
X64857187Y-54449211D01*
X64686918Y-54389631D01*
X64686913Y-54389630D01*
X64507668Y-54369435D01*
X64507660Y-54369435D01*
X64328414Y-54389630D01*
X64328409Y-54389631D01*
X64158140Y-54449211D01*
X64005401Y-54545184D01*
X63877848Y-54672737D01*
X63781875Y-54825476D01*
X63722295Y-54995745D01*
X63722294Y-54995750D01*
X63702099Y-55174996D01*
X54000500Y-55174996D01*
X54000500Y-51699997D01*
X66782677Y-51699997D01*
X66782677Y-51700002D01*
X66801929Y-51920062D01*
X66801930Y-51920070D01*
X66859104Y-52133445D01*
X66859105Y-52133447D01*
X66859106Y-52133450D01*
X66924039Y-52272700D01*
X66952466Y-52333662D01*
X66952468Y-52333666D01*
X67079170Y-52514615D01*
X67079175Y-52514621D01*
X67235378Y-52670824D01*
X67235384Y-52670829D01*
X67416333Y-52797531D01*
X67416335Y-52797532D01*
X67416338Y-52797534D01*
X67616550Y-52890894D01*
X67829932Y-52948070D01*
X67970514Y-52960369D01*
X68049998Y-52967323D01*
X68050000Y-52967323D01*
X68050002Y-52967323D01*
X68129486Y-52960369D01*
X68270068Y-52948070D01*
X68483450Y-52890894D01*
X68683662Y-52797534D01*
X68864620Y-52670826D01*
X69020826Y-52514620D01*
X69147534Y-52333662D01*
X69175962Y-52272697D01*
X69222131Y-52220262D01*
X69289325Y-52201109D01*
X69356206Y-52221324D01*
X69400723Y-52272699D01*
X69412155Y-52297214D01*
X69452466Y-52383662D01*
X69452468Y-52383666D01*
X69579170Y-52564615D01*
X69579175Y-52564621D01*
X69735378Y-52720824D01*
X69735384Y-52720829D01*
X69916333Y-52847531D01*
X69916335Y-52847532D01*
X69916338Y-52847534D01*
X70116550Y-52940894D01*
X70329932Y-52998070D01*
X70487123Y-53011822D01*
X70549998Y-53017323D01*
X70550000Y-53017323D01*
X70550002Y-53017323D01*
X70605017Y-53012509D01*
X70770068Y-52998070D01*
X70983450Y-52940894D01*
X71183662Y-52847534D01*
X71210143Y-52828992D01*
X71254512Y-52797925D01*
X71320718Y-52775598D01*
X71325635Y-52775500D01*
X71425252Y-52775500D01*
X71492291Y-52795185D01*
X71502567Y-52802555D01*
X71505400Y-52804814D01*
X71505402Y-52804816D01*
X71658142Y-52900789D01*
X71828409Y-52960368D01*
X71828414Y-52960369D01*
X72007660Y-52980565D01*
X72007664Y-52980565D01*
X72007668Y-52980565D01*
X72186913Y-52960369D01*
X72186916Y-52960368D01*
X72186919Y-52960368D01*
X72357186Y-52900789D01*
X72509926Y-52804816D01*
X72637480Y-52677262D01*
X72733453Y-52524522D01*
X72793032Y-52354255D01*
X72795352Y-52333666D01*
X72813229Y-52175003D01*
X72813229Y-52174996D01*
X72793033Y-51995750D01*
X72793032Y-51995745D01*
X72734971Y-51829816D01*
X72733453Y-51825478D01*
X72637480Y-51672738D01*
X72509926Y-51545184D01*
X72483348Y-51528484D01*
X72357187Y-51449211D01*
X72186918Y-51389631D01*
X72186913Y-51389630D01*
X72007668Y-51369435D01*
X72007660Y-51369435D01*
X71866228Y-51385370D01*
X71797406Y-51373315D01*
X71746027Y-51325966D01*
X71739968Y-51314565D01*
X71686544Y-51199996D01*
X73204435Y-51199996D01*
X73204435Y-51200003D01*
X73224630Y-51379249D01*
X73224631Y-51379254D01*
X73284211Y-51549523D01*
X73361632Y-51672737D01*
X73380184Y-51702262D01*
X73507738Y-51829816D01*
X73598080Y-51886582D01*
X73651363Y-51920062D01*
X73660478Y-51925789D01*
X73755730Y-51959119D01*
X73830745Y-51985368D01*
X73830750Y-51985369D01*
X74009996Y-52005565D01*
X74010000Y-52005565D01*
X74010004Y-52005565D01*
X74189249Y-51985369D01*
X74189252Y-51985368D01*
X74189255Y-51985368D01*
X74359522Y-51925789D01*
X74512262Y-51829816D01*
X74639816Y-51702262D01*
X74735789Y-51549522D01*
X74795368Y-51379255D01*
X74795369Y-51379249D01*
X74815565Y-51200003D01*
X74815565Y-51199996D01*
X74795369Y-51020750D01*
X74795368Y-51020745D01*
X74748002Y-50885381D01*
X74735789Y-50850478D01*
X74639816Y-50697738D01*
X74512262Y-50570184D01*
X74494633Y-50559107D01*
X74359523Y-50474211D01*
X74189254Y-50414631D01*
X74189249Y-50414630D01*
X74010004Y-50394435D01*
X74009996Y-50394435D01*
X73830750Y-50414630D01*
X73830745Y-50414631D01*
X73660476Y-50474211D01*
X73507737Y-50570184D01*
X73380184Y-50697737D01*
X73284211Y-50850476D01*
X73224631Y-51020745D01*
X73224630Y-51020750D01*
X73204435Y-51199996D01*
X71686544Y-51199996D01*
X71647534Y-51116339D01*
X71520826Y-50935380D01*
X71364620Y-50779174D01*
X71364616Y-50779171D01*
X71364615Y-50779170D01*
X71183666Y-50652468D01*
X71183662Y-50652466D01*
X71183660Y-50652465D01*
X70983450Y-50559106D01*
X70983447Y-50559105D01*
X70983445Y-50559104D01*
X70770070Y-50501930D01*
X70770062Y-50501929D01*
X70550002Y-50482677D01*
X70549998Y-50482677D01*
X70329937Y-50501929D01*
X70329929Y-50501930D01*
X70116554Y-50559104D01*
X70116548Y-50559107D01*
X69916340Y-50652465D01*
X69916338Y-50652466D01*
X69735377Y-50779175D01*
X69579175Y-50935377D01*
X69452466Y-51116338D01*
X69452462Y-51116345D01*
X69424038Y-51177300D01*
X69377865Y-51229739D01*
X69310671Y-51248890D01*
X69243791Y-51228673D01*
X69199276Y-51177300D01*
X69147534Y-51066339D01*
X69020826Y-50885380D01*
X68864620Y-50729174D01*
X68864616Y-50729171D01*
X68864615Y-50729170D01*
X68683666Y-50602468D01*
X68683662Y-50602466D01*
X68683660Y-50602465D01*
X68483450Y-50509106D01*
X68483447Y-50509105D01*
X68483445Y-50509104D01*
X68270070Y-50451930D01*
X68270062Y-50451929D01*
X68050002Y-50432677D01*
X68049998Y-50432677D01*
X67829937Y-50451929D01*
X67829929Y-50451930D01*
X67616554Y-50509104D01*
X67616548Y-50509107D01*
X67416340Y-50602465D01*
X67416338Y-50602466D01*
X67235377Y-50729175D01*
X67079175Y-50885377D01*
X66952466Y-51066338D01*
X66952465Y-51066340D01*
X66859107Y-51266548D01*
X66859104Y-51266554D01*
X66801930Y-51479929D01*
X66801929Y-51479937D01*
X66782677Y-51699997D01*
X54000500Y-51699997D01*
X54000500Y-41654893D01*
X54020185Y-41587854D01*
X54052261Y-41557272D01*
X54050863Y-41555450D01*
X54057307Y-41550503D01*
X54057314Y-41550500D01*
X54150500Y-41457314D01*
X54216392Y-41343186D01*
X54250500Y-41215892D01*
X54250500Y-41084108D01*
X54216392Y-40956814D01*
X54216390Y-40956810D01*
X54211786Y-40948835D01*
X54195313Y-40880934D01*
X54218166Y-40814908D01*
X54257169Y-40779450D01*
X54307314Y-40750500D01*
X54400500Y-40657314D01*
X54466392Y-40543186D01*
X54500500Y-40415892D01*
X54500500Y-40284108D01*
X54466392Y-40156814D01*
X54411650Y-40061999D01*
X54395178Y-39994100D01*
X54411650Y-39938000D01*
X54466392Y-39843186D01*
X54500500Y-39715892D01*
X54500500Y-39584108D01*
X54466392Y-39456814D01*
X54400500Y-39342686D01*
X54307314Y-39249500D01*
X54257173Y-39220551D01*
X54208957Y-39169984D01*
X54195734Y-39101377D01*
X54211786Y-39051163D01*
X54216392Y-39043186D01*
X54250500Y-38915892D01*
X54250500Y-38784108D01*
X54216392Y-38656814D01*
X54150500Y-38542686D01*
X54057314Y-38449500D01*
X54057311Y-38449498D01*
X54050865Y-38444552D01*
X54052675Y-38442192D01*
X54014280Y-38401920D01*
X54000500Y-38345107D01*
X54000500Y-37573915D01*
X54000635Y-37571819D01*
X54000622Y-37564953D01*
X54000623Y-37564950D01*
X54000500Y-37499580D01*
X54000500Y-37434108D01*
X54000500Y-37427216D01*
X54000358Y-37425120D01*
X53967379Y-19897648D01*
X54699500Y-19897648D01*
X54699500Y-20102351D01*
X54731522Y-20304534D01*
X54794781Y-20499223D01*
X54820411Y-20549523D01*
X54880251Y-20666966D01*
X54887715Y-20681613D01*
X55008028Y-20847213D01*
X55152786Y-20991971D01*
X55289874Y-21091569D01*
X55318390Y-21112287D01*
X55392514Y-21150055D01*
X55500776Y-21205218D01*
X55500778Y-21205218D01*
X55500781Y-21205220D01*
X55605137Y-21239127D01*
X55695465Y-21268477D01*
X55796557Y-21284488D01*
X55897648Y-21300500D01*
X55897649Y-21300500D01*
X56102351Y-21300500D01*
X56102352Y-21300500D01*
X56304534Y-21268477D01*
X56499219Y-21205220D01*
X56681610Y-21112287D01*
X56774590Y-21044732D01*
X56847213Y-20991971D01*
X56847215Y-20991968D01*
X56847219Y-20991966D01*
X56991966Y-20847219D01*
X56991968Y-20847215D01*
X56991971Y-20847213D01*
X57044732Y-20774590D01*
X57112287Y-20681610D01*
X57205220Y-20499219D01*
X57268477Y-20304534D01*
X57300500Y-20102352D01*
X57300500Y-19897648D01*
X57268477Y-19695466D01*
X57205220Y-19500781D01*
X57205218Y-19500778D01*
X57205218Y-19500776D01*
X57138821Y-19370466D01*
X57112287Y-19318390D01*
X57061936Y-19249087D01*
X56991971Y-19152786D01*
X56847213Y-19008028D01*
X56681613Y-18887715D01*
X56681612Y-18887714D01*
X56681610Y-18887713D01*
X56616738Y-18854659D01*
X56499223Y-18794781D01*
X56304534Y-18731522D01*
X56129995Y-18703878D01*
X56102352Y-18699500D01*
X55897648Y-18699500D01*
X55873329Y-18703351D01*
X55695465Y-18731522D01*
X55500776Y-18794781D01*
X55318386Y-18887715D01*
X55152786Y-19008028D01*
X55008028Y-19152786D01*
X54887715Y-19318386D01*
X54794781Y-19500776D01*
X54731522Y-19695465D01*
X54699500Y-19897648D01*
X53967379Y-19897648D01*
X53966093Y-19214083D01*
X53962633Y-17374999D01*
X57944341Y-17374999D01*
X57944341Y-17375000D01*
X57964936Y-17610403D01*
X57964938Y-17610413D01*
X58026094Y-17838655D01*
X58026096Y-17838659D01*
X58026097Y-17838663D01*
X58042321Y-17873455D01*
X58125965Y-18052830D01*
X58125967Y-18052834D01*
X58210849Y-18174057D01*
X58261505Y-18246401D01*
X58428599Y-18413495D01*
X58508982Y-18469780D01*
X58622165Y-18549032D01*
X58622167Y-18549033D01*
X58622170Y-18549035D01*
X58836337Y-18648903D01*
X59064592Y-18710063D01*
X59241034Y-18725500D01*
X59299999Y-18730659D01*
X59300000Y-18730659D01*
X59300001Y-18730659D01*
X59358966Y-18725500D01*
X59535408Y-18710063D01*
X59763663Y-18648903D01*
X59977830Y-18549035D01*
X60171401Y-18413495D01*
X60338495Y-18246401D01*
X60468425Y-18060842D01*
X60523002Y-18017217D01*
X60592500Y-18010023D01*
X60654855Y-18041546D01*
X60671575Y-18060842D01*
X60801500Y-18246395D01*
X60801505Y-18246401D01*
X60968599Y-18413495D01*
X61048982Y-18469780D01*
X61162165Y-18549032D01*
X61162167Y-18549033D01*
X61162170Y-18549035D01*
X61376337Y-18648903D01*
X61604592Y-18710063D01*
X61781034Y-18725500D01*
X61839999Y-18730659D01*
X61840000Y-18730659D01*
X61840001Y-18730659D01*
X61898966Y-18725500D01*
X62075408Y-18710063D01*
X62303663Y-18648903D01*
X62517830Y-18549035D01*
X62711401Y-18413495D01*
X62878495Y-18246401D01*
X63008425Y-18060842D01*
X63063002Y-18017217D01*
X63132500Y-18010023D01*
X63194855Y-18041546D01*
X63211575Y-18060842D01*
X63341500Y-18246395D01*
X63341505Y-18246401D01*
X63508599Y-18413495D01*
X63588982Y-18469780D01*
X63702165Y-18549032D01*
X63702167Y-18549033D01*
X63702170Y-18549035D01*
X63707898Y-18551706D01*
X63760339Y-18597872D01*
X63779500Y-18664090D01*
X63779500Y-19814293D01*
X63772542Y-19855248D01*
X63714631Y-20020745D01*
X63714630Y-20020750D01*
X63694435Y-20199996D01*
X63694435Y-20200003D01*
X63714630Y-20379249D01*
X63714631Y-20379254D01*
X63774211Y-20549523D01*
X63802460Y-20594480D01*
X63870184Y-20702262D01*
X63997738Y-20829816D01*
X64150478Y-20925789D01*
X64292544Y-20975500D01*
X64320745Y-20985368D01*
X64320750Y-20985369D01*
X64499996Y-21005565D01*
X64500000Y-21005565D01*
X64500004Y-21005565D01*
X64679249Y-20985369D01*
X64679252Y-20985368D01*
X64679255Y-20985368D01*
X64849522Y-20925789D01*
X65002262Y-20829816D01*
X65129816Y-20702262D01*
X65225789Y-20549522D01*
X65285368Y-20379255D01*
X65287919Y-20356613D01*
X65305565Y-20200003D01*
X65305565Y-20199996D01*
X65285369Y-20020750D01*
X65285368Y-20020745D01*
X65227458Y-19855248D01*
X65225789Y-19850478D01*
X65203052Y-19814293D01*
X65129815Y-19697737D01*
X65016819Y-19584741D01*
X64983334Y-19523418D01*
X64980500Y-19497060D01*
X64980500Y-18664090D01*
X65000185Y-18597051D01*
X65052101Y-18551706D01*
X65057830Y-18549035D01*
X65251401Y-18413495D01*
X65387819Y-18277077D01*
X65449142Y-18243592D01*
X65518834Y-18248576D01*
X65574767Y-18290448D01*
X65599184Y-18355912D01*
X65599500Y-18364758D01*
X65599500Y-21713330D01*
X65599499Y-21713348D01*
X65599499Y-21879054D01*
X65599498Y-21879054D01*
X65640423Y-22031785D01*
X65669358Y-22081900D01*
X65669359Y-22081904D01*
X65669360Y-22081904D01*
X65719479Y-22168714D01*
X65719481Y-22168717D01*
X65838349Y-22287585D01*
X65838355Y-22287590D01*
X74328509Y-30777744D01*
X74361994Y-30839067D01*
X74364828Y-30865425D01*
X74364828Y-31592587D01*
X74345143Y-31659626D01*
X74337778Y-31669896D01*
X74335514Y-31672734D01*
X74239539Y-31825476D01*
X74179959Y-31995745D01*
X74179958Y-31995750D01*
X74159763Y-32174996D01*
X74159763Y-32175003D01*
X74179958Y-32354249D01*
X74179959Y-32354254D01*
X74239539Y-32524523D01*
X74335512Y-32677262D01*
X74463066Y-32804816D01*
X74615806Y-32900789D01*
X74786073Y-32960368D01*
X74786078Y-32960369D01*
X74965325Y-32980565D01*
X74972292Y-32980565D01*
X74972292Y-32982856D01*
X75030420Y-32993028D01*
X75081807Y-33040369D01*
X75099500Y-33104203D01*
X75099500Y-92517587D01*
X75079815Y-92584626D01*
X75072450Y-92594896D01*
X75070186Y-92597734D01*
X74974211Y-92750476D01*
X74914631Y-92920745D01*
X74914630Y-92920750D01*
X74894435Y-93099996D01*
X74894435Y-93100003D01*
X74914630Y-93279249D01*
X74914631Y-93279254D01*
X74974211Y-93449523D01*
X75070184Y-93602262D01*
X75197738Y-93729816D01*
X75350478Y-93825789D01*
X75520745Y-93885368D01*
X75520750Y-93885369D01*
X75699996Y-93905565D01*
X75700000Y-93905565D01*
X75700004Y-93905565D01*
X75879249Y-93885369D01*
X75879252Y-93885368D01*
X75879255Y-93885368D01*
X76049522Y-93825789D01*
X76202262Y-93729816D01*
X76329816Y-93602262D01*
X76425789Y-93449522D01*
X76485368Y-93279255D01*
X76505565Y-93100000D01*
X76485368Y-92920745D01*
X76425789Y-92750478D01*
X76329816Y-92597738D01*
X76329814Y-92597736D01*
X76329813Y-92597734D01*
X76327550Y-92594896D01*
X76326659Y-92592715D01*
X76326111Y-92591842D01*
X76326264Y-92591745D01*
X76301144Y-92530209D01*
X76300500Y-92517587D01*
X76300500Y-89674996D01*
X77202099Y-89674996D01*
X77202099Y-89675003D01*
X77222294Y-89854249D01*
X77222295Y-89854254D01*
X77281875Y-90024523D01*
X77372527Y-90168793D01*
X77377848Y-90177262D01*
X77505402Y-90304816D01*
X77658142Y-90400789D01*
X77757092Y-90435413D01*
X77828409Y-90460368D01*
X77828414Y-90460369D01*
X78007660Y-90480565D01*
X78007664Y-90480565D01*
X78007668Y-90480565D01*
X78186913Y-90460369D01*
X78186916Y-90460368D01*
X78186919Y-90460368D01*
X78357186Y-90400789D01*
X78509926Y-90304816D01*
X78509927Y-90304815D01*
X78552923Y-90261819D01*
X78614246Y-90228333D01*
X78640605Y-90225499D01*
X79847871Y-90225499D01*
X79847872Y-90225499D01*
X79907483Y-90219091D01*
X80042331Y-90168796D01*
X80157546Y-90082546D01*
X80243796Y-89967331D01*
X80294091Y-89832483D01*
X80300500Y-89772873D01*
X80300499Y-88627128D01*
X80294091Y-88567517D01*
X80243796Y-88432669D01*
X80242967Y-88431562D01*
X80242485Y-88430268D01*
X80239546Y-88424886D01*
X80240319Y-88424463D01*
X80218551Y-88366099D01*
X80227675Y-88309798D01*
X80261089Y-88229132D01*
X80261089Y-88229131D01*
X80261091Y-88229127D01*
X80300500Y-88031003D01*
X80300500Y-87828997D01*
X80261091Y-87630873D01*
X80183786Y-87444244D01*
X80130094Y-87363889D01*
X80109217Y-87297214D01*
X80127701Y-87229834D01*
X80130078Y-87226134D01*
X80183786Y-87145756D01*
X80261091Y-86959127D01*
X80300500Y-86761003D01*
X80300500Y-86558997D01*
X80261091Y-86360873D01*
X80183786Y-86174244D01*
X80183784Y-86174241D01*
X80183782Y-86174237D01*
X80071558Y-86006281D01*
X79928718Y-85863441D01*
X79760762Y-85751217D01*
X79760752Y-85751212D01*
X79574127Y-85673909D01*
X79574119Y-85673907D01*
X79376007Y-85634500D01*
X79376003Y-85634500D01*
X78723997Y-85634500D01*
X78723992Y-85634500D01*
X78525880Y-85673907D01*
X78525872Y-85673909D01*
X78339247Y-85751212D01*
X78339237Y-85751217D01*
X78171281Y-85863441D01*
X78028441Y-86006281D01*
X77916217Y-86174237D01*
X77916212Y-86174247D01*
X77838909Y-86360872D01*
X77838907Y-86360880D01*
X77799500Y-86558992D01*
X77799500Y-86761007D01*
X77838907Y-86959119D01*
X77838909Y-86959127D01*
X77916213Y-87145755D01*
X77969904Y-87226109D01*
X77990782Y-87292787D01*
X77972297Y-87360167D01*
X77969904Y-87363891D01*
X77916213Y-87444244D01*
X77838909Y-87630872D01*
X77838907Y-87630880D01*
X77799500Y-87828992D01*
X77799500Y-88031007D01*
X77838907Y-88229119D01*
X77838909Y-88229127D01*
X77872325Y-88309800D01*
X77879794Y-88379270D01*
X77860038Y-88424660D01*
X77860454Y-88424887D01*
X77857919Y-88429528D01*
X77857037Y-88431556D01*
X77856206Y-88432665D01*
X77856202Y-88432672D01*
X77805908Y-88567517D01*
X77799501Y-88627116D01*
X77799501Y-88627123D01*
X77799500Y-88627135D01*
X77799500Y-88811765D01*
X77779815Y-88878804D01*
X77727011Y-88924559D01*
X77716455Y-88928806D01*
X77658143Y-88949210D01*
X77658139Y-88949212D01*
X77505401Y-89045184D01*
X77377848Y-89172737D01*
X77281875Y-89325476D01*
X77222295Y-89495745D01*
X77222294Y-89495750D01*
X77202099Y-89674996D01*
X76300500Y-89674996D01*
X76300500Y-84674996D01*
X80179763Y-84674996D01*
X80179763Y-84675003D01*
X80199958Y-84854249D01*
X80199959Y-84854254D01*
X80259539Y-85024523D01*
X80352669Y-85172737D01*
X80355512Y-85177262D01*
X80483066Y-85304816D01*
X80635806Y-85400789D01*
X80726937Y-85432677D01*
X80806073Y-85460368D01*
X80806078Y-85460369D01*
X80985324Y-85480565D01*
X80985328Y-85480565D01*
X80985332Y-85480565D01*
X81164577Y-85460369D01*
X81164580Y-85460368D01*
X81164583Y-85460368D01*
X81334850Y-85400789D01*
X81487590Y-85304816D01*
X81615144Y-85177262D01*
X81711117Y-85024522D01*
X81770696Y-84854255D01*
X81790893Y-84675000D01*
X81770696Y-84495745D01*
X81711117Y-84325478D01*
X81615144Y-84172738D01*
X81487590Y-84045184D01*
X81334851Y-83949211D01*
X81164582Y-83889631D01*
X81164577Y-83889630D01*
X80985332Y-83869435D01*
X80985324Y-83869435D01*
X80806078Y-83889630D01*
X80806073Y-83889631D01*
X80635804Y-83949211D01*
X80483065Y-84045184D01*
X80355512Y-84172737D01*
X80259539Y-84325476D01*
X80199959Y-84495745D01*
X80199958Y-84495750D01*
X80179763Y-84674996D01*
X76300500Y-84674996D01*
X76300500Y-51558992D01*
X77799500Y-51558992D01*
X77799500Y-51761007D01*
X77838907Y-51959119D01*
X77838909Y-51959127D01*
X77916213Y-52145755D01*
X77969904Y-52226109D01*
X77990782Y-52292787D01*
X77972297Y-52360167D01*
X77969904Y-52363891D01*
X77916213Y-52444244D01*
X77838909Y-52630872D01*
X77838907Y-52630880D01*
X77799500Y-52828992D01*
X77799500Y-53031007D01*
X77838907Y-53229119D01*
X77838909Y-53229127D01*
X77872325Y-53309800D01*
X77879794Y-53379270D01*
X77860038Y-53424660D01*
X77860454Y-53424887D01*
X77857919Y-53429528D01*
X77857037Y-53431556D01*
X77856206Y-53432665D01*
X77856202Y-53432672D01*
X77805908Y-53567517D01*
X77799501Y-53627116D01*
X77799500Y-53627135D01*
X77799500Y-54772870D01*
X77799501Y-54772876D01*
X77805908Y-54832483D01*
X77856202Y-54967328D01*
X77856206Y-54967335D01*
X77942452Y-55082544D01*
X77942455Y-55082547D01*
X78057664Y-55168793D01*
X78057671Y-55168797D01*
X78192517Y-55219091D01*
X78192516Y-55219091D01*
X78199444Y-55219835D01*
X78252127Y-55225500D01*
X79847872Y-55225499D01*
X79907483Y-55219091D01*
X80042331Y-55168796D01*
X80157546Y-55082546D01*
X80212618Y-55008979D01*
X80268551Y-54967109D01*
X80325767Y-54960071D01*
X80507660Y-54980565D01*
X80507664Y-54980565D01*
X80507668Y-54980565D01*
X80686913Y-54960369D01*
X80686916Y-54960368D01*
X80686919Y-54960368D01*
X80857186Y-54900789D01*
X81009926Y-54804816D01*
X81137480Y-54677262D01*
X81233453Y-54524522D01*
X81293032Y-54354255D01*
X81295923Y-54328597D01*
X81313229Y-54175003D01*
X81313229Y-54174996D01*
X81293033Y-53995750D01*
X81293032Y-53995745D01*
X81261700Y-53906204D01*
X81233453Y-53825478D01*
X81137480Y-53672738D01*
X81009926Y-53545184D01*
X80857187Y-53449211D01*
X80686918Y-53389631D01*
X80686913Y-53389630D01*
X80507668Y-53369435D01*
X80507660Y-53369435D01*
X80395490Y-53382073D01*
X80326668Y-53370018D01*
X80275289Y-53322669D01*
X80257665Y-53255059D01*
X80259990Y-53234662D01*
X80300499Y-53031006D01*
X80300500Y-53031004D01*
X80300500Y-52828996D01*
X80300499Y-52828992D01*
X80278984Y-52720829D01*
X80261091Y-52630873D01*
X80183786Y-52444244D01*
X80130094Y-52363889D01*
X80109217Y-52297214D01*
X80127701Y-52229834D01*
X80130078Y-52226134D01*
X80183786Y-52145756D01*
X80261091Y-51959127D01*
X80300500Y-51761003D01*
X80300500Y-51558997D01*
X80261091Y-51360873D01*
X80183786Y-51174244D01*
X80183784Y-51174241D01*
X80183782Y-51174237D01*
X80071558Y-51006281D01*
X79928718Y-50863441D01*
X79760762Y-50751217D01*
X79760752Y-50751212D01*
X79574127Y-50673909D01*
X79574119Y-50673907D01*
X79376007Y-50634500D01*
X79376003Y-50634500D01*
X78723997Y-50634500D01*
X78723992Y-50634500D01*
X78525880Y-50673907D01*
X78525872Y-50673909D01*
X78339247Y-50751212D01*
X78339237Y-50751217D01*
X78171281Y-50863441D01*
X78028441Y-51006281D01*
X77916217Y-51174237D01*
X77916212Y-51174247D01*
X77838909Y-51360872D01*
X77838907Y-51360880D01*
X77799500Y-51558992D01*
X76300500Y-51558992D01*
X76300500Y-49674996D01*
X80199763Y-49674996D01*
X80199763Y-49675003D01*
X80219958Y-49854249D01*
X80219959Y-49854254D01*
X80279539Y-50024523D01*
X80375512Y-50177262D01*
X80503066Y-50304816D01*
X80593408Y-50361582D01*
X80645693Y-50394435D01*
X80655806Y-50400789D01*
X80746937Y-50432677D01*
X80826073Y-50460368D01*
X80826078Y-50460369D01*
X81005324Y-50480565D01*
X81005328Y-50480565D01*
X81005332Y-50480565D01*
X81184577Y-50460369D01*
X81184580Y-50460368D01*
X81184583Y-50460368D01*
X81354850Y-50400789D01*
X81507590Y-50304816D01*
X81635144Y-50177262D01*
X81731117Y-50024522D01*
X81790696Y-49854255D01*
X81810893Y-49675000D01*
X81790696Y-49495745D01*
X81731117Y-49325478D01*
X81635144Y-49172738D01*
X81507590Y-49045184D01*
X81354851Y-48949211D01*
X81184582Y-48889631D01*
X81184577Y-48889630D01*
X81005332Y-48869435D01*
X81005324Y-48869435D01*
X80826078Y-48889630D01*
X80826073Y-48889631D01*
X80655804Y-48949211D01*
X80503065Y-49045184D01*
X80375512Y-49172737D01*
X80279539Y-49325476D01*
X80219959Y-49495745D01*
X80219958Y-49495750D01*
X80199763Y-49674996D01*
X76300500Y-49674996D01*
X76300500Y-20995945D01*
X76300500Y-20995943D01*
X76259577Y-20843216D01*
X76259577Y-20843215D01*
X76220482Y-20775501D01*
X76180520Y-20706284D01*
X76068716Y-20594480D01*
X76068715Y-20594479D01*
X76064385Y-20590149D01*
X76064374Y-20590139D01*
X75046883Y-19572648D01*
X79664828Y-19572648D01*
X79664828Y-19777351D01*
X79696850Y-19979534D01*
X79760109Y-20174223D01*
X79853043Y-20356613D01*
X79973356Y-20522213D01*
X80118114Y-20666971D01*
X80267493Y-20775499D01*
X80283718Y-20787287D01*
X80367184Y-20829815D01*
X80466104Y-20880218D01*
X80466106Y-20880218D01*
X80466109Y-20880220D01*
X80570465Y-20914127D01*
X80660793Y-20943477D01*
X80761885Y-20959488D01*
X80862976Y-20975500D01*
X80862977Y-20975500D01*
X81067679Y-20975500D01*
X81067680Y-20975500D01*
X81269862Y-20943477D01*
X81464547Y-20880220D01*
X81646938Y-20787287D01*
X81763966Y-20702262D01*
X81812541Y-20666971D01*
X81812543Y-20666968D01*
X81812547Y-20666966D01*
X81957294Y-20522219D01*
X81957296Y-20522215D01*
X81957299Y-20522213D01*
X82045517Y-20400789D01*
X82077615Y-20356610D01*
X82170548Y-20174219D01*
X82233805Y-19979534D01*
X82265828Y-19777352D01*
X82265828Y-19572648D01*
X82233805Y-19370466D01*
X82216884Y-19318390D01*
X82195986Y-19254071D01*
X82170548Y-19175781D01*
X82170546Y-19175778D01*
X82170546Y-19175776D01*
X82104005Y-19045184D01*
X82077615Y-18993390D01*
X82058772Y-18967454D01*
X81957299Y-18827786D01*
X81812541Y-18683028D01*
X81646941Y-18562715D01*
X81646940Y-18562714D01*
X81646938Y-18562713D01*
X81589981Y-18533691D01*
X81464551Y-18469781D01*
X81269862Y-18406522D01*
X81095323Y-18378878D01*
X81067680Y-18374500D01*
X80862976Y-18374500D01*
X80838657Y-18378351D01*
X80660793Y-18406522D01*
X80466104Y-18469781D01*
X80283714Y-18562715D01*
X80118114Y-18683028D01*
X79973356Y-18827786D01*
X79853043Y-18993386D01*
X79760109Y-19175776D01*
X79696850Y-19370465D01*
X79664828Y-19572648D01*
X75046883Y-19572648D01*
X73386818Y-17912583D01*
X73353333Y-17851260D01*
X73350499Y-17824902D01*
X73350499Y-16477129D01*
X73350498Y-16477123D01*
X73344091Y-16417516D01*
X73293797Y-16282671D01*
X73293793Y-16282664D01*
X73207547Y-16167455D01*
X73207544Y-16167452D01*
X73092335Y-16081206D01*
X73092328Y-16081202D01*
X72957482Y-16030908D01*
X72957483Y-16030908D01*
X72897883Y-16024501D01*
X72897881Y-16024500D01*
X72897873Y-16024500D01*
X72897864Y-16024500D01*
X71102129Y-16024500D01*
X71102123Y-16024501D01*
X71042516Y-16030908D01*
X70907671Y-16081202D01*
X70907664Y-16081206D01*
X70792455Y-16167452D01*
X70792452Y-16167455D01*
X70706206Y-16282664D01*
X70706203Y-16282669D01*
X70657189Y-16414083D01*
X70615317Y-16470016D01*
X70549853Y-16494433D01*
X70481580Y-16479581D01*
X70453326Y-16458430D01*
X70331402Y-16336506D01*
X70331395Y-16336501D01*
X70137834Y-16200967D01*
X70137830Y-16200965D01*
X70137828Y-16200964D01*
X69923663Y-16101097D01*
X69923659Y-16101096D01*
X69923655Y-16101094D01*
X69695413Y-16039938D01*
X69695403Y-16039936D01*
X69460001Y-16019341D01*
X69459999Y-16019341D01*
X69224596Y-16039936D01*
X69224586Y-16039938D01*
X68996344Y-16101094D01*
X68996335Y-16101098D01*
X68782171Y-16200964D01*
X68782169Y-16200965D01*
X68588597Y-16336505D01*
X68421505Y-16503597D01*
X68291575Y-16689158D01*
X68236998Y-16732783D01*
X68167500Y-16739977D01*
X68105145Y-16708454D01*
X68088425Y-16689158D01*
X67958494Y-16503597D01*
X67791402Y-16336506D01*
X67791395Y-16336501D01*
X67597834Y-16200967D01*
X67597830Y-16200965D01*
X67597828Y-16200964D01*
X67383663Y-16101097D01*
X67383659Y-16101096D01*
X67383655Y-16101094D01*
X67155413Y-16039938D01*
X67155403Y-16039936D01*
X66920001Y-16019341D01*
X66919999Y-16019341D01*
X66684596Y-16039936D01*
X66684586Y-16039938D01*
X66456344Y-16101094D01*
X66456335Y-16101098D01*
X66242171Y-16200964D01*
X66242169Y-16200965D01*
X66048597Y-16336505D01*
X65881505Y-16503597D01*
X65751575Y-16689158D01*
X65696998Y-16732783D01*
X65627500Y-16739977D01*
X65565145Y-16708454D01*
X65548425Y-16689158D01*
X65418494Y-16503597D01*
X65251402Y-16336506D01*
X65251395Y-16336501D01*
X65057834Y-16200967D01*
X65057830Y-16200965D01*
X65057828Y-16200964D01*
X64843663Y-16101097D01*
X64843659Y-16101096D01*
X64843655Y-16101094D01*
X64615413Y-16039938D01*
X64615403Y-16039936D01*
X64380001Y-16019341D01*
X64379999Y-16019341D01*
X64144596Y-16039936D01*
X64144586Y-16039938D01*
X63916344Y-16101094D01*
X63916335Y-16101098D01*
X63702171Y-16200964D01*
X63702169Y-16200965D01*
X63508597Y-16336505D01*
X63341505Y-16503597D01*
X63211575Y-16689158D01*
X63156998Y-16732783D01*
X63087500Y-16739977D01*
X63025145Y-16708454D01*
X63008425Y-16689158D01*
X62878494Y-16503597D01*
X62711402Y-16336506D01*
X62711395Y-16336501D01*
X62517834Y-16200967D01*
X62517830Y-16200965D01*
X62517828Y-16200964D01*
X62303663Y-16101097D01*
X62303659Y-16101096D01*
X62303655Y-16101094D01*
X62075413Y-16039938D01*
X62075403Y-16039936D01*
X61840001Y-16019341D01*
X61839999Y-16019341D01*
X61604596Y-16039936D01*
X61604586Y-16039938D01*
X61376344Y-16101094D01*
X61376335Y-16101098D01*
X61162171Y-16200964D01*
X61162169Y-16200965D01*
X60968597Y-16336505D01*
X60801505Y-16503597D01*
X60671575Y-16689158D01*
X60616998Y-16732783D01*
X60547500Y-16739977D01*
X60485145Y-16708454D01*
X60468425Y-16689158D01*
X60338494Y-16503597D01*
X60171402Y-16336506D01*
X60171395Y-16336501D01*
X59977834Y-16200967D01*
X59977830Y-16200965D01*
X59977828Y-16200964D01*
X59763663Y-16101097D01*
X59763659Y-16101096D01*
X59763655Y-16101094D01*
X59535413Y-16039938D01*
X59535403Y-16039936D01*
X59300001Y-16019341D01*
X59299999Y-16019341D01*
X59064596Y-16039936D01*
X59064586Y-16039938D01*
X58836344Y-16101094D01*
X58836335Y-16101098D01*
X58622171Y-16200964D01*
X58622169Y-16200965D01*
X58428597Y-16336505D01*
X58261505Y-16503597D01*
X58125965Y-16697169D01*
X58125964Y-16697171D01*
X58026098Y-16911335D01*
X58026094Y-16911344D01*
X57964938Y-17139586D01*
X57964936Y-17139596D01*
X57944341Y-17374999D01*
X53962633Y-17374999D01*
X53959340Y-15624733D01*
X53978899Y-15557657D01*
X54031616Y-15511803D01*
X54083340Y-15500500D01*
X82833673Y-15500500D01*
X82900712Y-15520185D01*
G37*
%TD.AperFunction*%
%TA.AperFunction,NonConductor*%
G36*
X70584340Y-18263068D02*
G01*
X70640274Y-18304939D01*
X70657189Y-18335917D01*
X70706202Y-18467328D01*
X70706206Y-18467335D01*
X70792452Y-18582544D01*
X70792453Y-18582544D01*
X70792454Y-18582546D01*
X70795858Y-18585094D01*
X70817418Y-18601234D01*
X70859288Y-18657168D01*
X70864272Y-18726860D01*
X70830786Y-18788182D01*
X70769462Y-18821667D01*
X70743106Y-18824500D01*
X70106419Y-18824500D01*
X70039380Y-18804815D01*
X69993625Y-18752011D01*
X69983681Y-18682853D01*
X70012706Y-18619297D01*
X70054009Y-18588121D01*
X70137830Y-18549035D01*
X70331401Y-18413495D01*
X70453329Y-18291566D01*
X70514648Y-18258084D01*
X70584340Y-18263068D01*
G37*
%TD.AperFunction*%
%TA.AperFunction,NonConductor*%
G36*
X68274855Y-18041546D02*
G01*
X68291575Y-18060842D01*
X68421500Y-18246395D01*
X68421505Y-18246401D01*
X68588599Y-18413495D01*
X68668982Y-18469780D01*
X68782165Y-18549032D01*
X68782167Y-18549033D01*
X68782170Y-18549035D01*
X68996337Y-18648903D01*
X69224592Y-18710063D01*
X69276735Y-18714625D01*
X69341802Y-18740075D01*
X69382781Y-18796666D01*
X69386660Y-18866428D01*
X69352207Y-18927212D01*
X69340241Y-18937417D01*
X69324487Y-18949211D01*
X69300118Y-18967454D01*
X69300117Y-18967455D01*
X69300116Y-18967456D01*
X69213870Y-19082664D01*
X69213867Y-19082669D01*
X69164853Y-19214083D01*
X69122981Y-19270016D01*
X69057517Y-19294433D01*
X68989244Y-19279581D01*
X68960990Y-19258430D01*
X68839066Y-19136506D01*
X68839059Y-19136501D01*
X68833923Y-19132905D01*
X68770428Y-19088445D01*
X68645498Y-19000967D01*
X68645494Y-19000965D01*
X68573634Y-18967456D01*
X68431327Y-18901097D01*
X68431323Y-18901096D01*
X68431319Y-18901094D01*
X68203077Y-18839938D01*
X68203067Y-18839936D01*
X67967665Y-18819341D01*
X67967663Y-18819341D01*
X67732260Y-18839936D01*
X67732250Y-18839938D01*
X67504008Y-18901094D01*
X67503999Y-18901098D01*
X67289835Y-19000964D01*
X67289833Y-19000965D01*
X67096261Y-19136505D01*
X67012181Y-19220586D01*
X66950858Y-19254071D01*
X66881166Y-19249087D01*
X66825233Y-19207215D01*
X66800816Y-19141751D01*
X66800500Y-19132905D01*
X66800500Y-18854659D01*
X66820185Y-18787620D01*
X66872989Y-18741865D01*
X66914750Y-18732780D01*
X66914606Y-18731131D01*
X66950011Y-18728033D01*
X67155408Y-18710063D01*
X67383663Y-18648903D01*
X67597830Y-18549035D01*
X67791401Y-18413495D01*
X67958495Y-18246401D01*
X68088425Y-18060842D01*
X68143002Y-18017217D01*
X68212500Y-18010023D01*
X68274855Y-18041546D01*
G37*
%TD.AperFunction*%
%TA.AperFunction,NonConductor*%
G36*
X72884316Y-19108879D02*
G01*
X72889843Y-19114078D01*
X75063181Y-21287416D01*
X75096666Y-21348739D01*
X75099500Y-21375097D01*
X75099500Y-29550902D01*
X75079815Y-29617941D01*
X75027011Y-29663696D01*
X74957853Y-29673640D01*
X74894297Y-29644615D01*
X74887819Y-29638583D01*
X66836819Y-21587583D01*
X66803334Y-21526260D01*
X66800500Y-21499902D01*
X66800500Y-21217094D01*
X66820185Y-21150055D01*
X66872989Y-21104300D01*
X66942147Y-21094356D01*
X67005703Y-21123381D01*
X67012181Y-21129413D01*
X67096263Y-21213495D01*
X67174785Y-21268477D01*
X67289829Y-21349032D01*
X67289831Y-21349033D01*
X67289834Y-21349035D01*
X67504001Y-21448903D01*
X67732256Y-21510063D01*
X67908698Y-21525500D01*
X67967663Y-21530659D01*
X67967664Y-21530659D01*
X67967665Y-21530659D01*
X68006898Y-21527226D01*
X68203072Y-21510063D01*
X68431327Y-21448903D01*
X68645494Y-21349035D01*
X68839065Y-21213495D01*
X68960993Y-21091566D01*
X69022312Y-21058084D01*
X69092004Y-21063068D01*
X69147938Y-21104939D01*
X69164853Y-21135917D01*
X69213866Y-21267328D01*
X69213870Y-21267335D01*
X69300116Y-21382544D01*
X69300119Y-21382547D01*
X69415328Y-21468793D01*
X69415335Y-21468797D01*
X69550181Y-21519091D01*
X69550180Y-21519091D01*
X69557108Y-21519835D01*
X69609791Y-21525500D01*
X71405536Y-21525499D01*
X71465147Y-21519091D01*
X71599995Y-21468796D01*
X71715210Y-21382546D01*
X71801460Y-21267331D01*
X71851755Y-21132483D01*
X71858164Y-21072873D01*
X71858163Y-20725098D01*
X71877847Y-20658060D01*
X71894482Y-20637418D01*
X71941761Y-20590139D01*
X71988184Y-20543716D01*
X71988185Y-20543714D01*
X72009686Y-20522213D01*
X72026199Y-20505700D01*
X72087522Y-20472215D01*
X72099979Y-20470163D01*
X72186919Y-20460368D01*
X72357186Y-20400789D01*
X72509926Y-20304816D01*
X72637480Y-20177262D01*
X72733453Y-20024522D01*
X72793032Y-19854255D01*
X72810667Y-19697738D01*
X72813229Y-19675003D01*
X72813229Y-19674996D01*
X72793033Y-19495750D01*
X72793032Y-19495745D01*
X72733452Y-19325475D01*
X72697169Y-19267732D01*
X72678168Y-19200495D01*
X72698535Y-19133660D01*
X72751803Y-19088445D01*
X72821059Y-19079207D01*
X72884316Y-19108879D01*
G37*
%TD.AperFunction*%
M02*
