%TF.GenerationSoftware,KiCad,Pcbnew,8.0.8*%
%TF.CreationDate,2025-03-24T10:51:23+01:00*%
%TF.ProjectId,column,636f6c75-6d6e-42e6-9b69-6361645f7063,rev?*%
%TF.SameCoordinates,Original*%
%TF.FileFunction,Legend,Bot*%
%TF.FilePolarity,Positive*%
%FSLAX46Y46*%
G04 Gerber Fmt 4.6, Leading zero omitted, Abs format (unit mm)*
G04 Created by KiCad (PCBNEW 8.0.8) date 2025-03-24 10:51:23*
%MOMM*%
%LPD*%
G01*
G04 APERTURE LIST*
%ADD10C,0.150000*%
%ADD11C,0.120000*%
G04 APERTURE END LIST*
D10*
X20424523Y-72644819D02*
X20424523Y-73359104D01*
X20424523Y-73359104D02*
X20472142Y-73501961D01*
X20472142Y-73501961D02*
X20567380Y-73597200D01*
X20567380Y-73597200D02*
X20710237Y-73644819D01*
X20710237Y-73644819D02*
X20805475Y-73644819D01*
X19424523Y-73644819D02*
X19995951Y-73644819D01*
X19710237Y-73644819D02*
X19710237Y-72644819D01*
X19710237Y-72644819D02*
X19805475Y-72787676D01*
X19805475Y-72787676D02*
X19900713Y-72882914D01*
X19900713Y-72882914D02*
X19995951Y-72930533D01*
X19091189Y-72644819D02*
X18472142Y-72644819D01*
X18472142Y-72644819D02*
X18805475Y-73025771D01*
X18805475Y-73025771D02*
X18662618Y-73025771D01*
X18662618Y-73025771D02*
X18567380Y-73073390D01*
X18567380Y-73073390D02*
X18519761Y-73121009D01*
X18519761Y-73121009D02*
X18472142Y-73216247D01*
X18472142Y-73216247D02*
X18472142Y-73454342D01*
X18472142Y-73454342D02*
X18519761Y-73549580D01*
X18519761Y-73549580D02*
X18567380Y-73597200D01*
X18567380Y-73597200D02*
X18662618Y-73644819D01*
X18662618Y-73644819D02*
X18948332Y-73644819D01*
X18948332Y-73644819D02*
X19043570Y-73597200D01*
X19043570Y-73597200D02*
X19091189Y-73549580D01*
X55718333Y-92424819D02*
X55718333Y-93139104D01*
X55718333Y-93139104D02*
X55765952Y-93281961D01*
X55765952Y-93281961D02*
X55861190Y-93377200D01*
X55861190Y-93377200D02*
X56004047Y-93424819D01*
X56004047Y-93424819D02*
X56099285Y-93424819D01*
X55337380Y-92424819D02*
X54718333Y-92424819D01*
X54718333Y-92424819D02*
X55051666Y-92805771D01*
X55051666Y-92805771D02*
X54908809Y-92805771D01*
X54908809Y-92805771D02*
X54813571Y-92853390D01*
X54813571Y-92853390D02*
X54765952Y-92901009D01*
X54765952Y-92901009D02*
X54718333Y-92996247D01*
X54718333Y-92996247D02*
X54718333Y-93234342D01*
X54718333Y-93234342D02*
X54765952Y-93329580D01*
X54765952Y-93329580D02*
X54813571Y-93377200D01*
X54813571Y-93377200D02*
X54908809Y-93424819D01*
X54908809Y-93424819D02*
X55194523Y-93424819D01*
X55194523Y-93424819D02*
X55289761Y-93377200D01*
X55289761Y-93377200D02*
X55337380Y-93329580D01*
X73724819Y-12180476D02*
X74439104Y-12180476D01*
X74439104Y-12180476D02*
X74581961Y-12132857D01*
X74581961Y-12132857D02*
X74677200Y-12037619D01*
X74677200Y-12037619D02*
X74724819Y-11894762D01*
X74724819Y-11894762D02*
X74724819Y-11799524D01*
X74724819Y-13180476D02*
X74724819Y-12609048D01*
X74724819Y-12894762D02*
X73724819Y-12894762D01*
X73724819Y-12894762D02*
X73867676Y-12799524D01*
X73867676Y-12799524D02*
X73962914Y-12704286D01*
X73962914Y-12704286D02*
X74010533Y-12609048D01*
X74153390Y-13751905D02*
X74105771Y-13656667D01*
X74105771Y-13656667D02*
X74058152Y-13609048D01*
X74058152Y-13609048D02*
X73962914Y-13561429D01*
X73962914Y-13561429D02*
X73915295Y-13561429D01*
X73915295Y-13561429D02*
X73820057Y-13609048D01*
X73820057Y-13609048D02*
X73772438Y-13656667D01*
X73772438Y-13656667D02*
X73724819Y-13751905D01*
X73724819Y-13751905D02*
X73724819Y-13942381D01*
X73724819Y-13942381D02*
X73772438Y-14037619D01*
X73772438Y-14037619D02*
X73820057Y-14085238D01*
X73820057Y-14085238D02*
X73915295Y-14132857D01*
X73915295Y-14132857D02*
X73962914Y-14132857D01*
X73962914Y-14132857D02*
X74058152Y-14085238D01*
X74058152Y-14085238D02*
X74105771Y-14037619D01*
X74105771Y-14037619D02*
X74153390Y-13942381D01*
X74153390Y-13942381D02*
X74153390Y-13751905D01*
X74153390Y-13751905D02*
X74201009Y-13656667D01*
X74201009Y-13656667D02*
X74248628Y-13609048D01*
X74248628Y-13609048D02*
X74343866Y-13561429D01*
X74343866Y-13561429D02*
X74534342Y-13561429D01*
X74534342Y-13561429D02*
X74629580Y-13609048D01*
X74629580Y-13609048D02*
X74677200Y-13656667D01*
X74677200Y-13656667D02*
X74724819Y-13751905D01*
X74724819Y-13751905D02*
X74724819Y-13942381D01*
X74724819Y-13942381D02*
X74677200Y-14037619D01*
X74677200Y-14037619D02*
X74629580Y-14085238D01*
X74629580Y-14085238D02*
X74534342Y-14132857D01*
X74534342Y-14132857D02*
X74343866Y-14132857D01*
X74343866Y-14132857D02*
X74248628Y-14085238D01*
X74248628Y-14085238D02*
X74201009Y-14037619D01*
X74201009Y-14037619D02*
X74153390Y-13942381D01*
X25564819Y-177600476D02*
X26279104Y-177600476D01*
X26279104Y-177600476D02*
X26421961Y-177552857D01*
X26421961Y-177552857D02*
X26517200Y-177457619D01*
X26517200Y-177457619D02*
X26564819Y-177314762D01*
X26564819Y-177314762D02*
X26564819Y-177219524D01*
X26564819Y-178600476D02*
X26564819Y-178029048D01*
X26564819Y-178314762D02*
X25564819Y-178314762D01*
X25564819Y-178314762D02*
X25707676Y-178219524D01*
X25707676Y-178219524D02*
X25802914Y-178124286D01*
X25802914Y-178124286D02*
X25850533Y-178029048D01*
X25564819Y-178933810D02*
X25564819Y-179600476D01*
X25564819Y-179600476D02*
X26564819Y-179171905D01*
X33833333Y-17654819D02*
X33833333Y-18369104D01*
X33833333Y-18369104D02*
X33880952Y-18511961D01*
X33880952Y-18511961D02*
X33976190Y-18607200D01*
X33976190Y-18607200D02*
X34119047Y-18654819D01*
X34119047Y-18654819D02*
X34214285Y-18654819D01*
X33404761Y-17750057D02*
X33357142Y-17702438D01*
X33357142Y-17702438D02*
X33261904Y-17654819D01*
X33261904Y-17654819D02*
X33023809Y-17654819D01*
X33023809Y-17654819D02*
X32928571Y-17702438D01*
X32928571Y-17702438D02*
X32880952Y-17750057D01*
X32880952Y-17750057D02*
X32833333Y-17845295D01*
X32833333Y-17845295D02*
X32833333Y-17940533D01*
X32833333Y-17940533D02*
X32880952Y-18083390D01*
X32880952Y-18083390D02*
X33452380Y-18654819D01*
X33452380Y-18654819D02*
X32833333Y-18654819D01*
D11*
%TO.C,J13*%
X13900000Y-75080000D02*
X19900000Y-75080000D01*
X13900000Y-75140000D02*
X19900000Y-75140000D01*
X13900000Y-75260000D02*
X19900000Y-75260000D01*
X13900000Y-75380000D02*
X19900000Y-75380000D01*
X13900000Y-75500000D02*
X19900000Y-75500000D01*
X13900000Y-75620000D02*
X19900000Y-75620000D01*
X13900000Y-75740000D02*
X19900000Y-75740000D01*
X13900000Y-75840000D02*
X13900000Y-75080000D01*
X13900000Y-77620000D02*
X19900000Y-77620000D01*
X13900000Y-78380000D02*
X13900000Y-77620000D01*
X13900000Y-80160000D02*
X19900000Y-80160000D01*
X13900000Y-80920000D02*
X13900000Y-80160000D01*
X13900000Y-82700000D02*
X19900000Y-82700000D01*
X13900000Y-83460000D02*
X13900000Y-82700000D01*
X13900000Y-85240000D02*
X19900000Y-85240000D01*
X13900000Y-86000000D02*
X13900000Y-85240000D01*
X13900000Y-87780000D02*
X19900000Y-87780000D01*
X13900000Y-88540000D02*
X13900000Y-87780000D01*
X13900000Y-90320000D02*
X19900000Y-90320000D01*
X13900000Y-91080000D02*
X13900000Y-90320000D01*
X19900000Y-74130000D02*
X19900000Y-92030000D01*
X19900000Y-75840000D02*
X13900000Y-75840000D01*
X19900000Y-76730000D02*
X22560000Y-76730000D01*
X19900000Y-78380000D02*
X13900000Y-78380000D01*
X19900000Y-79270000D02*
X22560000Y-79270000D01*
X19900000Y-80920000D02*
X13900000Y-80920000D01*
X19900000Y-81810000D02*
X22560000Y-81810000D01*
X19900000Y-83460000D02*
X13900000Y-83460000D01*
X19900000Y-84350000D02*
X22560000Y-84350000D01*
X19900000Y-86000000D02*
X13900000Y-86000000D01*
X19900000Y-86890000D02*
X22560000Y-86890000D01*
X19900000Y-88540000D02*
X13900000Y-88540000D01*
X19900000Y-89430000D02*
X22560000Y-89430000D01*
X19900000Y-91080000D02*
X13900000Y-91080000D01*
X19900000Y-92030000D02*
X22560000Y-92030000D01*
X22560000Y-74130000D02*
X19900000Y-74130000D01*
X22560000Y-75080000D02*
X22890000Y-75080000D01*
X22560000Y-75840000D02*
X22890000Y-75840000D01*
X22560000Y-77620000D02*
X22957071Y-77620000D01*
X22560000Y-78380000D02*
X22957071Y-78380000D01*
X22560000Y-80160000D02*
X22957071Y-80160000D01*
X22560000Y-80920000D02*
X22957071Y-80920000D01*
X22560000Y-82700000D02*
X22957071Y-82700000D01*
X22560000Y-83460000D02*
X22957071Y-83460000D01*
X22560000Y-85240000D02*
X22957071Y-85240000D01*
X22560000Y-86000000D02*
X22957071Y-86000000D01*
X22560000Y-87780000D02*
X22957071Y-87780000D01*
X22560000Y-88540000D02*
X22957071Y-88540000D01*
X22560000Y-90320000D02*
X22957071Y-90320000D01*
X22560000Y-91080000D02*
X22957071Y-91080000D01*
X22560000Y-92030000D02*
X22560000Y-74130000D01*
X24000000Y-74190000D02*
X25270000Y-74190000D01*
X25270000Y-74190000D02*
X25270000Y-75460000D01*
%TO.C,J3*%
X49730000Y-91970000D02*
X49730000Y-90700000D01*
X51000000Y-91970000D02*
X49730000Y-91970000D01*
X52440000Y-74130000D02*
X52440000Y-92030000D01*
X52440000Y-75080000D02*
X52042929Y-75080000D01*
X52440000Y-75840000D02*
X52042929Y-75840000D01*
X52440000Y-77620000D02*
X52042929Y-77620000D01*
X52440000Y-78380000D02*
X52042929Y-78380000D01*
X52440000Y-80160000D02*
X52042929Y-80160000D01*
X52440000Y-80920000D02*
X52042929Y-80920000D01*
X52440000Y-82700000D02*
X52042929Y-82700000D01*
X52440000Y-83460000D02*
X52042929Y-83460000D01*
X52440000Y-85240000D02*
X52042929Y-85240000D01*
X52440000Y-86000000D02*
X52042929Y-86000000D01*
X52440000Y-87780000D02*
X52042929Y-87780000D01*
X52440000Y-88540000D02*
X52042929Y-88540000D01*
X52440000Y-90320000D02*
X52110000Y-90320000D01*
X52440000Y-91080000D02*
X52110000Y-91080000D01*
X52440000Y-92030000D02*
X55100000Y-92030000D01*
X55100000Y-74130000D02*
X52440000Y-74130000D01*
X55100000Y-75080000D02*
X61100000Y-75080000D01*
X55100000Y-76730000D02*
X52440000Y-76730000D01*
X55100000Y-77620000D02*
X61100000Y-77620000D01*
X55100000Y-79270000D02*
X52440000Y-79270000D01*
X55100000Y-80160000D02*
X61100000Y-80160000D01*
X55100000Y-81810000D02*
X52440000Y-81810000D01*
X55100000Y-82700000D02*
X61100000Y-82700000D01*
X55100000Y-84350000D02*
X52440000Y-84350000D01*
X55100000Y-85240000D02*
X61100000Y-85240000D01*
X55100000Y-86890000D02*
X52440000Y-86890000D01*
X55100000Y-87780000D02*
X61100000Y-87780000D01*
X55100000Y-89430000D02*
X52440000Y-89430000D01*
X55100000Y-90320000D02*
X61100000Y-90320000D01*
X55100000Y-92030000D02*
X55100000Y-74130000D01*
X61100000Y-75080000D02*
X61100000Y-75840000D01*
X61100000Y-75840000D02*
X55100000Y-75840000D01*
X61100000Y-77620000D02*
X61100000Y-78380000D01*
X61100000Y-78380000D02*
X55100000Y-78380000D01*
X61100000Y-80160000D02*
X61100000Y-80920000D01*
X61100000Y-80920000D02*
X55100000Y-80920000D01*
X61100000Y-82700000D02*
X61100000Y-83460000D01*
X61100000Y-83460000D02*
X55100000Y-83460000D01*
X61100000Y-85240000D02*
X61100000Y-86000000D01*
X61100000Y-86000000D02*
X55100000Y-86000000D01*
X61100000Y-87780000D02*
X61100000Y-88540000D01*
X61100000Y-88540000D02*
X55100000Y-88540000D01*
X61100000Y-90320000D02*
X61100000Y-91080000D01*
X61100000Y-90420000D02*
X55100000Y-90420000D01*
X61100000Y-90540000D02*
X55100000Y-90540000D01*
X61100000Y-90660000D02*
X55100000Y-90660000D01*
X61100000Y-90780000D02*
X55100000Y-90780000D01*
X61100000Y-90900000D02*
X55100000Y-90900000D01*
X61100000Y-91020000D02*
X55100000Y-91020000D01*
X61100000Y-91080000D02*
X55100000Y-91080000D01*
%TO.C,J18*%
X57970000Y-13275000D02*
X57970000Y-15935000D01*
X57970000Y-15935000D02*
X73330000Y-15935000D01*
X58920000Y-7275000D02*
X59680000Y-7275000D01*
X58920000Y-13275000D02*
X58920000Y-7275000D01*
X58920000Y-15935000D02*
X58920000Y-16332071D01*
X59680000Y-7275000D02*
X59680000Y-13275000D01*
X59680000Y-15935000D02*
X59680000Y-16332071D01*
X60570000Y-13275000D02*
X60570000Y-15935000D01*
X61460000Y-7275000D02*
X62220000Y-7275000D01*
X61460000Y-13275000D02*
X61460000Y-7275000D01*
X61460000Y-15935000D02*
X61460000Y-16332071D01*
X62220000Y-7275000D02*
X62220000Y-13275000D01*
X62220000Y-15935000D02*
X62220000Y-16332071D01*
X63110000Y-13275000D02*
X63110000Y-15935000D01*
X64000000Y-7275000D02*
X64760000Y-7275000D01*
X64000000Y-13275000D02*
X64000000Y-7275000D01*
X64000000Y-15935000D02*
X64000000Y-16332071D01*
X64760000Y-7275000D02*
X64760000Y-13275000D01*
X64760000Y-15935000D02*
X64760000Y-16332071D01*
X65650000Y-13275000D02*
X65650000Y-15935000D01*
X66540000Y-7275000D02*
X67300000Y-7275000D01*
X66540000Y-13275000D02*
X66540000Y-7275000D01*
X66540000Y-15935000D02*
X66540000Y-16332071D01*
X67300000Y-7275000D02*
X67300000Y-13275000D01*
X67300000Y-15935000D02*
X67300000Y-16332071D01*
X68190000Y-13275000D02*
X68190000Y-15935000D01*
X69080000Y-7275000D02*
X69840000Y-7275000D01*
X69080000Y-13275000D02*
X69080000Y-7275000D01*
X69080000Y-15935000D02*
X69080000Y-16332071D01*
X69840000Y-7275000D02*
X69840000Y-13275000D01*
X69840000Y-15935000D02*
X69840000Y-16332071D01*
X70730000Y-13275000D02*
X70730000Y-15935000D01*
X71620000Y-7275000D02*
X72380000Y-7275000D01*
X71620000Y-13275000D02*
X71620000Y-7275000D01*
X71620000Y-15935000D02*
X71620000Y-16265000D01*
X71720000Y-7275000D02*
X71720000Y-13275000D01*
X71840000Y-7275000D02*
X71840000Y-13275000D01*
X71960000Y-7275000D02*
X71960000Y-13275000D01*
X72080000Y-7275000D02*
X72080000Y-13275000D01*
X72200000Y-7275000D02*
X72200000Y-13275000D01*
X72320000Y-7275000D02*
X72320000Y-13275000D01*
X72380000Y-7275000D02*
X72380000Y-13275000D01*
X72380000Y-15935000D02*
X72380000Y-16265000D01*
X73270000Y-17375000D02*
X73270000Y-18645000D01*
X73270000Y-18645000D02*
X72000000Y-18645000D01*
X73330000Y-13275000D02*
X57970000Y-13275000D01*
X73330000Y-15935000D02*
X73330000Y-13275000D01*
%TO.C,J17*%
X27050000Y-175465000D02*
X27050000Y-178125000D01*
X27050000Y-178125000D02*
X42410000Y-178125000D01*
X27110000Y-172755000D02*
X28380000Y-172755000D01*
X27110000Y-174025000D02*
X27110000Y-172755000D01*
X28000000Y-175465000D02*
X28000000Y-175135000D01*
X28000000Y-184125000D02*
X28000000Y-178125000D01*
X28060000Y-184125000D02*
X28060000Y-178125000D01*
X28180000Y-184125000D02*
X28180000Y-178125000D01*
X28300000Y-184125000D02*
X28300000Y-178125000D01*
X28420000Y-184125000D02*
X28420000Y-178125000D01*
X28540000Y-184125000D02*
X28540000Y-178125000D01*
X28660000Y-184125000D02*
X28660000Y-178125000D01*
X28760000Y-175465000D02*
X28760000Y-175135000D01*
X28760000Y-178125000D02*
X28760000Y-184125000D01*
X28760000Y-184125000D02*
X28000000Y-184125000D01*
X29650000Y-178125000D02*
X29650000Y-175465000D01*
X30540000Y-175465000D02*
X30540000Y-175067929D01*
X30540000Y-184125000D02*
X30540000Y-178125000D01*
X31300000Y-175465000D02*
X31300000Y-175067929D01*
X31300000Y-178125000D02*
X31300000Y-184125000D01*
X31300000Y-184125000D02*
X30540000Y-184125000D01*
X32190000Y-178125000D02*
X32190000Y-175465000D01*
X33080000Y-175465000D02*
X33080000Y-175067929D01*
X33080000Y-184125000D02*
X33080000Y-178125000D01*
X33840000Y-175465000D02*
X33840000Y-175067929D01*
X33840000Y-178125000D02*
X33840000Y-184125000D01*
X33840000Y-184125000D02*
X33080000Y-184125000D01*
X34730000Y-178125000D02*
X34730000Y-175465000D01*
X35620000Y-175465000D02*
X35620000Y-175067929D01*
X35620000Y-184125000D02*
X35620000Y-178125000D01*
X36380000Y-175465000D02*
X36380000Y-175067929D01*
X36380000Y-178125000D02*
X36380000Y-184125000D01*
X36380000Y-184125000D02*
X35620000Y-184125000D01*
X37270000Y-178125000D02*
X37270000Y-175465000D01*
X38160000Y-175465000D02*
X38160000Y-175067929D01*
X38160000Y-184125000D02*
X38160000Y-178125000D01*
X38920000Y-175465000D02*
X38920000Y-175067929D01*
X38920000Y-178125000D02*
X38920000Y-184125000D01*
X38920000Y-184125000D02*
X38160000Y-184125000D01*
X39810000Y-178125000D02*
X39810000Y-175465000D01*
X40700000Y-175465000D02*
X40700000Y-175067929D01*
X40700000Y-184125000D02*
X40700000Y-178125000D01*
X41460000Y-175465000D02*
X41460000Y-175067929D01*
X41460000Y-178125000D02*
X41460000Y-184125000D01*
X41460000Y-184125000D02*
X40700000Y-184125000D01*
X42410000Y-175465000D02*
X27050000Y-175465000D01*
X42410000Y-178125000D02*
X42410000Y-175465000D01*
%TO.C,J2*%
X28390000Y-19290000D02*
X28390000Y-23310000D01*
X28390000Y-21000000D02*
X28890000Y-21000000D01*
X28390000Y-23310000D02*
X38610000Y-23310000D01*
X28890000Y-19790000D02*
X38110000Y-19790000D01*
X28890000Y-21000000D02*
X28890000Y-19790000D01*
X29390000Y-21810000D02*
X28390000Y-21810000D01*
X29390000Y-23310000D02*
X29390000Y-21810000D01*
X36410000Y-23610000D02*
X38910000Y-23610000D01*
X37610000Y-21810000D02*
X38610000Y-21810000D01*
X37610000Y-23310000D02*
X37610000Y-21810000D01*
X38110000Y-19790000D02*
X38110000Y-21000000D01*
X38110000Y-21000000D02*
X38610000Y-21000000D01*
X38610000Y-19290000D02*
X28390000Y-19290000D01*
X38610000Y-23310000D02*
X38610000Y-19290000D01*
X38910000Y-23610000D02*
X38910000Y-21110000D01*
%TD*%
M02*
