%TF.GenerationSoftware,KiCad,Pcbnew,8.0.8*%
%TF.CreationDate,2025-03-24T10:51:23+01:00*%
%TF.ProjectId,column,636f6c75-6d6e-42e6-9b69-6361645f7063,rev?*%
%TF.SameCoordinates,Original*%
%TF.FileFunction,Paste,Top*%
%TF.FilePolarity,Positive*%
%FSLAX46Y46*%
G04 Gerber Fmt 4.6, Leading zero omitted, Abs format (unit mm)*
G04 Created by KiCad (PCBNEW 8.0.8) date 2025-03-24 10:51:23*
%MOMM*%
%LPD*%
G01*
G04 APERTURE LIST*
G04 Aperture macros list*
%AMRoundRect*
0 Rectangle with rounded corners*
0 $1 Rounding radius*
0 $2 $3 $4 $5 $6 $7 $8 $9 X,Y pos of 4 corners*
0 Add a 4 corners polygon primitive as box body*
4,1,4,$2,$3,$4,$5,$6,$7,$8,$9,$2,$3,0*
0 Add four circle primitives for the rounded corners*
1,1,$1+$1,$2,$3*
1,1,$1+$1,$4,$5*
1,1,$1+$1,$6,$7*
1,1,$1+$1,$8,$9*
0 Add four rect primitives between the rounded corners*
20,1,$1+$1,$2,$3,$4,$5,0*
20,1,$1+$1,$4,$5,$6,$7,0*
20,1,$1+$1,$6,$7,$8,$9,0*
20,1,$1+$1,$8,$9,$2,$3,0*%
G04 Aperture macros list end*
%ADD10RoundRect,0.140000X0.170000X-0.140000X0.170000X0.140000X-0.170000X0.140000X-0.170000X-0.140000X0*%
%ADD11RoundRect,0.140000X-0.140000X-0.170000X0.140000X-0.170000X0.140000X0.170000X-0.140000X0.170000X0*%
%ADD12RoundRect,0.135000X-0.135000X-0.185000X0.135000X-0.185000X0.135000X0.185000X-0.135000X0.185000X0*%
%ADD13RoundRect,0.140000X-0.170000X0.140000X-0.170000X-0.140000X0.170000X-0.140000X0.170000X0.140000X0*%
G04 APERTURE END LIST*
D10*
%TO.C,R8*%
X49500000Y-101480000D03*
X49500000Y-100520000D03*
%TD*%
D11*
%TO.C,R17*%
X64550000Y-20200000D03*
X65510000Y-20200000D03*
%TD*%
D12*
%TO.C,R28*%
X81465328Y-119675000D03*
X82485328Y-119675000D03*
%TD*%
D11*
%TO.C,R26*%
X81005328Y-49675000D03*
X81965328Y-49675000D03*
%TD*%
%TO.C,R14*%
X38520000Y-171500000D03*
X39480000Y-171500000D03*
%TD*%
%TO.C,R27*%
X80985328Y-84675000D03*
X81945328Y-84675000D03*
%TD*%
%TO.C,R5*%
X31000000Y-70000000D03*
X31960000Y-70000000D03*
%TD*%
%TO.C,R13*%
X39040000Y-136500000D03*
X40000000Y-136500000D03*
%TD*%
%TO.C,R24*%
X73070000Y-86700000D03*
X74030000Y-86700000D03*
%TD*%
%TO.C,R9*%
X31020000Y-105000000D03*
X31980000Y-105000000D03*
%TD*%
%TO.C,R10*%
X31000000Y-140000000D03*
X31960000Y-140000000D03*
%TD*%
%TO.C,R19*%
X64800000Y-90200000D03*
X65760000Y-90200000D03*
%TD*%
%TO.C,R1*%
X32020000Y-32000000D03*
X32980000Y-32000000D03*
%TD*%
%TO.C,R25*%
X73050000Y-121700000D03*
X74010000Y-121700000D03*
%TD*%
%TO.C,R18*%
X64550000Y-55200000D03*
X65510000Y-55200000D03*
%TD*%
%TO.C,R3*%
X31520000Y-66500000D03*
X32480000Y-66500000D03*
%TD*%
D10*
%TO.C,R15*%
X48360000Y-136980000D03*
X48360000Y-136020000D03*
%TD*%
D11*
%TO.C,R4*%
X49520000Y-66500000D03*
X50480000Y-66500000D03*
%TD*%
%TO.C,R23*%
X73050000Y-51200000D03*
X74010000Y-51200000D03*
%TD*%
D13*
%TO.C,R16*%
X48500000Y-169000000D03*
X48500000Y-169960000D03*
%TD*%
D11*
%TO.C,R7*%
X39520000Y-101500000D03*
X40480000Y-101500000D03*
%TD*%
M02*
