%TF.GenerationSoftware,KiCad,Pcbnew,8.0.8*%
%TF.CreationDate,2025-03-24T10:51:23+01:00*%
%TF.ProjectId,column,636f6c75-6d6e-42e6-9b69-6361645f7063,rev?*%
%TF.SameCoordinates,Original*%
%TF.FileFunction,Soldermask,Bot*%
%TF.FilePolarity,Negative*%
%FSLAX46Y46*%
G04 Gerber Fmt 4.6, Leading zero omitted, Abs format (unit mm)*
G04 Created by KiCad (PCBNEW 8.0.8) date 2025-03-24 10:51:23*
%MOMM*%
%LPD*%
G01*
G04 APERTURE LIST*
G04 Aperture macros list*
%AMRoundRect*
0 Rectangle with rounded corners*
0 $1 Rounding radius*
0 $2 $3 $4 $5 $6 $7 $8 $9 X,Y pos of 4 corners*
0 Add a 4 corners polygon primitive as box body*
4,1,4,$2,$3,$4,$5,$6,$7,$8,$9,$2,$3,0*
0 Add four circle primitives for the rounded corners*
1,1,$1+$1,$2,$3*
1,1,$1+$1,$4,$5*
1,1,$1+$1,$6,$7*
1,1,$1+$1,$8,$9*
0 Add four rect primitives between the rounded corners*
20,1,$1+$1,$2,$3,$4,$5,0*
20,1,$1+$1,$4,$5,$6,$7,0*
20,1,$1+$1,$6,$7,$8,$9,0*
20,1,$1+$1,$8,$9,$2,$3,0*%
G04 Aperture macros list end*
%ADD10R,1.700000X1.700000*%
%ADD11O,1.700000X1.700000*%
%ADD12R,1.500000X1.050000*%
%ADD13O,1.500000X1.050000*%
%ADD14C,2.100000*%
%ADD15C,1.524000*%
%ADD16R,1.050000X1.500000*%
%ADD17O,1.050000X1.500000*%
%ADD18C,0.500000*%
%ADD19RoundRect,0.250000X0.600000X0.725000X-0.600000X0.725000X-0.600000X-0.725000X0.600000X-0.725000X0*%
%ADD20O,1.700000X1.950000*%
G04 APERTURE END LIST*
D10*
%TO.C,D6*%
X70550000Y-55200000D03*
D11*
X68010000Y-55200000D03*
%TD*%
D12*
%TO.C,Q6*%
X79050000Y-89200000D03*
D13*
X79050000Y-87930000D03*
X79050000Y-86660000D03*
%TD*%
D12*
%TO.C,Q5*%
X79050000Y-54200000D03*
D13*
X79050000Y-52930000D03*
X79050000Y-51660000D03*
%TD*%
D14*
%TO.C,H4*%
X25000000Y-173500000D03*
%TD*%
D12*
%TO.C,Q1*%
X45500000Y-69000000D03*
D13*
X45500000Y-67730000D03*
X45500000Y-66460000D03*
%TD*%
D12*
%TO.C,Q7*%
X79050000Y-124200000D03*
D13*
X79050000Y-122930000D03*
X79050000Y-121660000D03*
%TD*%
D10*
%TO.C,D7*%
X70550000Y-90200000D03*
D11*
X68010000Y-90200000D03*
%TD*%
D15*
%TO.C,R20*%
X68050000Y-51700000D03*
X70550000Y-51750000D03*
%TD*%
%TO.C,R12*%
X34500000Y-171500000D03*
X37000000Y-171550000D03*
%TD*%
D14*
%TO.C,H7*%
X55957664Y-128000000D03*
%TD*%
D12*
%TO.C,Q4*%
X45000000Y-174000000D03*
D13*
X45000000Y-172730000D03*
X45000000Y-171460000D03*
%TD*%
D15*
%TO.C,R21*%
X68050000Y-86700000D03*
X70550000Y-86750000D03*
%TD*%
D14*
%TO.C,H8*%
X80957664Y-128000000D03*
%TD*%
D15*
%TO.C,R2*%
X34500000Y-66500000D03*
X37000000Y-66550000D03*
%TD*%
D10*
%TO.C,D4*%
X37000000Y-140000000D03*
D11*
X34460000Y-140000000D03*
%TD*%
D14*
%TO.C,H2*%
X50000000Y-17500000D03*
%TD*%
D16*
%TO.C,Q8*%
X35960000Y-28000000D03*
D17*
X34690000Y-28000000D03*
X33420000Y-28000000D03*
%TD*%
D12*
%TO.C,Q3*%
X43860000Y-139000000D03*
D13*
X43860000Y-137730000D03*
X43860000Y-136460000D03*
%TD*%
D10*
%TO.C,D2*%
X37000000Y-70000000D03*
D11*
X34460000Y-70000000D03*
%TD*%
D10*
%TO.C,D1*%
X37000000Y-35000000D03*
D11*
X34460000Y-35000000D03*
%TD*%
D15*
%TO.C,R22*%
X68050000Y-121700000D03*
X70550000Y-121750000D03*
%TD*%
D10*
%TO.C,D5*%
X70507664Y-20175000D03*
D11*
X67967664Y-20175000D03*
%TD*%
D14*
%TO.C,H3*%
X50000000Y-173500000D03*
%TD*%
D15*
%TO.C,R11*%
X37000000Y-136500000D03*
X34500000Y-136450000D03*
%TD*%
D12*
%TO.C,Q2*%
X45500000Y-104000000D03*
D13*
X45500000Y-102730000D03*
X45500000Y-101460000D03*
%TD*%
D15*
%TO.C,R6*%
X37000000Y-101500000D03*
X34500000Y-101450000D03*
%TD*%
D10*
%TO.C,D3*%
X37000000Y-105000000D03*
D11*
X34460000Y-105000000D03*
%TD*%
D14*
%TO.C,H5*%
X56000000Y-20000000D03*
%TD*%
%TO.C,H1*%
X25000000Y-17500000D03*
%TD*%
D18*
%TO.C,mouse-bite-1mm-slot*%
X52250000Y-41150000D03*
X53750000Y-41150000D03*
X52000000Y-40350000D03*
X54000000Y-40350000D03*
X52000000Y-39650000D03*
X54000000Y-39650000D03*
X52250000Y-38850000D03*
X53750000Y-38850000D03*
%TD*%
D14*
%TO.C,H6*%
X80965328Y-19675000D03*
%TD*%
D18*
%TO.C,mouse-bite-1mm-slot*%
X52250000Y-114400000D03*
X53750000Y-114400000D03*
X52000000Y-113600000D03*
X54000000Y-113600000D03*
X52000000Y-112900000D03*
X54000000Y-112900000D03*
X52250000Y-112100000D03*
X53750000Y-112100000D03*
%TD*%
D10*
%TO.C,J13*%
X24000000Y-75460000D03*
D11*
X24000000Y-78000000D03*
X24000000Y-80540000D03*
X24000000Y-83080000D03*
X24000000Y-85620000D03*
X24000000Y-88160000D03*
X24000000Y-90700000D03*
%TD*%
D10*
%TO.C,J3*%
X51000000Y-90700000D03*
D11*
X51000000Y-88160000D03*
X51000000Y-85620000D03*
X51000000Y-83080000D03*
X51000000Y-80540000D03*
X51000000Y-78000000D03*
X51000000Y-75460000D03*
%TD*%
D10*
%TO.C,J18*%
X72000000Y-17375000D03*
D11*
X69460000Y-17375000D03*
X66920000Y-17375000D03*
X64380000Y-17375000D03*
X61840000Y-17375000D03*
X59300000Y-17375000D03*
%TD*%
D10*
%TO.C,J17*%
X28380000Y-174025000D03*
D11*
X30920000Y-174025000D03*
X33460000Y-174025000D03*
X36000000Y-174025000D03*
X38540000Y-174025000D03*
X41080000Y-174025000D03*
%TD*%
D19*
%TO.C,J2*%
X36000000Y-21000000D03*
D20*
X33500000Y-21000000D03*
X31000000Y-21000000D03*
%TD*%
M02*
