%TF.GenerationSoftware,KiCad,Pcbnew,8.0.8*%
%TF.CreationDate,2025-03-24T10:51:22+01:00*%
%TF.ProjectId,column,636f6c75-6d6e-42e6-9b69-6361645f7063,rev?*%
%TF.SameCoordinates,Original*%
%TF.FileFunction,Copper,L3,Inr*%
%TF.FilePolarity,Positive*%
%FSLAX46Y46*%
G04 Gerber Fmt 4.6, Leading zero omitted, Abs format (unit mm)*
G04 Created by KiCad (PCBNEW 8.0.8) date 2025-03-24 10:51:22*
%MOMM*%
%LPD*%
G01*
G04 APERTURE LIST*
G04 Aperture macros list*
%AMRoundRect*
0 Rectangle with rounded corners*
0 $1 Rounding radius*
0 $2 $3 $4 $5 $6 $7 $8 $9 X,Y pos of 4 corners*
0 Add a 4 corners polygon primitive as box body*
4,1,4,$2,$3,$4,$5,$6,$7,$8,$9,$2,$3,0*
0 Add four circle primitives for the rounded corners*
1,1,$1+$1,$2,$3*
1,1,$1+$1,$4,$5*
1,1,$1+$1,$6,$7*
1,1,$1+$1,$8,$9*
0 Add four rect primitives between the rounded corners*
20,1,$1+$1,$2,$3,$4,$5,0*
20,1,$1+$1,$4,$5,$6,$7,0*
20,1,$1+$1,$6,$7,$8,$9,0*
20,1,$1+$1,$8,$9,$2,$3,0*%
G04 Aperture macros list end*
%TA.AperFunction,ComponentPad*%
%ADD10R,1.700000X1.700000*%
%TD*%
%TA.AperFunction,ComponentPad*%
%ADD11O,1.700000X1.700000*%
%TD*%
%TA.AperFunction,ComponentPad*%
%ADD12R,1.500000X1.050000*%
%TD*%
%TA.AperFunction,ComponentPad*%
%ADD13O,1.500000X1.050000*%
%TD*%
%TA.AperFunction,ComponentPad*%
%ADD14C,1.524000*%
%TD*%
%TA.AperFunction,ComponentPad*%
%ADD15R,1.050000X1.500000*%
%TD*%
%TA.AperFunction,ComponentPad*%
%ADD16O,1.050000X1.500000*%
%TD*%
%TA.AperFunction,ComponentPad*%
%ADD17RoundRect,0.250000X0.600000X0.725000X-0.600000X0.725000X-0.600000X-0.725000X0.600000X-0.725000X0*%
%TD*%
%TA.AperFunction,ComponentPad*%
%ADD18O,1.700000X1.950000*%
%TD*%
%TA.AperFunction,ViaPad*%
%ADD19C,0.600000*%
%TD*%
%TA.AperFunction,Conductor*%
%ADD20C,0.200000*%
%TD*%
G04 APERTURE END LIST*
D10*
%TO.N,GND*%
%TO.C,D6*%
X70550000Y-55200000D03*
D11*
%TO.N,Net-(D6-A)*%
X68010000Y-55200000D03*
%TD*%
D12*
%TO.N,GND*%
%TO.C,Q6*%
X79050000Y-89200000D03*
D13*
%TO.N,Net-(Q6-B)*%
X79050000Y-87930000D03*
%TO.N,/Column_7_Rows/d6_0*%
X79050000Y-86660000D03*
%TD*%
D12*
%TO.N,GND*%
%TO.C,Q5*%
X79050000Y-54200000D03*
D13*
%TO.N,Net-(Q5-B)*%
X79050000Y-52930000D03*
%TO.N,/Column_7_Rows/d5_0*%
X79050000Y-51660000D03*
%TD*%
D12*
%TO.N,GND*%
%TO.C,Q1*%
X45500000Y-69000000D03*
D13*
%TO.N,Net-(Q1-B)*%
X45500000Y-67730000D03*
%TO.N,/Column_7_Rows/d1*%
X45500000Y-66460000D03*
%TD*%
D12*
%TO.N,GND*%
%TO.C,Q7*%
X79050000Y-124200000D03*
D13*
%TO.N,Net-(Q7-B)*%
X79050000Y-122930000D03*
%TO.N,/Column_7_Rows/d7_0*%
X79050000Y-121660000D03*
%TD*%
D10*
%TO.N,GND*%
%TO.C,D7*%
X70550000Y-90200000D03*
D11*
%TO.N,Net-(D7-A)*%
X68010000Y-90200000D03*
%TD*%
D14*
%TO.N,Net-(Q5-B)*%
%TO.C,R20*%
X68050000Y-51700000D03*
%TO.N,+3.3V*%
X70550000Y-51750000D03*
%TD*%
%TO.N,Net-(Q4-B)*%
%TO.C,R12*%
X34500000Y-171500000D03*
%TO.N,+3.3V*%
X37000000Y-171550000D03*
%TD*%
D12*
%TO.N,GND*%
%TO.C,Q4*%
X45000000Y-174000000D03*
D13*
%TO.N,Net-(Q4-B)*%
X45000000Y-172730000D03*
%TO.N,/Column_7_Rows/d4*%
X45000000Y-171460000D03*
%TD*%
D14*
%TO.N,Net-(Q6-B)*%
%TO.C,R21*%
X68050000Y-86700000D03*
%TO.N,+3.3V*%
X70550000Y-86750000D03*
%TD*%
%TO.N,Net-(Q1-B)*%
%TO.C,R2*%
X34500000Y-66500000D03*
%TO.N,+3.3V*%
X37000000Y-66550000D03*
%TD*%
D10*
%TO.N,GND*%
%TO.C,D4*%
X37000000Y-140000000D03*
D11*
%TO.N,Net-(D4-A)*%
X34460000Y-140000000D03*
%TD*%
D15*
%TO.N,GND*%
%TO.C,Q8*%
X35960000Y-28000000D03*
D16*
%TO.N,/Column_7_Rows/Column_voltage*%
X34690000Y-28000000D03*
%TO.N,/Column_7_Rows/column_voltage*%
X33420000Y-28000000D03*
%TD*%
D12*
%TO.N,GND*%
%TO.C,Q3*%
X43860000Y-139000000D03*
D13*
%TO.N,Net-(Q3-B)*%
X43860000Y-137730000D03*
%TO.N,/Column_7_Rows/d3*%
X43860000Y-136460000D03*
%TD*%
D10*
%TO.N,GND*%
%TO.C,D2*%
X37000000Y-70000000D03*
D11*
%TO.N,Net-(D2-A)*%
X34460000Y-70000000D03*
%TD*%
D10*
%TO.N,GND*%
%TO.C,D1*%
X37000000Y-35000000D03*
D11*
%TO.N,Net-(D1-A)*%
X34460000Y-35000000D03*
%TD*%
D14*
%TO.N,Net-(Q7-B)*%
%TO.C,R22*%
X68050000Y-121700000D03*
%TO.N,+3.3V*%
X70550000Y-121750000D03*
%TD*%
D10*
%TO.N,GND*%
%TO.C,D5*%
X70507664Y-20175000D03*
D11*
%TO.N,Net-(D5-A)*%
X67967664Y-20175000D03*
%TD*%
D14*
%TO.N,Net-(Q3-B)*%
%TO.C,R11*%
X37000000Y-136500000D03*
%TO.N,+3.3V*%
X34500000Y-136450000D03*
%TD*%
D12*
%TO.N,GND*%
%TO.C,Q2*%
X45500000Y-104000000D03*
D13*
%TO.N,Net-(Q2-B)*%
X45500000Y-102730000D03*
%TO.N,/Column_7_Rows/d2*%
X45500000Y-101460000D03*
%TD*%
D14*
%TO.N,Net-(Q2-B)*%
%TO.C,R6*%
X37000000Y-101500000D03*
%TO.N,+3.3V*%
X34500000Y-101450000D03*
%TD*%
D10*
%TO.N,GND*%
%TO.C,D3*%
X37000000Y-105000000D03*
D11*
%TO.N,Net-(D3-A)*%
X34460000Y-105000000D03*
%TD*%
D10*
%TO.N,/Column_7_Rows/d1*%
%TO.C,J13*%
X24000000Y-75460000D03*
D11*
%TO.N,/Column_7_Rows/d2*%
X24000000Y-78000000D03*
%TO.N,/Column_7_Rows/d3*%
X24000000Y-80540000D03*
%TO.N,/Column_7_Rows/d4*%
X24000000Y-83080000D03*
%TO.N,/Column_7_Rows/d5_1*%
X24000000Y-85620000D03*
%TO.N,/Column_7_Rows/d6_1*%
X24000000Y-88160000D03*
%TO.N,/Column_7_Rows/d7_1*%
X24000000Y-90700000D03*
%TD*%
D10*
%TO.N,/Column_7_Rows/d7_1*%
%TO.C,J3*%
X51000000Y-90700000D03*
D11*
%TO.N,/Column_7_Rows/d6_1*%
X51000000Y-88160000D03*
%TO.N,/Column_7_Rows/d5_1*%
X51000000Y-85620000D03*
%TO.N,/Column_7_Rows/d4*%
X51000000Y-83080000D03*
%TO.N,/Column_7_Rows/d3*%
X51000000Y-80540000D03*
%TO.N,/Column_7_Rows/d2*%
X51000000Y-78000000D03*
%TO.N,/Column_7_Rows/d1*%
X51000000Y-75460000D03*
%TD*%
D10*
%TO.N,/Column_7_Rows/d7_0*%
%TO.C,J18*%
X72000000Y-17375000D03*
D11*
%TO.N,/Column_7_Rows/d6_0*%
X69460000Y-17375000D03*
%TO.N,/Column_7_Rows/d5_0*%
X66920000Y-17375000D03*
%TO.N,/Column_7_Rows/column_voltage2*%
X64380000Y-17375000D03*
%TO.N,+3.3V*%
X61840000Y-17375000D03*
%TO.N,GND*%
X59300000Y-17375000D03*
%TD*%
D10*
%TO.N,GND*%
%TO.C,J17*%
X28380000Y-174025000D03*
D11*
%TO.N,+3.3V*%
X30920000Y-174025000D03*
%TO.N,/Column_7_Rows/column_voltage*%
X33460000Y-174025000D03*
%TO.N,/Column_7_Rows/d5_1*%
X36000000Y-174025000D03*
%TO.N,/Column_7_Rows/d6_1*%
X38540000Y-174025000D03*
%TO.N,/Column_7_Rows/d7_1*%
X41080000Y-174025000D03*
%TD*%
D17*
%TO.N,GND*%
%TO.C,J2*%
X36000000Y-21000000D03*
D18*
%TO.N,/Column_7_Rows/Column_voltage*%
X33500000Y-21000000D03*
%TO.N,+3.3V*%
X31000000Y-21000000D03*
%TD*%
D19*
%TO.N,GND*%
X40000000Y-136500000D03*
X80507664Y-54175000D03*
X44000000Y-104000000D03*
X74982664Y-121700000D03*
X38500000Y-70000000D03*
X37000000Y-33500000D03*
X41000000Y-101000000D03*
X32480000Y-66500000D03*
X74010000Y-51200000D03*
X37500000Y-21000000D03*
X78007664Y-89675000D03*
X74030000Y-86700000D03*
X72007664Y-19675000D03*
X71982664Y-90200000D03*
X78007664Y-125175000D03*
X38500000Y-105000000D03*
X45500000Y-139000000D03*
X46500000Y-174000000D03*
X40500000Y-171500000D03*
%TO.N,/Column_7_Rows/d3*%
X46000000Y-106000000D03*
%TO.N,/Column_7_Rows/d4*%
X39500000Y-140800000D03*
X42400000Y-84100000D03*
%TO.N,/Column_7_Rows/d2*%
X45000000Y-88000000D03*
%TO.N,+3.3V*%
X30920000Y-172500000D03*
X49500000Y-101480000D03*
X48500000Y-167980000D03*
X72007664Y-52175000D03*
X48360000Y-136980000D03*
X81465328Y-119675000D03*
X48725000Y-66750000D03*
X81005328Y-49675000D03*
X71007664Y-85675000D03*
X33000000Y-101500000D03*
X71007664Y-123175000D03*
X33000000Y-136500000D03*
X38000000Y-66500000D03*
X80985328Y-84675000D03*
%TO.N,/Column_7_Rows/column_voltage*%
X31000000Y-71500000D03*
X31500000Y-92500000D03*
%TO.N,/Column_7_Rows/d7_1*%
X48400000Y-95600000D03*
%TO.N,/Column_7_Rows/d6_1*%
X47400000Y-86620000D03*
%TO.N,/Column_7_Rows/column_voltage2*%
X64500000Y-20200000D03*
X64507664Y-55175000D03*
X64800000Y-90200000D03*
%TO.N,/Column_7_Rows/d5_0*%
X74965328Y-32175000D03*
%TO.N,/Column_7_Rows/d7_0*%
X75700000Y-93100000D03*
%TD*%
D20*
%TO.N,GND*%
X28380000Y-174025000D02*
X28380000Y-172520000D01*
X28380000Y-172520000D02*
X28400000Y-172500000D01*
%TD*%
%TA.AperFunction,Conductor*%
%TO.N,GND*%
G36*
X52656557Y-39442491D02*
G01*
X52815371Y-39487678D01*
X52999999Y-39504786D01*
X53000000Y-39504786D01*
X53000001Y-39504786D01*
X53061543Y-39499083D01*
X53184629Y-39487678D01*
X53343440Y-39442492D01*
X53413304Y-39443078D01*
X53471763Y-39481345D01*
X53500000Y-39544573D01*
X53500000Y-39580309D01*
X53499500Y-39584108D01*
X53499500Y-39715891D01*
X53500000Y-39717757D01*
X53500000Y-40282241D01*
X53499500Y-40284108D01*
X53499500Y-40415890D01*
X53500000Y-40419688D01*
X53500000Y-40424059D01*
X53489544Y-40491094D01*
X53443163Y-40543348D01*
X53375893Y-40562232D01*
X53343438Y-40557507D01*
X53184630Y-40512322D01*
X53184628Y-40512321D01*
X53000001Y-40495214D01*
X52999999Y-40495214D01*
X52815371Y-40512321D01*
X52815368Y-40512322D01*
X52656561Y-40557507D01*
X52586694Y-40556920D01*
X52528235Y-40518654D01*
X52500000Y-40455427D01*
X52500000Y-40419688D01*
X52500500Y-40415891D01*
X52500500Y-40284110D01*
X52500500Y-40284108D01*
X52500000Y-40282241D01*
X52500000Y-39717757D01*
X52500500Y-39715892D01*
X52500500Y-39584108D01*
X52500498Y-39584102D01*
X52500000Y-39580317D01*
X52500000Y-39575946D01*
X52510452Y-39508912D01*
X52556830Y-39456655D01*
X52624098Y-39437767D01*
X52656557Y-39442491D01*
G37*
%TD.AperFunction*%
%TD*%
%TA.AperFunction,Conductor*%
%TO.N,GND*%
G36*
X70584340Y-18263068D02*
G01*
X70640274Y-18304939D01*
X70657189Y-18335917D01*
X70706202Y-18467328D01*
X70706206Y-18467335D01*
X70792452Y-18582544D01*
X70792453Y-18582544D01*
X70792454Y-18582546D01*
X70818086Y-18601734D01*
X70859956Y-18657668D01*
X70864940Y-18727360D01*
X70831454Y-18788682D01*
X70770131Y-18822167D01*
X70759336Y-18823327D01*
X70757664Y-18825000D01*
X70757664Y-19741988D01*
X70700657Y-19709075D01*
X70573490Y-19675000D01*
X70441838Y-19675000D01*
X70314671Y-19709075D01*
X70257664Y-19741988D01*
X70257664Y-18825000D01*
X70105349Y-18825000D01*
X70038310Y-18805315D01*
X69992555Y-18752511D01*
X69982611Y-18683353D01*
X70011636Y-18619797D01*
X70052944Y-18588618D01*
X70065963Y-18582547D01*
X70137830Y-18549035D01*
X70331401Y-18413495D01*
X70453329Y-18291566D01*
X70514648Y-18258084D01*
X70584340Y-18263068D01*
G37*
%TD.AperFunction*%
%TA.AperFunction,Conductor*%
G36*
X82900712Y-15520185D02*
G01*
X82946467Y-15572989D01*
X82957672Y-15624398D01*
X82999500Y-66999972D01*
X82999500Y-67934108D01*
X82999500Y-70934108D01*
X82999500Y-71934108D01*
X82999500Y-99684108D01*
X82999500Y-100434108D01*
X82999500Y-103434108D01*
X82999500Y-104249644D01*
X82959098Y-129300500D01*
X82958170Y-129875700D01*
X82938377Y-129942708D01*
X82885499Y-129988377D01*
X82834170Y-129999500D01*
X54083930Y-129999500D01*
X54016891Y-129979815D01*
X53971136Y-129927011D01*
X53959930Y-129875150D01*
X53965511Y-127897648D01*
X54657164Y-127897648D01*
X54657164Y-128102351D01*
X54689186Y-128304534D01*
X54752445Y-128499223D01*
X54845379Y-128681613D01*
X54965692Y-128847213D01*
X55110450Y-128991971D01*
X55265413Y-129104556D01*
X55276054Y-129112287D01*
X55392271Y-129171503D01*
X55458440Y-129205218D01*
X55458442Y-129205218D01*
X55458445Y-129205220D01*
X55562801Y-129239127D01*
X55653129Y-129268477D01*
X55754221Y-129284488D01*
X55855312Y-129300500D01*
X55855313Y-129300500D01*
X56060015Y-129300500D01*
X56060016Y-129300500D01*
X56262198Y-129268477D01*
X56456883Y-129205220D01*
X56639274Y-129112287D01*
X56732254Y-129044732D01*
X56804877Y-128991971D01*
X56804879Y-128991968D01*
X56804883Y-128991966D01*
X56949630Y-128847219D01*
X56949632Y-128847215D01*
X56949635Y-128847213D01*
X57002396Y-128774590D01*
X57069951Y-128681610D01*
X57162884Y-128499219D01*
X57226141Y-128304534D01*
X57258164Y-128102352D01*
X57258164Y-127897648D01*
X79657164Y-127897648D01*
X79657164Y-128102351D01*
X79689186Y-128304534D01*
X79752445Y-128499223D01*
X79845379Y-128681613D01*
X79965692Y-128847213D01*
X80110450Y-128991971D01*
X80265413Y-129104556D01*
X80276054Y-129112287D01*
X80392271Y-129171503D01*
X80458440Y-129205218D01*
X80458442Y-129205218D01*
X80458445Y-129205220D01*
X80562801Y-129239127D01*
X80653129Y-129268477D01*
X80754221Y-129284488D01*
X80855312Y-129300500D01*
X80855313Y-129300500D01*
X81060015Y-129300500D01*
X81060016Y-129300500D01*
X81262198Y-129268477D01*
X81456883Y-129205220D01*
X81639274Y-129112287D01*
X81732254Y-129044732D01*
X81804877Y-128991971D01*
X81804879Y-128991968D01*
X81804883Y-128991966D01*
X81949630Y-128847219D01*
X81949632Y-128847215D01*
X81949635Y-128847213D01*
X82002396Y-128774590D01*
X82069951Y-128681610D01*
X82162884Y-128499219D01*
X82226141Y-128304534D01*
X82258164Y-128102352D01*
X82258164Y-127897648D01*
X82226141Y-127695466D01*
X82162884Y-127500781D01*
X82162882Y-127500778D01*
X82162882Y-127500776D01*
X82129167Y-127434607D01*
X82069951Y-127318390D01*
X82062220Y-127307749D01*
X81949635Y-127152786D01*
X81804877Y-127008028D01*
X81639277Y-126887715D01*
X81639276Y-126887714D01*
X81639274Y-126887713D01*
X81582317Y-126858691D01*
X81456887Y-126794781D01*
X81262198Y-126731522D01*
X81087659Y-126703878D01*
X81060016Y-126699500D01*
X80855312Y-126699500D01*
X80830993Y-126703351D01*
X80653129Y-126731522D01*
X80458440Y-126794781D01*
X80276050Y-126887715D01*
X80110450Y-127008028D01*
X79965692Y-127152786D01*
X79845379Y-127318386D01*
X79752445Y-127500776D01*
X79689186Y-127695465D01*
X79657164Y-127897648D01*
X57258164Y-127897648D01*
X57226141Y-127695466D01*
X57162884Y-127500781D01*
X57162882Y-127500778D01*
X57162882Y-127500776D01*
X57129167Y-127434607D01*
X57069951Y-127318390D01*
X57062220Y-127307749D01*
X56949635Y-127152786D01*
X56804877Y-127008028D01*
X56639277Y-126887715D01*
X56639276Y-126887714D01*
X56639274Y-126887713D01*
X56582317Y-126858691D01*
X56456887Y-126794781D01*
X56262198Y-126731522D01*
X56087659Y-126703878D01*
X56060016Y-126699500D01*
X55855312Y-126699500D01*
X55830993Y-126703351D01*
X55653129Y-126731522D01*
X55458440Y-126794781D01*
X55276050Y-126887715D01*
X55110450Y-127008028D01*
X54965692Y-127152786D01*
X54845379Y-127318386D01*
X54752445Y-127500776D01*
X54689186Y-127695465D01*
X54657164Y-127897648D01*
X53965511Y-127897648D01*
X53973782Y-124967086D01*
X53983003Y-121699997D01*
X66782677Y-121699997D01*
X66782677Y-121700002D01*
X66801929Y-121920062D01*
X66801930Y-121920070D01*
X66859104Y-122133445D01*
X66859105Y-122133447D01*
X66859106Y-122133450D01*
X66924039Y-122272700D01*
X66952466Y-122333662D01*
X66952468Y-122333666D01*
X67079170Y-122514615D01*
X67079175Y-122514621D01*
X67235378Y-122670824D01*
X67235384Y-122670829D01*
X67416333Y-122797531D01*
X67416335Y-122797532D01*
X67416338Y-122797534D01*
X67616550Y-122890894D01*
X67829932Y-122948070D01*
X67987123Y-122961822D01*
X68049998Y-122967323D01*
X68050000Y-122967323D01*
X68050002Y-122967323D01*
X68105017Y-122962509D01*
X68270068Y-122948070D01*
X68483450Y-122890894D01*
X68683662Y-122797534D01*
X68864620Y-122670826D01*
X69020826Y-122514620D01*
X69147534Y-122333662D01*
X69175962Y-122272697D01*
X69222131Y-122220262D01*
X69289325Y-122201109D01*
X69356206Y-122221324D01*
X69400723Y-122272699D01*
X69412155Y-122297214D01*
X69452466Y-122383662D01*
X69452468Y-122383666D01*
X69579170Y-122564615D01*
X69579175Y-122564621D01*
X69735378Y-122720824D01*
X69735384Y-122720829D01*
X69916333Y-122847531D01*
X69916335Y-122847532D01*
X69916338Y-122847534D01*
X70116550Y-122940894D01*
X70116559Y-122940896D01*
X70116563Y-122940898D01*
X70122122Y-122942388D01*
X70181782Y-122978753D01*
X70212310Y-123041601D01*
X70213247Y-123076044D01*
X70202099Y-123174994D01*
X70202099Y-123175003D01*
X70222294Y-123354249D01*
X70222295Y-123354254D01*
X70281875Y-123524523D01*
X70346374Y-123627172D01*
X70377848Y-123677262D01*
X70505402Y-123804816D01*
X70658142Y-123900789D01*
X70701873Y-123916091D01*
X70828409Y-123960368D01*
X70828414Y-123960369D01*
X71007660Y-123980565D01*
X71007664Y-123980565D01*
X71007668Y-123980565D01*
X71186913Y-123960369D01*
X71186916Y-123960368D01*
X71186919Y-123960368D01*
X71357186Y-123900789D01*
X71509926Y-123804816D01*
X71637480Y-123677262D01*
X71733453Y-123524522D01*
X71793032Y-123354255D01*
X71793033Y-123354249D01*
X71813229Y-123175003D01*
X71813229Y-123174996D01*
X71793033Y-122995750D01*
X71793032Y-122995745D01*
X71776349Y-122948069D01*
X71733453Y-122825478D01*
X71637480Y-122672738D01*
X71597914Y-122633172D01*
X71564429Y-122571849D01*
X71569413Y-122502157D01*
X71584021Y-122474367D01*
X71647530Y-122383668D01*
X71647530Y-122383666D01*
X71647534Y-122383662D01*
X71740894Y-122183450D01*
X71798070Y-121970068D01*
X71816360Y-121761004D01*
X71817323Y-121750002D01*
X71817323Y-121749997D01*
X71810103Y-121667474D01*
X71800612Y-121558992D01*
X77799500Y-121558992D01*
X77799500Y-121761007D01*
X77838907Y-121959119D01*
X77838909Y-121959127D01*
X77916213Y-122145755D01*
X77969904Y-122226109D01*
X77990782Y-122292787D01*
X77972297Y-122360167D01*
X77969904Y-122363891D01*
X77916213Y-122444244D01*
X77838909Y-122630872D01*
X77838907Y-122630880D01*
X77799500Y-122828992D01*
X77799500Y-123031007D01*
X77838907Y-123229119D01*
X77838910Y-123229131D01*
X77872547Y-123310338D01*
X77880016Y-123379807D01*
X77860405Y-123424864D01*
X77860895Y-123425132D01*
X77857910Y-123430596D01*
X77857260Y-123432092D01*
X77856646Y-123432911D01*
X77856645Y-123432913D01*
X77806403Y-123567620D01*
X77806401Y-123567627D01*
X77800000Y-123627155D01*
X77800000Y-123950000D01*
X78684134Y-123950000D01*
X78708326Y-123952383D01*
X78711123Y-123952939D01*
X78723995Y-123955499D01*
X78723996Y-123955500D01*
X78723997Y-123955500D01*
X78764170Y-123955500D01*
X78749925Y-123969745D01*
X78700556Y-124055255D01*
X78675000Y-124150630D01*
X78675000Y-124249370D01*
X78700556Y-124344745D01*
X78749925Y-124430255D01*
X78769670Y-124450000D01*
X77800000Y-124450000D01*
X77800000Y-124772844D01*
X77806401Y-124832372D01*
X77806403Y-124832379D01*
X77856645Y-124967086D01*
X77856649Y-124967093D01*
X77942809Y-125082187D01*
X77942812Y-125082190D01*
X78057906Y-125168350D01*
X78057913Y-125168354D01*
X78192620Y-125218596D01*
X78192627Y-125218598D01*
X78252155Y-125224999D01*
X78252172Y-125225000D01*
X78800000Y-125225000D01*
X78800000Y-124480330D01*
X78819745Y-124500075D01*
X78905255Y-124549444D01*
X79000630Y-124575000D01*
X79099370Y-124575000D01*
X79194745Y-124549444D01*
X79280255Y-124500075D01*
X79300000Y-124480330D01*
X79300000Y-125225000D01*
X79847828Y-125225000D01*
X79847844Y-125224999D01*
X79907372Y-125218598D01*
X79907379Y-125218596D01*
X80042086Y-125168354D01*
X80042093Y-125168350D01*
X80157187Y-125082190D01*
X80157190Y-125082187D01*
X80243350Y-124967093D01*
X80243354Y-124967086D01*
X80293596Y-124832379D01*
X80293598Y-124832372D01*
X80299999Y-124772844D01*
X80300000Y-124772827D01*
X80300000Y-124450000D01*
X79330330Y-124450000D01*
X79350075Y-124430255D01*
X79399444Y-124344745D01*
X79425000Y-124249370D01*
X79425000Y-124150630D01*
X79399444Y-124055255D01*
X79350075Y-123969745D01*
X79335830Y-123955500D01*
X79376004Y-123955500D01*
X79376004Y-123955499D01*
X79389473Y-123952820D01*
X79391674Y-123952383D01*
X79415866Y-123950000D01*
X80300000Y-123950000D01*
X80300000Y-123627172D01*
X80299999Y-123627155D01*
X80293598Y-123567627D01*
X80293596Y-123567620D01*
X80243354Y-123432913D01*
X80243353Y-123432911D01*
X80242745Y-123432099D01*
X80242390Y-123431148D01*
X80239103Y-123425128D01*
X80239968Y-123424655D01*
X80218329Y-123366634D01*
X80227452Y-123310338D01*
X80261091Y-123229127D01*
X80300500Y-123031003D01*
X80300500Y-122828997D01*
X80261091Y-122630873D01*
X80201298Y-122486523D01*
X80183787Y-122444246D01*
X80143310Y-122383668D01*
X80130094Y-122363889D01*
X80109217Y-122297214D01*
X80127701Y-122229834D01*
X80130078Y-122226134D01*
X80183786Y-122145756D01*
X80261091Y-121959127D01*
X80300500Y-121761003D01*
X80300500Y-121558997D01*
X80261091Y-121360873D01*
X80183786Y-121174244D01*
X80183784Y-121174241D01*
X80183782Y-121174237D01*
X80071558Y-121006281D01*
X79928718Y-120863441D01*
X79760762Y-120751217D01*
X79760752Y-120751212D01*
X79574127Y-120673909D01*
X79574119Y-120673907D01*
X79376007Y-120634500D01*
X79376003Y-120634500D01*
X78723997Y-120634500D01*
X78723992Y-120634500D01*
X78525880Y-120673907D01*
X78525872Y-120673909D01*
X78339247Y-120751212D01*
X78339237Y-120751217D01*
X78171281Y-120863441D01*
X78028441Y-121006281D01*
X77916217Y-121174237D01*
X77916212Y-121174247D01*
X77838909Y-121360872D01*
X77838907Y-121360880D01*
X77799500Y-121558992D01*
X71800612Y-121558992D01*
X71798070Y-121529932D01*
X71740894Y-121316550D01*
X71647534Y-121116339D01*
X71520826Y-120935380D01*
X71364620Y-120779174D01*
X71364616Y-120779171D01*
X71364615Y-120779170D01*
X71183666Y-120652468D01*
X71183662Y-120652466D01*
X71183660Y-120652465D01*
X70983450Y-120559106D01*
X70983447Y-120559105D01*
X70983445Y-120559104D01*
X70770070Y-120501930D01*
X70770062Y-120501929D01*
X70550002Y-120482677D01*
X70549998Y-120482677D01*
X70329937Y-120501929D01*
X70329929Y-120501930D01*
X70116554Y-120559104D01*
X70116548Y-120559107D01*
X69916340Y-120652465D01*
X69916338Y-120652466D01*
X69735377Y-120779175D01*
X69579175Y-120935377D01*
X69452466Y-121116338D01*
X69452462Y-121116345D01*
X69424038Y-121177300D01*
X69377865Y-121229739D01*
X69310671Y-121248890D01*
X69243791Y-121228673D01*
X69199276Y-121177300D01*
X69147534Y-121066339D01*
X69020826Y-120885380D01*
X68864620Y-120729174D01*
X68864616Y-120729171D01*
X68864615Y-120729170D01*
X68683666Y-120602468D01*
X68683662Y-120602466D01*
X68683660Y-120602465D01*
X68483450Y-120509106D01*
X68483447Y-120509105D01*
X68483445Y-120509104D01*
X68270070Y-120451930D01*
X68270062Y-120451929D01*
X68050002Y-120432677D01*
X68049998Y-120432677D01*
X67829937Y-120451929D01*
X67829929Y-120451930D01*
X67616554Y-120509104D01*
X67616548Y-120509107D01*
X67416340Y-120602465D01*
X67416338Y-120602466D01*
X67235377Y-120729175D01*
X67079175Y-120885377D01*
X66952466Y-121066338D01*
X66952465Y-121066340D01*
X66859107Y-121266548D01*
X66859104Y-121266554D01*
X66801930Y-121479929D01*
X66801929Y-121479937D01*
X66782677Y-121699997D01*
X53983003Y-121699997D01*
X53988718Y-119674996D01*
X80659763Y-119674996D01*
X80659763Y-119675003D01*
X80679958Y-119854249D01*
X80679959Y-119854254D01*
X80739539Y-120024523D01*
X80835512Y-120177262D01*
X80963066Y-120304816D01*
X81115806Y-120400789D01*
X81206937Y-120432677D01*
X81286073Y-120460368D01*
X81286078Y-120460369D01*
X81465324Y-120480565D01*
X81465328Y-120480565D01*
X81465332Y-120480565D01*
X81644577Y-120460369D01*
X81644580Y-120460368D01*
X81644583Y-120460368D01*
X81814850Y-120400789D01*
X81967590Y-120304816D01*
X82095144Y-120177262D01*
X82191117Y-120024522D01*
X82250696Y-119854255D01*
X82270893Y-119675000D01*
X82250696Y-119495745D01*
X82191117Y-119325478D01*
X82095144Y-119172738D01*
X81967590Y-119045184D01*
X81814851Y-118949211D01*
X81644582Y-118889631D01*
X81644577Y-118889630D01*
X81465332Y-118869435D01*
X81465324Y-118869435D01*
X81286078Y-118889630D01*
X81286073Y-118889631D01*
X81115804Y-118949211D01*
X80963065Y-119045184D01*
X80835512Y-119172737D01*
X80739539Y-119325476D01*
X80679959Y-119495745D01*
X80679958Y-119495750D01*
X80659763Y-119674996D01*
X53988718Y-119674996D01*
X54000289Y-115575271D01*
X54000500Y-115572139D01*
X54000500Y-115500715D01*
X54000504Y-115499304D01*
X54000684Y-115435521D01*
X54000682Y-115435515D01*
X54000700Y-115429280D01*
X54000500Y-115426147D01*
X54000500Y-114904893D01*
X54020185Y-114837854D01*
X54052261Y-114807272D01*
X54050863Y-114805450D01*
X54057307Y-114800503D01*
X54057314Y-114800500D01*
X54150500Y-114707314D01*
X54216392Y-114593186D01*
X54250500Y-114465892D01*
X54250500Y-114334108D01*
X54216392Y-114206814D01*
X54216390Y-114206810D01*
X54211786Y-114198835D01*
X54195313Y-114130934D01*
X54218166Y-114064908D01*
X54257169Y-114029450D01*
X54307314Y-114000500D01*
X54400500Y-113907314D01*
X54466392Y-113793186D01*
X54500500Y-113665892D01*
X54500500Y-113534108D01*
X54466392Y-113406814D01*
X54411650Y-113311999D01*
X54395178Y-113244100D01*
X54411650Y-113188000D01*
X54466392Y-113093186D01*
X54500500Y-112965892D01*
X54500500Y-112834108D01*
X54466392Y-112706814D01*
X54400500Y-112592686D01*
X54307314Y-112499500D01*
X54257173Y-112470551D01*
X54208957Y-112419984D01*
X54195734Y-112351377D01*
X54211786Y-112301163D01*
X54216392Y-112293186D01*
X54250500Y-112165892D01*
X54250500Y-112034108D01*
X54216392Y-111906814D01*
X54150500Y-111792686D01*
X54057314Y-111699500D01*
X54057311Y-111699498D01*
X54050865Y-111694552D01*
X54052675Y-111692192D01*
X54014280Y-111651920D01*
X54000500Y-111595107D01*
X54000500Y-93099996D01*
X74894435Y-93099996D01*
X74894435Y-93100003D01*
X74914630Y-93279249D01*
X74914631Y-93279254D01*
X74974211Y-93449523D01*
X75070184Y-93602262D01*
X75197738Y-93729816D01*
X75350478Y-93825789D01*
X75520745Y-93885368D01*
X75520750Y-93885369D01*
X75699996Y-93905565D01*
X75700000Y-93905565D01*
X75700004Y-93905565D01*
X75879249Y-93885369D01*
X75879252Y-93885368D01*
X75879255Y-93885368D01*
X76049522Y-93825789D01*
X76202262Y-93729816D01*
X76329816Y-93602262D01*
X76425789Y-93449522D01*
X76485368Y-93279255D01*
X76505565Y-93100000D01*
X76485368Y-92920745D01*
X76425789Y-92750478D01*
X76329816Y-92597738D01*
X76202262Y-92470184D01*
X76049523Y-92374211D01*
X75879254Y-92314631D01*
X75879249Y-92314630D01*
X75700004Y-92294435D01*
X75699996Y-92294435D01*
X75520750Y-92314630D01*
X75520745Y-92314631D01*
X75350476Y-92374211D01*
X75197737Y-92470184D01*
X75070184Y-92597737D01*
X74974211Y-92750476D01*
X74914631Y-92920745D01*
X74914630Y-92920750D01*
X74894435Y-93099996D01*
X54000500Y-93099996D01*
X54000500Y-90199996D01*
X63994435Y-90199996D01*
X63994435Y-90200003D01*
X64014630Y-90379249D01*
X64014631Y-90379254D01*
X64074211Y-90549523D01*
X64145931Y-90663664D01*
X64170184Y-90702262D01*
X64297738Y-90829816D01*
X64450478Y-90925789D01*
X64620745Y-90985368D01*
X64620750Y-90985369D01*
X64799996Y-91005565D01*
X64800000Y-91005565D01*
X64800004Y-91005565D01*
X64979249Y-90985369D01*
X64979252Y-90985368D01*
X64979255Y-90985368D01*
X65149522Y-90925789D01*
X65302262Y-90829816D01*
X65429816Y-90702262D01*
X65525789Y-90549522D01*
X65585368Y-90379255D01*
X65585369Y-90379249D01*
X65605565Y-90200003D01*
X65605565Y-90199999D01*
X66654341Y-90199999D01*
X66654341Y-90200000D01*
X66674936Y-90435403D01*
X66674938Y-90435413D01*
X66736094Y-90663655D01*
X66736096Y-90663659D01*
X66736097Y-90663663D01*
X66754096Y-90702262D01*
X66835965Y-90877830D01*
X66835967Y-90877834D01*
X66925406Y-91005565D01*
X66971505Y-91071401D01*
X67138599Y-91238495D01*
X67215135Y-91292086D01*
X67332165Y-91374032D01*
X67332167Y-91374033D01*
X67332170Y-91374035D01*
X67546337Y-91473903D01*
X67774592Y-91535063D01*
X67945319Y-91550000D01*
X68009999Y-91555659D01*
X68010000Y-91555659D01*
X68010001Y-91555659D01*
X68074681Y-91550000D01*
X68245408Y-91535063D01*
X68473663Y-91473903D01*
X68687830Y-91374035D01*
X68881401Y-91238495D01*
X69003717Y-91116178D01*
X69065036Y-91082696D01*
X69134728Y-91087680D01*
X69190662Y-91129551D01*
X69207577Y-91160528D01*
X69256646Y-91292088D01*
X69256649Y-91292093D01*
X69342809Y-91407187D01*
X69342812Y-91407190D01*
X69457906Y-91493350D01*
X69457913Y-91493354D01*
X69592620Y-91543596D01*
X69592627Y-91543598D01*
X69652155Y-91549999D01*
X69652172Y-91550000D01*
X70300000Y-91550000D01*
X70300000Y-90633012D01*
X70357007Y-90665925D01*
X70484174Y-90700000D01*
X70615826Y-90700000D01*
X70742993Y-90665925D01*
X70800000Y-90633012D01*
X70800000Y-91550000D01*
X71447828Y-91550000D01*
X71447844Y-91549999D01*
X71507372Y-91543598D01*
X71507379Y-91543596D01*
X71642086Y-91493354D01*
X71642093Y-91493350D01*
X71757187Y-91407190D01*
X71757190Y-91407187D01*
X71843350Y-91292093D01*
X71843354Y-91292086D01*
X71893596Y-91157379D01*
X71893598Y-91157372D01*
X71899999Y-91097844D01*
X71900000Y-91097827D01*
X71900000Y-90450000D01*
X70983012Y-90450000D01*
X71015925Y-90392993D01*
X71050000Y-90265826D01*
X71050000Y-90134174D01*
X71015925Y-90007007D01*
X70983012Y-89950000D01*
X71900000Y-89950000D01*
X71900000Y-89302172D01*
X71899999Y-89302155D01*
X71893598Y-89242627D01*
X71893596Y-89242620D01*
X71843354Y-89107913D01*
X71843350Y-89107906D01*
X71757190Y-88992812D01*
X71757187Y-88992809D01*
X71642093Y-88906649D01*
X71642086Y-88906645D01*
X71507379Y-88856403D01*
X71507372Y-88856401D01*
X71447844Y-88850000D01*
X70800000Y-88850000D01*
X70800000Y-89766988D01*
X70742993Y-89734075D01*
X70615826Y-89700000D01*
X70484174Y-89700000D01*
X70357007Y-89734075D01*
X70300000Y-89766988D01*
X70300000Y-88850000D01*
X69652155Y-88850000D01*
X69592627Y-88856401D01*
X69592620Y-88856403D01*
X69457913Y-88906645D01*
X69457906Y-88906649D01*
X69342812Y-88992809D01*
X69342809Y-88992812D01*
X69256649Y-89107906D01*
X69256645Y-89107913D01*
X69207578Y-89239470D01*
X69165707Y-89295404D01*
X69100242Y-89319821D01*
X69031969Y-89304969D01*
X69003715Y-89283819D01*
X68959366Y-89239470D01*
X68881401Y-89161505D01*
X68881397Y-89161502D01*
X68881396Y-89161501D01*
X68687834Y-89025967D01*
X68687830Y-89025965D01*
X68567266Y-88969745D01*
X68473663Y-88926097D01*
X68473659Y-88926096D01*
X68473655Y-88926094D01*
X68245413Y-88864938D01*
X68245403Y-88864936D01*
X68010001Y-88844341D01*
X68009999Y-88844341D01*
X67774596Y-88864936D01*
X67774586Y-88864938D01*
X67546344Y-88926094D01*
X67546335Y-88926098D01*
X67332171Y-89025964D01*
X67332169Y-89025965D01*
X67138597Y-89161505D01*
X66971505Y-89328597D01*
X66835965Y-89522169D01*
X66835964Y-89522171D01*
X66736098Y-89736335D01*
X66736094Y-89736344D01*
X66674938Y-89964586D01*
X66674936Y-89964596D01*
X66654341Y-90199999D01*
X65605565Y-90199999D01*
X65605565Y-90199996D01*
X65585369Y-90020750D01*
X65585368Y-90020745D01*
X65560613Y-89950000D01*
X65525789Y-89850478D01*
X65429816Y-89697738D01*
X65302262Y-89570184D01*
X65225847Y-89522169D01*
X65149523Y-89474211D01*
X64979254Y-89414631D01*
X64979249Y-89414630D01*
X64800004Y-89394435D01*
X64799996Y-89394435D01*
X64620750Y-89414630D01*
X64620745Y-89414631D01*
X64450476Y-89474211D01*
X64297737Y-89570184D01*
X64170184Y-89697737D01*
X64074211Y-89850476D01*
X64014631Y-90020745D01*
X64014630Y-90020750D01*
X63994435Y-90199996D01*
X54000500Y-90199996D01*
X54000500Y-86699997D01*
X66782677Y-86699997D01*
X66782677Y-86700002D01*
X66801929Y-86920062D01*
X66801930Y-86920070D01*
X66859104Y-87133445D01*
X66859105Y-87133447D01*
X66859106Y-87133450D01*
X66924039Y-87272700D01*
X66952466Y-87333662D01*
X66952468Y-87333666D01*
X67079170Y-87514615D01*
X67079175Y-87514621D01*
X67235378Y-87670824D01*
X67235384Y-87670829D01*
X67416333Y-87797531D01*
X67416335Y-87797532D01*
X67416338Y-87797534D01*
X67616550Y-87890894D01*
X67829932Y-87948070D01*
X67987123Y-87961822D01*
X68049998Y-87967323D01*
X68050000Y-87967323D01*
X68050002Y-87967323D01*
X68105017Y-87962509D01*
X68270068Y-87948070D01*
X68483450Y-87890894D01*
X68683662Y-87797534D01*
X68864620Y-87670826D01*
X69020826Y-87514620D01*
X69147534Y-87333662D01*
X69175962Y-87272697D01*
X69222131Y-87220262D01*
X69289325Y-87201109D01*
X69356206Y-87221324D01*
X69400723Y-87272699D01*
X69412155Y-87297214D01*
X69452466Y-87383662D01*
X69452468Y-87383666D01*
X69579170Y-87564615D01*
X69579175Y-87564621D01*
X69735378Y-87720824D01*
X69735384Y-87720829D01*
X69916333Y-87847531D01*
X69916335Y-87847532D01*
X69916338Y-87847534D01*
X70116550Y-87940894D01*
X70329932Y-87998070D01*
X70487123Y-88011822D01*
X70549998Y-88017323D01*
X70550000Y-88017323D01*
X70550002Y-88017323D01*
X70605017Y-88012509D01*
X70770068Y-87998070D01*
X70983450Y-87940894D01*
X71183662Y-87847534D01*
X71364620Y-87720826D01*
X71520826Y-87564620D01*
X71647534Y-87383662D01*
X71740894Y-87183450D01*
X71798070Y-86970068D01*
X71816360Y-86761004D01*
X71817323Y-86750002D01*
X71817323Y-86749997D01*
X71810103Y-86667474D01*
X71800612Y-86558992D01*
X77799500Y-86558992D01*
X77799500Y-86761007D01*
X77838907Y-86959119D01*
X77838909Y-86959127D01*
X77916213Y-87145755D01*
X77969904Y-87226109D01*
X77990782Y-87292787D01*
X77972297Y-87360167D01*
X77969904Y-87363891D01*
X77916213Y-87444244D01*
X77838909Y-87630872D01*
X77838907Y-87630880D01*
X77799500Y-87828992D01*
X77799500Y-88031007D01*
X77838907Y-88229119D01*
X77838910Y-88229131D01*
X77872547Y-88310338D01*
X77880016Y-88379807D01*
X77860405Y-88424864D01*
X77860895Y-88425132D01*
X77857910Y-88430596D01*
X77857260Y-88432092D01*
X77856646Y-88432911D01*
X77856645Y-88432913D01*
X77806403Y-88567620D01*
X77806401Y-88567627D01*
X77800000Y-88627155D01*
X77800000Y-88950000D01*
X78684134Y-88950000D01*
X78708326Y-88952383D01*
X78711123Y-88952939D01*
X78723995Y-88955499D01*
X78723996Y-88955500D01*
X78723997Y-88955500D01*
X78764170Y-88955500D01*
X78749925Y-88969745D01*
X78700556Y-89055255D01*
X78675000Y-89150630D01*
X78675000Y-89249370D01*
X78700556Y-89344745D01*
X78749925Y-89430255D01*
X78769670Y-89450000D01*
X77800000Y-89450000D01*
X77800000Y-89772844D01*
X77806401Y-89832372D01*
X77806403Y-89832379D01*
X77856645Y-89967086D01*
X77856649Y-89967093D01*
X77942809Y-90082187D01*
X77942812Y-90082190D01*
X78057906Y-90168350D01*
X78057913Y-90168354D01*
X78192620Y-90218596D01*
X78192627Y-90218598D01*
X78252155Y-90224999D01*
X78252172Y-90225000D01*
X78800000Y-90225000D01*
X78800000Y-89480330D01*
X78819745Y-89500075D01*
X78905255Y-89549444D01*
X79000630Y-89575000D01*
X79099370Y-89575000D01*
X79194745Y-89549444D01*
X79280255Y-89500075D01*
X79300000Y-89480330D01*
X79300000Y-90225000D01*
X79847828Y-90225000D01*
X79847844Y-90224999D01*
X79907372Y-90218598D01*
X79907379Y-90218596D01*
X80042086Y-90168354D01*
X80042093Y-90168350D01*
X80157187Y-90082190D01*
X80157190Y-90082187D01*
X80243350Y-89967093D01*
X80243354Y-89967086D01*
X80293596Y-89832379D01*
X80293598Y-89832372D01*
X80299999Y-89772844D01*
X80300000Y-89772827D01*
X80300000Y-89450000D01*
X79330330Y-89450000D01*
X79350075Y-89430255D01*
X79399444Y-89344745D01*
X79425000Y-89249370D01*
X79425000Y-89150630D01*
X79399444Y-89055255D01*
X79350075Y-88969745D01*
X79335830Y-88955500D01*
X79376004Y-88955500D01*
X79376004Y-88955499D01*
X79389473Y-88952820D01*
X79391674Y-88952383D01*
X79415866Y-88950000D01*
X80300000Y-88950000D01*
X80300000Y-88627172D01*
X80299999Y-88627155D01*
X80293598Y-88567627D01*
X80293596Y-88567620D01*
X80243354Y-88432913D01*
X80243353Y-88432911D01*
X80242745Y-88432099D01*
X80242390Y-88431148D01*
X80239103Y-88425128D01*
X80239968Y-88424655D01*
X80218329Y-88366634D01*
X80227452Y-88310338D01*
X80261091Y-88229127D01*
X80300500Y-88031003D01*
X80300500Y-87828997D01*
X80261091Y-87630873D01*
X80183786Y-87444244D01*
X80130094Y-87363889D01*
X80109217Y-87297214D01*
X80127701Y-87229834D01*
X80130078Y-87226134D01*
X80183786Y-87145756D01*
X80261091Y-86959127D01*
X80300500Y-86761003D01*
X80300500Y-86558997D01*
X80261091Y-86360873D01*
X80183786Y-86174244D01*
X80183784Y-86174241D01*
X80183782Y-86174237D01*
X80071558Y-86006281D01*
X79928718Y-85863441D01*
X79760762Y-85751217D01*
X79760752Y-85751212D01*
X79574127Y-85673909D01*
X79574119Y-85673907D01*
X79376007Y-85634500D01*
X79376003Y-85634500D01*
X78723997Y-85634500D01*
X78723992Y-85634500D01*
X78525880Y-85673907D01*
X78525872Y-85673909D01*
X78339247Y-85751212D01*
X78339237Y-85751217D01*
X78171281Y-85863441D01*
X78028441Y-86006281D01*
X77916217Y-86174237D01*
X77916212Y-86174247D01*
X77838909Y-86360872D01*
X77838907Y-86360880D01*
X77799500Y-86558992D01*
X71800612Y-86558992D01*
X71798070Y-86529932D01*
X71740894Y-86316550D01*
X71709344Y-86248890D01*
X71688096Y-86203323D01*
X71677604Y-86134246D01*
X71695483Y-86084949D01*
X71733453Y-86024522D01*
X71793032Y-85854255D01*
X71793033Y-85854249D01*
X71813229Y-85675003D01*
X71813229Y-85674996D01*
X71793033Y-85495750D01*
X71793032Y-85495745D01*
X71777700Y-85451929D01*
X71733453Y-85325478D01*
X71637480Y-85172738D01*
X71509926Y-85045184D01*
X71477043Y-85024522D01*
X71357187Y-84949211D01*
X71186918Y-84889631D01*
X71186913Y-84889630D01*
X71007668Y-84869435D01*
X71007660Y-84869435D01*
X70828414Y-84889630D01*
X70828409Y-84889631D01*
X70658140Y-84949211D01*
X70505401Y-85045184D01*
X70377848Y-85172737D01*
X70281874Y-85325478D01*
X70230417Y-85472536D01*
X70189695Y-85529313D01*
X70145471Y-85551356D01*
X70116551Y-85559105D01*
X70116550Y-85559105D01*
X69916340Y-85652465D01*
X69916338Y-85652466D01*
X69735377Y-85779175D01*
X69579175Y-85935377D01*
X69452466Y-86116338D01*
X69452462Y-86116345D01*
X69424038Y-86177300D01*
X69377865Y-86229739D01*
X69310671Y-86248890D01*
X69243791Y-86228673D01*
X69199276Y-86177300D01*
X69147534Y-86066339D01*
X69020826Y-85885380D01*
X68864620Y-85729174D01*
X68864616Y-85729171D01*
X68864615Y-85729170D01*
X68683666Y-85602468D01*
X68683662Y-85602466D01*
X68683660Y-85602465D01*
X68483450Y-85509106D01*
X68483447Y-85509105D01*
X68483445Y-85509104D01*
X68270070Y-85451930D01*
X68270062Y-85451929D01*
X68050002Y-85432677D01*
X68049998Y-85432677D01*
X67829937Y-85451929D01*
X67829929Y-85451930D01*
X67616554Y-85509104D01*
X67616548Y-85509107D01*
X67416340Y-85602465D01*
X67416338Y-85602466D01*
X67235377Y-85729175D01*
X67079175Y-85885377D01*
X66952466Y-86066338D01*
X66952465Y-86066340D01*
X66859107Y-86266548D01*
X66859104Y-86266554D01*
X66801930Y-86479929D01*
X66801929Y-86479937D01*
X66782677Y-86699997D01*
X54000500Y-86699997D01*
X54000500Y-84674996D01*
X80179763Y-84674996D01*
X80179763Y-84675003D01*
X80199958Y-84854249D01*
X80199959Y-84854254D01*
X80259539Y-85024523D01*
X80352669Y-85172737D01*
X80355512Y-85177262D01*
X80483066Y-85304816D01*
X80635806Y-85400789D01*
X80726937Y-85432677D01*
X80806073Y-85460368D01*
X80806078Y-85460369D01*
X80985324Y-85480565D01*
X80985328Y-85480565D01*
X80985332Y-85480565D01*
X81164577Y-85460369D01*
X81164580Y-85460368D01*
X81164583Y-85460368D01*
X81334850Y-85400789D01*
X81487590Y-85304816D01*
X81615144Y-85177262D01*
X81711117Y-85024522D01*
X81770696Y-84854255D01*
X81790893Y-84675000D01*
X81770696Y-84495745D01*
X81711117Y-84325478D01*
X81615144Y-84172738D01*
X81487590Y-84045184D01*
X81334851Y-83949211D01*
X81164582Y-83889631D01*
X81164577Y-83889630D01*
X80985332Y-83869435D01*
X80985324Y-83869435D01*
X80806078Y-83889630D01*
X80806073Y-83889631D01*
X80635804Y-83949211D01*
X80483065Y-84045184D01*
X80355512Y-84172737D01*
X80259539Y-84325476D01*
X80199959Y-84495745D01*
X80199958Y-84495750D01*
X80179763Y-84674996D01*
X54000500Y-84674996D01*
X54000500Y-55174996D01*
X63702099Y-55174996D01*
X63702099Y-55175003D01*
X63722294Y-55354249D01*
X63722295Y-55354254D01*
X63781875Y-55524523D01*
X63829363Y-55600099D01*
X63877848Y-55677262D01*
X64005402Y-55804816D01*
X64158142Y-55900789D01*
X64328409Y-55960368D01*
X64328414Y-55960369D01*
X64507660Y-55980565D01*
X64507664Y-55980565D01*
X64507668Y-55980565D01*
X64686913Y-55960369D01*
X64686916Y-55960368D01*
X64686919Y-55960368D01*
X64857186Y-55900789D01*
X65009926Y-55804816D01*
X65137480Y-55677262D01*
X65233453Y-55524522D01*
X65293032Y-55354255D01*
X65293033Y-55354249D01*
X65310413Y-55199999D01*
X66654341Y-55199999D01*
X66654341Y-55200000D01*
X66674936Y-55435403D01*
X66674938Y-55435413D01*
X66736094Y-55663655D01*
X66736096Y-55663659D01*
X66736097Y-55663663D01*
X66801918Y-55804816D01*
X66835965Y-55877830D01*
X66835967Y-55877834D01*
X66893759Y-55960369D01*
X66971505Y-56071401D01*
X67138599Y-56238495D01*
X67215135Y-56292086D01*
X67332165Y-56374032D01*
X67332167Y-56374033D01*
X67332170Y-56374035D01*
X67546337Y-56473903D01*
X67774592Y-56535063D01*
X67945319Y-56550000D01*
X68009999Y-56555659D01*
X68010000Y-56555659D01*
X68010001Y-56555659D01*
X68074681Y-56550000D01*
X68245408Y-56535063D01*
X68473663Y-56473903D01*
X68687830Y-56374035D01*
X68881401Y-56238495D01*
X69003717Y-56116178D01*
X69065036Y-56082696D01*
X69134728Y-56087680D01*
X69190662Y-56129551D01*
X69207577Y-56160528D01*
X69256646Y-56292088D01*
X69256649Y-56292093D01*
X69342809Y-56407187D01*
X69342812Y-56407190D01*
X69457906Y-56493350D01*
X69457913Y-56493354D01*
X69592620Y-56543596D01*
X69592627Y-56543598D01*
X69652155Y-56549999D01*
X69652172Y-56550000D01*
X70300000Y-56550000D01*
X70300000Y-55633012D01*
X70357007Y-55665925D01*
X70484174Y-55700000D01*
X70615826Y-55700000D01*
X70742993Y-55665925D01*
X70800000Y-55633012D01*
X70800000Y-56550000D01*
X71447828Y-56550000D01*
X71447844Y-56549999D01*
X71507372Y-56543598D01*
X71507379Y-56543596D01*
X71642086Y-56493354D01*
X71642093Y-56493350D01*
X71757187Y-56407190D01*
X71757190Y-56407187D01*
X71843350Y-56292093D01*
X71843354Y-56292086D01*
X71893596Y-56157379D01*
X71893598Y-56157372D01*
X71899999Y-56097844D01*
X71900000Y-56097827D01*
X71900000Y-55450000D01*
X70983012Y-55450000D01*
X71015925Y-55392993D01*
X71050000Y-55265826D01*
X71050000Y-55134174D01*
X71015925Y-55007007D01*
X70983012Y-54950000D01*
X71900000Y-54950000D01*
X71900000Y-54302172D01*
X71899999Y-54302155D01*
X71893598Y-54242627D01*
X71893596Y-54242620D01*
X71843354Y-54107913D01*
X71843350Y-54107906D01*
X71757190Y-53992812D01*
X71757187Y-53992809D01*
X71642093Y-53906649D01*
X71642086Y-53906645D01*
X71507379Y-53856403D01*
X71507372Y-53856401D01*
X71447844Y-53850000D01*
X70800000Y-53850000D01*
X70800000Y-54766988D01*
X70742993Y-54734075D01*
X70615826Y-54700000D01*
X70484174Y-54700000D01*
X70357007Y-54734075D01*
X70300000Y-54766988D01*
X70300000Y-53850000D01*
X69652155Y-53850000D01*
X69592627Y-53856401D01*
X69592620Y-53856403D01*
X69457913Y-53906645D01*
X69457906Y-53906649D01*
X69342812Y-53992809D01*
X69342809Y-53992812D01*
X69256649Y-54107906D01*
X69256645Y-54107913D01*
X69207578Y-54239470D01*
X69165707Y-54295404D01*
X69100242Y-54319821D01*
X69031969Y-54304969D01*
X69003715Y-54283819D01*
X68959366Y-54239470D01*
X68881401Y-54161505D01*
X68881397Y-54161502D01*
X68881396Y-54161501D01*
X68687834Y-54025967D01*
X68687830Y-54025965D01*
X68567266Y-53969745D01*
X68473663Y-53926097D01*
X68473659Y-53926096D01*
X68473655Y-53926094D01*
X68245413Y-53864938D01*
X68245403Y-53864936D01*
X68010001Y-53844341D01*
X68009999Y-53844341D01*
X67774596Y-53864936D01*
X67774586Y-53864938D01*
X67546344Y-53926094D01*
X67546335Y-53926098D01*
X67332171Y-54025964D01*
X67332169Y-54025965D01*
X67138597Y-54161505D01*
X66971505Y-54328597D01*
X66835965Y-54522169D01*
X66835964Y-54522171D01*
X66736098Y-54736335D01*
X66736094Y-54736344D01*
X66674938Y-54964586D01*
X66674936Y-54964596D01*
X66654341Y-55199999D01*
X65310413Y-55199999D01*
X65313229Y-55175003D01*
X65313229Y-55174996D01*
X65293033Y-54995750D01*
X65293032Y-54995745D01*
X65277025Y-54950000D01*
X65233453Y-54825478D01*
X65137480Y-54672738D01*
X65009926Y-54545184D01*
X64938136Y-54500075D01*
X64857187Y-54449211D01*
X64686918Y-54389631D01*
X64686913Y-54389630D01*
X64507668Y-54369435D01*
X64507660Y-54369435D01*
X64328414Y-54389630D01*
X64328409Y-54389631D01*
X64158140Y-54449211D01*
X64005401Y-54545184D01*
X63877848Y-54672737D01*
X63781875Y-54825476D01*
X63722295Y-54995745D01*
X63722294Y-54995750D01*
X63702099Y-55174996D01*
X54000500Y-55174996D01*
X54000500Y-51699997D01*
X66782677Y-51699997D01*
X66782677Y-51700002D01*
X66801929Y-51920062D01*
X66801930Y-51920070D01*
X66859104Y-52133445D01*
X66859105Y-52133447D01*
X66859106Y-52133450D01*
X66924039Y-52272700D01*
X66952466Y-52333662D01*
X66952468Y-52333666D01*
X67079170Y-52514615D01*
X67079175Y-52514621D01*
X67235378Y-52670824D01*
X67235384Y-52670829D01*
X67416333Y-52797531D01*
X67416335Y-52797532D01*
X67416338Y-52797534D01*
X67616550Y-52890894D01*
X67829932Y-52948070D01*
X67970514Y-52960369D01*
X68049998Y-52967323D01*
X68050000Y-52967323D01*
X68050002Y-52967323D01*
X68129486Y-52960369D01*
X68270068Y-52948070D01*
X68483450Y-52890894D01*
X68683662Y-52797534D01*
X68864620Y-52670826D01*
X69020826Y-52514620D01*
X69147534Y-52333662D01*
X69175962Y-52272697D01*
X69222131Y-52220262D01*
X69289325Y-52201109D01*
X69356206Y-52221324D01*
X69400723Y-52272699D01*
X69412155Y-52297214D01*
X69452466Y-52383662D01*
X69452468Y-52383666D01*
X69579170Y-52564615D01*
X69579175Y-52564621D01*
X69735378Y-52720824D01*
X69735384Y-52720829D01*
X69916333Y-52847531D01*
X69916335Y-52847532D01*
X69916338Y-52847534D01*
X70116550Y-52940894D01*
X70329932Y-52998070D01*
X70487123Y-53011822D01*
X70549998Y-53017323D01*
X70550000Y-53017323D01*
X70550002Y-53017323D01*
X70605017Y-53012509D01*
X70770068Y-52998070D01*
X70983450Y-52940894D01*
X71183662Y-52847534D01*
X71312793Y-52757115D01*
X71378997Y-52734789D01*
X71446765Y-52751799D01*
X71471596Y-52771010D01*
X71505402Y-52804816D01*
X71573386Y-52847533D01*
X71642395Y-52890895D01*
X71658142Y-52900789D01*
X71828409Y-52960368D01*
X71828414Y-52960369D01*
X72007660Y-52980565D01*
X72007664Y-52980565D01*
X72007668Y-52980565D01*
X72186913Y-52960369D01*
X72186916Y-52960368D01*
X72186919Y-52960368D01*
X72357186Y-52900789D01*
X72509926Y-52804816D01*
X72637480Y-52677262D01*
X72733453Y-52524522D01*
X72793032Y-52354255D01*
X72795352Y-52333666D01*
X72813229Y-52175003D01*
X72813229Y-52174996D01*
X72793033Y-51995750D01*
X72793032Y-51995745D01*
X72733452Y-51825476D01*
X72637479Y-51672737D01*
X72523734Y-51558992D01*
X77799500Y-51558992D01*
X77799500Y-51761007D01*
X77838907Y-51959119D01*
X77838909Y-51959127D01*
X77916213Y-52145755D01*
X77969904Y-52226109D01*
X77990782Y-52292787D01*
X77972297Y-52360167D01*
X77969904Y-52363891D01*
X77916213Y-52444244D01*
X77838909Y-52630872D01*
X77838907Y-52630880D01*
X77799500Y-52828992D01*
X77799500Y-53031007D01*
X77838907Y-53229119D01*
X77838910Y-53229131D01*
X77872547Y-53310338D01*
X77880016Y-53379807D01*
X77860405Y-53424864D01*
X77860895Y-53425132D01*
X77857910Y-53430596D01*
X77857260Y-53432092D01*
X77856646Y-53432911D01*
X77856645Y-53432913D01*
X77806403Y-53567620D01*
X77806401Y-53567627D01*
X77800000Y-53627155D01*
X77800000Y-53950000D01*
X78684134Y-53950000D01*
X78708326Y-53952383D01*
X78711123Y-53952939D01*
X78723995Y-53955499D01*
X78723996Y-53955500D01*
X78723997Y-53955500D01*
X78764170Y-53955500D01*
X78749925Y-53969745D01*
X78700556Y-54055255D01*
X78675000Y-54150630D01*
X78675000Y-54249370D01*
X78700556Y-54344745D01*
X78749925Y-54430255D01*
X78769670Y-54450000D01*
X77800000Y-54450000D01*
X77800000Y-54772844D01*
X77806401Y-54832372D01*
X77806403Y-54832379D01*
X77856645Y-54967086D01*
X77856649Y-54967093D01*
X77942809Y-55082187D01*
X77942812Y-55082190D01*
X78057906Y-55168350D01*
X78057913Y-55168354D01*
X78192620Y-55218596D01*
X78192627Y-55218598D01*
X78252155Y-55224999D01*
X78252172Y-55225000D01*
X78800000Y-55225000D01*
X78800000Y-54480330D01*
X78819745Y-54500075D01*
X78905255Y-54549444D01*
X79000630Y-54575000D01*
X79099370Y-54575000D01*
X79194745Y-54549444D01*
X79280255Y-54500075D01*
X79300000Y-54480330D01*
X79300000Y-55225000D01*
X79847828Y-55225000D01*
X79847844Y-55224999D01*
X79907372Y-55218598D01*
X79907379Y-55218596D01*
X80042086Y-55168354D01*
X80042093Y-55168350D01*
X80157187Y-55082190D01*
X80157190Y-55082187D01*
X80243350Y-54967093D01*
X80243354Y-54967086D01*
X80293596Y-54832379D01*
X80293598Y-54832372D01*
X80299999Y-54772844D01*
X80300000Y-54772827D01*
X80300000Y-54450000D01*
X79330330Y-54450000D01*
X79350075Y-54430255D01*
X79399444Y-54344745D01*
X79425000Y-54249370D01*
X79425000Y-54150630D01*
X79399444Y-54055255D01*
X79350075Y-53969745D01*
X79335830Y-53955500D01*
X79376004Y-53955500D01*
X79376004Y-53955499D01*
X79389473Y-53952820D01*
X79391674Y-53952383D01*
X79415866Y-53950000D01*
X80300000Y-53950000D01*
X80300000Y-53627172D01*
X80299999Y-53627155D01*
X80293598Y-53567627D01*
X80293596Y-53567620D01*
X80243354Y-53432913D01*
X80243353Y-53432911D01*
X80242745Y-53432099D01*
X80242390Y-53431148D01*
X80239103Y-53425128D01*
X80239968Y-53424655D01*
X80218329Y-53366634D01*
X80227452Y-53310338D01*
X80261091Y-53229127D01*
X80300500Y-53031003D01*
X80300500Y-52828997D01*
X80261091Y-52630873D01*
X80183786Y-52444244D01*
X80130094Y-52363889D01*
X80109217Y-52297214D01*
X80127701Y-52229834D01*
X80130078Y-52226134D01*
X80183786Y-52145756D01*
X80261091Y-51959127D01*
X80300500Y-51761003D01*
X80300500Y-51558997D01*
X80261091Y-51360873D01*
X80183786Y-51174244D01*
X80183784Y-51174241D01*
X80183782Y-51174237D01*
X80071558Y-51006281D01*
X79928718Y-50863441D01*
X79760762Y-50751217D01*
X79760752Y-50751212D01*
X79574127Y-50673909D01*
X79574119Y-50673907D01*
X79376007Y-50634500D01*
X79376003Y-50634500D01*
X78723997Y-50634500D01*
X78723992Y-50634500D01*
X78525880Y-50673907D01*
X78525872Y-50673909D01*
X78339247Y-50751212D01*
X78339237Y-50751217D01*
X78171281Y-50863441D01*
X78028441Y-51006281D01*
X77916217Y-51174237D01*
X77916212Y-51174247D01*
X77838909Y-51360872D01*
X77838907Y-51360880D01*
X77799500Y-51558992D01*
X72523734Y-51558992D01*
X72509926Y-51545184D01*
X72357187Y-51449211D01*
X72186918Y-51389631D01*
X72186913Y-51389630D01*
X72007668Y-51369435D01*
X72007660Y-51369435D01*
X71866228Y-51385370D01*
X71797406Y-51373315D01*
X71746027Y-51325966D01*
X71739968Y-51314565D01*
X71647534Y-51116339D01*
X71520826Y-50935380D01*
X71364620Y-50779174D01*
X71364616Y-50779171D01*
X71364615Y-50779170D01*
X71183666Y-50652468D01*
X71183662Y-50652466D01*
X71183660Y-50652465D01*
X70983450Y-50559106D01*
X70983447Y-50559105D01*
X70983445Y-50559104D01*
X70770070Y-50501930D01*
X70770062Y-50501929D01*
X70550002Y-50482677D01*
X70549998Y-50482677D01*
X70329937Y-50501929D01*
X70329929Y-50501930D01*
X70116554Y-50559104D01*
X70116548Y-50559107D01*
X69916340Y-50652465D01*
X69916338Y-50652466D01*
X69735377Y-50779175D01*
X69579175Y-50935377D01*
X69452466Y-51116338D01*
X69452462Y-51116345D01*
X69424038Y-51177300D01*
X69377865Y-51229739D01*
X69310671Y-51248890D01*
X69243791Y-51228673D01*
X69199276Y-51177300D01*
X69147534Y-51066339D01*
X69020826Y-50885380D01*
X68864620Y-50729174D01*
X68864616Y-50729171D01*
X68864615Y-50729170D01*
X68683666Y-50602468D01*
X68683662Y-50602466D01*
X68683660Y-50602465D01*
X68483450Y-50509106D01*
X68483447Y-50509105D01*
X68483445Y-50509104D01*
X68270070Y-50451930D01*
X68270062Y-50451929D01*
X68050002Y-50432677D01*
X68049998Y-50432677D01*
X67829937Y-50451929D01*
X67829929Y-50451930D01*
X67616554Y-50509104D01*
X67616548Y-50509107D01*
X67416340Y-50602465D01*
X67416338Y-50602466D01*
X67235377Y-50729175D01*
X67079175Y-50885377D01*
X66952466Y-51066338D01*
X66952465Y-51066340D01*
X66859107Y-51266548D01*
X66859104Y-51266554D01*
X66801930Y-51479929D01*
X66801929Y-51479937D01*
X66782677Y-51699997D01*
X54000500Y-51699997D01*
X54000500Y-49674996D01*
X80199763Y-49674996D01*
X80199763Y-49675003D01*
X80219958Y-49854249D01*
X80219959Y-49854254D01*
X80279539Y-50024523D01*
X80375512Y-50177262D01*
X80503066Y-50304816D01*
X80655806Y-50400789D01*
X80746937Y-50432677D01*
X80826073Y-50460368D01*
X80826078Y-50460369D01*
X81005324Y-50480565D01*
X81005328Y-50480565D01*
X81005332Y-50480565D01*
X81184577Y-50460369D01*
X81184580Y-50460368D01*
X81184583Y-50460368D01*
X81354850Y-50400789D01*
X81507590Y-50304816D01*
X81635144Y-50177262D01*
X81731117Y-50024522D01*
X81790696Y-49854255D01*
X81810893Y-49675000D01*
X81790696Y-49495745D01*
X81731117Y-49325478D01*
X81635144Y-49172738D01*
X81507590Y-49045184D01*
X81354851Y-48949211D01*
X81184582Y-48889631D01*
X81184577Y-48889630D01*
X81005332Y-48869435D01*
X81005324Y-48869435D01*
X80826078Y-48889630D01*
X80826073Y-48889631D01*
X80655804Y-48949211D01*
X80503065Y-49045184D01*
X80375512Y-49172737D01*
X80279539Y-49325476D01*
X80219959Y-49495745D01*
X80219958Y-49495750D01*
X80199763Y-49674996D01*
X54000500Y-49674996D01*
X54000500Y-41654893D01*
X54020185Y-41587854D01*
X54052261Y-41557272D01*
X54050863Y-41555450D01*
X54057307Y-41550503D01*
X54057314Y-41550500D01*
X54150500Y-41457314D01*
X54216392Y-41343186D01*
X54250500Y-41215892D01*
X54250500Y-41084108D01*
X54216392Y-40956814D01*
X54216390Y-40956810D01*
X54211786Y-40948835D01*
X54195313Y-40880934D01*
X54218166Y-40814908D01*
X54257169Y-40779450D01*
X54307314Y-40750500D01*
X54400500Y-40657314D01*
X54466392Y-40543186D01*
X54500500Y-40415892D01*
X54500500Y-40284108D01*
X54466392Y-40156814D01*
X54411650Y-40061999D01*
X54395178Y-39994100D01*
X54411650Y-39938000D01*
X54466392Y-39843186D01*
X54500500Y-39715892D01*
X54500500Y-39584108D01*
X54466392Y-39456814D01*
X54400500Y-39342686D01*
X54307314Y-39249500D01*
X54257173Y-39220551D01*
X54208957Y-39169984D01*
X54195734Y-39101377D01*
X54211786Y-39051163D01*
X54216392Y-39043186D01*
X54250500Y-38915892D01*
X54250500Y-38784108D01*
X54216392Y-38656814D01*
X54150500Y-38542686D01*
X54057314Y-38449500D01*
X54057311Y-38449498D01*
X54050865Y-38444552D01*
X54052675Y-38442192D01*
X54014280Y-38401920D01*
X54000500Y-38345107D01*
X54000500Y-37573915D01*
X54000635Y-37571819D01*
X54000622Y-37564953D01*
X54000623Y-37564950D01*
X54000500Y-37499580D01*
X54000500Y-37434108D01*
X54000500Y-37427216D01*
X54000358Y-37425120D01*
X53990480Y-32174996D01*
X74159763Y-32174996D01*
X74159763Y-32175003D01*
X74179958Y-32354249D01*
X74179959Y-32354254D01*
X74239539Y-32524523D01*
X74335512Y-32677262D01*
X74463066Y-32804816D01*
X74615806Y-32900789D01*
X74786073Y-32960368D01*
X74786078Y-32960369D01*
X74965324Y-32980565D01*
X74965328Y-32980565D01*
X74965332Y-32980565D01*
X75144577Y-32960369D01*
X75144580Y-32960368D01*
X75144583Y-32960368D01*
X75314850Y-32900789D01*
X75467590Y-32804816D01*
X75595144Y-32677262D01*
X75691117Y-32524522D01*
X75750696Y-32354255D01*
X75770893Y-32175000D01*
X75750696Y-31995745D01*
X75691117Y-31825478D01*
X75595144Y-31672738D01*
X75467590Y-31545184D01*
X75314851Y-31449211D01*
X75144582Y-31389631D01*
X75144577Y-31389630D01*
X74965332Y-31369435D01*
X74965324Y-31369435D01*
X74786078Y-31389630D01*
X74786073Y-31389631D01*
X74615804Y-31449211D01*
X74463065Y-31545184D01*
X74335512Y-31672737D01*
X74239539Y-31825476D01*
X74179959Y-31995745D01*
X74179958Y-31995750D01*
X74159763Y-32174996D01*
X53990480Y-32174996D01*
X53967380Y-19897648D01*
X54699500Y-19897648D01*
X54699500Y-20102351D01*
X54731522Y-20304534D01*
X54794781Y-20499223D01*
X54858691Y-20624653D01*
X54880251Y-20666966D01*
X54887715Y-20681613D01*
X55008028Y-20847213D01*
X55152786Y-20991971D01*
X55289340Y-21091181D01*
X55318390Y-21112287D01*
X55434607Y-21171503D01*
X55500776Y-21205218D01*
X55500778Y-21205218D01*
X55500781Y-21205220D01*
X55605137Y-21239127D01*
X55695465Y-21268477D01*
X55796557Y-21284488D01*
X55897648Y-21300500D01*
X55897649Y-21300500D01*
X56102351Y-21300500D01*
X56102352Y-21300500D01*
X56304534Y-21268477D01*
X56499219Y-21205220D01*
X56681610Y-21112287D01*
X56774590Y-21044732D01*
X56847213Y-20991971D01*
X56847215Y-20991968D01*
X56847219Y-20991966D01*
X56991966Y-20847219D01*
X56991968Y-20847215D01*
X56991971Y-20847213D01*
X57044732Y-20774590D01*
X57112287Y-20681610D01*
X57205220Y-20499219D01*
X57268477Y-20304534D01*
X57285034Y-20199996D01*
X63694435Y-20199996D01*
X63694435Y-20200003D01*
X63714630Y-20379249D01*
X63714631Y-20379254D01*
X63774211Y-20549523D01*
X63831643Y-20640925D01*
X63870184Y-20702262D01*
X63997738Y-20829816D01*
X64150478Y-20925789D01*
X64292544Y-20975500D01*
X64320745Y-20985368D01*
X64320750Y-20985369D01*
X64499996Y-21005565D01*
X64500000Y-21005565D01*
X64500004Y-21005565D01*
X64679249Y-20985369D01*
X64679252Y-20985368D01*
X64679255Y-20985368D01*
X64849522Y-20925789D01*
X65002262Y-20829816D01*
X65129816Y-20702262D01*
X65225789Y-20549522D01*
X65285368Y-20379255D01*
X65287919Y-20356613D01*
X65305565Y-20200003D01*
X65305565Y-20199996D01*
X65285369Y-20020750D01*
X65285368Y-20020745D01*
X65242294Y-19897648D01*
X65225789Y-19850478D01*
X65129816Y-19697738D01*
X65002262Y-19570184D01*
X64849523Y-19474211D01*
X64679254Y-19414631D01*
X64679249Y-19414630D01*
X64500004Y-19394435D01*
X64499996Y-19394435D01*
X64320750Y-19414630D01*
X64320745Y-19414631D01*
X64150476Y-19474211D01*
X63997737Y-19570184D01*
X63870184Y-19697737D01*
X63774211Y-19850476D01*
X63714631Y-20020745D01*
X63714630Y-20020750D01*
X63694435Y-20199996D01*
X57285034Y-20199996D01*
X57300500Y-20102352D01*
X57300500Y-19897648D01*
X57281447Y-19777351D01*
X57268477Y-19695465D01*
X57205218Y-19500776D01*
X57138821Y-19370466D01*
X57112287Y-19318390D01*
X57082341Y-19277172D01*
X56991971Y-19152786D01*
X56847213Y-19008028D01*
X56681613Y-18887715D01*
X56681612Y-18887714D01*
X56681610Y-18887713D01*
X56624653Y-18858691D01*
X56499223Y-18794781D01*
X56304534Y-18731522D01*
X56129995Y-18703878D01*
X56102352Y-18699500D01*
X55897648Y-18699500D01*
X55873329Y-18703351D01*
X55695465Y-18731522D01*
X55500776Y-18794781D01*
X55318386Y-18887715D01*
X55152786Y-19008028D01*
X55008028Y-19152786D01*
X54887715Y-19318386D01*
X54794781Y-19500776D01*
X54731522Y-19695465D01*
X54699500Y-19897648D01*
X53967380Y-19897648D01*
X53965505Y-18901097D01*
X53962163Y-17124999D01*
X57969364Y-17124999D01*
X57969364Y-17125000D01*
X58866988Y-17125000D01*
X58834075Y-17182007D01*
X58800000Y-17309174D01*
X58800000Y-17440826D01*
X58834075Y-17567993D01*
X58866988Y-17625000D01*
X57969364Y-17625000D01*
X58026567Y-17838486D01*
X58026570Y-17838492D01*
X58126399Y-18052578D01*
X58261894Y-18246082D01*
X58428917Y-18413105D01*
X58622421Y-18548600D01*
X58836507Y-18648429D01*
X58836516Y-18648433D01*
X59050000Y-18705634D01*
X59050000Y-17808012D01*
X59107007Y-17840925D01*
X59234174Y-17875000D01*
X59365826Y-17875000D01*
X59492993Y-17840925D01*
X59550000Y-17808012D01*
X59550000Y-18705633D01*
X59763483Y-18648433D01*
X59763492Y-18648429D01*
X59977578Y-18548600D01*
X60171082Y-18413105D01*
X60338105Y-18246082D01*
X60468119Y-18060405D01*
X60522696Y-18016781D01*
X60592195Y-18009588D01*
X60654549Y-18041110D01*
X60671269Y-18060405D01*
X60801505Y-18246401D01*
X60968599Y-18413495D01*
X61048982Y-18469780D01*
X61162165Y-18549032D01*
X61162167Y-18549033D01*
X61162170Y-18549035D01*
X61376337Y-18648903D01*
X61604592Y-18710063D01*
X61781034Y-18725500D01*
X61839999Y-18730659D01*
X61840000Y-18730659D01*
X61840001Y-18730659D01*
X61898966Y-18725500D01*
X62075408Y-18710063D01*
X62303663Y-18648903D01*
X62517830Y-18549035D01*
X62711401Y-18413495D01*
X62878495Y-18246401D01*
X63008425Y-18060842D01*
X63063002Y-18017217D01*
X63132500Y-18010023D01*
X63194855Y-18041546D01*
X63211575Y-18060842D01*
X63341281Y-18246082D01*
X63341505Y-18246401D01*
X63508599Y-18413495D01*
X63588982Y-18469780D01*
X63702165Y-18549032D01*
X63702167Y-18549033D01*
X63702170Y-18549035D01*
X63916337Y-18648903D01*
X64144592Y-18710063D01*
X64321034Y-18725500D01*
X64379999Y-18730659D01*
X64380000Y-18730659D01*
X64380001Y-18730659D01*
X64438966Y-18725500D01*
X64615408Y-18710063D01*
X64843663Y-18648903D01*
X65057830Y-18549035D01*
X65251401Y-18413495D01*
X65418495Y-18246401D01*
X65548425Y-18060842D01*
X65603002Y-18017217D01*
X65672500Y-18010023D01*
X65734855Y-18041546D01*
X65751575Y-18060842D01*
X65881281Y-18246082D01*
X65881505Y-18246401D01*
X66048599Y-18413495D01*
X66128982Y-18469780D01*
X66242165Y-18549032D01*
X66242167Y-18549033D01*
X66242170Y-18549035D01*
X66456337Y-18648903D01*
X66684592Y-18710063D01*
X66861034Y-18725500D01*
X66919999Y-18730659D01*
X66920000Y-18730659D01*
X66920001Y-18730659D01*
X66978966Y-18725500D01*
X67155408Y-18710063D01*
X67383663Y-18648903D01*
X67597830Y-18549035D01*
X67791401Y-18413495D01*
X67958495Y-18246401D01*
X68088425Y-18060842D01*
X68143002Y-18017217D01*
X68212500Y-18010023D01*
X68274855Y-18041546D01*
X68291575Y-18060842D01*
X68421281Y-18246082D01*
X68421505Y-18246401D01*
X68588599Y-18413495D01*
X68668982Y-18469780D01*
X68782165Y-18549032D01*
X68782167Y-18549033D01*
X68782170Y-18549035D01*
X68996337Y-18648903D01*
X69224592Y-18710063D01*
X69277481Y-18714690D01*
X69342550Y-18740142D01*
X69383529Y-18796733D01*
X69387407Y-18866495D01*
X69352953Y-18927279D01*
X69340986Y-18937484D01*
X69300473Y-18967812D01*
X69214313Y-19082906D01*
X69214309Y-19082913D01*
X69165242Y-19214470D01*
X69123371Y-19270404D01*
X69057906Y-19294821D01*
X68989633Y-19279969D01*
X68961379Y-19258819D01*
X68917030Y-19214470D01*
X68839065Y-19136505D01*
X68839061Y-19136502D01*
X68839060Y-19136501D01*
X68645498Y-19000967D01*
X68645494Y-19000965D01*
X68574397Y-18967812D01*
X68431327Y-18901097D01*
X68431323Y-18901096D01*
X68431319Y-18901094D01*
X68203077Y-18839938D01*
X68203067Y-18839936D01*
X67967665Y-18819341D01*
X67967663Y-18819341D01*
X67732260Y-18839936D01*
X67732250Y-18839938D01*
X67504008Y-18901094D01*
X67503999Y-18901098D01*
X67289835Y-19000964D01*
X67289833Y-19000965D01*
X67096261Y-19136505D01*
X66929169Y-19303597D01*
X66793629Y-19497169D01*
X66793628Y-19497171D01*
X66693762Y-19711335D01*
X66693758Y-19711344D01*
X66632602Y-19939586D01*
X66632600Y-19939596D01*
X66612005Y-20174999D01*
X66612005Y-20175000D01*
X66632600Y-20410403D01*
X66632602Y-20410413D01*
X66693758Y-20638655D01*
X66693760Y-20638659D01*
X66693761Y-20638663D01*
X66713788Y-20681610D01*
X66793629Y-20852830D01*
X66793631Y-20852834D01*
X66886433Y-20985368D01*
X66929169Y-21046401D01*
X67096263Y-21213495D01*
X67172799Y-21267086D01*
X67289829Y-21349032D01*
X67289831Y-21349033D01*
X67289834Y-21349035D01*
X67504001Y-21448903D01*
X67732256Y-21510063D01*
X67902983Y-21525000D01*
X67967663Y-21530659D01*
X67967664Y-21530659D01*
X67967665Y-21530659D01*
X68032345Y-21525000D01*
X68203072Y-21510063D01*
X68431327Y-21448903D01*
X68645494Y-21349035D01*
X68839065Y-21213495D01*
X68961381Y-21091178D01*
X69022700Y-21057696D01*
X69092392Y-21062680D01*
X69148326Y-21104551D01*
X69165241Y-21135528D01*
X69214310Y-21267088D01*
X69214313Y-21267093D01*
X69300473Y-21382187D01*
X69300476Y-21382190D01*
X69415570Y-21468350D01*
X69415577Y-21468354D01*
X69550284Y-21518596D01*
X69550291Y-21518598D01*
X69609819Y-21524999D01*
X69609836Y-21525000D01*
X70257664Y-21525000D01*
X70257664Y-20608012D01*
X70314671Y-20640925D01*
X70441838Y-20675000D01*
X70573490Y-20675000D01*
X70700657Y-20640925D01*
X70757664Y-20608012D01*
X70757664Y-21525000D01*
X71405492Y-21525000D01*
X71405508Y-21524999D01*
X71465036Y-21518598D01*
X71465043Y-21518596D01*
X71599750Y-21468354D01*
X71599757Y-21468350D01*
X71714851Y-21382190D01*
X71714854Y-21382187D01*
X71801014Y-21267093D01*
X71801018Y-21267086D01*
X71851260Y-21132379D01*
X71851262Y-21132372D01*
X71857663Y-21072844D01*
X71857664Y-21072827D01*
X71857664Y-20425000D01*
X70940676Y-20425000D01*
X70973589Y-20367993D01*
X71007664Y-20240826D01*
X71007664Y-20109174D01*
X70973589Y-19982007D01*
X70940676Y-19925000D01*
X71857664Y-19925000D01*
X71857664Y-19572648D01*
X79664828Y-19572648D01*
X79664828Y-19777351D01*
X79696850Y-19979534D01*
X79760109Y-20174223D01*
X79853043Y-20356613D01*
X79973356Y-20522213D01*
X80118114Y-20666971D01*
X80273077Y-20779556D01*
X80283718Y-20787287D01*
X80367184Y-20829815D01*
X80466104Y-20880218D01*
X80466106Y-20880218D01*
X80466109Y-20880220D01*
X80570465Y-20914127D01*
X80660793Y-20943477D01*
X80761885Y-20959488D01*
X80862976Y-20975500D01*
X80862977Y-20975500D01*
X81067679Y-20975500D01*
X81067680Y-20975500D01*
X81269862Y-20943477D01*
X81464547Y-20880220D01*
X81646938Y-20787287D01*
X81763966Y-20702262D01*
X81812541Y-20666971D01*
X81812543Y-20666968D01*
X81812547Y-20666966D01*
X81957294Y-20522219D01*
X81957296Y-20522215D01*
X81957299Y-20522213D01*
X82038525Y-20410413D01*
X82077615Y-20356610D01*
X82170548Y-20174219D01*
X82233805Y-19979534D01*
X82265828Y-19777352D01*
X82265828Y-19572648D01*
X82240800Y-19414630D01*
X82233805Y-19370465D01*
X82197529Y-19258819D01*
X82170548Y-19175781D01*
X82170546Y-19175778D01*
X82170546Y-19175776D01*
X82123226Y-19082906D01*
X82077615Y-18993390D01*
X82059032Y-18967812D01*
X81957299Y-18827786D01*
X81812541Y-18683028D01*
X81646941Y-18562715D01*
X81646940Y-18562714D01*
X81646938Y-18562713D01*
X81589981Y-18533691D01*
X81464551Y-18469781D01*
X81269862Y-18406522D01*
X81095323Y-18378878D01*
X81067680Y-18374500D01*
X80862976Y-18374500D01*
X80838657Y-18378351D01*
X80660793Y-18406522D01*
X80466104Y-18469781D01*
X80283714Y-18562715D01*
X80118114Y-18683028D01*
X79973356Y-18827786D01*
X79853043Y-18993386D01*
X79760109Y-19175776D01*
X79696850Y-19370465D01*
X79664828Y-19572648D01*
X71857664Y-19572648D01*
X71857664Y-19277172D01*
X71857663Y-19277155D01*
X71851262Y-19217627D01*
X71851260Y-19217620D01*
X71801018Y-19082913D01*
X71801014Y-19082906D01*
X71714854Y-18967812D01*
X71689411Y-18948765D01*
X71647540Y-18892831D01*
X71642557Y-18823139D01*
X71676043Y-18761816D01*
X71737367Y-18728332D01*
X71763717Y-18725499D01*
X72897872Y-18725499D01*
X72957483Y-18719091D01*
X73092331Y-18668796D01*
X73207546Y-18582546D01*
X73293796Y-18467331D01*
X73344091Y-18332483D01*
X73350500Y-18272873D01*
X73350499Y-16477128D01*
X73344091Y-16417517D01*
X73342810Y-16414083D01*
X73293797Y-16282671D01*
X73293793Y-16282664D01*
X73207547Y-16167455D01*
X73207544Y-16167452D01*
X73092335Y-16081206D01*
X73092328Y-16081202D01*
X72957482Y-16030908D01*
X72957483Y-16030908D01*
X72897883Y-16024501D01*
X72897881Y-16024500D01*
X72897873Y-16024500D01*
X72897864Y-16024500D01*
X71102129Y-16024500D01*
X71102123Y-16024501D01*
X71042516Y-16030908D01*
X70907671Y-16081202D01*
X70907664Y-16081206D01*
X70792455Y-16167452D01*
X70792452Y-16167455D01*
X70706206Y-16282664D01*
X70706203Y-16282669D01*
X70657189Y-16414083D01*
X70615317Y-16470016D01*
X70549853Y-16494433D01*
X70481580Y-16479581D01*
X70453326Y-16458430D01*
X70331402Y-16336506D01*
X70331395Y-16336501D01*
X70137834Y-16200967D01*
X70137830Y-16200965D01*
X70137828Y-16200964D01*
X69923663Y-16101097D01*
X69923659Y-16101096D01*
X69923655Y-16101094D01*
X69695413Y-16039938D01*
X69695403Y-16039936D01*
X69460001Y-16019341D01*
X69459999Y-16019341D01*
X69224596Y-16039936D01*
X69224586Y-16039938D01*
X68996344Y-16101094D01*
X68996335Y-16101098D01*
X68782171Y-16200964D01*
X68782169Y-16200965D01*
X68588597Y-16336505D01*
X68421505Y-16503597D01*
X68291575Y-16689158D01*
X68236998Y-16732783D01*
X68167500Y-16739977D01*
X68105145Y-16708454D01*
X68088425Y-16689158D01*
X67958494Y-16503597D01*
X67791402Y-16336506D01*
X67791395Y-16336501D01*
X67597834Y-16200967D01*
X67597830Y-16200965D01*
X67597828Y-16200964D01*
X67383663Y-16101097D01*
X67383659Y-16101096D01*
X67383655Y-16101094D01*
X67155413Y-16039938D01*
X67155403Y-16039936D01*
X66920001Y-16019341D01*
X66919999Y-16019341D01*
X66684596Y-16039936D01*
X66684586Y-16039938D01*
X66456344Y-16101094D01*
X66456335Y-16101098D01*
X66242171Y-16200964D01*
X66242169Y-16200965D01*
X66048597Y-16336505D01*
X65881505Y-16503597D01*
X65751575Y-16689158D01*
X65696998Y-16732783D01*
X65627500Y-16739977D01*
X65565145Y-16708454D01*
X65548425Y-16689158D01*
X65418494Y-16503597D01*
X65251402Y-16336506D01*
X65251395Y-16336501D01*
X65057834Y-16200967D01*
X65057830Y-16200965D01*
X65057828Y-16200964D01*
X64843663Y-16101097D01*
X64843659Y-16101096D01*
X64843655Y-16101094D01*
X64615413Y-16039938D01*
X64615403Y-16039936D01*
X64380001Y-16019341D01*
X64379999Y-16019341D01*
X64144596Y-16039936D01*
X64144586Y-16039938D01*
X63916344Y-16101094D01*
X63916335Y-16101098D01*
X63702171Y-16200964D01*
X63702169Y-16200965D01*
X63508597Y-16336505D01*
X63341505Y-16503597D01*
X63211575Y-16689158D01*
X63156998Y-16732783D01*
X63087500Y-16739977D01*
X63025145Y-16708454D01*
X63008425Y-16689158D01*
X62878494Y-16503597D01*
X62711402Y-16336506D01*
X62711395Y-16336501D01*
X62517834Y-16200967D01*
X62517830Y-16200965D01*
X62517828Y-16200964D01*
X62303663Y-16101097D01*
X62303659Y-16101096D01*
X62303655Y-16101094D01*
X62075413Y-16039938D01*
X62075403Y-16039936D01*
X61840001Y-16019341D01*
X61839999Y-16019341D01*
X61604596Y-16039936D01*
X61604586Y-16039938D01*
X61376344Y-16101094D01*
X61376335Y-16101098D01*
X61162171Y-16200964D01*
X61162169Y-16200965D01*
X60968597Y-16336505D01*
X60801508Y-16503594D01*
X60671269Y-16689595D01*
X60616692Y-16733219D01*
X60547193Y-16740412D01*
X60484839Y-16708890D01*
X60468119Y-16689594D01*
X60338113Y-16503926D01*
X60338108Y-16503920D01*
X60171082Y-16336894D01*
X59977578Y-16201399D01*
X59763492Y-16101570D01*
X59763486Y-16101567D01*
X59550000Y-16044364D01*
X59550000Y-16941988D01*
X59492993Y-16909075D01*
X59365826Y-16875000D01*
X59234174Y-16875000D01*
X59107007Y-16909075D01*
X59050000Y-16941988D01*
X59050000Y-16044364D01*
X59049999Y-16044364D01*
X58836513Y-16101567D01*
X58836507Y-16101570D01*
X58622422Y-16201399D01*
X58622420Y-16201400D01*
X58428926Y-16336886D01*
X58428920Y-16336891D01*
X58261891Y-16503920D01*
X58261886Y-16503926D01*
X58126400Y-16697420D01*
X58126399Y-16697422D01*
X58026570Y-16911507D01*
X58026567Y-16911513D01*
X57969364Y-17124999D01*
X53962163Y-17124999D01*
X53959340Y-15624733D01*
X53978899Y-15557657D01*
X54031616Y-15511803D01*
X54083340Y-15500500D01*
X82833673Y-15500500D01*
X82900712Y-15520185D01*
G37*
%TD.AperFunction*%
%TD*%
%TA.AperFunction,Conductor*%
%TO.N,GND*%
G36*
X51942539Y-15520185D02*
G01*
X51988294Y-15572989D01*
X51999500Y-15624500D01*
X51999500Y-38345107D01*
X51979815Y-38412146D01*
X51947739Y-38442732D01*
X51949135Y-38444552D01*
X51942683Y-38449502D01*
X51849502Y-38542683D01*
X51849500Y-38542686D01*
X51783608Y-38656812D01*
X51749500Y-38784108D01*
X51749500Y-38915891D01*
X51783609Y-39043188D01*
X51783609Y-39043189D01*
X51788213Y-39051163D01*
X51804686Y-39119063D01*
X51781834Y-39185090D01*
X51742828Y-39220549D01*
X51692689Y-39249497D01*
X51692683Y-39249502D01*
X51599502Y-39342683D01*
X51599500Y-39342686D01*
X51533608Y-39456812D01*
X51499500Y-39584108D01*
X51499500Y-39715891D01*
X51533609Y-39843188D01*
X51533609Y-39843189D01*
X51588348Y-39938000D01*
X51604821Y-40005900D01*
X51588348Y-40062000D01*
X51533609Y-40156810D01*
X51533609Y-40156811D01*
X51499500Y-40284108D01*
X51499500Y-40415891D01*
X51533608Y-40543187D01*
X51545085Y-40563065D01*
X51599500Y-40657314D01*
X51692686Y-40750500D01*
X51742521Y-40779272D01*
X51742827Y-40779449D01*
X51791042Y-40830017D01*
X51804264Y-40898624D01*
X51788215Y-40948833D01*
X51783609Y-40956810D01*
X51783609Y-40956811D01*
X51749500Y-41084108D01*
X51749500Y-41215891D01*
X51783608Y-41343187D01*
X51816554Y-41400250D01*
X51849500Y-41457314D01*
X51942686Y-41550500D01*
X51942688Y-41550501D01*
X51949137Y-41555450D01*
X51947324Y-41557812D01*
X51985710Y-41598062D01*
X51999500Y-41654893D01*
X51999500Y-74272998D01*
X51979815Y-74340037D01*
X51927011Y-74385792D01*
X51857853Y-74395736D01*
X51804377Y-74374573D01*
X51677834Y-74285967D01*
X51677830Y-74285965D01*
X51650022Y-74272998D01*
X51463663Y-74186097D01*
X51463659Y-74186096D01*
X51463655Y-74186094D01*
X51235413Y-74124938D01*
X51235403Y-74124936D01*
X51000001Y-74104341D01*
X50999999Y-74104341D01*
X50764596Y-74124936D01*
X50764586Y-74124938D01*
X50536344Y-74186094D01*
X50536335Y-74186098D01*
X50322171Y-74285964D01*
X50322169Y-74285965D01*
X50128597Y-74421505D01*
X49961505Y-74588597D01*
X49825965Y-74782169D01*
X49825964Y-74782171D01*
X49726098Y-74996335D01*
X49726094Y-74996344D01*
X49664938Y-75224586D01*
X49664936Y-75224596D01*
X49644341Y-75459999D01*
X49644341Y-75460000D01*
X49664936Y-75695403D01*
X49664938Y-75695413D01*
X49726094Y-75923655D01*
X49726096Y-75923659D01*
X49726097Y-75923663D01*
X49825965Y-76137830D01*
X49825967Y-76137834D01*
X49961501Y-76331395D01*
X49961506Y-76331402D01*
X50128597Y-76498493D01*
X50128603Y-76498498D01*
X50314158Y-76628425D01*
X50357783Y-76683002D01*
X50364977Y-76752500D01*
X50333454Y-76814855D01*
X50314158Y-76831575D01*
X50128597Y-76961505D01*
X49961505Y-77128597D01*
X49825965Y-77322169D01*
X49825964Y-77322171D01*
X49726098Y-77536335D01*
X49726094Y-77536344D01*
X49664938Y-77764586D01*
X49664936Y-77764596D01*
X49644341Y-77999999D01*
X49644341Y-78000000D01*
X49664936Y-78235403D01*
X49664938Y-78235413D01*
X49726094Y-78463655D01*
X49726096Y-78463659D01*
X49726097Y-78463663D01*
X49825965Y-78677830D01*
X49825967Y-78677834D01*
X49961501Y-78871395D01*
X49961506Y-78871402D01*
X50128597Y-79038493D01*
X50128603Y-79038498D01*
X50314158Y-79168425D01*
X50357783Y-79223002D01*
X50364977Y-79292500D01*
X50333454Y-79354855D01*
X50314158Y-79371575D01*
X50128597Y-79501505D01*
X49961505Y-79668597D01*
X49825965Y-79862169D01*
X49825964Y-79862171D01*
X49726098Y-80076335D01*
X49726094Y-80076344D01*
X49664938Y-80304586D01*
X49664936Y-80304596D01*
X49644341Y-80539999D01*
X49644341Y-80540000D01*
X49664936Y-80775403D01*
X49664938Y-80775413D01*
X49726094Y-81003655D01*
X49726096Y-81003659D01*
X49726097Y-81003663D01*
X49825965Y-81217830D01*
X49825967Y-81217834D01*
X49961501Y-81411395D01*
X49961506Y-81411402D01*
X50128597Y-81578493D01*
X50128603Y-81578498D01*
X50314158Y-81708425D01*
X50357783Y-81763002D01*
X50364977Y-81832500D01*
X50333454Y-81894855D01*
X50314158Y-81911575D01*
X50128597Y-82041505D01*
X49961505Y-82208597D01*
X49825965Y-82402169D01*
X49825964Y-82402171D01*
X49726098Y-82616335D01*
X49726094Y-82616344D01*
X49664938Y-82844586D01*
X49664936Y-82844596D01*
X49644341Y-83079999D01*
X49644341Y-83080000D01*
X49664936Y-83315403D01*
X49664938Y-83315411D01*
X49726094Y-83543655D01*
X49726096Y-83543659D01*
X49726097Y-83543663D01*
X49751313Y-83597738D01*
X49825965Y-83757830D01*
X49825967Y-83757834D01*
X49961501Y-83951395D01*
X49961506Y-83951402D01*
X50128597Y-84118493D01*
X50128603Y-84118498D01*
X50314158Y-84248425D01*
X50357783Y-84303002D01*
X50364977Y-84372500D01*
X50333454Y-84434855D01*
X50314158Y-84451575D01*
X50128597Y-84581505D01*
X49961505Y-84748597D01*
X49825965Y-84942169D01*
X49825964Y-84942171D01*
X49726098Y-85156335D01*
X49726094Y-85156344D01*
X49664938Y-85384586D01*
X49664936Y-85384596D01*
X49644341Y-85619999D01*
X49644341Y-85620000D01*
X49664936Y-85855403D01*
X49664938Y-85855413D01*
X49726094Y-86083655D01*
X49726096Y-86083659D01*
X49726097Y-86083663D01*
X49813210Y-86270476D01*
X49825965Y-86297830D01*
X49825967Y-86297834D01*
X49961501Y-86491395D01*
X49961506Y-86491402D01*
X50128597Y-86658493D01*
X50128603Y-86658498D01*
X50314158Y-86788425D01*
X50357783Y-86843002D01*
X50364977Y-86912500D01*
X50333454Y-86974855D01*
X50314158Y-86991575D01*
X50128597Y-87121505D01*
X49961505Y-87288597D01*
X49825965Y-87482169D01*
X49825964Y-87482171D01*
X49726098Y-87696335D01*
X49726094Y-87696344D01*
X49664938Y-87924586D01*
X49664936Y-87924596D01*
X49644341Y-88159999D01*
X49644341Y-88160000D01*
X49664936Y-88395403D01*
X49664938Y-88395413D01*
X49726094Y-88623655D01*
X49726096Y-88623659D01*
X49726097Y-88623663D01*
X49801502Y-88785369D01*
X49825965Y-88837830D01*
X49825967Y-88837834D01*
X49961501Y-89031395D01*
X49961506Y-89031402D01*
X50083430Y-89153326D01*
X50116915Y-89214649D01*
X50111931Y-89284341D01*
X50070059Y-89340274D01*
X50039083Y-89357189D01*
X49907669Y-89406203D01*
X49907664Y-89406206D01*
X49792455Y-89492452D01*
X49792452Y-89492455D01*
X49706206Y-89607664D01*
X49706202Y-89607671D01*
X49655908Y-89742517D01*
X49649501Y-89802116D01*
X49649500Y-89802135D01*
X49649500Y-91597870D01*
X49649501Y-91597876D01*
X49655908Y-91657483D01*
X49706202Y-91792328D01*
X49706206Y-91792335D01*
X49792452Y-91907544D01*
X49792455Y-91907547D01*
X49907664Y-91993793D01*
X49907671Y-91993797D01*
X50042517Y-92044091D01*
X50042516Y-92044091D01*
X50049444Y-92044835D01*
X50102127Y-92050500D01*
X51875500Y-92050499D01*
X51942539Y-92070184D01*
X51988294Y-92122987D01*
X51999500Y-92174499D01*
X51999500Y-111595107D01*
X51979815Y-111662146D01*
X51947739Y-111692732D01*
X51949135Y-111694552D01*
X51942683Y-111699502D01*
X51849502Y-111792683D01*
X51849500Y-111792686D01*
X51783608Y-111906812D01*
X51749500Y-112034108D01*
X51749500Y-112165891D01*
X51783609Y-112293188D01*
X51783609Y-112293189D01*
X51788213Y-112301163D01*
X51804686Y-112369063D01*
X51781834Y-112435090D01*
X51742828Y-112470549D01*
X51692689Y-112499497D01*
X51692683Y-112499502D01*
X51599502Y-112592683D01*
X51599500Y-112592686D01*
X51533608Y-112706812D01*
X51499500Y-112834108D01*
X51499500Y-112965891D01*
X51533609Y-113093188D01*
X51533609Y-113093189D01*
X51588348Y-113188000D01*
X51604821Y-113255900D01*
X51588348Y-113312000D01*
X51533609Y-113406810D01*
X51533609Y-113406811D01*
X51499500Y-113534108D01*
X51499500Y-113665891D01*
X51533608Y-113793187D01*
X51545085Y-113813065D01*
X51599500Y-113907314D01*
X51692686Y-114000500D01*
X51742521Y-114029272D01*
X51742827Y-114029449D01*
X51791042Y-114080017D01*
X51804264Y-114148624D01*
X51788215Y-114198833D01*
X51783609Y-114206810D01*
X51783609Y-114206811D01*
X51749500Y-114334108D01*
X51749500Y-114465891D01*
X51783608Y-114593187D01*
X51816554Y-114650250D01*
X51849500Y-114707314D01*
X51942686Y-114800500D01*
X51942688Y-114800501D01*
X51949137Y-114805450D01*
X51947324Y-114807812D01*
X51985710Y-114848062D01*
X51999500Y-114904893D01*
X51999500Y-175875500D01*
X51979815Y-175942539D01*
X51927011Y-175988294D01*
X51875500Y-175999500D01*
X23124500Y-175999500D01*
X23057461Y-175979815D01*
X23011706Y-175927011D01*
X23000500Y-175875500D01*
X23000500Y-173397648D01*
X23699500Y-173397648D01*
X23699500Y-173602351D01*
X23731522Y-173804534D01*
X23794781Y-173999223D01*
X23887715Y-174181613D01*
X24008028Y-174347213D01*
X24152786Y-174491971D01*
X24307749Y-174604556D01*
X24318390Y-174612287D01*
X24412077Y-174660023D01*
X24500776Y-174705218D01*
X24500778Y-174705218D01*
X24500781Y-174705220D01*
X24605137Y-174739127D01*
X24695465Y-174768477D01*
X24796557Y-174784488D01*
X24897648Y-174800500D01*
X24897649Y-174800500D01*
X25102351Y-174800500D01*
X25102352Y-174800500D01*
X25304534Y-174768477D01*
X25499219Y-174705220D01*
X25681610Y-174612287D01*
X25774590Y-174544732D01*
X25847213Y-174491971D01*
X25847215Y-174491968D01*
X25847219Y-174491966D01*
X25991966Y-174347219D01*
X25991968Y-174347215D01*
X25991971Y-174347213D01*
X26062599Y-174250000D01*
X26112287Y-174181610D01*
X26205220Y-173999219D01*
X26268477Y-173804534D01*
X26300500Y-173602352D01*
X26300500Y-173397648D01*
X26268477Y-173195466D01*
X26246281Y-173127155D01*
X27030000Y-173127155D01*
X27030000Y-173775000D01*
X27946988Y-173775000D01*
X27914075Y-173832007D01*
X27880000Y-173959174D01*
X27880000Y-174090826D01*
X27914075Y-174217993D01*
X27946988Y-174275000D01*
X27030000Y-174275000D01*
X27030000Y-174922844D01*
X27036401Y-174982372D01*
X27036403Y-174982379D01*
X27086645Y-175117086D01*
X27086649Y-175117093D01*
X27172809Y-175232187D01*
X27172812Y-175232190D01*
X27287906Y-175318350D01*
X27287913Y-175318354D01*
X27422620Y-175368596D01*
X27422627Y-175368598D01*
X27482155Y-175374999D01*
X27482172Y-175375000D01*
X28130000Y-175375000D01*
X28130000Y-174458012D01*
X28187007Y-174490925D01*
X28314174Y-174525000D01*
X28445826Y-174525000D01*
X28572993Y-174490925D01*
X28630000Y-174458012D01*
X28630000Y-175375000D01*
X29277828Y-175375000D01*
X29277844Y-175374999D01*
X29337372Y-175368598D01*
X29337379Y-175368596D01*
X29472086Y-175318354D01*
X29472093Y-175318350D01*
X29587187Y-175232190D01*
X29587190Y-175232187D01*
X29673350Y-175117093D01*
X29673354Y-175117086D01*
X29722422Y-174985529D01*
X29764293Y-174929595D01*
X29829757Y-174905178D01*
X29898030Y-174920030D01*
X29926285Y-174941181D01*
X30048599Y-175063495D01*
X30125135Y-175117086D01*
X30242165Y-175199032D01*
X30242167Y-175199033D01*
X30242170Y-175199035D01*
X30456337Y-175298903D01*
X30684592Y-175360063D01*
X30855319Y-175375000D01*
X30919999Y-175380659D01*
X30920000Y-175380659D01*
X30920001Y-175380659D01*
X30984681Y-175375000D01*
X31155408Y-175360063D01*
X31383663Y-175298903D01*
X31597830Y-175199035D01*
X31791401Y-175063495D01*
X31958495Y-174896401D01*
X32088425Y-174710842D01*
X32143002Y-174667217D01*
X32212500Y-174660023D01*
X32274855Y-174691546D01*
X32291575Y-174710842D01*
X32421500Y-174896395D01*
X32421505Y-174896401D01*
X32588599Y-175063495D01*
X32665135Y-175117086D01*
X32782165Y-175199032D01*
X32782167Y-175199033D01*
X32782170Y-175199035D01*
X32996337Y-175298903D01*
X33224592Y-175360063D01*
X33395319Y-175375000D01*
X33459999Y-175380659D01*
X33460000Y-175380659D01*
X33460001Y-175380659D01*
X33524681Y-175375000D01*
X33695408Y-175360063D01*
X33923663Y-175298903D01*
X34137830Y-175199035D01*
X34331401Y-175063495D01*
X34498495Y-174896401D01*
X34628425Y-174710842D01*
X34683002Y-174667217D01*
X34752500Y-174660023D01*
X34814855Y-174691546D01*
X34831575Y-174710842D01*
X34961500Y-174896395D01*
X34961505Y-174896401D01*
X35128599Y-175063495D01*
X35205135Y-175117086D01*
X35322165Y-175199032D01*
X35322167Y-175199033D01*
X35322170Y-175199035D01*
X35536337Y-175298903D01*
X35764592Y-175360063D01*
X35935319Y-175375000D01*
X35999999Y-175380659D01*
X36000000Y-175380659D01*
X36000001Y-175380659D01*
X36064681Y-175375000D01*
X36235408Y-175360063D01*
X36463663Y-175298903D01*
X36677830Y-175199035D01*
X36871401Y-175063495D01*
X37038495Y-174896401D01*
X37168425Y-174710842D01*
X37223002Y-174667217D01*
X37292500Y-174660023D01*
X37354855Y-174691546D01*
X37371575Y-174710842D01*
X37501500Y-174896395D01*
X37501505Y-174896401D01*
X37668599Y-175063495D01*
X37745135Y-175117086D01*
X37862165Y-175199032D01*
X37862167Y-175199033D01*
X37862170Y-175199035D01*
X38076337Y-175298903D01*
X38304592Y-175360063D01*
X38475319Y-175375000D01*
X38539999Y-175380659D01*
X38540000Y-175380659D01*
X38540001Y-175380659D01*
X38604681Y-175375000D01*
X38775408Y-175360063D01*
X39003663Y-175298903D01*
X39217830Y-175199035D01*
X39411401Y-175063495D01*
X39578495Y-174896401D01*
X39708425Y-174710842D01*
X39763002Y-174667217D01*
X39832500Y-174660023D01*
X39894855Y-174691546D01*
X39911575Y-174710842D01*
X40041500Y-174896395D01*
X40041505Y-174896401D01*
X40208599Y-175063495D01*
X40285135Y-175117086D01*
X40402165Y-175199032D01*
X40402167Y-175199033D01*
X40402170Y-175199035D01*
X40616337Y-175298903D01*
X40844592Y-175360063D01*
X41015319Y-175375000D01*
X41079999Y-175380659D01*
X41080000Y-175380659D01*
X41080001Y-175380659D01*
X41144681Y-175375000D01*
X41315408Y-175360063D01*
X41543663Y-175298903D01*
X41757830Y-175199035D01*
X41951401Y-175063495D01*
X42118495Y-174896401D01*
X42254035Y-174702830D01*
X42353903Y-174488663D01*
X42415063Y-174260408D01*
X42435659Y-174025000D01*
X42415063Y-173789592D01*
X42353903Y-173561337D01*
X42254035Y-173347171D01*
X42248425Y-173339158D01*
X42118494Y-173153597D01*
X41951402Y-172986506D01*
X41951399Y-172986504D01*
X41824989Y-172897990D01*
X41757834Y-172850967D01*
X41757830Y-172850965D01*
X41715030Y-172831007D01*
X41543663Y-172751097D01*
X41543659Y-172751096D01*
X41543655Y-172751094D01*
X41315413Y-172689938D01*
X41315403Y-172689936D01*
X41080001Y-172669341D01*
X41079999Y-172669341D01*
X40844596Y-172689936D01*
X40844586Y-172689938D01*
X40616344Y-172751094D01*
X40616335Y-172751098D01*
X40402171Y-172850964D01*
X40402169Y-172850965D01*
X40208597Y-172986505D01*
X40041505Y-173153597D01*
X39911575Y-173339158D01*
X39856998Y-173382783D01*
X39787500Y-173389977D01*
X39725145Y-173358454D01*
X39708425Y-173339158D01*
X39578494Y-173153597D01*
X39411402Y-172986506D01*
X39411399Y-172986504D01*
X39284989Y-172897990D01*
X39217834Y-172850967D01*
X39217830Y-172850965D01*
X39175030Y-172831007D01*
X39003663Y-172751097D01*
X39003659Y-172751096D01*
X39003655Y-172751094D01*
X38775413Y-172689938D01*
X38775403Y-172689936D01*
X38540001Y-172669341D01*
X38539999Y-172669341D01*
X38304596Y-172689936D01*
X38304586Y-172689938D01*
X38076344Y-172751094D01*
X38076335Y-172751098D01*
X37862171Y-172850964D01*
X37862169Y-172850965D01*
X37668597Y-172986505D01*
X37501505Y-173153597D01*
X37371575Y-173339158D01*
X37316998Y-173382783D01*
X37247500Y-173389977D01*
X37185145Y-173358454D01*
X37168425Y-173339158D01*
X37038496Y-173153600D01*
X36980343Y-173095447D01*
X36913898Y-173029002D01*
X36880415Y-172967682D01*
X36885399Y-172897990D01*
X36927270Y-172842056D01*
X36992734Y-172817639D01*
X36998912Y-172817418D01*
X36999998Y-172817322D01*
X37000000Y-172817323D01*
X37220068Y-172798070D01*
X37433450Y-172740894D01*
X37633662Y-172647534D01*
X37814620Y-172520826D01*
X37970826Y-172364620D01*
X38097534Y-172183662D01*
X38190894Y-171983450D01*
X38248070Y-171770068D01*
X38266360Y-171561004D01*
X38267323Y-171550002D01*
X38267323Y-171549997D01*
X38260103Y-171467474D01*
X38250612Y-171358992D01*
X43749500Y-171358992D01*
X43749500Y-171561007D01*
X43788907Y-171759119D01*
X43788909Y-171759127D01*
X43866213Y-171945755D01*
X43919904Y-172026109D01*
X43940782Y-172092787D01*
X43922297Y-172160167D01*
X43919904Y-172163891D01*
X43866213Y-172244244D01*
X43788909Y-172430872D01*
X43788907Y-172430880D01*
X43749500Y-172628992D01*
X43749500Y-172831007D01*
X43788907Y-173029119D01*
X43788910Y-173029131D01*
X43822547Y-173110338D01*
X43830016Y-173179807D01*
X43810405Y-173224864D01*
X43810895Y-173225132D01*
X43807910Y-173230596D01*
X43807260Y-173232092D01*
X43806646Y-173232911D01*
X43806645Y-173232913D01*
X43756403Y-173367620D01*
X43756401Y-173367627D01*
X43750000Y-173427155D01*
X43750000Y-173750000D01*
X44634134Y-173750000D01*
X44658326Y-173752383D01*
X44661123Y-173752939D01*
X44673995Y-173755499D01*
X44673996Y-173755500D01*
X44673997Y-173755500D01*
X44714170Y-173755500D01*
X44699925Y-173769745D01*
X44650556Y-173855255D01*
X44625000Y-173950630D01*
X44625000Y-174049370D01*
X44650556Y-174144745D01*
X44699925Y-174230255D01*
X44719670Y-174250000D01*
X43750000Y-174250000D01*
X43750000Y-174572844D01*
X43756401Y-174632372D01*
X43756403Y-174632379D01*
X43806645Y-174767086D01*
X43806649Y-174767093D01*
X43892809Y-174882187D01*
X43892812Y-174882190D01*
X44007906Y-174968350D01*
X44007913Y-174968354D01*
X44142620Y-175018596D01*
X44142627Y-175018598D01*
X44202155Y-175024999D01*
X44202172Y-175025000D01*
X44750000Y-175025000D01*
X44750000Y-174280330D01*
X44769745Y-174300075D01*
X44855255Y-174349444D01*
X44950630Y-174375000D01*
X45049370Y-174375000D01*
X45144745Y-174349444D01*
X45230255Y-174300075D01*
X45250000Y-174280330D01*
X45250000Y-175025000D01*
X45797828Y-175025000D01*
X45797844Y-175024999D01*
X45857372Y-175018598D01*
X45857379Y-175018596D01*
X45992086Y-174968354D01*
X45992093Y-174968350D01*
X46107187Y-174882190D01*
X46107190Y-174882187D01*
X46193350Y-174767093D01*
X46193354Y-174767086D01*
X46243596Y-174632379D01*
X46243598Y-174632372D01*
X46249999Y-174572844D01*
X46250000Y-174572827D01*
X46250000Y-174250000D01*
X45280330Y-174250000D01*
X45300075Y-174230255D01*
X45349444Y-174144745D01*
X45375000Y-174049370D01*
X45375000Y-173950630D01*
X45349444Y-173855255D01*
X45300075Y-173769745D01*
X45285830Y-173755500D01*
X45326004Y-173755500D01*
X45326004Y-173755499D01*
X45339473Y-173752820D01*
X45341674Y-173752383D01*
X45365866Y-173750000D01*
X46250000Y-173750000D01*
X46250000Y-173427172D01*
X46249999Y-173427155D01*
X46246826Y-173397648D01*
X48699500Y-173397648D01*
X48699500Y-173602351D01*
X48731522Y-173804534D01*
X48794781Y-173999223D01*
X48887715Y-174181613D01*
X49008028Y-174347213D01*
X49152786Y-174491971D01*
X49307749Y-174604556D01*
X49318390Y-174612287D01*
X49412077Y-174660023D01*
X49500776Y-174705218D01*
X49500778Y-174705218D01*
X49500781Y-174705220D01*
X49605137Y-174739127D01*
X49695465Y-174768477D01*
X49796557Y-174784488D01*
X49897648Y-174800500D01*
X49897649Y-174800500D01*
X50102351Y-174800500D01*
X50102352Y-174800500D01*
X50304534Y-174768477D01*
X50499219Y-174705220D01*
X50681610Y-174612287D01*
X50774590Y-174544732D01*
X50847213Y-174491971D01*
X50847215Y-174491968D01*
X50847219Y-174491966D01*
X50991966Y-174347219D01*
X50991968Y-174347215D01*
X50991971Y-174347213D01*
X51062599Y-174250000D01*
X51112287Y-174181610D01*
X51205220Y-173999219D01*
X51268477Y-173804534D01*
X51300500Y-173602352D01*
X51300500Y-173397648D01*
X51268477Y-173195466D01*
X51205220Y-173000781D01*
X51205218Y-173000778D01*
X51205218Y-173000776D01*
X51142124Y-172876949D01*
X51112287Y-172818390D01*
X51075185Y-172767323D01*
X50991971Y-172652786D01*
X50847213Y-172508028D01*
X50681613Y-172387715D01*
X50681612Y-172387714D01*
X50681610Y-172387713D01*
X50624653Y-172358691D01*
X50499223Y-172294781D01*
X50304534Y-172231522D01*
X50129995Y-172203878D01*
X50102352Y-172199500D01*
X49897648Y-172199500D01*
X49873329Y-172203351D01*
X49695465Y-172231522D01*
X49500776Y-172294781D01*
X49318386Y-172387715D01*
X49152786Y-172508028D01*
X49008028Y-172652786D01*
X48887715Y-172818386D01*
X48794781Y-173000776D01*
X48731522Y-173195465D01*
X48699500Y-173397648D01*
X46246826Y-173397648D01*
X46243598Y-173367627D01*
X46243596Y-173367620D01*
X46193354Y-173232913D01*
X46193353Y-173232911D01*
X46192745Y-173232099D01*
X46192390Y-173231148D01*
X46189103Y-173225128D01*
X46189968Y-173224655D01*
X46168329Y-173166634D01*
X46177452Y-173110338D01*
X46211091Y-173029127D01*
X46250500Y-172831003D01*
X46250500Y-172628997D01*
X46211091Y-172430873D01*
X46133786Y-172244244D01*
X46080094Y-172163889D01*
X46059217Y-172097214D01*
X46077701Y-172029834D01*
X46080078Y-172026134D01*
X46133786Y-171945756D01*
X46211091Y-171759127D01*
X46250500Y-171561003D01*
X46250500Y-171358997D01*
X46211091Y-171160873D01*
X46133786Y-170974244D01*
X46133784Y-170974241D01*
X46133782Y-170974237D01*
X46021558Y-170806281D01*
X45878718Y-170663441D01*
X45710762Y-170551217D01*
X45710752Y-170551212D01*
X45524127Y-170473909D01*
X45524119Y-170473907D01*
X45326007Y-170434500D01*
X45326003Y-170434500D01*
X44673997Y-170434500D01*
X44673992Y-170434500D01*
X44475880Y-170473907D01*
X44475872Y-170473909D01*
X44289247Y-170551212D01*
X44289237Y-170551217D01*
X44121281Y-170663441D01*
X43978441Y-170806281D01*
X43866217Y-170974237D01*
X43866212Y-170974247D01*
X43788909Y-171160872D01*
X43788907Y-171160880D01*
X43749500Y-171358992D01*
X38250612Y-171358992D01*
X38248070Y-171329932D01*
X38190894Y-171116550D01*
X38097534Y-170916339D01*
X37970826Y-170735380D01*
X37814620Y-170579174D01*
X37814616Y-170579171D01*
X37814615Y-170579170D01*
X37633666Y-170452468D01*
X37633662Y-170452466D01*
X37633660Y-170452465D01*
X37433450Y-170359106D01*
X37433447Y-170359105D01*
X37433445Y-170359104D01*
X37220070Y-170301930D01*
X37220062Y-170301929D01*
X37000002Y-170282677D01*
X36999998Y-170282677D01*
X36779937Y-170301929D01*
X36779929Y-170301930D01*
X36566554Y-170359104D01*
X36566548Y-170359107D01*
X36366340Y-170452465D01*
X36366338Y-170452466D01*
X36185377Y-170579175D01*
X36029175Y-170735377D01*
X35902466Y-170916338D01*
X35902462Y-170916345D01*
X35874038Y-170977300D01*
X35827865Y-171029739D01*
X35760671Y-171048890D01*
X35693791Y-171028673D01*
X35649276Y-170977300D01*
X35597534Y-170866339D01*
X35470826Y-170685380D01*
X35314620Y-170529174D01*
X35314616Y-170529171D01*
X35314615Y-170529170D01*
X35133666Y-170402468D01*
X35133662Y-170402466D01*
X35133660Y-170402465D01*
X34933450Y-170309106D01*
X34933447Y-170309105D01*
X34933445Y-170309104D01*
X34720070Y-170251930D01*
X34720062Y-170251929D01*
X34500002Y-170232677D01*
X34499998Y-170232677D01*
X34279937Y-170251929D01*
X34279929Y-170251930D01*
X34066554Y-170309104D01*
X34066548Y-170309107D01*
X33866340Y-170402465D01*
X33866338Y-170402466D01*
X33685377Y-170529175D01*
X33529175Y-170685377D01*
X33402466Y-170866338D01*
X33402465Y-170866340D01*
X33309107Y-171066548D01*
X33309104Y-171066554D01*
X33251930Y-171279929D01*
X33251929Y-171279937D01*
X33232677Y-171499997D01*
X33232677Y-171500002D01*
X33251929Y-171720062D01*
X33251930Y-171720070D01*
X33309104Y-171933445D01*
X33309105Y-171933447D01*
X33309106Y-171933450D01*
X33374039Y-172072700D01*
X33402466Y-172133662D01*
X33402468Y-172133666D01*
X33529170Y-172314615D01*
X33529175Y-172314621D01*
X33683635Y-172469081D01*
X33717120Y-172530404D01*
X33712136Y-172600096D01*
X33670264Y-172656029D01*
X33604800Y-172680446D01*
X33585146Y-172680290D01*
X33460001Y-172669341D01*
X33459999Y-172669341D01*
X33224596Y-172689936D01*
X33224586Y-172689938D01*
X32996344Y-172751094D01*
X32996335Y-172751098D01*
X32782171Y-172850964D01*
X32782169Y-172850965D01*
X32588597Y-172986505D01*
X32421505Y-173153597D01*
X32291575Y-173339158D01*
X32236998Y-173382783D01*
X32167500Y-173389977D01*
X32105145Y-173358454D01*
X32088425Y-173339158D01*
X31958494Y-173153597D01*
X31791401Y-172986505D01*
X31712884Y-172931526D01*
X31669259Y-172876949D01*
X31662067Y-172807450D01*
X31666963Y-172789007D01*
X31701295Y-172690895D01*
X31705367Y-172679259D01*
X31705369Y-172679249D01*
X31725565Y-172500003D01*
X31725565Y-172499996D01*
X31705369Y-172320750D01*
X31705368Y-172320745D01*
X31674148Y-172231523D01*
X31645789Y-172150478D01*
X31549816Y-171997738D01*
X31422262Y-171870184D01*
X31269523Y-171774211D01*
X31099254Y-171714631D01*
X31099249Y-171714630D01*
X30920004Y-171694435D01*
X30919996Y-171694435D01*
X30740750Y-171714630D01*
X30740745Y-171714631D01*
X30570476Y-171774211D01*
X30417737Y-171870184D01*
X30290184Y-171997737D01*
X30194211Y-172150476D01*
X30134631Y-172320745D01*
X30134630Y-172320750D01*
X30114435Y-172499996D01*
X30114435Y-172500003D01*
X30134630Y-172679249D01*
X30134632Y-172679257D01*
X30173032Y-172788998D01*
X30176593Y-172858777D01*
X30141864Y-172919404D01*
X30127115Y-172931526D01*
X30048602Y-172986502D01*
X29926284Y-173108819D01*
X29864960Y-173142303D01*
X29795269Y-173137318D01*
X29739335Y-173095447D01*
X29722421Y-173064470D01*
X29673354Y-172932913D01*
X29673350Y-172932906D01*
X29587190Y-172817812D01*
X29587187Y-172817809D01*
X29472093Y-172731649D01*
X29472086Y-172731645D01*
X29337379Y-172681403D01*
X29337372Y-172681401D01*
X29277844Y-172675000D01*
X28630000Y-172675000D01*
X28630000Y-173591988D01*
X28572993Y-173559075D01*
X28445826Y-173525000D01*
X28314174Y-173525000D01*
X28187007Y-173559075D01*
X28130000Y-173591988D01*
X28130000Y-172675000D01*
X27482155Y-172675000D01*
X27422627Y-172681401D01*
X27422620Y-172681403D01*
X27287913Y-172731645D01*
X27287906Y-172731649D01*
X27172812Y-172817809D01*
X27172809Y-172817812D01*
X27086649Y-172932906D01*
X27086645Y-172932913D01*
X27036403Y-173067620D01*
X27036401Y-173067627D01*
X27030000Y-173127155D01*
X26246281Y-173127155D01*
X26205220Y-173000781D01*
X26205218Y-173000778D01*
X26205218Y-173000776D01*
X26142124Y-172876949D01*
X26112287Y-172818390D01*
X26075185Y-172767323D01*
X25991971Y-172652786D01*
X25847213Y-172508028D01*
X25681613Y-172387715D01*
X25681612Y-172387714D01*
X25681610Y-172387713D01*
X25624653Y-172358691D01*
X25499223Y-172294781D01*
X25304534Y-172231522D01*
X25129995Y-172203878D01*
X25102352Y-172199500D01*
X24897648Y-172199500D01*
X24873329Y-172203351D01*
X24695465Y-172231522D01*
X24500776Y-172294781D01*
X24318386Y-172387715D01*
X24152786Y-172508028D01*
X24008028Y-172652786D01*
X23887715Y-172818386D01*
X23794781Y-173000776D01*
X23731522Y-173195465D01*
X23699500Y-173397648D01*
X23000500Y-173397648D01*
X23000500Y-167979996D01*
X47694435Y-167979996D01*
X47694435Y-167980003D01*
X47714630Y-168159249D01*
X47714631Y-168159254D01*
X47774211Y-168329523D01*
X47870184Y-168482262D01*
X47997738Y-168609816D01*
X48150478Y-168705789D01*
X48320745Y-168765368D01*
X48320750Y-168765369D01*
X48499996Y-168785565D01*
X48500000Y-168785565D01*
X48500004Y-168785565D01*
X48679249Y-168765369D01*
X48679252Y-168765368D01*
X48679255Y-168765368D01*
X48849522Y-168705789D01*
X49002262Y-168609816D01*
X49129816Y-168482262D01*
X49225789Y-168329522D01*
X49285368Y-168159255D01*
X49305565Y-167980000D01*
X49285368Y-167800745D01*
X49225789Y-167630478D01*
X49129816Y-167477738D01*
X49002262Y-167350184D01*
X48849523Y-167254211D01*
X48679254Y-167194631D01*
X48679249Y-167194630D01*
X48500004Y-167174435D01*
X48499996Y-167174435D01*
X48320750Y-167194630D01*
X48320745Y-167194631D01*
X48150476Y-167254211D01*
X47997737Y-167350184D01*
X47870184Y-167477737D01*
X47774211Y-167630476D01*
X47714631Y-167800745D01*
X47714630Y-167800750D01*
X47694435Y-167979996D01*
X23000500Y-167979996D01*
X23000500Y-139999999D01*
X33104341Y-139999999D01*
X33104341Y-140000000D01*
X33124936Y-140235403D01*
X33124938Y-140235413D01*
X33186094Y-140463655D01*
X33186096Y-140463659D01*
X33186097Y-140463663D01*
X33259346Y-140620745D01*
X33285965Y-140677830D01*
X33285967Y-140677834D01*
X33394281Y-140832521D01*
X33421505Y-140871401D01*
X33588599Y-141038495D01*
X33665135Y-141092086D01*
X33782165Y-141174032D01*
X33782167Y-141174033D01*
X33782170Y-141174035D01*
X33996337Y-141273903D01*
X34224592Y-141335063D01*
X34395319Y-141350000D01*
X34459999Y-141355659D01*
X34460000Y-141355659D01*
X34460001Y-141355659D01*
X34524681Y-141350000D01*
X34695408Y-141335063D01*
X34923663Y-141273903D01*
X35137830Y-141174035D01*
X35331401Y-141038495D01*
X35453717Y-140916178D01*
X35515036Y-140882696D01*
X35584728Y-140887680D01*
X35640662Y-140929551D01*
X35657577Y-140960528D01*
X35706646Y-141092088D01*
X35706649Y-141092093D01*
X35792809Y-141207187D01*
X35792812Y-141207190D01*
X35907906Y-141293350D01*
X35907913Y-141293354D01*
X36042620Y-141343596D01*
X36042627Y-141343598D01*
X36102155Y-141349999D01*
X36102172Y-141350000D01*
X36750000Y-141350000D01*
X36750000Y-140433012D01*
X36807007Y-140465925D01*
X36934174Y-140500000D01*
X37065826Y-140500000D01*
X37192993Y-140465925D01*
X37250000Y-140433012D01*
X37250000Y-141350000D01*
X37897828Y-141350000D01*
X37897844Y-141349999D01*
X37957372Y-141343598D01*
X37957379Y-141343596D01*
X38092086Y-141293354D01*
X38092093Y-141293350D01*
X38207187Y-141207190D01*
X38207190Y-141207187D01*
X38293350Y-141092093D01*
X38293354Y-141092086D01*
X38343596Y-140957379D01*
X38343598Y-140957372D01*
X38349999Y-140897844D01*
X38350000Y-140897827D01*
X38350000Y-140799996D01*
X38694435Y-140799996D01*
X38694435Y-140800003D01*
X38714630Y-140979249D01*
X38714631Y-140979254D01*
X38774211Y-141149523D01*
X38852365Y-141273903D01*
X38870184Y-141302262D01*
X38997738Y-141429816D01*
X39150478Y-141525789D01*
X39320745Y-141585368D01*
X39320750Y-141585369D01*
X39499996Y-141605565D01*
X39500000Y-141605565D01*
X39500004Y-141605565D01*
X39679249Y-141585369D01*
X39679252Y-141585368D01*
X39679255Y-141585368D01*
X39849522Y-141525789D01*
X40002262Y-141429816D01*
X40129816Y-141302262D01*
X40225789Y-141149522D01*
X40285368Y-140979255D01*
X40287834Y-140957372D01*
X40305565Y-140800003D01*
X40305565Y-140799996D01*
X40285369Y-140620750D01*
X40285368Y-140620745D01*
X40230403Y-140463664D01*
X40225789Y-140450478D01*
X40129816Y-140297738D01*
X40002262Y-140170184D01*
X39849523Y-140074211D01*
X39679254Y-140014631D01*
X39679249Y-140014630D01*
X39500004Y-139994435D01*
X39499996Y-139994435D01*
X39320750Y-140014630D01*
X39320745Y-140014631D01*
X39150476Y-140074211D01*
X38997737Y-140170184D01*
X38870184Y-140297737D01*
X38774211Y-140450476D01*
X38714631Y-140620745D01*
X38714630Y-140620750D01*
X38694435Y-140799996D01*
X38350000Y-140799996D01*
X38350000Y-140250000D01*
X37433012Y-140250000D01*
X37465925Y-140192993D01*
X37500000Y-140065826D01*
X37500000Y-139934174D01*
X37465925Y-139807007D01*
X37433012Y-139750000D01*
X38350000Y-139750000D01*
X38350000Y-139102172D01*
X38349999Y-139102155D01*
X38343598Y-139042627D01*
X38343596Y-139042620D01*
X38293354Y-138907913D01*
X38293350Y-138907906D01*
X38207190Y-138792812D01*
X38207187Y-138792809D01*
X38092093Y-138706649D01*
X38092086Y-138706645D01*
X37957379Y-138656403D01*
X37957372Y-138656401D01*
X37897844Y-138650000D01*
X37250000Y-138650000D01*
X37250000Y-139566988D01*
X37192993Y-139534075D01*
X37065826Y-139500000D01*
X36934174Y-139500000D01*
X36807007Y-139534075D01*
X36750000Y-139566988D01*
X36750000Y-138650000D01*
X36102155Y-138650000D01*
X36042627Y-138656401D01*
X36042620Y-138656403D01*
X35907913Y-138706645D01*
X35907906Y-138706649D01*
X35792812Y-138792809D01*
X35792809Y-138792812D01*
X35706649Y-138907906D01*
X35706645Y-138907913D01*
X35657578Y-139039470D01*
X35615707Y-139095404D01*
X35550242Y-139119821D01*
X35481969Y-139104969D01*
X35453715Y-139083819D01*
X35409366Y-139039470D01*
X35331401Y-138961505D01*
X35331397Y-138961502D01*
X35331396Y-138961501D01*
X35137834Y-138825967D01*
X35137830Y-138825965D01*
X35017266Y-138769745D01*
X34923663Y-138726097D01*
X34923659Y-138726096D01*
X34923655Y-138726094D01*
X34695413Y-138664938D01*
X34695403Y-138664936D01*
X34460001Y-138644341D01*
X34459999Y-138644341D01*
X34224596Y-138664936D01*
X34224586Y-138664938D01*
X33996344Y-138726094D01*
X33996335Y-138726098D01*
X33782171Y-138825964D01*
X33782169Y-138825965D01*
X33588597Y-138961505D01*
X33421505Y-139128597D01*
X33285965Y-139322169D01*
X33285964Y-139322171D01*
X33186098Y-139536335D01*
X33186094Y-139536344D01*
X33124938Y-139764586D01*
X33124936Y-139764596D01*
X33104341Y-139999999D01*
X23000500Y-139999999D01*
X23000500Y-136499996D01*
X32194435Y-136499996D01*
X32194435Y-136500003D01*
X32214630Y-136679249D01*
X32214631Y-136679254D01*
X32274211Y-136849523D01*
X32326947Y-136933451D01*
X32370184Y-137002262D01*
X32497738Y-137129816D01*
X32551968Y-137163891D01*
X32644487Y-137222025D01*
X32650478Y-137225789D01*
X32820739Y-137285366D01*
X32820745Y-137285368D01*
X32820750Y-137285369D01*
X32999996Y-137305565D01*
X33000000Y-137305565D01*
X33000004Y-137305565D01*
X33179249Y-137285369D01*
X33179251Y-137285368D01*
X33179255Y-137285368D01*
X33179258Y-137285366D01*
X33179262Y-137285366D01*
X33296775Y-137244246D01*
X33349522Y-137225789D01*
X33355514Y-137222023D01*
X33422745Y-137203021D01*
X33489582Y-137223385D01*
X33523062Y-137255891D01*
X33529174Y-137264620D01*
X33685378Y-137420824D01*
X33685384Y-137420829D01*
X33866333Y-137547531D01*
X33866335Y-137547532D01*
X33866338Y-137547534D01*
X34066550Y-137640894D01*
X34279932Y-137698070D01*
X34437123Y-137711822D01*
X34499998Y-137717323D01*
X34500000Y-137717323D01*
X34500002Y-137717323D01*
X34555017Y-137712509D01*
X34720068Y-137698070D01*
X34933450Y-137640894D01*
X35133662Y-137547534D01*
X35314620Y-137420826D01*
X35470826Y-137264620D01*
X35597534Y-137083662D01*
X35625962Y-137022697D01*
X35672131Y-136970262D01*
X35739325Y-136951109D01*
X35806206Y-136971324D01*
X35850723Y-137022699D01*
X35879151Y-137083662D01*
X35902466Y-137133662D01*
X35902468Y-137133666D01*
X36029170Y-137314615D01*
X36029175Y-137314621D01*
X36185378Y-137470824D01*
X36185384Y-137470829D01*
X36366333Y-137597531D01*
X36366335Y-137597532D01*
X36366338Y-137597534D01*
X36566550Y-137690894D01*
X36779932Y-137748070D01*
X36937123Y-137761822D01*
X36999998Y-137767323D01*
X37000000Y-137767323D01*
X37000002Y-137767323D01*
X37055017Y-137762509D01*
X37220068Y-137748070D01*
X37433450Y-137690894D01*
X37633662Y-137597534D01*
X37814620Y-137470826D01*
X37970826Y-137314620D01*
X38097534Y-137133662D01*
X38190894Y-136933450D01*
X38248070Y-136720068D01*
X38267323Y-136500000D01*
X38265375Y-136477738D01*
X38254987Y-136358992D01*
X42609500Y-136358992D01*
X42609500Y-136561007D01*
X42648907Y-136759119D01*
X42648909Y-136759127D01*
X42726213Y-136945755D01*
X42779904Y-137026109D01*
X42800782Y-137092787D01*
X42782297Y-137160167D01*
X42779904Y-137163891D01*
X42726213Y-137244244D01*
X42648909Y-137430872D01*
X42648907Y-137430880D01*
X42609500Y-137628992D01*
X42609500Y-137831007D01*
X42648907Y-138029119D01*
X42648910Y-138029131D01*
X42682547Y-138110338D01*
X42690016Y-138179807D01*
X42670405Y-138224864D01*
X42670895Y-138225132D01*
X42667910Y-138230596D01*
X42667260Y-138232092D01*
X42666646Y-138232911D01*
X42666645Y-138232913D01*
X42616403Y-138367620D01*
X42616401Y-138367627D01*
X42610000Y-138427155D01*
X42610000Y-138750000D01*
X43494134Y-138750000D01*
X43518326Y-138752383D01*
X43521123Y-138752939D01*
X43533995Y-138755499D01*
X43533996Y-138755500D01*
X43533997Y-138755500D01*
X43574170Y-138755500D01*
X43559925Y-138769745D01*
X43510556Y-138855255D01*
X43485000Y-138950630D01*
X43485000Y-139049370D01*
X43510556Y-139144745D01*
X43559925Y-139230255D01*
X43579670Y-139250000D01*
X42610000Y-139250000D01*
X42610000Y-139572844D01*
X42616401Y-139632372D01*
X42616403Y-139632379D01*
X42666645Y-139767086D01*
X42666649Y-139767093D01*
X42752809Y-139882187D01*
X42752812Y-139882190D01*
X42867906Y-139968350D01*
X42867913Y-139968354D01*
X43002620Y-140018596D01*
X43002627Y-140018598D01*
X43062155Y-140024999D01*
X43062172Y-140025000D01*
X43610000Y-140025000D01*
X43610000Y-139280330D01*
X43629745Y-139300075D01*
X43715255Y-139349444D01*
X43810630Y-139375000D01*
X43909370Y-139375000D01*
X44004745Y-139349444D01*
X44090255Y-139300075D01*
X44110000Y-139280330D01*
X44110000Y-140025000D01*
X44657828Y-140025000D01*
X44657844Y-140024999D01*
X44717372Y-140018598D01*
X44717379Y-140018596D01*
X44852086Y-139968354D01*
X44852093Y-139968350D01*
X44967187Y-139882190D01*
X44967190Y-139882187D01*
X45053350Y-139767093D01*
X45053354Y-139767086D01*
X45103596Y-139632379D01*
X45103598Y-139632372D01*
X45109999Y-139572844D01*
X45110000Y-139572827D01*
X45110000Y-139250000D01*
X44140330Y-139250000D01*
X44160075Y-139230255D01*
X44209444Y-139144745D01*
X44235000Y-139049370D01*
X44235000Y-138950630D01*
X44209444Y-138855255D01*
X44160075Y-138769745D01*
X44145830Y-138755500D01*
X44186004Y-138755500D01*
X44186004Y-138755499D01*
X44199473Y-138752820D01*
X44201674Y-138752383D01*
X44225866Y-138750000D01*
X45110000Y-138750000D01*
X45110000Y-138427172D01*
X45109999Y-138427155D01*
X45103598Y-138367627D01*
X45103596Y-138367620D01*
X45053354Y-138232913D01*
X45053353Y-138232911D01*
X45052745Y-138232099D01*
X45052390Y-138231148D01*
X45049103Y-138225128D01*
X45049968Y-138224655D01*
X45028329Y-138166634D01*
X45037452Y-138110338D01*
X45071091Y-138029127D01*
X45110500Y-137831003D01*
X45110500Y-137628997D01*
X45071091Y-137430873D01*
X45002224Y-137264615D01*
X44993787Y-137244246D01*
X44981455Y-137225790D01*
X44940094Y-137163889D01*
X44919217Y-137097214D01*
X44937701Y-137029834D01*
X44940078Y-137026134D01*
X44970907Y-136979996D01*
X47554435Y-136979996D01*
X47554435Y-136980003D01*
X47574630Y-137159249D01*
X47574631Y-137159254D01*
X47634211Y-137329523D01*
X47722997Y-137470824D01*
X47730184Y-137482262D01*
X47857738Y-137609816D01*
X47907200Y-137640895D01*
X47998191Y-137698069D01*
X48010478Y-137705789D01*
X48131310Y-137748070D01*
X48180745Y-137765368D01*
X48180750Y-137765369D01*
X48359996Y-137785565D01*
X48360000Y-137785565D01*
X48360004Y-137785565D01*
X48539249Y-137765369D01*
X48539252Y-137765368D01*
X48539255Y-137765368D01*
X48709522Y-137705789D01*
X48862262Y-137609816D01*
X48989816Y-137482262D01*
X49085789Y-137329522D01*
X49145368Y-137159255D01*
X49148685Y-137129815D01*
X49165565Y-136980003D01*
X49165565Y-136979996D01*
X49145369Y-136800750D01*
X49145368Y-136800745D01*
X49130802Y-136759119D01*
X49085789Y-136630478D01*
X48989816Y-136477738D01*
X48862262Y-136350184D01*
X48750457Y-136279932D01*
X48709523Y-136254211D01*
X48539254Y-136194631D01*
X48539249Y-136194630D01*
X48360004Y-136174435D01*
X48359996Y-136174435D01*
X48180750Y-136194630D01*
X48180745Y-136194631D01*
X48010476Y-136254211D01*
X47857737Y-136350184D01*
X47730184Y-136477737D01*
X47634211Y-136630476D01*
X47574631Y-136800745D01*
X47574630Y-136800750D01*
X47554435Y-136979996D01*
X44970907Y-136979996D01*
X44993786Y-136945756D01*
X45071091Y-136759127D01*
X45110500Y-136561003D01*
X45110500Y-136358997D01*
X45071091Y-136160873D01*
X44993786Y-135974244D01*
X44993784Y-135974241D01*
X44993782Y-135974237D01*
X44881558Y-135806281D01*
X44738718Y-135663441D01*
X44570762Y-135551217D01*
X44570752Y-135551212D01*
X44384127Y-135473909D01*
X44384119Y-135473907D01*
X44186007Y-135434500D01*
X44186003Y-135434500D01*
X43533997Y-135434500D01*
X43533992Y-135434500D01*
X43335880Y-135473907D01*
X43335872Y-135473909D01*
X43149247Y-135551212D01*
X43149237Y-135551217D01*
X42981281Y-135663441D01*
X42838441Y-135806281D01*
X42726217Y-135974237D01*
X42726212Y-135974247D01*
X42648909Y-136160872D01*
X42648907Y-136160880D01*
X42609500Y-136358992D01*
X38254987Y-136358992D01*
X38251641Y-136320750D01*
X38248070Y-136279932D01*
X38190894Y-136066550D01*
X38097534Y-135866339D01*
X37995377Y-135720442D01*
X37970827Y-135685381D01*
X37920826Y-135635380D01*
X37814620Y-135529174D01*
X37814616Y-135529171D01*
X37814615Y-135529170D01*
X37633666Y-135402468D01*
X37633662Y-135402466D01*
X37526436Y-135352466D01*
X37433450Y-135309106D01*
X37433447Y-135309105D01*
X37433445Y-135309104D01*
X37220070Y-135251930D01*
X37220062Y-135251929D01*
X37000002Y-135232677D01*
X36999998Y-135232677D01*
X36779937Y-135251929D01*
X36779929Y-135251930D01*
X36566554Y-135309104D01*
X36566548Y-135309107D01*
X36366340Y-135402465D01*
X36366338Y-135402466D01*
X36185377Y-135529175D01*
X36029175Y-135685377D01*
X35902466Y-135866338D01*
X35902462Y-135866345D01*
X35874038Y-135927300D01*
X35827865Y-135979739D01*
X35760671Y-135998890D01*
X35693791Y-135978673D01*
X35649276Y-135927300D01*
X35597534Y-135816339D01*
X35530387Y-135720442D01*
X35470827Y-135635381D01*
X35470826Y-135635380D01*
X35314620Y-135479174D01*
X35314616Y-135479171D01*
X35314615Y-135479170D01*
X35133666Y-135352468D01*
X35133662Y-135352466D01*
X35133660Y-135352465D01*
X34933450Y-135259106D01*
X34933447Y-135259105D01*
X34933445Y-135259104D01*
X34720070Y-135201930D01*
X34720062Y-135201929D01*
X34500002Y-135182677D01*
X34499998Y-135182677D01*
X34279937Y-135201929D01*
X34279929Y-135201930D01*
X34066554Y-135259104D01*
X34066548Y-135259107D01*
X33866340Y-135352465D01*
X33866338Y-135352466D01*
X33685381Y-135479172D01*
X33529174Y-135635380D01*
X33469612Y-135720442D01*
X33415034Y-135764066D01*
X33345536Y-135771258D01*
X33327084Y-135766359D01*
X33179257Y-135714632D01*
X33179249Y-135714630D01*
X33000004Y-135694435D01*
X32999996Y-135694435D01*
X32820750Y-135714630D01*
X32820745Y-135714631D01*
X32650476Y-135774211D01*
X32497737Y-135870184D01*
X32370184Y-135997737D01*
X32274211Y-136150476D01*
X32214631Y-136320745D01*
X32214630Y-136320750D01*
X32194435Y-136499996D01*
X23000500Y-136499996D01*
X23000500Y-104999999D01*
X33104341Y-104999999D01*
X33104341Y-105000000D01*
X33124936Y-105235403D01*
X33124938Y-105235413D01*
X33186094Y-105463655D01*
X33186096Y-105463659D01*
X33186097Y-105463663D01*
X33273210Y-105650476D01*
X33285965Y-105677830D01*
X33285967Y-105677834D01*
X33386035Y-105820745D01*
X33421505Y-105871401D01*
X33588599Y-106038495D01*
X33665135Y-106092086D01*
X33782165Y-106174032D01*
X33782167Y-106174033D01*
X33782170Y-106174035D01*
X33996337Y-106273903D01*
X34224592Y-106335063D01*
X34395319Y-106350000D01*
X34459999Y-106355659D01*
X34460000Y-106355659D01*
X34460001Y-106355659D01*
X34524681Y-106350000D01*
X34695408Y-106335063D01*
X34923663Y-106273903D01*
X35137830Y-106174035D01*
X35331401Y-106038495D01*
X35453717Y-105916178D01*
X35515036Y-105882696D01*
X35584728Y-105887680D01*
X35640662Y-105929551D01*
X35657577Y-105960528D01*
X35706646Y-106092088D01*
X35706649Y-106092093D01*
X35792809Y-106207187D01*
X35792812Y-106207190D01*
X35907906Y-106293350D01*
X35907913Y-106293354D01*
X36042620Y-106343596D01*
X36042627Y-106343598D01*
X36102155Y-106349999D01*
X36102172Y-106350000D01*
X36750000Y-106350000D01*
X36750000Y-105433012D01*
X36807007Y-105465925D01*
X36934174Y-105500000D01*
X37065826Y-105500000D01*
X37192993Y-105465925D01*
X37250000Y-105433012D01*
X37250000Y-106350000D01*
X37897828Y-106350000D01*
X37897844Y-106349999D01*
X37957372Y-106343598D01*
X37957379Y-106343596D01*
X38092086Y-106293354D01*
X38092093Y-106293350D01*
X38207187Y-106207190D01*
X38207190Y-106207187D01*
X38293350Y-106092093D01*
X38293354Y-106092086D01*
X38343596Y-105957379D01*
X38343598Y-105957372D01*
X38349999Y-105897844D01*
X38350000Y-105897827D01*
X38350000Y-105250000D01*
X37433012Y-105250000D01*
X37465925Y-105192993D01*
X37500000Y-105065826D01*
X37500000Y-104934174D01*
X37465925Y-104807007D01*
X37433012Y-104750000D01*
X38350000Y-104750000D01*
X38350000Y-104102172D01*
X38349999Y-104102155D01*
X38343598Y-104042627D01*
X38343596Y-104042620D01*
X38293354Y-103907913D01*
X38293350Y-103907906D01*
X38207190Y-103792812D01*
X38207187Y-103792809D01*
X38092093Y-103706649D01*
X38092086Y-103706645D01*
X37957379Y-103656403D01*
X37957372Y-103656401D01*
X37897844Y-103650000D01*
X37250000Y-103650000D01*
X37250000Y-104566988D01*
X37192993Y-104534075D01*
X37065826Y-104500000D01*
X36934174Y-104500000D01*
X36807007Y-104534075D01*
X36750000Y-104566988D01*
X36750000Y-103650000D01*
X36102155Y-103650000D01*
X36042627Y-103656401D01*
X36042620Y-103656403D01*
X35907913Y-103706645D01*
X35907906Y-103706649D01*
X35792812Y-103792809D01*
X35792809Y-103792812D01*
X35706649Y-103907906D01*
X35706645Y-103907913D01*
X35657578Y-104039470D01*
X35615707Y-104095404D01*
X35550242Y-104119821D01*
X35481969Y-104104969D01*
X35453715Y-104083819D01*
X35409366Y-104039470D01*
X35331401Y-103961505D01*
X35331397Y-103961502D01*
X35331396Y-103961501D01*
X35137834Y-103825967D01*
X35137830Y-103825965D01*
X35017266Y-103769745D01*
X34923663Y-103726097D01*
X34923659Y-103726096D01*
X34923655Y-103726094D01*
X34695413Y-103664938D01*
X34695403Y-103664936D01*
X34460001Y-103644341D01*
X34459999Y-103644341D01*
X34224596Y-103664936D01*
X34224586Y-103664938D01*
X33996344Y-103726094D01*
X33996335Y-103726098D01*
X33782171Y-103825964D01*
X33782169Y-103825965D01*
X33588597Y-103961505D01*
X33421505Y-104128597D01*
X33285965Y-104322169D01*
X33285964Y-104322171D01*
X33186098Y-104536335D01*
X33186094Y-104536344D01*
X33124938Y-104764586D01*
X33124936Y-104764596D01*
X33104341Y-104999999D01*
X23000500Y-104999999D01*
X23000500Y-101499996D01*
X32194435Y-101499996D01*
X32194435Y-101500003D01*
X32214630Y-101679249D01*
X32214631Y-101679254D01*
X32274211Y-101849523D01*
X32326947Y-101933451D01*
X32370184Y-102002262D01*
X32497738Y-102129816D01*
X32551968Y-102163891D01*
X32644487Y-102222025D01*
X32650478Y-102225789D01*
X32763591Y-102265369D01*
X32820745Y-102285368D01*
X32820750Y-102285369D01*
X32999996Y-102305565D01*
X33000000Y-102305565D01*
X33000004Y-102305565D01*
X33179249Y-102285369D01*
X33179251Y-102285368D01*
X33179255Y-102285368D01*
X33179258Y-102285366D01*
X33179262Y-102285366D01*
X33296775Y-102244246D01*
X33349522Y-102225789D01*
X33355514Y-102222023D01*
X33422745Y-102203021D01*
X33489582Y-102223385D01*
X33523062Y-102255891D01*
X33529174Y-102264620D01*
X33685378Y-102420824D01*
X33685384Y-102420829D01*
X33866333Y-102547531D01*
X33866335Y-102547532D01*
X33866338Y-102547534D01*
X34066550Y-102640894D01*
X34279932Y-102698070D01*
X34437123Y-102711822D01*
X34499998Y-102717323D01*
X34500000Y-102717323D01*
X34500002Y-102717323D01*
X34555017Y-102712509D01*
X34720068Y-102698070D01*
X34933450Y-102640894D01*
X35133662Y-102547534D01*
X35314620Y-102420826D01*
X35470826Y-102264620D01*
X35597534Y-102083662D01*
X35625962Y-102022697D01*
X35672131Y-101970262D01*
X35739325Y-101951109D01*
X35806206Y-101971324D01*
X35850723Y-102022699D01*
X35900672Y-102129815D01*
X35902466Y-102133662D01*
X35902468Y-102133666D01*
X36029170Y-102314615D01*
X36029175Y-102314621D01*
X36185378Y-102470824D01*
X36185384Y-102470829D01*
X36366333Y-102597531D01*
X36366335Y-102597532D01*
X36366338Y-102597534D01*
X36566550Y-102690894D01*
X36779932Y-102748070D01*
X36937123Y-102761822D01*
X36999998Y-102767323D01*
X37000000Y-102767323D01*
X37000002Y-102767323D01*
X37055017Y-102762509D01*
X37220068Y-102748070D01*
X37433450Y-102690894D01*
X37633662Y-102597534D01*
X37814620Y-102470826D01*
X37970826Y-102314620D01*
X38097534Y-102133662D01*
X38190894Y-101933450D01*
X38248070Y-101720068D01*
X38267323Y-101500000D01*
X38254987Y-101358992D01*
X44249500Y-101358992D01*
X44249500Y-101561007D01*
X44288907Y-101759119D01*
X44288909Y-101759127D01*
X44366213Y-101945755D01*
X44419904Y-102026109D01*
X44440782Y-102092787D01*
X44422297Y-102160167D01*
X44419904Y-102163891D01*
X44366213Y-102244244D01*
X44288909Y-102430872D01*
X44288907Y-102430880D01*
X44249500Y-102628992D01*
X44249500Y-102831007D01*
X44288907Y-103029119D01*
X44288910Y-103029131D01*
X44322547Y-103110338D01*
X44330016Y-103179807D01*
X44310405Y-103224864D01*
X44310895Y-103225132D01*
X44307910Y-103230596D01*
X44307260Y-103232092D01*
X44306646Y-103232911D01*
X44306645Y-103232913D01*
X44256403Y-103367620D01*
X44256401Y-103367627D01*
X44250000Y-103427155D01*
X44250000Y-103750000D01*
X45134134Y-103750000D01*
X45158326Y-103752383D01*
X45161123Y-103752939D01*
X45173995Y-103755499D01*
X45173996Y-103755500D01*
X45173997Y-103755500D01*
X45214170Y-103755500D01*
X45199925Y-103769745D01*
X45150556Y-103855255D01*
X45125000Y-103950630D01*
X45125000Y-104049370D01*
X45150556Y-104144745D01*
X45199925Y-104230255D01*
X45219670Y-104250000D01*
X44250000Y-104250000D01*
X44250000Y-104572844D01*
X44256401Y-104632372D01*
X44256403Y-104632379D01*
X44306645Y-104767086D01*
X44306649Y-104767093D01*
X44392809Y-104882187D01*
X44392812Y-104882190D01*
X44507906Y-104968350D01*
X44507913Y-104968354D01*
X44642620Y-105018596D01*
X44642627Y-105018598D01*
X44702155Y-105024999D01*
X44702172Y-105025000D01*
X45250000Y-105025000D01*
X45250000Y-104280330D01*
X45269745Y-104300075D01*
X45355255Y-104349444D01*
X45450630Y-104375000D01*
X45549370Y-104375000D01*
X45644745Y-104349444D01*
X45730255Y-104300075D01*
X45750000Y-104280330D01*
X45750000Y-105025000D01*
X45769270Y-105044270D01*
X45802755Y-105105593D01*
X45797771Y-105175285D01*
X45755899Y-105231218D01*
X45722545Y-105248992D01*
X45650479Y-105274209D01*
X45497737Y-105370184D01*
X45370184Y-105497737D01*
X45274211Y-105650476D01*
X45214631Y-105820745D01*
X45214630Y-105820750D01*
X45194435Y-105999996D01*
X45194435Y-106000003D01*
X45214630Y-106179249D01*
X45214631Y-106179254D01*
X45274211Y-106349523D01*
X45274511Y-106350000D01*
X45370184Y-106502262D01*
X45497738Y-106629816D01*
X45650478Y-106725789D01*
X45820745Y-106785368D01*
X45820750Y-106785369D01*
X45999996Y-106805565D01*
X46000000Y-106805565D01*
X46000004Y-106805565D01*
X46179249Y-106785369D01*
X46179252Y-106785368D01*
X46179255Y-106785368D01*
X46349522Y-106725789D01*
X46502262Y-106629816D01*
X46629816Y-106502262D01*
X46725789Y-106349522D01*
X46785368Y-106179255D01*
X46785956Y-106174035D01*
X46805565Y-106000003D01*
X46805565Y-105999996D01*
X46785369Y-105820750D01*
X46785368Y-105820745D01*
X46725788Y-105650476D01*
X46629815Y-105497737D01*
X46502262Y-105370184D01*
X46349520Y-105274209D01*
X46311448Y-105260887D01*
X46254672Y-105220165D01*
X46228926Y-105155211D01*
X46242383Y-105086650D01*
X46290771Y-105036248D01*
X46339152Y-105020556D01*
X46357379Y-105018596D01*
X46492086Y-104968354D01*
X46492093Y-104968350D01*
X46607187Y-104882190D01*
X46607190Y-104882187D01*
X46693350Y-104767093D01*
X46693354Y-104767086D01*
X46743596Y-104632379D01*
X46743598Y-104632372D01*
X46749999Y-104572844D01*
X46750000Y-104572827D01*
X46750000Y-104250000D01*
X45780330Y-104250000D01*
X45800075Y-104230255D01*
X45849444Y-104144745D01*
X45875000Y-104049370D01*
X45875000Y-103950630D01*
X45849444Y-103855255D01*
X45800075Y-103769745D01*
X45785830Y-103755500D01*
X45826004Y-103755500D01*
X45826004Y-103755499D01*
X45839473Y-103752820D01*
X45841674Y-103752383D01*
X45865866Y-103750000D01*
X46750000Y-103750000D01*
X46750000Y-103427172D01*
X46749999Y-103427155D01*
X46743598Y-103367627D01*
X46743596Y-103367620D01*
X46693354Y-103232913D01*
X46693353Y-103232911D01*
X46692745Y-103232099D01*
X46692390Y-103231148D01*
X46689103Y-103225128D01*
X46689968Y-103224655D01*
X46668329Y-103166634D01*
X46677452Y-103110338D01*
X46711091Y-103029127D01*
X46750500Y-102831003D01*
X46750500Y-102628997D01*
X46711091Y-102430873D01*
X46642224Y-102264615D01*
X46633787Y-102244246D01*
X46621455Y-102225790D01*
X46580094Y-102163889D01*
X46559217Y-102097214D01*
X46577701Y-102029834D01*
X46580078Y-102026134D01*
X46633786Y-101945756D01*
X46711091Y-101759127D01*
X46750500Y-101561003D01*
X46750500Y-101479996D01*
X48694435Y-101479996D01*
X48694435Y-101480003D01*
X48714630Y-101659249D01*
X48714631Y-101659254D01*
X48774211Y-101829523D01*
X48786778Y-101849523D01*
X48870184Y-101982262D01*
X48997738Y-102109816D01*
X49029568Y-102129816D01*
X49146072Y-102203021D01*
X49150478Y-102205789D01*
X49207632Y-102225788D01*
X49320745Y-102265368D01*
X49320750Y-102265369D01*
X49499996Y-102285565D01*
X49500000Y-102285565D01*
X49500004Y-102285565D01*
X49679249Y-102265369D01*
X49679252Y-102265368D01*
X49679255Y-102265368D01*
X49849522Y-102205789D01*
X50002262Y-102109816D01*
X50129816Y-101982262D01*
X50225789Y-101829522D01*
X50285368Y-101659255D01*
X50296438Y-101561004D01*
X50305565Y-101480003D01*
X50305565Y-101479996D01*
X50285369Y-101300750D01*
X50285368Y-101300745D01*
X50278084Y-101279929D01*
X50225789Y-101130478D01*
X50129816Y-100977738D01*
X50002262Y-100850184D01*
X49948398Y-100816339D01*
X49849523Y-100754211D01*
X49679254Y-100694631D01*
X49679249Y-100694630D01*
X49500004Y-100674435D01*
X49499996Y-100674435D01*
X49320750Y-100694630D01*
X49320745Y-100694631D01*
X49150476Y-100754211D01*
X48997737Y-100850184D01*
X48870184Y-100977737D01*
X48774211Y-101130476D01*
X48714631Y-101300745D01*
X48714630Y-101300750D01*
X48694435Y-101479996D01*
X46750500Y-101479996D01*
X46750500Y-101358997D01*
X46711091Y-101160873D01*
X46633786Y-100974244D01*
X46633784Y-100974241D01*
X46633782Y-100974237D01*
X46521558Y-100806281D01*
X46378718Y-100663441D01*
X46210762Y-100551217D01*
X46210752Y-100551212D01*
X46024127Y-100473909D01*
X46024119Y-100473907D01*
X45826007Y-100434500D01*
X45826003Y-100434500D01*
X45173997Y-100434500D01*
X45173992Y-100434500D01*
X44975880Y-100473907D01*
X44975872Y-100473909D01*
X44789247Y-100551212D01*
X44789237Y-100551217D01*
X44621281Y-100663441D01*
X44478441Y-100806281D01*
X44366217Y-100974237D01*
X44366212Y-100974247D01*
X44288909Y-101160872D01*
X44288907Y-101160880D01*
X44249500Y-101358992D01*
X38254987Y-101358992D01*
X38248070Y-101279932D01*
X38190894Y-101066550D01*
X38097534Y-100866339D01*
X37995377Y-100720442D01*
X37970827Y-100685381D01*
X37920826Y-100635380D01*
X37814620Y-100529174D01*
X37814616Y-100529171D01*
X37814615Y-100529170D01*
X37633666Y-100402468D01*
X37633662Y-100402466D01*
X37526436Y-100352466D01*
X37433450Y-100309106D01*
X37433447Y-100309105D01*
X37433445Y-100309104D01*
X37220070Y-100251930D01*
X37220062Y-100251929D01*
X37000002Y-100232677D01*
X36999998Y-100232677D01*
X36779937Y-100251929D01*
X36779929Y-100251930D01*
X36566554Y-100309104D01*
X36566548Y-100309107D01*
X36366340Y-100402465D01*
X36366338Y-100402466D01*
X36185377Y-100529175D01*
X36029175Y-100685377D01*
X35902466Y-100866338D01*
X35902462Y-100866345D01*
X35874038Y-100927300D01*
X35827865Y-100979739D01*
X35760671Y-100998890D01*
X35693791Y-100978673D01*
X35649276Y-100927300D01*
X35597534Y-100816339D01*
X35530387Y-100720442D01*
X35470827Y-100635381D01*
X35470826Y-100635380D01*
X35314620Y-100479174D01*
X35314616Y-100479171D01*
X35314615Y-100479170D01*
X35133666Y-100352468D01*
X35133662Y-100352466D01*
X35133660Y-100352465D01*
X34933450Y-100259106D01*
X34933447Y-100259105D01*
X34933445Y-100259104D01*
X34720070Y-100201930D01*
X34720062Y-100201929D01*
X34500002Y-100182677D01*
X34499998Y-100182677D01*
X34279937Y-100201929D01*
X34279929Y-100201930D01*
X34066554Y-100259104D01*
X34066548Y-100259107D01*
X33866340Y-100352465D01*
X33866338Y-100352466D01*
X33685381Y-100479172D01*
X33529174Y-100635380D01*
X33469612Y-100720442D01*
X33415034Y-100764066D01*
X33345536Y-100771258D01*
X33327084Y-100766359D01*
X33179257Y-100714632D01*
X33179249Y-100714630D01*
X33000004Y-100694435D01*
X32999996Y-100694435D01*
X32820750Y-100714630D01*
X32820745Y-100714631D01*
X32650476Y-100774211D01*
X32497737Y-100870184D01*
X32370184Y-100997737D01*
X32274211Y-101150476D01*
X32214631Y-101320745D01*
X32214630Y-101320750D01*
X32194435Y-101499996D01*
X23000500Y-101499996D01*
X23000500Y-95599996D01*
X47594435Y-95599996D01*
X47594435Y-95600003D01*
X47614630Y-95779249D01*
X47614631Y-95779254D01*
X47674211Y-95949523D01*
X47770184Y-96102262D01*
X47897738Y-96229816D01*
X48050478Y-96325789D01*
X48220745Y-96385368D01*
X48220750Y-96385369D01*
X48399996Y-96405565D01*
X48400000Y-96405565D01*
X48400004Y-96405565D01*
X48579249Y-96385369D01*
X48579252Y-96385368D01*
X48579255Y-96385368D01*
X48749522Y-96325789D01*
X48902262Y-96229816D01*
X49029816Y-96102262D01*
X49125789Y-95949522D01*
X49185368Y-95779255D01*
X49205565Y-95600000D01*
X49185368Y-95420745D01*
X49125789Y-95250478D01*
X49029816Y-95097738D01*
X48902262Y-94970184D01*
X48749523Y-94874211D01*
X48579254Y-94814631D01*
X48579249Y-94814630D01*
X48400004Y-94794435D01*
X48399996Y-94794435D01*
X48220750Y-94814630D01*
X48220745Y-94814631D01*
X48050476Y-94874211D01*
X47897737Y-94970184D01*
X47770184Y-95097737D01*
X47674211Y-95250476D01*
X47614631Y-95420745D01*
X47614630Y-95420750D01*
X47594435Y-95599996D01*
X23000500Y-95599996D01*
X23000500Y-92499996D01*
X30694435Y-92499996D01*
X30694435Y-92500003D01*
X30714630Y-92679249D01*
X30714631Y-92679254D01*
X30774211Y-92849523D01*
X30870184Y-93002262D01*
X30997738Y-93129816D01*
X31150478Y-93225789D01*
X31320745Y-93285368D01*
X31320750Y-93285369D01*
X31499996Y-93305565D01*
X31500000Y-93305565D01*
X31500004Y-93305565D01*
X31679249Y-93285369D01*
X31679252Y-93285368D01*
X31679255Y-93285368D01*
X31849522Y-93225789D01*
X32002262Y-93129816D01*
X32129816Y-93002262D01*
X32225789Y-92849522D01*
X32285368Y-92679255D01*
X32305565Y-92500000D01*
X32285368Y-92320745D01*
X32225789Y-92150478D01*
X32129816Y-91997738D01*
X32002262Y-91870184D01*
X31849523Y-91774211D01*
X31679254Y-91714631D01*
X31679249Y-91714630D01*
X31500004Y-91694435D01*
X31499996Y-91694435D01*
X31320750Y-91714630D01*
X31320745Y-91714631D01*
X31150476Y-91774211D01*
X30997737Y-91870184D01*
X30870184Y-91997737D01*
X30774211Y-92150476D01*
X30714631Y-92320745D01*
X30714630Y-92320750D01*
X30694435Y-92499996D01*
X23000500Y-92499996D01*
X23000500Y-91887001D01*
X23020185Y-91819962D01*
X23072989Y-91774207D01*
X23142147Y-91764263D01*
X23195622Y-91785425D01*
X23322170Y-91874035D01*
X23536337Y-91973903D01*
X23764592Y-92035063D01*
X23941034Y-92050500D01*
X23999999Y-92055659D01*
X24000000Y-92055659D01*
X24000001Y-92055659D01*
X24058966Y-92050500D01*
X24235408Y-92035063D01*
X24463663Y-91973903D01*
X24677830Y-91874035D01*
X24871401Y-91738495D01*
X25038495Y-91571401D01*
X25174035Y-91377830D01*
X25273903Y-91163663D01*
X25335063Y-90935408D01*
X25355659Y-90700000D01*
X25335063Y-90464592D01*
X25273903Y-90236337D01*
X25174035Y-90022171D01*
X25038495Y-89828599D01*
X25038494Y-89828597D01*
X24871402Y-89661506D01*
X24871396Y-89661501D01*
X24685842Y-89531575D01*
X24642217Y-89476998D01*
X24635023Y-89407500D01*
X24666546Y-89345145D01*
X24685842Y-89328425D01*
X24748800Y-89284341D01*
X24871401Y-89198495D01*
X25038495Y-89031401D01*
X25174035Y-88837830D01*
X25273903Y-88623663D01*
X25335063Y-88395408D01*
X25355659Y-88160000D01*
X25341660Y-87999996D01*
X44194435Y-87999996D01*
X44194435Y-88000003D01*
X44214630Y-88179249D01*
X44214631Y-88179254D01*
X44274211Y-88349523D01*
X44303040Y-88395403D01*
X44370184Y-88502262D01*
X44497738Y-88629816D01*
X44650478Y-88725789D01*
X44820745Y-88785368D01*
X44820750Y-88785369D01*
X44999996Y-88805565D01*
X45000000Y-88805565D01*
X45000004Y-88805565D01*
X45179249Y-88785369D01*
X45179252Y-88785368D01*
X45179255Y-88785368D01*
X45349522Y-88725789D01*
X45502262Y-88629816D01*
X45629816Y-88502262D01*
X45725789Y-88349522D01*
X45785368Y-88179255D01*
X45785369Y-88179249D01*
X45805565Y-88000003D01*
X45805565Y-87999996D01*
X45785369Y-87820750D01*
X45785368Y-87820745D01*
X45725788Y-87650476D01*
X45629815Y-87497737D01*
X45502262Y-87370184D01*
X45349523Y-87274211D01*
X45179254Y-87214631D01*
X45179249Y-87214630D01*
X45000004Y-87194435D01*
X44999996Y-87194435D01*
X44820750Y-87214630D01*
X44820745Y-87214631D01*
X44650476Y-87274211D01*
X44497737Y-87370184D01*
X44370184Y-87497737D01*
X44274211Y-87650476D01*
X44214631Y-87820745D01*
X44214630Y-87820750D01*
X44194435Y-87999996D01*
X25341660Y-87999996D01*
X25335063Y-87924592D01*
X25273903Y-87696337D01*
X25174035Y-87482171D01*
X25134400Y-87425565D01*
X25038494Y-87288597D01*
X24871402Y-87121506D01*
X24871396Y-87121501D01*
X24685842Y-86991575D01*
X24642217Y-86936998D01*
X24635023Y-86867500D01*
X24666546Y-86805145D01*
X24685842Y-86788425D01*
X24708026Y-86772891D01*
X24871401Y-86658495D01*
X24909900Y-86619996D01*
X46594435Y-86619996D01*
X46594435Y-86620003D01*
X46614630Y-86799249D01*
X46614631Y-86799254D01*
X46674211Y-86969523D01*
X46769706Y-87121501D01*
X46770184Y-87122262D01*
X46897738Y-87249816D01*
X47050478Y-87345789D01*
X47120195Y-87370184D01*
X47220745Y-87405368D01*
X47220750Y-87405369D01*
X47399996Y-87425565D01*
X47400000Y-87425565D01*
X47400004Y-87425565D01*
X47579249Y-87405369D01*
X47579252Y-87405368D01*
X47579255Y-87405368D01*
X47749522Y-87345789D01*
X47902262Y-87249816D01*
X48029816Y-87122262D01*
X48125789Y-86969522D01*
X48185368Y-86799255D01*
X48185956Y-86794035D01*
X48205565Y-86620003D01*
X48205565Y-86619996D01*
X48185369Y-86440750D01*
X48185368Y-86440745D01*
X48125788Y-86270476D01*
X48029815Y-86117737D01*
X47902262Y-85990184D01*
X47749523Y-85894211D01*
X47579254Y-85834631D01*
X47579249Y-85834630D01*
X47400004Y-85814435D01*
X47399996Y-85814435D01*
X47220750Y-85834630D01*
X47220745Y-85834631D01*
X47050476Y-85894211D01*
X46897737Y-85990184D01*
X46770184Y-86117737D01*
X46674211Y-86270476D01*
X46614631Y-86440745D01*
X46614630Y-86440750D01*
X46594435Y-86619996D01*
X24909900Y-86619996D01*
X25038495Y-86491401D01*
X25174035Y-86297830D01*
X25273903Y-86083663D01*
X25335063Y-85855408D01*
X25355659Y-85620000D01*
X25335063Y-85384592D01*
X25273903Y-85156337D01*
X25174035Y-84942171D01*
X25148404Y-84905565D01*
X25038494Y-84748597D01*
X24871402Y-84581506D01*
X24871396Y-84581501D01*
X24685842Y-84451575D01*
X24642217Y-84396998D01*
X24635023Y-84327500D01*
X24666546Y-84265145D01*
X24685842Y-84248425D01*
X24708026Y-84232891D01*
X24871401Y-84118495D01*
X24889900Y-84099996D01*
X41594435Y-84099996D01*
X41594435Y-84100003D01*
X41614630Y-84279249D01*
X41614631Y-84279254D01*
X41674211Y-84449523D01*
X41757139Y-84581501D01*
X41770184Y-84602262D01*
X41897738Y-84729816D01*
X42050478Y-84825789D01*
X42220745Y-84885368D01*
X42220750Y-84885369D01*
X42399996Y-84905565D01*
X42400000Y-84905565D01*
X42400004Y-84905565D01*
X42579249Y-84885369D01*
X42579252Y-84885368D01*
X42579255Y-84885368D01*
X42749522Y-84825789D01*
X42902262Y-84729816D01*
X43029816Y-84602262D01*
X43125789Y-84449522D01*
X43185368Y-84279255D01*
X43203481Y-84118495D01*
X43205565Y-84100003D01*
X43205565Y-84099996D01*
X43185369Y-83920750D01*
X43185368Y-83920745D01*
X43128363Y-83757834D01*
X43125789Y-83750478D01*
X43029816Y-83597738D01*
X42902262Y-83470184D01*
X42749523Y-83374211D01*
X42579254Y-83314631D01*
X42579249Y-83314630D01*
X42400004Y-83294435D01*
X42399996Y-83294435D01*
X42220750Y-83314630D01*
X42220745Y-83314631D01*
X42050476Y-83374211D01*
X41897737Y-83470184D01*
X41770184Y-83597737D01*
X41674211Y-83750476D01*
X41614631Y-83920745D01*
X41614630Y-83920750D01*
X41594435Y-84099996D01*
X24889900Y-84099996D01*
X25038495Y-83951401D01*
X25174035Y-83757830D01*
X25273903Y-83543663D01*
X25335063Y-83315408D01*
X25355659Y-83080000D01*
X25335063Y-82844592D01*
X25273903Y-82616337D01*
X25174035Y-82402171D01*
X25038495Y-82208599D01*
X25038494Y-82208597D01*
X24871402Y-82041506D01*
X24871396Y-82041501D01*
X24685842Y-81911575D01*
X24642217Y-81856998D01*
X24635023Y-81787500D01*
X24666546Y-81725145D01*
X24685842Y-81708425D01*
X24708026Y-81692891D01*
X24871401Y-81578495D01*
X25038495Y-81411401D01*
X25174035Y-81217830D01*
X25273903Y-81003663D01*
X25335063Y-80775408D01*
X25355659Y-80540000D01*
X25335063Y-80304592D01*
X25273903Y-80076337D01*
X25174035Y-79862171D01*
X25038495Y-79668599D01*
X25038494Y-79668597D01*
X24871402Y-79501506D01*
X24871396Y-79501501D01*
X24685842Y-79371575D01*
X24642217Y-79316998D01*
X24635023Y-79247500D01*
X24666546Y-79185145D01*
X24685842Y-79168425D01*
X24708026Y-79152891D01*
X24871401Y-79038495D01*
X25038495Y-78871401D01*
X25174035Y-78677830D01*
X25273903Y-78463663D01*
X25335063Y-78235408D01*
X25355659Y-78000000D01*
X25335063Y-77764592D01*
X25273903Y-77536337D01*
X25174035Y-77322171D01*
X25038495Y-77128599D01*
X24916567Y-77006671D01*
X24883084Y-76945351D01*
X24888068Y-76875659D01*
X24929939Y-76819725D01*
X24960915Y-76802810D01*
X25092331Y-76753796D01*
X25207546Y-76667546D01*
X25293796Y-76552331D01*
X25344091Y-76417483D01*
X25350500Y-76357873D01*
X25350499Y-74562128D01*
X25344091Y-74502517D01*
X25304264Y-74395736D01*
X25293797Y-74367671D01*
X25293793Y-74367664D01*
X25207547Y-74252455D01*
X25207544Y-74252452D01*
X25092335Y-74166206D01*
X25092328Y-74166202D01*
X24957482Y-74115908D01*
X24957483Y-74115908D01*
X24897883Y-74109501D01*
X24897881Y-74109500D01*
X24897873Y-74109500D01*
X24897865Y-74109500D01*
X23124500Y-74109500D01*
X23057461Y-74089815D01*
X23011706Y-74037011D01*
X23000500Y-73985500D01*
X23000500Y-71499996D01*
X30194435Y-71499996D01*
X30194435Y-71500003D01*
X30214630Y-71679249D01*
X30214631Y-71679254D01*
X30274211Y-71849523D01*
X30370184Y-72002262D01*
X30497738Y-72129816D01*
X30650478Y-72225789D01*
X30820745Y-72285368D01*
X30820750Y-72285369D01*
X30999996Y-72305565D01*
X31000000Y-72305565D01*
X31000004Y-72305565D01*
X31179249Y-72285369D01*
X31179252Y-72285368D01*
X31179255Y-72285368D01*
X31349522Y-72225789D01*
X31502262Y-72129816D01*
X31629816Y-72002262D01*
X31725789Y-71849522D01*
X31785368Y-71679255D01*
X31805565Y-71500000D01*
X31788664Y-71350000D01*
X31785369Y-71320750D01*
X31785368Y-71320745D01*
X31768977Y-71273903D01*
X31725789Y-71150478D01*
X31629816Y-70997738D01*
X31502262Y-70870184D01*
X31349523Y-70774211D01*
X31179254Y-70714631D01*
X31179249Y-70714630D01*
X31000004Y-70694435D01*
X30999996Y-70694435D01*
X30820750Y-70714630D01*
X30820745Y-70714631D01*
X30650476Y-70774211D01*
X30497737Y-70870184D01*
X30370184Y-70997737D01*
X30274211Y-71150476D01*
X30214631Y-71320745D01*
X30214630Y-71320750D01*
X30194435Y-71499996D01*
X23000500Y-71499996D01*
X23000500Y-69999999D01*
X33104341Y-69999999D01*
X33104341Y-70000000D01*
X33124936Y-70235403D01*
X33124938Y-70235413D01*
X33186094Y-70463655D01*
X33186096Y-70463659D01*
X33186097Y-70463663D01*
X33285965Y-70677830D01*
X33285967Y-70677834D01*
X33394281Y-70832521D01*
X33421505Y-70871401D01*
X33588599Y-71038495D01*
X33665135Y-71092086D01*
X33782165Y-71174032D01*
X33782167Y-71174033D01*
X33782170Y-71174035D01*
X33996337Y-71273903D01*
X34224592Y-71335063D01*
X34395319Y-71350000D01*
X34459999Y-71355659D01*
X34460000Y-71355659D01*
X34460001Y-71355659D01*
X34524681Y-71350000D01*
X34695408Y-71335063D01*
X34923663Y-71273903D01*
X35137830Y-71174035D01*
X35331401Y-71038495D01*
X35453717Y-70916178D01*
X35515036Y-70882696D01*
X35584728Y-70887680D01*
X35640662Y-70929551D01*
X35657577Y-70960528D01*
X35706646Y-71092088D01*
X35706649Y-71092093D01*
X35792809Y-71207187D01*
X35792812Y-71207190D01*
X35907906Y-71293350D01*
X35907913Y-71293354D01*
X36042620Y-71343596D01*
X36042627Y-71343598D01*
X36102155Y-71349999D01*
X36102172Y-71350000D01*
X36750000Y-71350000D01*
X36750000Y-70433012D01*
X36807007Y-70465925D01*
X36934174Y-70500000D01*
X37065826Y-70500000D01*
X37192993Y-70465925D01*
X37250000Y-70433012D01*
X37250000Y-71350000D01*
X37897828Y-71350000D01*
X37897844Y-71349999D01*
X37957372Y-71343598D01*
X37957379Y-71343596D01*
X38092086Y-71293354D01*
X38092093Y-71293350D01*
X38207187Y-71207190D01*
X38207190Y-71207187D01*
X38293350Y-71092093D01*
X38293354Y-71092086D01*
X38343596Y-70957379D01*
X38343598Y-70957372D01*
X38349999Y-70897844D01*
X38350000Y-70897827D01*
X38350000Y-70250000D01*
X37433012Y-70250000D01*
X37465925Y-70192993D01*
X37500000Y-70065826D01*
X37500000Y-69934174D01*
X37465925Y-69807007D01*
X37433012Y-69750000D01*
X38350000Y-69750000D01*
X38350000Y-69102172D01*
X38349999Y-69102155D01*
X38343598Y-69042627D01*
X38343596Y-69042620D01*
X38293354Y-68907913D01*
X38293350Y-68907906D01*
X38207190Y-68792812D01*
X38207187Y-68792809D01*
X38092093Y-68706649D01*
X38092086Y-68706645D01*
X37957379Y-68656403D01*
X37957372Y-68656401D01*
X37897844Y-68650000D01*
X37250000Y-68650000D01*
X37250000Y-69566988D01*
X37192993Y-69534075D01*
X37065826Y-69500000D01*
X36934174Y-69500000D01*
X36807007Y-69534075D01*
X36750000Y-69566988D01*
X36750000Y-68650000D01*
X36102155Y-68650000D01*
X36042627Y-68656401D01*
X36042620Y-68656403D01*
X35907913Y-68706645D01*
X35907906Y-68706649D01*
X35792812Y-68792809D01*
X35792809Y-68792812D01*
X35706649Y-68907906D01*
X35706645Y-68907913D01*
X35657578Y-69039470D01*
X35615707Y-69095404D01*
X35550242Y-69119821D01*
X35481969Y-69104969D01*
X35453715Y-69083819D01*
X35409366Y-69039470D01*
X35331401Y-68961505D01*
X35331397Y-68961502D01*
X35331396Y-68961501D01*
X35137834Y-68825967D01*
X35137830Y-68825965D01*
X35017266Y-68769745D01*
X34923663Y-68726097D01*
X34923659Y-68726096D01*
X34923655Y-68726094D01*
X34695413Y-68664938D01*
X34695403Y-68664936D01*
X34460001Y-68644341D01*
X34459999Y-68644341D01*
X34224596Y-68664936D01*
X34224586Y-68664938D01*
X33996344Y-68726094D01*
X33996335Y-68726098D01*
X33782171Y-68825964D01*
X33782169Y-68825965D01*
X33588597Y-68961505D01*
X33421505Y-69128597D01*
X33285965Y-69322169D01*
X33285964Y-69322171D01*
X33186098Y-69536335D01*
X33186094Y-69536344D01*
X33124938Y-69764586D01*
X33124936Y-69764596D01*
X33104341Y-69999999D01*
X23000500Y-69999999D01*
X23000500Y-66499997D01*
X33232677Y-66499997D01*
X33232677Y-66500002D01*
X33251929Y-66720062D01*
X33251930Y-66720070D01*
X33309104Y-66933445D01*
X33309105Y-66933447D01*
X33309106Y-66933450D01*
X33374039Y-67072700D01*
X33402466Y-67133662D01*
X33402468Y-67133666D01*
X33529170Y-67314615D01*
X33529175Y-67314621D01*
X33685378Y-67470824D01*
X33685384Y-67470829D01*
X33866333Y-67597531D01*
X33866335Y-67597532D01*
X33866338Y-67597534D01*
X34066550Y-67690894D01*
X34279932Y-67748070D01*
X34437123Y-67761822D01*
X34499998Y-67767323D01*
X34500000Y-67767323D01*
X34500002Y-67767323D01*
X34555017Y-67762509D01*
X34720068Y-67748070D01*
X34933450Y-67690894D01*
X35133662Y-67597534D01*
X35314620Y-67470826D01*
X35470826Y-67314620D01*
X35597534Y-67133662D01*
X35625962Y-67072697D01*
X35672131Y-67020262D01*
X35739325Y-67001109D01*
X35806206Y-67021324D01*
X35850723Y-67072699D01*
X35862155Y-67097214D01*
X35902466Y-67183662D01*
X35902468Y-67183666D01*
X36029170Y-67364615D01*
X36029175Y-67364621D01*
X36185378Y-67520824D01*
X36185384Y-67520829D01*
X36366333Y-67647531D01*
X36366335Y-67647532D01*
X36366338Y-67647534D01*
X36566550Y-67740894D01*
X36779932Y-67798070D01*
X36937123Y-67811822D01*
X36999998Y-67817323D01*
X37000000Y-67817323D01*
X37000002Y-67817323D01*
X37055017Y-67812509D01*
X37220068Y-67798070D01*
X37433450Y-67740894D01*
X37633662Y-67647534D01*
X37814620Y-67520826D01*
X37970826Y-67364620D01*
X37981126Y-67349908D01*
X38035701Y-67306283D01*
X38068809Y-67297811D01*
X38179255Y-67285368D01*
X38349522Y-67225789D01*
X38502262Y-67129816D01*
X38629816Y-67002262D01*
X38725789Y-66849522D01*
X38785368Y-66679255D01*
X38785369Y-66679249D01*
X38805565Y-66500003D01*
X38805565Y-66499996D01*
X38789678Y-66358992D01*
X44249500Y-66358992D01*
X44249500Y-66561007D01*
X44288907Y-66759119D01*
X44288909Y-66759127D01*
X44366213Y-66945755D01*
X44419904Y-67026109D01*
X44440782Y-67092787D01*
X44422297Y-67160167D01*
X44419904Y-67163891D01*
X44366213Y-67244244D01*
X44288909Y-67430872D01*
X44288907Y-67430880D01*
X44249500Y-67628992D01*
X44249500Y-67831007D01*
X44288907Y-68029119D01*
X44288910Y-68029131D01*
X44322547Y-68110338D01*
X44330016Y-68179807D01*
X44310405Y-68224864D01*
X44310895Y-68225132D01*
X44307910Y-68230596D01*
X44307260Y-68232092D01*
X44306646Y-68232911D01*
X44306645Y-68232913D01*
X44256403Y-68367620D01*
X44256401Y-68367627D01*
X44250000Y-68427155D01*
X44250000Y-68750000D01*
X45134134Y-68750000D01*
X45158326Y-68752383D01*
X45161123Y-68752939D01*
X45173995Y-68755499D01*
X45173996Y-68755500D01*
X45173997Y-68755500D01*
X45214170Y-68755500D01*
X45199925Y-68769745D01*
X45150556Y-68855255D01*
X45125000Y-68950630D01*
X45125000Y-69049370D01*
X45150556Y-69144745D01*
X45199925Y-69230255D01*
X45219670Y-69250000D01*
X44250000Y-69250000D01*
X44250000Y-69572844D01*
X44256401Y-69632372D01*
X44256403Y-69632379D01*
X44306645Y-69767086D01*
X44306649Y-69767093D01*
X44392809Y-69882187D01*
X44392812Y-69882190D01*
X44507906Y-69968350D01*
X44507913Y-69968354D01*
X44642620Y-70018596D01*
X44642627Y-70018598D01*
X44702155Y-70024999D01*
X44702172Y-70025000D01*
X45250000Y-70025000D01*
X45250000Y-69280330D01*
X45269745Y-69300075D01*
X45355255Y-69349444D01*
X45450630Y-69375000D01*
X45549370Y-69375000D01*
X45644745Y-69349444D01*
X45730255Y-69300075D01*
X45750000Y-69280330D01*
X45750000Y-70025000D01*
X46297828Y-70025000D01*
X46297844Y-70024999D01*
X46357372Y-70018598D01*
X46357379Y-70018596D01*
X46492086Y-69968354D01*
X46492093Y-69968350D01*
X46607187Y-69882190D01*
X46607190Y-69882187D01*
X46693350Y-69767093D01*
X46693354Y-69767086D01*
X46743596Y-69632379D01*
X46743598Y-69632372D01*
X46749999Y-69572844D01*
X46750000Y-69572827D01*
X46750000Y-69250000D01*
X45780330Y-69250000D01*
X45800075Y-69230255D01*
X45849444Y-69144745D01*
X45875000Y-69049370D01*
X45875000Y-68950630D01*
X45849444Y-68855255D01*
X45800075Y-68769745D01*
X45785830Y-68755500D01*
X45826004Y-68755500D01*
X45826004Y-68755499D01*
X45839473Y-68752820D01*
X45841674Y-68752383D01*
X45865866Y-68750000D01*
X46750000Y-68750000D01*
X46750000Y-68427172D01*
X46749999Y-68427155D01*
X46743598Y-68367627D01*
X46743596Y-68367620D01*
X46693354Y-68232913D01*
X46693353Y-68232911D01*
X46692745Y-68232099D01*
X46692390Y-68231148D01*
X46689103Y-68225128D01*
X46689968Y-68224655D01*
X46668329Y-68166634D01*
X46677452Y-68110338D01*
X46711091Y-68029127D01*
X46750500Y-67831003D01*
X46750500Y-67628997D01*
X46711091Y-67430873D01*
X46633786Y-67244244D01*
X46580094Y-67163889D01*
X46559217Y-67097214D01*
X46577701Y-67029834D01*
X46580078Y-67026134D01*
X46633786Y-66945756D01*
X46711091Y-66759127D01*
X46712907Y-66749996D01*
X47919435Y-66749996D01*
X47919435Y-66750003D01*
X47939630Y-66929249D01*
X47939631Y-66929254D01*
X47999211Y-67099523D01*
X48052082Y-67183666D01*
X48095184Y-67252262D01*
X48222738Y-67379816D01*
X48375478Y-67475789D01*
X48504195Y-67520829D01*
X48545745Y-67535368D01*
X48545750Y-67535369D01*
X48724996Y-67555565D01*
X48725000Y-67555565D01*
X48725004Y-67555565D01*
X48904249Y-67535369D01*
X48904252Y-67535368D01*
X48904255Y-67535368D01*
X49074522Y-67475789D01*
X49227262Y-67379816D01*
X49354816Y-67252262D01*
X49450789Y-67099522D01*
X49510368Y-66929255D01*
X49530565Y-66750000D01*
X49522593Y-66679249D01*
X49510369Y-66570750D01*
X49510368Y-66570745D01*
X49450788Y-66400476D01*
X49405552Y-66328484D01*
X49354816Y-66247738D01*
X49227262Y-66120184D01*
X49221479Y-66116550D01*
X49074523Y-66024211D01*
X48904254Y-65964631D01*
X48904249Y-65964630D01*
X48725004Y-65944435D01*
X48724996Y-65944435D01*
X48545750Y-65964630D01*
X48545745Y-65964631D01*
X48375476Y-66024211D01*
X48222737Y-66120184D01*
X48095184Y-66247737D01*
X47999211Y-66400476D01*
X47939631Y-66570745D01*
X47939630Y-66570750D01*
X47919435Y-66749996D01*
X46712907Y-66749996D01*
X46750500Y-66561003D01*
X46750500Y-66358997D01*
X46711091Y-66160873D01*
X46633786Y-65974244D01*
X46633784Y-65974241D01*
X46633782Y-65974237D01*
X46521558Y-65806281D01*
X46378718Y-65663441D01*
X46210762Y-65551217D01*
X46210752Y-65551212D01*
X46024127Y-65473909D01*
X46024119Y-65473907D01*
X45826007Y-65434500D01*
X45826003Y-65434500D01*
X45173997Y-65434500D01*
X45173992Y-65434500D01*
X44975880Y-65473907D01*
X44975872Y-65473909D01*
X44789247Y-65551212D01*
X44789237Y-65551217D01*
X44621281Y-65663441D01*
X44478441Y-65806281D01*
X44366217Y-65974237D01*
X44366212Y-65974247D01*
X44288909Y-66160872D01*
X44288907Y-66160880D01*
X44249500Y-66358992D01*
X38789678Y-66358992D01*
X38785369Y-66320750D01*
X38785368Y-66320745D01*
X38725788Y-66150476D01*
X38661957Y-66048890D01*
X38629816Y-65997738D01*
X38502262Y-65870184D01*
X38400563Y-65806282D01*
X38349523Y-65774211D01*
X38179254Y-65714631D01*
X38179249Y-65714630D01*
X38000004Y-65694435D01*
X38000001Y-65694435D01*
X38000000Y-65694435D01*
X37996316Y-65694849D01*
X37993948Y-65694435D01*
X37993037Y-65694435D01*
X37993037Y-65694275D01*
X37927495Y-65682793D01*
X37894756Y-65659310D01*
X37814621Y-65579175D01*
X37814615Y-65579170D01*
X37633666Y-65452468D01*
X37633662Y-65452466D01*
X37633660Y-65452465D01*
X37433450Y-65359106D01*
X37433447Y-65359105D01*
X37433445Y-65359104D01*
X37220070Y-65301930D01*
X37220062Y-65301929D01*
X37000002Y-65282677D01*
X36999998Y-65282677D01*
X36779937Y-65301929D01*
X36779929Y-65301930D01*
X36566554Y-65359104D01*
X36566548Y-65359107D01*
X36366340Y-65452465D01*
X36366338Y-65452466D01*
X36185377Y-65579175D01*
X36029175Y-65735377D01*
X35902466Y-65916338D01*
X35902462Y-65916345D01*
X35874038Y-65977300D01*
X35827865Y-66029739D01*
X35760671Y-66048890D01*
X35693791Y-66028673D01*
X35649276Y-65977300D01*
X35597534Y-65866339D01*
X35505834Y-65735377D01*
X35470827Y-65685381D01*
X35444756Y-65659310D01*
X35314620Y-65529174D01*
X35314616Y-65529171D01*
X35314615Y-65529170D01*
X35133666Y-65402468D01*
X35133662Y-65402466D01*
X35133660Y-65402465D01*
X34933450Y-65309106D01*
X34933447Y-65309105D01*
X34933445Y-65309104D01*
X34720070Y-65251930D01*
X34720062Y-65251929D01*
X34500002Y-65232677D01*
X34499998Y-65232677D01*
X34279937Y-65251929D01*
X34279929Y-65251930D01*
X34066554Y-65309104D01*
X34066548Y-65309107D01*
X33866340Y-65402465D01*
X33866338Y-65402466D01*
X33685377Y-65529175D01*
X33529175Y-65685377D01*
X33402466Y-65866338D01*
X33402465Y-65866340D01*
X33309107Y-66066548D01*
X33309104Y-66066554D01*
X33251930Y-66279929D01*
X33251929Y-66279937D01*
X33232677Y-66499997D01*
X23000500Y-66499997D01*
X23000500Y-34999999D01*
X33104341Y-34999999D01*
X33104341Y-35000000D01*
X33124936Y-35235403D01*
X33124938Y-35235413D01*
X33186094Y-35463655D01*
X33186096Y-35463659D01*
X33186097Y-35463663D01*
X33285965Y-35677830D01*
X33285967Y-35677834D01*
X33394281Y-35832521D01*
X33421505Y-35871401D01*
X33588599Y-36038495D01*
X33665135Y-36092086D01*
X33782165Y-36174032D01*
X33782167Y-36174033D01*
X33782170Y-36174035D01*
X33996337Y-36273903D01*
X34224592Y-36335063D01*
X34395319Y-36350000D01*
X34459999Y-36355659D01*
X34460000Y-36355659D01*
X34460001Y-36355659D01*
X34524681Y-36350000D01*
X34695408Y-36335063D01*
X34923663Y-36273903D01*
X35137830Y-36174035D01*
X35331401Y-36038495D01*
X35453717Y-35916178D01*
X35515036Y-35882696D01*
X35584728Y-35887680D01*
X35640662Y-35929551D01*
X35657577Y-35960528D01*
X35706646Y-36092088D01*
X35706649Y-36092093D01*
X35792809Y-36207187D01*
X35792812Y-36207190D01*
X35907906Y-36293350D01*
X35907913Y-36293354D01*
X36042620Y-36343596D01*
X36042627Y-36343598D01*
X36102155Y-36349999D01*
X36102172Y-36350000D01*
X36750000Y-36350000D01*
X36750000Y-35433012D01*
X36807007Y-35465925D01*
X36934174Y-35500000D01*
X37065826Y-35500000D01*
X37192993Y-35465925D01*
X37250000Y-35433012D01*
X37250000Y-36350000D01*
X37897828Y-36350000D01*
X37897844Y-36349999D01*
X37957372Y-36343598D01*
X37957379Y-36343596D01*
X38092086Y-36293354D01*
X38092093Y-36293350D01*
X38207187Y-36207190D01*
X38207190Y-36207187D01*
X38293350Y-36092093D01*
X38293354Y-36092086D01*
X38343596Y-35957379D01*
X38343598Y-35957372D01*
X38349999Y-35897844D01*
X38350000Y-35897827D01*
X38350000Y-35250000D01*
X37433012Y-35250000D01*
X37465925Y-35192993D01*
X37500000Y-35065826D01*
X37500000Y-34934174D01*
X37465925Y-34807007D01*
X37433012Y-34750000D01*
X38350000Y-34750000D01*
X38350000Y-34102172D01*
X38349999Y-34102155D01*
X38343598Y-34042627D01*
X38343596Y-34042620D01*
X38293354Y-33907913D01*
X38293350Y-33907906D01*
X38207190Y-33792812D01*
X38207187Y-33792809D01*
X38092093Y-33706649D01*
X38092086Y-33706645D01*
X37957379Y-33656403D01*
X37957372Y-33656401D01*
X37897844Y-33650000D01*
X37250000Y-33650000D01*
X37250000Y-34566988D01*
X37192993Y-34534075D01*
X37065826Y-34500000D01*
X36934174Y-34500000D01*
X36807007Y-34534075D01*
X36750000Y-34566988D01*
X36750000Y-33650000D01*
X36102155Y-33650000D01*
X36042627Y-33656401D01*
X36042620Y-33656403D01*
X35907913Y-33706645D01*
X35907906Y-33706649D01*
X35792812Y-33792809D01*
X35792809Y-33792812D01*
X35706649Y-33907906D01*
X35706645Y-33907913D01*
X35657578Y-34039470D01*
X35615707Y-34095404D01*
X35550242Y-34119821D01*
X35481969Y-34104969D01*
X35453715Y-34083819D01*
X35409366Y-34039470D01*
X35331401Y-33961505D01*
X35331397Y-33961502D01*
X35331396Y-33961501D01*
X35137834Y-33825967D01*
X35137830Y-33825965D01*
X35066727Y-33792809D01*
X34923663Y-33726097D01*
X34923659Y-33726096D01*
X34923655Y-33726094D01*
X34695413Y-33664938D01*
X34695403Y-33664936D01*
X34460001Y-33644341D01*
X34459999Y-33644341D01*
X34224596Y-33664936D01*
X34224586Y-33664938D01*
X33996344Y-33726094D01*
X33996335Y-33726098D01*
X33782171Y-33825964D01*
X33782169Y-33825965D01*
X33588597Y-33961505D01*
X33421505Y-34128597D01*
X33285965Y-34322169D01*
X33285964Y-34322171D01*
X33186098Y-34536335D01*
X33186094Y-34536344D01*
X33124938Y-34764586D01*
X33124936Y-34764596D01*
X33104341Y-34999999D01*
X23000500Y-34999999D01*
X23000500Y-27673992D01*
X32394500Y-27673992D01*
X32394500Y-28326007D01*
X32433907Y-28524119D01*
X32433909Y-28524127D01*
X32511212Y-28710752D01*
X32511217Y-28710762D01*
X32623441Y-28878718D01*
X32766281Y-29021558D01*
X32934237Y-29133782D01*
X32934241Y-29133784D01*
X32934244Y-29133786D01*
X33120873Y-29211091D01*
X33284288Y-29243596D01*
X33318992Y-29250499D01*
X33318996Y-29250500D01*
X33318997Y-29250500D01*
X33521004Y-29250500D01*
X33521005Y-29250499D01*
X33719127Y-29211091D01*
X33905756Y-29133786D01*
X33986110Y-29080094D01*
X34052786Y-29059217D01*
X34120166Y-29077701D01*
X34123865Y-29080078D01*
X34204244Y-29133786D01*
X34390873Y-29211091D01*
X34554288Y-29243596D01*
X34588992Y-29250499D01*
X34588996Y-29250500D01*
X34588997Y-29250500D01*
X34791004Y-29250500D01*
X34791005Y-29250499D01*
X34989127Y-29211091D01*
X35070338Y-29177451D01*
X35139804Y-29169983D01*
X35184859Y-29189594D01*
X35185128Y-29189103D01*
X35190613Y-29192098D01*
X35192099Y-29192745D01*
X35192911Y-29193353D01*
X35192913Y-29193354D01*
X35327620Y-29243596D01*
X35327627Y-29243598D01*
X35387155Y-29249999D01*
X35387172Y-29250000D01*
X35710000Y-29250000D01*
X35710000Y-28365865D01*
X35712383Y-28341671D01*
X35715500Y-28326002D01*
X35715500Y-28285830D01*
X35729745Y-28300075D01*
X35815255Y-28349444D01*
X35910630Y-28375000D01*
X36009370Y-28375000D01*
X36104745Y-28349444D01*
X36190255Y-28300075D01*
X36210000Y-28280330D01*
X36210000Y-29250000D01*
X36532828Y-29250000D01*
X36532844Y-29249999D01*
X36592372Y-29243598D01*
X36592379Y-29243596D01*
X36727086Y-29193354D01*
X36727093Y-29193350D01*
X36842187Y-29107190D01*
X36842190Y-29107187D01*
X36928350Y-28992093D01*
X36928354Y-28992086D01*
X36978596Y-28857379D01*
X36978598Y-28857372D01*
X36984999Y-28797844D01*
X36985000Y-28797827D01*
X36985000Y-28250000D01*
X36240330Y-28250000D01*
X36260075Y-28230255D01*
X36309444Y-28144745D01*
X36335000Y-28049370D01*
X36335000Y-27950630D01*
X36309444Y-27855255D01*
X36260075Y-27769745D01*
X36240330Y-27750000D01*
X36985000Y-27750000D01*
X36985000Y-27202172D01*
X36984999Y-27202155D01*
X36978598Y-27142627D01*
X36978596Y-27142620D01*
X36928354Y-27007913D01*
X36928350Y-27007906D01*
X36842190Y-26892812D01*
X36842187Y-26892809D01*
X36727093Y-26806649D01*
X36727086Y-26806645D01*
X36592379Y-26756403D01*
X36592372Y-26756401D01*
X36532844Y-26750000D01*
X36210000Y-26750000D01*
X36210000Y-27719670D01*
X36190255Y-27699925D01*
X36104745Y-27650556D01*
X36009370Y-27625000D01*
X35910630Y-27625000D01*
X35815255Y-27650556D01*
X35729745Y-27699925D01*
X35715500Y-27714170D01*
X35715500Y-27673996D01*
X35715499Y-27673995D01*
X35712383Y-27658326D01*
X35710000Y-27634134D01*
X35710000Y-26750000D01*
X35387155Y-26750000D01*
X35327627Y-26756401D01*
X35327620Y-26756403D01*
X35192913Y-26806645D01*
X35192911Y-26806646D01*
X35192092Y-26807260D01*
X35191134Y-26807616D01*
X35185132Y-26810895D01*
X35184660Y-26810031D01*
X35126625Y-26831671D01*
X35070338Y-26822547D01*
X34989131Y-26788910D01*
X34989119Y-26788907D01*
X34791007Y-26749500D01*
X34791003Y-26749500D01*
X34588997Y-26749500D01*
X34588992Y-26749500D01*
X34390880Y-26788907D01*
X34390872Y-26788909D01*
X34204244Y-26866213D01*
X34123891Y-26919904D01*
X34057213Y-26940782D01*
X33989833Y-26922297D01*
X33986109Y-26919904D01*
X33905755Y-26866213D01*
X33719127Y-26788909D01*
X33719119Y-26788907D01*
X33521007Y-26749500D01*
X33521003Y-26749500D01*
X33318997Y-26749500D01*
X33318992Y-26749500D01*
X33120880Y-26788907D01*
X33120872Y-26788909D01*
X32934247Y-26866212D01*
X32934237Y-26866217D01*
X32766281Y-26978441D01*
X32623441Y-27121281D01*
X32511217Y-27289237D01*
X32511212Y-27289247D01*
X32433909Y-27475872D01*
X32433907Y-27475880D01*
X32394500Y-27673992D01*
X23000500Y-27673992D01*
X23000500Y-20768713D01*
X29649500Y-20768713D01*
X29649500Y-21231287D01*
X29682754Y-21441243D01*
X29693722Y-21475000D01*
X29748444Y-21643414D01*
X29844951Y-21832820D01*
X29969890Y-22004786D01*
X30120213Y-22155109D01*
X30292179Y-22280048D01*
X30292181Y-22280049D01*
X30292184Y-22280051D01*
X30481588Y-22376557D01*
X30683757Y-22442246D01*
X30893713Y-22475500D01*
X30893714Y-22475500D01*
X31106286Y-22475500D01*
X31106287Y-22475500D01*
X31316243Y-22442246D01*
X31518412Y-22376557D01*
X31707816Y-22280051D01*
X31729789Y-22264086D01*
X31879786Y-22155109D01*
X31879788Y-22155106D01*
X31879792Y-22155104D01*
X32030104Y-22004792D01*
X32149683Y-21840204D01*
X32205011Y-21797540D01*
X32274624Y-21791561D01*
X32336420Y-21824166D01*
X32350313Y-21840199D01*
X32377552Y-21877690D01*
X32469896Y-22004792D01*
X32620213Y-22155109D01*
X32792179Y-22280048D01*
X32792181Y-22280049D01*
X32792184Y-22280051D01*
X32981588Y-22376557D01*
X33183757Y-22442246D01*
X33393713Y-22475500D01*
X33393714Y-22475500D01*
X33606286Y-22475500D01*
X33606287Y-22475500D01*
X33816243Y-22442246D01*
X34018412Y-22376557D01*
X34207816Y-22280051D01*
X34265141Y-22238402D01*
X34379784Y-22155110D01*
X34379784Y-22155109D01*
X34379792Y-22155104D01*
X34518967Y-22015928D01*
X34580286Y-21982446D01*
X34649978Y-21987430D01*
X34705912Y-22029301D01*
X34712184Y-22038515D01*
X34807684Y-22193345D01*
X34931654Y-22317315D01*
X35080875Y-22409356D01*
X35080880Y-22409358D01*
X35247302Y-22464505D01*
X35247309Y-22464506D01*
X35350019Y-22474999D01*
X35749999Y-22474999D01*
X35750000Y-22474998D01*
X35750000Y-21404145D01*
X35816657Y-21442630D01*
X35937465Y-21475000D01*
X36062535Y-21475000D01*
X36183343Y-21442630D01*
X36250000Y-21404145D01*
X36250000Y-22474999D01*
X36649972Y-22474999D01*
X36649986Y-22474998D01*
X36752697Y-22464505D01*
X36919119Y-22409358D01*
X36919124Y-22409356D01*
X37068345Y-22317315D01*
X37192315Y-22193345D01*
X37284356Y-22044124D01*
X37284358Y-22044119D01*
X37339505Y-21877697D01*
X37339506Y-21877690D01*
X37349999Y-21774986D01*
X37350000Y-21774973D01*
X37350000Y-21250000D01*
X36404146Y-21250000D01*
X36442630Y-21183343D01*
X36475000Y-21062535D01*
X36475000Y-20937465D01*
X36442630Y-20816657D01*
X36404146Y-20750000D01*
X37349999Y-20750000D01*
X37349999Y-20225028D01*
X37349998Y-20225013D01*
X37339505Y-20122302D01*
X37284358Y-19955880D01*
X37284356Y-19955875D01*
X37192315Y-19806654D01*
X37068345Y-19682684D01*
X36919124Y-19590643D01*
X36919119Y-19590641D01*
X36752697Y-19535494D01*
X36752690Y-19535493D01*
X36649986Y-19525000D01*
X36250000Y-19525000D01*
X36250000Y-20595854D01*
X36183343Y-20557370D01*
X36062535Y-20525000D01*
X35937465Y-20525000D01*
X35816657Y-20557370D01*
X35750000Y-20595854D01*
X35750000Y-19525000D01*
X35350028Y-19525000D01*
X35350012Y-19525001D01*
X35247302Y-19535494D01*
X35080880Y-19590641D01*
X35080875Y-19590643D01*
X34931654Y-19682684D01*
X34807683Y-19806655D01*
X34807680Y-19806659D01*
X34712183Y-19961484D01*
X34660235Y-20008209D01*
X34591273Y-20019430D01*
X34527191Y-19991587D01*
X34518964Y-19984068D01*
X34379786Y-19844890D01*
X34207820Y-19719951D01*
X34018414Y-19623444D01*
X34018413Y-19623443D01*
X34018412Y-19623443D01*
X33816243Y-19557754D01*
X33816241Y-19557753D01*
X33816240Y-19557753D01*
X33654957Y-19532208D01*
X33606287Y-19524500D01*
X33393713Y-19524500D01*
X33345042Y-19532208D01*
X33183760Y-19557753D01*
X32981585Y-19623444D01*
X32792179Y-19719951D01*
X32620213Y-19844890D01*
X32469894Y-19995209D01*
X32469890Y-19995214D01*
X32350318Y-20159793D01*
X32294989Y-20202459D01*
X32225375Y-20208438D01*
X32163580Y-20175833D01*
X32149682Y-20159793D01*
X32030109Y-19995214D01*
X32030105Y-19995209D01*
X31879786Y-19844890D01*
X31707820Y-19719951D01*
X31518414Y-19623444D01*
X31518413Y-19623443D01*
X31518412Y-19623443D01*
X31316243Y-19557754D01*
X31316241Y-19557753D01*
X31316240Y-19557753D01*
X31154957Y-19532208D01*
X31106287Y-19524500D01*
X30893713Y-19524500D01*
X30845042Y-19532208D01*
X30683760Y-19557753D01*
X30481585Y-19623444D01*
X30292179Y-19719951D01*
X30120213Y-19844890D01*
X29969890Y-19995213D01*
X29844951Y-20167179D01*
X29748444Y-20356585D01*
X29682753Y-20558760D01*
X29673069Y-20619905D01*
X29649500Y-20768713D01*
X23000500Y-20768713D01*
X23000500Y-17397648D01*
X23699500Y-17397648D01*
X23699500Y-17602351D01*
X23731522Y-17804534D01*
X23794781Y-17999223D01*
X23887715Y-18181613D01*
X24008028Y-18347213D01*
X24152786Y-18491971D01*
X24307749Y-18604556D01*
X24318390Y-18612287D01*
X24434607Y-18671503D01*
X24500776Y-18705218D01*
X24500778Y-18705218D01*
X24500781Y-18705220D01*
X24605137Y-18739127D01*
X24695465Y-18768477D01*
X24796557Y-18784488D01*
X24897648Y-18800500D01*
X24897649Y-18800500D01*
X25102351Y-18800500D01*
X25102352Y-18800500D01*
X25304534Y-18768477D01*
X25499219Y-18705220D01*
X25681610Y-18612287D01*
X25774590Y-18544732D01*
X25847213Y-18491971D01*
X25847215Y-18491968D01*
X25847219Y-18491966D01*
X25991966Y-18347219D01*
X25991968Y-18347215D01*
X25991971Y-18347213D01*
X26044732Y-18274590D01*
X26112287Y-18181610D01*
X26205220Y-17999219D01*
X26268477Y-17804534D01*
X26300500Y-17602352D01*
X26300500Y-17397648D01*
X48699500Y-17397648D01*
X48699500Y-17602351D01*
X48731522Y-17804534D01*
X48794781Y-17999223D01*
X48887715Y-18181613D01*
X49008028Y-18347213D01*
X49152786Y-18491971D01*
X49307749Y-18604556D01*
X49318390Y-18612287D01*
X49434607Y-18671503D01*
X49500776Y-18705218D01*
X49500778Y-18705218D01*
X49500781Y-18705220D01*
X49605137Y-18739127D01*
X49695465Y-18768477D01*
X49796557Y-18784488D01*
X49897648Y-18800500D01*
X49897649Y-18800500D01*
X50102351Y-18800500D01*
X50102352Y-18800500D01*
X50304534Y-18768477D01*
X50499219Y-18705220D01*
X50681610Y-18612287D01*
X50774590Y-18544732D01*
X50847213Y-18491971D01*
X50847215Y-18491968D01*
X50847219Y-18491966D01*
X50991966Y-18347219D01*
X50991968Y-18347215D01*
X50991971Y-18347213D01*
X51044732Y-18274590D01*
X51112287Y-18181610D01*
X51205220Y-17999219D01*
X51268477Y-17804534D01*
X51300500Y-17602352D01*
X51300500Y-17397648D01*
X51268477Y-17195466D01*
X51205220Y-17000781D01*
X51205218Y-17000778D01*
X51205218Y-17000776D01*
X51171503Y-16934607D01*
X51112287Y-16818390D01*
X51104556Y-16807749D01*
X50991971Y-16652786D01*
X50847213Y-16508028D01*
X50681613Y-16387715D01*
X50681612Y-16387714D01*
X50681610Y-16387713D01*
X50624653Y-16358691D01*
X50499223Y-16294781D01*
X50304534Y-16231522D01*
X50129995Y-16203878D01*
X50102352Y-16199500D01*
X49897648Y-16199500D01*
X49873329Y-16203351D01*
X49695465Y-16231522D01*
X49500776Y-16294781D01*
X49318386Y-16387715D01*
X49152786Y-16508028D01*
X49008028Y-16652786D01*
X48887715Y-16818386D01*
X48794781Y-17000776D01*
X48731522Y-17195465D01*
X48699500Y-17397648D01*
X26300500Y-17397648D01*
X26268477Y-17195466D01*
X26205220Y-17000781D01*
X26205218Y-17000778D01*
X26205218Y-17000776D01*
X26171503Y-16934607D01*
X26112287Y-16818390D01*
X26104556Y-16807749D01*
X25991971Y-16652786D01*
X25847213Y-16508028D01*
X25681613Y-16387715D01*
X25681612Y-16387714D01*
X25681610Y-16387713D01*
X25624653Y-16358691D01*
X25499223Y-16294781D01*
X25304534Y-16231522D01*
X25129995Y-16203878D01*
X25102352Y-16199500D01*
X24897648Y-16199500D01*
X24873329Y-16203351D01*
X24695465Y-16231522D01*
X24500776Y-16294781D01*
X24318386Y-16387715D01*
X24152786Y-16508028D01*
X24008028Y-16652786D01*
X23887715Y-16818386D01*
X23794781Y-17000776D01*
X23731522Y-17195465D01*
X23699500Y-17397648D01*
X23000500Y-17397648D01*
X23000500Y-15624500D01*
X23020185Y-15557461D01*
X23072989Y-15511706D01*
X23124500Y-15500500D01*
X51875500Y-15500500D01*
X51942539Y-15520185D01*
G37*
%TD.AperFunction*%
%TD*%
%TA.AperFunction,Conductor*%
%TO.N,GND*%
G36*
X52656557Y-112692491D02*
G01*
X52815371Y-112737678D01*
X52999999Y-112754786D01*
X53000000Y-112754786D01*
X53000001Y-112754786D01*
X53061543Y-112749083D01*
X53184629Y-112737678D01*
X53343440Y-112692492D01*
X53413304Y-112693078D01*
X53471763Y-112731345D01*
X53500000Y-112794573D01*
X53500000Y-112830309D01*
X53499500Y-112834108D01*
X53499500Y-112965891D01*
X53500000Y-112967757D01*
X53500000Y-113532241D01*
X53499500Y-113534108D01*
X53499500Y-113665890D01*
X53500000Y-113669688D01*
X53500000Y-113674059D01*
X53489544Y-113741094D01*
X53443163Y-113793348D01*
X53375893Y-113812232D01*
X53343438Y-113807507D01*
X53184630Y-113762322D01*
X53184628Y-113762321D01*
X53000001Y-113745214D01*
X52999999Y-113745214D01*
X52815371Y-113762321D01*
X52815368Y-113762322D01*
X52656561Y-113807507D01*
X52586694Y-113806920D01*
X52528235Y-113768654D01*
X52500000Y-113705427D01*
X52500000Y-113669688D01*
X52500500Y-113665891D01*
X52500500Y-113534110D01*
X52500500Y-113534108D01*
X52500000Y-113532241D01*
X52500000Y-112967757D01*
X52500500Y-112965892D01*
X52500500Y-112834108D01*
X52500498Y-112834102D01*
X52500000Y-112830317D01*
X52500000Y-112825946D01*
X52510452Y-112758912D01*
X52556830Y-112706655D01*
X52624098Y-112687767D01*
X52656557Y-112692491D01*
G37*
%TD.AperFunction*%
%TD*%
M02*
