%TF.GenerationSoftware,KiCad,Pcbnew,8.0.8*%
%TF.CreationDate,2025-03-24T10:51:22+01:00*%
%TF.ProjectId,column,636f6c75-6d6e-42e6-9b69-6361645f7063,rev?*%
%TF.SameCoordinates,Original*%
%TF.FileFunction,Copper,L1,Top*%
%TF.FilePolarity,Positive*%
%FSLAX46Y46*%
G04 Gerber Fmt 4.6, Leading zero omitted, Abs format (unit mm)*
G04 Created by KiCad (PCBNEW 8.0.8) date 2025-03-24 10:51:22*
%MOMM*%
%LPD*%
G01*
G04 APERTURE LIST*
G04 Aperture macros list*
%AMRoundRect*
0 Rectangle with rounded corners*
0 $1 Rounding radius*
0 $2 $3 $4 $5 $6 $7 $8 $9 X,Y pos of 4 corners*
0 Add a 4 corners polygon primitive as box body*
4,1,4,$2,$3,$4,$5,$6,$7,$8,$9,$2,$3,0*
0 Add four circle primitives for the rounded corners*
1,1,$1+$1,$2,$3*
1,1,$1+$1,$4,$5*
1,1,$1+$1,$6,$7*
1,1,$1+$1,$8,$9*
0 Add four rect primitives between the rounded corners*
20,1,$1+$1,$2,$3,$4,$5,0*
20,1,$1+$1,$4,$5,$6,$7,0*
20,1,$1+$1,$6,$7,$8,$9,0*
20,1,$1+$1,$8,$9,$2,$3,0*%
G04 Aperture macros list end*
%TA.AperFunction,SMDPad,CuDef*%
%ADD10RoundRect,0.140000X0.170000X-0.140000X0.170000X0.140000X-0.170000X0.140000X-0.170000X-0.140000X0*%
%TD*%
%TA.AperFunction,ComponentPad*%
%ADD11R,1.700000X1.700000*%
%TD*%
%TA.AperFunction,ComponentPad*%
%ADD12O,1.700000X1.700000*%
%TD*%
%TA.AperFunction,ComponentPad*%
%ADD13R,1.500000X1.050000*%
%TD*%
%TA.AperFunction,ComponentPad*%
%ADD14O,1.500000X1.050000*%
%TD*%
%TA.AperFunction,ComponentPad*%
%ADD15C,1.524000*%
%TD*%
%TA.AperFunction,SMDPad,CuDef*%
%ADD16RoundRect,0.140000X-0.140000X-0.170000X0.140000X-0.170000X0.140000X0.170000X-0.140000X0.170000X0*%
%TD*%
%TA.AperFunction,SMDPad,CuDef*%
%ADD17RoundRect,0.135000X-0.135000X-0.185000X0.135000X-0.185000X0.135000X0.185000X-0.135000X0.185000X0*%
%TD*%
%TA.AperFunction,ComponentPad*%
%ADD18R,1.050000X1.500000*%
%TD*%
%TA.AperFunction,ComponentPad*%
%ADD19O,1.050000X1.500000*%
%TD*%
%TA.AperFunction,SMDPad,CuDef*%
%ADD20RoundRect,0.140000X-0.170000X0.140000X-0.170000X-0.140000X0.170000X-0.140000X0.170000X0.140000X0*%
%TD*%
%TA.AperFunction,ComponentPad*%
%ADD21RoundRect,0.250000X0.600000X0.725000X-0.600000X0.725000X-0.600000X-0.725000X0.600000X-0.725000X0*%
%TD*%
%TA.AperFunction,ComponentPad*%
%ADD22O,1.700000X1.950000*%
%TD*%
%TA.AperFunction,ViaPad*%
%ADD23C,0.600000*%
%TD*%
%TA.AperFunction,Conductor*%
%ADD24C,0.200000*%
%TD*%
G04 APERTURE END LIST*
D10*
%TO.P,R8,1*%
%TO.N,+3.3V*%
X49500000Y-101480000D03*
%TO.P,R8,2*%
%TO.N,/Column_7_Rows/d2*%
X49500000Y-100520000D03*
%TD*%
D11*
%TO.P,D6,1,K*%
%TO.N,GND*%
X70550000Y-55200000D03*
D12*
%TO.P,D6,2,A*%
%TO.N,Net-(D6-A)*%
X68010000Y-55200000D03*
%TD*%
D13*
%TO.P,Q6,1,E*%
%TO.N,GND*%
X79050000Y-89200000D03*
D14*
%TO.P,Q6,2,B*%
%TO.N,Net-(Q6-B)*%
X79050000Y-87930000D03*
%TO.P,Q6,3,C*%
%TO.N,/Column_7_Rows/d6_0*%
X79050000Y-86660000D03*
%TD*%
D13*
%TO.P,Q5,1,E*%
%TO.N,GND*%
X79050000Y-54200000D03*
D14*
%TO.P,Q5,2,B*%
%TO.N,Net-(Q5-B)*%
X79050000Y-52930000D03*
%TO.P,Q5,3,C*%
%TO.N,/Column_7_Rows/d5_0*%
X79050000Y-51660000D03*
%TD*%
D13*
%TO.P,Q1,1,E*%
%TO.N,GND*%
X45500000Y-69000000D03*
D14*
%TO.P,Q1,2,B*%
%TO.N,Net-(Q1-B)*%
X45500000Y-67730000D03*
%TO.P,Q1,3,C*%
%TO.N,/Column_7_Rows/d1*%
X45500000Y-66460000D03*
%TD*%
D13*
%TO.P,Q7,1,E*%
%TO.N,GND*%
X79050000Y-124200000D03*
D14*
%TO.P,Q7,2,B*%
%TO.N,Net-(Q7-B)*%
X79050000Y-122930000D03*
%TO.P,Q7,3,C*%
%TO.N,/Column_7_Rows/d7_0*%
X79050000Y-121660000D03*
%TD*%
D11*
%TO.P,D7,1,K*%
%TO.N,GND*%
X70550000Y-90200000D03*
D12*
%TO.P,D7,2,A*%
%TO.N,Net-(D7-A)*%
X68010000Y-90200000D03*
%TD*%
D15*
%TO.P,R20,1*%
%TO.N,Net-(Q5-B)*%
X68050000Y-51700000D03*
%TO.P,R20,2*%
%TO.N,+3.3V*%
X70550000Y-51750000D03*
%TD*%
D16*
%TO.P,R17,1*%
%TO.N,/Column_7_Rows/column_voltage2*%
X64550000Y-20200000D03*
%TO.P,R17,2*%
%TO.N,Net-(D5-A)*%
X65510000Y-20200000D03*
%TD*%
D15*
%TO.P,R12,1*%
%TO.N,Net-(Q4-B)*%
X34500000Y-171500000D03*
%TO.P,R12,2*%
%TO.N,+3.3V*%
X37000000Y-171550000D03*
%TD*%
D17*
%TO.P,R28,1*%
%TO.N,+3.3V*%
X81465328Y-119675000D03*
%TO.P,R28,2*%
%TO.N,/Column_7_Rows/d7_0*%
X82485328Y-119675000D03*
%TD*%
D16*
%TO.P,R26,1*%
%TO.N,+3.3V*%
X81005328Y-49675000D03*
%TO.P,R26,2*%
%TO.N,/Column_7_Rows/d5_0*%
X81965328Y-49675000D03*
%TD*%
%TO.P,R14,1*%
%TO.N,Net-(Q4-B)*%
X38520000Y-171500000D03*
%TO.P,R14,2*%
%TO.N,GND*%
X39480000Y-171500000D03*
%TD*%
%TO.P,R27,1*%
%TO.N,+3.3V*%
X80985328Y-84675000D03*
%TO.P,R27,2*%
%TO.N,/Column_7_Rows/d6_0*%
X81945328Y-84675000D03*
%TD*%
%TO.P,R5,1*%
%TO.N,/Column_7_Rows/column_voltage*%
X31000000Y-70000000D03*
%TO.P,R5,2*%
%TO.N,Net-(D2-A)*%
X31960000Y-70000000D03*
%TD*%
%TO.P,R13,1*%
%TO.N,Net-(Q3-B)*%
X39040000Y-136500000D03*
%TO.P,R13,2*%
%TO.N,GND*%
X40000000Y-136500000D03*
%TD*%
D13*
%TO.P,Q4,1,E*%
%TO.N,GND*%
X45000000Y-174000000D03*
D14*
%TO.P,Q4,2,B*%
%TO.N,Net-(Q4-B)*%
X45000000Y-172730000D03*
%TO.P,Q4,3,C*%
%TO.N,/Column_7_Rows/d4*%
X45000000Y-171460000D03*
%TD*%
D15*
%TO.P,R21,1*%
%TO.N,Net-(Q6-B)*%
X68050000Y-86700000D03*
%TO.P,R21,2*%
%TO.N,+3.3V*%
X70550000Y-86750000D03*
%TD*%
D16*
%TO.P,R24,1*%
%TO.N,Net-(Q6-B)*%
X73070000Y-86700000D03*
%TO.P,R24,2*%
%TO.N,GND*%
X74030000Y-86700000D03*
%TD*%
%TO.P,R9,1*%
%TO.N,/Column_7_Rows/column_voltage*%
X31020000Y-105000000D03*
%TO.P,R9,2*%
%TO.N,Net-(D3-A)*%
X31980000Y-105000000D03*
%TD*%
D15*
%TO.P,R2,1*%
%TO.N,Net-(Q1-B)*%
X34500000Y-66500000D03*
%TO.P,R2,2*%
%TO.N,+3.3V*%
X37000000Y-66550000D03*
%TD*%
D11*
%TO.P,D4,1,K*%
%TO.N,GND*%
X37000000Y-140000000D03*
D12*
%TO.P,D4,2,A*%
%TO.N,Net-(D4-A)*%
X34460000Y-140000000D03*
%TD*%
D18*
%TO.P,Q8,1,E*%
%TO.N,GND*%
X35960000Y-28000000D03*
D19*
%TO.P,Q8,2,B*%
%TO.N,/Column_7_Rows/Column_voltage*%
X34690000Y-28000000D03*
%TO.P,Q8,3,C*%
%TO.N,/Column_7_Rows/column_voltage*%
X33420000Y-28000000D03*
%TD*%
D13*
%TO.P,Q3,1,E*%
%TO.N,GND*%
X43860000Y-139000000D03*
D14*
%TO.P,Q3,2,B*%
%TO.N,Net-(Q3-B)*%
X43860000Y-137730000D03*
%TO.P,Q3,3,C*%
%TO.N,/Column_7_Rows/d3*%
X43860000Y-136460000D03*
%TD*%
D16*
%TO.P,R10,1*%
%TO.N,/Column_7_Rows/column_voltage*%
X31000000Y-140000000D03*
%TO.P,R10,2*%
%TO.N,Net-(D4-A)*%
X31960000Y-140000000D03*
%TD*%
D11*
%TO.P,D2,1,K*%
%TO.N,GND*%
X37000000Y-70000000D03*
D12*
%TO.P,D2,2,A*%
%TO.N,Net-(D2-A)*%
X34460000Y-70000000D03*
%TD*%
D11*
%TO.P,D1,1,K*%
%TO.N,GND*%
X37000000Y-35000000D03*
D12*
%TO.P,D1,2,A*%
%TO.N,Net-(D1-A)*%
X34460000Y-35000000D03*
%TD*%
D16*
%TO.P,R19,1*%
%TO.N,/Column_7_Rows/column_voltage2*%
X64800000Y-90200000D03*
%TO.P,R19,2*%
%TO.N,Net-(D7-A)*%
X65760000Y-90200000D03*
%TD*%
D15*
%TO.P,R22,1*%
%TO.N,Net-(Q7-B)*%
X68050000Y-121700000D03*
%TO.P,R22,2*%
%TO.N,+3.3V*%
X70550000Y-121750000D03*
%TD*%
D16*
%TO.P,R1,1*%
%TO.N,/Column_7_Rows/column_voltage*%
X32020000Y-32000000D03*
%TO.P,R1,2*%
%TO.N,Net-(D1-A)*%
X32980000Y-32000000D03*
%TD*%
D11*
%TO.P,D5,1,K*%
%TO.N,GND*%
X70507664Y-20175000D03*
D12*
%TO.P,D5,2,A*%
%TO.N,Net-(D5-A)*%
X67967664Y-20175000D03*
%TD*%
D16*
%TO.P,R25,1*%
%TO.N,Net-(Q7-B)*%
X73050000Y-121700000D03*
%TO.P,R25,2*%
%TO.N,GND*%
X74010000Y-121700000D03*
%TD*%
D15*
%TO.P,R11,1*%
%TO.N,Net-(Q3-B)*%
X37000000Y-136500000D03*
%TO.P,R11,2*%
%TO.N,+3.3V*%
X34500000Y-136450000D03*
%TD*%
D16*
%TO.P,R18,1*%
%TO.N,/Column_7_Rows/column_voltage2*%
X64550000Y-55200000D03*
%TO.P,R18,2*%
%TO.N,Net-(D6-A)*%
X65510000Y-55200000D03*
%TD*%
%TO.P,R3,1*%
%TO.N,Net-(Q1-B)*%
X31520000Y-66500000D03*
%TO.P,R3,2*%
%TO.N,GND*%
X32480000Y-66500000D03*
%TD*%
D13*
%TO.P,Q2,1,E*%
%TO.N,GND*%
X45500000Y-104000000D03*
D14*
%TO.P,Q2,2,B*%
%TO.N,Net-(Q2-B)*%
X45500000Y-102730000D03*
%TO.P,Q2,3,C*%
%TO.N,/Column_7_Rows/d2*%
X45500000Y-101460000D03*
%TD*%
D15*
%TO.P,R6,1*%
%TO.N,Net-(Q2-B)*%
X37000000Y-101500000D03*
%TO.P,R6,2*%
%TO.N,+3.3V*%
X34500000Y-101450000D03*
%TD*%
D10*
%TO.P,R15,1*%
%TO.N,+3.3V*%
X48360000Y-136980000D03*
%TO.P,R15,2*%
%TO.N,/Column_7_Rows/d3*%
X48360000Y-136020000D03*
%TD*%
D11*
%TO.P,D3,1,K*%
%TO.N,GND*%
X37000000Y-105000000D03*
D12*
%TO.P,D3,2,A*%
%TO.N,Net-(D3-A)*%
X34460000Y-105000000D03*
%TD*%
D16*
%TO.P,R4,1*%
%TO.N,+3.3V*%
X49520000Y-66500000D03*
%TO.P,R4,2*%
%TO.N,/Column_7_Rows/d1*%
X50480000Y-66500000D03*
%TD*%
%TO.P,R23,1*%
%TO.N,Net-(Q5-B)*%
X73050000Y-51200000D03*
%TO.P,R23,2*%
%TO.N,GND*%
X74010000Y-51200000D03*
%TD*%
D20*
%TO.P,R16,1*%
%TO.N,+3.3V*%
X48500000Y-169000000D03*
%TO.P,R16,2*%
%TO.N,/Column_7_Rows/d4*%
X48500000Y-169960000D03*
%TD*%
D16*
%TO.P,R7,1*%
%TO.N,Net-(Q2-B)*%
X39520000Y-101500000D03*
%TO.P,R7,2*%
%TO.N,GND*%
X40480000Y-101500000D03*
%TD*%
D11*
%TO.P,J13,1,Pin_1*%
%TO.N,/Column_7_Rows/d1*%
X24000000Y-75460000D03*
D12*
%TO.P,J13,2,Pin_2*%
%TO.N,/Column_7_Rows/d2*%
X24000000Y-78000000D03*
%TO.P,J13,3,Pin_3*%
%TO.N,/Column_7_Rows/d3*%
X24000000Y-80540000D03*
%TO.P,J13,4,Pin_4*%
%TO.N,/Column_7_Rows/d4*%
X24000000Y-83080000D03*
%TO.P,J13,5,Pin_5*%
%TO.N,/Column_7_Rows/d5_1*%
X24000000Y-85620000D03*
%TO.P,J13,6,Pin_6*%
%TO.N,/Column_7_Rows/d6_1*%
X24000000Y-88160000D03*
%TO.P,J13,7,Pin_7*%
%TO.N,/Column_7_Rows/d7_1*%
X24000000Y-90700000D03*
%TD*%
D11*
%TO.P,J3,1,Pin_1*%
%TO.N,/Column_7_Rows/d7_1*%
X51000000Y-90700000D03*
D12*
%TO.P,J3,2,Pin_2*%
%TO.N,/Column_7_Rows/d6_1*%
X51000000Y-88160000D03*
%TO.P,J3,3,Pin_3*%
%TO.N,/Column_7_Rows/d5_1*%
X51000000Y-85620000D03*
%TO.P,J3,4,Pin_4*%
%TO.N,/Column_7_Rows/d4*%
X51000000Y-83080000D03*
%TO.P,J3,5,Pin_5*%
%TO.N,/Column_7_Rows/d3*%
X51000000Y-80540000D03*
%TO.P,J3,6,Pin_6*%
%TO.N,/Column_7_Rows/d2*%
X51000000Y-78000000D03*
%TO.P,J3,7,Pin_7*%
%TO.N,/Column_7_Rows/d1*%
X51000000Y-75460000D03*
%TD*%
D11*
%TO.P,J18,1,Pin_1*%
%TO.N,/Column_7_Rows/d7_0*%
X72000000Y-17375000D03*
D12*
%TO.P,J18,2,Pin_2*%
%TO.N,/Column_7_Rows/d6_0*%
X69460000Y-17375000D03*
%TO.P,J18,3,Pin_3*%
%TO.N,/Column_7_Rows/d5_0*%
X66920000Y-17375000D03*
%TO.P,J18,4,Pin_4*%
%TO.N,/Column_7_Rows/column_voltage2*%
X64380000Y-17375000D03*
%TO.P,J18,5,Pin_5*%
%TO.N,+3.3V*%
X61840000Y-17375000D03*
%TO.P,J18,6,Pin_6*%
%TO.N,GND*%
X59300000Y-17375000D03*
%TD*%
D11*
%TO.P,J17,1,Pin_1*%
%TO.N,GND*%
X28380000Y-174025000D03*
D12*
%TO.P,J17,2,Pin_2*%
%TO.N,+3.3V*%
X30920000Y-174025000D03*
%TO.P,J17,3,Pin_3*%
%TO.N,/Column_7_Rows/column_voltage*%
X33460000Y-174025000D03*
%TO.P,J17,4,Pin_4*%
%TO.N,/Column_7_Rows/d5_1*%
X36000000Y-174025000D03*
%TO.P,J17,5,Pin_5*%
%TO.N,/Column_7_Rows/d6_1*%
X38540000Y-174025000D03*
%TO.P,J17,6,Pin_6*%
%TO.N,/Column_7_Rows/d7_1*%
X41080000Y-174025000D03*
%TD*%
D21*
%TO.P,J2,1,Pin_1*%
%TO.N,GND*%
X36000000Y-21000000D03*
D22*
%TO.P,J2,2,Pin_2*%
%TO.N,/Column_7_Rows/Column_voltage*%
X33500000Y-21000000D03*
%TO.P,J2,3,Pin_3*%
%TO.N,+3.3V*%
X31000000Y-21000000D03*
%TD*%
D23*
%TO.N,GND*%
X40000000Y-136500000D03*
X80507664Y-54175000D03*
X44000000Y-104000000D03*
X74982664Y-121700000D03*
X38500000Y-70000000D03*
X37000000Y-33500000D03*
X41000000Y-101000000D03*
X32480000Y-66500000D03*
X74010000Y-51200000D03*
X37500000Y-21000000D03*
X78007664Y-89675000D03*
X74030000Y-86700000D03*
X72007664Y-19675000D03*
X71982664Y-90200000D03*
X78007664Y-125175000D03*
X38500000Y-105000000D03*
X45500000Y-139000000D03*
X46500000Y-174000000D03*
X40500000Y-171500000D03*
%TO.N,/Column_7_Rows/d3*%
X46000000Y-106000000D03*
%TO.N,/Column_7_Rows/d4*%
X39500000Y-140800000D03*
X42400000Y-84100000D03*
%TO.N,/Column_7_Rows/d2*%
X45000000Y-88000000D03*
%TO.N,+3.3V*%
X30920000Y-172500000D03*
X49500000Y-101480000D03*
X48500000Y-167980000D03*
X72007664Y-52175000D03*
X48360000Y-136980000D03*
X81465328Y-119675000D03*
X48725000Y-66750000D03*
X81005328Y-49675000D03*
X71007664Y-85675000D03*
X33000000Y-101500000D03*
X71007664Y-123175000D03*
X33000000Y-136500000D03*
X38000000Y-66500000D03*
X80985328Y-84675000D03*
%TO.N,/Column_7_Rows/column_voltage*%
X31000000Y-71500000D03*
X31500000Y-92500000D03*
%TO.N,/Column_7_Rows/d7_1*%
X48400000Y-95600000D03*
%TO.N,/Column_7_Rows/d6_1*%
X47400000Y-86620000D03*
%TO.N,/Column_7_Rows/column_voltage2*%
X64500000Y-20200000D03*
X64507664Y-55175000D03*
X64800000Y-90200000D03*
%TO.N,/Column_7_Rows/d5_0*%
X74965328Y-32175000D03*
%TO.N,/Column_7_Rows/d7_0*%
X75700000Y-93100000D03*
%TD*%
D24*
%TO.N,GND*%
X37000000Y-70000000D02*
X38500000Y-70000000D01*
X36000000Y-21000000D02*
X37500000Y-21000000D01*
X79050000Y-54200000D02*
X80482664Y-54200000D01*
X37000000Y-105000000D02*
X38500000Y-105000000D01*
X37000000Y-35000000D02*
X37000000Y-33500000D01*
X78982664Y-124200000D02*
X78007664Y-125175000D01*
X70550000Y-90200000D02*
X71982664Y-90200000D01*
X78482664Y-89200000D02*
X78007664Y-89675000D01*
X35960000Y-21040000D02*
X36000000Y-21000000D01*
X40480000Y-101500000D02*
X40500000Y-101500000D01*
X79050000Y-89200000D02*
X78482664Y-89200000D01*
X40500000Y-101500000D02*
X41000000Y-101000000D01*
X39480000Y-171500000D02*
X40500000Y-171500000D01*
X80482664Y-54200000D02*
X80507664Y-54175000D01*
X45500000Y-104000000D02*
X44000000Y-104000000D01*
X74010000Y-121700000D02*
X74982664Y-121700000D01*
X43860000Y-139000000D02*
X45500000Y-139000000D01*
X35960000Y-28000000D02*
X35960000Y-21040000D01*
X45000000Y-174000000D02*
X46500000Y-174000000D01*
X79050000Y-124200000D02*
X78982664Y-124200000D01*
%TO.N,Net-(D2-A)*%
X31960000Y-70000000D02*
X34460000Y-70000000D01*
%TO.N,Net-(D3-A)*%
X34460000Y-105000000D02*
X31980000Y-105000000D01*
%TO.N,Net-(D4-A)*%
X31960000Y-140000000D02*
X34460000Y-140000000D01*
%TO.N,Net-(D5-A)*%
X65510000Y-20200000D02*
X67942664Y-20200000D01*
X67942664Y-20200000D02*
X67967664Y-20175000D01*
%TO.N,Net-(D6-A)*%
X65510000Y-55200000D02*
X68010000Y-55200000D01*
%TO.N,Net-(D7-A)*%
X65760000Y-90200000D02*
X68010000Y-90200000D01*
%TO.N,/Column_7_Rows/d3*%
X48500000Y-108500000D02*
X46000000Y-106000000D01*
X48360000Y-135640000D02*
X48500000Y-135500000D01*
X43860000Y-136460000D02*
X47920000Y-136460000D01*
X24000000Y-80540000D02*
X24280000Y-80260000D01*
X48360000Y-136020000D02*
X48360000Y-135640000D01*
X48500000Y-135500000D02*
X48500000Y-108500000D01*
X35500000Y-80260000D02*
X51040000Y-80260000D01*
X47920000Y-136460000D02*
X48360000Y-136020000D01*
X24280000Y-80260000D02*
X35500000Y-80260000D01*
%TO.N,/Column_7_Rows/d1*%
X46500000Y-75500000D02*
X47205000Y-74795000D01*
X46340000Y-75460000D02*
X46300000Y-75500000D01*
X45500000Y-66460000D02*
X46070000Y-65890000D01*
X24040000Y-75500000D02*
X46300000Y-75500000D01*
X47205000Y-69775000D02*
X50480000Y-66500000D01*
X46070000Y-65890000D02*
X49870000Y-65890000D01*
X51000000Y-75460000D02*
X46340000Y-75460000D01*
X46300000Y-75500000D02*
X46500000Y-75500000D01*
X47205000Y-74795000D02*
X47205000Y-69775000D01*
X49870000Y-65890000D02*
X50480000Y-66500000D01*
X24000000Y-75460000D02*
X24040000Y-75500000D01*
%TO.N,/Column_7_Rows/d4*%
X49500000Y-150800000D02*
X39500000Y-140800000D01*
X48500000Y-84080000D02*
X48300000Y-84080000D01*
X49620000Y-83080000D02*
X48620000Y-84080000D01*
X51000000Y-83080000D02*
X49620000Y-83080000D01*
X48500000Y-169960000D02*
X49040000Y-169960000D01*
X49500000Y-169500000D02*
X49500000Y-150800000D01*
X49040000Y-169960000D02*
X49500000Y-169500000D01*
X48300000Y-84080000D02*
X25000000Y-84080000D01*
X45000000Y-171460000D02*
X47000000Y-171460000D01*
X48620000Y-84080000D02*
X48300000Y-84080000D01*
X25000000Y-84080000D02*
X24000000Y-83080000D01*
X47000000Y-171460000D02*
X48500000Y-169960000D01*
%TO.N,/Column_7_Rows/d2*%
X50800000Y-77500000D02*
X51040000Y-77740000D01*
X27200000Y-77740000D02*
X26940000Y-78000000D01*
X48751177Y-77523251D02*
X48774428Y-77500000D01*
X48000000Y-100500000D02*
X45000000Y-97500000D01*
X33000000Y-77740000D02*
X33490000Y-77250000D01*
X47040000Y-101460000D02*
X48000000Y-100500000D01*
X47881327Y-77523251D02*
X48751177Y-77523251D01*
X47608076Y-77250000D02*
X47881327Y-77523251D01*
X27200000Y-77740000D02*
X33000000Y-77740000D01*
X48774428Y-77500000D02*
X50800000Y-77500000D01*
X33490000Y-77250000D02*
X47608076Y-77250000D01*
X48000000Y-100500000D02*
X48020000Y-100520000D01*
X45000000Y-97500000D02*
X45000000Y-88000000D01*
X48020000Y-100520000D02*
X49500000Y-100520000D01*
X26940000Y-78000000D02*
X24000000Y-78000000D01*
X45500000Y-101460000D02*
X47040000Y-101460000D01*
%TO.N,/Column_7_Rows/Column_voltage*%
X34690000Y-22190000D02*
X34690000Y-28000000D01*
X33500000Y-21000000D02*
X34690000Y-22190000D01*
%TO.N,+3.3V*%
X71007664Y-123175000D02*
X70550000Y-122717336D01*
X70550000Y-86132664D02*
X71007664Y-85675000D01*
X48500000Y-169000000D02*
X48500000Y-167980000D01*
X37950000Y-66550000D02*
X38000000Y-66500000D01*
X33050000Y-136450000D02*
X33000000Y-136500000D01*
X48725000Y-66750000D02*
X49270000Y-66750000D01*
X30920000Y-172420000D02*
X30900000Y-172400000D01*
X30920000Y-172500000D02*
X30920000Y-172420000D01*
X70550000Y-122717336D02*
X70550000Y-121750000D01*
X34500000Y-136450000D02*
X33050000Y-136450000D01*
X37000000Y-66550000D02*
X37950000Y-66550000D01*
X49270000Y-66750000D02*
X49520000Y-66500000D01*
%TO.N,Net-(D1-A)*%
X32980000Y-32000000D02*
X32980000Y-33520000D01*
X32980000Y-33520000D02*
X34460000Y-35000000D01*
%TO.N,Net-(Q2-B)*%
X37000000Y-101500000D02*
X39520000Y-101500000D01*
X45500000Y-102730000D02*
X40750000Y-102730000D01*
X40750000Y-102730000D02*
X39520000Y-101500000D01*
%TO.N,Net-(Q3-B)*%
X37000000Y-136500000D02*
X39040000Y-136500000D01*
X40270000Y-137730000D02*
X43860000Y-137730000D01*
X39040000Y-136500000D02*
X40270000Y-137730000D01*
%TO.N,Net-(Q4-B)*%
X38520000Y-171809999D02*
X38520000Y-171500000D01*
X34500000Y-171500000D02*
X35612000Y-172612000D01*
X35612000Y-172612000D02*
X37717999Y-172612000D01*
X39750000Y-172730000D02*
X45000000Y-172730000D01*
X37717999Y-172612000D02*
X38520000Y-171809999D01*
X38520000Y-171500000D02*
X39750000Y-172730000D01*
%TO.N,Net-(Q5-B)*%
X69062000Y-50688000D02*
X72538000Y-50688000D01*
X72538000Y-50688000D02*
X73050000Y-51200000D01*
X73050000Y-51200000D02*
X74780000Y-52930000D01*
X68050000Y-51700000D02*
X69062000Y-50688000D01*
X74780000Y-52930000D02*
X79050000Y-52930000D01*
%TO.N,Net-(Q6-B)*%
X79050000Y-87930000D02*
X74300000Y-87930000D01*
X71958000Y-87812000D02*
X73070000Y-86700000D01*
X74300000Y-87930000D02*
X73070000Y-86700000D01*
X68050000Y-86700000D02*
X69162000Y-87812000D01*
X69162000Y-87812000D02*
X71958000Y-87812000D01*
%TO.N,Net-(Q7-B)*%
X68050000Y-121700000D02*
X69062000Y-120688000D01*
X74280000Y-122930000D02*
X79050000Y-122930000D01*
X72038000Y-120688000D02*
X73050000Y-121700000D01*
X69062000Y-120688000D02*
X72038000Y-120688000D01*
X73050000Y-121700000D02*
X74280000Y-122930000D01*
%TO.N,/Column_7_Rows/column_voltage*%
X31020000Y-139480000D02*
X31020000Y-105000000D01*
X29870000Y-141130000D02*
X29870000Y-169070000D01*
X29870000Y-169070000D02*
X32600000Y-171800000D01*
X33420000Y-28000000D02*
X33420000Y-30580000D01*
X32600000Y-171800000D02*
X32600000Y-173165000D01*
X30000000Y-69000000D02*
X31000000Y-70000000D01*
X31000000Y-70000000D02*
X31000000Y-71500000D01*
X31020000Y-105000000D02*
X31020000Y-92980000D01*
X31000000Y-140000000D02*
X31000000Y-139500000D01*
X33420000Y-30580000D02*
X31500000Y-32500000D01*
X31520000Y-35000000D02*
X31520000Y-61980000D01*
X31520000Y-61980000D02*
X30000000Y-63500000D01*
X31520000Y-32520000D02*
X31520000Y-35000000D01*
X31000000Y-139500000D02*
X31020000Y-139480000D01*
X31500000Y-32500000D02*
X31520000Y-32520000D01*
X30000000Y-63500000D02*
X30000000Y-69000000D01*
X31000000Y-140000000D02*
X29870000Y-141130000D01*
X32600000Y-173165000D02*
X33460000Y-174025000D01*
X31020000Y-92980000D02*
X31500000Y-92500000D01*
%TO.N,Net-(Q1-B)*%
X34500000Y-66500000D02*
X35730000Y-67730000D01*
X31520000Y-66500000D02*
X32281999Y-65738001D01*
X35730000Y-67730000D02*
X45500000Y-67730000D01*
X32281999Y-65738001D02*
X33738001Y-65738001D01*
X33738001Y-65738001D02*
X34500000Y-66500000D01*
%TO.N,/Column_7_Rows/d7_1*%
X45227818Y-87450000D02*
X48400000Y-90622182D01*
X24000000Y-90700000D02*
X41400000Y-90700000D01*
X48400000Y-90622182D02*
X48400000Y-95600000D01*
X41400000Y-90700000D02*
X44650000Y-87450000D01*
X44650000Y-87450000D02*
X45227818Y-87450000D01*
%TO.N,/Column_7_Rows/d6_1*%
X24000000Y-87120000D02*
X24500000Y-86620000D01*
X24500000Y-86620000D02*
X47400000Y-86620000D01*
X24000000Y-88160000D02*
X24000000Y-87120000D01*
%TO.N,/Column_7_Rows/d5_1*%
X51000000Y-85620000D02*
X24000000Y-85620000D01*
%TO.N,/Column_7_Rows/column_voltage2*%
X64550000Y-20200000D02*
X64550000Y-55200000D01*
%TO.N,/Column_7_Rows/d6_0*%
X68360000Y-18475000D02*
X69460000Y-17375000D01*
X79960328Y-86660000D02*
X81945328Y-84675000D01*
X65025000Y-18475000D02*
X68360000Y-18475000D01*
X79050000Y-86660000D02*
X79960328Y-86660000D01*
X76950328Y-86660000D02*
X79050000Y-86660000D01*
X81945328Y-84675000D02*
X81945328Y-81245328D01*
X81945328Y-81245328D02*
X61300000Y-60600000D01*
X61300000Y-60600000D02*
X61300000Y-22200000D01*
X61300000Y-22200000D02*
X65025000Y-18475000D01*
%TO.N,/Column_7_Rows/d5_0*%
X76757664Y-33967336D02*
X74965328Y-32175000D01*
X81965328Y-49675000D02*
X76757664Y-44467336D01*
X76757664Y-44467336D02*
X76757664Y-33967336D01*
X79050000Y-51660000D02*
X79980328Y-51660000D01*
X79980328Y-51660000D02*
X81965328Y-49675000D01*
%TO.N,/Column_7_Rows/d7_0*%
X79485328Y-116675000D02*
X79485328Y-96885328D01*
X80500328Y-121660000D02*
X82485328Y-119675000D01*
X79050000Y-121660000D02*
X80500328Y-121660000D01*
X82485328Y-119675000D02*
X79485328Y-116675000D01*
X79485328Y-96885328D02*
X75700000Y-93100000D01*
%TD*%
%TA.AperFunction,NonConductor*%
G36*
X52500000Y-39580311D02*
G01*
X52499689Y-39577950D01*
X52500000Y-39575954D01*
X52500000Y-39580311D01*
G37*
%TD.AperFunction*%
%TA.AperFunction,NonConductor*%
G36*
X52500000Y-40282241D02*
G01*
X52466392Y-40156814D01*
X52411650Y-40061999D01*
X52395178Y-39994100D01*
X52411650Y-39938000D01*
X52466392Y-39843186D01*
X52500000Y-39717758D01*
X52500000Y-40282241D01*
G37*
%TD.AperFunction*%
%TA.AperFunction,NonConductor*%
G36*
X52500000Y-40455433D02*
G01*
X52499747Y-40454867D01*
X52499689Y-40422050D01*
X52500000Y-40419688D01*
X52500000Y-40455433D01*
G37*
%TD.AperFunction*%
%TA.AperFunction,NonConductor*%
G36*
X47876956Y-66510185D02*
G01*
X47922711Y-66562989D01*
X47933137Y-66628383D01*
X47919435Y-66749996D01*
X47919435Y-66750003D01*
X47939630Y-66929249D01*
X47939631Y-66929254D01*
X47999211Y-67099523D01*
X48049849Y-67180112D01*
X48095184Y-67252262D01*
X48222738Y-67379816D01*
X48303993Y-67430872D01*
X48375478Y-67475789D01*
X48396254Y-67483059D01*
X48453030Y-67523781D01*
X48478778Y-67588733D01*
X48465322Y-67657295D01*
X48442981Y-67687782D01*
X46962180Y-69168584D01*
X46900857Y-69202069D01*
X46831165Y-69197085D01*
X46775232Y-69155213D01*
X46750815Y-69089749D01*
X46750499Y-69080903D01*
X46750499Y-68427129D01*
X46750498Y-68427123D01*
X46744091Y-68367516D01*
X46693797Y-68232671D01*
X46693796Y-68232670D01*
X46693796Y-68232669D01*
X46692967Y-68231562D01*
X46692485Y-68230268D01*
X46689546Y-68224886D01*
X46690319Y-68224463D01*
X46668551Y-68166099D01*
X46677675Y-68109798D01*
X46711089Y-68029132D01*
X46711089Y-68029131D01*
X46711091Y-68029127D01*
X46750500Y-67831003D01*
X46750500Y-67628997D01*
X46711091Y-67430873D01*
X46641346Y-67262495D01*
X46633787Y-67244246D01*
X46626404Y-67233196D01*
X46580094Y-67163889D01*
X46559217Y-67097214D01*
X46577701Y-67029834D01*
X46580078Y-67026134D01*
X46633786Y-66945756D01*
X46711091Y-66759127D01*
X46744671Y-66590309D01*
X46777055Y-66528398D01*
X46837771Y-66493824D01*
X46866288Y-66490500D01*
X47809917Y-66490500D01*
X47876956Y-66510185D01*
G37*
%TD.AperFunction*%
%TA.AperFunction,NonConductor*%
G36*
X51942539Y-15520185D02*
G01*
X51988294Y-15572989D01*
X51999500Y-15624500D01*
X51999500Y-38345107D01*
X51979815Y-38412146D01*
X51947739Y-38442732D01*
X51949135Y-38444552D01*
X51942683Y-38449502D01*
X51849502Y-38542683D01*
X51849500Y-38542686D01*
X51783608Y-38656812D01*
X51749500Y-38784108D01*
X51749500Y-38915891D01*
X51783609Y-39043188D01*
X51783609Y-39043189D01*
X51788213Y-39051163D01*
X51804686Y-39119063D01*
X51781834Y-39185090D01*
X51742828Y-39220549D01*
X51692689Y-39249497D01*
X51692683Y-39249502D01*
X51599502Y-39342683D01*
X51599500Y-39342686D01*
X51533608Y-39456812D01*
X51499500Y-39584108D01*
X51499500Y-39715891D01*
X51533609Y-39843188D01*
X51533609Y-39843189D01*
X51588348Y-39938000D01*
X51604821Y-40005900D01*
X51588348Y-40062000D01*
X51533609Y-40156810D01*
X51533609Y-40156811D01*
X51499500Y-40284108D01*
X51499500Y-40415891D01*
X51533608Y-40543187D01*
X51545085Y-40563065D01*
X51599500Y-40657314D01*
X51692686Y-40750500D01*
X51742521Y-40779272D01*
X51742827Y-40779449D01*
X51791042Y-40830017D01*
X51804264Y-40898624D01*
X51788215Y-40948833D01*
X51783609Y-40956810D01*
X51783609Y-40956811D01*
X51749500Y-41084108D01*
X51749500Y-41215891D01*
X51783608Y-41343187D01*
X51816554Y-41400250D01*
X51849500Y-41457314D01*
X51942686Y-41550500D01*
X51942688Y-41550501D01*
X51949137Y-41555450D01*
X51947324Y-41557812D01*
X51985710Y-41598062D01*
X51999500Y-41654893D01*
X51999500Y-74272998D01*
X51979815Y-74340037D01*
X51927011Y-74385792D01*
X51857853Y-74395736D01*
X51804377Y-74374573D01*
X51677834Y-74285967D01*
X51677830Y-74285965D01*
X51650022Y-74272998D01*
X51463663Y-74186097D01*
X51463659Y-74186096D01*
X51463655Y-74186094D01*
X51235413Y-74124938D01*
X51235403Y-74124936D01*
X51000001Y-74104341D01*
X50999999Y-74104341D01*
X50764596Y-74124936D01*
X50764586Y-74124938D01*
X50536344Y-74186094D01*
X50536335Y-74186098D01*
X50322171Y-74285964D01*
X50322169Y-74285965D01*
X50128597Y-74421505D01*
X49961506Y-74588596D01*
X49825965Y-74782170D01*
X49825962Y-74782175D01*
X49823289Y-74787909D01*
X49777115Y-74840346D01*
X49710909Y-74859500D01*
X47929501Y-74859500D01*
X47862462Y-74839815D01*
X47816707Y-74787011D01*
X47805501Y-74735500D01*
X47805501Y-74708347D01*
X47805500Y-74708329D01*
X47805500Y-70075097D01*
X47825185Y-70008058D01*
X47841819Y-69987416D01*
X50482416Y-67346819D01*
X50543739Y-67313334D01*
X50570097Y-67310500D01*
X50684682Y-67310500D01*
X50684690Y-67310500D01*
X50720993Y-67307643D01*
X50720995Y-67307642D01*
X50720997Y-67307642D01*
X50761975Y-67295736D01*
X50876395Y-67262494D01*
X51015687Y-67180117D01*
X51130117Y-67065687D01*
X51212494Y-66926395D01*
X51257643Y-66770993D01*
X51260500Y-66734690D01*
X51260500Y-66265310D01*
X51257643Y-66229007D01*
X51234827Y-66150476D01*
X51212495Y-66073609D01*
X51212494Y-66073606D01*
X51212494Y-66073605D01*
X51130117Y-65934313D01*
X51130115Y-65934311D01*
X51130112Y-65934307D01*
X51015692Y-65819887D01*
X51015684Y-65819881D01*
X50876393Y-65737505D01*
X50876390Y-65737504D01*
X50720997Y-65692357D01*
X50720991Y-65692356D01*
X50684697Y-65689500D01*
X50684690Y-65689500D01*
X50570097Y-65689500D01*
X50503058Y-65669815D01*
X50482416Y-65653181D01*
X50357590Y-65528355D01*
X50357588Y-65528352D01*
X50238717Y-65409481D01*
X50238716Y-65409480D01*
X50151465Y-65359106D01*
X50151464Y-65359105D01*
X50101790Y-65330425D01*
X50101789Y-65330424D01*
X50089263Y-65327067D01*
X49949057Y-65289499D01*
X49790943Y-65289499D01*
X49783347Y-65289499D01*
X49783331Y-65289500D01*
X46156670Y-65289500D01*
X46156654Y-65289499D01*
X46149058Y-65289499D01*
X45990943Y-65289499D01*
X45917778Y-65309104D01*
X45838214Y-65330423D01*
X45838209Y-65330426D01*
X45694245Y-65413543D01*
X45693469Y-65412200D01*
X45636904Y-65434070D01*
X45626585Y-65434500D01*
X45173992Y-65434500D01*
X44975880Y-65473907D01*
X44975872Y-65473909D01*
X44789247Y-65551212D01*
X44789237Y-65551217D01*
X44621281Y-65663441D01*
X44478441Y-65806281D01*
X44366217Y-65974237D01*
X44366212Y-65974247D01*
X44288909Y-66160872D01*
X44288907Y-66160880D01*
X44249500Y-66358992D01*
X44249500Y-66561007D01*
X44288907Y-66759119D01*
X44288909Y-66759127D01*
X44366214Y-66945757D01*
X44366900Y-66947040D01*
X44367056Y-66947789D01*
X44368545Y-66951384D01*
X44367863Y-66951666D01*
X44381147Y-67015442D01*
X44356151Y-67080687D01*
X44299848Y-67122061D01*
X44257546Y-67129500D01*
X38774228Y-67129500D01*
X38707189Y-67109815D01*
X38661434Y-67057011D01*
X38651490Y-66987853D01*
X38669235Y-66939527D01*
X38725788Y-66849524D01*
X38753591Y-66770068D01*
X38785368Y-66679255D01*
X38798468Y-66562989D01*
X38805565Y-66500003D01*
X38805565Y-66499996D01*
X38785369Y-66320750D01*
X38785368Y-66320745D01*
X38725788Y-66150476D01*
X38661957Y-66048890D01*
X38629816Y-65997738D01*
X38502262Y-65870184D01*
X38422215Y-65819887D01*
X38349523Y-65774211D01*
X38179254Y-65714631D01*
X38179249Y-65714630D01*
X38000004Y-65694435D01*
X38000001Y-65694435D01*
X38000000Y-65694435D01*
X37996316Y-65694849D01*
X37993948Y-65694435D01*
X37993037Y-65694435D01*
X37993037Y-65694275D01*
X37927495Y-65682793D01*
X37894756Y-65659310D01*
X37814621Y-65579175D01*
X37814615Y-65579170D01*
X37633666Y-65452468D01*
X37633662Y-65452466D01*
X37633660Y-65452465D01*
X37433450Y-65359106D01*
X37433447Y-65359105D01*
X37433445Y-65359104D01*
X37220070Y-65301930D01*
X37220062Y-65301929D01*
X37000002Y-65282677D01*
X36999998Y-65282677D01*
X36779937Y-65301929D01*
X36779929Y-65301930D01*
X36566554Y-65359104D01*
X36566548Y-65359107D01*
X36366340Y-65452465D01*
X36366338Y-65452466D01*
X36185377Y-65579175D01*
X36029175Y-65735377D01*
X35902466Y-65916338D01*
X35902462Y-65916345D01*
X35874038Y-65977300D01*
X35827865Y-66029739D01*
X35760671Y-66048890D01*
X35693791Y-66028673D01*
X35649276Y-65977300D01*
X35597534Y-65866339D01*
X35505834Y-65735377D01*
X35470827Y-65685381D01*
X35438627Y-65653181D01*
X35314620Y-65529174D01*
X35314616Y-65529171D01*
X35314615Y-65529170D01*
X35133666Y-65402468D01*
X35133662Y-65402466D01*
X35062509Y-65369287D01*
X34933450Y-65309106D01*
X34933447Y-65309105D01*
X34933445Y-65309104D01*
X34720070Y-65251930D01*
X34720062Y-65251929D01*
X34500002Y-65232677D01*
X34499998Y-65232677D01*
X34279938Y-65251929D01*
X34279934Y-65251929D01*
X34279932Y-65251930D01*
X34279926Y-65251931D01*
X34279924Y-65251932D01*
X34204667Y-65272096D01*
X34134817Y-65270432D01*
X34110576Y-65259709D01*
X34019905Y-65207361D01*
X34019905Y-65207360D01*
X34019901Y-65207359D01*
X33969786Y-65178424D01*
X33817058Y-65137500D01*
X33658944Y-65137500D01*
X33651348Y-65137500D01*
X33651332Y-65137501D01*
X32361056Y-65137501D01*
X32202941Y-65137501D01*
X32050214Y-65178424D01*
X32050213Y-65178424D01*
X32050211Y-65178425D01*
X32050208Y-65178426D01*
X32000095Y-65207360D01*
X32000094Y-65207361D01*
X31956688Y-65232421D01*
X31913284Y-65257480D01*
X31913281Y-65257482D01*
X31840341Y-65330423D01*
X31801479Y-65369285D01*
X31801477Y-65369287D01*
X31641591Y-65529174D01*
X31517584Y-65653181D01*
X31456261Y-65686666D01*
X31429903Y-65689500D01*
X31315302Y-65689500D01*
X31279008Y-65692356D01*
X31279002Y-65692357D01*
X31123609Y-65737504D01*
X31123606Y-65737505D01*
X30984315Y-65819881D01*
X30984307Y-65819887D01*
X30869887Y-65934307D01*
X30869880Y-65934316D01*
X30831232Y-65999668D01*
X30780163Y-66047352D01*
X30711421Y-66059855D01*
X30646832Y-66033210D01*
X30606902Y-65975874D01*
X30600500Y-65936547D01*
X30600500Y-63800097D01*
X30620185Y-63733058D01*
X30636819Y-63712416D01*
X31217953Y-63131282D01*
X32000520Y-62348716D01*
X32079577Y-62211784D01*
X32120501Y-62059057D01*
X32120501Y-61900942D01*
X32120501Y-61893347D01*
X32120500Y-61893329D01*
X32120500Y-32933324D01*
X32140185Y-32866285D01*
X32192989Y-32820530D01*
X32234763Y-32809707D01*
X32245772Y-32808840D01*
X32314146Y-32823203D01*
X32363904Y-32872253D01*
X32379500Y-32932458D01*
X32379500Y-33433330D01*
X32379499Y-33433348D01*
X32379499Y-33599054D01*
X32379498Y-33599054D01*
X32420423Y-33751785D01*
X32443902Y-33792450D01*
X32443903Y-33792454D01*
X32443904Y-33792454D01*
X32499479Y-33888714D01*
X32499481Y-33888717D01*
X32618349Y-34007585D01*
X32618355Y-34007590D01*
X33127233Y-34516468D01*
X33160718Y-34577791D01*
X33159327Y-34636241D01*
X33124939Y-34764583D01*
X33124936Y-34764596D01*
X33104341Y-34999999D01*
X33104341Y-35000000D01*
X33124936Y-35235403D01*
X33124938Y-35235413D01*
X33186094Y-35463655D01*
X33186096Y-35463659D01*
X33186097Y-35463663D01*
X33270499Y-35644663D01*
X33285965Y-35677830D01*
X33285967Y-35677834D01*
X33394281Y-35832521D01*
X33421505Y-35871401D01*
X33588599Y-36038495D01*
X33685384Y-36106265D01*
X33782165Y-36174032D01*
X33782167Y-36174033D01*
X33782170Y-36174035D01*
X33996337Y-36273903D01*
X34224592Y-36335063D01*
X34401034Y-36350500D01*
X34459999Y-36355659D01*
X34460000Y-36355659D01*
X34460001Y-36355659D01*
X34518966Y-36350500D01*
X34695408Y-36335063D01*
X34923663Y-36273903D01*
X35137830Y-36174035D01*
X35331401Y-36038495D01*
X35453329Y-35916566D01*
X35514648Y-35883084D01*
X35584340Y-35888068D01*
X35640274Y-35929939D01*
X35657189Y-35960917D01*
X35706202Y-36092328D01*
X35706206Y-36092335D01*
X35792452Y-36207544D01*
X35792455Y-36207547D01*
X35907664Y-36293793D01*
X35907671Y-36293797D01*
X36042517Y-36344091D01*
X36042516Y-36344091D01*
X36049444Y-36344835D01*
X36102127Y-36350500D01*
X37897872Y-36350499D01*
X37957483Y-36344091D01*
X38092331Y-36293796D01*
X38207546Y-36207546D01*
X38293796Y-36092331D01*
X38344091Y-35957483D01*
X38350500Y-35897873D01*
X38350499Y-34102128D01*
X38344091Y-34042517D01*
X38342810Y-34039083D01*
X38293797Y-33907671D01*
X38293793Y-33907664D01*
X38207546Y-33792454D01*
X38207544Y-33792452D01*
X38092335Y-33706206D01*
X38092328Y-33706202D01*
X37957486Y-33655910D01*
X37957485Y-33655909D01*
X37957483Y-33655909D01*
X37913943Y-33651227D01*
X37849395Y-33624490D01*
X37809547Y-33567098D01*
X37803981Y-33514054D01*
X37805565Y-33500000D01*
X37798910Y-33440939D01*
X37785369Y-33320750D01*
X37785368Y-33320745D01*
X37725788Y-33150476D01*
X37629815Y-32997737D01*
X37502262Y-32870184D01*
X37349523Y-32774211D01*
X37179254Y-32714631D01*
X37179249Y-32714630D01*
X37000004Y-32694435D01*
X36999996Y-32694435D01*
X36820750Y-32714630D01*
X36820745Y-32714631D01*
X36650476Y-32774211D01*
X36497737Y-32870184D01*
X36370184Y-32997737D01*
X36274211Y-33150476D01*
X36214631Y-33320745D01*
X36214630Y-33320750D01*
X36194435Y-33499996D01*
X36194435Y-33499997D01*
X36196019Y-33514058D01*
X36183962Y-33582880D01*
X36136612Y-33634258D01*
X36086052Y-33651229D01*
X36042516Y-33655909D01*
X35907671Y-33706202D01*
X35907664Y-33706206D01*
X35792455Y-33792452D01*
X35792454Y-33792454D01*
X35706206Y-33907664D01*
X35706203Y-33907669D01*
X35657189Y-34039083D01*
X35615317Y-34095016D01*
X35549853Y-34119433D01*
X35481580Y-34104581D01*
X35453326Y-34083430D01*
X35331402Y-33961506D01*
X35331395Y-33961501D01*
X35137834Y-33825967D01*
X35137830Y-33825965D01*
X34923663Y-33726097D01*
X34923659Y-33726096D01*
X34923655Y-33726094D01*
X34695413Y-33664938D01*
X34695403Y-33664936D01*
X34460001Y-33644341D01*
X34459999Y-33644341D01*
X34224596Y-33664936D01*
X34224583Y-33664939D01*
X34096241Y-33699327D01*
X34026392Y-33697664D01*
X33976468Y-33667233D01*
X33616819Y-33307584D01*
X33583334Y-33246261D01*
X33580500Y-33219903D01*
X33580500Y-32666666D01*
X33600185Y-32599627D01*
X33616816Y-32578987D01*
X33630117Y-32565687D01*
X33712494Y-32426395D01*
X33757643Y-32270993D01*
X33760500Y-32234690D01*
X33760500Y-31765310D01*
X33757643Y-31729007D01*
X33712494Y-31573605D01*
X33630117Y-31434313D01*
X33630115Y-31434311D01*
X33630112Y-31434307D01*
X33610200Y-31414395D01*
X33576715Y-31353072D01*
X33581699Y-31283380D01*
X33610198Y-31239035D01*
X33788713Y-31060521D01*
X33788716Y-31060520D01*
X33900520Y-30948716D01*
X33950639Y-30861904D01*
X33979577Y-30811785D01*
X34020501Y-30659057D01*
X34020501Y-30500943D01*
X34020501Y-30493348D01*
X34020500Y-30493330D01*
X34020500Y-29242454D01*
X34040185Y-29175415D01*
X34092989Y-29129660D01*
X34162147Y-29119716D01*
X34198535Y-29131649D01*
X34198616Y-29131455D01*
X34201171Y-29132513D01*
X34202960Y-29133100D01*
X34204242Y-29133785D01*
X34204243Y-29133785D01*
X34204244Y-29133786D01*
X34390873Y-29211091D01*
X34548547Y-29242454D01*
X34588992Y-29250499D01*
X34588996Y-29250500D01*
X34588997Y-29250500D01*
X34791004Y-29250500D01*
X34791005Y-29250499D01*
X34989127Y-29211091D01*
X35069798Y-29177674D01*
X35139267Y-29170205D01*
X35184658Y-29189962D01*
X35184886Y-29189546D01*
X35189540Y-29192087D01*
X35191562Y-29192967D01*
X35192669Y-29193796D01*
X35192670Y-29193796D01*
X35192671Y-29193797D01*
X35327517Y-29244091D01*
X35327516Y-29244091D01*
X35334444Y-29244835D01*
X35387127Y-29250500D01*
X36532872Y-29250499D01*
X36592483Y-29244091D01*
X36727331Y-29193796D01*
X36842546Y-29107546D01*
X36928796Y-28992331D01*
X36979091Y-28857483D01*
X36985500Y-28797873D01*
X36985499Y-27202128D01*
X36979091Y-27142517D01*
X36971170Y-27121281D01*
X36928797Y-27007671D01*
X36928793Y-27007664D01*
X36842547Y-26892455D01*
X36842544Y-26892452D01*
X36727335Y-26806206D01*
X36727330Y-26806203D01*
X36641166Y-26774066D01*
X36585233Y-26732194D01*
X36560816Y-26666730D01*
X36560500Y-26657884D01*
X36560500Y-22596621D01*
X36580185Y-22529582D01*
X36632989Y-22483827D01*
X36671899Y-22473263D01*
X36724288Y-22467911D01*
X36752797Y-22464999D01*
X36919334Y-22409814D01*
X37068656Y-22317712D01*
X37192712Y-22193656D01*
X37284814Y-22044334D01*
X37337194Y-21886260D01*
X37376964Y-21828819D01*
X37441480Y-21801995D01*
X37468777Y-21802046D01*
X37500000Y-21805565D01*
X37500000Y-21805564D01*
X37500001Y-21805565D01*
X37500004Y-21805565D01*
X37679249Y-21785369D01*
X37679252Y-21785368D01*
X37679255Y-21785368D01*
X37849522Y-21725789D01*
X38002262Y-21629816D01*
X38129816Y-21502262D01*
X38225789Y-21349522D01*
X38285368Y-21179255D01*
X38305565Y-21000000D01*
X38285368Y-20820745D01*
X38225789Y-20650478D01*
X38129816Y-20497738D01*
X38002262Y-20370184D01*
X37975761Y-20353532D01*
X37849523Y-20274211D01*
X37679254Y-20214631D01*
X37679249Y-20214630D01*
X37500004Y-20194435D01*
X37500001Y-20194435D01*
X37500000Y-20194435D01*
X37495083Y-20194988D01*
X37468779Y-20197952D01*
X37399957Y-20185895D01*
X37348579Y-20138544D01*
X37337193Y-20113735D01*
X37302104Y-20007845D01*
X37284814Y-19955666D01*
X37192712Y-19806344D01*
X37068656Y-19682288D01*
X36919334Y-19590186D01*
X36752797Y-19535001D01*
X36752795Y-19535000D01*
X36650010Y-19524500D01*
X35349998Y-19524500D01*
X35349981Y-19524501D01*
X35247203Y-19535000D01*
X35247200Y-19535001D01*
X35080668Y-19590185D01*
X35080663Y-19590187D01*
X34931342Y-19682289D01*
X34807289Y-19806342D01*
X34711821Y-19961121D01*
X34659873Y-20007845D01*
X34590910Y-20019068D01*
X34526828Y-19991224D01*
X34518601Y-19983705D01*
X34379786Y-19844890D01*
X34207820Y-19719951D01*
X34018414Y-19623444D01*
X34018413Y-19623443D01*
X34018412Y-19623443D01*
X33816243Y-19557754D01*
X33816241Y-19557753D01*
X33816240Y-19557753D01*
X33654957Y-19532208D01*
X33606287Y-19524500D01*
X33393713Y-19524500D01*
X33345042Y-19532208D01*
X33183760Y-19557753D01*
X32981585Y-19623444D01*
X32792179Y-19719951D01*
X32620213Y-19844890D01*
X32469894Y-19995209D01*
X32469890Y-19995214D01*
X32350318Y-20159793D01*
X32294989Y-20202459D01*
X32225375Y-20208438D01*
X32163580Y-20175833D01*
X32149682Y-20159793D01*
X32030109Y-19995214D01*
X32030105Y-19995209D01*
X31879786Y-19844890D01*
X31707820Y-19719951D01*
X31518414Y-19623444D01*
X31518413Y-19623443D01*
X31518412Y-19623443D01*
X31316243Y-19557754D01*
X31316241Y-19557753D01*
X31316240Y-19557753D01*
X31154957Y-19532208D01*
X31106287Y-19524500D01*
X30893713Y-19524500D01*
X30845042Y-19532208D01*
X30683760Y-19557753D01*
X30481585Y-19623444D01*
X30292179Y-19719951D01*
X30120213Y-19844890D01*
X29969890Y-19995213D01*
X29844951Y-20167179D01*
X29748444Y-20356585D01*
X29682753Y-20558760D01*
X29649500Y-20768713D01*
X29649500Y-21231287D01*
X29682754Y-21441243D01*
X29744025Y-21629816D01*
X29748444Y-21643414D01*
X29844951Y-21832820D01*
X29969890Y-22004786D01*
X30120213Y-22155109D01*
X30292179Y-22280048D01*
X30292181Y-22280049D01*
X30292184Y-22280051D01*
X30481588Y-22376557D01*
X30683757Y-22442246D01*
X30893713Y-22475500D01*
X30893714Y-22475500D01*
X31106286Y-22475500D01*
X31106287Y-22475500D01*
X31316243Y-22442246D01*
X31518412Y-22376557D01*
X31707816Y-22280051D01*
X31729789Y-22264086D01*
X31879786Y-22155109D01*
X31879788Y-22155106D01*
X31879792Y-22155104D01*
X32030104Y-22004792D01*
X32149683Y-21840204D01*
X32205011Y-21797540D01*
X32274624Y-21791561D01*
X32336420Y-21824166D01*
X32350313Y-21840199D01*
X32469892Y-22004786D01*
X32469896Y-22004792D01*
X32620213Y-22155109D01*
X32792179Y-22280048D01*
X32792181Y-22280049D01*
X32792184Y-22280051D01*
X32981588Y-22376557D01*
X33183757Y-22442246D01*
X33393713Y-22475500D01*
X33393714Y-22475500D01*
X33606286Y-22475500D01*
X33606287Y-22475500D01*
X33816243Y-22442246D01*
X33927183Y-22406198D01*
X33997023Y-22404204D01*
X34056856Y-22440284D01*
X34087684Y-22502985D01*
X34089500Y-22524130D01*
X34089500Y-26757545D01*
X34069815Y-26824584D01*
X34017011Y-26870339D01*
X33947853Y-26880283D01*
X33911463Y-26868352D01*
X33911384Y-26868545D01*
X33908847Y-26867494D01*
X33907053Y-26866906D01*
X33905764Y-26866217D01*
X33719127Y-26788909D01*
X33719119Y-26788907D01*
X33521007Y-26749500D01*
X33521003Y-26749500D01*
X33318997Y-26749500D01*
X33318992Y-26749500D01*
X33120880Y-26788907D01*
X33120872Y-26788909D01*
X32934247Y-26866212D01*
X32934237Y-26866217D01*
X32766281Y-26978441D01*
X32623441Y-27121281D01*
X32511217Y-27289237D01*
X32511212Y-27289247D01*
X32433909Y-27475872D01*
X32433907Y-27475880D01*
X32394500Y-27673992D01*
X32394500Y-28326007D01*
X32433907Y-28524119D01*
X32433909Y-28524127D01*
X32511212Y-28710752D01*
X32511217Y-28710762D01*
X32623440Y-28878716D01*
X32623441Y-28878717D01*
X32623442Y-28878718D01*
X32766282Y-29021558D01*
X32766285Y-29021560D01*
X32766287Y-29021562D01*
X32770997Y-29025428D01*
X32769848Y-29026826D01*
X32809194Y-29073904D01*
X32819500Y-29123397D01*
X32819500Y-30279903D01*
X32799815Y-30346942D01*
X32783181Y-30367584D01*
X31997584Y-31153181D01*
X31936261Y-31186666D01*
X31909903Y-31189500D01*
X31815302Y-31189500D01*
X31779008Y-31192356D01*
X31779002Y-31192357D01*
X31623609Y-31237504D01*
X31623606Y-31237505D01*
X31484315Y-31319881D01*
X31484307Y-31319887D01*
X31369887Y-31434307D01*
X31369881Y-31434315D01*
X31287505Y-31573606D01*
X31287504Y-31573609D01*
X31242357Y-31729002D01*
X31242356Y-31729008D01*
X31239500Y-31765302D01*
X31239500Y-31859903D01*
X31219815Y-31926942D01*
X31203181Y-31947584D01*
X31019483Y-32131281D01*
X31019481Y-32131284D01*
X30940423Y-32268214D01*
X30926781Y-32319124D01*
X30899499Y-32420943D01*
X30899499Y-32579057D01*
X30905011Y-32599627D01*
X30915275Y-32637932D01*
X30919500Y-32670026D01*
X30919500Y-61679902D01*
X30899815Y-61746941D01*
X30883181Y-61767583D01*
X29519481Y-63131282D01*
X29519479Y-63131285D01*
X29469361Y-63218094D01*
X29469359Y-63218096D01*
X29440425Y-63268209D01*
X29440424Y-63268210D01*
X29440423Y-63268215D01*
X29399499Y-63420943D01*
X29399499Y-63420945D01*
X29399499Y-63589046D01*
X29399500Y-63589059D01*
X29399500Y-68913330D01*
X29399499Y-68913348D01*
X29399499Y-69079054D01*
X29399498Y-69079054D01*
X29440423Y-69231785D01*
X29460639Y-69266801D01*
X29464918Y-69274211D01*
X29511755Y-69355335D01*
X29519479Y-69368714D01*
X29519481Y-69368717D01*
X29638349Y-69487585D01*
X29638355Y-69487590D01*
X30183181Y-70032416D01*
X30216666Y-70093739D01*
X30219500Y-70120097D01*
X30219500Y-70234697D01*
X30222356Y-70270991D01*
X30222357Y-70270997D01*
X30267504Y-70426390D01*
X30267505Y-70426393D01*
X30267506Y-70426395D01*
X30349883Y-70565687D01*
X30363180Y-70578984D01*
X30396666Y-70640305D01*
X30399500Y-70666666D01*
X30399500Y-70917587D01*
X30379815Y-70984626D01*
X30372450Y-70994896D01*
X30370186Y-70997734D01*
X30274211Y-71150476D01*
X30214631Y-71320745D01*
X30214630Y-71320750D01*
X30194435Y-71499996D01*
X30194435Y-71500003D01*
X30214630Y-71679249D01*
X30214631Y-71679254D01*
X30274211Y-71849523D01*
X30370184Y-72002262D01*
X30497738Y-72129816D01*
X30650478Y-72225789D01*
X30820745Y-72285368D01*
X30820750Y-72285369D01*
X30999996Y-72305565D01*
X31000000Y-72305565D01*
X31000004Y-72305565D01*
X31179249Y-72285369D01*
X31179252Y-72285368D01*
X31179255Y-72285368D01*
X31349522Y-72225789D01*
X31502262Y-72129816D01*
X31629816Y-72002262D01*
X31725789Y-71849522D01*
X31785368Y-71679255D01*
X31805565Y-71500000D01*
X31788720Y-71350499D01*
X31785369Y-71320750D01*
X31785368Y-71320745D01*
X31768977Y-71273903D01*
X31725789Y-71150478D01*
X31630809Y-70999319D01*
X31611810Y-70932083D01*
X31632178Y-70865248D01*
X31685445Y-70820034D01*
X31745537Y-70809731D01*
X31748082Y-70809931D01*
X31755310Y-70810500D01*
X31755318Y-70810500D01*
X32164682Y-70810500D01*
X32164690Y-70810500D01*
X32200993Y-70807643D01*
X32200995Y-70807642D01*
X32200997Y-70807642D01*
X32241975Y-70795736D01*
X32356395Y-70762494D01*
X32495687Y-70680117D01*
X32538984Y-70636820D01*
X32600307Y-70603334D01*
X32626666Y-70600500D01*
X33170909Y-70600500D01*
X33237948Y-70620185D01*
X33283292Y-70672097D01*
X33285965Y-70677830D01*
X33421505Y-70871401D01*
X33588599Y-71038495D01*
X33685384Y-71106265D01*
X33782165Y-71174032D01*
X33782167Y-71174033D01*
X33782170Y-71174035D01*
X33996337Y-71273903D01*
X34224592Y-71335063D01*
X34401034Y-71350500D01*
X34459999Y-71355659D01*
X34460000Y-71355659D01*
X34460001Y-71355659D01*
X34518966Y-71350500D01*
X34695408Y-71335063D01*
X34923663Y-71273903D01*
X35137830Y-71174035D01*
X35331401Y-71038495D01*
X35453329Y-70916566D01*
X35514648Y-70883084D01*
X35584340Y-70888068D01*
X35640274Y-70929939D01*
X35657189Y-70960917D01*
X35706202Y-71092328D01*
X35706206Y-71092335D01*
X35792452Y-71207544D01*
X35792455Y-71207547D01*
X35907664Y-71293793D01*
X35907671Y-71293797D01*
X36042517Y-71344091D01*
X36042516Y-71344091D01*
X36049444Y-71344835D01*
X36102127Y-71350500D01*
X37897872Y-71350499D01*
X37957483Y-71344091D01*
X38092331Y-71293796D01*
X38207546Y-71207546D01*
X38293796Y-71092331D01*
X38344091Y-70957483D01*
X38348772Y-70913943D01*
X38375510Y-70849395D01*
X38432902Y-70809547D01*
X38485945Y-70803981D01*
X38500000Y-70805565D01*
X38500001Y-70805564D01*
X38500003Y-70805565D01*
X38500004Y-70805565D01*
X38679249Y-70785369D01*
X38679252Y-70785368D01*
X38679255Y-70785368D01*
X38849522Y-70725789D01*
X39002262Y-70629816D01*
X39129816Y-70502262D01*
X39225789Y-70349522D01*
X39285368Y-70179255D01*
X39285369Y-70179249D01*
X39305565Y-70000003D01*
X39305565Y-69999996D01*
X39285369Y-69820750D01*
X39285368Y-69820745D01*
X39266678Y-69767331D01*
X39225789Y-69650478D01*
X39129816Y-69497738D01*
X39002262Y-69370184D01*
X38934982Y-69327909D01*
X38849523Y-69274211D01*
X38679254Y-69214631D01*
X38679249Y-69214630D01*
X38500004Y-69194435D01*
X38500002Y-69194435D01*
X38500000Y-69194435D01*
X38490666Y-69195486D01*
X38485940Y-69196019D01*
X38417119Y-69183962D01*
X38365741Y-69136612D01*
X38348770Y-69086051D01*
X38344091Y-69042517D01*
X38342810Y-69039083D01*
X38293797Y-68907671D01*
X38293793Y-68907664D01*
X38207547Y-68792455D01*
X38207544Y-68792452D01*
X38092335Y-68706206D01*
X38092328Y-68706202D01*
X37957482Y-68655908D01*
X37957483Y-68655908D01*
X37897883Y-68649501D01*
X37897881Y-68649500D01*
X37897873Y-68649500D01*
X37897864Y-68649500D01*
X36102129Y-68649500D01*
X36102123Y-68649501D01*
X36042516Y-68655908D01*
X35907671Y-68706202D01*
X35907664Y-68706206D01*
X35792455Y-68792452D01*
X35792452Y-68792455D01*
X35706206Y-68907664D01*
X35706203Y-68907669D01*
X35657189Y-69039083D01*
X35615317Y-69095016D01*
X35549853Y-69119433D01*
X35481580Y-69104581D01*
X35453326Y-69083430D01*
X35331402Y-68961506D01*
X35331395Y-68961501D01*
X35137834Y-68825967D01*
X35137830Y-68825965D01*
X35137828Y-68825964D01*
X34923663Y-68726097D01*
X34923659Y-68726096D01*
X34923655Y-68726094D01*
X34695413Y-68664938D01*
X34695403Y-68664936D01*
X34460001Y-68644341D01*
X34459999Y-68644341D01*
X34224596Y-68664936D01*
X34224586Y-68664938D01*
X33996344Y-68726094D01*
X33996337Y-68726096D01*
X33996337Y-68726097D01*
X33982816Y-68732401D01*
X33782171Y-68825964D01*
X33782169Y-68825965D01*
X33588597Y-68961505D01*
X33421506Y-69128596D01*
X33285965Y-69322170D01*
X33285962Y-69322175D01*
X33283289Y-69327909D01*
X33237115Y-69380346D01*
X33170909Y-69399500D01*
X32626666Y-69399500D01*
X32559627Y-69379815D01*
X32538984Y-69363180D01*
X32495692Y-69319887D01*
X32495684Y-69319881D01*
X32418707Y-69274357D01*
X32356395Y-69237506D01*
X32356394Y-69237505D01*
X32356393Y-69237505D01*
X32356390Y-69237504D01*
X32200997Y-69192357D01*
X32200991Y-69192356D01*
X32164697Y-69189500D01*
X32164690Y-69189500D01*
X31755310Y-69189500D01*
X31755302Y-69189500D01*
X31719008Y-69192356D01*
X31719002Y-69192357D01*
X31563608Y-69237504D01*
X31563602Y-69237506D01*
X31543120Y-69249620D01*
X31475396Y-69266801D01*
X31416880Y-69249620D01*
X31396397Y-69237506D01*
X31396391Y-69237504D01*
X31240997Y-69192357D01*
X31240991Y-69192356D01*
X31204697Y-69189500D01*
X31204690Y-69189500D01*
X31090098Y-69189500D01*
X31023059Y-69169815D01*
X31002417Y-69153181D01*
X30636819Y-68787583D01*
X30603334Y-68726260D01*
X30600500Y-68699902D01*
X30600500Y-67063452D01*
X30620185Y-66996413D01*
X30672989Y-66950658D01*
X30742147Y-66940714D01*
X30805703Y-66969739D01*
X30831232Y-67000332D01*
X30869878Y-67065681D01*
X30869887Y-67065692D01*
X30984307Y-67180112D01*
X30984311Y-67180115D01*
X30984313Y-67180117D01*
X31123605Y-67262494D01*
X31164587Y-67274400D01*
X31279002Y-67307642D01*
X31279005Y-67307642D01*
X31279007Y-67307643D01*
X31315310Y-67310500D01*
X31315318Y-67310500D01*
X31724682Y-67310500D01*
X31724690Y-67310500D01*
X31760993Y-67307643D01*
X31760995Y-67307642D01*
X31760997Y-67307642D01*
X31801975Y-67295736D01*
X31916395Y-67262494D01*
X31936879Y-67250379D01*
X32004601Y-67233196D01*
X32063119Y-67250379D01*
X32083605Y-67262494D01*
X32083607Y-67262494D01*
X32083608Y-67262495D01*
X32239002Y-67307642D01*
X32239005Y-67307642D01*
X32239007Y-67307643D01*
X32275310Y-67310500D01*
X32275318Y-67310500D01*
X32684682Y-67310500D01*
X32684690Y-67310500D01*
X32720993Y-67307643D01*
X32720995Y-67307642D01*
X32720997Y-67307642D01*
X32761975Y-67295736D01*
X32876395Y-67262494D01*
X33015687Y-67180117D01*
X33130117Y-67065687D01*
X33144953Y-67040599D01*
X33196019Y-66992917D01*
X33264760Y-66980411D01*
X33329350Y-67007055D01*
X33364067Y-67051315D01*
X33402466Y-67133662D01*
X33402468Y-67133666D01*
X33529170Y-67314615D01*
X33529175Y-67314621D01*
X33685378Y-67470824D01*
X33685384Y-67470829D01*
X33866333Y-67597531D01*
X33866335Y-67597532D01*
X33866338Y-67597534D01*
X34066550Y-67690894D01*
X34279932Y-67748070D01*
X34426743Y-67760914D01*
X34499998Y-67767323D01*
X34500000Y-67767323D01*
X34500002Y-67767323D01*
X34530502Y-67764654D01*
X34720068Y-67748070D01*
X34791903Y-67728821D01*
X34861752Y-67730482D01*
X34911678Y-67760913D01*
X35361284Y-68210520D01*
X35361286Y-68210521D01*
X35361290Y-68210524D01*
X35498209Y-68289573D01*
X35498216Y-68289577D01*
X35650943Y-68330501D01*
X35650945Y-68330501D01*
X35816654Y-68330501D01*
X35816670Y-68330500D01*
X44125500Y-68330500D01*
X44192539Y-68350185D01*
X44238294Y-68402989D01*
X44249500Y-68454500D01*
X44249500Y-69572870D01*
X44249501Y-69572876D01*
X44255908Y-69632483D01*
X44306202Y-69767328D01*
X44306206Y-69767335D01*
X44392452Y-69882544D01*
X44392455Y-69882547D01*
X44507664Y-69968793D01*
X44507671Y-69968797D01*
X44642517Y-70019091D01*
X44642516Y-70019091D01*
X44649444Y-70019835D01*
X44702127Y-70025500D01*
X46297872Y-70025499D01*
X46357483Y-70019091D01*
X46408669Y-70000000D01*
X46437167Y-69989371D01*
X46506859Y-69984387D01*
X46568182Y-70017872D01*
X46601666Y-70079195D01*
X46604500Y-70105553D01*
X46604500Y-74494902D01*
X46584815Y-74561941D01*
X46568181Y-74582583D01*
X46325627Y-74825137D01*
X46268506Y-74856327D01*
X46268793Y-74857396D01*
X46264387Y-74858576D01*
X46264304Y-74858622D01*
X46264055Y-74858665D01*
X46127429Y-74895275D01*
X46095335Y-74899500D01*
X25474499Y-74899500D01*
X25407460Y-74879815D01*
X25361705Y-74827011D01*
X25350499Y-74775500D01*
X25350499Y-74562129D01*
X25350498Y-74562123D01*
X25350478Y-74561941D01*
X25344091Y-74502517D01*
X25304264Y-74395736D01*
X25293797Y-74367671D01*
X25293793Y-74367664D01*
X25207547Y-74252455D01*
X25207544Y-74252452D01*
X25092335Y-74166206D01*
X25092328Y-74166202D01*
X24957482Y-74115908D01*
X24957483Y-74115908D01*
X24897883Y-74109501D01*
X24897881Y-74109500D01*
X24897873Y-74109500D01*
X24897865Y-74109500D01*
X23124500Y-74109500D01*
X23057461Y-74089815D01*
X23011706Y-74037011D01*
X23000500Y-73985500D01*
X23000500Y-17397648D01*
X23699500Y-17397648D01*
X23699500Y-17602351D01*
X23731522Y-17804534D01*
X23794781Y-17999223D01*
X23887715Y-18181613D01*
X24008028Y-18347213D01*
X24152786Y-18491971D01*
X24307749Y-18604556D01*
X24318390Y-18612287D01*
X24434607Y-18671503D01*
X24500776Y-18705218D01*
X24500778Y-18705218D01*
X24500781Y-18705220D01*
X24605137Y-18739127D01*
X24695465Y-18768477D01*
X24796557Y-18784488D01*
X24897648Y-18800500D01*
X24897649Y-18800500D01*
X25102351Y-18800500D01*
X25102352Y-18800500D01*
X25304534Y-18768477D01*
X25499219Y-18705220D01*
X25681610Y-18612287D01*
X25774590Y-18544732D01*
X25847213Y-18491971D01*
X25847215Y-18491968D01*
X25847219Y-18491966D01*
X25991966Y-18347219D01*
X25991968Y-18347215D01*
X25991971Y-18347213D01*
X26044732Y-18274590D01*
X26112287Y-18181610D01*
X26205220Y-17999219D01*
X26268477Y-17804534D01*
X26300500Y-17602352D01*
X26300500Y-17397648D01*
X48699500Y-17397648D01*
X48699500Y-17602351D01*
X48731522Y-17804534D01*
X48794781Y-17999223D01*
X48887715Y-18181613D01*
X49008028Y-18347213D01*
X49152786Y-18491971D01*
X49307749Y-18604556D01*
X49318390Y-18612287D01*
X49434607Y-18671503D01*
X49500776Y-18705218D01*
X49500778Y-18705218D01*
X49500781Y-18705220D01*
X49605137Y-18739127D01*
X49695465Y-18768477D01*
X49796557Y-18784488D01*
X49897648Y-18800500D01*
X49897649Y-18800500D01*
X50102351Y-18800500D01*
X50102352Y-18800500D01*
X50304534Y-18768477D01*
X50499219Y-18705220D01*
X50681610Y-18612287D01*
X50774590Y-18544732D01*
X50847213Y-18491971D01*
X50847215Y-18491968D01*
X50847219Y-18491966D01*
X50991966Y-18347219D01*
X50991968Y-18347215D01*
X50991971Y-18347213D01*
X51044732Y-18274590D01*
X51112287Y-18181610D01*
X51205220Y-17999219D01*
X51268477Y-17804534D01*
X51300500Y-17602352D01*
X51300500Y-17397648D01*
X51268477Y-17195466D01*
X51205220Y-17000781D01*
X51205218Y-17000778D01*
X51205218Y-17000776D01*
X51171503Y-16934607D01*
X51112287Y-16818390D01*
X51104556Y-16807749D01*
X50991971Y-16652786D01*
X50847213Y-16508028D01*
X50681613Y-16387715D01*
X50681612Y-16387714D01*
X50681610Y-16387713D01*
X50624653Y-16358691D01*
X50499223Y-16294781D01*
X50304534Y-16231522D01*
X50129995Y-16203878D01*
X50102352Y-16199500D01*
X49897648Y-16199500D01*
X49873329Y-16203351D01*
X49695465Y-16231522D01*
X49500776Y-16294781D01*
X49318386Y-16387715D01*
X49152786Y-16508028D01*
X49008028Y-16652786D01*
X48887715Y-16818386D01*
X48794781Y-17000776D01*
X48731522Y-17195465D01*
X48699500Y-17397648D01*
X26300500Y-17397648D01*
X26268477Y-17195466D01*
X26205220Y-17000781D01*
X26205218Y-17000778D01*
X26205218Y-17000776D01*
X26171503Y-16934607D01*
X26112287Y-16818390D01*
X26104556Y-16807749D01*
X25991971Y-16652786D01*
X25847213Y-16508028D01*
X25681613Y-16387715D01*
X25681612Y-16387714D01*
X25681610Y-16387713D01*
X25624653Y-16358691D01*
X25499223Y-16294781D01*
X25304534Y-16231522D01*
X25129995Y-16203878D01*
X25102352Y-16199500D01*
X24897648Y-16199500D01*
X24873329Y-16203351D01*
X24695465Y-16231522D01*
X24500776Y-16294781D01*
X24318386Y-16387715D01*
X24152786Y-16508028D01*
X24008028Y-16652786D01*
X23887715Y-16818386D01*
X23794781Y-17000776D01*
X23731522Y-17195465D01*
X23699500Y-17397648D01*
X23000500Y-17397648D01*
X23000500Y-15624500D01*
X23020185Y-15557461D01*
X23072989Y-15511706D01*
X23124500Y-15500500D01*
X51875500Y-15500500D01*
X51942539Y-15520185D01*
G37*
%TD.AperFunction*%
%TA.AperFunction,NonConductor*%
G36*
X49777948Y-76080185D02*
G01*
X49823292Y-76132097D01*
X49825965Y-76137830D01*
X49825966Y-76137831D01*
X49961501Y-76331395D01*
X49961506Y-76331402D01*
X50128597Y-76498493D01*
X50128603Y-76498498D01*
X50314158Y-76628425D01*
X50357783Y-76683002D01*
X50364977Y-76752500D01*
X50333454Y-76814855D01*
X50314159Y-76831574D01*
X50249179Y-76877074D01*
X50182973Y-76899402D01*
X50178055Y-76899500D01*
X48861097Y-76899500D01*
X48861081Y-76899499D01*
X48853485Y-76899499D01*
X48695371Y-76899499D01*
X48624363Y-76918526D01*
X48592269Y-76922751D01*
X48181425Y-76922751D01*
X48114386Y-76903066D01*
X48093744Y-76886432D01*
X47976793Y-76769481D01*
X47976792Y-76769480D01*
X47889980Y-76719360D01*
X47889980Y-76719359D01*
X47889976Y-76719358D01*
X47839861Y-76690423D01*
X47687133Y-76649499D01*
X47529019Y-76649499D01*
X47521423Y-76649499D01*
X47521407Y-76649500D01*
X33576670Y-76649500D01*
X33576654Y-76649499D01*
X33569058Y-76649499D01*
X33410943Y-76649499D01*
X33334579Y-76669961D01*
X33258214Y-76690423D01*
X33258209Y-76690426D01*
X33121290Y-76769475D01*
X33121282Y-76769481D01*
X32787584Y-77103181D01*
X32726261Y-77136666D01*
X32699903Y-77139500D01*
X27286670Y-77139500D01*
X27286654Y-77139499D01*
X27279058Y-77139499D01*
X27120943Y-77139499D01*
X27044579Y-77159961D01*
X26968214Y-77180423D01*
X26968209Y-77180426D01*
X26831290Y-77259475D01*
X26831282Y-77259481D01*
X26727583Y-77363181D01*
X26666260Y-77396666D01*
X26639902Y-77399500D01*
X25289091Y-77399500D01*
X25222052Y-77379815D01*
X25176711Y-77327909D01*
X25174037Y-77322175D01*
X25174034Y-77322170D01*
X25038496Y-77128600D01*
X24999500Y-77089604D01*
X24916567Y-77006671D01*
X24883084Y-76945351D01*
X24888068Y-76875659D01*
X24929939Y-76819725D01*
X24960915Y-76802810D01*
X25092331Y-76753796D01*
X25207546Y-76667546D01*
X25293796Y-76552331D01*
X25344091Y-76417483D01*
X25350500Y-76357873D01*
X25350500Y-76224500D01*
X25370185Y-76157461D01*
X25422989Y-76111706D01*
X25474500Y-76100500D01*
X46213331Y-76100500D01*
X46213347Y-76100501D01*
X46220943Y-76100501D01*
X46386653Y-76100501D01*
X46386669Y-76100500D01*
X46413331Y-76100500D01*
X46413347Y-76100501D01*
X46420943Y-76100501D01*
X46579055Y-76100501D01*
X46579057Y-76100501D01*
X46712572Y-76064724D01*
X46744666Y-76060500D01*
X49710909Y-76060500D01*
X49777948Y-76080185D01*
G37*
%TD.AperFunction*%
%TA.AperFunction,NonConductor*%
G36*
X47375018Y-77870185D02*
G01*
X47395660Y-77886819D01*
X47396466Y-77887625D01*
X47396476Y-77887636D01*
X47400806Y-77891966D01*
X47400807Y-77891967D01*
X47512611Y-78003771D01*
X47599422Y-78053890D01*
X47599424Y-78053892D01*
X47649540Y-78082827D01*
X47649542Y-78082828D01*
X47802269Y-78123751D01*
X47802270Y-78123751D01*
X48664508Y-78123751D01*
X48664524Y-78123752D01*
X48672120Y-78123752D01*
X48830232Y-78123752D01*
X48830234Y-78123752D01*
X48901242Y-78104724D01*
X48933336Y-78100500D01*
X49539509Y-78100500D01*
X49606548Y-78120185D01*
X49652303Y-78172989D01*
X49663037Y-78213691D01*
X49664936Y-78235404D01*
X49664938Y-78235413D01*
X49726094Y-78463655D01*
X49726096Y-78463659D01*
X49726097Y-78463663D01*
X49789906Y-78600501D01*
X49825965Y-78677830D01*
X49825967Y-78677834D01*
X49961501Y-78871395D01*
X49961506Y-78871402D01*
X50128597Y-79038493D01*
X50128603Y-79038498D01*
X50314158Y-79168425D01*
X50357783Y-79223002D01*
X50364977Y-79292500D01*
X50333454Y-79354855D01*
X50314158Y-79371575D01*
X50128600Y-79501503D01*
X50067762Y-79562342D01*
X50006921Y-79623182D01*
X49945601Y-79656666D01*
X49919242Y-79659500D01*
X25080758Y-79659500D01*
X25013719Y-79639815D01*
X24993077Y-79623181D01*
X24871402Y-79501506D01*
X24871396Y-79501501D01*
X24685842Y-79371575D01*
X24642217Y-79316998D01*
X24635023Y-79247500D01*
X24666546Y-79185145D01*
X24685842Y-79168425D01*
X24708026Y-79152891D01*
X24871401Y-79038495D01*
X25038495Y-78871401D01*
X25174035Y-78677830D01*
X25176707Y-78672097D01*
X25222878Y-78619658D01*
X25289091Y-78600500D01*
X26853331Y-78600500D01*
X26853347Y-78600501D01*
X26860943Y-78600501D01*
X27019054Y-78600501D01*
X27019057Y-78600501D01*
X27171785Y-78559577D01*
X27221904Y-78530639D01*
X27308716Y-78480520D01*
X27412418Y-78376817D01*
X27473739Y-78343334D01*
X27500098Y-78340500D01*
X32913331Y-78340500D01*
X32913347Y-78340501D01*
X32920943Y-78340501D01*
X33079054Y-78340501D01*
X33079057Y-78340501D01*
X33231785Y-78299577D01*
X33281904Y-78270639D01*
X33368716Y-78220520D01*
X33480520Y-78108716D01*
X33480521Y-78108714D01*
X33702418Y-77886816D01*
X33763740Y-77853334D01*
X33790098Y-77850500D01*
X47307979Y-77850500D01*
X47375018Y-77870185D01*
G37*
%TD.AperFunction*%
%TA.AperFunction,NonConductor*%
G36*
X49659627Y-80880185D02*
G01*
X49705382Y-80932989D01*
X49712363Y-80952407D01*
X49726094Y-81003655D01*
X49726096Y-81003659D01*
X49726097Y-81003663D01*
X49825965Y-81217830D01*
X49825967Y-81217834D01*
X49961501Y-81411395D01*
X49961506Y-81411402D01*
X50128597Y-81578493D01*
X50128603Y-81578498D01*
X50314158Y-81708425D01*
X50357783Y-81763002D01*
X50364977Y-81832500D01*
X50333454Y-81894855D01*
X50314158Y-81911575D01*
X50128597Y-82041505D01*
X49961506Y-82208596D01*
X49825965Y-82402170D01*
X49825962Y-82402175D01*
X49823289Y-82407909D01*
X49777115Y-82460346D01*
X49710909Y-82479500D01*
X49706670Y-82479500D01*
X49706654Y-82479499D01*
X49699058Y-82479499D01*
X49540943Y-82479499D01*
X49464579Y-82499961D01*
X49388214Y-82520423D01*
X49388209Y-82520426D01*
X49251290Y-82599475D01*
X49251282Y-82599481D01*
X48407584Y-83443181D01*
X48346261Y-83476666D01*
X48319903Y-83479500D01*
X42952812Y-83479500D01*
X42886840Y-83460494D01*
X42885759Y-83459815D01*
X42749522Y-83374211D01*
X42579254Y-83314631D01*
X42579249Y-83314630D01*
X42400004Y-83294435D01*
X42399996Y-83294435D01*
X42220750Y-83314630D01*
X42220745Y-83314631D01*
X42050477Y-83374211D01*
X41998277Y-83407011D01*
X41914241Y-83459815D01*
X41913160Y-83460494D01*
X41847188Y-83479500D01*
X25452695Y-83479500D01*
X25385656Y-83459815D01*
X25339901Y-83407011D01*
X25329957Y-83337853D01*
X25332919Y-83323410D01*
X25335062Y-83315411D01*
X25335063Y-83315408D01*
X25355659Y-83080000D01*
X25335063Y-82844592D01*
X25273903Y-82616337D01*
X25174035Y-82402171D01*
X25174034Y-82402169D01*
X25038494Y-82208597D01*
X24871402Y-82041506D01*
X24871396Y-82041501D01*
X24685842Y-81911575D01*
X24642217Y-81856998D01*
X24635023Y-81787500D01*
X24666546Y-81725145D01*
X24685842Y-81708425D01*
X24708026Y-81692891D01*
X24871401Y-81578495D01*
X25038495Y-81411401D01*
X25174035Y-81217830D01*
X25273903Y-81003663D01*
X25287637Y-80952407D01*
X25324002Y-80892747D01*
X25386848Y-80862217D01*
X25407412Y-80860500D01*
X35420943Y-80860500D01*
X49592588Y-80860500D01*
X49659627Y-80880185D01*
G37*
%TD.AperFunction*%
%TA.AperFunction,NonConductor*%
G36*
X49838252Y-83813496D02*
G01*
X49894185Y-83855368D01*
X49896486Y-83858544D01*
X49961505Y-83951401D01*
X49961506Y-83951402D01*
X50128597Y-84118493D01*
X50128603Y-84118498D01*
X50314158Y-84248425D01*
X50357783Y-84303002D01*
X50364977Y-84372500D01*
X50333454Y-84434855D01*
X50314158Y-84451575D01*
X50128597Y-84581505D01*
X49961506Y-84748596D01*
X49825965Y-84942170D01*
X49825962Y-84942175D01*
X49823289Y-84947909D01*
X49777115Y-85000346D01*
X49710909Y-85019500D01*
X42871647Y-85019500D01*
X42804608Y-84999815D01*
X42758853Y-84947011D01*
X42748909Y-84877853D01*
X42777934Y-84814297D01*
X42805675Y-84790507D01*
X42902256Y-84729820D01*
X42902257Y-84729819D01*
X42902262Y-84729816D01*
X42915259Y-84716819D01*
X42976582Y-84683334D01*
X43002940Y-84680500D01*
X48220943Y-84680500D01*
X48533331Y-84680500D01*
X48533347Y-84680501D01*
X48540943Y-84680501D01*
X48699054Y-84680501D01*
X48699057Y-84680501D01*
X48851785Y-84639577D01*
X48916416Y-84602262D01*
X48988716Y-84560520D01*
X49100520Y-84448716D01*
X49100520Y-84448714D01*
X49110724Y-84438511D01*
X49110727Y-84438506D01*
X49707238Y-83841995D01*
X49768560Y-83808512D01*
X49838252Y-83813496D01*
G37*
%TD.AperFunction*%
%TA.AperFunction,NonConductor*%
G36*
X41864099Y-84700185D02*
G01*
X41884741Y-84716819D01*
X41897737Y-84729815D01*
X41897743Y-84729820D01*
X41994325Y-84790507D01*
X42040616Y-84842841D01*
X42051264Y-84911895D01*
X42022889Y-84975743D01*
X41964499Y-85014115D01*
X41928353Y-85019500D01*
X25289091Y-85019500D01*
X25222052Y-84999815D01*
X25176711Y-84947909D01*
X25174037Y-84942175D01*
X25174034Y-84942170D01*
X25127438Y-84875623D01*
X25105111Y-84809416D01*
X25122122Y-84741649D01*
X25173070Y-84693837D01*
X25229013Y-84680500D01*
X41797060Y-84680500D01*
X41864099Y-84700185D01*
G37*
%TD.AperFunction*%
%TA.AperFunction,NonConductor*%
G36*
X43797942Y-87240185D02*
G01*
X43843697Y-87292989D01*
X43853641Y-87362147D01*
X43824616Y-87425703D01*
X43818584Y-87432181D01*
X41187584Y-90063181D01*
X41126261Y-90096666D01*
X41099903Y-90099500D01*
X25289091Y-90099500D01*
X25222052Y-90079815D01*
X25176711Y-90027909D01*
X25174037Y-90022175D01*
X25174034Y-90022170D01*
X25038494Y-89828597D01*
X24871402Y-89661506D01*
X24871396Y-89661501D01*
X24685842Y-89531575D01*
X24642217Y-89476998D01*
X24635023Y-89407500D01*
X24666546Y-89345145D01*
X24685842Y-89328425D01*
X24748800Y-89284341D01*
X24871401Y-89198495D01*
X25038495Y-89031401D01*
X25174035Y-88837830D01*
X25273903Y-88623663D01*
X25335063Y-88395408D01*
X25355659Y-88160000D01*
X25335063Y-87924592D01*
X25273903Y-87696337D01*
X25174035Y-87482171D01*
X25127438Y-87415623D01*
X25105111Y-87349417D01*
X25122121Y-87281650D01*
X25173069Y-87233837D01*
X25229013Y-87220500D01*
X43730903Y-87220500D01*
X43797942Y-87240185D01*
G37*
%TD.AperFunction*%
%TA.AperFunction,NonConductor*%
G36*
X52500000Y-112830311D02*
G01*
X52499689Y-112827950D01*
X52500000Y-112825954D01*
X52500000Y-112830311D01*
G37*
%TD.AperFunction*%
%TA.AperFunction,NonConductor*%
G36*
X52500000Y-113532241D02*
G01*
X52466392Y-113406814D01*
X52411650Y-113311999D01*
X52395178Y-113244100D01*
X52411650Y-113188000D01*
X52466392Y-113093186D01*
X52500000Y-112967758D01*
X52500000Y-113532241D01*
G37*
%TD.AperFunction*%
%TA.AperFunction,NonConductor*%
G36*
X52500000Y-113705433D02*
G01*
X52499747Y-113704867D01*
X52499689Y-113672050D01*
X52500000Y-113669688D01*
X52500000Y-113705433D01*
G37*
%TD.AperFunction*%
%TA.AperFunction,NonConductor*%
G36*
X49777948Y-86240185D02*
G01*
X49823292Y-86292097D01*
X49825965Y-86297830D01*
X49825966Y-86297831D01*
X49961501Y-86491395D01*
X49961506Y-86491402D01*
X50128597Y-86658493D01*
X50128603Y-86658498D01*
X50314158Y-86788425D01*
X50357783Y-86843002D01*
X50364977Y-86912500D01*
X50333454Y-86974855D01*
X50314158Y-86991575D01*
X50128597Y-87121505D01*
X49961505Y-87288597D01*
X49825965Y-87482169D01*
X49825964Y-87482171D01*
X49726098Y-87696335D01*
X49726094Y-87696344D01*
X49664938Y-87924586D01*
X49664936Y-87924596D01*
X49644341Y-88159999D01*
X49644341Y-88160000D01*
X49664936Y-88395403D01*
X49664938Y-88395413D01*
X49726094Y-88623655D01*
X49726096Y-88623659D01*
X49726097Y-88623663D01*
X49774718Y-88727930D01*
X49825965Y-88837830D01*
X49825967Y-88837834D01*
X49961501Y-89031395D01*
X49961506Y-89031402D01*
X50083430Y-89153326D01*
X50116915Y-89214649D01*
X50111931Y-89284341D01*
X50070059Y-89340274D01*
X50039083Y-89357189D01*
X49907669Y-89406203D01*
X49907664Y-89406206D01*
X49792455Y-89492452D01*
X49792452Y-89492455D01*
X49706206Y-89607664D01*
X49706202Y-89607671D01*
X49655908Y-89742517D01*
X49649501Y-89802116D01*
X49649500Y-89802135D01*
X49649500Y-91597870D01*
X49649501Y-91597876D01*
X49655908Y-91657483D01*
X49706202Y-91792328D01*
X49706206Y-91792335D01*
X49792452Y-91907544D01*
X49792455Y-91907547D01*
X49907664Y-91993793D01*
X49907671Y-91993797D01*
X50042517Y-92044091D01*
X50042516Y-92044091D01*
X50049444Y-92044835D01*
X50102127Y-92050500D01*
X51875500Y-92050499D01*
X51942539Y-92070184D01*
X51988294Y-92122987D01*
X51999500Y-92174499D01*
X51999500Y-111595107D01*
X51979815Y-111662146D01*
X51947739Y-111692732D01*
X51949135Y-111694552D01*
X51942683Y-111699502D01*
X51849502Y-111792683D01*
X51849500Y-111792686D01*
X51783608Y-111906812D01*
X51749500Y-112034108D01*
X51749500Y-112165891D01*
X51783609Y-112293188D01*
X51783609Y-112293189D01*
X51788213Y-112301163D01*
X51804686Y-112369063D01*
X51781834Y-112435090D01*
X51742828Y-112470549D01*
X51692689Y-112499497D01*
X51692683Y-112499502D01*
X51599502Y-112592683D01*
X51599500Y-112592686D01*
X51533608Y-112706812D01*
X51499500Y-112834108D01*
X51499500Y-112965891D01*
X51533609Y-113093188D01*
X51533609Y-113093189D01*
X51588348Y-113188000D01*
X51604821Y-113255900D01*
X51588348Y-113312000D01*
X51533609Y-113406810D01*
X51533609Y-113406811D01*
X51499500Y-113534108D01*
X51499500Y-113665891D01*
X51533608Y-113793187D01*
X51545085Y-113813065D01*
X51599500Y-113907314D01*
X51692686Y-114000500D01*
X51742521Y-114029272D01*
X51742827Y-114029449D01*
X51791042Y-114080017D01*
X51804264Y-114148624D01*
X51788215Y-114198833D01*
X51783609Y-114206810D01*
X51783609Y-114206811D01*
X51749500Y-114334108D01*
X51749500Y-114465891D01*
X51783608Y-114593187D01*
X51816554Y-114650250D01*
X51849500Y-114707314D01*
X51942686Y-114800500D01*
X51942688Y-114800501D01*
X51949137Y-114805450D01*
X51947324Y-114807812D01*
X51985710Y-114848062D01*
X51999500Y-114904893D01*
X51999500Y-175875500D01*
X51979815Y-175942539D01*
X51927011Y-175988294D01*
X51875500Y-175999500D01*
X23124500Y-175999500D01*
X23057461Y-175979815D01*
X23011706Y-175927011D01*
X23000500Y-175875500D01*
X23000500Y-173397648D01*
X23699500Y-173397648D01*
X23699500Y-173602351D01*
X23731522Y-173804534D01*
X23794781Y-173999223D01*
X23858691Y-174124653D01*
X23886513Y-174179255D01*
X23887715Y-174181613D01*
X24008028Y-174347213D01*
X24152786Y-174491971D01*
X24307749Y-174604556D01*
X24318390Y-174612287D01*
X24412077Y-174660023D01*
X24500776Y-174705218D01*
X24500778Y-174705218D01*
X24500781Y-174705220D01*
X24564083Y-174725788D01*
X24695465Y-174768477D01*
X24751127Y-174777293D01*
X24897648Y-174800500D01*
X24897649Y-174800500D01*
X25102351Y-174800500D01*
X25102352Y-174800500D01*
X25304534Y-174768477D01*
X25499219Y-174705220D01*
X25681610Y-174612287D01*
X25833048Y-174502262D01*
X25847213Y-174491971D01*
X25847215Y-174491968D01*
X25847219Y-174491966D01*
X25991966Y-174347219D01*
X25991968Y-174347215D01*
X25991971Y-174347213D01*
X26055041Y-174260403D01*
X26112287Y-174181610D01*
X26205220Y-173999219D01*
X26268477Y-173804534D01*
X26300500Y-173602352D01*
X26300500Y-173397648D01*
X26294292Y-173358454D01*
X26268477Y-173195465D01*
X26246275Y-173127135D01*
X27029500Y-173127135D01*
X27029500Y-174922870D01*
X27029501Y-174922876D01*
X27035908Y-174982483D01*
X27086202Y-175117328D01*
X27086206Y-175117335D01*
X27172452Y-175232544D01*
X27172455Y-175232547D01*
X27287664Y-175318793D01*
X27287671Y-175318797D01*
X27422517Y-175369091D01*
X27422516Y-175369091D01*
X27429444Y-175369835D01*
X27482127Y-175375500D01*
X29277872Y-175375499D01*
X29337483Y-175369091D01*
X29472331Y-175318796D01*
X29587546Y-175232546D01*
X29673796Y-175117331D01*
X29722810Y-174985916D01*
X29764681Y-174929984D01*
X29830145Y-174905566D01*
X29898418Y-174920417D01*
X29926673Y-174941569D01*
X30048599Y-175063495D01*
X30145384Y-175131265D01*
X30242165Y-175199032D01*
X30242167Y-175199033D01*
X30242170Y-175199035D01*
X30456337Y-175298903D01*
X30684592Y-175360063D01*
X30861034Y-175375500D01*
X30919999Y-175380659D01*
X30920000Y-175380659D01*
X30920001Y-175380659D01*
X30978966Y-175375500D01*
X31155408Y-175360063D01*
X31383663Y-175298903D01*
X31597830Y-175199035D01*
X31791401Y-175063495D01*
X31958495Y-174896401D01*
X32088425Y-174710842D01*
X32143002Y-174667217D01*
X32212500Y-174660023D01*
X32274855Y-174691546D01*
X32291575Y-174710842D01*
X32421500Y-174896395D01*
X32421505Y-174896401D01*
X32588599Y-175063495D01*
X32685384Y-175131265D01*
X32782165Y-175199032D01*
X32782167Y-175199033D01*
X32782170Y-175199035D01*
X32996337Y-175298903D01*
X33224592Y-175360063D01*
X33401034Y-175375500D01*
X33459999Y-175380659D01*
X33460000Y-175380659D01*
X33460001Y-175380659D01*
X33518966Y-175375500D01*
X33695408Y-175360063D01*
X33923663Y-175298903D01*
X34137830Y-175199035D01*
X34331401Y-175063495D01*
X34498495Y-174896401D01*
X34628425Y-174710842D01*
X34683002Y-174667217D01*
X34752500Y-174660023D01*
X34814855Y-174691546D01*
X34831575Y-174710842D01*
X34961500Y-174896395D01*
X34961505Y-174896401D01*
X35128599Y-175063495D01*
X35225384Y-175131265D01*
X35322165Y-175199032D01*
X35322167Y-175199033D01*
X35322170Y-175199035D01*
X35536337Y-175298903D01*
X35764592Y-175360063D01*
X35941034Y-175375500D01*
X35999999Y-175380659D01*
X36000000Y-175380659D01*
X36000001Y-175380659D01*
X36058966Y-175375500D01*
X36235408Y-175360063D01*
X36463663Y-175298903D01*
X36677830Y-175199035D01*
X36871401Y-175063495D01*
X37038495Y-174896401D01*
X37168425Y-174710842D01*
X37223002Y-174667217D01*
X37292500Y-174660023D01*
X37354855Y-174691546D01*
X37371575Y-174710842D01*
X37501500Y-174896395D01*
X37501505Y-174896401D01*
X37668599Y-175063495D01*
X37765384Y-175131265D01*
X37862165Y-175199032D01*
X37862167Y-175199033D01*
X37862170Y-175199035D01*
X38076337Y-175298903D01*
X38304592Y-175360063D01*
X38481034Y-175375500D01*
X38539999Y-175380659D01*
X38540000Y-175380659D01*
X38540001Y-175380659D01*
X38598966Y-175375500D01*
X38775408Y-175360063D01*
X39003663Y-175298903D01*
X39217830Y-175199035D01*
X39411401Y-175063495D01*
X39578495Y-174896401D01*
X39708425Y-174710842D01*
X39763002Y-174667217D01*
X39832500Y-174660023D01*
X39894855Y-174691546D01*
X39911575Y-174710842D01*
X40041500Y-174896395D01*
X40041505Y-174896401D01*
X40208599Y-175063495D01*
X40305384Y-175131265D01*
X40402165Y-175199032D01*
X40402167Y-175199033D01*
X40402170Y-175199035D01*
X40616337Y-175298903D01*
X40844592Y-175360063D01*
X41021034Y-175375500D01*
X41079999Y-175380659D01*
X41080000Y-175380659D01*
X41080001Y-175380659D01*
X41138966Y-175375500D01*
X41315408Y-175360063D01*
X41543663Y-175298903D01*
X41757830Y-175199035D01*
X41951401Y-175063495D01*
X42118495Y-174896401D01*
X42254035Y-174702830D01*
X42353903Y-174488663D01*
X42415063Y-174260408D01*
X42435659Y-174025000D01*
X42415063Y-173789592D01*
X42353903Y-173561337D01*
X42350000Y-173552967D01*
X42328521Y-173506904D01*
X42318029Y-173437827D01*
X42346549Y-173374043D01*
X42405026Y-173335804D01*
X42440903Y-173330500D01*
X43625500Y-173330500D01*
X43692539Y-173350185D01*
X43738294Y-173402989D01*
X43749500Y-173454500D01*
X43749500Y-174572870D01*
X43749501Y-174572876D01*
X43755908Y-174632483D01*
X43806202Y-174767328D01*
X43806206Y-174767335D01*
X43892452Y-174882544D01*
X43892455Y-174882547D01*
X44007664Y-174968793D01*
X44007671Y-174968797D01*
X44142517Y-175019091D01*
X44142516Y-175019091D01*
X44149444Y-175019835D01*
X44202127Y-175025500D01*
X45797872Y-175025499D01*
X45857483Y-175019091D01*
X45992331Y-174968796D01*
X46107546Y-174882546D01*
X46154994Y-174819163D01*
X46210925Y-174777293D01*
X46280617Y-174772309D01*
X46295206Y-174776431D01*
X46320745Y-174785368D01*
X46320749Y-174785368D01*
X46320753Y-174785369D01*
X46499996Y-174805565D01*
X46500000Y-174805565D01*
X46500004Y-174805565D01*
X46679249Y-174785369D01*
X46679252Y-174785368D01*
X46679255Y-174785368D01*
X46849522Y-174725789D01*
X47002262Y-174629816D01*
X47129816Y-174502262D01*
X47225789Y-174349522D01*
X47285368Y-174179255D01*
X47285369Y-174179249D01*
X47305565Y-174000003D01*
X47305565Y-173999996D01*
X47285369Y-173820750D01*
X47285368Y-173820745D01*
X47225789Y-173650478D01*
X47129816Y-173497738D01*
X47029726Y-173397648D01*
X48699500Y-173397648D01*
X48699500Y-173602351D01*
X48731522Y-173804534D01*
X48794781Y-173999223D01*
X48858691Y-174124653D01*
X48886513Y-174179255D01*
X48887715Y-174181613D01*
X49008028Y-174347213D01*
X49152786Y-174491971D01*
X49307749Y-174604556D01*
X49318390Y-174612287D01*
X49412077Y-174660023D01*
X49500776Y-174705218D01*
X49500778Y-174705218D01*
X49500781Y-174705220D01*
X49564083Y-174725788D01*
X49695465Y-174768477D01*
X49751127Y-174777293D01*
X49897648Y-174800500D01*
X49897649Y-174800500D01*
X50102351Y-174800500D01*
X50102352Y-174800500D01*
X50304534Y-174768477D01*
X50499219Y-174705220D01*
X50681610Y-174612287D01*
X50833048Y-174502262D01*
X50847213Y-174491971D01*
X50847215Y-174491968D01*
X50847219Y-174491966D01*
X50991966Y-174347219D01*
X50991968Y-174347215D01*
X50991971Y-174347213D01*
X51055041Y-174260403D01*
X51112287Y-174181610D01*
X51205220Y-173999219D01*
X51268477Y-173804534D01*
X51300500Y-173602352D01*
X51300500Y-173397648D01*
X51294292Y-173358454D01*
X51268477Y-173195465D01*
X51232891Y-173085943D01*
X51205220Y-173000781D01*
X51205218Y-173000778D01*
X51205218Y-173000776D01*
X51163756Y-172919404D01*
X51112287Y-172818390D01*
X51075185Y-172767323D01*
X50991971Y-172652786D01*
X50847213Y-172508028D01*
X50681613Y-172387715D01*
X50681612Y-172387714D01*
X50681610Y-172387713D01*
X50624653Y-172358691D01*
X50499223Y-172294781D01*
X50304534Y-172231522D01*
X50129995Y-172203878D01*
X50102352Y-172199500D01*
X49897648Y-172199500D01*
X49873329Y-172203351D01*
X49695465Y-172231522D01*
X49500776Y-172294781D01*
X49318386Y-172387715D01*
X49152786Y-172508028D01*
X49008028Y-172652786D01*
X48887715Y-172818386D01*
X48794781Y-173000776D01*
X48731522Y-173195465D01*
X48699500Y-173397648D01*
X47029726Y-173397648D01*
X47002262Y-173370184D01*
X46849523Y-173274211D01*
X46679254Y-173214631D01*
X46679249Y-173214630D01*
X46500004Y-173194435D01*
X46499996Y-173194435D01*
X46334010Y-173213136D01*
X46265188Y-173201081D01*
X46213809Y-173153732D01*
X46196185Y-173086121D01*
X46205567Y-173042461D01*
X46211091Y-173029127D01*
X46250500Y-172831003D01*
X46250500Y-172628997D01*
X46211091Y-172430873D01*
X46133786Y-172244244D01*
X46133785Y-172244242D01*
X46133100Y-172242960D01*
X46132943Y-172242210D01*
X46131455Y-172238616D01*
X46132136Y-172238333D01*
X46118853Y-172174558D01*
X46143849Y-172109313D01*
X46200152Y-172067939D01*
X46242454Y-172060500D01*
X46913331Y-172060500D01*
X46913347Y-172060501D01*
X46920943Y-172060501D01*
X47079054Y-172060501D01*
X47079057Y-172060501D01*
X47231785Y-172019577D01*
X47321903Y-171967547D01*
X47368716Y-171940520D01*
X47480520Y-171828716D01*
X47480520Y-171828714D01*
X47490724Y-171818511D01*
X47490727Y-171818506D01*
X48532416Y-170776819D01*
X48593739Y-170743334D01*
X48620097Y-170740500D01*
X48734682Y-170740500D01*
X48734690Y-170740500D01*
X48770993Y-170737643D01*
X48770995Y-170737642D01*
X48770997Y-170737642D01*
X48812861Y-170725479D01*
X48926395Y-170692494D01*
X49065687Y-170610117D01*
X49090434Y-170585369D01*
X49146018Y-170553276D01*
X49271785Y-170519577D01*
X49321904Y-170490639D01*
X49408716Y-170440520D01*
X49520520Y-170328716D01*
X49520520Y-170328714D01*
X49530728Y-170318507D01*
X49530730Y-170318504D01*
X49858506Y-169990728D01*
X49858511Y-169990724D01*
X49868714Y-169980520D01*
X49868716Y-169980520D01*
X49980520Y-169868716D01*
X50033101Y-169777643D01*
X50059577Y-169731785D01*
X50100500Y-169579058D01*
X50100500Y-169420943D01*
X50100500Y-150889060D01*
X50100501Y-150889047D01*
X50100501Y-150720944D01*
X50059576Y-150568214D01*
X50059573Y-150568209D01*
X49980524Y-150431290D01*
X49980518Y-150431282D01*
X40330700Y-140781465D01*
X40297215Y-140720142D01*
X40295163Y-140707686D01*
X40285368Y-140620745D01*
X40225789Y-140450478D01*
X40129816Y-140297738D01*
X40002262Y-140170184D01*
X39849523Y-140074211D01*
X39679254Y-140014631D01*
X39679249Y-140014630D01*
X39500004Y-139994435D01*
X39499996Y-139994435D01*
X39320750Y-140014630D01*
X39320745Y-140014631D01*
X39150476Y-140074211D01*
X38997737Y-140170184D01*
X38870184Y-140297737D01*
X38774211Y-140450476D01*
X38714631Y-140620745D01*
X38714630Y-140620750D01*
X38694435Y-140799996D01*
X38694435Y-140800003D01*
X38714630Y-140979249D01*
X38714631Y-140979254D01*
X38774211Y-141149523D01*
X38852365Y-141273903D01*
X38870184Y-141302262D01*
X38997738Y-141429816D01*
X39150478Y-141525789D01*
X39320745Y-141585368D01*
X39407669Y-141595161D01*
X39472080Y-141622226D01*
X39481465Y-141630700D01*
X48863181Y-151012416D01*
X48896666Y-151073739D01*
X48899500Y-151100097D01*
X48899500Y-167096936D01*
X48879815Y-167163975D01*
X48827011Y-167209730D01*
X48757853Y-167219674D01*
X48734547Y-167213978D01*
X48679260Y-167194633D01*
X48679249Y-167194630D01*
X48500004Y-167174435D01*
X48499996Y-167174435D01*
X48320750Y-167194630D01*
X48320745Y-167194631D01*
X48150476Y-167254211D01*
X47997737Y-167350184D01*
X47870184Y-167477737D01*
X47774211Y-167630476D01*
X47714631Y-167800745D01*
X47714630Y-167800750D01*
X47694435Y-167979996D01*
X47694435Y-167980003D01*
X47714630Y-168159249D01*
X47714633Y-168159262D01*
X47774209Y-168329518D01*
X47774210Y-168329520D01*
X47774211Y-168329522D01*
X47798579Y-168368303D01*
X47817579Y-168435540D01*
X47800317Y-168497395D01*
X47737507Y-168603602D01*
X47737504Y-168603609D01*
X47692357Y-168759002D01*
X47692356Y-168759008D01*
X47689500Y-168795302D01*
X47689500Y-169204697D01*
X47692356Y-169240991D01*
X47692357Y-169240997D01*
X47737504Y-169396391D01*
X47737506Y-169396397D01*
X47749620Y-169416880D01*
X47766801Y-169484604D01*
X47749620Y-169543120D01*
X47737506Y-169563602D01*
X47737504Y-169563608D01*
X47692357Y-169719002D01*
X47692356Y-169719008D01*
X47689500Y-169755302D01*
X47689500Y-169869903D01*
X47669815Y-169936942D01*
X47653181Y-169957584D01*
X46787584Y-170823181D01*
X46726261Y-170856666D01*
X46699903Y-170859500D01*
X46123397Y-170859500D01*
X46056358Y-170839815D01*
X46026288Y-170810279D01*
X46025422Y-170810990D01*
X46021555Y-170806278D01*
X45878718Y-170663441D01*
X45710762Y-170551217D01*
X45710752Y-170551212D01*
X45524127Y-170473909D01*
X45524119Y-170473907D01*
X45326007Y-170434500D01*
X45326003Y-170434500D01*
X44673997Y-170434500D01*
X44673992Y-170434500D01*
X44475880Y-170473907D01*
X44475872Y-170473909D01*
X44289247Y-170551212D01*
X44289237Y-170551217D01*
X44121281Y-170663441D01*
X43978441Y-170806281D01*
X43866217Y-170974237D01*
X43866212Y-170974247D01*
X43788909Y-171160872D01*
X43788907Y-171160880D01*
X43749500Y-171358992D01*
X43749500Y-171561007D01*
X43788907Y-171759119D01*
X43788909Y-171759127D01*
X43866214Y-171945757D01*
X43866900Y-171947040D01*
X43867056Y-171947789D01*
X43868545Y-171951384D01*
X43867863Y-171951666D01*
X43881147Y-172015442D01*
X43856151Y-172080687D01*
X43799848Y-172122061D01*
X43757546Y-172129500D01*
X41274228Y-172129500D01*
X41207189Y-172109815D01*
X41161434Y-172057011D01*
X41151490Y-171987853D01*
X41169235Y-171939527D01*
X41225788Y-171849524D01*
X41236640Y-171818511D01*
X41285368Y-171679255D01*
X41297879Y-171568215D01*
X41305565Y-171500003D01*
X41305565Y-171499996D01*
X41285369Y-171320750D01*
X41285368Y-171320745D01*
X41225788Y-171150476D01*
X41161957Y-171048890D01*
X41129816Y-170997738D01*
X41002262Y-170870184D01*
X40953930Y-170839815D01*
X40849523Y-170774211D01*
X40679254Y-170714631D01*
X40679249Y-170714630D01*
X40500004Y-170694435D01*
X40499996Y-170694435D01*
X40320750Y-170714630D01*
X40320737Y-170714633D01*
X40150482Y-170774208D01*
X40146327Y-170776819D01*
X40111693Y-170798580D01*
X40044458Y-170817579D01*
X39982603Y-170800317D01*
X39917323Y-170761711D01*
X39876395Y-170737506D01*
X39876394Y-170737505D01*
X39876393Y-170737505D01*
X39876390Y-170737504D01*
X39720997Y-170692357D01*
X39720991Y-170692356D01*
X39684697Y-170689500D01*
X39684690Y-170689500D01*
X39275310Y-170689500D01*
X39275302Y-170689500D01*
X39239008Y-170692356D01*
X39239002Y-170692357D01*
X39083608Y-170737504D01*
X39083602Y-170737506D01*
X39063120Y-170749620D01*
X38995396Y-170766801D01*
X38936880Y-170749620D01*
X38916397Y-170737506D01*
X38916391Y-170737504D01*
X38760997Y-170692357D01*
X38760991Y-170692356D01*
X38724697Y-170689500D01*
X38724690Y-170689500D01*
X38315310Y-170689500D01*
X38315302Y-170689500D01*
X38279008Y-170692356D01*
X38279002Y-170692357D01*
X38123606Y-170737504D01*
X38111721Y-170744533D01*
X38043996Y-170761711D01*
X37977735Y-170739548D01*
X37960925Y-170725479D01*
X37898887Y-170663441D01*
X37814620Y-170579174D01*
X37814616Y-170579171D01*
X37814615Y-170579170D01*
X37633666Y-170452468D01*
X37633662Y-170452466D01*
X37633660Y-170452465D01*
X37433450Y-170359106D01*
X37433447Y-170359105D01*
X37433445Y-170359104D01*
X37220070Y-170301930D01*
X37220062Y-170301929D01*
X37000002Y-170282677D01*
X36999998Y-170282677D01*
X36779937Y-170301929D01*
X36779929Y-170301930D01*
X36566554Y-170359104D01*
X36566548Y-170359107D01*
X36366340Y-170452465D01*
X36366338Y-170452466D01*
X36185377Y-170579175D01*
X36029175Y-170735377D01*
X35902466Y-170916338D01*
X35902462Y-170916345D01*
X35874038Y-170977300D01*
X35827865Y-171029739D01*
X35760671Y-171048890D01*
X35693791Y-171028673D01*
X35649276Y-170977300D01*
X35597534Y-170866339D01*
X35509421Y-170740500D01*
X35470827Y-170685381D01*
X35395559Y-170610113D01*
X35314620Y-170529174D01*
X35314616Y-170529171D01*
X35314615Y-170529170D01*
X35133666Y-170402468D01*
X35133662Y-170402466D01*
X35133660Y-170402465D01*
X34933450Y-170309106D01*
X34933447Y-170309105D01*
X34933445Y-170309104D01*
X34720070Y-170251930D01*
X34720062Y-170251929D01*
X34500002Y-170232677D01*
X34499998Y-170232677D01*
X34279937Y-170251929D01*
X34279929Y-170251930D01*
X34066554Y-170309104D01*
X34066548Y-170309107D01*
X33866340Y-170402465D01*
X33866338Y-170402466D01*
X33685377Y-170529175D01*
X33529175Y-170685377D01*
X33402466Y-170866338D01*
X33402465Y-170866340D01*
X33309107Y-171066548D01*
X33309104Y-171066554D01*
X33251930Y-171279929D01*
X33251929Y-171279936D01*
X33249140Y-171311821D01*
X33223687Y-171376890D01*
X33167096Y-171417868D01*
X33097334Y-171421746D01*
X33037931Y-171388694D01*
X32964397Y-171315160D01*
X32964374Y-171315139D01*
X30506819Y-168857584D01*
X30473334Y-168796261D01*
X30470500Y-168769903D01*
X30470500Y-141430097D01*
X30490185Y-141363058D01*
X30506819Y-141342416D01*
X31002416Y-140846819D01*
X31063739Y-140813334D01*
X31090097Y-140810500D01*
X31204682Y-140810500D01*
X31204690Y-140810500D01*
X31240993Y-140807643D01*
X31240995Y-140807642D01*
X31240997Y-140807642D01*
X31331097Y-140781465D01*
X31396395Y-140762494D01*
X31416879Y-140750379D01*
X31484601Y-140733196D01*
X31543119Y-140750379D01*
X31563605Y-140762494D01*
X31563607Y-140762494D01*
X31563608Y-140762495D01*
X31719002Y-140807642D01*
X31719005Y-140807642D01*
X31719007Y-140807643D01*
X31755310Y-140810500D01*
X31755318Y-140810500D01*
X32164682Y-140810500D01*
X32164690Y-140810500D01*
X32200993Y-140807643D01*
X32200995Y-140807642D01*
X32200997Y-140807642D01*
X32291097Y-140781465D01*
X32356395Y-140762494D01*
X32495687Y-140680117D01*
X32538984Y-140636820D01*
X32600307Y-140603334D01*
X32626666Y-140600500D01*
X33170909Y-140600500D01*
X33237948Y-140620185D01*
X33283292Y-140672097D01*
X33285965Y-140677830D01*
X33421505Y-140871401D01*
X33588599Y-141038495D01*
X33685384Y-141106265D01*
X33782165Y-141174032D01*
X33782167Y-141174033D01*
X33782170Y-141174035D01*
X33996337Y-141273903D01*
X34224592Y-141335063D01*
X34401034Y-141350500D01*
X34459999Y-141355659D01*
X34460000Y-141355659D01*
X34460001Y-141355659D01*
X34518966Y-141350500D01*
X34695408Y-141335063D01*
X34923663Y-141273903D01*
X35137830Y-141174035D01*
X35331401Y-141038495D01*
X35453329Y-140916566D01*
X35514648Y-140883084D01*
X35584340Y-140888068D01*
X35640274Y-140929939D01*
X35657189Y-140960917D01*
X35706202Y-141092328D01*
X35706206Y-141092335D01*
X35792452Y-141207544D01*
X35792455Y-141207547D01*
X35907664Y-141293793D01*
X35907671Y-141293797D01*
X36042517Y-141344091D01*
X36042516Y-141344091D01*
X36049444Y-141344835D01*
X36102127Y-141350500D01*
X37897872Y-141350499D01*
X37957483Y-141344091D01*
X38092331Y-141293796D01*
X38207546Y-141207546D01*
X38293796Y-141092331D01*
X38344091Y-140957483D01*
X38350500Y-140897873D01*
X38350499Y-139102128D01*
X38344091Y-139042517D01*
X38342810Y-139039083D01*
X38293797Y-138907671D01*
X38293793Y-138907664D01*
X38207547Y-138792455D01*
X38207544Y-138792452D01*
X38092335Y-138706206D01*
X38092328Y-138706202D01*
X37957482Y-138655908D01*
X37957483Y-138655908D01*
X37897883Y-138649501D01*
X37897881Y-138649500D01*
X37897873Y-138649500D01*
X37897864Y-138649500D01*
X36102129Y-138649500D01*
X36102123Y-138649501D01*
X36042516Y-138655908D01*
X35907671Y-138706202D01*
X35907664Y-138706206D01*
X35792455Y-138792452D01*
X35792452Y-138792455D01*
X35706206Y-138907664D01*
X35706203Y-138907669D01*
X35657189Y-139039083D01*
X35615317Y-139095016D01*
X35549853Y-139119433D01*
X35481580Y-139104581D01*
X35453326Y-139083430D01*
X35331402Y-138961506D01*
X35331395Y-138961501D01*
X35137834Y-138825967D01*
X35137830Y-138825965D01*
X35126636Y-138820745D01*
X34923663Y-138726097D01*
X34923659Y-138726096D01*
X34923655Y-138726094D01*
X34695413Y-138664938D01*
X34695403Y-138664936D01*
X34460001Y-138644341D01*
X34459999Y-138644341D01*
X34224596Y-138664936D01*
X34224586Y-138664938D01*
X33996344Y-138726094D01*
X33996335Y-138726098D01*
X33782171Y-138825964D01*
X33782169Y-138825965D01*
X33588597Y-138961505D01*
X33421506Y-139128596D01*
X33285965Y-139322170D01*
X33285962Y-139322175D01*
X33283289Y-139327909D01*
X33237115Y-139380346D01*
X33170909Y-139399500D01*
X32626666Y-139399500D01*
X32559627Y-139379815D01*
X32538984Y-139363180D01*
X32495692Y-139319887D01*
X32495684Y-139319881D01*
X32356393Y-139237505D01*
X32356390Y-139237504D01*
X32200997Y-139192357D01*
X32200991Y-139192356D01*
X32164697Y-139189500D01*
X32164690Y-139189500D01*
X31755310Y-139189500D01*
X31755303Y-139189500D01*
X31755289Y-139189501D01*
X31754223Y-139189585D01*
X31754054Y-139189549D01*
X31752872Y-139189596D01*
X31752860Y-139189298D01*
X31685847Y-139175218D01*
X31636092Y-139126164D01*
X31620500Y-139065967D01*
X31620500Y-105932458D01*
X31640185Y-105865419D01*
X31692989Y-105819664D01*
X31754231Y-105808841D01*
X31775310Y-105810500D01*
X31775318Y-105810500D01*
X32184682Y-105810500D01*
X32184690Y-105810500D01*
X32220993Y-105807643D01*
X32220995Y-105807642D01*
X32220997Y-105807642D01*
X32261975Y-105795736D01*
X32376395Y-105762494D01*
X32515687Y-105680117D01*
X32558984Y-105636820D01*
X32620307Y-105603334D01*
X32646666Y-105600500D01*
X33170909Y-105600500D01*
X33237948Y-105620185D01*
X33283292Y-105672097D01*
X33285965Y-105677830D01*
X33421505Y-105871401D01*
X33588599Y-106038495D01*
X33685384Y-106106265D01*
X33782165Y-106174032D01*
X33782167Y-106174033D01*
X33782170Y-106174035D01*
X33996337Y-106273903D01*
X34224592Y-106335063D01*
X34401034Y-106350500D01*
X34459999Y-106355659D01*
X34460000Y-106355659D01*
X34460001Y-106355659D01*
X34518966Y-106350500D01*
X34695408Y-106335063D01*
X34923663Y-106273903D01*
X35137830Y-106174035D01*
X35331401Y-106038495D01*
X35453329Y-105916566D01*
X35514648Y-105883084D01*
X35584340Y-105888068D01*
X35640274Y-105929939D01*
X35657189Y-105960917D01*
X35706202Y-106092328D01*
X35706206Y-106092335D01*
X35792452Y-106207544D01*
X35792455Y-106207547D01*
X35907664Y-106293793D01*
X35907671Y-106293797D01*
X36042517Y-106344091D01*
X36042516Y-106344091D01*
X36049444Y-106344835D01*
X36102127Y-106350500D01*
X37897872Y-106350499D01*
X37957483Y-106344091D01*
X38092331Y-106293796D01*
X38207546Y-106207546D01*
X38293796Y-106092331D01*
X38344091Y-105957483D01*
X38348772Y-105913943D01*
X38375510Y-105849395D01*
X38432902Y-105809547D01*
X38485945Y-105803981D01*
X38500000Y-105805565D01*
X38500001Y-105805564D01*
X38500003Y-105805565D01*
X38500004Y-105805565D01*
X38679249Y-105785369D01*
X38679252Y-105785368D01*
X38679255Y-105785368D01*
X38849522Y-105725789D01*
X39002262Y-105629816D01*
X39129816Y-105502262D01*
X39225789Y-105349522D01*
X39285368Y-105179255D01*
X39285369Y-105179249D01*
X39305565Y-105000003D01*
X39305565Y-104999996D01*
X39285369Y-104820750D01*
X39285368Y-104820745D01*
X39266678Y-104767331D01*
X39225789Y-104650478D01*
X39214481Y-104632482D01*
X39177021Y-104572864D01*
X39129816Y-104497738D01*
X39002262Y-104370184D01*
X38934982Y-104327909D01*
X38849523Y-104274211D01*
X38679254Y-104214631D01*
X38679249Y-104214630D01*
X38500004Y-104194435D01*
X38500002Y-104194435D01*
X38500000Y-104194435D01*
X38490666Y-104195486D01*
X38485940Y-104196019D01*
X38417119Y-104183962D01*
X38365741Y-104136612D01*
X38348770Y-104086051D01*
X38344091Y-104042517D01*
X38342810Y-104039083D01*
X38293797Y-103907671D01*
X38293793Y-103907664D01*
X38207547Y-103792455D01*
X38207544Y-103792452D01*
X38092335Y-103706206D01*
X38092328Y-103706202D01*
X37957482Y-103655908D01*
X37957483Y-103655908D01*
X37897883Y-103649501D01*
X37897881Y-103649500D01*
X37897873Y-103649500D01*
X37897864Y-103649500D01*
X36102129Y-103649500D01*
X36102123Y-103649501D01*
X36042516Y-103655908D01*
X35907671Y-103706202D01*
X35907664Y-103706206D01*
X35792455Y-103792452D01*
X35792452Y-103792455D01*
X35706206Y-103907664D01*
X35706203Y-103907669D01*
X35657189Y-104039083D01*
X35615317Y-104095016D01*
X35549853Y-104119433D01*
X35481580Y-104104581D01*
X35453326Y-104083430D01*
X35331402Y-103961506D01*
X35331395Y-103961501D01*
X35137834Y-103825967D01*
X35137830Y-103825965D01*
X35126636Y-103820745D01*
X34923663Y-103726097D01*
X34923659Y-103726096D01*
X34923655Y-103726094D01*
X34695413Y-103664938D01*
X34695403Y-103664936D01*
X34460001Y-103644341D01*
X34459999Y-103644341D01*
X34224596Y-103664936D01*
X34224586Y-103664938D01*
X33996344Y-103726094D01*
X33996335Y-103726098D01*
X33782171Y-103825964D01*
X33782169Y-103825965D01*
X33588597Y-103961505D01*
X33421506Y-104128596D01*
X33285965Y-104322170D01*
X33285962Y-104322175D01*
X33283289Y-104327909D01*
X33237115Y-104380346D01*
X33170909Y-104399500D01*
X32646666Y-104399500D01*
X32579627Y-104379815D01*
X32558984Y-104363180D01*
X32515692Y-104319887D01*
X32515684Y-104319881D01*
X32376393Y-104237505D01*
X32376390Y-104237504D01*
X32220997Y-104192357D01*
X32220991Y-104192356D01*
X32184697Y-104189500D01*
X32184690Y-104189500D01*
X31775310Y-104189500D01*
X31775302Y-104189500D01*
X31754228Y-104191159D01*
X31685851Y-104176794D01*
X31636094Y-104127743D01*
X31620500Y-104067541D01*
X31620500Y-93393910D01*
X31640185Y-93326871D01*
X31692989Y-93281116D01*
X31703541Y-93276869D01*
X31849522Y-93225789D01*
X32002262Y-93129816D01*
X32129816Y-93002262D01*
X32225789Y-92849522D01*
X32285368Y-92679255D01*
X32285369Y-92679249D01*
X32305565Y-92500003D01*
X32305565Y-92499996D01*
X32285369Y-92320750D01*
X32285368Y-92320745D01*
X32225788Y-92150476D01*
X32166210Y-92055659D01*
X32129816Y-91997738D01*
X32002262Y-91870184D01*
X31849523Y-91774211D01*
X31679254Y-91714631D01*
X31679249Y-91714630D01*
X31500004Y-91694435D01*
X31499996Y-91694435D01*
X31320750Y-91714630D01*
X31320745Y-91714631D01*
X31150476Y-91774211D01*
X30997737Y-91870184D01*
X30870184Y-91997737D01*
X30774210Y-92150478D01*
X30714630Y-92320750D01*
X30704837Y-92407666D01*
X30677770Y-92472080D01*
X30669300Y-92481461D01*
X30644237Y-92506524D01*
X30644212Y-92506552D01*
X30539478Y-92611286D01*
X30489361Y-92698094D01*
X30489359Y-92698096D01*
X30460425Y-92748209D01*
X30460424Y-92748210D01*
X30460423Y-92748215D01*
X30419499Y-92900943D01*
X30419499Y-92900945D01*
X30419499Y-93069046D01*
X30419500Y-93069059D01*
X30419500Y-104333333D01*
X30399815Y-104400372D01*
X30383181Y-104421014D01*
X30369887Y-104434307D01*
X30369881Y-104434315D01*
X30287505Y-104573606D01*
X30287504Y-104573609D01*
X30242357Y-104729002D01*
X30242356Y-104729008D01*
X30239500Y-104765302D01*
X30239500Y-105234697D01*
X30242356Y-105270991D01*
X30242357Y-105270997D01*
X30287504Y-105426390D01*
X30287505Y-105426393D01*
X30329697Y-105497737D01*
X30369883Y-105565687D01*
X30383180Y-105578984D01*
X30416666Y-105640305D01*
X30419500Y-105666666D01*
X30419500Y-139313332D01*
X30399815Y-139380371D01*
X30383183Y-139401011D01*
X30349887Y-139434308D01*
X30349879Y-139434318D01*
X30267505Y-139573606D01*
X30267504Y-139573609D01*
X30222357Y-139729002D01*
X30222356Y-139729008D01*
X30219500Y-139765302D01*
X30219500Y-139879902D01*
X30199815Y-139946941D01*
X30183181Y-139967583D01*
X29389481Y-140761282D01*
X29389479Y-140761285D01*
X29339361Y-140848094D01*
X29339359Y-140848096D01*
X29310425Y-140898209D01*
X29310424Y-140898210D01*
X29310423Y-140898215D01*
X29269499Y-141050943D01*
X29269499Y-141050945D01*
X29269499Y-141219046D01*
X29269500Y-141219059D01*
X29269500Y-168983330D01*
X29269499Y-168983348D01*
X29269499Y-169149054D01*
X29269498Y-169149054D01*
X29310423Y-169301785D01*
X29339358Y-169351900D01*
X29339359Y-169351904D01*
X29339360Y-169351904D01*
X29389479Y-169438714D01*
X29389481Y-169438717D01*
X29508349Y-169557585D01*
X29508355Y-169557590D01*
X31963181Y-172012416D01*
X31996666Y-172073739D01*
X31999500Y-172100097D01*
X31999500Y-172895241D01*
X31979815Y-172962280D01*
X31927011Y-173008035D01*
X31857853Y-173017979D01*
X31795830Y-172989654D01*
X31795551Y-172989987D01*
X31794347Y-172988976D01*
X31794297Y-172988954D01*
X31794084Y-172988756D01*
X31791403Y-172986506D01*
X31712884Y-172931526D01*
X31669259Y-172876949D01*
X31662067Y-172807450D01*
X31666963Y-172789007D01*
X31699372Y-172696392D01*
X31705367Y-172679259D01*
X31705369Y-172679249D01*
X31725565Y-172500003D01*
X31725565Y-172499996D01*
X31705369Y-172320750D01*
X31705368Y-172320745D01*
X31674148Y-172231523D01*
X31645789Y-172150478D01*
X31642214Y-172144789D01*
X31587060Y-172057011D01*
X31549816Y-171997738D01*
X31422262Y-171870184D01*
X31389379Y-171849522D01*
X31269523Y-171774211D01*
X31099254Y-171714631D01*
X31099249Y-171714630D01*
X30920004Y-171694435D01*
X30919996Y-171694435D01*
X30740750Y-171714630D01*
X30740745Y-171714631D01*
X30570476Y-171774211D01*
X30417737Y-171870184D01*
X30290184Y-171997737D01*
X30194211Y-172150476D01*
X30134631Y-172320745D01*
X30134630Y-172320750D01*
X30114435Y-172499996D01*
X30114435Y-172500003D01*
X30134630Y-172679249D01*
X30134632Y-172679257D01*
X30173032Y-172788998D01*
X30176593Y-172858777D01*
X30141864Y-172919404D01*
X30127115Y-172931526D01*
X30048602Y-172986502D01*
X29926673Y-173108431D01*
X29865350Y-173141915D01*
X29795658Y-173136931D01*
X29739725Y-173095059D01*
X29722810Y-173064082D01*
X29673797Y-172932671D01*
X29673793Y-172932664D01*
X29587547Y-172817455D01*
X29587544Y-172817452D01*
X29472335Y-172731206D01*
X29472328Y-172731202D01*
X29337482Y-172680908D01*
X29337483Y-172680908D01*
X29277883Y-172674501D01*
X29277881Y-172674500D01*
X29277873Y-172674500D01*
X29277864Y-172674500D01*
X27482129Y-172674500D01*
X27482123Y-172674501D01*
X27422516Y-172680908D01*
X27287671Y-172731202D01*
X27287664Y-172731206D01*
X27172455Y-172817452D01*
X27172452Y-172817455D01*
X27086206Y-172932664D01*
X27086202Y-172932671D01*
X27035908Y-173067517D01*
X27029501Y-173127116D01*
X27029500Y-173127135D01*
X26246275Y-173127135D01*
X26232891Y-173085943D01*
X26205220Y-173000781D01*
X26205218Y-173000778D01*
X26205218Y-173000776D01*
X26163756Y-172919404D01*
X26112287Y-172818390D01*
X26075185Y-172767323D01*
X25991971Y-172652786D01*
X25847213Y-172508028D01*
X25681613Y-172387715D01*
X25681612Y-172387714D01*
X25681610Y-172387713D01*
X25624653Y-172358691D01*
X25499223Y-172294781D01*
X25304534Y-172231522D01*
X25129995Y-172203878D01*
X25102352Y-172199500D01*
X24897648Y-172199500D01*
X24873329Y-172203351D01*
X24695465Y-172231522D01*
X24500776Y-172294781D01*
X24318386Y-172387715D01*
X24152786Y-172508028D01*
X24008028Y-172652786D01*
X23887715Y-172818386D01*
X23794781Y-173000776D01*
X23731522Y-173195465D01*
X23699500Y-173397648D01*
X23000500Y-173397648D01*
X23000500Y-91887001D01*
X23020185Y-91819962D01*
X23072989Y-91774207D01*
X23142147Y-91764263D01*
X23195622Y-91785425D01*
X23322170Y-91874035D01*
X23536337Y-91973903D01*
X23764592Y-92035063D01*
X23941034Y-92050500D01*
X23999999Y-92055659D01*
X24000000Y-92055659D01*
X24000001Y-92055659D01*
X24058966Y-92050500D01*
X24235408Y-92035063D01*
X24463663Y-91973903D01*
X24677830Y-91874035D01*
X24871401Y-91738495D01*
X25038495Y-91571401D01*
X25174035Y-91377830D01*
X25176707Y-91372097D01*
X25222878Y-91319658D01*
X25289091Y-91300500D01*
X41313331Y-91300500D01*
X41313347Y-91300501D01*
X41320943Y-91300501D01*
X41479054Y-91300501D01*
X41479057Y-91300501D01*
X41631785Y-91259577D01*
X41695687Y-91222683D01*
X41768716Y-91180520D01*
X41880520Y-91068716D01*
X41880520Y-91068714D01*
X41890724Y-91058511D01*
X41890727Y-91058506D01*
X44187821Y-88761413D01*
X44249142Y-88727930D01*
X44318834Y-88732914D01*
X44374767Y-88774786D01*
X44399184Y-88840250D01*
X44399500Y-88849096D01*
X44399500Y-97413330D01*
X44399499Y-97413348D01*
X44399499Y-97579054D01*
X44399498Y-97579054D01*
X44440423Y-97731785D01*
X44469358Y-97781900D01*
X44469359Y-97781904D01*
X44469360Y-97781904D01*
X44519479Y-97868714D01*
X44519481Y-97868717D01*
X44638349Y-97987585D01*
X44638355Y-97987590D01*
X47063083Y-100412319D01*
X47096568Y-100473642D01*
X47091584Y-100543334D01*
X47063083Y-100587681D01*
X46827584Y-100823181D01*
X46766261Y-100856666D01*
X46739903Y-100859500D01*
X46623397Y-100859500D01*
X46556358Y-100839815D01*
X46526288Y-100810279D01*
X46525422Y-100810990D01*
X46521555Y-100806278D01*
X46378718Y-100663441D01*
X46210762Y-100551217D01*
X46210752Y-100551212D01*
X46024127Y-100473909D01*
X46024119Y-100473907D01*
X45826007Y-100434500D01*
X45826003Y-100434500D01*
X45173997Y-100434500D01*
X45173992Y-100434500D01*
X44975880Y-100473907D01*
X44975872Y-100473909D01*
X44789247Y-100551212D01*
X44789237Y-100551217D01*
X44621281Y-100663441D01*
X44478441Y-100806281D01*
X44366217Y-100974237D01*
X44366212Y-100974247D01*
X44288909Y-101160872D01*
X44288907Y-101160880D01*
X44249500Y-101358992D01*
X44249500Y-101561007D01*
X44288907Y-101759119D01*
X44288909Y-101759127D01*
X44366214Y-101945757D01*
X44366900Y-101947040D01*
X44367056Y-101947789D01*
X44368545Y-101951384D01*
X44367863Y-101951666D01*
X44381147Y-102015442D01*
X44356151Y-102080687D01*
X44299848Y-102122061D01*
X44257546Y-102129500D01*
X41309773Y-102129500D01*
X41242734Y-102109815D01*
X41196979Y-102057011D01*
X41187035Y-101987853D01*
X41203041Y-101942379D01*
X41212494Y-101926395D01*
X41244042Y-101817804D01*
X41281646Y-101758923D01*
X41322160Y-101735362D01*
X41349522Y-101725789D01*
X41502262Y-101629816D01*
X41629816Y-101502262D01*
X41725789Y-101349522D01*
X41785368Y-101179255D01*
X41785369Y-101179249D01*
X41805565Y-101000003D01*
X41805565Y-100999996D01*
X41785369Y-100820750D01*
X41785368Y-100820745D01*
X41766492Y-100766801D01*
X41725789Y-100650478D01*
X41629816Y-100497738D01*
X41502262Y-100370184D01*
X41474064Y-100352466D01*
X41349523Y-100274211D01*
X41179254Y-100214631D01*
X41179249Y-100214630D01*
X41000004Y-100194435D01*
X40999996Y-100194435D01*
X40820750Y-100214630D01*
X40820745Y-100214631D01*
X40650476Y-100274211D01*
X40497737Y-100370184D01*
X40370182Y-100497739D01*
X40274979Y-100649254D01*
X40222645Y-100695544D01*
X40204582Y-100702357D01*
X40083607Y-100737504D01*
X40083602Y-100737506D01*
X40063120Y-100749620D01*
X39995396Y-100766801D01*
X39936880Y-100749620D01*
X39916397Y-100737506D01*
X39916391Y-100737504D01*
X39760997Y-100692357D01*
X39760991Y-100692356D01*
X39724697Y-100689500D01*
X39724690Y-100689500D01*
X39315310Y-100689500D01*
X39315302Y-100689500D01*
X39279008Y-100692356D01*
X39279002Y-100692357D01*
X39123609Y-100737504D01*
X39123606Y-100737505D01*
X38984315Y-100819881D01*
X38984307Y-100819887D01*
X38941016Y-100863180D01*
X38879693Y-100896666D01*
X38853334Y-100899500D01*
X38185304Y-100899500D01*
X38118265Y-100879815D01*
X38083729Y-100846623D01*
X37970827Y-100685381D01*
X37920826Y-100635380D01*
X37814620Y-100529174D01*
X37814616Y-100529171D01*
X37814615Y-100529170D01*
X37633666Y-100402468D01*
X37633662Y-100402466D01*
X37633660Y-100402465D01*
X37433450Y-100309106D01*
X37433447Y-100309105D01*
X37433445Y-100309104D01*
X37220070Y-100251930D01*
X37220062Y-100251929D01*
X37000002Y-100232677D01*
X36999998Y-100232677D01*
X36779937Y-100251929D01*
X36779929Y-100251930D01*
X36566554Y-100309104D01*
X36566550Y-100309106D01*
X36544103Y-100319572D01*
X36366340Y-100402465D01*
X36366338Y-100402466D01*
X36185377Y-100529175D01*
X36029175Y-100685377D01*
X35902466Y-100866338D01*
X35902462Y-100866345D01*
X35874038Y-100927300D01*
X35827865Y-100979739D01*
X35760671Y-100998890D01*
X35693791Y-100978673D01*
X35649276Y-100927300D01*
X35597534Y-100816339D01*
X35530387Y-100720442D01*
X35470827Y-100635381D01*
X35423127Y-100587681D01*
X35314620Y-100479174D01*
X35314616Y-100479171D01*
X35314615Y-100479170D01*
X35133666Y-100352468D01*
X35133662Y-100352466D01*
X35053963Y-100315302D01*
X34933450Y-100259106D01*
X34933447Y-100259105D01*
X34933445Y-100259104D01*
X34720070Y-100201930D01*
X34720062Y-100201929D01*
X34500002Y-100182677D01*
X34499998Y-100182677D01*
X34279937Y-100201929D01*
X34279929Y-100201930D01*
X34066554Y-100259104D01*
X34066548Y-100259107D01*
X33866340Y-100352465D01*
X33866338Y-100352466D01*
X33685381Y-100479172D01*
X33529174Y-100635380D01*
X33469612Y-100720442D01*
X33415034Y-100764066D01*
X33345536Y-100771258D01*
X33327084Y-100766359D01*
X33179257Y-100714632D01*
X33179249Y-100714630D01*
X33000004Y-100694435D01*
X32999996Y-100694435D01*
X32820750Y-100714630D01*
X32820745Y-100714631D01*
X32650476Y-100774211D01*
X32497737Y-100870184D01*
X32370184Y-100997737D01*
X32274211Y-101150476D01*
X32214631Y-101320745D01*
X32214630Y-101320750D01*
X32194435Y-101499996D01*
X32194435Y-101500003D01*
X32214630Y-101679249D01*
X32214631Y-101679254D01*
X32274211Y-101849523D01*
X32335956Y-101947789D01*
X32370184Y-102002262D01*
X32497738Y-102129816D01*
X32577784Y-102180112D01*
X32644487Y-102222025D01*
X32650478Y-102225789D01*
X32763591Y-102265369D01*
X32820745Y-102285368D01*
X32820750Y-102285369D01*
X32999996Y-102305565D01*
X33000000Y-102305565D01*
X33000004Y-102305565D01*
X33179249Y-102285369D01*
X33179251Y-102285368D01*
X33179255Y-102285368D01*
X33179258Y-102285366D01*
X33179262Y-102285366D01*
X33269377Y-102253832D01*
X33349522Y-102225789D01*
X33355514Y-102222023D01*
X33422745Y-102203021D01*
X33489582Y-102223385D01*
X33523062Y-102255891D01*
X33529174Y-102264620D01*
X33685378Y-102420824D01*
X33685384Y-102420829D01*
X33866333Y-102547531D01*
X33866335Y-102547532D01*
X33866338Y-102547534D01*
X34066550Y-102640894D01*
X34279932Y-102698070D01*
X34437123Y-102711822D01*
X34499998Y-102717323D01*
X34500000Y-102717323D01*
X34500002Y-102717323D01*
X34555017Y-102712509D01*
X34720068Y-102698070D01*
X34933450Y-102640894D01*
X35133662Y-102547534D01*
X35314620Y-102420826D01*
X35470826Y-102264620D01*
X35597534Y-102083662D01*
X35625962Y-102022697D01*
X35672131Y-101970262D01*
X35739325Y-101951109D01*
X35806206Y-101971324D01*
X35850723Y-102022699D01*
X35879151Y-102083662D01*
X35902466Y-102133662D01*
X35902468Y-102133666D01*
X36029170Y-102314615D01*
X36029175Y-102314621D01*
X36185378Y-102470824D01*
X36185384Y-102470829D01*
X36366333Y-102597531D01*
X36366335Y-102597532D01*
X36366338Y-102597534D01*
X36566550Y-102690894D01*
X36779932Y-102748070D01*
X36937123Y-102761822D01*
X36999998Y-102767323D01*
X37000000Y-102767323D01*
X37000002Y-102767323D01*
X37055017Y-102762509D01*
X37220068Y-102748070D01*
X37433450Y-102690894D01*
X37633662Y-102597534D01*
X37814620Y-102470826D01*
X37970826Y-102314620D01*
X38065006Y-102180117D01*
X38083730Y-102153377D01*
X38138307Y-102109752D01*
X38185305Y-102100500D01*
X38853334Y-102100500D01*
X38920373Y-102120185D01*
X38941016Y-102136820D01*
X38984307Y-102180112D01*
X38984311Y-102180115D01*
X38984313Y-102180117D01*
X39123605Y-102262494D01*
X39133501Y-102265369D01*
X39279002Y-102307642D01*
X39279005Y-102307642D01*
X39279007Y-102307643D01*
X39315310Y-102310500D01*
X39429903Y-102310500D01*
X39496942Y-102330185D01*
X39517583Y-102346818D01*
X40381284Y-103210520D01*
X40381286Y-103210521D01*
X40381290Y-103210524D01*
X40518209Y-103289573D01*
X40518216Y-103289577D01*
X40670943Y-103330501D01*
X40670945Y-103330501D01*
X40836654Y-103330501D01*
X40836670Y-103330500D01*
X43250905Y-103330500D01*
X43317944Y-103350185D01*
X43363699Y-103402989D01*
X43373643Y-103472147D01*
X43355899Y-103520472D01*
X43274211Y-103650476D01*
X43214631Y-103820745D01*
X43214630Y-103820750D01*
X43194435Y-103999996D01*
X43194435Y-104000003D01*
X43214630Y-104179249D01*
X43214631Y-104179254D01*
X43274211Y-104349523D01*
X43327490Y-104434315D01*
X43370184Y-104502262D01*
X43497738Y-104629816D01*
X43650478Y-104725789D01*
X43763400Y-104765302D01*
X43820745Y-104785368D01*
X43820750Y-104785369D01*
X43999996Y-104805565D01*
X44000000Y-104805565D01*
X44000004Y-104805565D01*
X44179250Y-104785369D01*
X44179251Y-104785368D01*
X44179255Y-104785368D01*
X44204784Y-104776434D01*
X44274560Y-104772871D01*
X44335188Y-104807598D01*
X44345005Y-104819163D01*
X44392455Y-104882547D01*
X44507664Y-104968793D01*
X44507671Y-104968797D01*
X44642517Y-105019091D01*
X44642516Y-105019091D01*
X44649444Y-105019835D01*
X44702127Y-105025500D01*
X45631442Y-105025499D01*
X45698480Y-105045183D01*
X45744235Y-105097987D01*
X45754179Y-105167146D01*
X45725154Y-105230702D01*
X45672398Y-105266540D01*
X45650478Y-105274210D01*
X45497737Y-105370184D01*
X45370184Y-105497737D01*
X45274211Y-105650476D01*
X45214631Y-105820745D01*
X45214630Y-105820750D01*
X45194435Y-105999996D01*
X45194435Y-106000003D01*
X45214630Y-106179249D01*
X45214631Y-106179254D01*
X45274211Y-106349523D01*
X45278067Y-106355659D01*
X45370184Y-106502262D01*
X45497738Y-106629816D01*
X45650478Y-106725789D01*
X45820745Y-106785368D01*
X45907669Y-106795161D01*
X45972080Y-106822226D01*
X45981465Y-106830700D01*
X47863181Y-108712416D01*
X47896666Y-108773739D01*
X47899500Y-108800097D01*
X47899500Y-135203382D01*
X47882888Y-135265381D01*
X47857646Y-135309102D01*
X47857638Y-135309115D01*
X47853454Y-135316360D01*
X47809200Y-135361077D01*
X47794317Y-135369879D01*
X47679884Y-135484311D01*
X47679881Y-135484315D01*
X47597505Y-135623606D01*
X47597504Y-135623609D01*
X47554946Y-135770095D01*
X47517340Y-135828981D01*
X47453867Y-135858187D01*
X47435870Y-135859500D01*
X44983397Y-135859500D01*
X44916358Y-135839815D01*
X44886288Y-135810279D01*
X44885422Y-135810990D01*
X44881555Y-135806278D01*
X44738718Y-135663441D01*
X44570762Y-135551217D01*
X44570752Y-135551212D01*
X44384127Y-135473909D01*
X44384119Y-135473907D01*
X44186007Y-135434500D01*
X44186003Y-135434500D01*
X43533997Y-135434500D01*
X43533992Y-135434500D01*
X43335880Y-135473907D01*
X43335872Y-135473909D01*
X43149247Y-135551212D01*
X43149237Y-135551217D01*
X42981281Y-135663441D01*
X42838441Y-135806281D01*
X42726217Y-135974237D01*
X42726212Y-135974247D01*
X42648909Y-136160872D01*
X42648907Y-136160880D01*
X42609500Y-136358992D01*
X42609500Y-136561007D01*
X42648907Y-136759119D01*
X42648909Y-136759127D01*
X42726214Y-136945757D01*
X42726900Y-136947040D01*
X42727056Y-136947789D01*
X42728545Y-136951384D01*
X42727863Y-136951666D01*
X42741147Y-137015442D01*
X42716151Y-137080687D01*
X42659848Y-137122061D01*
X42617546Y-137129500D01*
X40829773Y-137129500D01*
X40762734Y-137109815D01*
X40716979Y-137057011D01*
X40707035Y-136987853D01*
X40723041Y-136942379D01*
X40732494Y-136926395D01*
X40777643Y-136770993D01*
X40780500Y-136734690D01*
X40780500Y-136714236D01*
X40785237Y-136686366D01*
X40783819Y-136686043D01*
X40785369Y-136679252D01*
X40805565Y-136500003D01*
X40805565Y-136499996D01*
X40785369Y-136320750D01*
X40783818Y-136313953D01*
X40785228Y-136313631D01*
X40780500Y-136285762D01*
X40780500Y-136265317D01*
X40780499Y-136265302D01*
X40780160Y-136260997D01*
X40777643Y-136229007D01*
X40776386Y-136224682D01*
X40732495Y-136073609D01*
X40732494Y-136073606D01*
X40732494Y-136073605D01*
X40650117Y-135934313D01*
X40650115Y-135934311D01*
X40650112Y-135934307D01*
X40535692Y-135819887D01*
X40535684Y-135819881D01*
X40445183Y-135766359D01*
X40396395Y-135737506D01*
X40396394Y-135737505D01*
X40396393Y-135737505D01*
X40396390Y-135737504D01*
X40240997Y-135692357D01*
X40240991Y-135692356D01*
X40204697Y-135689500D01*
X40204690Y-135689500D01*
X39795310Y-135689500D01*
X39795302Y-135689500D01*
X39759008Y-135692356D01*
X39759002Y-135692357D01*
X39603608Y-135737504D01*
X39603602Y-135737506D01*
X39583120Y-135749620D01*
X39515396Y-135766801D01*
X39456880Y-135749620D01*
X39436397Y-135737506D01*
X39436391Y-135737504D01*
X39280997Y-135692357D01*
X39280991Y-135692356D01*
X39244697Y-135689500D01*
X39244690Y-135689500D01*
X38835310Y-135689500D01*
X38835302Y-135689500D01*
X38799008Y-135692356D01*
X38799002Y-135692357D01*
X38643609Y-135737504D01*
X38643606Y-135737505D01*
X38504315Y-135819881D01*
X38504307Y-135819887D01*
X38461016Y-135863180D01*
X38399693Y-135896666D01*
X38373334Y-135899500D01*
X38185304Y-135899500D01*
X38118265Y-135879815D01*
X38083729Y-135846623D01*
X37970827Y-135685381D01*
X37901057Y-135615611D01*
X37814620Y-135529174D01*
X37814616Y-135529171D01*
X37814615Y-135529170D01*
X37633666Y-135402468D01*
X37633662Y-135402466D01*
X37563787Y-135369883D01*
X37433450Y-135309106D01*
X37433447Y-135309105D01*
X37433445Y-135309104D01*
X37220070Y-135251930D01*
X37220062Y-135251929D01*
X37000002Y-135232677D01*
X36999998Y-135232677D01*
X36779937Y-135251929D01*
X36779929Y-135251930D01*
X36566554Y-135309104D01*
X36566548Y-135309107D01*
X36366340Y-135402465D01*
X36366338Y-135402466D01*
X36185377Y-135529175D01*
X36029175Y-135685377D01*
X35902466Y-135866338D01*
X35902462Y-135866345D01*
X35874038Y-135927300D01*
X35827865Y-135979739D01*
X35760671Y-135998890D01*
X35693791Y-135978673D01*
X35649276Y-135927300D01*
X35597534Y-135816339D01*
X35530387Y-135720442D01*
X35470827Y-135635381D01*
X35414503Y-135579057D01*
X35314620Y-135479174D01*
X35314616Y-135479171D01*
X35314615Y-135479170D01*
X35133666Y-135352468D01*
X35133662Y-135352466D01*
X35040695Y-135309115D01*
X34933450Y-135259106D01*
X34933447Y-135259105D01*
X34933445Y-135259104D01*
X34720070Y-135201930D01*
X34720062Y-135201929D01*
X34500002Y-135182677D01*
X34499998Y-135182677D01*
X34279937Y-135201929D01*
X34279929Y-135201930D01*
X34066554Y-135259104D01*
X34066548Y-135259107D01*
X33866340Y-135352465D01*
X33866338Y-135352466D01*
X33685381Y-135479172D01*
X33529174Y-135635380D01*
X33469612Y-135720442D01*
X33415034Y-135764066D01*
X33345536Y-135771258D01*
X33327084Y-135766359D01*
X33179257Y-135714632D01*
X33179249Y-135714630D01*
X33000004Y-135694435D01*
X32999996Y-135694435D01*
X32820750Y-135714630D01*
X32820745Y-135714631D01*
X32650476Y-135774211D01*
X32497737Y-135870184D01*
X32370184Y-135997737D01*
X32274211Y-136150476D01*
X32214631Y-136320745D01*
X32214630Y-136320750D01*
X32194435Y-136499996D01*
X32194435Y-136500003D01*
X32214630Y-136679249D01*
X32214631Y-136679254D01*
X32274211Y-136849523D01*
X32335956Y-136947789D01*
X32370184Y-137002262D01*
X32497738Y-137129816D01*
X32577784Y-137180112D01*
X32644487Y-137222025D01*
X32650478Y-137225789D01*
X32820739Y-137285366D01*
X32820745Y-137285368D01*
X32820750Y-137285369D01*
X32999996Y-137305565D01*
X33000000Y-137305565D01*
X33000004Y-137305565D01*
X33179249Y-137285369D01*
X33179251Y-137285368D01*
X33179255Y-137285368D01*
X33179258Y-137285366D01*
X33179262Y-137285366D01*
X33269377Y-137253832D01*
X33349522Y-137225789D01*
X33355514Y-137222023D01*
X33422745Y-137203021D01*
X33489582Y-137223385D01*
X33523062Y-137255891D01*
X33529174Y-137264620D01*
X33685378Y-137420824D01*
X33685384Y-137420829D01*
X33866333Y-137547531D01*
X33866335Y-137547532D01*
X33866338Y-137547534D01*
X34066550Y-137640894D01*
X34279932Y-137698070D01*
X34437123Y-137711822D01*
X34499998Y-137717323D01*
X34500000Y-137717323D01*
X34500002Y-137717323D01*
X34555197Y-137712494D01*
X34720068Y-137698070D01*
X34933450Y-137640894D01*
X35133662Y-137547534D01*
X35314620Y-137420826D01*
X35470826Y-137264620D01*
X35597534Y-137083662D01*
X35625962Y-137022697D01*
X35672131Y-136970262D01*
X35739325Y-136951109D01*
X35806206Y-136971324D01*
X35850723Y-137022699D01*
X35879151Y-137083662D01*
X35902466Y-137133662D01*
X35902468Y-137133666D01*
X36029170Y-137314615D01*
X36029175Y-137314621D01*
X36185378Y-137470824D01*
X36185384Y-137470829D01*
X36366333Y-137597531D01*
X36366335Y-137597532D01*
X36366338Y-137597534D01*
X36566550Y-137690894D01*
X36779932Y-137748070D01*
X36922011Y-137760500D01*
X36999998Y-137767323D01*
X37000000Y-137767323D01*
X37000002Y-137767323D01*
X37055017Y-137762509D01*
X37220068Y-137748070D01*
X37433450Y-137690894D01*
X37633662Y-137597534D01*
X37814620Y-137470826D01*
X37970826Y-137314620D01*
X38061804Y-137184690D01*
X38083730Y-137153377D01*
X38138307Y-137109752D01*
X38185305Y-137100500D01*
X38373334Y-137100500D01*
X38440373Y-137120185D01*
X38461016Y-137136820D01*
X38504307Y-137180112D01*
X38504311Y-137180115D01*
X38504313Y-137180117D01*
X38643605Y-137262494D01*
X38684587Y-137274400D01*
X38799002Y-137307642D01*
X38799005Y-137307642D01*
X38799007Y-137307643D01*
X38835310Y-137310500D01*
X38949903Y-137310500D01*
X39016942Y-137330185D01*
X39037583Y-137346818D01*
X39901284Y-138210520D01*
X39901286Y-138210521D01*
X39901290Y-138210524D01*
X39981300Y-138256717D01*
X40038216Y-138289577D01*
X40190943Y-138330501D01*
X40190945Y-138330501D01*
X40356654Y-138330501D01*
X40356670Y-138330500D01*
X42485500Y-138330500D01*
X42552539Y-138350185D01*
X42598294Y-138402989D01*
X42609500Y-138454500D01*
X42609500Y-139572870D01*
X42609501Y-139572876D01*
X42615908Y-139632483D01*
X42666202Y-139767328D01*
X42666206Y-139767335D01*
X42752452Y-139882544D01*
X42752455Y-139882547D01*
X42867664Y-139968793D01*
X42867671Y-139968797D01*
X43002517Y-140019091D01*
X43002516Y-140019091D01*
X43009444Y-140019835D01*
X43062127Y-140025500D01*
X44657872Y-140025499D01*
X44717483Y-140019091D01*
X44852331Y-139968796D01*
X44967546Y-139882546D01*
X45044054Y-139780344D01*
X45099986Y-139738475D01*
X45169678Y-139733491D01*
X45184273Y-139737615D01*
X45306393Y-139780346D01*
X45320745Y-139785368D01*
X45320746Y-139785368D01*
X45320750Y-139785369D01*
X45499996Y-139805565D01*
X45500000Y-139805565D01*
X45500004Y-139805565D01*
X45679249Y-139785369D01*
X45679252Y-139785368D01*
X45679255Y-139785368D01*
X45849522Y-139725789D01*
X46002262Y-139629816D01*
X46129816Y-139502262D01*
X46225789Y-139349522D01*
X46285368Y-139179255D01*
X46291350Y-139126164D01*
X46305565Y-139000003D01*
X46305565Y-138999996D01*
X46285369Y-138820750D01*
X46285368Y-138820745D01*
X46275468Y-138792452D01*
X46225789Y-138650478D01*
X46225174Y-138649500D01*
X46129815Y-138497737D01*
X46002262Y-138370184D01*
X45849523Y-138274211D01*
X45679254Y-138214631D01*
X45679249Y-138214630D01*
X45500004Y-138194435D01*
X45499996Y-138194435D01*
X45320750Y-138214630D01*
X45320742Y-138214632D01*
X45200470Y-138256717D01*
X45130691Y-138260278D01*
X45070064Y-138225549D01*
X45037837Y-138163555D01*
X45044243Y-138093980D01*
X45044956Y-138092221D01*
X45071089Y-138029132D01*
X45071089Y-138029131D01*
X45071091Y-138029127D01*
X45110500Y-137831003D01*
X45110500Y-137628997D01*
X45071091Y-137430873D01*
X44993786Y-137244244D01*
X44993785Y-137244242D01*
X44993100Y-137242960D01*
X44992943Y-137242210D01*
X44991455Y-137238616D01*
X44992136Y-137238333D01*
X44978853Y-137174558D01*
X45003849Y-137109313D01*
X45060152Y-137067939D01*
X45102454Y-137060500D01*
X47425500Y-137060500D01*
X47492539Y-137080185D01*
X47538294Y-137132989D01*
X47549016Y-137182277D01*
X47549238Y-137182268D01*
X47549309Y-137182263D01*
X47549309Y-137182265D01*
X47549405Y-137182262D01*
X47549491Y-137184459D01*
X47549500Y-137184500D01*
X47549500Y-137184697D01*
X47552356Y-137220991D01*
X47552357Y-137220997D01*
X47597504Y-137376390D01*
X47597505Y-137376393D01*
X47679881Y-137515684D01*
X47679887Y-137515692D01*
X47794307Y-137630112D01*
X47794311Y-137630115D01*
X47794313Y-137630117D01*
X47933605Y-137712494D01*
X47974587Y-137724400D01*
X48089002Y-137757642D01*
X48089005Y-137757642D01*
X48089007Y-137757643D01*
X48125310Y-137760500D01*
X48145763Y-137760500D01*
X48173629Y-137765236D01*
X48173953Y-137763818D01*
X48180743Y-137765367D01*
X48180745Y-137765368D01*
X48180746Y-137765368D01*
X48180750Y-137765369D01*
X48359996Y-137785565D01*
X48360000Y-137785565D01*
X48360004Y-137785565D01*
X48539249Y-137765369D01*
X48539251Y-137765368D01*
X48539255Y-137765368D01*
X48539258Y-137765366D01*
X48546047Y-137763818D01*
X48546370Y-137765236D01*
X48574237Y-137760500D01*
X48594682Y-137760500D01*
X48594690Y-137760500D01*
X48630993Y-137757643D01*
X48630995Y-137757642D01*
X48630997Y-137757642D01*
X48671975Y-137745736D01*
X48786395Y-137712494D01*
X48925687Y-137630117D01*
X49040117Y-137515687D01*
X49122494Y-137376395D01*
X49160888Y-137244244D01*
X49167642Y-137220997D01*
X49167643Y-137220991D01*
X49170499Y-137184697D01*
X49170500Y-137184690D01*
X49170500Y-136775310D01*
X49167643Y-136739007D01*
X49166386Y-136734682D01*
X49122495Y-136583609D01*
X49122495Y-136583608D01*
X49122494Y-136583607D01*
X49122494Y-136583605D01*
X49110379Y-136563120D01*
X49093196Y-136495399D01*
X49110379Y-136436880D01*
X49122494Y-136416395D01*
X49167643Y-136260993D01*
X49170500Y-136224690D01*
X49170500Y-135815310D01*
X49167643Y-135779007D01*
X49163968Y-135766359D01*
X49122495Y-135623609D01*
X49122493Y-135623603D01*
X49117767Y-135615611D01*
X49100501Y-135552493D01*
X49100501Y-135413348D01*
X49100500Y-135413330D01*
X49100500Y-108589059D01*
X49100501Y-108589046D01*
X49100501Y-108420945D01*
X49100501Y-108420943D01*
X49059577Y-108268215D01*
X49030639Y-108218095D01*
X48980520Y-108131284D01*
X48868716Y-108019480D01*
X48868715Y-108019479D01*
X48864385Y-108015149D01*
X48864374Y-108015139D01*
X46830700Y-105981465D01*
X46797215Y-105920142D01*
X46795163Y-105907686D01*
X46785368Y-105820745D01*
X46725789Y-105650478D01*
X46629816Y-105497738D01*
X46502262Y-105370184D01*
X46469379Y-105349522D01*
X46349523Y-105274211D01*
X46312553Y-105261275D01*
X46255777Y-105220553D01*
X46230030Y-105155600D01*
X46243486Y-105087039D01*
X46291873Y-105036636D01*
X46340255Y-105020943D01*
X46357483Y-105019091D01*
X46492328Y-104968797D01*
X46492327Y-104968797D01*
X46492331Y-104968796D01*
X46607546Y-104882546D01*
X46693796Y-104767331D01*
X46744091Y-104632483D01*
X46750500Y-104572873D01*
X46750499Y-103427128D01*
X46744091Y-103367517D01*
X46715021Y-103289577D01*
X46693797Y-103232671D01*
X46693796Y-103232670D01*
X46693796Y-103232669D01*
X46692967Y-103231562D01*
X46692485Y-103230268D01*
X46689546Y-103224886D01*
X46690319Y-103224463D01*
X46668551Y-103166099D01*
X46677675Y-103109798D01*
X46711089Y-103029132D01*
X46711089Y-103029131D01*
X46711091Y-103029127D01*
X46750500Y-102831003D01*
X46750500Y-102628997D01*
X46711091Y-102430873D01*
X46633786Y-102244244D01*
X46633785Y-102244242D01*
X46633100Y-102242960D01*
X46632943Y-102242210D01*
X46631455Y-102238616D01*
X46632136Y-102238333D01*
X46618853Y-102174558D01*
X46643849Y-102109313D01*
X46700152Y-102067939D01*
X46742454Y-102060500D01*
X46953331Y-102060500D01*
X46953347Y-102060501D01*
X46960943Y-102060501D01*
X47119054Y-102060501D01*
X47119057Y-102060501D01*
X47271785Y-102019577D01*
X47339435Y-101980519D01*
X47408716Y-101940520D01*
X47520520Y-101828716D01*
X47520520Y-101828714D01*
X47530724Y-101818511D01*
X47530727Y-101818506D01*
X48192416Y-101156819D01*
X48253739Y-101123334D01*
X48280097Y-101120500D01*
X48567541Y-101120500D01*
X48634580Y-101140185D01*
X48680335Y-101192989D01*
X48691159Y-101254228D01*
X48689500Y-101275302D01*
X48689500Y-101684697D01*
X48692356Y-101720991D01*
X48692357Y-101720997D01*
X48737504Y-101876390D01*
X48737505Y-101876393D01*
X48819881Y-102015684D01*
X48819887Y-102015692D01*
X48934307Y-102130112D01*
X48934311Y-102130115D01*
X48934313Y-102130117D01*
X49073605Y-102212494D01*
X49106411Y-102222025D01*
X49229002Y-102257642D01*
X49229005Y-102257642D01*
X49229007Y-102257643D01*
X49265310Y-102260500D01*
X49285763Y-102260500D01*
X49313629Y-102265236D01*
X49313953Y-102263818D01*
X49320743Y-102265367D01*
X49320745Y-102265368D01*
X49320746Y-102265368D01*
X49320750Y-102265369D01*
X49499996Y-102285565D01*
X49500000Y-102285565D01*
X49500004Y-102285565D01*
X49679249Y-102265369D01*
X49679251Y-102265368D01*
X49679255Y-102265368D01*
X49679258Y-102265366D01*
X49686047Y-102263818D01*
X49686370Y-102265236D01*
X49714237Y-102260500D01*
X49734682Y-102260500D01*
X49734690Y-102260500D01*
X49770993Y-102257643D01*
X49770995Y-102257642D01*
X49770997Y-102257642D01*
X49817119Y-102244242D01*
X49926395Y-102212494D01*
X50065687Y-102130117D01*
X50180117Y-102015687D01*
X50262494Y-101876395D01*
X50307643Y-101720993D01*
X50310500Y-101684690D01*
X50310500Y-101275310D01*
X50307643Y-101239007D01*
X50305006Y-101229932D01*
X50262495Y-101083609D01*
X50262495Y-101083608D01*
X50262494Y-101083607D01*
X50262494Y-101083605D01*
X50250379Y-101063120D01*
X50233196Y-100995399D01*
X50250379Y-100936880D01*
X50262494Y-100916395D01*
X50307643Y-100760993D01*
X50310500Y-100724690D01*
X50310500Y-100315310D01*
X50307643Y-100279007D01*
X50301861Y-100259107D01*
X50262495Y-100123609D01*
X50262494Y-100123606D01*
X50262494Y-100123605D01*
X50180117Y-99984313D01*
X50180115Y-99984311D01*
X50180112Y-99984307D01*
X50065692Y-99869887D01*
X50065684Y-99869881D01*
X49926393Y-99787505D01*
X49926390Y-99787504D01*
X49770997Y-99742357D01*
X49770991Y-99742356D01*
X49734697Y-99739500D01*
X49734690Y-99739500D01*
X49265310Y-99739500D01*
X49265302Y-99739500D01*
X49229008Y-99742356D01*
X49229002Y-99742357D01*
X49073609Y-99787504D01*
X49073606Y-99787505D01*
X48934315Y-99869881D01*
X48934307Y-99869887D01*
X48921014Y-99883181D01*
X48859691Y-99916666D01*
X48833333Y-99919500D01*
X48320098Y-99919500D01*
X48253059Y-99899815D01*
X48232417Y-99883181D01*
X45636819Y-97287583D01*
X45603334Y-97226260D01*
X45600500Y-97199902D01*
X45600500Y-88971279D01*
X45620185Y-88904240D01*
X45672989Y-88858485D01*
X45742147Y-88848541D01*
X45805703Y-88877566D01*
X45812181Y-88883598D01*
X47763181Y-90834598D01*
X47796666Y-90895921D01*
X47799500Y-90922279D01*
X47799500Y-95017587D01*
X47779815Y-95084626D01*
X47772450Y-95094896D01*
X47770186Y-95097734D01*
X47674211Y-95250476D01*
X47614631Y-95420745D01*
X47614630Y-95420750D01*
X47594435Y-95599996D01*
X47594435Y-95600003D01*
X47614630Y-95779249D01*
X47614631Y-95779254D01*
X47674211Y-95949523D01*
X47770184Y-96102262D01*
X47897738Y-96229816D01*
X48050478Y-96325789D01*
X48220745Y-96385368D01*
X48220750Y-96385369D01*
X48399996Y-96405565D01*
X48400000Y-96405565D01*
X48400004Y-96405565D01*
X48579249Y-96385369D01*
X48579252Y-96385368D01*
X48579255Y-96385368D01*
X48749522Y-96325789D01*
X48902262Y-96229816D01*
X49029816Y-96102262D01*
X49125789Y-95949522D01*
X49185368Y-95779255D01*
X49205565Y-95600000D01*
X49185368Y-95420745D01*
X49125789Y-95250478D01*
X49029816Y-95097738D01*
X49029814Y-95097736D01*
X49029813Y-95097734D01*
X49027550Y-95094896D01*
X49026659Y-95092715D01*
X49026111Y-95091842D01*
X49026264Y-95091745D01*
X49001144Y-95030209D01*
X49000500Y-95017587D01*
X49000500Y-90711242D01*
X49000501Y-90711229D01*
X49000501Y-90543127D01*
X49000501Y-90543125D01*
X48959577Y-90390397D01*
X48925448Y-90331284D01*
X48925448Y-90331283D01*
X48880524Y-90253472D01*
X48880521Y-90253468D01*
X48880520Y-90253466D01*
X48768716Y-90141662D01*
X48768715Y-90141661D01*
X48764385Y-90137331D01*
X48764374Y-90137321D01*
X46059234Y-87432181D01*
X46025749Y-87370858D01*
X46030733Y-87301166D01*
X46072605Y-87245233D01*
X46138069Y-87220816D01*
X46146915Y-87220500D01*
X46817588Y-87220500D01*
X46884627Y-87240185D01*
X46894903Y-87247555D01*
X46897736Y-87249814D01*
X46897738Y-87249816D01*
X47050478Y-87345789D01*
X47220745Y-87405368D01*
X47220750Y-87405369D01*
X47399996Y-87425565D01*
X47400000Y-87425565D01*
X47400004Y-87425565D01*
X47579249Y-87405369D01*
X47579252Y-87405368D01*
X47579255Y-87405368D01*
X47749522Y-87345789D01*
X47902262Y-87249816D01*
X48029816Y-87122262D01*
X48125789Y-86969522D01*
X48185368Y-86799255D01*
X48185956Y-86794035D01*
X48205565Y-86620003D01*
X48205565Y-86619996D01*
X48185369Y-86440750D01*
X48185366Y-86440737D01*
X48166022Y-86385455D01*
X48162460Y-86315676D01*
X48197188Y-86255049D01*
X48259182Y-86222821D01*
X48283063Y-86220500D01*
X49710909Y-86220500D01*
X49777948Y-86240185D01*
G37*
%TD.AperFunction*%
%TA.AperFunction,NonConductor*%
G36*
X33405703Y-172144789D02*
G01*
X33426075Y-172167379D01*
X33529170Y-172314615D01*
X33529175Y-172314621D01*
X33683635Y-172469081D01*
X33717120Y-172530404D01*
X33712136Y-172600096D01*
X33670264Y-172656029D01*
X33604800Y-172680446D01*
X33585146Y-172680290D01*
X33460001Y-172669341D01*
X33459998Y-172669341D01*
X33335307Y-172680250D01*
X33266807Y-172666483D01*
X33216624Y-172617868D01*
X33200500Y-172556722D01*
X33200500Y-172238502D01*
X33220185Y-172171463D01*
X33272989Y-172125708D01*
X33342147Y-172115764D01*
X33405703Y-172144789D01*
G37*
%TD.AperFunction*%
%TA.AperFunction,NonConductor*%
G36*
X34861752Y-172730482D02*
G01*
X34911679Y-172760914D01*
X35045253Y-172894488D01*
X35078738Y-172955811D01*
X35073754Y-173025503D01*
X35045253Y-173069850D01*
X34961505Y-173153597D01*
X34831575Y-173339158D01*
X34776998Y-173382783D01*
X34707500Y-173389977D01*
X34645145Y-173358454D01*
X34628425Y-173339158D01*
X34498494Y-173153597D01*
X34331402Y-172986506D01*
X34331400Y-172986504D01*
X34328686Y-172984604D01*
X34327770Y-172983458D01*
X34327249Y-172983021D01*
X34327336Y-172982916D01*
X34285063Y-172930026D01*
X34277872Y-172860527D01*
X34309396Y-172798173D01*
X34369627Y-172762761D01*
X34410617Y-172759503D01*
X34487449Y-172766225D01*
X34499999Y-172767323D01*
X34500000Y-172767323D01*
X34500002Y-172767323D01*
X34530502Y-172764654D01*
X34720068Y-172748070D01*
X34791903Y-172728821D01*
X34861752Y-172730482D01*
G37*
%TD.AperFunction*%
%TA.AperFunction,NonConductor*%
G36*
X52656557Y-39442491D02*
G01*
X52815371Y-39487678D01*
X52999999Y-39504786D01*
X53000000Y-39504786D01*
X53000001Y-39504786D01*
X53061543Y-39499083D01*
X53184629Y-39487678D01*
X53343440Y-39442492D01*
X53413304Y-39443078D01*
X53471763Y-39481345D01*
X53500000Y-39544573D01*
X53500000Y-39580309D01*
X53499500Y-39584108D01*
X53499500Y-39715891D01*
X53500000Y-39717757D01*
X53500000Y-40282241D01*
X53499500Y-40284108D01*
X53499500Y-40415890D01*
X53500000Y-40419688D01*
X53500000Y-40424059D01*
X53489544Y-40491094D01*
X53443163Y-40543348D01*
X53375893Y-40562232D01*
X53343438Y-40557507D01*
X53184630Y-40512322D01*
X53184628Y-40512321D01*
X53000001Y-40495214D01*
X52999999Y-40495214D01*
X52815371Y-40512321D01*
X52815368Y-40512322D01*
X52656561Y-40557507D01*
X52586694Y-40556920D01*
X52528235Y-40518654D01*
X52500000Y-40455427D01*
X52500000Y-40419688D01*
X52500500Y-40415891D01*
X52500500Y-40284110D01*
X52500500Y-40284108D01*
X52500000Y-40282241D01*
X52500000Y-39717757D01*
X52500500Y-39715892D01*
X52500500Y-39584108D01*
X52500498Y-39584102D01*
X52500000Y-39580317D01*
X52500000Y-39575946D01*
X52510452Y-39508912D01*
X52556830Y-39456655D01*
X52624098Y-39437767D01*
X52656557Y-39442491D01*
G37*
%TD.AperFunction*%
%TA.AperFunction,NonConductor*%
G36*
X53500254Y-39545144D02*
G01*
X53500312Y-39577941D01*
X53500000Y-39580310D01*
X53500000Y-39544575D01*
X53500254Y-39545144D01*
G37*
%TD.AperFunction*%
%TA.AperFunction,NonConductor*%
G36*
X53533609Y-39843188D02*
G01*
X53533609Y-39843189D01*
X53588348Y-39938000D01*
X53604821Y-40005900D01*
X53588348Y-40062000D01*
X53533609Y-40156810D01*
X53533609Y-40156811D01*
X53500000Y-40282241D01*
X53500000Y-39717757D01*
X53533609Y-39843188D01*
G37*
%TD.AperFunction*%
%TA.AperFunction,NonConductor*%
G36*
X53500312Y-40422059D02*
G01*
X53500000Y-40424059D01*
X53500000Y-40419688D01*
X53500312Y-40422059D01*
G37*
%TD.AperFunction*%
%TA.AperFunction,NonConductor*%
G36*
X53500254Y-112795144D02*
G01*
X53500312Y-112827941D01*
X53500000Y-112830310D01*
X53500000Y-112794575D01*
X53500254Y-112795144D01*
G37*
%TD.AperFunction*%
%TA.AperFunction,NonConductor*%
G36*
X53533609Y-113093188D02*
G01*
X53533609Y-113093189D01*
X53588348Y-113188000D01*
X53604821Y-113255900D01*
X53588348Y-113312000D01*
X53533609Y-113406810D01*
X53533609Y-113406811D01*
X53500000Y-113532241D01*
X53500000Y-112967757D01*
X53533609Y-113093188D01*
G37*
%TD.AperFunction*%
%TA.AperFunction,NonConductor*%
G36*
X53500312Y-113672059D02*
G01*
X53500000Y-113674059D01*
X53500000Y-113669688D01*
X53500312Y-113672059D01*
G37*
%TD.AperFunction*%
%TA.AperFunction,NonConductor*%
G36*
X82900712Y-15520185D02*
G01*
X82946467Y-15572989D01*
X82957672Y-15624398D01*
X82961634Y-20489682D01*
X82985143Y-49366199D01*
X82965513Y-49433255D01*
X82912746Y-49479052D01*
X82843596Y-49489052D01*
X82780017Y-49460079D01*
X82742194Y-49401332D01*
X82742067Y-49400895D01*
X82697823Y-49248609D01*
X82697822Y-49248606D01*
X82697822Y-49248605D01*
X82615445Y-49109313D01*
X82615443Y-49109311D01*
X82615440Y-49109307D01*
X82501020Y-48994887D01*
X82501012Y-48994881D01*
X82361721Y-48912505D01*
X82361718Y-48912504D01*
X82206325Y-48867357D01*
X82206319Y-48867356D01*
X82170025Y-48864500D01*
X82170018Y-48864500D01*
X82055425Y-48864500D01*
X81988386Y-48844815D01*
X81967744Y-48828181D01*
X77394483Y-44254920D01*
X77360998Y-44193597D01*
X77358164Y-44167239D01*
X77358164Y-34056395D01*
X77358165Y-34056382D01*
X77358165Y-33888281D01*
X77358165Y-33888279D01*
X77317241Y-33735551D01*
X77288303Y-33685431D01*
X77238184Y-33598620D01*
X77126380Y-33486816D01*
X77126379Y-33486815D01*
X77122049Y-33482485D01*
X77122038Y-33482475D01*
X75796028Y-32156465D01*
X75762543Y-32095142D01*
X75760491Y-32082686D01*
X75750696Y-31995745D01*
X75691117Y-31825478D01*
X75595144Y-31672738D01*
X75467590Y-31545184D01*
X75314851Y-31449211D01*
X75144582Y-31389631D01*
X75144577Y-31389630D01*
X74965332Y-31369435D01*
X74965324Y-31369435D01*
X74786078Y-31389630D01*
X74786073Y-31389631D01*
X74615804Y-31449211D01*
X74463065Y-31545184D01*
X74335512Y-31672737D01*
X74239539Y-31825476D01*
X74179959Y-31995745D01*
X74179958Y-31995750D01*
X74159763Y-32174996D01*
X74159763Y-32175003D01*
X74179958Y-32354249D01*
X74179959Y-32354254D01*
X74239539Y-32524523D01*
X74335512Y-32677262D01*
X74463066Y-32804816D01*
X74615806Y-32900789D01*
X74786073Y-32960368D01*
X74872997Y-32970161D01*
X74937408Y-32997226D01*
X74946793Y-33005700D01*
X76120845Y-34179752D01*
X76154330Y-34241075D01*
X76157164Y-34267433D01*
X76157164Y-44380666D01*
X76157163Y-44380684D01*
X76157163Y-44546390D01*
X76157162Y-44546390D01*
X76198087Y-44699121D01*
X76227022Y-44749236D01*
X76227023Y-44749240D01*
X76227024Y-44749240D01*
X76277143Y-44836050D01*
X76277145Y-44836053D01*
X76396013Y-44954921D01*
X76396019Y-44954926D01*
X80365127Y-48924034D01*
X80398612Y-48985357D01*
X80393628Y-49055049D01*
X80365130Y-49099393D01*
X80355215Y-49109307D01*
X80355207Y-49109318D01*
X80272833Y-49248606D01*
X80272832Y-49248609D01*
X80227685Y-49404002D01*
X80227684Y-49404008D01*
X80224828Y-49440302D01*
X80224828Y-49460762D01*
X80220099Y-49488631D01*
X80221510Y-49488953D01*
X80219958Y-49495750D01*
X80199763Y-49674996D01*
X80199763Y-49675003D01*
X80219958Y-49854252D01*
X80221509Y-49861043D01*
X80220090Y-49861366D01*
X80224828Y-49889236D01*
X80224828Y-49909697D01*
X80227684Y-49945991D01*
X80227685Y-49945997D01*
X80272832Y-50101390D01*
X80272833Y-50101393D01*
X80355209Y-50240684D01*
X80355215Y-50240692D01*
X80365126Y-50250603D01*
X80398611Y-50311926D01*
X80393627Y-50381618D01*
X80365126Y-50425965D01*
X80000035Y-50791056D01*
X79938712Y-50824541D01*
X79869020Y-50819557D01*
X79843465Y-50806478D01*
X79794267Y-50773605D01*
X79760755Y-50751213D01*
X79574127Y-50673909D01*
X79574119Y-50673907D01*
X79376007Y-50634500D01*
X79376003Y-50634500D01*
X78723997Y-50634500D01*
X78723992Y-50634500D01*
X78525880Y-50673907D01*
X78525872Y-50673909D01*
X78339247Y-50751212D01*
X78339237Y-50751217D01*
X78171281Y-50863441D01*
X78028441Y-51006281D01*
X77916217Y-51174237D01*
X77916212Y-51174247D01*
X77838909Y-51360872D01*
X77838907Y-51360880D01*
X77799500Y-51558992D01*
X77799500Y-51761007D01*
X77838907Y-51959119D01*
X77838909Y-51959127D01*
X77916214Y-52145757D01*
X77916900Y-52147040D01*
X77917056Y-52147789D01*
X77918545Y-52151384D01*
X77917863Y-52151666D01*
X77931147Y-52215442D01*
X77906151Y-52280687D01*
X77849848Y-52322061D01*
X77807546Y-52329500D01*
X75080097Y-52329500D01*
X75013058Y-52309815D01*
X74992416Y-52293181D01*
X74650200Y-51950965D01*
X74616715Y-51889642D01*
X74621699Y-51819950D01*
X74650201Y-51775602D01*
X74660117Y-51765687D01*
X74742494Y-51626395D01*
X74775736Y-51511975D01*
X74787642Y-51470997D01*
X74787643Y-51470991D01*
X74790499Y-51434697D01*
X74790500Y-51434690D01*
X74790500Y-51414236D01*
X74795237Y-51386366D01*
X74793819Y-51386043D01*
X74795369Y-51379252D01*
X74815565Y-51200003D01*
X74815565Y-51199996D01*
X74795369Y-51020750D01*
X74793818Y-51013953D01*
X74795228Y-51013631D01*
X74790500Y-50985762D01*
X74790500Y-50965317D01*
X74790499Y-50965302D01*
X74787643Y-50929008D01*
X74787642Y-50929002D01*
X74742495Y-50773609D01*
X74742494Y-50773606D01*
X74742494Y-50773605D01*
X74660117Y-50634313D01*
X74660115Y-50634311D01*
X74660112Y-50634307D01*
X74545692Y-50519887D01*
X74545684Y-50519881D01*
X74430788Y-50451932D01*
X74406395Y-50437506D01*
X74406394Y-50437505D01*
X74406393Y-50437505D01*
X74406390Y-50437504D01*
X74250997Y-50392357D01*
X74250991Y-50392356D01*
X74214697Y-50389500D01*
X74214690Y-50389500D01*
X73805310Y-50389500D01*
X73805302Y-50389500D01*
X73769008Y-50392356D01*
X73769002Y-50392357D01*
X73613608Y-50437504D01*
X73613602Y-50437506D01*
X73593120Y-50449620D01*
X73525396Y-50466801D01*
X73466880Y-50449620D01*
X73446397Y-50437506D01*
X73446391Y-50437504D01*
X73290997Y-50392357D01*
X73290991Y-50392356D01*
X73254697Y-50389500D01*
X73254690Y-50389500D01*
X73140097Y-50389500D01*
X73073058Y-50369815D01*
X73052416Y-50353181D01*
X73025590Y-50326355D01*
X73025588Y-50326352D01*
X72906717Y-50207481D01*
X72906716Y-50207480D01*
X72816716Y-50155519D01*
X72769785Y-50128423D01*
X72617057Y-50087499D01*
X72458943Y-50087499D01*
X72451347Y-50087499D01*
X72451331Y-50087500D01*
X68982943Y-50087500D01*
X68830213Y-50128423D01*
X68783284Y-50155519D01*
X68783283Y-50155519D01*
X68693287Y-50207477D01*
X68693282Y-50207481D01*
X68588838Y-50311926D01*
X68581480Y-50319284D01*
X68581478Y-50319286D01*
X68519146Y-50381618D01*
X68461679Y-50439085D01*
X68400356Y-50472569D01*
X68341906Y-50471178D01*
X68270076Y-50451932D01*
X68270073Y-50451931D01*
X68270068Y-50451930D01*
X68270065Y-50451929D01*
X68270062Y-50451929D01*
X68050002Y-50432677D01*
X68049998Y-50432677D01*
X67829937Y-50451929D01*
X67829929Y-50451930D01*
X67616554Y-50509104D01*
X67616548Y-50509107D01*
X67416340Y-50602465D01*
X67416338Y-50602466D01*
X67235377Y-50729175D01*
X67079175Y-50885377D01*
X66952466Y-51066338D01*
X66952465Y-51066340D01*
X66859107Y-51266548D01*
X66859104Y-51266554D01*
X66801930Y-51479929D01*
X66801929Y-51479937D01*
X66782677Y-51699997D01*
X66782677Y-51700002D01*
X66801929Y-51920062D01*
X66801930Y-51920070D01*
X66859104Y-52133445D01*
X66859105Y-52133447D01*
X66859106Y-52133450D01*
X66934438Y-52295000D01*
X66952466Y-52333662D01*
X66952468Y-52333666D01*
X67079170Y-52514615D01*
X67079175Y-52514621D01*
X67235378Y-52670824D01*
X67235384Y-52670829D01*
X67416333Y-52797531D01*
X67416335Y-52797532D01*
X67416338Y-52797534D01*
X67616550Y-52890894D01*
X67829932Y-52948070D01*
X67970514Y-52960369D01*
X68049998Y-52967323D01*
X68050000Y-52967323D01*
X68050002Y-52967323D01*
X68129486Y-52960369D01*
X68270068Y-52948070D01*
X68483450Y-52890894D01*
X68683662Y-52797534D01*
X68864620Y-52670826D01*
X69020826Y-52514620D01*
X69147534Y-52333662D01*
X69175962Y-52272697D01*
X69222131Y-52220262D01*
X69289325Y-52201109D01*
X69356206Y-52221324D01*
X69400723Y-52272699D01*
X69418031Y-52309815D01*
X69452466Y-52383662D01*
X69452468Y-52383666D01*
X69579170Y-52564615D01*
X69579175Y-52564621D01*
X69735378Y-52720824D01*
X69735384Y-52720829D01*
X69916333Y-52847531D01*
X69916335Y-52847532D01*
X69916338Y-52847534D01*
X70116550Y-52940894D01*
X70329932Y-52998070D01*
X70487123Y-53011822D01*
X70549998Y-53017323D01*
X70550000Y-53017323D01*
X70550002Y-53017323D01*
X70605017Y-53012509D01*
X70770068Y-52998070D01*
X70983450Y-52940894D01*
X71183662Y-52847534D01*
X71312793Y-52757115D01*
X71378997Y-52734789D01*
X71446765Y-52751799D01*
X71471596Y-52771010D01*
X71505402Y-52804816D01*
X71573386Y-52847533D01*
X71642395Y-52890895D01*
X71658142Y-52900789D01*
X71828409Y-52960368D01*
X71828414Y-52960369D01*
X72007660Y-52980565D01*
X72007664Y-52980565D01*
X72007668Y-52980565D01*
X72186913Y-52960369D01*
X72186916Y-52960368D01*
X72186919Y-52960368D01*
X72357186Y-52900789D01*
X72509926Y-52804816D01*
X72637480Y-52677262D01*
X72733453Y-52524522D01*
X72793032Y-52354255D01*
X72793033Y-52354249D01*
X72813229Y-52175003D01*
X72813229Y-52174999D01*
X72810230Y-52148385D01*
X72822284Y-52079563D01*
X72869632Y-52028183D01*
X72933450Y-52010500D01*
X72959903Y-52010500D01*
X73026942Y-52030185D01*
X73047584Y-52046819D01*
X74295139Y-53294374D01*
X74295149Y-53294385D01*
X74299479Y-53298715D01*
X74299480Y-53298716D01*
X74411284Y-53410520D01*
X74411286Y-53410521D01*
X74411290Y-53410524D01*
X74478299Y-53449211D01*
X74548216Y-53489577D01*
X74660019Y-53519534D01*
X74700942Y-53530500D01*
X74700943Y-53530500D01*
X77675500Y-53530500D01*
X77742539Y-53550185D01*
X77788294Y-53602989D01*
X77799500Y-53654500D01*
X77799500Y-54772870D01*
X77799501Y-54772876D01*
X77805908Y-54832483D01*
X77856202Y-54967328D01*
X77856206Y-54967335D01*
X77942452Y-55082544D01*
X77942455Y-55082547D01*
X78057664Y-55168793D01*
X78057671Y-55168797D01*
X78192517Y-55219091D01*
X78192516Y-55219091D01*
X78199444Y-55219835D01*
X78252127Y-55225500D01*
X79847872Y-55225499D01*
X79907483Y-55219091D01*
X80042331Y-55168796D01*
X80157546Y-55082546D01*
X80212618Y-55008979D01*
X80268551Y-54967109D01*
X80325767Y-54960071D01*
X80507660Y-54980565D01*
X80507664Y-54980565D01*
X80507668Y-54980565D01*
X80686913Y-54960369D01*
X80686916Y-54960368D01*
X80686919Y-54960368D01*
X80857186Y-54900789D01*
X81009926Y-54804816D01*
X81137480Y-54677262D01*
X81233453Y-54524522D01*
X81293032Y-54354255D01*
X81296019Y-54327743D01*
X81313229Y-54175003D01*
X81313229Y-54174996D01*
X81293033Y-53995750D01*
X81293032Y-53995745D01*
X81261700Y-53906204D01*
X81233453Y-53825478D01*
X81137480Y-53672738D01*
X81009926Y-53545184D01*
X80986557Y-53530500D01*
X80857187Y-53449211D01*
X80686918Y-53389631D01*
X80686913Y-53389630D01*
X80507668Y-53369435D01*
X80507660Y-53369435D01*
X80395490Y-53382073D01*
X80326668Y-53370018D01*
X80275289Y-53322669D01*
X80257665Y-53255059D01*
X80259990Y-53234662D01*
X80300499Y-53031006D01*
X80300500Y-53031004D01*
X80300500Y-52828996D01*
X80300499Y-52828992D01*
X80278984Y-52720829D01*
X80261091Y-52630873D01*
X80183786Y-52444244D01*
X80156292Y-52403097D01*
X80135415Y-52336422D01*
X80153899Y-52269042D01*
X80205878Y-52222351D01*
X80211957Y-52219641D01*
X80212106Y-52219578D01*
X80212113Y-52219577D01*
X80302231Y-52167547D01*
X80349044Y-52140520D01*
X80460848Y-52028716D01*
X80460848Y-52028714D01*
X80471052Y-52018511D01*
X80471055Y-52018506D01*
X81967744Y-50521819D01*
X82029067Y-50488334D01*
X82055425Y-50485500D01*
X82170010Y-50485500D01*
X82170018Y-50485500D01*
X82206321Y-50482643D01*
X82206323Y-50482642D01*
X82206325Y-50482642D01*
X82260849Y-50466801D01*
X82361723Y-50437494D01*
X82501015Y-50355117D01*
X82615445Y-50240687D01*
X82697822Y-50101395D01*
X82742569Y-49947375D01*
X82780174Y-49888493D01*
X82843646Y-49859286D01*
X82912833Y-49869032D01*
X82965767Y-49914635D01*
X82985643Y-49981618D01*
X82985644Y-49981872D01*
X82994686Y-61087585D01*
X82999500Y-66999972D01*
X82999500Y-67934108D01*
X82999500Y-70934108D01*
X82999500Y-71934108D01*
X82999500Y-99684108D01*
X82999500Y-100434108D01*
X82999500Y-103434108D01*
X82999500Y-104249644D01*
X82999393Y-104315892D01*
X82976085Y-118766627D01*
X82956292Y-118833635D01*
X82903414Y-118879304D01*
X82834240Y-118889136D01*
X82817491Y-118885504D01*
X82720530Y-118857334D01*
X82684516Y-118854500D01*
X82684509Y-118854500D01*
X82565426Y-118854500D01*
X82498387Y-118834815D01*
X82477745Y-118818181D01*
X80122147Y-116462583D01*
X80088662Y-116401260D01*
X80085828Y-116374902D01*
X80085828Y-96806273D01*
X80085828Y-96806271D01*
X80044905Y-96653544D01*
X80044905Y-96653543D01*
X80044905Y-96653542D01*
X80015967Y-96603423D01*
X80015965Y-96603420D01*
X79965848Y-96516612D01*
X79854044Y-96404808D01*
X79854043Y-96404807D01*
X79849713Y-96400477D01*
X79849702Y-96400467D01*
X76530700Y-93081465D01*
X76497215Y-93020142D01*
X76495163Y-93007686D01*
X76485368Y-92920745D01*
X76425789Y-92750478D01*
X76329816Y-92597738D01*
X76202262Y-92470184D01*
X76049523Y-92374211D01*
X75879254Y-92314631D01*
X75879249Y-92314630D01*
X75700004Y-92294435D01*
X75699996Y-92294435D01*
X75520750Y-92314630D01*
X75520745Y-92314631D01*
X75350476Y-92374211D01*
X75197737Y-92470184D01*
X75070184Y-92597737D01*
X74974211Y-92750476D01*
X74914631Y-92920745D01*
X74914630Y-92920750D01*
X74894435Y-93099996D01*
X74894435Y-93100003D01*
X74914630Y-93279249D01*
X74914631Y-93279254D01*
X74974211Y-93449523D01*
X75070184Y-93602262D01*
X75197738Y-93729816D01*
X75350478Y-93825789D01*
X75520745Y-93885368D01*
X75607669Y-93895161D01*
X75672080Y-93922226D01*
X75681465Y-93930700D01*
X78848509Y-97097744D01*
X78881994Y-97159067D01*
X78884828Y-97185425D01*
X78884828Y-116588330D01*
X78884827Y-116588348D01*
X78884827Y-116754054D01*
X78884826Y-116754054D01*
X78925751Y-116906785D01*
X78954686Y-116956900D01*
X78954687Y-116956904D01*
X78954688Y-116956904D01*
X79004807Y-117043714D01*
X79004809Y-117043717D01*
X79123677Y-117162585D01*
X79123683Y-117162590D01*
X80853662Y-118892570D01*
X80887147Y-118953893D01*
X80882163Y-119023585D01*
X80853662Y-119067932D01*
X80824197Y-119097396D01*
X80824191Y-119097404D01*
X80742459Y-119235606D01*
X80742457Y-119235611D01*
X80697663Y-119389791D01*
X80697662Y-119389797D01*
X80694828Y-119425811D01*
X80694828Y-119432185D01*
X80687870Y-119473139D01*
X80679959Y-119495747D01*
X80659763Y-119674996D01*
X80659763Y-119675003D01*
X80679958Y-119854248D01*
X80679960Y-119854254D01*
X80687871Y-119876865D01*
X80694828Y-119917802D01*
X80694828Y-119924178D01*
X80697663Y-119960205D01*
X80742457Y-120114388D01*
X80742459Y-120114393D01*
X80824191Y-120252595D01*
X80824197Y-120252603D01*
X80853661Y-120282066D01*
X80887147Y-120343388D01*
X80882163Y-120413080D01*
X80853662Y-120457429D01*
X80287912Y-121023181D01*
X80226589Y-121056666D01*
X80200231Y-121059500D01*
X80173397Y-121059500D01*
X80106358Y-121039815D01*
X80076288Y-121010279D01*
X80075422Y-121010990D01*
X80071555Y-121006278D01*
X79928718Y-120863441D01*
X79760762Y-120751217D01*
X79760752Y-120751212D01*
X79574127Y-120673909D01*
X79574119Y-120673907D01*
X79376007Y-120634500D01*
X79376003Y-120634500D01*
X78723997Y-120634500D01*
X78723992Y-120634500D01*
X78525880Y-120673907D01*
X78525872Y-120673909D01*
X78339247Y-120751212D01*
X78339237Y-120751217D01*
X78171281Y-120863441D01*
X78028441Y-121006281D01*
X77916217Y-121174237D01*
X77916212Y-121174247D01*
X77838909Y-121360872D01*
X77838907Y-121360880D01*
X77799500Y-121558992D01*
X77799500Y-121761007D01*
X77838907Y-121959119D01*
X77838909Y-121959127D01*
X77916214Y-122145757D01*
X77916900Y-122147040D01*
X77917056Y-122147789D01*
X77918545Y-122151384D01*
X77917863Y-122151666D01*
X77931147Y-122215442D01*
X77906151Y-122280687D01*
X77849848Y-122322061D01*
X77807546Y-122329500D01*
X75756892Y-122329500D01*
X75689853Y-122309815D01*
X75644098Y-122257011D01*
X75634154Y-122187853D01*
X75651899Y-122139527D01*
X75708452Y-122049524D01*
X75719304Y-122018511D01*
X75768032Y-121879255D01*
X75768033Y-121879249D01*
X75788229Y-121700003D01*
X75788229Y-121699996D01*
X75768033Y-121520750D01*
X75768032Y-121520745D01*
X75708452Y-121350476D01*
X75612479Y-121197737D01*
X75484926Y-121070184D01*
X75332187Y-120974211D01*
X75161918Y-120914631D01*
X75161913Y-120914630D01*
X74982668Y-120894435D01*
X74982660Y-120894435D01*
X74803414Y-120914630D01*
X74803401Y-120914633D01*
X74633144Y-120974209D01*
X74617309Y-120984159D01*
X74550072Y-121003158D01*
X74488218Y-120985896D01*
X74455930Y-120966801D01*
X74406395Y-120937506D01*
X74406394Y-120937505D01*
X74406393Y-120937505D01*
X74406390Y-120937504D01*
X74250997Y-120892357D01*
X74250991Y-120892356D01*
X74214697Y-120889500D01*
X74214690Y-120889500D01*
X73805310Y-120889500D01*
X73805302Y-120889500D01*
X73769008Y-120892356D01*
X73769002Y-120892357D01*
X73613608Y-120937504D01*
X73613602Y-120937506D01*
X73593120Y-120949620D01*
X73525396Y-120966801D01*
X73466880Y-120949620D01*
X73446397Y-120937506D01*
X73446391Y-120937504D01*
X73290997Y-120892357D01*
X73290991Y-120892356D01*
X73254697Y-120889500D01*
X73254690Y-120889500D01*
X73140097Y-120889500D01*
X73073058Y-120869815D01*
X73052416Y-120853181D01*
X72525590Y-120326355D01*
X72525588Y-120326352D01*
X72406717Y-120207481D01*
X72406716Y-120207480D01*
X72316718Y-120155520D01*
X72316717Y-120155519D01*
X72269790Y-120128425D01*
X72269789Y-120128424D01*
X72257263Y-120125067D01*
X72117057Y-120087499D01*
X71958943Y-120087499D01*
X71951347Y-120087499D01*
X71951331Y-120087500D01*
X69141057Y-120087500D01*
X68982943Y-120087500D01*
X68830215Y-120128423D01*
X68830214Y-120128423D01*
X68830212Y-120128424D01*
X68830209Y-120128425D01*
X68783283Y-120155519D01*
X68783282Y-120155520D01*
X68738283Y-120181500D01*
X68693285Y-120207479D01*
X68693282Y-120207481D01*
X68618698Y-120282066D01*
X68581480Y-120319284D01*
X68581478Y-120319286D01*
X68511295Y-120389469D01*
X68461679Y-120439085D01*
X68400356Y-120472569D01*
X68341906Y-120471178D01*
X68270076Y-120451932D01*
X68270073Y-120451931D01*
X68270068Y-120451930D01*
X68270065Y-120451929D01*
X68270062Y-120451929D01*
X68050002Y-120432677D01*
X68049998Y-120432677D01*
X67829937Y-120451929D01*
X67829929Y-120451930D01*
X67616554Y-120509104D01*
X67616548Y-120509107D01*
X67416340Y-120602465D01*
X67416338Y-120602466D01*
X67235377Y-120729175D01*
X67079175Y-120885377D01*
X66952466Y-121066338D01*
X66952465Y-121066340D01*
X66859107Y-121266548D01*
X66859104Y-121266554D01*
X66801930Y-121479929D01*
X66801929Y-121479937D01*
X66782677Y-121699997D01*
X66782677Y-121700002D01*
X66801929Y-121920062D01*
X66801930Y-121920070D01*
X66859104Y-122133445D01*
X66859105Y-122133447D01*
X66859106Y-122133450D01*
X66934438Y-122295000D01*
X66952466Y-122333662D01*
X66952468Y-122333666D01*
X67079170Y-122514615D01*
X67079175Y-122514621D01*
X67235378Y-122670824D01*
X67235384Y-122670829D01*
X67416333Y-122797531D01*
X67416335Y-122797532D01*
X67416338Y-122797534D01*
X67616550Y-122890894D01*
X67829932Y-122948070D01*
X67987123Y-122961822D01*
X68049998Y-122967323D01*
X68050000Y-122967323D01*
X68050002Y-122967323D01*
X68105017Y-122962509D01*
X68270068Y-122948070D01*
X68483450Y-122890894D01*
X68683662Y-122797534D01*
X68864620Y-122670826D01*
X69020826Y-122514620D01*
X69147534Y-122333662D01*
X69175962Y-122272697D01*
X69222131Y-122220262D01*
X69289325Y-122201109D01*
X69356206Y-122221324D01*
X69400723Y-122272699D01*
X69417797Y-122309313D01*
X69452466Y-122383662D01*
X69452468Y-122383666D01*
X69575658Y-122559599D01*
X69579174Y-122564620D01*
X69735380Y-122720826D01*
X69916338Y-122847534D01*
X69917477Y-122848065D01*
X69917897Y-122848434D01*
X69921037Y-122850248D01*
X69920673Y-122850878D01*
X69969921Y-122894231D01*
X69984859Y-122928358D01*
X69990422Y-122949119D01*
X69990423Y-122949122D01*
X70000931Y-122967321D01*
X70000932Y-122967323D01*
X70069477Y-123086048D01*
X70069481Y-123086053D01*
X70176962Y-123193534D01*
X70210447Y-123254857D01*
X70212501Y-123267331D01*
X70222294Y-123354249D01*
X70281874Y-123524521D01*
X70346346Y-123627127D01*
X70377848Y-123677262D01*
X70505402Y-123804816D01*
X70658142Y-123900789D01*
X70828409Y-123960368D01*
X70828414Y-123960369D01*
X71007660Y-123980565D01*
X71007664Y-123980565D01*
X71007668Y-123980565D01*
X71186913Y-123960369D01*
X71186916Y-123960368D01*
X71186919Y-123960368D01*
X71357186Y-123900789D01*
X71509926Y-123804816D01*
X71637480Y-123677262D01*
X71733453Y-123524522D01*
X71793032Y-123354255D01*
X71802826Y-123267331D01*
X71813229Y-123175003D01*
X71813229Y-123174996D01*
X71793033Y-122995750D01*
X71793032Y-122995745D01*
X71776718Y-122949122D01*
X71733453Y-122825478D01*
X71637480Y-122672738D01*
X71597914Y-122633172D01*
X71564429Y-122571849D01*
X71569413Y-122502157D01*
X71584021Y-122474367D01*
X71609055Y-122438616D01*
X71647534Y-122383662D01*
X71740894Y-122183450D01*
X71798070Y-121970068D01*
X71816360Y-121761007D01*
X71817323Y-121750002D01*
X71817323Y-121749997D01*
X71805459Y-121614391D01*
X71819226Y-121545891D01*
X71867841Y-121495708D01*
X71935870Y-121479775D01*
X72001713Y-121503150D01*
X72016668Y-121515903D01*
X72233181Y-121732416D01*
X72266666Y-121793739D01*
X72269500Y-121820097D01*
X72269500Y-121934697D01*
X72272356Y-121970991D01*
X72272357Y-121970997D01*
X72317504Y-122126390D01*
X72317505Y-122126393D01*
X72317506Y-122126395D01*
X72332451Y-122151666D01*
X72399881Y-122265684D01*
X72399887Y-122265692D01*
X72514307Y-122380112D01*
X72514311Y-122380115D01*
X72514313Y-122380117D01*
X72653605Y-122462494D01*
X72694472Y-122474367D01*
X72809002Y-122507642D01*
X72809005Y-122507642D01*
X72809007Y-122507643D01*
X72845310Y-122510500D01*
X72959903Y-122510500D01*
X73026942Y-122530185D01*
X73047583Y-122546818D01*
X73911284Y-123410520D01*
X73911286Y-123410521D01*
X73911290Y-123410524D01*
X74048209Y-123489573D01*
X74048216Y-123489577D01*
X74200943Y-123530501D01*
X74200945Y-123530501D01*
X74366654Y-123530501D01*
X74366670Y-123530500D01*
X77675500Y-123530500D01*
X77742539Y-123550185D01*
X77788294Y-123602989D01*
X77799500Y-123654500D01*
X77799500Y-124311765D01*
X77779815Y-124378804D01*
X77727011Y-124424559D01*
X77716455Y-124428806D01*
X77658143Y-124449210D01*
X77658139Y-124449212D01*
X77505401Y-124545184D01*
X77377848Y-124672737D01*
X77281875Y-124825476D01*
X77222295Y-124995745D01*
X77222294Y-124995750D01*
X77202099Y-125174996D01*
X77202099Y-125175003D01*
X77222294Y-125354249D01*
X77222295Y-125354254D01*
X77281875Y-125524523D01*
X77377848Y-125677262D01*
X77505402Y-125804816D01*
X77658142Y-125900789D01*
X77828409Y-125960368D01*
X77828414Y-125960369D01*
X78007660Y-125980565D01*
X78007664Y-125980565D01*
X78007668Y-125980565D01*
X78186913Y-125960369D01*
X78186916Y-125960368D01*
X78186919Y-125960368D01*
X78357186Y-125900789D01*
X78509926Y-125804816D01*
X78637480Y-125677262D01*
X78733453Y-125524522D01*
X78793032Y-125354255D01*
X78793848Y-125347012D01*
X78795133Y-125335614D01*
X78822200Y-125271201D01*
X78879795Y-125231646D01*
X78918353Y-125225499D01*
X79847871Y-125225499D01*
X79847872Y-125225499D01*
X79907483Y-125219091D01*
X80042331Y-125168796D01*
X80157546Y-125082546D01*
X80243796Y-124967331D01*
X80294091Y-124832483D01*
X80300500Y-124772873D01*
X80300499Y-123627128D01*
X80294091Y-123567517D01*
X80278055Y-123524523D01*
X80243797Y-123432671D01*
X80243796Y-123432670D01*
X80243796Y-123432669D01*
X80242967Y-123431562D01*
X80242485Y-123430268D01*
X80239546Y-123424886D01*
X80240319Y-123424463D01*
X80218551Y-123366099D01*
X80227675Y-123309798D01*
X80261089Y-123229132D01*
X80261089Y-123229131D01*
X80261091Y-123229127D01*
X80300500Y-123031003D01*
X80300500Y-122828997D01*
X80261091Y-122630873D01*
X80183786Y-122444244D01*
X80183785Y-122444242D01*
X80183100Y-122442960D01*
X80182943Y-122442210D01*
X80181455Y-122438616D01*
X80182136Y-122438333D01*
X80168853Y-122374558D01*
X80193849Y-122309313D01*
X80250152Y-122267939D01*
X80292454Y-122260500D01*
X80413659Y-122260500D01*
X80413675Y-122260501D01*
X80421271Y-122260501D01*
X80579382Y-122260501D01*
X80579385Y-122260501D01*
X80732113Y-122219577D01*
X80822231Y-122167547D01*
X80869044Y-122140520D01*
X80980848Y-122028716D01*
X80980848Y-122028714D01*
X80991052Y-122018511D01*
X80991056Y-122018506D01*
X82477744Y-120531818D01*
X82539067Y-120498333D01*
X82565425Y-120495499D01*
X82684496Y-120495499D01*
X82684508Y-120495499D01*
X82720532Y-120492665D01*
X82794491Y-120471178D01*
X82814559Y-120465348D01*
X82884429Y-120465547D01*
X82943099Y-120503489D01*
X82971942Y-120567128D01*
X82973154Y-120584624D01*
X82968947Y-123193534D01*
X82959098Y-129300500D01*
X82958170Y-129875700D01*
X82938377Y-129942708D01*
X82885499Y-129988377D01*
X82834170Y-129999500D01*
X54083930Y-129999500D01*
X54016891Y-129979815D01*
X53971136Y-129927011D01*
X53959930Y-129875150D01*
X53965511Y-127897648D01*
X54657164Y-127897648D01*
X54657164Y-128102351D01*
X54689186Y-128304534D01*
X54752445Y-128499223D01*
X54845379Y-128681613D01*
X54965692Y-128847213D01*
X55110450Y-128991971D01*
X55265413Y-129104556D01*
X55276054Y-129112287D01*
X55392271Y-129171503D01*
X55458440Y-129205218D01*
X55458442Y-129205218D01*
X55458445Y-129205220D01*
X55562801Y-129239127D01*
X55653129Y-129268477D01*
X55754221Y-129284488D01*
X55855312Y-129300500D01*
X55855313Y-129300500D01*
X56060015Y-129300500D01*
X56060016Y-129300500D01*
X56262198Y-129268477D01*
X56456883Y-129205220D01*
X56639274Y-129112287D01*
X56732254Y-129044732D01*
X56804877Y-128991971D01*
X56804879Y-128991968D01*
X56804883Y-128991966D01*
X56949630Y-128847219D01*
X56949632Y-128847215D01*
X56949635Y-128847213D01*
X57002396Y-128774590D01*
X57069951Y-128681610D01*
X57162884Y-128499219D01*
X57226141Y-128304534D01*
X57258164Y-128102352D01*
X57258164Y-127897648D01*
X79657164Y-127897648D01*
X79657164Y-128102351D01*
X79689186Y-128304534D01*
X79752445Y-128499223D01*
X79845379Y-128681613D01*
X79965692Y-128847213D01*
X80110450Y-128991971D01*
X80265413Y-129104556D01*
X80276054Y-129112287D01*
X80392271Y-129171503D01*
X80458440Y-129205218D01*
X80458442Y-129205218D01*
X80458445Y-129205220D01*
X80562801Y-129239127D01*
X80653129Y-129268477D01*
X80754221Y-129284488D01*
X80855312Y-129300500D01*
X80855313Y-129300500D01*
X81060015Y-129300500D01*
X81060016Y-129300500D01*
X81262198Y-129268477D01*
X81456883Y-129205220D01*
X81639274Y-129112287D01*
X81732254Y-129044732D01*
X81804877Y-128991971D01*
X81804879Y-128991968D01*
X81804883Y-128991966D01*
X81949630Y-128847219D01*
X81949632Y-128847215D01*
X81949635Y-128847213D01*
X82002396Y-128774590D01*
X82069951Y-128681610D01*
X82162884Y-128499219D01*
X82226141Y-128304534D01*
X82258164Y-128102352D01*
X82258164Y-127897648D01*
X82226141Y-127695466D01*
X82162884Y-127500781D01*
X82162882Y-127500778D01*
X82162882Y-127500776D01*
X82129167Y-127434607D01*
X82069951Y-127318390D01*
X82062220Y-127307749D01*
X81949635Y-127152786D01*
X81804877Y-127008028D01*
X81639277Y-126887715D01*
X81639276Y-126887714D01*
X81639274Y-126887713D01*
X81582317Y-126858691D01*
X81456887Y-126794781D01*
X81262198Y-126731522D01*
X81087659Y-126703878D01*
X81060016Y-126699500D01*
X80855312Y-126699500D01*
X80830993Y-126703351D01*
X80653129Y-126731522D01*
X80458440Y-126794781D01*
X80276050Y-126887715D01*
X80110450Y-127008028D01*
X79965692Y-127152786D01*
X79845379Y-127318386D01*
X79752445Y-127500776D01*
X79689186Y-127695465D01*
X79657164Y-127897648D01*
X57258164Y-127897648D01*
X57226141Y-127695466D01*
X57162884Y-127500781D01*
X57162882Y-127500778D01*
X57162882Y-127500776D01*
X57129167Y-127434607D01*
X57069951Y-127318390D01*
X57062220Y-127307749D01*
X56949635Y-127152786D01*
X56804877Y-127008028D01*
X56639277Y-126887715D01*
X56639276Y-126887714D01*
X56639274Y-126887713D01*
X56582317Y-126858691D01*
X56456887Y-126794781D01*
X56262198Y-126731522D01*
X56087659Y-126703878D01*
X56060016Y-126699500D01*
X55855312Y-126699500D01*
X55830993Y-126703351D01*
X55653129Y-126731522D01*
X55458440Y-126794781D01*
X55276050Y-126887715D01*
X55110450Y-127008028D01*
X54965692Y-127152786D01*
X54845379Y-127318386D01*
X54752445Y-127500776D01*
X54689186Y-127695465D01*
X54657164Y-127897648D01*
X53965511Y-127897648D01*
X53972209Y-125524522D01*
X54000289Y-115575271D01*
X54000500Y-115572139D01*
X54000500Y-115500715D01*
X54000504Y-115499304D01*
X54000684Y-115435521D01*
X54000682Y-115435515D01*
X54000700Y-115429280D01*
X54000500Y-115426147D01*
X54000500Y-114904893D01*
X54020185Y-114837854D01*
X54052261Y-114807272D01*
X54050863Y-114805450D01*
X54057307Y-114800503D01*
X54057314Y-114800500D01*
X54150500Y-114707314D01*
X54216392Y-114593186D01*
X54250500Y-114465892D01*
X54250500Y-114334108D01*
X54216392Y-114206814D01*
X54216390Y-114206810D01*
X54211786Y-114198835D01*
X54195313Y-114130934D01*
X54218166Y-114064908D01*
X54257169Y-114029450D01*
X54307314Y-114000500D01*
X54400500Y-113907314D01*
X54466392Y-113793186D01*
X54500500Y-113665892D01*
X54500500Y-113534108D01*
X54466392Y-113406814D01*
X54411650Y-113311999D01*
X54395178Y-113244100D01*
X54411650Y-113188000D01*
X54466392Y-113093186D01*
X54500500Y-112965892D01*
X54500500Y-112834108D01*
X54466392Y-112706814D01*
X54400500Y-112592686D01*
X54307314Y-112499500D01*
X54257173Y-112470551D01*
X54208957Y-112419984D01*
X54195734Y-112351377D01*
X54211786Y-112301163D01*
X54216392Y-112293186D01*
X54250500Y-112165892D01*
X54250500Y-112034108D01*
X54216392Y-111906814D01*
X54150500Y-111792686D01*
X54057314Y-111699500D01*
X54057311Y-111699498D01*
X54050865Y-111694552D01*
X54052675Y-111692192D01*
X54014280Y-111651920D01*
X54000500Y-111595107D01*
X54000500Y-90199996D01*
X63994435Y-90199996D01*
X63994435Y-90200003D01*
X64014630Y-90379252D01*
X64016181Y-90386043D01*
X64014762Y-90386366D01*
X64019500Y-90414236D01*
X64019500Y-90434697D01*
X64022356Y-90470991D01*
X64022357Y-90470997D01*
X64067504Y-90626390D01*
X64067505Y-90626393D01*
X64149881Y-90765684D01*
X64149887Y-90765692D01*
X64264307Y-90880112D01*
X64264311Y-90880115D01*
X64264313Y-90880117D01*
X64403605Y-90962494D01*
X64444587Y-90974400D01*
X64559002Y-91007642D01*
X64559005Y-91007642D01*
X64559007Y-91007643D01*
X64595310Y-91010500D01*
X64595318Y-91010500D01*
X65004682Y-91010500D01*
X65004690Y-91010500D01*
X65040993Y-91007643D01*
X65040995Y-91007642D01*
X65040997Y-91007642D01*
X65081975Y-90995736D01*
X65196395Y-90962494D01*
X65216879Y-90950379D01*
X65284601Y-90933196D01*
X65343119Y-90950379D01*
X65363605Y-90962494D01*
X65363607Y-90962494D01*
X65363608Y-90962495D01*
X65519002Y-91007642D01*
X65519005Y-91007642D01*
X65519007Y-91007643D01*
X65555310Y-91010500D01*
X65555318Y-91010500D01*
X65964682Y-91010500D01*
X65964690Y-91010500D01*
X66000993Y-91007643D01*
X66000995Y-91007642D01*
X66000997Y-91007642D01*
X66041975Y-90995736D01*
X66156395Y-90962494D01*
X66295687Y-90880117D01*
X66338984Y-90836820D01*
X66400307Y-90803334D01*
X66426666Y-90800500D01*
X66720909Y-90800500D01*
X66787948Y-90820185D01*
X66833292Y-90872097D01*
X66835965Y-90877830D01*
X66971505Y-91071401D01*
X67138599Y-91238495D01*
X67235384Y-91306265D01*
X67332165Y-91374032D01*
X67332167Y-91374033D01*
X67332170Y-91374035D01*
X67546337Y-91473903D01*
X67774592Y-91535063D01*
X67951034Y-91550500D01*
X68009999Y-91555659D01*
X68010000Y-91555659D01*
X68010001Y-91555659D01*
X68068966Y-91550500D01*
X68245408Y-91535063D01*
X68473663Y-91473903D01*
X68687830Y-91374035D01*
X68881401Y-91238495D01*
X69003329Y-91116566D01*
X69064648Y-91083084D01*
X69134340Y-91088068D01*
X69190274Y-91129939D01*
X69207189Y-91160917D01*
X69256202Y-91292328D01*
X69256206Y-91292335D01*
X69342452Y-91407544D01*
X69342455Y-91407547D01*
X69457664Y-91493793D01*
X69457671Y-91493797D01*
X69592517Y-91544091D01*
X69592516Y-91544091D01*
X69599444Y-91544835D01*
X69652127Y-91550500D01*
X71447872Y-91550499D01*
X71507483Y-91544091D01*
X71642331Y-91493796D01*
X71757546Y-91407546D01*
X71843796Y-91292331D01*
X71894091Y-91157483D01*
X71898913Y-91112638D01*
X71925651Y-91048087D01*
X71983044Y-91008239D01*
X72008315Y-91002674D01*
X72082002Y-90994372D01*
X72161914Y-90985369D01*
X72161917Y-90985368D01*
X72161919Y-90985368D01*
X72332186Y-90925789D01*
X72484926Y-90829816D01*
X72612480Y-90702262D01*
X72708453Y-90549522D01*
X72768032Y-90379255D01*
X72768033Y-90379249D01*
X72788229Y-90200003D01*
X72788229Y-90199996D01*
X72768033Y-90020750D01*
X72768032Y-90020745D01*
X72749342Y-89967331D01*
X72708453Y-89850478D01*
X72697145Y-89832482D01*
X72612479Y-89697737D01*
X72484926Y-89570184D01*
X72332187Y-89474211D01*
X72161918Y-89414631D01*
X72161913Y-89414630D01*
X72008318Y-89397325D01*
X71943904Y-89370259D01*
X71904348Y-89312664D01*
X71898911Y-89287357D01*
X71894091Y-89242516D01*
X71843797Y-89107671D01*
X71843793Y-89107664D01*
X71757547Y-88992455D01*
X71757544Y-88992452D01*
X71642335Y-88906206D01*
X71642328Y-88906202D01*
X71507482Y-88855908D01*
X71507483Y-88855908D01*
X71447883Y-88849501D01*
X71447881Y-88849500D01*
X71447873Y-88849500D01*
X71447864Y-88849500D01*
X69652129Y-88849500D01*
X69652123Y-88849501D01*
X69592516Y-88855908D01*
X69457671Y-88906202D01*
X69457664Y-88906206D01*
X69342455Y-88992452D01*
X69342452Y-88992455D01*
X69256206Y-89107664D01*
X69256203Y-89107669D01*
X69207189Y-89239083D01*
X69165317Y-89295016D01*
X69099853Y-89319433D01*
X69031580Y-89304581D01*
X69003326Y-89283430D01*
X68881402Y-89161506D01*
X68881395Y-89161501D01*
X68687834Y-89025967D01*
X68687830Y-89025965D01*
X68687828Y-89025964D01*
X68473663Y-88926097D01*
X68473659Y-88926096D01*
X68473655Y-88926094D01*
X68245413Y-88864938D01*
X68245403Y-88864936D01*
X68010001Y-88844341D01*
X68009999Y-88844341D01*
X67774596Y-88864936D01*
X67774586Y-88864938D01*
X67546344Y-88926094D01*
X67546335Y-88926098D01*
X67332171Y-89025964D01*
X67332169Y-89025965D01*
X67138597Y-89161505D01*
X66971506Y-89328596D01*
X66835965Y-89522170D01*
X66835962Y-89522175D01*
X66833289Y-89527909D01*
X66787115Y-89580346D01*
X66720909Y-89599500D01*
X66426666Y-89599500D01*
X66359627Y-89579815D01*
X66338984Y-89563180D01*
X66295692Y-89519887D01*
X66295684Y-89519881D01*
X66205930Y-89466801D01*
X66156395Y-89437506D01*
X66156394Y-89437505D01*
X66156393Y-89437505D01*
X66156390Y-89437504D01*
X66000997Y-89392357D01*
X66000991Y-89392356D01*
X65964697Y-89389500D01*
X65964690Y-89389500D01*
X65555310Y-89389500D01*
X65555302Y-89389500D01*
X65519008Y-89392356D01*
X65519002Y-89392357D01*
X65363608Y-89437504D01*
X65363602Y-89437506D01*
X65343120Y-89449620D01*
X65275396Y-89466801D01*
X65216880Y-89449620D01*
X65196397Y-89437506D01*
X65196391Y-89437504D01*
X65040997Y-89392357D01*
X65040991Y-89392356D01*
X65004697Y-89389500D01*
X65004690Y-89389500D01*
X64595310Y-89389500D01*
X64595302Y-89389500D01*
X64559008Y-89392356D01*
X64559002Y-89392357D01*
X64403609Y-89437504D01*
X64403606Y-89437505D01*
X64264315Y-89519881D01*
X64264307Y-89519887D01*
X64149887Y-89634307D01*
X64149881Y-89634315D01*
X64067505Y-89773606D01*
X64067504Y-89773609D01*
X64022357Y-89929002D01*
X64022356Y-89929008D01*
X64019500Y-89965302D01*
X64019500Y-89985762D01*
X64014771Y-90013631D01*
X64016182Y-90013953D01*
X64014630Y-90020750D01*
X63994435Y-90199996D01*
X54000500Y-90199996D01*
X54000500Y-41654893D01*
X54020185Y-41587854D01*
X54052261Y-41557272D01*
X54050863Y-41555450D01*
X54057307Y-41550503D01*
X54057314Y-41550500D01*
X54150500Y-41457314D01*
X54216392Y-41343186D01*
X54250500Y-41215892D01*
X54250500Y-41084108D01*
X54216392Y-40956814D01*
X54216390Y-40956810D01*
X54211786Y-40948835D01*
X54195313Y-40880934D01*
X54218166Y-40814908D01*
X54257169Y-40779450D01*
X54307314Y-40750500D01*
X54400500Y-40657314D01*
X54466392Y-40543186D01*
X54500500Y-40415892D01*
X54500500Y-40284108D01*
X54466392Y-40156814D01*
X54411650Y-40061999D01*
X54395178Y-39994100D01*
X54411650Y-39938000D01*
X54466392Y-39843186D01*
X54500500Y-39715892D01*
X54500500Y-39584108D01*
X54466392Y-39456814D01*
X54400500Y-39342686D01*
X54307314Y-39249500D01*
X54257173Y-39220551D01*
X54208957Y-39169984D01*
X54195734Y-39101377D01*
X54211786Y-39051163D01*
X54216392Y-39043186D01*
X54250500Y-38915892D01*
X54250500Y-38784108D01*
X54216392Y-38656814D01*
X54150500Y-38542686D01*
X54057314Y-38449500D01*
X54057311Y-38449498D01*
X54050865Y-38444552D01*
X54052675Y-38442192D01*
X54014280Y-38401920D01*
X54000500Y-38345107D01*
X54000500Y-37573915D01*
X54000635Y-37571819D01*
X54000622Y-37564953D01*
X54000623Y-37564950D01*
X54000500Y-37499580D01*
X54000500Y-37434108D01*
X54000500Y-37427216D01*
X54000358Y-37425120D01*
X53967380Y-19897648D01*
X54699500Y-19897648D01*
X54699500Y-20102351D01*
X54731522Y-20304534D01*
X54794781Y-20499223D01*
X54828390Y-20565183D01*
X54886865Y-20679946D01*
X54887715Y-20681613D01*
X55008028Y-20847213D01*
X55152786Y-20991971D01*
X55289874Y-21091569D01*
X55318390Y-21112287D01*
X55434607Y-21171503D01*
X55500776Y-21205218D01*
X55500778Y-21205218D01*
X55500781Y-21205220D01*
X55605137Y-21239127D01*
X55695465Y-21268477D01*
X55796557Y-21284488D01*
X55897648Y-21300500D01*
X55897649Y-21300500D01*
X56102351Y-21300500D01*
X56102352Y-21300500D01*
X56304534Y-21268477D01*
X56499219Y-21205220D01*
X56681610Y-21112287D01*
X56809096Y-21019664D01*
X56847213Y-20991971D01*
X56847215Y-20991968D01*
X56847219Y-20991966D01*
X56991966Y-20847219D01*
X56991968Y-20847215D01*
X56991971Y-20847213D01*
X57051203Y-20765686D01*
X57112287Y-20681610D01*
X57205220Y-20499219D01*
X57268477Y-20304534D01*
X57300500Y-20102352D01*
X57300500Y-19897648D01*
X57268477Y-19695466D01*
X57205220Y-19500781D01*
X57205218Y-19500778D01*
X57205218Y-19500776D01*
X57149975Y-19392357D01*
X57112287Y-19318390D01*
X57068724Y-19258430D01*
X56991971Y-19152786D01*
X56847213Y-19008028D01*
X56681613Y-18887715D01*
X56681612Y-18887714D01*
X56681610Y-18887713D01*
X56624653Y-18858691D01*
X56499223Y-18794781D01*
X56304534Y-18731522D01*
X56129995Y-18703878D01*
X56102352Y-18699500D01*
X55897648Y-18699500D01*
X55873329Y-18703351D01*
X55695465Y-18731522D01*
X55500776Y-18794781D01*
X55318386Y-18887715D01*
X55152786Y-19008028D01*
X55008028Y-19152786D01*
X54887715Y-19318386D01*
X54794781Y-19500776D01*
X54731522Y-19695465D01*
X54699500Y-19897648D01*
X53967380Y-19897648D01*
X53966429Y-19392356D01*
X53962633Y-17374999D01*
X57944341Y-17374999D01*
X57944341Y-17375000D01*
X57964936Y-17610403D01*
X57964938Y-17610413D01*
X58026094Y-17838655D01*
X58026096Y-17838659D01*
X58026097Y-17838663D01*
X58106004Y-18010023D01*
X58125965Y-18052830D01*
X58125967Y-18052834D01*
X58234281Y-18207521D01*
X58261505Y-18246401D01*
X58428599Y-18413495D01*
X58508982Y-18469780D01*
X58622165Y-18549032D01*
X58622167Y-18549033D01*
X58622170Y-18549035D01*
X58836337Y-18648903D01*
X59064592Y-18710063D01*
X59241034Y-18725500D01*
X59299999Y-18730659D01*
X59300000Y-18730659D01*
X59300001Y-18730659D01*
X59358966Y-18725500D01*
X59535408Y-18710063D01*
X59763663Y-18648903D01*
X59977830Y-18549035D01*
X60171401Y-18413495D01*
X60338495Y-18246401D01*
X60468425Y-18060842D01*
X60523002Y-18017217D01*
X60592500Y-18010023D01*
X60654855Y-18041546D01*
X60671575Y-18060842D01*
X60801500Y-18246395D01*
X60801505Y-18246401D01*
X60968599Y-18413495D01*
X61048982Y-18469780D01*
X61162165Y-18549032D01*
X61162167Y-18549033D01*
X61162170Y-18549035D01*
X61376337Y-18648903D01*
X61604592Y-18710063D01*
X61781034Y-18725500D01*
X61839999Y-18730659D01*
X61840000Y-18730659D01*
X61840001Y-18730659D01*
X61898966Y-18725500D01*
X62075408Y-18710063D01*
X62303663Y-18648903D01*
X62517830Y-18549035D01*
X62711401Y-18413495D01*
X62878495Y-18246401D01*
X63008425Y-18060842D01*
X63063002Y-18017217D01*
X63132500Y-18010023D01*
X63194855Y-18041546D01*
X63211575Y-18060842D01*
X63341500Y-18246395D01*
X63341505Y-18246401D01*
X63508599Y-18413495D01*
X63588982Y-18469780D01*
X63702165Y-18549032D01*
X63702166Y-18549032D01*
X63702170Y-18549035D01*
X63796310Y-18592933D01*
X63814164Y-18601259D01*
X63866603Y-18647432D01*
X63885755Y-18714625D01*
X63865539Y-18781506D01*
X63849440Y-18801322D01*
X60931286Y-21719478D01*
X60819481Y-21831282D01*
X60819479Y-21831285D01*
X60769361Y-21918094D01*
X60769359Y-21918096D01*
X60740425Y-21968209D01*
X60740424Y-21968210D01*
X60740423Y-21968215D01*
X60699499Y-22120943D01*
X60699499Y-22120945D01*
X60699499Y-22289046D01*
X60699500Y-22289059D01*
X60699500Y-60513330D01*
X60699499Y-60513348D01*
X60699499Y-60679054D01*
X60699498Y-60679054D01*
X60740423Y-60831785D01*
X60769358Y-60881900D01*
X60769359Y-60881904D01*
X60769360Y-60881904D01*
X60819479Y-60968714D01*
X60819481Y-60968717D01*
X60938349Y-61087585D01*
X60938355Y-61087590D01*
X81308509Y-81457744D01*
X81341994Y-81519067D01*
X81344828Y-81545425D01*
X81344828Y-83742541D01*
X81325143Y-83809580D01*
X81272339Y-83855335D01*
X81211100Y-83866159D01*
X81190025Y-83864500D01*
X81190018Y-83864500D01*
X80780638Y-83864500D01*
X80780630Y-83864500D01*
X80744336Y-83867356D01*
X80744330Y-83867357D01*
X80588937Y-83912504D01*
X80588934Y-83912505D01*
X80449643Y-83994881D01*
X80449635Y-83994887D01*
X80335215Y-84109307D01*
X80335209Y-84109315D01*
X80252833Y-84248606D01*
X80252832Y-84248609D01*
X80207685Y-84404002D01*
X80207684Y-84404008D01*
X80204828Y-84440302D01*
X80204828Y-84460762D01*
X80200099Y-84488631D01*
X80201510Y-84488953D01*
X80199958Y-84495750D01*
X80179763Y-84674996D01*
X80179763Y-84675003D01*
X80199958Y-84854252D01*
X80201509Y-84861043D01*
X80200090Y-84861366D01*
X80204828Y-84889236D01*
X80204828Y-84909697D01*
X80207684Y-84945991D01*
X80207685Y-84945997D01*
X80252832Y-85101390D01*
X80252833Y-85101393D01*
X80335209Y-85240684D01*
X80335215Y-85240692D01*
X80345126Y-85250603D01*
X80378611Y-85311926D01*
X80373627Y-85381618D01*
X80345126Y-85425965D01*
X79988046Y-85783045D01*
X79926723Y-85816530D01*
X79857031Y-85811546D01*
X79831475Y-85798466D01*
X79760757Y-85751214D01*
X79574127Y-85673909D01*
X79574119Y-85673907D01*
X79376007Y-85634500D01*
X79376003Y-85634500D01*
X78723997Y-85634500D01*
X78723992Y-85634500D01*
X78525880Y-85673907D01*
X78525872Y-85673909D01*
X78339247Y-85751212D01*
X78339237Y-85751217D01*
X78171281Y-85863441D01*
X78028444Y-86006278D01*
X78024578Y-86010990D01*
X78023181Y-86009843D01*
X77976088Y-86049198D01*
X77926603Y-86059500D01*
X76871271Y-86059500D01*
X76718544Y-86100423D01*
X76718537Y-86100426D01*
X76581618Y-86179475D01*
X76581610Y-86179481D01*
X76469809Y-86291282D01*
X76469803Y-86291290D01*
X76390754Y-86428209D01*
X76390751Y-86428216D01*
X76349828Y-86580943D01*
X76349828Y-86739057D01*
X76389300Y-86886366D01*
X76390751Y-86891783D01*
X76390754Y-86891790D01*
X76469803Y-87028709D01*
X76469809Y-87028717D01*
X76558911Y-87117819D01*
X76592396Y-87179142D01*
X76587412Y-87248834D01*
X76545540Y-87304767D01*
X76480076Y-87329184D01*
X76471230Y-87329500D01*
X74859773Y-87329500D01*
X74792734Y-87309815D01*
X74746979Y-87257011D01*
X74737035Y-87187853D01*
X74753041Y-87142379D01*
X74762494Y-87126395D01*
X74807643Y-86970993D01*
X74810500Y-86934690D01*
X74810500Y-86914236D01*
X74815237Y-86886366D01*
X74813819Y-86886043D01*
X74815369Y-86879252D01*
X74835565Y-86700003D01*
X74835565Y-86699996D01*
X74815369Y-86520750D01*
X74813818Y-86513953D01*
X74815228Y-86513631D01*
X74810500Y-86485762D01*
X74810500Y-86465317D01*
X74810499Y-86465302D01*
X74807643Y-86429008D01*
X74807642Y-86429002D01*
X74762495Y-86273609D01*
X74762494Y-86273606D01*
X74762494Y-86273605D01*
X74680117Y-86134313D01*
X74680115Y-86134311D01*
X74680112Y-86134307D01*
X74565692Y-86019887D01*
X74565684Y-86019881D01*
X74475930Y-85966801D01*
X74426395Y-85937506D01*
X74426394Y-85937505D01*
X74426393Y-85937505D01*
X74426390Y-85937504D01*
X74270997Y-85892357D01*
X74270991Y-85892356D01*
X74234697Y-85889500D01*
X74234690Y-85889500D01*
X73825310Y-85889500D01*
X73825302Y-85889500D01*
X73789008Y-85892356D01*
X73789002Y-85892357D01*
X73633608Y-85937504D01*
X73633602Y-85937506D01*
X73613120Y-85949620D01*
X73545396Y-85966801D01*
X73486880Y-85949620D01*
X73466397Y-85937506D01*
X73466391Y-85937504D01*
X73310997Y-85892357D01*
X73310991Y-85892356D01*
X73274697Y-85889500D01*
X73274690Y-85889500D01*
X72865310Y-85889500D01*
X72865302Y-85889500D01*
X72829008Y-85892356D01*
X72829002Y-85892357D01*
X72673609Y-85937504D01*
X72673606Y-85937505D01*
X72534315Y-86019881D01*
X72534307Y-86019887D01*
X72419887Y-86134307D01*
X72419881Y-86134315D01*
X72337505Y-86273606D01*
X72337504Y-86273609D01*
X72292357Y-86429002D01*
X72292356Y-86429008D01*
X72289500Y-86465302D01*
X72289500Y-86579902D01*
X72269815Y-86646941D01*
X72253181Y-86667583D01*
X72024338Y-86896426D01*
X71963015Y-86929911D01*
X71893323Y-86924927D01*
X71837390Y-86883055D01*
X71812973Y-86817591D01*
X71813129Y-86797937D01*
X71817323Y-86750000D01*
X71817323Y-86749997D01*
X71802533Y-86580943D01*
X71798070Y-86529932D01*
X71740894Y-86316550D01*
X71729115Y-86291290D01*
X71688096Y-86203323D01*
X71677604Y-86134246D01*
X71695483Y-86084949D01*
X71733453Y-86024522D01*
X71793032Y-85854255D01*
X71799318Y-85798466D01*
X71813229Y-85675003D01*
X71813229Y-85674996D01*
X71793033Y-85495750D01*
X71793032Y-85495745D01*
X71772649Y-85437494D01*
X71733453Y-85325478D01*
X71637480Y-85172738D01*
X71509926Y-85045184D01*
X71357187Y-84949211D01*
X71186918Y-84889631D01*
X71186913Y-84889630D01*
X71007668Y-84869435D01*
X71007660Y-84869435D01*
X70828414Y-84889630D01*
X70828409Y-84889631D01*
X70658140Y-84949211D01*
X70505401Y-85045184D01*
X70377848Y-85172737D01*
X70281874Y-85325478D01*
X70230417Y-85472536D01*
X70189695Y-85529313D01*
X70145471Y-85551356D01*
X70116551Y-85559105D01*
X70116550Y-85559105D01*
X69916340Y-85652465D01*
X69916338Y-85652466D01*
X69735377Y-85779175D01*
X69579175Y-85935377D01*
X69452466Y-86116338D01*
X69452462Y-86116345D01*
X69424038Y-86177300D01*
X69377865Y-86229739D01*
X69310671Y-86248890D01*
X69243791Y-86228673D01*
X69199276Y-86177300D01*
X69147534Y-86066339D01*
X69055834Y-85935377D01*
X69020827Y-85885381D01*
X68946992Y-85811546D01*
X68864620Y-85729174D01*
X68864616Y-85729171D01*
X68864615Y-85729170D01*
X68683666Y-85602468D01*
X68683662Y-85602466D01*
X68683660Y-85602465D01*
X68483450Y-85509106D01*
X68483447Y-85509105D01*
X68483445Y-85509104D01*
X68270070Y-85451930D01*
X68270062Y-85451929D01*
X68050002Y-85432677D01*
X68049998Y-85432677D01*
X67829937Y-85451929D01*
X67829929Y-85451930D01*
X67616554Y-85509104D01*
X67616548Y-85509107D01*
X67416340Y-85602465D01*
X67416338Y-85602466D01*
X67235377Y-85729175D01*
X67079175Y-85885377D01*
X66952466Y-86066338D01*
X66952465Y-86066340D01*
X66859107Y-86266548D01*
X66859104Y-86266554D01*
X66801930Y-86479929D01*
X66801929Y-86479937D01*
X66782677Y-86699997D01*
X66782677Y-86700002D01*
X66801929Y-86920062D01*
X66801930Y-86920070D01*
X66859104Y-87133445D01*
X66859105Y-87133447D01*
X66859106Y-87133450D01*
X66899182Y-87219394D01*
X66952466Y-87333662D01*
X66952468Y-87333666D01*
X67079170Y-87514615D01*
X67079175Y-87514621D01*
X67235378Y-87670824D01*
X67235384Y-87670829D01*
X67416333Y-87797531D01*
X67416335Y-87797532D01*
X67416338Y-87797534D01*
X67616550Y-87890894D01*
X67829932Y-87948070D01*
X67976743Y-87960914D01*
X68049998Y-87967323D01*
X68050000Y-87967323D01*
X68050002Y-87967323D01*
X68080502Y-87964654D01*
X68270068Y-87948070D01*
X68341903Y-87928821D01*
X68411752Y-87930482D01*
X68461679Y-87960914D01*
X68677139Y-88176374D01*
X68677149Y-88176385D01*
X68681479Y-88180715D01*
X68681480Y-88180716D01*
X68793284Y-88292520D01*
X68793286Y-88292521D01*
X68793290Y-88292524D01*
X68920728Y-88366099D01*
X68930216Y-88371577D01*
X69042019Y-88401534D01*
X69082942Y-88412500D01*
X69082943Y-88412500D01*
X71871331Y-88412500D01*
X71871347Y-88412501D01*
X71878943Y-88412501D01*
X72037054Y-88412501D01*
X72037057Y-88412501D01*
X72189785Y-88371577D01*
X72239904Y-88342639D01*
X72326716Y-88292520D01*
X72438520Y-88180716D01*
X72438520Y-88180714D01*
X72448728Y-88170507D01*
X72448730Y-88170504D01*
X72982318Y-87636916D01*
X73043641Y-87603431D01*
X73113333Y-87608415D01*
X73157680Y-87636916D01*
X73931284Y-88410520D01*
X73931286Y-88410521D01*
X73931290Y-88410524D01*
X74068209Y-88489573D01*
X74068216Y-88489577D01*
X74220943Y-88530501D01*
X74220945Y-88530501D01*
X74386654Y-88530501D01*
X74386670Y-88530500D01*
X77675500Y-88530500D01*
X77742539Y-88550185D01*
X77788294Y-88602989D01*
X77799500Y-88654500D01*
X77799500Y-88811765D01*
X77779815Y-88878804D01*
X77727011Y-88924559D01*
X77716455Y-88928806D01*
X77658143Y-88949210D01*
X77658139Y-88949212D01*
X77505401Y-89045184D01*
X77377848Y-89172737D01*
X77281875Y-89325476D01*
X77222295Y-89495745D01*
X77222294Y-89495750D01*
X77202099Y-89674996D01*
X77202099Y-89675003D01*
X77222294Y-89854249D01*
X77222295Y-89854254D01*
X77281875Y-90024523D01*
X77372527Y-90168793D01*
X77377848Y-90177262D01*
X77505402Y-90304816D01*
X77658142Y-90400789D01*
X77828409Y-90460368D01*
X77828414Y-90460369D01*
X78007660Y-90480565D01*
X78007664Y-90480565D01*
X78007668Y-90480565D01*
X78186913Y-90460369D01*
X78186916Y-90460368D01*
X78186919Y-90460368D01*
X78357186Y-90400789D01*
X78509926Y-90304816D01*
X78509927Y-90304815D01*
X78552923Y-90261819D01*
X78614246Y-90228333D01*
X78640605Y-90225499D01*
X79847871Y-90225499D01*
X79847872Y-90225499D01*
X79907483Y-90219091D01*
X80042331Y-90168796D01*
X80157546Y-90082546D01*
X80243796Y-89967331D01*
X80294091Y-89832483D01*
X80300500Y-89772873D01*
X80300499Y-88627128D01*
X80294091Y-88567517D01*
X80265021Y-88489577D01*
X80243797Y-88432671D01*
X80243796Y-88432670D01*
X80243796Y-88432669D01*
X80242967Y-88431562D01*
X80242485Y-88430268D01*
X80239546Y-88424886D01*
X80240319Y-88424463D01*
X80218551Y-88366099D01*
X80227675Y-88309798D01*
X80234833Y-88292519D01*
X80261091Y-88229127D01*
X80300500Y-88031003D01*
X80300500Y-87828997D01*
X80261091Y-87630873D01*
X80183786Y-87444244D01*
X80151329Y-87395669D01*
X80130452Y-87328994D01*
X80148936Y-87261613D01*
X80192430Y-87219394D01*
X80193864Y-87218565D01*
X80282231Y-87167547D01*
X80329044Y-87140520D01*
X80440848Y-87028716D01*
X80440848Y-87028714D01*
X80451052Y-87018511D01*
X80451055Y-87018506D01*
X81947744Y-85521819D01*
X82009067Y-85488334D01*
X82035425Y-85485500D01*
X82150010Y-85485500D01*
X82150018Y-85485500D01*
X82186321Y-85482643D01*
X82186323Y-85482642D01*
X82186325Y-85482642D01*
X82227303Y-85470736D01*
X82341723Y-85437494D01*
X82481015Y-85355117D01*
X82595445Y-85240687D01*
X82677822Y-85101395D01*
X82722971Y-84945993D01*
X82725828Y-84909690D01*
X82725828Y-84440310D01*
X82722971Y-84404007D01*
X82677822Y-84248605D01*
X82595445Y-84109313D01*
X82595443Y-84109311D01*
X82595440Y-84109307D01*
X82582147Y-84096014D01*
X82548662Y-84034691D01*
X82545828Y-84008333D01*
X82545828Y-81334387D01*
X82545829Y-81334374D01*
X82545829Y-81166273D01*
X82545829Y-81166271D01*
X82504905Y-81013543D01*
X82475967Y-80963423D01*
X82425848Y-80876612D01*
X82314044Y-80764808D01*
X82314043Y-80764807D01*
X82309713Y-80760477D01*
X82309702Y-80760467D01*
X61936819Y-60387584D01*
X61903334Y-60326261D01*
X61900500Y-60299903D01*
X61900500Y-22500096D01*
X61920185Y-22433057D01*
X61936814Y-22412420D01*
X63669289Y-20679944D01*
X63730610Y-20646461D01*
X63800302Y-20651445D01*
X63856235Y-20693317D01*
X63863700Y-20704505D01*
X63899883Y-20765687D01*
X63913180Y-20778984D01*
X63946666Y-20840305D01*
X63949500Y-20866666D01*
X63949500Y-54533334D01*
X63929815Y-54600373D01*
X63913181Y-54621015D01*
X63899887Y-54634308D01*
X63899880Y-54634317D01*
X63866981Y-54689945D01*
X63865245Y-54692793D01*
X63781872Y-54825482D01*
X63722297Y-54995737D01*
X63722294Y-54995750D01*
X63702099Y-55174996D01*
X63702099Y-55175003D01*
X63722294Y-55354249D01*
X63722297Y-55354262D01*
X63779897Y-55518869D01*
X63781875Y-55524522D01*
X63783861Y-55527683D01*
X63797942Y-55559057D01*
X63817504Y-55626390D01*
X63817505Y-55626393D01*
X63899881Y-55765684D01*
X63899887Y-55765692D01*
X64014307Y-55880112D01*
X64014311Y-55880115D01*
X64014313Y-55880117D01*
X64153605Y-55962494D01*
X64194587Y-55974400D01*
X64309002Y-56007642D01*
X64309005Y-56007642D01*
X64309007Y-56007643D01*
X64345310Y-56010500D01*
X64345318Y-56010500D01*
X64754682Y-56010500D01*
X64754690Y-56010500D01*
X64790993Y-56007643D01*
X64790995Y-56007642D01*
X64790997Y-56007642D01*
X64831975Y-55995736D01*
X64946395Y-55962494D01*
X64966879Y-55950379D01*
X65034601Y-55933196D01*
X65093119Y-55950379D01*
X65113605Y-55962494D01*
X65113607Y-55962494D01*
X65113608Y-55962495D01*
X65269002Y-56007642D01*
X65269005Y-56007642D01*
X65269007Y-56007643D01*
X65305310Y-56010500D01*
X65305318Y-56010500D01*
X65714682Y-56010500D01*
X65714690Y-56010500D01*
X65750993Y-56007643D01*
X65750995Y-56007642D01*
X65750997Y-56007642D01*
X65791975Y-55995736D01*
X65906395Y-55962494D01*
X66045687Y-55880117D01*
X66088984Y-55836820D01*
X66150307Y-55803334D01*
X66176666Y-55800500D01*
X66720909Y-55800500D01*
X66787948Y-55820185D01*
X66833292Y-55872097D01*
X66835965Y-55877830D01*
X66971505Y-56071401D01*
X67138599Y-56238495D01*
X67235384Y-56306265D01*
X67332165Y-56374032D01*
X67332167Y-56374033D01*
X67332170Y-56374035D01*
X67546337Y-56473903D01*
X67774592Y-56535063D01*
X67951034Y-56550500D01*
X68009999Y-56555659D01*
X68010000Y-56555659D01*
X68010001Y-56555659D01*
X68068966Y-56550500D01*
X68245408Y-56535063D01*
X68473663Y-56473903D01*
X68687830Y-56374035D01*
X68881401Y-56238495D01*
X69003329Y-56116566D01*
X69064648Y-56083084D01*
X69134340Y-56088068D01*
X69190274Y-56129939D01*
X69207189Y-56160917D01*
X69256202Y-56292328D01*
X69256206Y-56292335D01*
X69342452Y-56407544D01*
X69342455Y-56407547D01*
X69457664Y-56493793D01*
X69457671Y-56493797D01*
X69592517Y-56544091D01*
X69592516Y-56544091D01*
X69599444Y-56544835D01*
X69652127Y-56550500D01*
X71447872Y-56550499D01*
X71507483Y-56544091D01*
X71642331Y-56493796D01*
X71757546Y-56407546D01*
X71843796Y-56292331D01*
X71894091Y-56157483D01*
X71900500Y-56097873D01*
X71900499Y-54302128D01*
X71894091Y-54242517D01*
X71892810Y-54239083D01*
X71843797Y-54107671D01*
X71843793Y-54107664D01*
X71757547Y-53992455D01*
X71757544Y-53992452D01*
X71642335Y-53906206D01*
X71642328Y-53906202D01*
X71507482Y-53855908D01*
X71507483Y-53855908D01*
X71447883Y-53849501D01*
X71447881Y-53849500D01*
X71447873Y-53849500D01*
X71447864Y-53849500D01*
X69652129Y-53849500D01*
X69652123Y-53849501D01*
X69592516Y-53855908D01*
X69457671Y-53906202D01*
X69457664Y-53906206D01*
X69342455Y-53992452D01*
X69342452Y-53992455D01*
X69256206Y-54107664D01*
X69256203Y-54107669D01*
X69207189Y-54239083D01*
X69165317Y-54295016D01*
X69099853Y-54319433D01*
X69031580Y-54304581D01*
X69003326Y-54283430D01*
X68881402Y-54161506D01*
X68881395Y-54161501D01*
X68687834Y-54025967D01*
X68687830Y-54025965D01*
X68623023Y-53995745D01*
X68473663Y-53926097D01*
X68473659Y-53926096D01*
X68473655Y-53926094D01*
X68245413Y-53864938D01*
X68245403Y-53864936D01*
X68010001Y-53844341D01*
X68009999Y-53844341D01*
X67774596Y-53864936D01*
X67774586Y-53864938D01*
X67546344Y-53926094D01*
X67546335Y-53926098D01*
X67332171Y-54025964D01*
X67332169Y-54025965D01*
X67138597Y-54161505D01*
X66971506Y-54328596D01*
X66835965Y-54522170D01*
X66835962Y-54522175D01*
X66833289Y-54527909D01*
X66787115Y-54580346D01*
X66720909Y-54599500D01*
X66176666Y-54599500D01*
X66109627Y-54579815D01*
X66088984Y-54563180D01*
X66045692Y-54519887D01*
X66045684Y-54519881D01*
X65906393Y-54437505D01*
X65906390Y-54437504D01*
X65750997Y-54392357D01*
X65750991Y-54392356D01*
X65714697Y-54389500D01*
X65714690Y-54389500D01*
X65305310Y-54389500D01*
X65305302Y-54389500D01*
X65284228Y-54391159D01*
X65215851Y-54376794D01*
X65166094Y-54327743D01*
X65150500Y-54267541D01*
X65150500Y-21132458D01*
X65170185Y-21065419D01*
X65222989Y-21019664D01*
X65284231Y-21008841D01*
X65305310Y-21010500D01*
X65305318Y-21010500D01*
X65714682Y-21010500D01*
X65714690Y-21010500D01*
X65750993Y-21007643D01*
X65750995Y-21007642D01*
X65750997Y-21007642D01*
X65804953Y-20991966D01*
X65906395Y-20962494D01*
X66045687Y-20880117D01*
X66088984Y-20836820D01*
X66150307Y-20803334D01*
X66176666Y-20800500D01*
X66692437Y-20800500D01*
X66759476Y-20820185D01*
X66794012Y-20853377D01*
X66910447Y-21019664D01*
X66929169Y-21046401D01*
X67096263Y-21213495D01*
X67174785Y-21268477D01*
X67289829Y-21349032D01*
X67289831Y-21349033D01*
X67289834Y-21349035D01*
X67504001Y-21448903D01*
X67732256Y-21510063D01*
X67908698Y-21525500D01*
X67967663Y-21530659D01*
X67967664Y-21530659D01*
X67967665Y-21530659D01*
X68026630Y-21525500D01*
X68203072Y-21510063D01*
X68431327Y-21448903D01*
X68645494Y-21349035D01*
X68839065Y-21213495D01*
X68960993Y-21091566D01*
X69022312Y-21058084D01*
X69092004Y-21063068D01*
X69147938Y-21104939D01*
X69164853Y-21135917D01*
X69213866Y-21267328D01*
X69213870Y-21267335D01*
X69300116Y-21382544D01*
X69300119Y-21382547D01*
X69415328Y-21468793D01*
X69415335Y-21468797D01*
X69550181Y-21519091D01*
X69550180Y-21519091D01*
X69557108Y-21519835D01*
X69609791Y-21525500D01*
X71405536Y-21525499D01*
X71465147Y-21519091D01*
X71599995Y-21468796D01*
X71715210Y-21382546D01*
X71801460Y-21267331D01*
X71851755Y-21132483D01*
X71858164Y-21072873D01*
X71858163Y-20602475D01*
X71877847Y-20535437D01*
X71930651Y-20489682D01*
X71996047Y-20479256D01*
X72007664Y-20480565D01*
X72007664Y-20480564D01*
X72007665Y-20480565D01*
X72007668Y-20480565D01*
X72186913Y-20460369D01*
X72186916Y-20460368D01*
X72186919Y-20460368D01*
X72357186Y-20400789D01*
X72509926Y-20304816D01*
X72637480Y-20177262D01*
X72733453Y-20024522D01*
X72793032Y-19854255D01*
X72810923Y-19695466D01*
X72813229Y-19675003D01*
X72813229Y-19674996D01*
X72801697Y-19572648D01*
X79664828Y-19572648D01*
X79664828Y-19777351D01*
X79696850Y-19979534D01*
X79760109Y-20174223D01*
X79853043Y-20356613D01*
X79973356Y-20522213D01*
X80118114Y-20666971D01*
X80253988Y-20765687D01*
X80283718Y-20787287D01*
X80380932Y-20836820D01*
X80466104Y-20880218D01*
X80466106Y-20880218D01*
X80466109Y-20880220D01*
X80570465Y-20914127D01*
X80660793Y-20943477D01*
X80761885Y-20959488D01*
X80862976Y-20975500D01*
X80862977Y-20975500D01*
X81067679Y-20975500D01*
X81067680Y-20975500D01*
X81269862Y-20943477D01*
X81464547Y-20880220D01*
X81646938Y-20787287D01*
X81776278Y-20693317D01*
X81812541Y-20666971D01*
X81812543Y-20666968D01*
X81812547Y-20666966D01*
X81957294Y-20522219D01*
X81957296Y-20522215D01*
X81957299Y-20522213D01*
X82045518Y-20400788D01*
X82077615Y-20356610D01*
X82170548Y-20174219D01*
X82233805Y-19979534D01*
X82265828Y-19777352D01*
X82265828Y-19572648D01*
X82243187Y-19429702D01*
X82233805Y-19370465D01*
X82184109Y-19217517D01*
X82170548Y-19175781D01*
X82170546Y-19175778D01*
X82170546Y-19175776D01*
X82104005Y-19045184D01*
X82077615Y-18993390D01*
X82069884Y-18982749D01*
X81957299Y-18827786D01*
X81812541Y-18683028D01*
X81646941Y-18562715D01*
X81646940Y-18562714D01*
X81646938Y-18562713D01*
X81589981Y-18533691D01*
X81464551Y-18469781D01*
X81269862Y-18406522D01*
X81095323Y-18378878D01*
X81067680Y-18374500D01*
X80862976Y-18374500D01*
X80838657Y-18378351D01*
X80660793Y-18406522D01*
X80466104Y-18469781D01*
X80283714Y-18562715D01*
X80118114Y-18683028D01*
X79973356Y-18827786D01*
X79853043Y-18993386D01*
X79760109Y-19175776D01*
X79696850Y-19370465D01*
X79664828Y-19572648D01*
X72801697Y-19572648D01*
X72793033Y-19495750D01*
X72793032Y-19495745D01*
X72772653Y-19437505D01*
X72733453Y-19325478D01*
X72728999Y-19318390D01*
X72691324Y-19258430D01*
X72637480Y-19172738D01*
X72509926Y-19045184D01*
X72450793Y-19008028D01*
X72365593Y-18954493D01*
X72319302Y-18902158D01*
X72308654Y-18833104D01*
X72337029Y-18769256D01*
X72395419Y-18730884D01*
X72431563Y-18725499D01*
X72897872Y-18725499D01*
X72957483Y-18719091D01*
X73092331Y-18668796D01*
X73207546Y-18582546D01*
X73293796Y-18467331D01*
X73344091Y-18332483D01*
X73350500Y-18272873D01*
X73350499Y-16477128D01*
X73344091Y-16417517D01*
X73342810Y-16414083D01*
X73293797Y-16282671D01*
X73293793Y-16282664D01*
X73207547Y-16167455D01*
X73207544Y-16167452D01*
X73092335Y-16081206D01*
X73092328Y-16081202D01*
X72957482Y-16030908D01*
X72957483Y-16030908D01*
X72897883Y-16024501D01*
X72897881Y-16024500D01*
X72897873Y-16024500D01*
X72897864Y-16024500D01*
X71102129Y-16024500D01*
X71102123Y-16024501D01*
X71042516Y-16030908D01*
X70907671Y-16081202D01*
X70907664Y-16081206D01*
X70792455Y-16167452D01*
X70792452Y-16167455D01*
X70706206Y-16282664D01*
X70706203Y-16282669D01*
X70657189Y-16414083D01*
X70615317Y-16470016D01*
X70549853Y-16494433D01*
X70481580Y-16479581D01*
X70453326Y-16458430D01*
X70331402Y-16336506D01*
X70331395Y-16336501D01*
X70137834Y-16200967D01*
X70137830Y-16200965D01*
X70137828Y-16200964D01*
X69923663Y-16101097D01*
X69923659Y-16101096D01*
X69923655Y-16101094D01*
X69695413Y-16039938D01*
X69695403Y-16039936D01*
X69460001Y-16019341D01*
X69459999Y-16019341D01*
X69224596Y-16039936D01*
X69224586Y-16039938D01*
X68996344Y-16101094D01*
X68996335Y-16101098D01*
X68782171Y-16200964D01*
X68782169Y-16200965D01*
X68588597Y-16336505D01*
X68421505Y-16503597D01*
X68291575Y-16689158D01*
X68236998Y-16732783D01*
X68167500Y-16739977D01*
X68105145Y-16708454D01*
X68088425Y-16689158D01*
X67958494Y-16503597D01*
X67791402Y-16336506D01*
X67791395Y-16336501D01*
X67597834Y-16200967D01*
X67597830Y-16200965D01*
X67597828Y-16200964D01*
X67383663Y-16101097D01*
X67383659Y-16101096D01*
X67383655Y-16101094D01*
X67155413Y-16039938D01*
X67155403Y-16039936D01*
X66920001Y-16019341D01*
X66919999Y-16019341D01*
X66684596Y-16039936D01*
X66684586Y-16039938D01*
X66456344Y-16101094D01*
X66456335Y-16101098D01*
X66242171Y-16200964D01*
X66242169Y-16200965D01*
X66048597Y-16336505D01*
X65881505Y-16503597D01*
X65751575Y-16689158D01*
X65696998Y-16732783D01*
X65627500Y-16739977D01*
X65565145Y-16708454D01*
X65548425Y-16689158D01*
X65418494Y-16503597D01*
X65251402Y-16336506D01*
X65251395Y-16336501D01*
X65057834Y-16200967D01*
X65057830Y-16200965D01*
X65057828Y-16200964D01*
X64843663Y-16101097D01*
X64843659Y-16101096D01*
X64843655Y-16101094D01*
X64615413Y-16039938D01*
X64615403Y-16039936D01*
X64380001Y-16019341D01*
X64379999Y-16019341D01*
X64144596Y-16039936D01*
X64144586Y-16039938D01*
X63916344Y-16101094D01*
X63916335Y-16101098D01*
X63702171Y-16200964D01*
X63702169Y-16200965D01*
X63508597Y-16336505D01*
X63341505Y-16503597D01*
X63211575Y-16689158D01*
X63156998Y-16732783D01*
X63087500Y-16739977D01*
X63025145Y-16708454D01*
X63008425Y-16689158D01*
X62878494Y-16503597D01*
X62711402Y-16336506D01*
X62711395Y-16336501D01*
X62517834Y-16200967D01*
X62517830Y-16200965D01*
X62517828Y-16200964D01*
X62303663Y-16101097D01*
X62303659Y-16101096D01*
X62303655Y-16101094D01*
X62075413Y-16039938D01*
X62075403Y-16039936D01*
X61840001Y-16019341D01*
X61839999Y-16019341D01*
X61604596Y-16039936D01*
X61604586Y-16039938D01*
X61376344Y-16101094D01*
X61376335Y-16101098D01*
X61162171Y-16200964D01*
X61162169Y-16200965D01*
X60968597Y-16336505D01*
X60801505Y-16503597D01*
X60671575Y-16689158D01*
X60616998Y-16732783D01*
X60547500Y-16739977D01*
X60485145Y-16708454D01*
X60468425Y-16689158D01*
X60338494Y-16503597D01*
X60171402Y-16336506D01*
X60171395Y-16336501D01*
X59977834Y-16200967D01*
X59977830Y-16200965D01*
X59977828Y-16200964D01*
X59763663Y-16101097D01*
X59763659Y-16101096D01*
X59763655Y-16101094D01*
X59535413Y-16039938D01*
X59535403Y-16039936D01*
X59300001Y-16019341D01*
X59299999Y-16019341D01*
X59064596Y-16039936D01*
X59064586Y-16039938D01*
X58836344Y-16101094D01*
X58836335Y-16101098D01*
X58622171Y-16200964D01*
X58622169Y-16200965D01*
X58428597Y-16336505D01*
X58261505Y-16503597D01*
X58125965Y-16697169D01*
X58125964Y-16697171D01*
X58026098Y-16911335D01*
X58026094Y-16911344D01*
X57964938Y-17139586D01*
X57964936Y-17139596D01*
X57944341Y-17374999D01*
X53962633Y-17374999D01*
X53959340Y-15624733D01*
X53978899Y-15557657D01*
X54031616Y-15511803D01*
X54083340Y-15500500D01*
X82833673Y-15500500D01*
X82900712Y-15520185D01*
G37*
%TD.AperFunction*%
%TA.AperFunction,NonConductor*%
G36*
X70584340Y-18263068D02*
G01*
X70640274Y-18304939D01*
X70657189Y-18335917D01*
X70706202Y-18467328D01*
X70706206Y-18467335D01*
X70792452Y-18582544D01*
X70792453Y-18582544D01*
X70792454Y-18582546D01*
X70799896Y-18588117D01*
X70817418Y-18601234D01*
X70859288Y-18657168D01*
X70864272Y-18726860D01*
X70830786Y-18788182D01*
X70769462Y-18821667D01*
X70743106Y-18824500D01*
X70106419Y-18824500D01*
X70039380Y-18804815D01*
X69993625Y-18752011D01*
X69983681Y-18682853D01*
X70012706Y-18619297D01*
X70054009Y-18588121D01*
X70137830Y-18549035D01*
X70331401Y-18413495D01*
X70453329Y-18291566D01*
X70514648Y-18258084D01*
X70584340Y-18263068D01*
G37*
%TD.AperFunction*%
%TA.AperFunction,NonConductor*%
G36*
X69096238Y-18675670D02*
G01*
X69224592Y-18710063D01*
X69276735Y-18714625D01*
X69341802Y-18740075D01*
X69382781Y-18796666D01*
X69386660Y-18866428D01*
X69352207Y-18927212D01*
X69340241Y-18937417D01*
X69324487Y-18949211D01*
X69300118Y-18967454D01*
X69300117Y-18967455D01*
X69300116Y-18967456D01*
X69213870Y-19082664D01*
X69213867Y-19082669D01*
X69164853Y-19214083D01*
X69122981Y-19270016D01*
X69057517Y-19294433D01*
X68989244Y-19279581D01*
X68960990Y-19258430D01*
X68839067Y-19136507D01*
X68839065Y-19136505D01*
X68788763Y-19101283D01*
X68745139Y-19046705D01*
X68737947Y-18977207D01*
X68769470Y-18914853D01*
X68772145Y-18912090D01*
X68840520Y-18843716D01*
X68840521Y-18843713D01*
X68976470Y-18707763D01*
X69037791Y-18674280D01*
X69096238Y-18675670D01*
G37*
%TD.AperFunction*%
%TA.AperFunction,NonConductor*%
G36*
X66924944Y-19095185D02*
G01*
X66970699Y-19147989D01*
X66980643Y-19217147D01*
X66951618Y-19280703D01*
X66945586Y-19287181D01*
X66929169Y-19303597D01*
X66793631Y-19497166D01*
X66793627Y-19497174D01*
X66779298Y-19527904D01*
X66733126Y-19580344D01*
X66666916Y-19599500D01*
X66176666Y-19599500D01*
X66109627Y-19579815D01*
X66088984Y-19563180D01*
X66045692Y-19519887D01*
X66045684Y-19519881D01*
X65906393Y-19437505D01*
X65906390Y-19437504D01*
X65750997Y-19392357D01*
X65750991Y-19392356D01*
X65714697Y-19389500D01*
X65714690Y-19389500D01*
X65305310Y-19389500D01*
X65305302Y-19389500D01*
X65265294Y-19392649D01*
X65196917Y-19378284D01*
X65147160Y-19329233D01*
X65131822Y-19261067D01*
X65155771Y-19195430D01*
X65167874Y-19181361D01*
X65237418Y-19111816D01*
X65298741Y-19078334D01*
X65325098Y-19075500D01*
X66857905Y-19075500D01*
X66924944Y-19095185D01*
G37*
%TD.AperFunction*%
%TA.AperFunction,NonConductor*%
G36*
X52656557Y-112692491D02*
G01*
X52815371Y-112737678D01*
X52999999Y-112754786D01*
X53000000Y-112754786D01*
X53000001Y-112754786D01*
X53061543Y-112749083D01*
X53184629Y-112737678D01*
X53343440Y-112692492D01*
X53413304Y-112693078D01*
X53471763Y-112731345D01*
X53500000Y-112794573D01*
X53500000Y-112830309D01*
X53499500Y-112834108D01*
X53499500Y-112965891D01*
X53500000Y-112967757D01*
X53500000Y-113532241D01*
X53499500Y-113534108D01*
X53499500Y-113665890D01*
X53500000Y-113669688D01*
X53500000Y-113674059D01*
X53489544Y-113741094D01*
X53443163Y-113793348D01*
X53375893Y-113812232D01*
X53343438Y-113807507D01*
X53184630Y-113762322D01*
X53184628Y-113762321D01*
X53000001Y-113745214D01*
X52999999Y-113745214D01*
X52815371Y-113762321D01*
X52815368Y-113762322D01*
X52656561Y-113807507D01*
X52586694Y-113806920D01*
X52528235Y-113768654D01*
X52500000Y-113705427D01*
X52500000Y-113669688D01*
X52500500Y-113665891D01*
X52500500Y-113534110D01*
X52500500Y-113534108D01*
X52500000Y-113532241D01*
X52500000Y-112967757D01*
X52500500Y-112965892D01*
X52500500Y-112834108D01*
X52500498Y-112834102D01*
X52500000Y-112830317D01*
X52500000Y-112825946D01*
X52510452Y-112758912D01*
X52556830Y-112706655D01*
X52624098Y-112687767D01*
X52656557Y-112692491D01*
G37*
%TD.AperFunction*%
M02*
